<svg xmlns="http://www.w3.org/2000/svg" width="209" height="209" fill="none" viewBox="0 0 209 209">
    <mask id="a" width="210" height="210" x="0" y="-1" maskUnits="userSpaceOnUse">
        <path fill="#C4C4C4" fill-rule="evenodd" d="M104.5 208.695c57.714 0 104.5-46.78 104.5-104.486C209 46.504 162.214-.276 104.5-.276S0 46.504 0 104.209c0 57.706 46.786 104.486 104.5 104.486zm0-37.065c37.241 0 67.43-30.185 67.43-67.42 0-37.236-30.189-67.421-67.43-67.421-37.24 0-67.43 30.185-67.43 67.421 0 37.235 30.19 67.42 67.43 67.42z" clip-rule="evenodd"/>
    </mask>
    <g mask="url(#a)">
        <path fill="#FF6B00" d="M104.474 104.469l7.283 104.263C54.211 212.833 4.257 169.364.256 111.748-3.744 54.131 39.646 4.306 97.19.205 99.448 0 102.217 0 104.474 0v104.469z"/>
        <path fill="#00FF7F" d="M104.474 104.468l61.444 84.58c-16.823 12.2-33.44 18.249-54.161 19.684l-7.283-104.264z"/>
        <path fill="#C777FF" d="M104.474 104.468l76.522 71.252c-4.718 5.024-9.437 9.227-14.976 13.225l-61.546-84.477z"/>
        <path fill="#77F7FF" d="M104.474 104.468H209c0 27.681-9.232 51.056-28.106 71.252l-76.42-71.252z"/>
        <path fill="#60F" d="M104.474 104.469l93.961-45.827C205.512 73.2 209 88.271 209 104.47H104.474z"/>
        <path fill="#FF77CB" d="M104.474 104.469l71.291-76.48c10.155 9.431 16.618 18.145 22.67 30.653l-93.961 45.827z"/>
        <path fill="#009CFF" d="M104.474 104.469V0c27.696 0 51.083 9.227 71.291 28.09l-71.291 76.379z"/>
    </g>
</svg>
