<svg xmlns="http://www.w3.org/2000/svg" width="59" height="58" fill="none" viewBox="0 0 59 58">
    <path fill="#6C5ED6" d="M53.697 29c0-4.866-1.446-9.622-4.155-13.668a24.639 24.639 0 0 0-11.062-9.06 24.693 24.693 0 0 0-14.241-1.4 24.664 24.664 0 0 0-12.62 6.732 24.587 24.587 0 0 0-6.746 12.597 24.557 24.557 0 0 0 1.402 14.214 24.612 24.612 0 0 0 9.079 11.04 24.683 24.683 0 0 0 31.123-3.06 24.598 24.598 0 0 0 5.343-7.98A24.559 24.559 0 0 0 53.697 29z"/>
    <path stroke="#fff" stroke-opacity=".2" stroke-width="4.47" d="M55.896 29A26.767 26.767 0 0 0 51.37 14.11a26.838 26.838 0 0 0-12.05-9.87 26.893 26.893 0 0 0-15.51-1.525 26.863 26.863 0 0 0-13.745 7.334 26.786 26.786 0 0 0-7.35 13.723 26.756 26.756 0 0 0 1.529 15.487 26.81 26.81 0 0 0 9.89 12.027 26.883 26.883 0 0 0 33.897-3.332 26.797 26.797 0 0 0 5.82-8.695A26.759 26.759 0 0 0 55.897 29z"/>
    <path stroke="#fff" stroke-width=".912" d="M19.191 42.928a71.83 71.83 0 0 0-.446-.051V42.89l-.003.02a1.02 1.02 0 0 0 .013.24c.023.13.095.38.347.529a.857.857 0 0 0 .521.11.994.994 0 0 0 .195-.04c.086-.02.167-.056.22-.08.079-.037.17-.086.27-.143.201-.113.455-.268.742-.45a83.443 83.443 0 0 0 2.04-1.348c1.344-.91 2.73-1.88 3.305-2.284a20.23 20.23 0 0 0 2.652.173c8.742 0 16.021-5.593 16.021-12.704L19.192 42.928zm0 0l-.445-.051m.445.051l-.445-.051m0-.013h.001c.01-.074.044-.21.082-.357.042-.16.098-.37.165-.61.132-.483.307-1.1.487-1.732.286-1.005.588-2.048.76-2.639-4.31-2.251-7.215-6.14-7.215-10.615 0-7.111 7.28-12.705 16.021-12.705 8.742 0 16.023 5.594 16.021 12.706L18.747 42.864zm0 0v.013m0-.013v.013"/>
    <path fill="#fff" d="M20.439 31.187c-.496 0-.899-.384-.899-.857v-5.326H18.14a.88.88 0 0 1-.882-.878c0-.484.395-.879.882-.879h4.6a.88.88 0 0 1 .881.879.882.882 0 0 1-.881.878h-1.402v5.328c0 .471-.403.855-.898.855zm7.878-.01c-.374 0-.66-.152-.748-.397l-.445-1.163h-2.74l-.445 1.163c-.085.243-.372.395-.746.395-.198 0-.393-.041-.57-.124-.25-.115-.487-.427-.214-1.273l2.15-5.646c.152-.43.612-.873 1.196-.885.587.014 1.047.456 1.2.886l2.146 5.645c.273.847.035 1.161-.212 1.274-.18.082-.375.124-.572.124zm-1.665-3.149l-.897-2.545-.897 2.545h1.794zm3.895 3.029c-.475 0-.862-.369-.862-.822v-6.091c0-.494.411-.897.917-.897s.917.403.917.897v5.268h1.91c.475 0 .861.369.861.822 0 .453-.386.821-.862.821h-2.881v.002zm4.991.12a.899.899 0 0 1-.898-.897v-6.136a.899.899 0 0 1 1.797 0v1.927l2.507-2.502a.7.7 0 0 1 .498-.2c.224 0 .45.097.618.265a.877.877 0 0 1 .264.568.706.706 0 0 1-.198.546l-2.047 2.044 2.211 2.924c.144.19.207.429.174.665a.888.888 0 0 1-.349.59.88.88 0 0 1-.54.18.892.892 0 0 1-.717-.356l-2.107-2.787-.311.311v1.956a.904.904 0 0 1-.902.901z"/>
</svg>
