<svg xmlns="http://www.w3.org/2000/svg" width="59" height="58" fill="none" viewBox="0 0 59 58">
    <path fill="#6C5ED6" d="M53.697 29c0-4.866-1.446-9.622-4.155-13.668a24.639 24.639 0 0 0-11.062-9.06 24.693 24.693 0 0 0-14.241-1.4 24.664 24.664 0 0 0-12.62 6.732 24.587 24.587 0 0 0-6.746 12.597 24.557 24.557 0 0 0 1.402 14.214 24.612 24.612 0 0 0 9.079 11.04 24.683 24.683 0 0 0 31.123-3.06 24.598 24.598 0 0 0 5.343-7.98A24.559 24.559 0 0 0 53.697 29z"/>
    <path stroke="#fff" stroke-opacity=".2" stroke-width="4.47" d="M55.896 29A26.767 26.767 0 0 0 51.37 14.11a26.838 26.838 0 0 0-12.05-9.87 26.893 26.893 0 0 0-15.51-1.525 26.863 26.863 0 0 0-13.745 7.334 26.786 26.786 0 0 0-7.35 13.723 26.756 26.756 0 0 0 1.529 15.487 26.81 26.81 0 0 0 9.89 12.027 26.883 26.883 0 0 0 33.897-3.332 26.797 26.797 0 0 0 5.82-8.695A26.759 26.759 0 0 0 55.897 29z"/>
    <path stroke="#fff" stroke-width=".912" d="M17.728 33.13l.179-.357-.335-.22c-2.76-1.806-4.5-4.57-4.5-7.652 0-5.336 5.232-9.797 11.87-9.797 5.582 0 10.185 3.17 11.49 7.357a13.8 13.8 0 0 0-1.226-.058c-6.96 0-12.767 4.723-12.767 10.694 0 .471.04.933.113 1.385a14.602 14.602 0 0 1-2.275-.626l-.165-.058-.161.069-3.299 1.41 1.076-2.147zm1.119-12.327a1.988 1.988 0 1 0 3.977 0 1.988 1.988 0 0 0-3.977 0zm8.212 0a1.988 1.988 0 1 0 3.977 0 1.988 1.988 0 0 0-3.977 0z"/>
    <path stroke="#fff" stroke-width=".912" d="M38.062 40.565l-.132-.056-.14.03c-.84.183-1.694.308-2.584.308-5.52 0-9.816-3.558-9.816-7.748s4.296-7.747 9.816-7.747c5.52 0 9.817 3.558 9.817 7.747 0 2.428-1.453 4.607-3.756 6.048l-.346.216.183.365 1.364 2.722-4.406-1.885zm-7.924-9.515c0 1.097.892 1.986 1.989 1.986a1.988 1.988 0 0 0 1.988-1.986 1.988 1.988 0 0 0-1.988-1.985 1.988 1.988 0 0 0-1.989 1.985zm6.16 0a1.988 1.988 0 1 0 3.977 0 1.988 1.988 0 0 0-1.99-1.985 1.988 1.988 0 0 0-1.988 1.985z"/>
</svg>
