<?xml version="1.0" encoding="UTF-8"?>
<svg width="583px" height="468px" viewBox="0 0 583 468" version="1.1" xmlns="http://www.w3.org/2000/svg" xmlns:xlink="http://www.w3.org/1999/xlink">
    <!-- Generator: Sketch 49.3 (51167) - http://www.bohemiancoding.com/sketch -->
    <title>Constellation</title>
    <desc>Created with Sketch.</desc>
    <defs></defs>
    <g id="Templates" stroke="none" stroke-width="1" fill="none" fill-rule="evenodd">
        <g id="CINDEX-DT" transform="translate(-169.000000, -178.000000)">
            <g id="Deco" transform="translate(133.000000, 179.000000)">
                <g id="Constellation" transform="translate(36.000000, 0.000000)">
                    <polygon id="Fill-1" fill="#FFFFFF" points="71 40.9996 72.545 44.2916 76 44.8196 73.5 47.3816 74.09 50.9996 71 49.2916 67.91 50.9996 68.5 47.3816 66 44.8196 69.455 44.2916"></polygon>
                    <polygon id="Fill-2" fill="#FFFFFF" points="98 257 100.472369 262.266708 106 263.111508 101.999508 267.211446 102.943754 273 98 270.266708 93.0562462 273 94.0004923 267.211446 90 263.111508 95.5276308 262.266708"></polygon>
                    <polygon id="Fill-3" fill="#FFFFFF" points="576.4554 315.291 573.0004 315.819 575.4994 318.382 574.9104 322 577.9994 320.291 581.0904 322 580.5004 318.382 583.0004 315.819 579.5454 315.291 577.9994 312"></polygon>
                    <polygon id="Fill-4" fill="#FFFFFF" points="436.5 238.9996 438.509 243.2786 443 243.9656 439.75 247.2966 440.517 251.9996 436.5 249.7786 432.483 251.9996 433.25 247.2966 430 243.9656 434.491 243.2786"></polygon>
                    <polygon id="Fill-5" fill="#FFFFFF" points="359 309.225995 354.167978 309.800288 352.036536 314 349.842314 309.703707 345 308.915482 348.475557 305.686771 347.614129 301 351.957289 303.300288 356.266485 301.191085 355.475042 305.841508"></polygon>
                    <polygon id="Fill-6" fill="#FFFFFF" points="143 87.9996 144.236 90.6326 147 91.0556 145 93.1056 145.472 95.9996 143 94.6326 140.528 95.9996 141 93.1056 139 91.0556 141.764 90.6326"></polygon>
                    <g id="Group-41">
                        <path d="M251,299 C251,302.314 248.314,305 245,305 C241.686,305 239,302.314 239,299 C239,295.686 241.686,293 245,293 C248.314,293 251,295.686 251,299" id="Fill-7" fill="#FFFFFF"></path>
                        <path d="M227,26 C227,28.209 225.209,30 223,30 C220.791,30 219,28.209 219,26 C219,23.791 220.791,22 223,22 C225.209,22 227,23.791 227,26 Z" id="Stroke-9" stroke="#FFFFFF"></path>
                        <path d="M120,387 C120,389.209 118.209,391 116,391 C113.791,391 112,389.209 112,387 C112,384.791 113.791,383 116,383 C118.209,383 120,384.791 120,387 Z" id="Stroke-11" stroke="#FFFFFF"></path>
                        <path d="M524,3 C524,4.657 522.657,6 521,6 C519.343,6 518,4.657 518,3 C518,1.343 519.343,0 521,0 C522.657,0 524,1.343 524,3 Z" id="Stroke-13" stroke="#FFFFFF"></path>
                        <path d="M285,114 C285,116.209 283.209,118 281,118 C278.791,118 277,116.209 277,114 C277,111.791 278.791,110 281,110 C283.209,110 285,111.791 285,114" id="Fill-15" fill="#FFFFFF"></path>
                        <path d="M6,322 C6,323.657 4.657,325 3,325 C1.343,325 0,323.657 0,322 C0,320.343 1.343,319 3,319 C4.657,319 6,320.343 6,322" id="Fill-17" fill="#FFFFFF"></path>
                        <path d="M320,140 C320,141.657 318.657,143 317,143 C315.343,143 314,141.657 314,140 C314,138.343 315.343,137 317,137 C318.657,137 320,138.343 320,140" id="Fill-19" fill="#FFFFFF"></path>
                        <path d="M24,110 C24,112.209 22.209,114 20,114 C17.791,114 16,112.209 16,110 C16,107.791 17.791,106 20,106 C22.209,106 24,107.791 24,110" id="Fill-21" fill="#FFFFFF"></path>
                        <path d="M556.051608,465.845305 C554.479786,465.321442 553.630882,463.622888 554.154823,462.051301 C554.677763,460.479714 556.376571,459.630937 557.948392,460.1548 C559.520214,460.678662 560.369118,462.377216 559.845177,463.947803 C559.322237,465.51939 557.623429,466.369167 556.051608,465.845305 Z" id="Stroke-35" stroke="#FFFFFF"></path>
                    </g>
                </g>
            </g>
        </g>
    </g>
</svg>