<?xml version="1.0" encoding="UTF-8"?>
<svg width="206px" height="234px" viewBox="0 0 206 234" version="1.1" xmlns="http://www.w3.org/2000/svg" xmlns:xlink="http://www.w3.org/1999/xlink">
    <!-- Generator: Sketch 49.3 (51167) - http://www.bohemiancoding.com/sketch -->
    <title>Combined Shape</title>
    <desc>Created with Sketch.</desc>
    <defs>
        <radialGradient cx="50%" cy="36.5411932%" fx="50%" fy="36.5411932%" r="233.42971%" gradientTransform="translate(0.500000,0.365412),scale(1.000000,0.871560),rotate(45.179468),translate(-0.500000,-0.365412)" id="radialGradient-1">
            <stop stop-color="#4FFFD8" offset="0%"></stop>
            <stop stop-color="#0087C1" offset="100%"></stop>
        </radialGradient>
        <path d="M126.054157,197.721707 C126.316313,197.721707 126.56417,197.621532 126.750062,197.445033 L172.508207,153.949978 C172.84186,153.635142 173.351873,153.58267 173.742724,153.821182 L189.529284,163.585864 C190.082195,163.929322 190.163225,164.69256 189.691344,165.136193 L136.182913,216.001269 C134.829235,217.284464 133.060873,218 131.221014,218 L72.7935826,218 C70.9823227,218 69.2330269,217.303545 67.8793484,216.044201 L2.42613499,154.913567 C0.881797589,153.472954 0,151.421751 0,149.265602 L0,68.9776805 C0,66.8310722 0.877031115,64.7846389 2.41660204,63.3440263 L67.8793484,1.96533917 C69.2282604,0.701225383 70.9823227,0 72.8031155,0 L131.216248,0 C133.056106,0 134.829235,0.720306346 136.182913,2.01304158 L189.562649,52.9449015 C190.029764,53.3933042 189.948734,54.1517724 189.400589,54.4952298 L173.623562,64.2551422 C173.227945,64.4984245 172.722698,64.4459519 172.389045,64.1263457 L126.730996,20.5597374 C126.545104,20.3784683 126.292481,20.2782932 126.030325,20.2782932 L77.9175415,20.2782932 C77.660152,20.2782932 77.4122953,20.3784683 77.2264029,20.5549672 L19.8857272,74.3108096 C19.6855354,74.496849 19.5759065,74.7592123 19.5759065,75.0263457 L19.5759065,143.202626 C19.5759065,143.47453 19.6903018,143.732123 19.8857272,143.918162 L77.2025705,197.449803 C77.3932294,197.626302 77.6363196,197.721707 77.8937092,197.721707 L126.054157,197.721707 Z M123.096083,27.091151 C124.935942,27.091151 126.713837,27.8114573 128.067515,29.1041926 L167.414754,66.6459869 C167.881868,67.0943895 167.800838,67.8528578 167.247927,68.1963151 L151.447068,77.9705383 C151.056217,78.2138206 150.546204,78.1613479 150.212551,77.846512 L98.5296793,28.7941269 C97.8766725,28.1739956 98.3199545,27.091151 99.2255844,27.091151 L123.096083,27.091151 Z M113.521192,163.763794 C115.380116,165.547864 117.158011,167.25084 118.816744,168.844101 C119.207594,169.216179 119.827236,169.216179 120.218087,168.844101 L150.3279,140.227427 C150.661553,139.907821 151.166799,139.860118 151.562416,140.09863 L167.348976,149.863313 C167.901887,150.20677 167.982917,150.970009 167.511036,151.413641 L128.063702,188.907733 C126.710024,190.200468 124.941662,190.906464 123.101803,190.906464 L113.235203,190.906464 C112.977814,190.906464 112.725191,190.806289 112.539298,190.62979 L110.303822,188.502263 L91.7241085,170.628171 L51.3806772,131.812722 L51.428342,131.669615 C50.8229998,130.806201 50.4845802,129.756748 50.4845802,128.669133 L50.4845802,89.4625252 C50.4845802,88.0219125 51.0708565,86.6528534 52.1004147,85.6892648 L82.7917373,56.4906214 C83.1825881,56.1233129 83.8022296,56.1233129 84.1930805,56.4906214 L97.1197565,68.75014 C97.5296732,69.1365295 97.5344397,69.780512 97.1245229,70.1716718 L70.3607745,95.9118906 C70.1653491,96.09793 70.0557202,96.355523 70.0557202,96.6226565 L70.0557202,121.480381 C70.0557202,121.752284 70.1701156,122.014648 70.3703075,122.200687 L73.063365,124.709834 C83.6258701,134.93723 100.551617,151.308696 113.521192,163.763794 Z M120.23334,161.494114 C119.842489,161.866193 119.227614,161.866193 118.836763,161.494114 L105.952985,149.253676 C105.543068,148.867287 105.543068,148.223304 105.948219,147.832144 L128.136153,126.504398 C128.469806,126.184792 128.979818,126.127549 129.375436,126.375602 L145.133397,136.121204 C145.681541,136.464661 145.762571,137.223129 145.295457,137.671532 L120.23334,161.494114 Z M89.6816747,27.904 L110.125079,47.3713523 L144.963234,80.5388359 C145.430348,80.9824683 145.349318,81.7457068 144.796407,82.0891641 L129.453129,91.5771729 C129.062278,91.8204551 128.552266,91.7679825 128.218613,91.4531466 L84.3098591,49.6467571 C83.9190082,49.2746783 83.3041332,49.2746783 82.9132823,49.6419869 L45.6871247,84.5410678 C45.1056149,85.0848753 44.7814947,85.8385733 44.7814947,86.625663 L44.7814947,132.768201 L44.6861653,132.877917 L103.847634,189.204919 C104.495874,189.82505 104.052592,190.907895 103.146962,190.907895 L80.6063092,190.907895 C78.7950493,190.907895 77.0409871,190.21144 75.6968415,188.956867 L27.6317232,144.068902 C26.0873859,142.623519 25.2055883,140.572315 25.2055883,138.416166 L25.2055883,79.7612867 C25.2055883,77.6194486 26.0826194,75.5682451 27.6174238,74.1276324 L75.6873086,29.053628 C76.8360287,27.9850941 78.2659707,27.3220306 79.7912422,27.1455317 C80.0629312,27.1073698 80.3393867,27.0930591 80.6206086,27.0930591 L87.6463905,27.0930591 C88.4042598,27.0930591 89.1335302,27.3840438 89.6816747,27.904 Z" id="path-2"></path>
        <filter x="-6.3%" y="-5.5%" width="112.6%" height="111.0%" filterUnits="objectBoundingBox" id="filter-3">
            <feOffset dx="0" dy="0" in="SourceAlpha" result="shadowOffsetOuter1"></feOffset>
            <feGaussianBlur stdDeviation="4" in="shadowOffsetOuter1" result="shadowBlurOuter1"></feGaussianBlur>
            <feColorMatrix values="0 0 0 0 0.308080808   0 0 0 0 1   0 0 0 0 0.845132257  0 0 0 0.75707654 0" type="matrix" in="shadowBlurOuter1"></feColorMatrix>
        </filter>
    </defs>
    <g id="Symbols" stroke="none" stroke-width="1" fill="none" fill-rule="evenodd">
        <g id="Logo-Sign" transform="translate(8.000000, 8.000000)">
            <g id="Page-1">
                <g id="Combined-Shape">
                    <use fill="black" fill-opacity="1" filter="url(#filter-3)" xlink:href="#path-2"></use>
                    <use fill="url(#radialGradient-1)" fill-rule="evenodd" xlink:href="#path-2"></use>
                </g>
            </g>
        </g>
    </g>
</svg>