<?xml version="1.0" encoding="UTF-8"?>
<svg width="20px" height="20px" viewBox="0 0 20 20" version="1.1" xmlns="http://www.w3.org/2000/svg" xmlns:xlink="http://www.w3.org/1999/xlink">
    <!-- Generator: Sketch 49.3 (51167) - http://www.bohemiancoding.com/sketch -->
    <title>icons / linkedin</title>
    <desc>Created with Sketch.</desc>
    <defs></defs>
    <g id="Symbols" stroke="none" stroke-width="1" fill="none" fill-rule="evenodd">
        <g id="navig-/-Social-Block" transform="translate(-18.000000, -288.000000)" fill="#FF4B81">
            <g id="icons-/-linkedin" transform="translate(13.000000, 283.000000)">
                <g id="Group" transform="translate(5.000000, 5.000000)">
                    <path d="M1,6 L5,6 L5,20 L1,20 L1,6 Z M2,5 L2,5 C0.966699801,5 -3.55271368e-15,3.89839717 -3.55271368e-15,3 C-3.55271368e-15,1.0798696 0.99527833,0 3,0 C4.03578529,0 4.97017893,1.07715295 5,2 C5,3.8943222 4.03578529,5 2,5 L2,5 Z M20,20 L16,20 L16,13 C15.6524021,10.9454817 14.972331,9.66467513 13,10 C12.3330071,9.66467513 11.6968861,10.5285661 11,11 C11.2897687,11.6616878 11.3071174,12.0786034 11,12 L11,20 L7,20 C7,20 7.05551601,7.28864824 7,6 L11,6 L11,8 C11.5615658,7.35791636 12.9379004,6 15,6 C17.8591637,6 20,7.99570575 20,12 L20,20 L20,20 Z" id="Shape"></path>
                </g>
            </g>
        </g>
    </g>
</svg>