<svg xmlns="http://www.w3.org/2000/svg" width="55" height="55" fill="none" viewBox="0 0 55 55">
    <path fill="#fff" d="M38.077 23.27c0 8.163-6.644 14.807-14.808 14.807S8.462 31.433 8.462 23.269 15.105 8.462 23.269 8.462c8.164 0 14.808 6.643 14.808 14.807zM55 50.77a4.256 4.256 0 0 0-1.223-2.976L42.44 36.457c2.677-3.867 4.099-8.494 4.099-13.188C46.538 10.412 36.127 0 23.268 0 10.412 0 0 10.412 0 23.27c0 12.857 10.412 23.268 23.27 23.268 4.693 0 9.32-1.42 13.187-4.098l11.337 11.304A4.148 4.148 0 0 0 50.77 55C53.083 55 55 53.083 55 50.77z"/>
</svg>
