<svg xmlns="http://www.w3.org/2000/svg" viewBox="0 0 1921.13 451.47"><defs><style>.cls-1{isolation:isolate;}.cls-2,.cls-6{opacity:0.4;}.cls-3,.cls-4,.cls-5,.cls-6,.cls-7{fill:#fff;mix-blend-mode:screen;}.cls-4{opacity:0.5;}.cls-5{opacity:0.6;}.cls-7{opacity:0.7;}</style></defs><title>stars_mount</title><g class="cls-1"><g id="Слой_2" data-name="Слой 2"><g id="Layer_2" data-name="Layer 2"><g class="cls-2"><path class="cls-3" d="M430.84,133.94a5.6,5.6,0,1,1-5.59-5.59A5.6,5.6,0,0,1,430.84,133.94Z"/><path class="cls-3" d="M395.52,29.57a3.5,3.5,0,1,1-3.49-3.5A3.5,3.5,0,0,1,395.52,29.57Z"/><path class="cls-3" d="M369.08,71.53a1.94,1.94,0,1,1-1.93-1.94A1.93,1.93,0,0,1,369.08,71.53Z"/><path class="cls-3" d="M467.27,170.16a1.94,1.94,0,1,1-1.93-1.93A1.93,1.93,0,0,1,467.27,170.16Z"/><path class="cls-3" d="M295,354.25a1.94,1.94,0,1,1-1.94-1.94A1.94,1.94,0,0,1,295,354.25Z"/><path class="cls-3" d="M141.32,287.81a1.94,1.94,0,1,1-1.94-1.94A1.93,1.93,0,0,1,141.32,287.81Z"/><path class="cls-3" d="M218.3,69.64a1.94,1.94,0,1,1-1.89-2A1.94,1.94,0,0,1,218.3,69.64Z"/><path class="cls-3" d="M316.16,9.86a1.94,1.94,0,1,1-1.89-2A1.94,1.94,0,0,1,316.16,9.86Z"/><path class="cls-3" d="M22.61,2a1.94,1.94,0,1,1-1.88-2A1.93,1.93,0,0,1,22.61,2Z"/><path class="cls-3" d="M89.36,11.79a1.94,1.94,0,1,1-1.89-2A1.94,1.94,0,0,1,89.36,11.79Z"/><path class="cls-4" d="M34.16,55.26a1.94,1.94,0,1,1-1.88-2A1.93,1.93,0,0,1,34.16,55.26Z"/><path class="cls-3" d="M69.53,46.24a1.94,1.94,0,1,1-1.89-2A1.95,1.95,0,0,1,69.53,46.24Z"/><path class="cls-4" d="M54.85,73.52a1.94,1.94,0,0,1-3.87-.1,1.94,1.94,0,1,1,3.87.1Z"/><path class="cls-4" d="M32.23,84.54a1.94,1.94,0,1,1-1.89-2A1.94,1.94,0,0,1,32.23,84.54Z"/><path class="cls-3" d="M182.61,168.28a1.94,1.94,0,1,1-1.89-2A1.93,1.93,0,0,1,182.61,168.28Z"/><path class="cls-3" d="M193.52,178.19a1.94,1.94,0,1,1-3.87-.1,1.94,1.94,0,0,1,3.87.1Z"/><path class="cls-3" d="M209,164.78a1.94,1.94,0,1,1-1.89-2A1.95,1.95,0,0,1,209,164.78Z"/><path class="cls-3" d="M401.75,48.18a1.94,1.94,0,1,1-1.89-2A1.93,1.93,0,0,1,401.75,48.18Z"/><path class="cls-5" d="M412.66,58.09a1.94,1.94,0,1,1-1.89-2A1.94,1.94,0,0,1,412.66,58.09Z"/><path class="cls-3" d="M428.14,44.68a1.94,1.94,0,1,1-1.88-2A1.94,1.94,0,0,1,428.14,44.68Z"/><path class="cls-3" d="M167.73,188.2a1.94,1.94,0,1,1-1.89-2A1.94,1.94,0,0,1,167.73,188.2Z"/><path class="cls-3" d="M471.58,24.14a1.94,1.94,0,1,1-1.94-1.94A1.93,1.93,0,0,1,471.58,24.14Z"/><path class="cls-3" d="M298.86,80.62a1.94,1.94,0,1,1-1.93-1.94A1.92,1.92,0,0,1,298.86,80.62Z"/><path class="cls-3" d="M153.42,33.07a1.94,1.94,0,1,1-1.94-1.94A1.93,1.93,0,0,1,153.42,33.07Z"/><path class="cls-3" d="M117.81,99.66a1.94,1.94,0,1,1-1.93-1.94A1.93,1.93,0,0,1,117.81,99.66Z"/><path class="cls-6" d="M170.45,53.27a1.94,1.94,0,1,1-1.94-1.93A1.94,1.94,0,0,1,170.45,53.27Z"/><path class="cls-3" d="M277.69,152.94a1.94,1.94,0,1,1-1.93-1.93A1.93,1.93,0,0,1,277.69,152.94Z"/><path class="cls-3" d="M291.11,244.1a1.94,1.94,0,1,1-1.93-1.94A1.93,1.93,0,0,1,291.11,244.1Z"/><path class="cls-3" d="M469.64,242.16a1.94,1.94,0,1,1-1.93-1.94A1.93,1.93,0,0,1,469.64,242.16Z"/><path class="cls-3" d="M412.66,230.78a1.94,1.94,0,1,1-1.94-1.93A1.94,1.94,0,0,1,412.66,230.78Z"/><path class="cls-3" d="M449.15,338.51a1.94,1.94,0,1,1-1.94-1.94A1.94,1.94,0,0,1,449.15,338.51Z"/><path class="cls-3" d="M328.21,449.54a1.94,1.94,0,1,1-1.94-1.94A1.93,1.93,0,0,1,328.21,449.54Z"/><path class="cls-3" d="M168.51,415.44a1.94,1.94,0,1,1-1.94-1.94A1.94,1.94,0,0,1,168.51,415.44Z"/><path class="cls-3" d="M28.35,336.57a1.94,1.94,0,1,1-1.93-1.93A1.93,1.93,0,0,1,28.35,336.57Z"/><path class="cls-3" d="M20.67,240.22a1.94,1.94,0,1,1-1.93-1.94A1.93,1.93,0,0,1,20.67,240.22Z"/><path class="cls-3" d="M91.3,238.28a1.94,1.94,0,1,1-1.94-1.93A1.94,1.94,0,0,1,91.3,238.28Z"/><path class="cls-3" d="M3.87,78.68a1.94,1.94,0,1,1-1.93-1.94A1.93,1.93,0,0,1,3.87,78.68Z"/><path class="cls-5" d="M371,117.86a1.94,1.94,0,1,1-1.94-1.94A1.94,1.94,0,0,1,371,117.86Z"/><path class="cls-7" d="M30.29,162.79a1.94,1.94,0,1,1-1.94-1.93A1.94,1.94,0,0,1,30.29,162.79Z"/><path class="cls-4" d="M184.17,105.09a3.5,3.5,0,1,1-3.5-3.49A3.5,3.5,0,0,1,184.17,105.09Z"/><path class="cls-3" d="M245.72,29.57a3.5,3.5,0,1,1-3.5-3.5A3.5,3.5,0,0,1,245.72,29.57Z"/><path class="cls-3" d="M122.87,162.79a3.5,3.5,0,1,1-3.5-3.49A3.5,3.5,0,0,1,122.87,162.79Z"/><path class="cls-3" d="M59.91,121.36a3.5,3.5,0,1,1-3.49-3.5A3.5,3.5,0,0,1,59.91,121.36Z"/><path class="cls-3" d="M867.1,29.57a3.5,3.5,0,1,1-3.49-3.5A3.5,3.5,0,0,1,867.1,29.57Z"/><path class="cls-3" d="M840.66,71.53a1.94,1.94,0,1,1-1.93-1.94A1.93,1.93,0,0,1,840.66,71.53Z"/><path class="cls-3" d="M938.85,170.16a1.94,1.94,0,1,1-1.93-1.93A1.93,1.93,0,0,1,938.85,170.16Z"/><path class="cls-3" d="M766.57,354.25a1.94,1.94,0,1,1-1.94-1.94A1.94,1.94,0,0,1,766.57,354.25Z"/><path class="cls-3" d="M612.9,287.81a1.94,1.94,0,1,1-1.94-1.94A1.93,1.93,0,0,1,612.9,287.81Z"/><path class="cls-3" d="M689.88,69.64a1.94,1.94,0,1,1-1.89-2A1.94,1.94,0,0,1,689.88,69.64Z"/><path class="cls-3" d="M787.74,9.86a1.94,1.94,0,1,1-1.89-2A1.94,1.94,0,0,1,787.74,9.86Z"/><path class="cls-3" d="M494.19,2a1.94,1.94,0,1,1-1.88-2A1.93,1.93,0,0,1,494.19,2Z"/><path class="cls-3" d="M560.94,11.79a1.94,1.94,0,1,1-1.89-2A1.94,1.94,0,0,1,560.94,11.79Z"/><path class="cls-4" d="M505.74,55.26a1.94,1.94,0,1,1-1.88-2A1.93,1.93,0,0,1,505.74,55.26Z"/><path class="cls-3" d="M541.11,46.24a1.94,1.94,0,1,1-1.89-2A1.95,1.95,0,0,1,541.11,46.24Z"/><path class="cls-4" d="M526.43,73.52a1.94,1.94,0,0,1-3.87-.1,1.94,1.94,0,1,1,3.87.1Z"/><path class="cls-4" d="M503.81,84.54a1.94,1.94,0,1,1-1.89-2A1.94,1.94,0,0,1,503.81,84.54Z"/><path class="cls-3" d="M654.19,168.28a1.94,1.94,0,1,1-1.89-2A1.93,1.93,0,0,1,654.19,168.28Z"/><path class="cls-3" d="M665.1,178.19a1.94,1.94,0,1,1-3.87-.1,1.94,1.94,0,0,1,3.87.1Z"/><path class="cls-3" d="M680.59,164.78a1.94,1.94,0,1,1-1.89-2A1.95,1.95,0,0,1,680.59,164.78Z"/><path class="cls-3" d="M873.33,48.18a1.94,1.94,0,1,1-1.89-2A1.93,1.93,0,0,1,873.33,48.18Z"/><path class="cls-5" d="M884.24,58.09a1.94,1.94,0,1,1-1.89-2A1.94,1.94,0,0,1,884.24,58.09Z"/><path class="cls-3" d="M899.72,44.68a1.94,1.94,0,1,1-1.88-2A1.93,1.93,0,0,1,899.72,44.68Z"/><path class="cls-3" d="M639.31,188.2a1.94,1.94,0,1,1-1.89-2A1.94,1.94,0,0,1,639.31,188.2Z"/><path class="cls-3" d="M943.16,24.14a1.94,1.94,0,1,1-1.94-1.94A1.93,1.93,0,0,1,943.16,24.14Z"/><path class="cls-3" d="M770.44,80.62a1.94,1.94,0,1,1-1.93-1.94A1.92,1.92,0,0,1,770.44,80.62Z"/><path class="cls-3" d="M625,33.07a1.94,1.94,0,1,1-1.94-1.94A1.93,1.93,0,0,1,625,33.07Z"/><path class="cls-3" d="M589.39,99.66a1.94,1.94,0,1,1-1.93-1.94A1.93,1.93,0,0,1,589.39,99.66Z"/><path class="cls-6" d="M642,53.27a1.94,1.94,0,1,1-1.94-1.93A1.94,1.94,0,0,1,642,53.27Z"/><path class="cls-3" d="M749.27,152.94a1.94,1.94,0,1,1-1.93-1.93A1.93,1.93,0,0,1,749.27,152.94Z"/><path class="cls-3" d="M762.69,244.1a1.94,1.94,0,1,1-1.93-1.94A1.93,1.93,0,0,1,762.69,244.1Z"/><path class="cls-3" d="M941.22,242.16a1.94,1.94,0,1,1-1.93-1.94A1.93,1.93,0,0,1,941.22,242.16Z"/><path class="cls-3" d="M884.24,230.78a1.94,1.94,0,1,1-1.94-1.93A1.94,1.94,0,0,1,884.24,230.78Z"/><path class="cls-3" d="M920.73,338.51a1.94,1.94,0,1,1-1.94-1.94A1.94,1.94,0,0,1,920.73,338.51Z"/><path class="cls-3" d="M799.79,449.54a1.94,1.94,0,1,1-1.94-1.94A1.93,1.93,0,0,1,799.79,449.54Z"/><path class="cls-3" d="M640.09,415.44a1.94,1.94,0,1,1-1.94-1.94A1.94,1.94,0,0,1,640.09,415.44Z"/><path class="cls-3" d="M499.93,336.57a1.94,1.94,0,1,1-1.93-1.93A1.93,1.93,0,0,1,499.93,336.57Z"/><path class="cls-3" d="M492.25,240.22a1.94,1.94,0,1,1-1.93-1.94A1.93,1.93,0,0,1,492.25,240.22Z"/><path class="cls-3" d="M562.88,238.28a1.94,1.94,0,1,1-1.94-1.93A1.94,1.94,0,0,1,562.88,238.28Z"/><path class="cls-3" d="M475.45,78.68a1.94,1.94,0,1,1-1.93-1.94A1.93,1.93,0,0,1,475.45,78.68Z"/><path class="cls-5" d="M842.6,117.86a1.94,1.94,0,1,1-1.94-1.94A1.94,1.94,0,0,1,842.6,117.86Z"/><path class="cls-7" d="M501.87,162.79a1.94,1.94,0,1,1-1.94-1.93A1.94,1.94,0,0,1,501.87,162.79Z"/><path class="cls-4" d="M655.75,105.09a3.5,3.5,0,1,1-3.5-3.49A3.5,3.5,0,0,1,655.75,105.09Z"/><path class="cls-3" d="M717.3,29.57a3.5,3.5,0,1,1-3.5-3.5A3.5,3.5,0,0,1,717.3,29.57Z"/><path class="cls-3" d="M594.45,162.79a3.5,3.5,0,1,1-3.5-3.49A3.5,3.5,0,0,1,594.45,162.79Z"/><path class="cls-3" d="M531.49,121.36a3.5,3.5,0,1,1-3.49-3.5A3.5,3.5,0,0,1,531.49,121.36Z"/><path class="cls-3" d="M1408.81,133.94a5.6,5.6,0,1,1-5.6-5.59A5.6,5.6,0,0,1,1408.81,133.94Z"/><path class="cls-3" d="M1373.49,29.57a3.5,3.5,0,1,1-3.5-3.5A3.5,3.5,0,0,1,1373.49,29.57Z"/><path class="cls-3" d="M1347.05,71.53a1.94,1.94,0,1,1-1.94-1.94A1.94,1.94,0,0,1,1347.05,71.53Z"/><path class="cls-3" d="M1445.24,170.16a1.94,1.94,0,1,1-1.94-1.93A1.94,1.94,0,0,1,1445.24,170.16Z"/><path class="cls-3" d="M1273,354.25a1.94,1.94,0,1,1-1.94-1.94A1.94,1.94,0,0,1,1273,354.25Z"/><path class="cls-3" d="M1119.28,287.81a1.94,1.94,0,1,1-1.93-1.94A1.92,1.92,0,0,1,1119.28,287.81Z"/><path class="cls-3" d="M1196.26,69.64a1.94,1.94,0,1,1-1.88-2A1.93,1.93,0,0,1,1196.26,69.64Z"/><path class="cls-3" d="M1294.13,9.86a1.94,1.94,0,1,1-1.89-2A1.94,1.94,0,0,1,1294.13,9.86Z"/><path class="cls-3" d="M1000.58,2a1.94,1.94,0,1,1-1.89-2A1.93,1.93,0,0,1,1000.58,2Z"/><path class="cls-3" d="M1067.33,11.79a1.94,1.94,0,1,1-1.89-2A1.94,1.94,0,0,1,1067.33,11.79Z"/><path class="cls-4" d="M1012.13,55.26a1.94,1.94,0,1,1-1.89-2A1.95,1.95,0,0,1,1012.13,55.26Z"/><path class="cls-3" d="M1047.5,46.24a1.94,1.94,0,1,1-1.89-2A1.95,1.95,0,0,1,1047.5,46.24Z"/><path class="cls-4" d="M1032.82,73.52a1.94,1.94,0,0,1-3.87-.1,1.94,1.94,0,1,1,3.87.1Z"/><path class="cls-4" d="M1010.19,84.54a1.94,1.94,0,1,1-3.87-.1,1.94,1.94,0,1,1,3.87.1Z"/><path class="cls-3" d="M1160.58,168.28a1.94,1.94,0,1,1-1.89-2A1.93,1.93,0,0,1,1160.58,168.28Z"/><path class="cls-3" d="M1171.49,178.19a1.94,1.94,0,1,1-1.89-2A1.94,1.94,0,0,1,1171.49,178.19Z"/><path class="cls-3" d="M1187,164.78a1.94,1.94,0,1,1-1.88-2A1.93,1.93,0,0,1,1187,164.78Z"/><path class="cls-3" d="M1379.71,48.18a1.94,1.94,0,1,1-1.88-2A1.93,1.93,0,0,1,1379.71,48.18Z"/><path class="cls-5" d="M1390.62,58.09a1.94,1.94,0,1,1-1.88-2A1.94,1.94,0,0,1,1390.62,58.09Z"/><path class="cls-3" d="M1406.11,44.68a1.94,1.94,0,1,1-1.89-2A1.95,1.95,0,0,1,1406.11,44.68Z"/><path class="cls-3" d="M1145.7,188.2a1.94,1.94,0,1,1-1.89-2A1.94,1.94,0,0,1,1145.7,188.2Z"/><path class="cls-3" d="M1449.55,24.14a1.94,1.94,0,1,1-1.94-1.94A1.93,1.93,0,0,1,1449.55,24.14Z"/><path class="cls-3" d="M1276.83,80.62a1.94,1.94,0,1,1-1.94-1.94A1.93,1.93,0,0,1,1276.83,80.62Z"/><path class="cls-3" d="M1131.38,33.07a1.94,1.94,0,1,1-1.93-1.94A1.92,1.92,0,0,1,1131.38,33.07Z"/><path class="cls-3" d="M1095.78,99.66a1.94,1.94,0,1,1-1.94-1.94A1.94,1.94,0,0,1,1095.78,99.66Z"/><path class="cls-6" d="M1148.41,53.27a1.94,1.94,0,1,1-1.93-1.93A1.93,1.93,0,0,1,1148.41,53.27Z"/><path class="cls-3" d="M1255.66,152.94a1.94,1.94,0,1,1-1.94-1.93A1.94,1.94,0,0,1,1255.66,152.94Z"/><path class="cls-3" d="M1269.08,244.1a1.94,1.94,0,1,1-1.94-1.94A1.94,1.94,0,0,1,1269.08,244.1Z"/><path class="cls-3" d="M1447.61,242.16a1.94,1.94,0,1,1-1.94-1.94A1.94,1.94,0,0,1,1447.61,242.16Z"/><path class="cls-3" d="M1390.62,230.78a1.94,1.94,0,1,1-1.93-1.93A1.93,1.93,0,0,1,1390.62,230.78Z"/><path class="cls-3" d="M1427.12,338.51a1.94,1.94,0,1,1-1.94-1.94A1.94,1.94,0,0,1,1427.12,338.51Z"/><path class="cls-3" d="M1306.18,449.54a1.94,1.94,0,1,1-1.94-1.94A1.93,1.93,0,0,1,1306.18,449.54Z"/><path class="cls-3" d="M1146.48,415.44a1.94,1.94,0,1,1-1.94-1.94A1.94,1.94,0,0,1,1146.48,415.44Z"/><path class="cls-3" d="M1006.32,336.57a1.94,1.94,0,1,1-1.94-1.93A1.94,1.94,0,0,1,1006.32,336.57Z"/><path class="cls-3" d="M998.64,240.22a1.94,1.94,0,1,1-1.94-1.94A1.94,1.94,0,0,1,998.64,240.22Z"/><path class="cls-3" d="M1069.26,238.28a1.94,1.94,0,1,1-1.93-1.93A1.93,1.93,0,0,1,1069.26,238.28Z"/><path class="cls-3" d="M981.84,78.68a1.94,1.94,0,1,1-1.93-1.94A1.94,1.94,0,0,1,981.84,78.68Z"/><path class="cls-5" d="M1349,117.86a1.94,1.94,0,1,1-1.94-1.94A1.94,1.94,0,0,1,1349,117.86Z"/><path class="cls-7" d="M1008.26,162.79a1.94,1.94,0,1,1-1.94-1.93A1.94,1.94,0,0,1,1008.26,162.79Z"/><path class="cls-4" d="M1162.14,105.09a3.5,3.5,0,1,1-3.5-3.49A3.5,3.5,0,0,1,1162.14,105.09Z"/><path class="cls-3" d="M1223.69,29.57a3.5,3.5,0,1,1-3.5-3.5A3.5,3.5,0,0,1,1223.69,29.57Z"/><path class="cls-3" d="M1100.84,162.79a3.5,3.5,0,1,1-3.5-3.49A3.5,3.5,0,0,1,1100.84,162.79Z"/><path class="cls-3" d="M1037.88,121.36a3.5,3.5,0,1,1-3.5-3.5A3.5,3.5,0,0,1,1037.88,121.36Z"/><path class="cls-3" d="M1845.07,29.57a3.5,3.5,0,1,1-3.5-3.5A3.5,3.5,0,0,1,1845.07,29.57Z"/><path class="cls-3" d="M1818.63,71.53a1.94,1.94,0,1,1-1.94-1.94A1.94,1.94,0,0,1,1818.63,71.53Z"/><path class="cls-3" d="M1916.82,170.16a1.94,1.94,0,1,1-1.94-1.93A1.94,1.94,0,0,1,1916.82,170.16Z"/><path class="cls-3" d="M1744.54,354.25a1.94,1.94,0,1,1-1.94-1.94A1.94,1.94,0,0,1,1744.54,354.25Z"/><path class="cls-3" d="M1590.86,287.81a1.94,1.94,0,1,1-1.93-1.94A1.92,1.92,0,0,1,1590.86,287.81Z"/><path class="cls-3" d="M1667.84,69.64a1.94,1.94,0,1,1-1.88-2A1.93,1.93,0,0,1,1667.84,69.64Z"/><path class="cls-3" d="M1765.71,9.86a1.94,1.94,0,1,1-1.89-2A1.94,1.94,0,0,1,1765.71,9.86Z"/><path class="cls-3" d="M1472.16,2a1.94,1.94,0,1,1-1.89-2A1.93,1.93,0,0,1,1472.16,2Z"/><path class="cls-3" d="M1538.91,11.79a1.94,1.94,0,1,1-1.89-2A1.94,1.94,0,0,1,1538.91,11.79Z"/><path class="cls-4" d="M1483.71,55.26a1.94,1.94,0,1,1-1.89-2A1.95,1.95,0,0,1,1483.71,55.26Z"/><path class="cls-3" d="M1519.08,46.24a1.94,1.94,0,1,1-1.89-2A1.95,1.95,0,0,1,1519.08,46.24Z"/><path class="cls-4" d="M1504.4,73.52a1.94,1.94,0,0,1-3.87-.1,1.94,1.94,0,1,1,3.87.1Z"/><path class="cls-4" d="M1481.77,84.54a1.94,1.94,0,1,1-3.87-.1,1.94,1.94,0,1,1,3.87.1Z"/><path class="cls-3" d="M1632.16,168.28a1.94,1.94,0,1,1-1.89-2A1.93,1.93,0,0,1,1632.16,168.28Z"/><path class="cls-3" d="M1643.07,178.19a1.94,1.94,0,1,1-3.87-.1,1.94,1.94,0,0,1,3.87.1Z"/><path class="cls-3" d="M1658.55,164.78a1.94,1.94,0,1,1-1.88-2A1.93,1.93,0,0,1,1658.55,164.78Z"/><path class="cls-3" d="M1851.29,48.18a1.94,1.94,0,0,1-3.87-.1,1.94,1.94,0,1,1,3.87.1Z"/><path class="cls-5" d="M1862.2,58.09a1.94,1.94,0,1,1-1.88-2A1.94,1.94,0,0,1,1862.2,58.09Z"/><path class="cls-3" d="M1877.69,44.68a1.94,1.94,0,1,1-1.89-2A1.95,1.95,0,0,1,1877.69,44.68Z"/><path class="cls-3" d="M1617.28,188.2a1.94,1.94,0,1,1-1.89-2A1.94,1.94,0,0,1,1617.28,188.2Z"/><path class="cls-3" d="M1921.13,24.14a1.94,1.94,0,1,1-1.94-1.94A1.93,1.93,0,0,1,1921.13,24.14Z"/><path class="cls-3" d="M1748.41,80.62a1.94,1.94,0,1,1-1.94-1.94A1.93,1.93,0,0,1,1748.41,80.62Z"/><path class="cls-3" d="M1603,33.07a1.94,1.94,0,1,1-1.93-1.94A1.92,1.92,0,0,1,1603,33.07Z"/><path class="cls-3" d="M1567.36,99.66a1.94,1.94,0,1,1-1.94-1.94A1.94,1.94,0,0,1,1567.36,99.66Z"/><path class="cls-6" d="M1620,53.27a1.94,1.94,0,1,1-1.93-1.93A1.93,1.93,0,0,1,1620,53.27Z"/><path class="cls-3" d="M1727.24,152.94a1.94,1.94,0,1,1-1.94-1.93A1.94,1.94,0,0,1,1727.24,152.94Z"/><path class="cls-3" d="M1740.66,244.1a1.94,1.94,0,1,1-1.94-1.94A1.94,1.94,0,0,1,1740.66,244.1Z"/><path class="cls-3" d="M1919.19,242.16a1.94,1.94,0,1,1-1.94-1.94A1.94,1.94,0,0,1,1919.19,242.16Z"/><path class="cls-3" d="M1862.2,230.78a1.94,1.94,0,1,1-1.93-1.93A1.93,1.93,0,0,1,1862.2,230.78Z"/><circle class="cls-3" cx="1896.76" cy="338.51" r="1.94"/><path class="cls-3" d="M1777.76,449.54a1.94,1.94,0,1,1-1.94-1.94A1.93,1.93,0,0,1,1777.76,449.54Z"/><path class="cls-3" d="M1618.06,415.44a1.94,1.94,0,1,1-1.94-1.94A1.94,1.94,0,0,1,1618.06,415.44Z"/><path class="cls-3" d="M1477.9,336.57a1.94,1.94,0,1,1-1.94-1.93A1.94,1.94,0,0,1,1477.9,336.57Z"/><path class="cls-3" d="M1470.22,240.22a1.94,1.94,0,1,1-1.94-1.94A1.94,1.94,0,0,1,1470.22,240.22Z"/><path class="cls-3" d="M1540.84,238.28a1.94,1.94,0,1,1-1.93-1.93A1.93,1.93,0,0,1,1540.84,238.28Z"/><path class="cls-3" d="M1453.42,78.68a1.94,1.94,0,1,1-1.93-1.94A1.94,1.94,0,0,1,1453.42,78.68Z"/><path class="cls-5" d="M1820.57,117.86a1.94,1.94,0,1,1-1.94-1.94A1.94,1.94,0,0,1,1820.57,117.86Z"/><path class="cls-7" d="M1479.84,162.79a1.94,1.94,0,1,1-1.94-1.93A1.94,1.94,0,0,1,1479.84,162.79Z"/><path class="cls-4" d="M1633.72,105.09a3.5,3.5,0,1,1-3.5-3.49A3.5,3.5,0,0,1,1633.72,105.09Z"/><path class="cls-3" d="M1695.27,29.57a3.5,3.5,0,1,1-3.5-3.5A3.5,3.5,0,0,1,1695.27,29.57Z"/><path class="cls-3" d="M1572.42,162.79a3.5,3.5,0,1,1-3.5-3.49A3.5,3.5,0,0,1,1572.42,162.79Z"/><path class="cls-3" d="M1509.46,121.36a3.5,3.5,0,1,1-3.5-3.5A3.5,3.5,0,0,1,1509.46,121.36Z"/></g></g></g></g></svg>