<svg xmlns="http://www.w3.org/2000/svg" viewBox="0 0 50.55 50.58"><defs><style>.cls-1{fill:#fff;}</style></defs><title>arrow_down</title><g id="Слой_2" data-name="Слой 2"><g id="Layer_1" data-name="Layer 1"><path class="cls-1" d="M35.12,48.56A24.83,24.83,0,0,0,48.53,35.09a24.93,24.93,0,0,0,2-9.84,24.66,24.66,0,0,0-2-9.82A24.87,24.87,0,0,0,35.12,2,24.6,24.6,0,0,0,25.3,0a24.69,24.69,0,0,0-9.84,2A24.86,24.86,0,0,0,2,15.43a24.49,24.49,0,0,0-2,9.82,24.76,24.76,0,0,0,2,9.84A24.82,24.82,0,0,0,15.46,48.56a24.93,24.93,0,0,0,19.66,0Zm-21-4A22,22,0,0,1,6,36.39,21.74,21.74,0,0,1,3,25.25a21.4,21.4,0,0,1,1.77-8.63A22.59,22.59,0,0,1,9.54,9.54a22.45,22.45,0,0,1,7.11-4.73A21.81,21.81,0,0,1,25.3,3.07,21.71,21.71,0,0,1,36.42,6a22.23,22.23,0,0,1,8.1,8.1,21.63,21.63,0,0,1,3,11.12,21.82,21.82,0,0,1-3,11.14,22.24,22.24,0,0,1-8.1,8.13,21.64,21.64,0,0,1-11.12,3,21.77,21.77,0,0,1-11.17-3Z"/><path class="cls-1" d="M39.9,22.31a1.51,1.51,0,0,0-2.07-2.21L25.13,32.46,12.77,20.1a1.54,1.54,0,0,0-2.13,0,1.59,1.59,0,0,0-.47,1.14,1.49,1.49,0,0,0,.47,1.07L24,35.73a1.59,1.59,0,0,0,2.16,0Z"/></g></g></svg>