<?xml version="1.0" encoding="UTF-8" standalone="no"?>
<!DOCTYPE svg PUBLIC "-//W3C//DTD SVG 1.1//EN" "http://www.w3.org/Graphics/SVG/1.1/DTD/svg11.dtd">
<svg width="100%" height="100%" viewBox="0 0 4489 3413" version="1.1" xmlns="http://www.w3.org/2000/svg" xmlns:xlink="http://www.w3.org/1999/xlink" xml:space="preserve" xmlns:serif="http://www.serif.com/" style="fill-rule:evenodd;clip-rule:evenodd;stroke-linejoin:round;stroke-miterlimit:1.41421;">
    <g transform="matrix(1,0,0,1,-129757,-13735.3)">
        <g transform="matrix(8.33333,0,0,8.33333,126244,10145.2)">
            <g transform="matrix(1,0,0,1,0.0431828,0)">
                <g transform="matrix(1.00039,0,0,0.997923,-0.228432,2.16294)">
                    <text x="421.519px" y="839.72px" style="font-family:'Geometria', sans-serif;font-size:15.041px;fill:white;">2013</text>
                </g>
                <g transform="matrix(1.00039,0,0,0.997923,-0.228432,2.16294)">
                    <text x="529.365px" y="839.72px" style="font-family:'Geometria', sans-serif;font-size:15.041px;fill:white;">2014</text>
                </g>
                <g transform="matrix(1.00039,0,0,0.997923,-0.228432,2.16294)">
                    <text x="637.211px" y="839.72px" style="font-family:'Geometria', sans-serif;font-size:15.041px;fill:white;">2015</text>
                </g>
                <g transform="matrix(1.00039,0,0,0.997923,-0.228432,2.16294)">
                    <text x="745.057px" y="839.72px" style="font-family:'Geometria', sans-serif;font-size:15.041px;fill:white;">2016</text>
                </g>
                <g transform="matrix(1.00039,0,0,0.997923,-0.228432,2.16294)">
                    <text x="850.436px" y="839.72px" style="font-family:'Geometria', sans-serif;font-size:15.041px;fill:white;">2017 YTD</text>
                </g>
                <g transform="matrix(1.00039,0,0,0.997923,-0.228432,2.16294)">
                    <text x="421.534px" y="737.063px" style="font-family:'Arial-BoldMT', 'Arial', sans-serif;font-weight:700;font-size:15.041px;fill:white;">1</text>
                    <text x="427.849px" y="737.063px" style="font-family:'Arial-BoldMT', 'Arial', sans-serif;font-weight:700;font-size:15.041px;fill:white;">5</text>
                    <text x="436.464px" y="737.063px" style="font-family:'Arial-BoldMT', 'Arial', sans-serif;font-weight:700;font-size:15.041px;fill:white;">0</text>
                </g>
                <g transform="matrix(1.00039,0,0,0.997923,-0.228432,2.16294)">
                    <text x="529.38px" y="702.438px" style="font-family:'Arial-BoldMT', 'Arial', sans-serif;font-weight:700;font-size:15.041px;fill:white;">5</text>
                    <text x="538.045px" y="702.438px" style="font-family:'Arial-BoldMT', 'Arial', sans-serif;font-weight:700;font-size:15.041px;fill:white;">1</text>
                    <text x="544.31px" y="702.438px" style="font-family:'Arial-BoldMT', 'Arial', sans-serif;font-weight:700;font-size:15.041px;fill:white;">4</text>
                </g>
                <g transform="matrix(1.00039,0,0,0.997923,-0.228432,2.16294)">
                    <text x="637.226px" y="697.715px" style="font-family:'Arial-BoldMT', 'Arial', sans-serif;font-weight:700;font-size:15.041px;fill:white;">5</text>
                    <text x="645.891px" y="697.715px" style="font-family:'Arial-BoldMT', 'Arial', sans-serif;font-weight:700;font-size:15.041px;fill:white;">7</text>
                    <text x="654.106px" y="697.715px" style="font-family:'Arial-BoldMT', 'Arial', sans-serif;font-weight:700;font-size:15.041px;fill:white;">6</text>
                </g>
                <g transform="matrix(1.00039,0,0,0.997923,-0.228432,2.16294)">
                    <text x="745.072px" y="663.526px" style="font-family:'Arial-BoldMT', 'Arial', sans-serif;font-weight:700;font-size:15.041px;fill:white;">9</text>
                    <text x="754.587px" y="663.526px" style="font-family:'Arial-BoldMT', 'Arial', sans-serif;font-weight:700;font-size:15.041px;fill:white;">2</text>
                    <text x="763.253px" y="663.526px" style="font-family:'Arial-BoldMT', 'Arial', sans-serif;font-weight:700;font-size:15.041px;fill:white;">8</text>
                </g>
                <g transform="matrix(1.00039,0,0,0.997923,-0.228432,2.16294)">
                    <text x="850.451px" y="440.343px" style="font-family:'Arial-BoldMT', 'Arial', sans-serif;font-weight:700;font-size:15.041px;fill:white;">3</text>
                    <text x="859.167px" y="440.343px" style="font-family:'Arial-BoldMT', 'Arial', sans-serif;font-weight:700;font-size:15.041px;fill:white;">6</text>
                    <text x="868.682px" y="440.343px" style="font-family:'Arial-BoldMT', 'Arial', sans-serif;font-weight:700;font-size:15.041px;fill:white;">0</text>
                    <text x="879.197px" y="440.343px" style="font-family:'Arial-BoldMT', 'Arial', sans-serif;font-weight:700;font-size:15.041px;fill:white;">9</text>
                </g>
                <g transform="matrix(1.00039,0,0,0.997923,-0.228432,2.16294)">
                    <text x="485.053px" y="784.188px" style="font-family:'Geometria', sans-serif;font-size:15.041px;fill:rgb(133,209,212);">138</text>
                </g>
                <g transform="matrix(1.00039,0,0,0.997923,-0.228432,2.16294)">
                    <text x="485.053px" y="766.303px" style="font-family:'Geometria', sans-serif;font-size:15.041px;fill:rgb(146,201,237);">12</text>
                </g>
                <g transform="matrix(1.00039,0,0,0.997923,-0.228432,2.16294)">
                    <text x="595.411px" y="784.188px" style="font-family:'Geometria', sans-serif;font-size:15.041px;fill:rgb(133,209,212);">138</text>
                </g>
                <g transform="matrix(1.00039,0,0,0.997923,-0.228432,2.16294)">
                    <text x="595.411px" y="752.135px" style="font-family:'Geometria', sans-serif;font-size:15.041px;fill:rgb(191,116,176);">3</text>
                    <text x="603.894px" y="752.135px" style="font-family:'Geometria', sans-serif;font-size:15.041px;fill:rgb(191,116,176);">2</text>
                </g>
                <g transform="matrix(1.00039,0,0,0.997923,-0.228432,2.16294)">
                    <text x="595.411px" y="735.559px" style="font-family:'Geometria', sans-serif;font-size:15.041px;fill:rgb(146,201,237);">3</text>
                    <text x="603.894px" y="735.559px" style="font-family:'Geometria', sans-serif;font-size:15.041px;fill:rgb(146,201,237);">2</text>
                </g>
                <g transform="matrix(1.00039,0,0,0.997923,-0.228432,2.16294)">
                    <text x="703.919px" y="784.203px" style="font-family:'Geometria', sans-serif;font-size:15.041px;fill:rgb(133,209,212);">23</text>
                    <text x="721.051px" y="784.203px" style="font-family:'Geometria', sans-serif;font-size:15.041px;fill:rgb(133,209,212);">2</text>
                </g>
                <g transform="matrix(1.00039,0,0,0.997923,-0.228432,2.16294)">
                    <text x="703.919px" y="752.15px" style="font-family:'Geometria', sans-serif;font-size:15.041px;fill:rgb(191,116,176);">331</text>
                </g>
                <g transform="matrix(1.00039,0,0,0.997923,-0.228432,2.16294)">
                    <text x="703.919px" y="735.574px" style="font-family:'Geometria', sans-serif;font-size:15.041px;fill:rgb(146,201,237);">14</text>
                </g>
                <g transform="matrix(1.00039,0,0,0.997923,-0.228432,2.16294)">
                    <text x="813.66px" y="784.218px" style="font-family:'Geometria', sans-serif;font-size:15.041px;fill:rgb(133,209,212);">417</text>
                </g>
                <g transform="matrix(1.00039,0,0,0.997923,-0.228432,2.16294)">
                    <text x="813.66px" y="731.362px" style="font-family:'Geometria', sans-serif;font-size:15.041px;fill:rgb(191,116,176);">288</text>
                </g>
                <g transform="matrix(1.00039,0,0,0.997923,-0.228432,2.16294)">
                    <text x="813.66px" y="711.327px" style="font-family:'Geometria', sans-serif;font-size:15.041px;fill:rgb(146,201,237);">222</text>
                </g>
                <g transform="matrix(1.00039,0,0,0.997923,-0.228432,2.16294)">
                    <text x="921.552px" y="784.218px" style="font-family:'Geometria', sans-serif;font-size:15.041px;fill:rgb(133,209,212);">462</text>
                </g>
                <g transform="matrix(1.00039,0,0,0.997923,-0.228432,2.16294)">
                    <text x="921.552px" y="738.658px" style="font-family:'Geometria', sans-serif;font-size:15.041px;fill:rgb(191,116,176);">106</text>
                </g>
                <g transform="matrix(1.00039,0,0,0.997923,-0.228432,2.16294)">
                    <text x="921.552px" y="711.327px" style="font-family:'Geometria', sans-serif;font-size:15.041px;fill:rgb(146,201,237);">3040</text>
                </g>
                <g transform="matrix(0.996586,0,0,0.996586,1.5052,2.74712)">
                    <g>
                        <text x="455.223px" y="447.596px" style="font-family:'Geometria', sans-serif;font-size:15.041px;fill:rgb(133,209,212);">Other early</text>
                        <text x="541.47px" y="447.596px" style="font-family:'Geometria', sans-serif;font-size:15.041px;fill:rgb(133,209,212);">s</text>
                        <text x="549.026px" y="447.596px" style="font-family:'Geometria', sans-serif;font-size:15.041px;fill:rgb(133,209,212);">tage i</text>
                        <text x="590.555px" y="447.596px" style="font-family:'Geometria', sans-serif;font-size:15.041px;fill:rgb(133,209,212);">n</text>
                        <text x="599.63px" y="447.596px" style="font-family:'Geometria', sans-serif;font-size:15.041px;fill:rgb(133,209,212);">v</text>
                        <text x="607.958px" y="447.596px" style="font-family:'Geometria', sans-serif;font-size:15.041px;fill:rgb(133,209,212);">e</text>
                        <text x="616.547px" y="447.596px" style="font-family:'Geometria', sans-serif;font-size:15.041px;fill:rgb(133,209,212);">s</text>
                        <text x="624.103px" y="447.596px" style="font-family:'Geometria', sans-serif;font-size:15.041px;fill:rgb(133,209,212);">t</text>
                        <text x="630.421px" y="447.596px" style="font-family:'Geometria', sans-serif;font-size:15.041px;fill:rgb(133,209,212);">ors</text>
                        <text x="455.223px" y="481.301px" style="font-family:'Geometria', sans-serif;font-size:15.041px;fill:rgb(191,116,176);">Corpora</text>
                        <text x="513.884px" y="481.301px" style="font-family:'Geometria', sans-serif;font-size:15.041px;fill:rgb(191,116,176);">t</text>
                        <text x="520.202px" y="481.301px" style="font-family:'Geometria', sans-serif;font-size:15.041px;fill:rgb(191,116,176);">e</text>
                        <text x="532.761px" y="481.301px" style="font-family:'Geometria', sans-serif;font-size:15.041px;fill:rgb(191,116,176);">V</text>
                        <text x="542.652px" y="481.301px" style="font-family:'Geometria', sans-serif;font-size:15.041px;fill:rgb(191,116,176);">enture</text>
                        <text x="455.223px" y="512.538px" style="font-family:'Geometria', sans-serif;font-size:15.041px;fill:rgb(146,201,237);">IC</text>
                        <text x="469.677px" y="512.538px" style="font-family:'Geometria', sans-serif;font-size:15.041px;fill:rgb(146,201,237);">O</text>
                    </g>
                </g>
                <g transform="matrix(-1.00039,0,0,0.997923,904.203,472.919)">
                    <rect x="421.519" y="298.315" width="61.037" height="13.564" style="fill:rgb(251,176,64);"/>
                </g>
                <g transform="matrix(-1.00039,0,0,0.997923,1119.97,444.617)">
                    <rect x="529.361" y="298.315" width="61.038" height="41.925" style="fill:rgb(251,176,64);"/>
                </g>
                <g transform="matrix(-1.00039,0,0,0.997923,1119.97,399.7)">
                    <rect x="529.361" y="340.241" width="61.038" height="3.083" style="fill:rgb(238,40,124);"/>
                </g>
                <g transform="matrix(-1.00039,0,0,0.997923,1119.97,393.547)">
                    <rect x="529.361" y="343.324" width="61.038" height="3.083" style="fill:rgb(146,201,237);"/>
                </g>
                <g transform="matrix(-1.00039,0,0,0.997923,1335.75,463.69)">
                    <rect x="637.205" y="298.315" width="61.037" height="22.812" style="fill:rgb(251,176,64);"/>
                </g>
                <g transform="matrix(-1.00039,0,0,0.997923,1335.75,413.444)">
                    <rect x="637.205" y="321.127" width="61.037" height="27.539" style="fill:rgb(238,40,124);"/>
                </g>
                <g transform="matrix(-1.00039,0,0,0.997923,1335.75,384.423)">
                    <rect x="637.205" y="348.257" width="61.037" height="2.36" style="fill:rgb(146,201,237);"/>
                </g>
                <g transform="matrix(-1.00039,0,0,0.997923,1551.52,447.283)">
                    <rect x="745.048" y="298.315" width="61.038" height="39.253" style="fill:rgb(251,176,64);"/>
                </g>
                <g transform="matrix(-1.00039,0,0,0.997923,1551.52,383.911)">
                    <rect x="745.048" y="337.568" width="61.038" height="24.251" style="fill:rgb(238,40,124);"/>
                </g>
                <g transform="matrix(-1.00039,0,0,0.997923,1551.52,342.07)">
                    <rect x="745.048" y="361.82" width="61.038" height="17.675" style="fill:rgb(146,201,237);"/>
                </g>
                <g transform="matrix(-1.00039,0,0,0.997923,1767.29,444.617)">
                    <rect x="852.89" y="298.315" width="61.039" height="41.925" style="fill:rgb(251,176,64);"/>
                </g>
                <g transform="matrix(-1.00039,0,0,0.997923,1767.29,390.883)">
                    <rect x="852.89" y="340.241" width="61.038" height="11.919" style="fill:rgb(238,40,124);"/>
                </g>
                <g transform="matrix(-1.00039,0,0,0.997923,1767.29,107.656)">
                    <rect x="852.89" y="352.16" width="61.039" height="271.897" style="fill:rgb(146,201,237);"/>
                </g>
                <g transform="matrix(-1.00039,0,0,0.997923,858.398,-197.315)">
                    <rect x="421.519" y="635.157" width="15.25" height="11.509" style="fill:rgb(251,176,64);"/>
                </g>
                <g transform="matrix(-1.00039,0,0,0.997923,858.398,-130.044)">
                    <rect x="421.519" y="601.452" width="15.25" height="11.508" style="fill:rgb(238,40,124);"/>
                </g>
                <g transform="matrix(-1.00039,0,0,0.997923,858.398,-67.6966)">
                    <rect x="421.519" y="570.213" width="15.25" height="11.509" style="fill:rgb(146,201,237);"/>
                </g>
            </g>
        </g>
    </g>
</svg>
