<?xml version="1.0" encoding="UTF-8" standalone="no"?>
<!DOCTYPE svg PUBLIC "-//W3C//DTD SVG 1.1//EN" "http://www.w3.org/Graphics/SVG/1.1/DTD/svg11.dtd">
<svg width="100%" height="100%" viewBox="0 0 6027 2217" version="1.1" xmlns="http://www.w3.org/2000/svg" xmlns:xlink="http://www.w3.org/1999/xlink" xml:space="preserve" xmlns:serif="http://www.serif.com/" style="fill-rule:evenodd;clip-rule:evenodd;stroke-linejoin:round;stroke-miterlimit:1.41421;">
    <g transform="matrix(1,0,0,1,-75606.5,-24054.8)">
        <g transform="matrix(8.33333,0,0,8.33333,72139.5,20290.5)">
            <g transform="matrix(1.00912,0,0,1.00912,-5.94036,0.805923)">
                <text x="781.045px" y="470.939px" style="font-family:'Geometria', sans-serif;font-size:19.782px;fill:white;">T<tspan x="791.015px 802.311px " y="470.939px 470.939px ">ea</tspan>m</text>
                <text x="781.045px" y="509.178px" style="font-family:'Geometria', sans-serif;font-size:19.782px;fill:white;">Bounty</text>
                <text x="781.045px" y="547.417px" style="font-family:'Geometria', sans-serif;font-size:19.782px;fill:white;">A<tspan x="795.743px " y="547.417px ">d</tspan>visers</text>
                <text x="781.045px" y="585.656px" style="font-family:'Geometria', sans-serif;font-size:19.782px;fill:white;">R<tspan x="795.07px " y="585.656px ">e</tspan>ser<tspan x="835.762px 846.781px " y="585.656px 585.656px ">ve</tspan></text>
                <text x="781.045px" y="623.895px" style="font-family:'Geometria', sans-serif;font-size:19.782px;fill:white;">Asset Manager R<tspan x="943.872px " y="623.895px ">e</tspan>cruitment P<tspan x="1066.92px " y="623.895px ">r</tspan>ogram</text>
                <text x="781.045px" y="662.134px" style="font-family:'Geometria', sans-serif;font-size:19.782px;fill:white;">T<tspan x="791.015px 803.3px 813.468px " y="662.134px 662.134px 662.134px ">oke</tspan>n Liquidity Suppor<tspan x="1001.5px " y="662.134px ">t</tspan></text>
                <text x="781.045px" y="700.373px" style="font-family:'Geometria', sans-serif;font-size:19.782px;fill:white;">A<tspan x="795.051px 806.069px " y="700.373px 700.373px ">va</tspan>ilable f<tspan x="882.884px " y="700.373px ">o</tspan>r Sale</text>
            </g>
        </g>
        <g transform="matrix(8.33333,0,0,8.33333,72139.5,20290.5)">
            <g transform="matrix(1.00912,0,0,1.00912,-5.94036,0.805923)">
                <g opacity="0.100006">
                    <g transform="matrix(1,0,0,1,418.169,464.036)">
                        <path d="M0,0C0,9.502 7.7,17.203 17.202,17.203L296.626,17.203C306.125,17.203 313.827,9.502 313.827,0C313.827,-9.502 306.125,-17.203 296.626,-17.203L17.202,-17.203C7.7,-17.203 0,-9.502 0,0" style="fill:white;fill-rule:nonzero;"/>
                    </g>
                </g>
            </g>
        </g>
        <g transform="matrix(8.33333,0,0,8.33333,72139.5,20290.5)">
            <g transform="matrix(1.00912,0,0,1.00912,-5.94036,0.805923)">
                <g opacity="0.899994">
                    <g transform="matrix(0.937941,0,0,0.999997,434.304,481.239)">
                        <path d="M0,-34.406L22.782,-34.406L22.926,0L0,0C-9.502,0 -17.202,-7.701 -17.202,-17.203C-17.202,-26.705 -9.502,-34.406 0,-34.406" style="fill:rgb(225,199,224);fill-rule:nonzero;"/>
                    </g>
                </g>
            </g>
        </g>
        <g transform="matrix(8.33333,0,0,8.33333,72139.5,20290.5)">
            <g transform="matrix(1.00912,0,0,1.00912,-5.94036,0.805923)">
                <g opacity="0.100006">
                    <g transform="matrix(1,0,0,1,418.169,578.75)">
                        <path d="M0,0.004C0,9.502 7.7,17.203 17.202,17.203L296.626,17.203C306.125,17.203 313.827,9.502 313.827,0.004C313.827,-9.5 306.125,-17.199 296.626,-17.199L17.202,-17.199C7.7,-17.199 0,-9.5 0,0.004" style="fill:white;fill-rule:nonzero;"/>
                    </g>
                </g>
            </g>
        </g>
        <g transform="matrix(8.33333,0,0,8.33333,72139.5,20290.5)">
            <g transform="matrix(1.00912,0,0,1.00912,-5.94036,0.805923)">
                <g opacity="0.100006">
                    <g transform="matrix(1,0,0,1,418.169,540.585)">
                        <path d="M0,-0.002C0,9.5 7.7,17.201 17.202,17.201L296.626,17.201C306.125,17.201 313.827,9.5 313.827,-0.002C313.827,-9.502 306.125,-17.203 296.626,-17.203L17.202,-17.203C7.7,-17.203 0,-9.502 0,-0.002" style="fill:white;fill-rule:nonzero;"/>
                    </g>
                </g>
            </g>
        </g>
        <g transform="matrix(8.33333,0,0,8.33333,72139.5,20290.5)">
            <g transform="matrix(1.00912,0,0,1.00912,-5.94036,0.805923)">
                <g opacity="0.100006">
                    <g transform="matrix(1,0,0,1,418.169,655.096)">
                        <path d="M0,-0.004C0,9.5 7.7,17.201 17.202,17.201L296.626,17.201C306.125,17.201 313.827,9.5 313.827,-0.004C313.827,-9.504 306.125,-17.205 296.626,-17.205L17.202,-17.205C7.7,-17.205 0,-9.504 0,-0.004" style="fill:white;fill-rule:nonzero;"/>
                    </g>
                </g>
            </g>
        </g>
        <g transform="matrix(8.33333,0,0,8.33333,72139.5,20290.5)">
            <g transform="matrix(1.00912,0,0,1.00912,-5.94036,0.805923)">
                <g opacity="0.100006">
                    <g transform="matrix(1,0,0,1,418.169,693.264)">
                        <path d="M0,-0.002C0,9.502 7.7,17.201 17.202,17.201L296.626,17.201C306.125,17.201 313.827,9.502 313.827,-0.002C313.827,-9.502 306.125,-17.203 296.626,-17.203L17.202,-17.203C7.7,-17.203 0,-9.502 0,-0.002" style="fill:white;fill-rule:nonzero;"/>
                    </g>
                </g>
            </g>
        </g>
        <g transform="matrix(8.33333,0,0,8.33333,72139.5,20290.5)">
            <g transform="matrix(1.00912,0,0,1.00912,-5.94036,0.805923)">
                <g opacity="0.100006">
                    <g transform="matrix(1,0,0,1,418.169,502.411)">
                        <path d="M0,0.002C0,9.504 7.7,17.203 17.202,17.203L296.626,17.203C306.125,17.203 313.827,9.504 313.827,0.002C313.827,-9.498 306.125,-17.201 296.626,-17.201L17.202,-17.201C7.7,-17.201 0,-9.498 0,0.002" style="fill:white;fill-rule:nonzero;"/>
                    </g>
                </g>
            </g>
        </g>
        <g transform="matrix(8.33333,0,0,8.33333,72139.5,20290.5)">
            <g transform="matrix(1.00912,0,0,1.00912,-5.94036,0.721479)">
                <g opacity="0.100006">
                    <g transform="matrix(1,0,0,1,418.169,616.924)">
                        <path d="M0,-0.002C0,9.498 7.7,17.201 17.202,17.201L296.626,17.201C306.125,17.201 313.827,9.498 313.827,-0.002C313.827,-9.502 306.125,-17.203 296.626,-17.203L17.202,-17.203C7.7,-17.203 0,-9.502 0,-0.002" style="fill:white;fill-rule:nonzero;"/>
                    </g>
                </g>
            </g>
        </g>
        <g transform="matrix(8.33333,0,0,8.33333,72139.5,20290.5)">
            <g transform="matrix(1.06502,0,0,1.00912,-29.3145,0.805923)">
                <g opacity="0.899994">
                    <g transform="matrix(1.16237,0,0,0.999997,438.164,710.465)">
                        <path d="M0,-34.404L138.783,-34.404L138.783,0L0,0C-9.502,0 -17.202,-7.699 -17.202,-17.203C-17.202,-26.703 -9.502,-34.404 0,-34.404" style="fill:rgb(225,199,224);fill-rule:nonzero;"/>
                    </g>
                </g>
            </g>
        </g>
        <g transform="matrix(8.33333,0,0,8.33333,72139.5,20290.5)">
            <g transform="matrix(1.00912,0,0,1.00912,-5.94036,0.805923)">
                <g opacity="0.899994">
                    <g transform="matrix(1,0,0,1,435.371,519.614)">
                        <path d="M0,-34.404L1.617,-34.404L1.617,0L0,0C-9.502,0 -17.202,-7.699 -17.202,-17.201C-17.202,-26.701 -9.502,-34.404 0,-34.404" style="fill:rgb(225,199,224);fill-rule:nonzero;"/>
                    </g>
                </g>
            </g>
        </g>
        <g transform="matrix(8.33333,0,0,8.33333,72139.5,20290.5)">
            <g transform="matrix(1.00912,0,0,1.00912,-5.94036,39.3262)">
                <g opacity="0.899994">
                    <g transform="matrix(1,0,0,1,435.371,519.614)">
                        <path d="M0,-34.404L1.617,-34.404L1.617,0L0,0C-9.502,0 -17.202,-7.699 -17.202,-17.201C-17.202,-26.701 -9.502,-34.404 0,-34.404" style="fill:rgb(225,199,224);fill-rule:nonzero;"/>
                    </g>
                </g>
            </g>
        </g>
        <g transform="matrix(8.33333,0,0,8.33333,72139.5,20290.5)">
            <g transform="matrix(1.00912,0,0,1.00912,-5.94057,154.88)">
                <g opacity="0.899994">
                    <g transform="matrix(1,0,0,1,435.371,519.614)">
                        <path d="M-0.94,-34.404C-0.94,-34.404 -0.966,0.002 -0.966,0.002C-10.468,0.002 -17.202,-7.699 -17.202,-17.201C-17.202,-26.701 -10.442,-34.404 -0.94,-34.404" style="fill:rgb(225,199,224);fill-rule:nonzero;"/>
                    </g>
                </g>
            </g>
        </g>
        <g transform="matrix(8.33333,0,0,8.33333,72139.5,20290.5)">
            <g transform="matrix(1.00912,0,0,1.00912,-5.94057,116.362)">
                <g opacity="0.899994">
                    <g transform="matrix(1,0,0,1,435.371,519.614)">
                        <path d="M-6.093,-33.351C-5.75,-33.493 -6.093,-1.24 -6.093,-1.24C-6.093,-1.24 -6.527,-1.359 -7.379,-1.662C-12.993,-3.654 -17.202,-8.78 -17.202,-17.201C-17.202,-25.761 -12.06,-30.876 -6.093,-33.351Z" style="fill:rgb(225,199,224);fill-rule:nonzero;"/>
                    </g>
                </g>
            </g>
        </g>
        <g transform="matrix(8.33333,0,0,8.33333,72139.5,20290.5)">
            <g transform="matrix(1.00912,0,0,1.00912,-5.94036,77.8442)">
                <g opacity="0.899994">
                    <g transform="matrix(1,0,0,1,435.371,519.614)">
                        <path d="M0,-34.404L4.649,-34.404L4.587,-0.002L0,0C-9.502,0 -17.202,-7.699 -17.202,-17.201C-17.202,-26.701 -9.502,-34.404 0,-34.404" style="fill:rgb(225,199,224);fill-rule:nonzero;"/>
                    </g>
                </g>
            </g>
        </g>
        <g transform="matrix(8.33333,0,0,8.33333,72139.5,20290.5)">
            <g transform="matrix(1.00912,0,0,1.00912,-5.94036,0.805923)">
                <text x="678.81px" y="470.939px" style="font-family:'Geometria-Bold', 'Geometria', sans-serif;font-weight:700;font-size:19.782px;fill:rgb(225,199,224);">12%</text>
                <text x="678.81px" y="509.178px" style="font-family:'Geometria-Bold', 'Geometria', sans-serif;font-weight:700;font-size:19.782px;fill:rgb(225,199,224);">6%</text>
                <text x="678.81px" y="547.417px" style="font-family:'Geometria-Bold', 'Geometria', sans-serif;font-weight:700;font-size:19.782px;fill:rgb(225,199,224);">6%</text>
                <text x="678.81px" y="585.656px" style="font-family:'Geometria-Bold', 'Geometria', sans-serif;font-weight:700;font-size:19.782px;fill:rgb(225,199,224);">7%</text>
                <text x="678.81px" y="623.895px" style="font-family:'Geometria-Bold', 'Geometria', sans-serif;font-weight:700;font-size:19.782px;fill:rgb(225,199,224);">3%</text>
                <text x="678.81px" y="662.134px" style="font-family:'Geometria-Bold', 'Geometria', sans-serif;font-weight:700;font-size:19.782px;fill:rgb(225,199,224);">5%</text>
                <text x="678.81px" y="700.373px" style="font-family:'Geometria-Bold', 'Geometria', sans-serif;font-weight:700;font-size:19.782px;fill:rgb(225,199,224);">61%</text>
            </g>
        </g>
    </g>
</svg>
