<svg width="29" height="28" viewBox="0 0 29 28" fill="none" xmlns="http://www.w3.org/2000/svg">
<rect width="27.44" height="27.44" fill="black" fill-opacity="0" transform="translate(0.639648 0.26593)"/>
<path d="M28.0797 13.9859C28.0797 11.2724 27.275 8.61976 25.7674 6.36351C24.2598 4.10727 22.1171 2.34874 19.6101 1.31031C17.1031 0.271875 14.3444 0.000173092 11.683 0.529562C9.0216 1.05895 6.57692 2.36565 4.65815 4.28443C2.73937 6.20321 1.43267 8.64788 0.903281 11.3093C0.373891 13.9707 0.645593 16.7294 1.68403 19.2364C2.72246 21.7434 4.48099 23.8861 6.73723 25.3937C8.99348 26.9013 11.6461 27.7059 14.3597 27.7059C16.1614 27.7059 17.9455 27.3511 19.6101 26.6616C21.2747 25.9721 22.7871 24.9615 24.0612 23.6874C25.3352 22.4134 26.3458 20.9009 27.0353 19.2364C27.7248 17.5718 28.0797 15.7877 28.0797 13.9859Z" fill="#6C5ED6"/>
<path fill-rule="evenodd" clip-rule="evenodd" d="M12.8576 13.8755L12.8576 13.8756C13.3489 13.9512 13.845 13.9802 14.3586 13.9802C14.8722 13.9802 15.3683 13.9512 15.8596 13.8756L15.8681 13.8743L15.8681 13.8743C15.9996 13.8564 16.1337 13.8365 16.2701 13.8164C16.7861 13.74 17.3345 13.6588 17.8943 13.6588C18.8647 13.6588 19.6481 14.0664 20.1797 14.7107C20.7033 15.3453 20.9658 16.1866 20.9658 17.0517C20.9658 17.8987 20.771 18.6009 20.4103 19.17C20.0502 19.7383 19.5452 20.1416 18.9759 20.4248C18.7647 20.5299 18.543 20.6192 18.314 20.6951C18.4291 20.6672 18.5432 20.6373 18.6561 20.605C19.9851 20.2258 21.0772 19.5544 21.6542 18.3882C22.1051 17.4682 22.2158 16.3765 22.2158 15.2838C22.2158 13.9095 21.8406 12.6362 20.9686 11.6098L20.7863 11.3951L20.8753 11.1279C21.0387 10.6379 21.1209 10.1189 21.1209 9.59855C21.1209 9.02469 21.0108 8.45216 20.7918 7.91929C19.5772 8.00131 18.7275 8.55977 17.6397 9.40992L17.4493 9.55875L17.2143 9.50196C16.3432 9.29136 15.4288 9.19453 14.5193 9.19453C13.5097 9.19453 12.5041 9.30134 11.5311 9.53255L11.2968 9.58823L11.1072 9.4397C10.0054 8.57663 9.15542 8.00273 7.92539 7.91933C7.70642 8.45219 7.59633 9.0247 7.59633 9.59855C7.59633 10.1193 7.67868 10.6493 7.84273 11.1506L7.93023 11.418L7.74716 11.6315C6.87637 12.6475 6.50146 13.9099 6.50146 15.2838C6.50146 16.3778 6.61259 17.4758 7.07023 18.3826C7.6443 19.5138 8.73153 20.1821 10.0594 20.5684C9.9511 20.5241 9.84496 20.4764 9.74136 20.4248C9.17202 20.1416 8.66702 19.7383 8.30688 19.17C7.94618 18.6009 7.75146 17.8987 7.75146 17.0517C7.75146 16.1866 8.01393 15.3453 8.53753 14.7107C9.06909 14.0664 9.8525 13.6588 10.8229 13.6588C11.3915 13.6588 11.9532 13.7424 12.4741 13.8198C12.6021 13.8388 12.7276 13.8575 12.8502 13.8745L12.8576 13.8755ZM6.62423 18.6086C6.11196 17.5941 6.00146 16.3988 6.00146 15.2838C6.00146 13.8173 6.40325 12.4311 7.36754 11.3061C7.18673 10.7537 7.09633 10.1711 7.09633 9.59855C7.09633 8.8452 7.26709 8.09185 7.60861 7.40881C9.19566 7.40881 10.2102 8.10189 11.4155 9.04609C12.43 8.80502 13.4747 8.69453 14.5193 8.69453C15.4635 8.69453 16.4178 8.79497 17.3318 9.01596C18.5271 8.0818 19.5416 7.40881 21.1086 7.40881C21.4501 8.09185 21.6209 8.8452 21.6209 9.59855C21.6209 10.1711 21.5305 10.7436 21.3497 11.286C22.314 12.4211 22.7158 13.8173 22.7158 15.2838C22.7158 16.3988 22.6053 17.584 22.103 18.6086C20.7771 21.2905 17.1309 21.5517 14.5193 21.5517C11.8675 21.5517 8.00035 21.3206 6.62423 18.6086ZM11.6851 16.0479C11.5204 15.7393 11.3352 15.6231 11.1443 15.6231C10.9534 15.6231 10.7683 15.7393 10.6036 16.0479C10.4392 16.3558 10.3586 16.7549 10.3586 17.0517C10.3586 17.3484 10.4392 17.7475 10.6036 18.0555C10.7683 18.3641 10.9534 18.4802 11.1443 18.4802C11.3352 18.4802 11.5204 18.3641 11.6851 18.0555C11.8495 17.7475 11.93 17.3484 11.93 17.0517C11.93 16.7549 11.8495 16.3558 11.6851 16.0479ZM18.1137 16.0479C17.9489 15.7393 17.7638 15.6231 17.5729 15.6231C17.382 15.6231 17.1968 15.7393 17.0321 16.0479C16.8678 16.3558 16.7872 16.7549 16.7872 17.0517C16.7872 17.3484 16.8678 17.7475 17.0321 18.0555C17.1968 18.3641 17.382 18.4802 17.5729 18.4802C17.7638 18.4802 17.9489 18.3641 18.1137 18.0555C18.278 17.7475 18.3586 17.3484 18.3586 17.0517C18.3586 16.7549 18.278 16.3558 18.1137 16.0479ZM11.1443 15.1231C12.0483 15.1231 12.43 16.3184 12.43 17.0517C12.43 17.7849 12.0483 18.9802 11.1443 18.9802C10.2403 18.9802 9.85861 17.7849 9.85861 17.0517C9.85861 16.3184 10.2403 15.1231 11.1443 15.1231ZM17.5729 15.1231C18.4769 15.1231 18.8586 16.3184 18.8586 17.0517C18.8586 17.7849 18.4769 18.9802 17.5729 18.9802C16.6689 18.9802 16.2872 17.7849 16.2872 17.0517C16.2872 16.3184 16.6689 15.1231 17.5729 15.1231ZM15.2024 20.5974C17.6533 20.5974 20.4658 20.1253 20.4658 17.0517C20.4658 15.5148 19.5316 14.1588 17.8943 14.1588C17.3751 14.1588 16.8743 14.2328 16.363 14.3083C16.2216 14.3291 16.0793 14.3502 15.9356 14.3698C15.4133 14.4501 14.891 14.4802 14.3586 14.4802C13.8262 14.4802 13.3039 14.4501 12.7816 14.3698C12.6485 14.3513 12.5158 14.3316 12.3833 14.312C11.8658 14.2352 11.3507 14.1588 10.8229 14.1588C9.18562 14.1588 8.25146 15.5148 8.25146 17.0517C8.25146 20.1253 11.064 20.5974 13.5149 20.5974H15.2024Z" fill="white"/>
</svg>
