<?xml version="1.0" encoding="utf-8"?>
<!-- Generator: Adobe Illustrator 22.0.0, SVG Export Plug-In . SVG Version: 6.00 Build 0)  -->
<svg width="100" height="100" version="1.1" id="Слой_1" xmlns="http://www.w3.org/2000/svg" xmlns:xlink="http://www.w3.org/1999/xlink" x="0px" y="0px"
	 viewBox="0 0 78.9 88.5" style="enable-background:new 0 0 78.9 88.5;" xml:space="preserve">
<style type="text/css">
	.st0{opacity:0.4;fill:url(#SVGID_1_);enable-background:new    ;}
	.st1{fill:url(#SVGID_2_);}
	.st2{fill:url(#SVGID_3_);}
	.st3{fill:url(#SVGID_4_);}
	.st4{fill:#FFFFFF;}
	.st5{fill:url(#SVGID_5_);}
	.st6{opacity:0.72;fill:url(#SVGID_6_);enable-background:new    ;}
	.st7{fill:url(#SVGID_7_);}
</style>
<g>
	
		<radialGradient id="SVGID_1_" cx="39.43" cy="40.97" r="39.43" gradientTransform="matrix(1 0 0 -0.9743 0 89.9605)" gradientUnits="userSpaceOnUse">
		<stop  offset="0" style="stop-color:#FFFFFF"/>
		<stop  offset="0.67" style="stop-color:#FFFFFF;stop-opacity:0.32"/>
		<stop  offset="1" style="stop-color:#FFFFFF;stop-opacity:0"/>
	</radialGradient>
	<path class="st0" d="M78.9,50c0,21.2-17.6,38.4-39.4,38.4S0,71.3,0,50.1s17.6-38.4,39.4-38.4c0,0,0,0,0,0
		C61.2,11.6,78.8,28.8,78.9,50z"/>
</g>
<linearGradient id="SVGID_2_" gradientUnits="userSpaceOnUse" x1="38.0488" y1="16.3125" x2="38.0488" y2="35.6875">
	<stop  offset="0" style="stop-color:#9AD3E7"/>
	<stop  offset="0.42" style="stop-color:#6A96B8"/>
	<stop  offset="0.78" style="stop-color:#5A92B6"/>
</linearGradient>
<rect x="36.3" y="16.3" class="st1" width="3.6" height="19.4"/>
<linearGradient id="SVGID_3_" gradientUnits="userSpaceOnUse" x1="38.0488" y1="7.810211e-02" x2="38.0488" y2="16.5547">
	<stop  offset="0" style="stop-color:#9AD3E7"/>
	<stop  offset="0.42" style="stop-color:#6A96B8"/>
	<stop  offset="0.78" style="stop-color:#5A92B6"/>
</linearGradient>
<path class="st2" d="M38,0.1c-4.5,0-8.2,3.7-8.2,8.2c0,4.5,3.7,8.2,8.2,8.2c4.5,0,8.2-3.7,8.2-8.2C46.3,3.8,42.6,0.1,38,0.1z
	 M38,13.3c-2.8,0-5-2.2-5-5c0-2.8,2.2-5,5-5c2.8,0,5,2.2,5,5C43.1,11.1,40.8,13.3,38,13.3z"/>
<title>kabinka</title>
<linearGradient id="SVGID_4_" gradientUnits="userSpaceOnUse" x1="938.605" y1="54.21" x2="938.605" y2="11.6598" gradientTransform="matrix(-1 0 0 -1 975.99 90)">
	<stop  offset="0" style="stop-color:#9AD3E7"/>
	<stop  offset="0.42" style="stop-color:#6A96B8"/>
	<stop  offset="0.78" style="stop-color:#5A92B6"/>
</linearGradient>
<path class="st3" d="M48.1,78.3c3.8,0,6.9-3,6.9-6.8c0,0,0,0,0-0.1V42.6c0-3.8-3.1-6.8-6.8-6.8H26.6c-3.8,0-6.8,3.1-6.8,6.8
	c0,0,0,0,0,0v28.9c0,3.8,3,6.8,6.8,6.8c0,0,0,0,0,0H48.1z"/>
<rect x="19.8" y="45.3" class="st4" width="35.2" height="18.9"/>
<linearGradient id="SVGID_5_" gradientUnits="userSpaceOnUse" x1="938.63" y1="44.66" x2="938.63" y2="25.74" gradientTransform="matrix(-1 0 0 -1 975.99 90)">
	<stop  offset="0" style="stop-color:#9AD3E7"/>
	<stop  offset="0.42" style="stop-color:#6A96B8"/>
	<stop  offset="0.78" style="stop-color:#5A92B6"/>
</linearGradient>
<rect x="29.3" y="45.3" class="st5" width="16.1" height="18.9"/>
<g>
	
		<radialGradient id="SVGID_6_" cx="39.43" cy="40.97" r="28.21" gradientTransform="matrix(1 0 0 -1 0 90)" gradientUnits="userSpaceOnUse">
		<stop  offset="0" style="stop-color:#FFFFFF"/>
		<stop  offset="0.67" style="stop-color:#FFFFFF;stop-opacity:0.32"/>
		<stop  offset="1" style="stop-color:#FFFFFF;stop-opacity:0"/>
	</radialGradient>
	<path class="st6" d="M67.6,49c0,15.6-12.6,28.2-28.2,28.2S11.2,64.6,11.2,49.1s12.6-28.2,28.2-28.2c0,0,0,0,0,0
		C55,20.8,67.6,33.4,67.6,49z"/>
</g>
<g>
	
		<radialGradient id="SVGID_7_" cx="39.43" cy="40.96" r="20.92" gradientTransform="matrix(1 0 0 -1 0 90)" gradientUnits="userSpaceOnUse">
		<stop  offset="0" style="stop-color:#FFFFFF"/>
		<stop  offset="0.67" style="stop-color:#FFFFFF;stop-opacity:0.32"/>
		<stop  offset="1" style="stop-color:#FFFFFF;stop-opacity:0"/>
	</radialGradient>
	<path class="st7" d="M60.3,49c0,11.6-9.3,20.9-20.9,21c-11.6,0-20.9-9.3-21-20.9c0-11.6,9.3-20.9,20.9-21c0,0,0,0,0,0
		C51,28.1,60.3,37.5,60.3,49z"/>
</g>
</svg>
