<svg xmlns="http://www.w3.org/2000/svg" xmlns:xlink="http://www.w3.org/1999/xlink" viewBox="0 0 164.08 164.08"><defs><style>.cls-1{mask:url(#mask);filter:url(#luminosity-noclip-2);}.cls-2{mix-blend-mode:multiply;fill:url(#radial-gradient);}.cls-3{isolation:isolate;}.cls-4{mask:url(#mask-2);}.cls-5{mix-blend-mode:screen;fill:url(#Безымянный_градиент_12);}.cls-6{fill:#fff;}.cls-7{filter:url(#luminosity-noclip);}</style><filter id="luminosity-noclip" x="0" y="-12600.17" width="164.08" height="32766" filterUnits="userSpaceOnUse" color-interpolation-filters="sRGB"><feFlood flood-color="#fff" result="bg"/><feBlend in="SourceGraphic" in2="bg"/></filter><mask id="mask" x="0" y="-12600.17" width="164.08" height="32766" maskUnits="userSpaceOnUse"><g class="cls-7"/></mask><radialGradient id="radial-gradient" cx="82.04" cy="82.04" r="82.04" gradientUnits="userSpaceOnUse"><stop offset="0"/><stop offset="0.67" stop-color="#aeaeae"/><stop offset="1" stop-color="#fff"/></radialGradient><filter id="luminosity-noclip-2" x="0" y="0" width="164.08" height="164.08" filterUnits="userSpaceOnUse" color-interpolation-filters="sRGB"><feFlood flood-color="#fff" result="bg"/><feBlend in="SourceGraphic" in2="bg"/></filter><mask id="mask-2" x="0" y="0" width="164.08" height="164.08" maskUnits="userSpaceOnUse"><g class="cls-1"><path class="cls-2" d="M164.08,82A82,82,0,1,1,82,0,82,82,0,0,1,164.08,82Z"/></g></mask><radialGradient id="Безымянный_градиент_12" cx="82.04" cy="82.04" r="82.04" gradientUnits="userSpaceOnUse"><stop offset="0" stop-color="#fff"/><stop offset="0.67" stop-color="#fff" stop-opacity="0.32"/><stop offset="1" stop-color="#fff" stop-opacity="0"/></radialGradient></defs><title>sun</title><g class="cls-3"><g id="Слой_2" data-name="Слой 2"><g id="Layer_1" data-name="Layer 1"><g class="cls-4"><path class="cls-5" d="M164.08,82A82,82,0,1,1,82,0,82,82,0,0,1,164.08,82Z"/></g><path class="cls-6" d="M135.9,82A53.86,53.86,0,1,1,82,28.18,53.85,53.85,0,0,1,135.9,82Z"/></g></g></g></svg>