<svg xmlns="http://www.w3.org/2000/svg" viewBox="0 0 464.11 533.48"><defs><style>.cls-1{fill:#0e0f2d;}.cls-16,.cls-17,.cls-2,.cls-21,.cls-23,.cls-24,.cls-25,.cls-8{fill:none;}.cls-2,.cls-21{stroke:#ece6e1;}.cls-16,.cls-17,.cls-2,.cls-21,.cls-8{stroke-linecap:round;}.cls-2,.cls-21,.cls-23,.cls-24,.cls-25{stroke-miterlimit:10;}.cls-2{stroke-width:8.03px;}.cls-3{fill:#6b9c38;}.cls-4{fill:#2e2b33;}.cls-5{fill:#162b52;}.cls-6{fill:#d8d0bc;}.cls-7{fill:#ffa685;}.cls-8{stroke:#ec8d75;stroke-width:1.49px;}.cls-9{fill:#d0d2d3;}.cls-10{fill:#ece6e1;}.cls-11{fill:#1f2935;}.cls-12{fill:#3c265b;}.cls-13{fill:#f7f3e8;}.cls-14{fill:#929497;}.cls-15{fill:#422b21;}.cls-16,.cls-24,.cls-25{stroke:#0e0f2d;}.cls-16,.cls-17{stroke-width:1.22px;}.cls-17{stroke:#d8d0bc;}.cls-18{fill:#00324b;}.cls-19{fill:#1a3b51;}.cls-20{fill:#5a4a42;}.cls-21{stroke-width:8.14px;}.cls-22{fill:#fff;}.cls-23{stroke:#fff;stroke-width:0.9px;}.cls-24{stroke-width:1.17px;}.cls-25{stroke-width:1.21px;}</style></defs><title>three_men_titles</title><g id="Слой_2" data-name="Слой 2"><g id="Layer_1" data-name="Layer 1"><path class="cls-1" d="M133.72,405.85a11,11,0,0,1-10.94-9.93L120.1,368.5a4,4,0,1,1,8-.78l2.68,27.42a3,3,0,0,0,5.62,1l10.53-22.47a4,4,0,1,1,7.27,3.41l-10.52,22.46A11,11,0,0,1,133.72,405.85Z"/><line class="cls-2" x1="152.23" y1="371.77" x2="150.56" y2="375.34"/><path class="cls-3" d="M119.17,513.15,119,523.9a3.37,3.37,0,0,1-6.72-.08l.14-10.75Z"/><path class="cls-4" d="M111,519.11l1.23-93.62a5.06,5.06,0,0,1,10.1.13l-1.22,93.5Z"/><path class="cls-1" d="M105.38,417.45c9,0,16.3,8.16,16.3,18.22v3.72H89.07v-3.72C89.07,425.61,96.37,417.45,105.38,417.45Z"/><path class="cls-3" d="M94.22,514l-.58,10.87a3.42,3.42,0,0,1-6.8-.39l.57-10.83Z"/><path class="cls-4" d="M85.94,518.4c1.66-31.77,2.76-61.12,3.5-93a5.07,5.07,0,0,1,10.1.22c-.74,31.84-1.84,61.13-3.49,93Z"/><path class="cls-1" d="M127.3,525.73a3.42,3.42,0,0,1-3.4-3.06v-.56a2,2,0,0,0-2-2h-1.22a1.43,1.43,0,0,0-1.43,1.43v.39a2.43,2.43,0,0,1-2.42,2.3h-3.45a2.21,2.21,0,0,0-2.21,2.21v5h24.8v-1.3a4.38,4.38,0,0,0-4.38-4.38Z"/><path class="cls-4" d="M102.17,525.69a3.46,3.46,0,0,1-3.44-3.08v-.56a2.05,2.05,0,0,0-2-2H94.34a1.44,1.44,0,0,0-1.44,1.44v.4a2.45,2.45,0,0,1-2.43,2.31H87a2.23,2.23,0,0,0-2.23,2.23v5h22.74V530.1a4.4,4.4,0,0,0-4.41-4.41Z"/><path class="cls-5" d="M109.76,359l3.19,3.31a80.89,80.89,0,0,1,12.66,2.2l-1.29,18.66V431H86.72V383.12l-1.29-18.66a82.42,82.42,0,0,1,20.09-2.57Z"/><path class="cls-6" d="M113,362.26v9.24l5.46-6.7.16-1.8C116.76,362.69,114.88,362.44,113,362.26Z"/><path class="cls-7" d="M105.52,343.84a4.24,4.24,0,0,0-4.25,4.24v14.21l6.24.64,2.25-.64V348.08A4.24,4.24,0,0,0,105.52,343.84Z"/><polygon class="cls-5" points="103.23 371.5 97.46 362.27 101.03 358.94 108.03 366.54 103.23 371.5"/><polygon class="cls-5" points="103.23 371.5 108.11 366.63 112.97 371.5 103.23 371.5"/><path class="cls-5" d="M97.49,362.32,113,387.14V362.26a81.64,81.64,0,0,1,12.61,2.2l-.11,18.66v51.33h-40l1.18-21.57-1.18-29.76-.11-18.66A81.69,81.69,0,0,1,97.49,362.32Z"/><path class="cls-5" d="M110.75,392.53a1.46,1.46,0,1,0,1.46-1.46A1.46,1.46,0,0,0,110.75,392.53Z"/><path class="cls-5" d="M110.75,403.93a1.46,1.46,0,1,0,1.46-1.45A1.46,1.46,0,0,0,110.75,403.93Z"/><polygon class="cls-5" points="110.94 372.54 112.97 379.43 113 387.14 108.37 379.73 109.05 372.61 105.11 369.56 108.03 366.88 110.96 369.56 110.94 372.54"/><path class="cls-5" d="M87.55,416a2.62,2.62,0,0,0,2.63,2.62h10a2.62,2.62,0,0,0,2.63-2.62h0a2.62,2.62,0,0,0-2.63-2.62h-10A2.62,2.62,0,0,0,87.55,416Z"/><path class="cls-5" d="M87.55,413.34A2.62,2.62,0,0,0,90.18,416h10a2.63,2.63,0,0,0,2.63-2.62h0a2.63,2.63,0,0,0-2.63-2.63h-10a2.62,2.62,0,0,0-2.63,2.63Z"/><polygon class="cls-5" points="113.22 434.74 106.3 434.74 113.22 414.64 113.22 434.74"/><path class="cls-7" d="M78.49,444.69a4.17,4.17,0,0,1-4-1.76,4,4,0,0,1-.71-3.6c.73-2.17,1-2.07,1-8.82l5.72,0c3.73,9,2.23,7.27,1.8,10.51a4.23,4.23,0,0,1-3.63,3.68Z"/><path class="cls-5" d="M73.68,428.64c-1.12-20.46.31-42,8.84-61.63a4.3,4.3,0,0,1,5.78-2.31,4.43,4.43,0,0,1,2.12,5.72c-7.77,17.85-9.23,37.93-8.15,57.78Z"/><polygon class="cls-1" points="82.62 434.04 74.03 434.63 73.68 428.64 82.27 428.2 82.62 434.04"/><path class="cls-7" d="M124.14,328.87l-1.68,17.72A16.7,16.7,0,0,1,116,356.94c-.46.05-7.25-.68-7.35-.69a13.67,13.67,0,0,1-12.31-14.9l1.42-15Z"/><path class="cls-7" d="M95.38,336.53a3.81,3.81,0,1,0-.72,7.59l6.18.59.49-7.61Z"/><path class="cls-1" d="M129,319.35l-21.85-2.07a10.77,10.77,0,0,0-9,3.5,4.2,4.2,0,0,0-3.2-2,4.32,4.32,0,0,0-1.3.08l1.09,1.32a5.34,5.34,0,0,1,1,3.41l-.21,2.29a.37.37,0,0,0,0,.09l-1,10.53,1.51.14-.25,2.72a2.26,2.26,0,1,0,4.51.42l.15-1.63a3.67,3.67,0,0,1,3.86-2.66l.43-4.47a3.64,3.64,0,0,1,3.85-2.65v0l15.48,1.47a4.82,4.82,0,0,0,5.19-3.87l-3.94-.38A10.79,10.79,0,0,0,129,319.35Z"/><path class="cls-1" d="M121.1,338.71a.91.91,0,1,1-.82-1A.92.92,0,0,1,121.1,338.71Z"/><path class="cls-1" d="M111.38,337.79a.91.91,0,1,1-.82-1A.91.91,0,0,1,111.38,337.79Z"/><path class="cls-8" d="M110.8,347.21a11.59,11.59,0,0,0,5.93.77"/><path class="cls-9" d="M150.86,367.62a2.33,2.33,0,0,1-2.76,1.79l-.67-.14a2.32,2.32,0,0,1-1.79-2.76l2.45-11.5a2.32,2.32,0,0,1,2.76-1.79l.66.14a2.32,2.32,0,0,1,1.79,2.76Z"/><path class="cls-1" d="M152.28,368a2.33,2.33,0,0,1-2.76,1.79l-.67-.14a2.32,2.32,0,0,1-1.79-2.76l2.45-11.5a2.32,2.32,0,0,1,2.76-1.79l.66.14a2.33,2.33,0,0,1,1.79,2.76Z"/><path class="cls-9" d="M152.74,358c-.13.68-.6,1.16-1,1.07s-.68-.7-.55-1.38.59-1.15,1-1.07S152.87,357.36,152.74,358Z"/><path class="cls-7" d="M151,360.56c.17-.12.35-.24.54-.35a3.81,3.81,0,0,1,5.15,1.56,10.4,10.4,0,0,1-1.32,11.46,3.8,3.8,0,0,1-5.91-4.79,2.91,2.91,0,0,0,.52-3.07A3.83,3.83,0,0,1,151,360.56Z"/><path class="cls-7" d="M197.17,431.48a2.9,2.9,0,0,0-.41-.53,3.93,3.93,0,0,0-5.56-.22,10.78,10.78,0,0,0-2.59,11.64,3.93,3.93,0,1,0,7.4-2.67,3,3,0,0,1,.53-3.19A3.9,3.9,0,0,0,197.17,431.48Z"/><path class="cls-1" d="M200.79,428.52c6.69-20.11,11.14-42,8-63.9a4.45,4.45,0,0,0-5.14-3.89,4.59,4.59,0,0,0-3.68,5.13c2.9,19.93-1.11,40.37-7.6,59.88Z"/><polygon class="cls-10" points="190.4 431.48 198.81 434.4 200.79 428.52 192.34 425.74 190.4 431.48"/><path class="cls-11" d="M210,514.59l.15,11.12a3.48,3.48,0,0,0,6.95-.08l-.15-11.13Z"/><path class="cls-12" d="M218.4,520.75l-1.27-96.84a5.24,5.24,0,0,0-10.45.14L208,520.76Z"/><path class="cls-1" d="M224.24,415.6c-9.31,0-16.86,8.44-16.86,18.84v3.85h33.73v-3.85C241.11,424,233.56,415.6,224.24,415.6Z"/><path class="cls-11" d="M235.77,515.48l.61,11.24a3.54,3.54,0,0,0,7-.4l-.6-11.2Z"/><path class="cls-12" d="M244.34,520c-1.71-32.88-2.84-63.24-3.61-96.18a5.24,5.24,0,0,0-10.45.23c.76,32.93,1.9,63.23,3.61,96.17Z"/><path class="cls-1" d="M201.56,527.6a3.54,3.54,0,0,0,3.52-3.16v-.58a2.1,2.1,0,0,1,2.1-2.1h1.26a1.48,1.48,0,0,1,1.48,1.48v.4a2.52,2.52,0,0,0,2.5,2.38H216a2.29,2.29,0,0,1,2.29,2.29v5.17H192.63v-1.35a4.53,4.53,0,0,1,4.54-4.53Z"/><path class="cls-12" d="M227.56,527.56a3.58,3.58,0,0,0,3.55-3.19v-.58a2.12,2.12,0,0,1,2.12-2.11h2.43a1.49,1.49,0,0,1,1.49,1.49v.4a2.53,2.53,0,0,0,2.51,2.4h3.6a2.3,2.3,0,0,1,2.3,2.3v5.21H222v-1.35a4.56,4.56,0,0,1,4.56-4.57Z"/><path class="cls-10" d="M219.71,355.07l-3.31,3.43a84,84,0,0,0-13.09,2.28l1.34,19.3v49.58h38.89V380.08l1.33-19.3a85.06,85.06,0,0,0-20.78-2.65Z"/><path class="cls-6" d="M216.35,358.51v9.55l-5.64-6.93-.17-1.87C212.47,359,214.41,358.69,216.35,358.51Z"/><path class="cls-7" d="M224.09,339.45a4.39,4.39,0,0,1,4.4,4.39v14.7l-7,4.39-1.79-4.39v-14.7A4.39,4.39,0,0,1,224.09,339.45Z"/><path class="cls-7" d="M207.58,322.41v18.41a17.25,17.25,0,0,0,5.64,11.29c.47.1,7.53,0,7.64,0A14.14,14.14,0,0,0,235,338V322.41Z"/><path class="cls-7" d="M236.44,333.11a3.94,3.94,0,1,1,0,7.88H230l.23-7.88Z"/><path class="cls-1" d="M203.5,312.13h22.7a11.16,11.16,0,0,1,9,4.49,4.35,4.35,0,0,1,3.49-1.77,4.51,4.51,0,0,1,1.33.21l-1.24,1.25a5.55,5.55,0,0,0-1.42,3.41v2.39a.37.37,0,0,0,0,.09v10.94h-1.58V336a2.34,2.34,0,0,1-4.68,0v-1.7a3.8,3.8,0,0,0-3.72-3.12V326.5a3.77,3.77,0,0,0-3.71-3.11v0H207.57a5,5,0,0,1-5-4.5h4.1A11.17,11.17,0,0,1,203.5,312.13Z"/><path class="cls-1" d="M211,331.77a.95.95,0,1,0,.95-.94A.95.95,0,0,0,211,331.77Z"/><path class="cls-1" d="M221.13,331.77a1,1,0,0,0,1,.94.94.94,0,0,0,0-1.88A1,1,0,0,0,221.13,331.77Z"/><path class="cls-13" d="M222.21,341.37a4.65,4.65,0,1,1-9.29,0Z"/><polygon class="cls-10" points="226.46 368.06 232.43 358.52 228.73 355.07 221.5 362.93 226.46 368.06"/><polygon class="cls-6" points="226.46 368.06 221.42 363.02 216.38 368.06 226.46 368.06"/><path class="cls-12" d="M232.4,358.57l-16.05,25.67V358.51a83.41,83.41,0,0,0-13,2.27l.12,19.3v53.1h41.33l-1.22-22.32,1.22-30.78.11-19.3A83.1,83.1,0,0,0,232.4,358.57Z"/><path class="cls-14" d="M218.68,389.82a1.51,1.51,0,1,1-1.51-1.51A1.51,1.51,0,0,1,218.68,389.82Z"/><path class="cls-14" d="M218.68,401.61a1.51,1.51,0,1,1-1.51-1.51A1.5,1.5,0,0,1,218.68,401.61Z"/><polygon class="cls-1" points="218.48 369.14 216.38 376.27 216.35 384.24 221.14 376.58 220.44 369.2 224.52 366.06 221.49 363.28 218.47 366.05 218.48 369.14"/><path class="cls-1" d="M242.68,414.05a2.72,2.72,0,0,1-2.72,2.72H229.64a2.72,2.72,0,0,1-2.71-2.72h0a2.71,2.71,0,0,1,2.71-2.71H240a2.71,2.71,0,0,1,2.72,2.71Z"/><path class="cls-12" d="M242.68,411.34a2.71,2.71,0,0,1-2.72,2.71H229.64a2.72,2.72,0,0,1-2.71-2.71h0a2.72,2.72,0,0,1,2.71-2.72H240a2.72,2.72,0,0,1,2.72,2.72Z"/><polygon class="cls-1" points="216.13 433.48 223.29 433.48 216.13 412.69 216.13 433.48"/><path class="cls-1" d="M259.93,448.05H245.31v-7.28a3.18,3.18,0,0,1,3.17-3.17h8.28a3.18,3.18,0,0,1,3.17,3.17v7.28Zm-12.67-1.95H258v-5.33a1.22,1.22,0,0,0-1.21-1.22h-8.28a1.23,1.23,0,0,0-1.22,1.22v5.33Z"/><path class="cls-15" d="M272.9,444.06H234.64a2.45,2.45,0,0,0-2.21,2.44v26.79a2.43,2.43,0,0,0,1.34,2.18,7.8,7.8,0,0,0,2,.26h36.78a17.4,17.4,0,0,0,2.24-8.18Z"/><path class="cls-1" d="M275,473.29a2.47,2.47,0,0,1-2.47,2.47h0a2.46,2.46,0,0,1-2.46-2.47V446.5a2.46,2.46,0,0,1,2.46-2.47h0A2.47,2.47,0,0,1,275,446.5Z"/><line class="cls-16" x1="267.9" y1="450.83" x2="235.39" y2="450.83"/><line class="cls-17" x1="266.47" y1="450.83" x2="266.47" y2="453.83"/><path class="cls-7" d="M252.06,443.78a4.34,4.34,0,0,0,4.15-1.83,4.09,4.09,0,0,0,.73-3.72c-.75-2.25-1-2.15-1-9.13l-5.91,0c-3.86,9.35-2.32,7.53-1.87,10.87a4.4,4.4,0,0,0,3.76,3.82Z"/><path class="cls-12" d="M257,427.17c1.15-21.17-.32-43.49-9.15-63.75a4.44,4.44,0,0,0-6-2.39,4.57,4.57,0,0,0-2.2,5.91c8,18.47,9.55,39.24,8.43,59.77Z"/><polygon class="cls-10" points="247.78 432.75 256.66 433.36 257.03 427.17 248.14 426.71 247.78 432.75"/><path class="cls-4" d="M337.7,511.51l.14,10.89a3.41,3.41,0,0,0,6.81-.08l-.14-10.9Z"/><path class="cls-18" d="M346,517.54l-1.24-94.86a5.14,5.14,0,0,0-10.24.13l1.24,94.74Z"/><path class="cls-4" d="M363,512.38l.59,11a3.47,3.47,0,0,0,6.9-.39l-.6-11Z"/><path class="cls-18" d="M371.36,516.83c-1.67-32.2-2.78-61.94-3.53-94.21a5.14,5.14,0,0,0-10.25.23c.76,32.25,1.87,61.93,3.54,94.2Z"/><path class="cls-1" d="M329.46,524.25a3.48,3.48,0,0,0,3.45-3.1v-.56a2.06,2.06,0,0,1,2.06-2.06h1.24a1.45,1.45,0,0,1,1.45,1.45v.4a2.47,2.47,0,0,0,2.45,2.33h3.49a2.24,2.24,0,0,1,2.24,2.24V530H320.71v-1.33a4.44,4.44,0,0,1,4.44-4.44Z"/><path class="cls-19" d="M354.93,524.21a3.5,3.5,0,0,0,3.48-3.12v-.57a2.07,2.07,0,0,1,2.07-2.07h2.38a1.46,1.46,0,0,1,1.46,1.46v.4a2.47,2.47,0,0,0,2.46,2.34h3.52a2.26,2.26,0,0,1,2.26,2.26V530H349.51v-1.34a4.47,4.47,0,0,1,4.47-4.47Z"/><path class="cls-10" d="M347.23,355.25,344,358.61c-2.8.27-5.63.68-8.38,1.22a5.11,5.11,0,0,0-4.15,5.35l1,14.57v48.56h38.1V379.75l1.31-18.91a83.7,83.7,0,0,0-20.36-2.6Z"/><path class="cls-6" d="M343.94,358.61V368l-5.52-6.79-.17-1.82C340.14,359.05,342.05,358.79,343.94,358.61Z"/><path class="cls-7" d="M351.53,340a4.29,4.29,0,0,1,4.3,4.3v14.4L349,363l-1.76-4.3v-14.4A4.3,4.3,0,0,1,351.53,340Z"/><path class="cls-7" d="M335.36,323.25v18a16.89,16.89,0,0,0,5.51,11.06c.47.1,7.38,0,7.49,0A13.85,13.85,0,0,0,362.2,338.5V323.25Z"/><path class="cls-7" d="M363.62,333.73a3.87,3.87,0,1,1,0,7.73h-6.28l.23-7.73Z"/><path class="cls-20" d="M331.36,313.18H353.6a10.94,10.94,0,0,1,8.78,4.4,4.26,4.26,0,0,1,3.42-1.73,4.32,4.32,0,0,1,1.3.21l-1.22,1.22a5.46,5.46,0,0,0-1.38,3.35V323s0,.05,0,.08v10.72H363v2.76a2.3,2.3,0,1,1-4.59,0v-1.66a3.71,3.71,0,0,0-3.65-3.05v-4.55a3.68,3.68,0,0,0-3.63-3v0H335.34a4.9,4.9,0,0,1-4.87-4.4h4A11,11,0,0,1,331.36,313.18Z"/><path class="cls-1" d="M338.74,332.42a.93.93,0,1,0,1.85,0,.93.93,0,0,0-1.85,0Z"/><path class="cls-1" d="M348.63,332.42a.93.93,0,1,0,.93-.92A.92.92,0,0,0,348.63,332.42Z"/><path class="cls-1" d="M349.69,341.83a4.55,4.55,0,1,1-9.1,0Z"/><polygon class="cls-10" points="353.84 367.97 359.7 358.63 356.08 355.25 348.99 362.95 353.84 367.97"/><polygon class="cls-6" points="353.84 367.97 348.91 363.04 343.98 367.97 353.84 367.97"/><path class="cls-10" d="M318.05,401a13.11,13.11,0,0,1-7.59-2.41L291.35,385a4.07,4.07,0,1,1,4.71-6.64l19.1,13.54a5,5,0,0,0,7.71-2.77l7.29-25.91a4.07,4.07,0,1,1,7.83,2.2l-7.27,25.88a13.14,13.14,0,0,1-8.24,8.89A13.28,13.28,0,0,1,318.05,401Z"/><line class="cls-21" x1="292.57" y1="380.87" x2="293.71" y2="381.68"/><path class="cls-7" d="M295.32,378.35a4.39,4.39,0,0,1,.24.58,3.71,3.71,0,0,1-2.4,4.65,10.13,10.13,0,0,1-10.72-3.29,3.7,3.7,0,0,1,5.62-4.81,2.83,2.83,0,0,0,2.85,1A3.71,3.71,0,0,1,295.32,378.35Z"/><path class="cls-14" d="M346.23,400.84a1.48,1.48,0,1,1-1.48-1.48A1.48,1.48,0,0,1,346.23,400.84Z"/><path class="cls-13" d="M341.07,343.84h8.13a4.55,4.55,0,0,0,.49-2h-9.1A4.54,4.54,0,0,0,341.07,343.84Z"/><path class="cls-6" d="M353.1,408a4.07,4.07,0,0,1-.36-8.12l21.11-1.94a5,5,0,0,0,4-7.12L366.58,366.4A4.07,4.07,0,1,1,374,363l11.31,24.38A13.14,13.14,0,0,1,374.6,406L353.48,408Z"/><line class="cls-21" x1="350.9" y1="404.13" x2="353.11" y2="403.92"/><polyline class="cls-10" points="336.65 410.38 349.03 410.46 346.64 394.56 334.29 394.56"/><path class="cls-7" d="M353.17,402.24a3.34,3.34,0,0,1,.23.58,3.68,3.68,0,0,1-2.39,4.64,10.14,10.14,0,0,1-10.73-3.27,3.7,3.7,0,1,1,5.62-4.81,2.86,2.86,0,0,0,2.86,1A3.71,3.71,0,0,1,353.17,402.24Z"/><path class="cls-22" d="M340.7,175V153.22h4.45V175Z"/><path class="cls-22" d="M354.25,175h-4.39V159.48h4.39v1.87a6.76,6.76,0,0,1,5.21-2.27c3.61,0,5.67,2.43,5.67,6.42V175h-4.4V166.4c0-2.4-1.34-3.3-3-3.3a4.45,4.45,0,0,0-3.52,2Z"/><path class="cls-22" d="M373.73,175.16,367,159.48h4.74l4.11,10.1,4.08-10.1h4.58l-6.76,15.68Z"/><path class="cls-22" d="M388.22,173.19a7.66,7.66,0,0,1-2.49-5.95,8,8,0,0,1,2.24-5.79,7.69,7.69,0,0,1,5.86-2.37,6.66,6.66,0,0,1,5.39,2.4,8.72,8.72,0,0,1,2,5.82v1.16H390.09c.47,2.12,2.46,3.24,5.21,3.24a10,10,0,0,0,5-1.37v3.52a9.61,9.61,0,0,1-5.92,1.59A8.81,8.81,0,0,1,388.22,173.19Zm8.7-7.54a3.17,3.17,0,0,0-3.28-3.11,3.4,3.4,0,0,0-3.55,3.11Z"/><path class="cls-22" d="M403.81,174v-3.89a12.43,12.43,0,0,0,6.35,1.77c1.78,0,2.68-.43,2.68-1.31,0-.4-.19-.71-.78-1a5.22,5.22,0,0,0-.81-.28L410.1,169c-.53-.16-1-.25-1.25-.34-3.58-1-5-2.09-5-4.83,0-3,2.58-4.77,6.85-4.77a10.83,10.83,0,0,1,5.83,1.43v3.74a11.06,11.06,0,0,0-5.64-1.62c-1.65,0-2.5.41-2.5,1.25,0,.53.41.75.88,1,.34.12,1,.28,1.34.4l1.65.34c3.36.78,5.08,2.22,5.08,4.93a4.12,4.12,0,0,1-1.9,3.52,8.6,8.6,0,0,1-5,1.34A12.5,12.5,0,0,1,403.81,174Z"/><path class="cls-22" d="M422,163.16H419v-3.68H422v-4.26h4.39v4.26h4.43v3.68h-4.43v6.17c0,1.53.62,2.18,2.12,2.18a5,5,0,0,0,2.27-.56v3.65a6.92,6.92,0,0,1-3.7.84c-3.4,0-5.08-1.75-5.08-5.24Z"/><path class="cls-22" d="M435.72,161.45a9.29,9.29,0,0,1,12.4,0,8.2,8.2,0,0,1,0,11.65,9.38,9.38,0,0,1-12.4,0,7.85,7.85,0,0,1-2.43-5.86A7.7,7.7,0,0,1,435.72,161.45Zm6.2,10.15a4.07,4.07,0,0,0,3.08-1.24,4.31,4.31,0,0,0,1.22-3.12,4.18,4.18,0,0,0-1.22-3.08,4.43,4.43,0,0,0-6.17,0,4.17,4.17,0,0,0-1.21,3.08,4.3,4.3,0,0,0,1.21,3.12A4.09,4.09,0,0,0,441.92,171.6Z"/><path class="cls-22" d="M453.8,175V159.48h4.39v2.62a5.93,5.93,0,0,1,2.18-2.12,6.31,6.31,0,0,1,3.24-.9,2.33,2.33,0,0,1,.5,0v4.3a5.86,5.86,0,0,0-1.37-.16,5.09,5.09,0,0,0-4.55,2.71V175Z"/><path class="cls-22" d="M129.4,0h18.29V4h-6.91V21.81h-4.49V4H129.4Z"/><path class="cls-22" d="M148.66,21.81V6.26h4.4V8.88a5.85,5.85,0,0,1,2.18-2.12,6.25,6.25,0,0,1,3.24-.9,2.33,2.33,0,0,1,.5,0v4.3a5.48,5.48,0,0,0-1.37-.16,5.09,5.09,0,0,0-4.55,2.71v9.07Z"/><path class="cls-22" d="M177.55,18.23v3.21a3.8,3.8,0,0,1-2.37.65,3.44,3.44,0,0,1-3.52-2,7.17,7.17,0,0,1-5.36,2.12c-3.36,0-5.73-2.06-5.73-5.21a4.38,4.38,0,0,1,1.81-3.8,7.19,7.19,0,0,1,4.33-1.31,9.44,9.44,0,0,1,4.48,1V12.4c0-2-1.37-2.93-4.11-2.93a9.09,9.09,0,0,0-4.7,1.31V7.1a12.08,12.08,0,0,1,5.76-1.24,8.28,8.28,0,0,1,5.36,1.62A5.41,5.41,0,0,1,175.55,12v5.27c0,.78.38,1.18,1.1,1.18A1.92,1.92,0,0,0,177.55,18.23Zm-6.36-2.56a5.74,5.74,0,0,0-3.24-.9c-1.87,0-3,.75-3,2s1.15,2,2.77,2a4.17,4.17,0,0,0,3.52-1.59Z"/><path class="cls-22" d="M181.63,19.88a8.62,8.62,0,0,1-2-5.86,8.42,8.42,0,0,1,2-5.79,6.72,6.72,0,0,1,5.27-2.37A6.16,6.16,0,0,1,192,8.16V0h4.39V21.81H192v-1.9a6,6,0,0,1-5.11,2.31A6.79,6.79,0,0,1,181.63,19.88ZM192,16.05V12a4.38,4.38,0,0,0-3.86-2.31,3.9,3.9,0,0,0-3,1.25A4.38,4.38,0,0,0,183.94,14a4.41,4.41,0,0,0,1.19,3.12,3.92,3.92,0,0,0,3,1.24A4.39,4.39,0,0,0,192,16.05Z"/><path class="cls-22" d="M202.17,20A7.66,7.66,0,0,1,199.68,14a8,8,0,0,1,2.24-5.79,7.69,7.69,0,0,1,5.86-2.37,6.68,6.68,0,0,1,5.39,2.4,8.72,8.72,0,0,1,2,5.82v1.16H204c.47,2.11,2.46,3.24,5.21,3.24a10,10,0,0,0,5-1.37v3.52a9.61,9.61,0,0,1-5.92,1.59A8.81,8.81,0,0,1,202.17,20Zm8.7-7.54a3.17,3.17,0,0,0-3.28-3.11A3.39,3.39,0,0,0,204,12.43Z"/><path class="cls-22" d="M218.57,21.81V6.26H223V8.88a5.93,5.93,0,0,1,2.18-2.12,6.31,6.31,0,0,1,3.24-.9,2.33,2.33,0,0,1,.5,0v4.3a5.37,5.37,0,0,0-1.37-.16A5.09,5.09,0,0,0,223,12.74v9.07Z"/><path class="cls-22" d="M9.16,207.41,0,185.48H5l6.36,15.7,6.39-15.7h4.86L13.4,207.41Z"/><path class="cls-22" d="M23.87,205.45a7.66,7.66,0,0,1-2.49-5.95,8.07,8.07,0,0,1,2.24-5.8,7.72,7.72,0,0,1,5.86-2.36,6.68,6.68,0,0,1,5.39,2.4,8.7,8.7,0,0,1,2,5.82v1.15H25.74C26.21,202.83,28.2,204,31,204a9.88,9.88,0,0,0,5-1.38v3.53A9.68,9.68,0,0,1,30,207.69,8.8,8.8,0,0,1,23.87,205.45Zm8.7-7.54a3.17,3.17,0,0,0-3.28-3.12,3.4,3.4,0,0,0-3.55,3.12Z"/><path class="cls-22" d="M44.66,207.29H40.27V191.74h4.39v1.87a6.72,6.72,0,0,1,5.2-2.27c3.62,0,5.67,2.43,5.67,6.41v9.54H51.14v-8.63c0-2.4-1.34-3.3-3-3.3a4.45,4.45,0,0,0-3.52,2Z"/><path class="cls-22" d="M60.55,205.36a8.62,8.62,0,0,1-2-5.86,8.46,8.46,0,0,1,2-5.8,6.74,6.74,0,0,1,5.27-2.36,6.17,6.17,0,0,1,5.11,2.3v-8.16h4.39v21.81H70.93v-1.9a6,6,0,0,1-5.11,2.3A6.78,6.78,0,0,1,60.55,205.36Zm10.38-3.84v-4.05a4.37,4.37,0,0,0-3.86-2.3,3.93,3.93,0,0,0-3,1.25,4.36,4.36,0,0,0-1.18,3.08A4.42,4.42,0,0,0,64,202.62a4,4,0,0,0,3,1.24A4.4,4.4,0,0,0,70.93,201.52Z"/><path class="cls-22" d="M81,193.7a9.32,9.32,0,0,1,12.4,0,8.21,8.21,0,0,1,0,11.66,9.41,9.41,0,0,1-12.4,0,7.85,7.85,0,0,1-2.43-5.86A7.72,7.72,0,0,1,81,193.7Zm6.2,10.16a4.07,4.07,0,0,0,3.08-1.24,4.28,4.28,0,0,0,1.22-3.12,4.11,4.11,0,0,0-1.22-3.08,4.42,4.42,0,0,0-6.16,0,4.11,4.11,0,0,0-1.22,3.08,4.28,4.28,0,0,0,1.22,3.12A4.07,4.07,0,0,0,87.23,203.86Z"/><path class="cls-22" d="M99.11,207.29V191.74h4.39v2.62a5.93,5.93,0,0,1,2.18-2.12,6.31,6.31,0,0,1,3.24-.9,2.33,2.33,0,0,1,.5,0v4.3a5.37,5.37,0,0,0-1.37-.16,5.09,5.09,0,0,0-4.55,2.71v9.07Z"/><line class="cls-23" x1="104.27" y1="223.42" x2="104.27" y2="317.28"/><line class="cls-23" x1="346.2" y1="207.29" x2="346.2" y2="301.15"/><line class="cls-23" x1="217.17" y1="37.94" x2="217.17" y2="315.54"/><path class="cls-24" d="M113.65,337.28a3.89,3.89,0,1,0-3.89,3.89A3.89,3.89,0,0,0,113.65,337.28Z"/><circle class="cls-25" cx="119.82" cy="338.33" r="3.43"/><line class="cls-24" x1="106.14" y1="335.85" x2="94.93" y2="336.52"/><line class="cls-24" x1="113.65" y1="337.28" x2="116.73" y2="337.71"/></g></g></svg>