<?xml version="1.0" encoding="UTF-8" standalone="no"?>
<!DOCTYPE svg PUBLIC "-//W3C//DTD SVG 1.1//EN" "http://www.w3.org/Graphics/SVG/1.1/DTD/svg11.dtd">
<svg width="100%" height="100%" viewBox="0 0 4429 3862" version="1.1" xmlns="http://www.w3.org/2000/svg" xmlns:xlink="http://www.w3.org/1999/xlink" xml:space="preserve" xmlns:serif="http://www.serif.com/" style="fill-rule:evenodd;clip-rule:evenodd;stroke-linejoin:round;stroke-miterlimit:1.41421;">
    <g transform="matrix(1,0,0,1,-111688,-13152)">
        <g transform="matrix(8.33333,0,0,8.33333,108209,10145.2)">
            <g transform="matrix(1.00242,0,0,1.00242,5.75351,-1.72257)">
                <text x="608.234px" y="565.014px" style="font-family:'Geometria-Bold', 'Geometria', sans-serif;font-weight:700;font-size:12.198px;fill:white;">5<tspan x="615.644px " y="565.014px ">7</tspan></text>
            </g>
        </g>
        <g transform="matrix(8.33333,0,0,8.33333,108209,10145.2)">
            <g transform="matrix(1.00242,0,0,1.00242,5.75351,-1.72257)">
                <text x="655.087px" y="547.01px" style="font-family:'Geometria-Bold', 'Geometria', sans-serif;font-weight:700;font-size:12.198px;fill:white;">6</text>
                <text x="663.819px" y="547.01px" style="font-family:'Geometria-Bold', 'Geometria', sans-serif;font-weight:700;font-size:12.198px;fill:white;">2</text>
                <text x="671.219px" y="547.01px" style="font-family:'Geometria-Bold', 'Geometria', sans-serif;font-weight:700;font-size:12.198px;fill:white;">,</text>
                <text x="675.035px" y="547.01px" style="font-family:'Geometria-Bold', 'Geometria', sans-serif;font-weight:700;font-size:12.198px;fill:white;">4</text>
            </g>
        </g>
        <g transform="matrix(8.33333,0,0,8.33333,108209,10145.2)">
            <g transform="matrix(1.00242,0,0,1.00242,5.75351,-1.72257)">
                <text x="705.891px" y="521.931px" style="font-family:'Geometria-Bold', 'Geometria', sans-serif;font-weight:700;font-size:12.198px;fill:white;">6</text>
                <text x="714.624px" y="521.931px" style="font-family:'Geometria-Bold', 'Geometria', sans-serif;font-weight:700;font-size:12.198px;fill:white;">8</text>
                <text x="723.444px" y="521.931px" style="font-family:'Geometria-Bold', 'Geometria', sans-serif;font-weight:700;font-size:12.198px;fill:white;">,</text>
                <text x="727.309px" y="521.931px" style="font-family:'Geometria-Bold', 'Geometria', sans-serif;font-weight:700;font-size:12.198px;fill:white;">7</text>
            </g>
        </g>
        <g transform="matrix(8.33333,0,0,8.33333,108209,10145.2)">
            <g transform="matrix(1.00242,0,0,1.00242,5.75351,-1.72257)">
                <text x="757.525px" y="510.928px" style="font-family:'Geometria-Bold', 'Geometria', sans-serif;font-weight:700;font-size:12.198px;fill:white;">7</text>
                <text x="764.442px" y="510.928px" style="font-family:'Geometria-Bold', 'Geometria', sans-serif;font-weight:700;font-size:12.198px;fill:white;">0</text>
                <text x="774.491px" y="510.928px" style="font-family:'Geometria-Bold', 'Geometria', sans-serif;font-weight:700;font-size:12.198px;fill:white;">,</text>
                <text x="778.307px" y="510.928px" style="font-family:'Geometria-Bold', 'Geometria', sans-serif;font-weight:700;font-size:12.198px;fill:white;">5</text>
            </g>
        </g>
        <g transform="matrix(8.33333,0,0,8.33333,108209,10145.2)">
            <g transform="matrix(1.00242,0,0,1.00242,5.75351,-1.72257)">
                <text x="810.306px" y="508.66px" style="font-family:'Geometria-Bold', 'Geometria', sans-serif;font-weight:700;font-size:12.198px;fill:white;">7</text>
                <text x="817.872px" y="508.66px" style="font-family:'Geometria-Bold', 'Geometria', sans-serif;font-weight:700;font-size:12.198px;fill:white;">1</text>
                <text x="821.08px" y="508.66px" style="font-family:'Geometria-Bold', 'Geometria', sans-serif;font-weight:700;font-size:12.198px;fill:white;">,</text>
                <text x="824.895px" y="508.66px" style="font-family:'Geometria-Bold', 'Geometria', sans-serif;font-weight:700;font-size:12.198px;fill:white;">5</text>
            </g>
        </g>
        <g transform="matrix(8.33333,0,0,8.33333,108209,10145.2)">
            <g transform="matrix(1.00242,0,0,1.00242,5.75351,-1.72257)">
                <text x="863.599px" y="507.525px" style="font-family:'Geometria-Bold', 'Geometria', sans-serif;font-weight:700;font-size:12.198px;fill:white;">7</text>
                <text x="870.766px" y="507.525px" style="font-family:'Geometria-Bold', 'Geometria', sans-serif;font-weight:700;font-size:12.198px;fill:white;">2<tspan x="878.216px " y="507.525px ">,</tspan></text>
                <text x="882.031px" y="507.525px" style="font-family:'Geometria-Bold', 'Geometria', sans-serif;font-weight:700;font-size:12.198px;fill:white;">1</text>
            </g>
        </g>
        <g transform="matrix(8.33333,0,0,8.33333,108209,10145.2)">
            <g transform="matrix(1.00242,0,0,1.00242,5.75351,-1.72257)">
                <text x="915.026px" y="496.193px" style="font-family:'Geometria-Bold', 'Geometria', sans-serif;font-weight:700;font-size:12.198px;fill:white;">7</text>
                <text x="921.492px" y="496.193px" style="font-family:'Geometria-Bold', 'Geometria', sans-serif;font-weight:700;font-size:12.198px;fill:white;">4</text>
                <text x="930.661px" y="496.193px" style="font-family:'Geometria-Bold', 'Geometria', sans-serif;font-weight:700;font-size:12.198px;fill:white;">,</text>
                <text x="934.477px" y="496.193px" style="font-family:'Geometria-Bold', 'Geometria', sans-serif;font-weight:700;font-size:12.198px;fill:white;">1</text>
            </g>
        </g>
        <g transform="matrix(8.33333,0,0,8.33333,108209,10145.2)">
            <g transform="matrix(1.00242,0,0,1.00242,5.75351,-1.72257)">
                <g opacity="0.199997">
                    <g transform="matrix(1,0,0,-1,0,1081.93)">
                        <rect x="603.769" y="279.995" width="24.667" height="216.149" style="fill:white;"/>
                    </g>
                </g>
            </g>
        </g>
        <g transform="matrix(8.33333,0,0,8.33333,108209,10145.2)">
            <g transform="matrix(1.00242,0,0,1.00242,5.75351,-1.72257)">
                <g opacity="0.199997">
                    <g transform="matrix(1,0,0,-1,0,1081.93)">
                        <rect x="655.703" y="279.995" width="24.668" height="235.855" style="fill:white;"/>
                    </g>
                </g>
            </g>
        </g>
        <g transform="matrix(8.33333,0,0,8.33333,108209,10145.2)">
            <g transform="matrix(1.00242,0,0,1.00242,5.75351,-1.72257)">
                <g opacity="0.199997">
                    <g transform="matrix(1,0,0,-1,0,1081.93)">
                        <rect x="707.639" y="279.996" width="24.666" height="258.666" style="fill:white;"/>
                    </g>
                </g>
            </g>
        </g>
        <g transform="matrix(8.33333,0,0,8.33333,108209,10145.2)">
            <g transform="matrix(1.00242,0,0,1.00242,5.75351,-1.72257)">
                <g opacity="0.199997">
                    <g transform="matrix(1,0,0,-1,2.27374e-13,1081.93)">
                        <rect x="759.574" y="279.995" width="24.668" height="266" style="fill:white;"/>
                    </g>
                </g>
            </g>
        </g>
        <g transform="matrix(8.33333,0,0,8.33333,108209,10145.2)">
            <g transform="matrix(1.00242,0,0,1.00242,5.75351,-1.72257)">
                <g opacity="0.199997">
                    <g transform="matrix(1,0,0,-1,0,1081.93)">
                        <rect x="811.51" y="279.995" width="24.666" height="270" style="fill:white;"/>
                    </g>
                </g>
            </g>
        </g>
        <g transform="matrix(8.33333,0,0,8.33333,108209,10145.2)">
            <g transform="matrix(1.00242,0,0,1.00242,5.75351,-1.72257)">
                <g opacity="0.199997">
                    <g transform="matrix(1,0,0,-1,0,1081.93)">
                        <rect x="863.444" y="279.996" width="24.667" height="272.666" style="fill:white;"/>
                    </g>
                </g>
            </g>
        </g>
        <g transform="matrix(8.33333,0,0,8.33333,108209,10145.2)">
            <g transform="matrix(1.00242,0,0,1.00242,5.75351,-1.72257)">
                <g opacity="0.199997">
                    <g transform="matrix(1,0,0,-1,2.27374e-13,1081.93)">
                        <rect x="915.38" y="279.995" width="24.667" height="280" style="fill:white;"/>
                    </g>
                </g>
            </g>
        </g>
        <g transform="matrix(8.33333,0,0,8.33333,108209,10145.2)">
            <g transform="matrix(1.00242,0,0,1.00242,-394.399,51.172)">
                <text x="810.291px" y="317.406px" style="font-family:'Geometria', sans-serif;font-size:12.1px;fill:white;">*Assets Under Management</text>
            </g>
        </g>
        <g transform="matrix(8.33333,0,0,8.33333,108209,10145.2)">
            <g transform="matrix(1.00242,0,0,1.00242,5.75351,-1.72257)">
                <text x="757.525px" y="823.771px" style="font-family:'Geometria', sans-serif;font-size:12.198px;fill:white;">2014</text>
            </g>
        </g>
        <g transform="matrix(8.33333,0,0,8.33333,108209,10145.2)">
            <g transform="matrix(1.00242,0,0,1.00242,5.75351,-1.72257)">
                <text x="810.306px" y="823.771px" style="font-family:'Geometria', sans-serif;font-size:12.198px;fill:white;">2015</text>
            </g>
        </g>
        <g transform="matrix(8.33333,0,0,8.33333,108209,10145.2)">
            <g transform="matrix(1.00242,0,0,1.00242,5.75351,-1.72257)">
                <text x="862.038px" y="823.771px" style="font-family:'Geometria', sans-serif;font-size:12.198px;fill:white;">2016</text>
            </g>
        </g>
        <g transform="matrix(8.33333,0,0,8.33333,108209,10145.2)">
            <g transform="matrix(1.00242,0,0,1.00242,5.75351,-1.72257)">
                <text x="914.404px" y="823.771px" style="font-family:'Geometria', sans-serif;font-size:12.198px;fill:white;">2017</text>
            </g>
        </g>
        <g transform="matrix(8.33333,0,0,8.33333,108209,10145.2)">
            <g transform="matrix(1.00242,0,0,1.00242,5.75351,-1.72257)">
                <text x="550.501px" y="637.507px" style="font-family:'Geometria-Bold', 'Geometria', sans-serif;font-weight:700;font-size:12.198px;fill:white;">3</text>
                <text x="557.839px" y="637.507px" style="font-family:'Geometria-Bold', 'Geometria', sans-serif;font-weight:700;font-size:12.198px;fill:white;">8</text>
                <text x="566.659px" y="637.507px" style="font-family:'Geometria-Bold', 'Geometria', sans-serif;font-weight:700;font-size:12.198px;fill:white;">,</text>
                <text x="570.525px" y="637.507px" style="font-family:'Geometria-Bold', 'Geometria', sans-serif;font-weight:700;font-size:12.198px;fill:white;">5</text>
            </g>
        </g>
        <g transform="matrix(8.33333,0,0,8.33333,108209,10145.2)">
            <g transform="matrix(1.00242,0,0,1.00242,5.75351,-1.72257)">
                <text x="547.622px" y="823.771px" style="font-family:'Geometria', sans-serif;font-size:12.198px;fill:white;">2008</text>
            </g>
        </g>
        <g transform="matrix(8.33333,0,0,8.33333,108209,10145.2)">
            <g transform="matrix(1.00242,0,0,1.00242,5.75351,-1.72257)">
                <text x="603.709px" y="823.771px" style="font-family:'Geometria', sans-serif;font-size:12.198px;fill:white;">2011</text>
            </g>
        </g>
        <g transform="matrix(8.33333,0,0,8.33333,108209,10145.2)">
            <g transform="matrix(1.00242,0,0,1.00242,5.75351,-1.72257)">
                <text x="654.306px" y="823.771px" style="font-family:'Geometria', sans-serif;font-size:12.198px;fill:white;">2012</text>
            </g>
        </g>
        <g transform="matrix(8.33333,0,0,8.33333,108209,10145.2)">
            <g transform="matrix(1.00242,0,0,1.00242,5.75351,-1.72257)">
                <text x="706.745px" y="823.771px" style="font-family:'Geometria', sans-serif;font-size:12.198px;fill:white;">2013</text>
            </g>
        </g>
        <g transform="matrix(8.33333,0,0,8.33333,108209,10145.2)">
            <g transform="matrix(1.00242,0,0,1.00242,5.75351,-1.72257)">
                <g opacity="0.199997">
                    <g transform="matrix(1,0,0,-1,0,1081.93)">
                        <rect x="551.833" y="279.995" width="24.667" height="146.624" style="fill:white;"/>
                    </g>
                </g>
            </g>
        </g>
        <g transform="matrix(8.35354,0,0,8.35354,108257,10130.9)">
            <text x="444.907px" y="823.783px" style="font-family:'Geometria', sans-serif;font-size:12.198px;fill:white;">2002</text>
        </g>
        <g transform="matrix(8.35354,0,0,8.35354,108257,10130.9)">
            <text x="446.92px" y="678.431px" style="font-family:'Geometria-Bold', 'Geometria', sans-serif;font-weight:700;font-size:12.198px;fill:white;">2</text>
            <text x="454.12px" y="678.431px" style="font-family:'Geometria-Bold', 'Geometria', sans-serif;font-weight:700;font-size:12.198px;fill:white;">6</text>
            <text x="462.803px" y="678.431px" style="font-family:'Geometria-Bold', 'Geometria', sans-serif;font-weight:700;font-size:12.198px;fill:white;">,</text>
            <text x="466.618px" y="678.431px" style="font-family:'Geometria-Bold', 'Geometria', sans-serif;font-weight:700;font-size:12.198px;fill:white;">7</text>
        </g>
        <g transform="matrix(8.35354,0,0,8.35354,108257,10130.9)">
            <text x="499.896px" y="603.731px" style="font-family:'Geometria-Bold', 'Geometria', sans-serif;font-weight:700;font-size:12.198px;fill:white;">4</text>
            <text x="508.815px" y="603.731px" style="font-family:'Geometria-Bold', 'Geometria', sans-serif;font-weight:700;font-size:12.198px;fill:white;">7</text>
            <text x="514.531px" y="603.731px" style="font-family:'Geometria-Bold', 'Geometria', sans-serif;font-weight:700;font-size:12.198px;fill:white;">,</text>
            <text x="518.346px" y="603.731px" style="font-family:'Geometria-Bold', 'Geometria', sans-serif;font-weight:700;font-size:12.198px;fill:white;">1</text>
        </g>
        <g transform="matrix(8.35354,0,0,8.35354,108257,10130.9)">
            <text x="496.147px" y="823.771px" style="font-family:'Geometria', sans-serif;font-size:12.198px;fill:white;">20</text>
            <text x="511.797px" y="823.771px" style="font-family:'Geometria', sans-serif;font-size:12.198px;fill:white;">0</text>
            <text x="520.333px" y="823.771px" style="font-family:'Geometria', sans-serif;font-size:12.198px;fill:white;">7</text>
        </g>
        <g transform="matrix(8.35354,0,0,8.35354,108257,10130.9)">
            <text x="410.651px" y="501.926px" style="font-family:'Geometria', sans-serif;font-size:12.198px;fill:white;">80</text>
            <text x="410.651px" y="539.923px" style="font-family:'Geometria', sans-serif;font-size:12.198px;fill:white;">7</text>
            <text x="417.238px" y="539.923px" style="font-family:'Geometria', sans-serif;font-size:12.198px;fill:white;">0</text>
            <text x="410.651px" y="577.92px" style="font-family:'Geometria', sans-serif;font-size:12.198px;fill:white;">60</text>
            <text x="410.651px" y="615.917px" style="font-family:'Geometria', sans-serif;font-size:12.198px;fill:white;">50</text>
            <text x="410.651px" y="653.913px" style="font-family:'Geometria', sans-serif;font-size:12.198px;fill:white;">40</text>
            <text x="410.651px" y="691.91px" style="font-family:'Geometria', sans-serif;font-size:12.198px;fill:white;">30</text>
            <text x="410.651px" y="729.907px" style="font-family:'Geometria', sans-serif;font-size:12.198px;fill:white;">20</text>
            <text x="410.651px" y="767.904px" style="font-family:'Geometria', sans-serif;font-size:12.198px;fill:white;">10</text>
            <text x="410.651px" y="805.9px" style="font-family:'Geometria', sans-serif;font-size:12.198px;fill:white;">0</text>
        </g>
        <g transform="matrix(8.35354,0,0,8.35354,108257,10130.9)">
            <g opacity="0.199997">
                <g transform="matrix(1,0,0,-1,0,1081.93)">
                    <rect x="447.963" y="279.996" width="24.667" height="102.343" style="fill:white;"/>
                </g>
            </g>
        </g>
        <g transform="matrix(8.35354,0,0,8.35354,108257,10130.9)">
            <g opacity="0.199997">
                <g transform="matrix(1,0,0,-1,0,1081.93)">
                    <rect x="499.898" y="279.995" width="24.667" height="179.109" style="fill:white;"/>
                </g>
            </g>
        </g>
        <g transform="matrix(8.35354,0,0,8.35354,104915,11399.8)">
            <text x="810.291px" y="317.406px" style="font-family:'Geometria-Bold', 'Geometria', sans-serif;font-weight:700;font-size:12.2px;fill:white;">$ <tspan x="820.478px " y="317.406px ">T</tspan>N</text>
        </g>
    </g>
</svg>
