<?xml version="1.0" encoding="UTF-8" standalone="no"?>
<!DOCTYPE svg PUBLIC "-//W3C//DTD SVG 1.1//EN" "http://www.w3.org/Graphics/SVG/1.1/DTD/svg11.dtd">
<svg width="100%" height="100%" viewBox="0 0 149 131" version="1.1" xmlns="http://www.w3.org/2000/svg" xmlns:xlink="http://www.w3.org/1999/xlink" xml:space="preserve" xmlns:serif="http://www.serif.com/" style="fill-rule:evenodd;clip-rule:evenodd;stroke-linejoin:round;stroke-miterlimit:1.41421;">
    <g transform="matrix(1,0,0,1,-3034.79,-2192.88)">
        <g transform="matrix(4.16667,0,0,4.16667,0,0)">
            <g transform="matrix(1,0,0,1,762.776,527.799)">
                <path d="M0,28.261L-9.68,23.419L-0.884,8.269L-0.884,8.267L0,6.741L0,28.261ZM-17.763,11.32L-10.287,-0.186L-0.227,4.843L-2.062,7.999L-2.062,8.003L-10.512,22.556L-17.763,11.32ZM-22.205,17.156L-22.205,6.558L-12.113,22.202L-22.205,17.156ZM-23.36,28.261L-33.271,23.304L-33.271,8.466L-33.271,7.06L-33.271,0.001L-23.36,4.958L-23.36,28.261ZM1.153,4.575C1.143,4.368 1.024,4.177 0.837,4.087L-10.229,-1.446C-10.493,-1.579 -10.812,-1.493 -10.972,-1.245L-18.447,10.257L-22.299,4.288C-22.355,4.202 -22.435,4.132 -22.525,4.087L-33.591,-1.446C-33.968,-1.635 -34.426,-1.352 -34.426,-0.932L-34.426,23.659C-34.426,23.878 -34.303,24.077 -34.107,24.173L-23.042,29.708C-22.663,29.896 -22.205,29.613 -22.205,29.193L-22.205,18.443L0.321,29.708C0.697,29.896 1.155,29.613 1.155,29.193L1.155,4.601C1.155,4.591 1.153,4.583 1.153,4.575" style="fill:white;fill-rule:nonzero;"/>
            </g>
        </g>
    </g>
</svg>
