<svg xmlns="http://www.w3.org/2000/svg" xmlns:xlink="http://www.w3.org/1999/xlink" viewBox="0 0 189.6 189.6"><defs><style>.cls-1{mask:url(#mask);filter:url(#luminosity-noclip-4);}.cls-2,.cls-4,.cls-6{mix-blend-mode:multiply;}.cls-2{fill:url(#radial-gradient);}.cls-3{mask:url(#mask-2);filter:url(#luminosity-noclip-5);}.cls-4{fill:url(#radial-gradient-2);}.cls-5{mask:url(#mask-3);filter:url(#luminosity-noclip-6);}.cls-6{fill:url(#radial-gradient-3);}.cls-7{isolation:isolate;}.cls-8{mask:url(#mask-4);}.cls-9{opacity:0.4;fill:url(#Безымянный_градиент_6);}.cls-11,.cls-13,.cls-9{mix-blend-mode:screen;}.cls-10{mask:url(#mask-5);}.cls-11{opacity:0.72;fill:url(#Безымянный_градиент_6-2);}.cls-12{mask:url(#mask-6);}.cls-13{fill:url(#Безымянный_градиент_6-3);}.cls-14{fill:#fff;}.cls-15{filter:url(#luminosity-noclip-3);}.cls-16{filter:url(#luminosity-noclip-2);}.cls-17{filter:url(#luminosity-noclip);}</style><filter id="luminosity-noclip" x="0" y="-8485.01" width="189.6" height="32766" filterUnits="userSpaceOnUse" color-interpolation-filters="sRGB"><feFlood flood-color="#fff" result="bg"/><feBlend in="SourceGraphic" in2="bg"/></filter><mask id="mask" x="0" y="-8485.01" width="189.6" height="32766" maskUnits="userSpaceOnUse"><g class="cls-17"/></mask><radialGradient id="radial-gradient" cx="94.8" cy="94.8" r="94.8" gradientTransform="translate(180.71 -8.13) rotate(84.85)" gradientUnits="userSpaceOnUse"><stop offset="0"/><stop offset="0.67" stop-color="#aeaeae"/><stop offset="1" stop-color="#fff"/></radialGradient><filter id="luminosity-noclip-2" x="26.98" y="-8485.01" width="135.64" height="32766" filterUnits="userSpaceOnUse" color-interpolation-filters="sRGB"><feFlood flood-color="#fff" result="bg"/><feBlend in="SourceGraphic" in2="bg"/></filter><mask id="mask-2" x="26.98" y="-8485.01" width="135.64" height="32766" maskUnits="userSpaceOnUse"><g class="cls-16"/></mask><radialGradient id="radial-gradient-2" cx="94.8" cy="94.8" r="67.82" gradientTransform="matrix(1, 0, 0, 1, 0, 0)" xlink:href="#radial-gradient"/><filter id="luminosity-noclip-3" x="44.52" y="-8485.01" width="100.56" height="32766" filterUnits="userSpaceOnUse" color-interpolation-filters="sRGB"><feFlood flood-color="#fff" result="bg"/><feBlend in="SourceGraphic" in2="bg"/></filter><mask id="mask-3" x="44.52" y="-8485.01" width="100.56" height="32766" maskUnits="userSpaceOnUse"><g class="cls-15"/></mask><radialGradient id="radial-gradient-3" cx="94.8" cy="94.8" r="50.28" gradientTransform="matrix(1, 0, 0, 1, 0, 0)" xlink:href="#radial-gradient"/><filter id="luminosity-noclip-4" x="0" y="0" width="189.6" height="189.6" filterUnits="userSpaceOnUse" color-interpolation-filters="sRGB"><feFlood flood-color="#fff" result="bg"/><feBlend in="SourceGraphic" in2="bg"/></filter><mask id="mask-4" x="0" y="0" width="189.6" height="189.6" maskUnits="userSpaceOnUse"><g class="cls-1"><circle class="cls-2" cx="94.8" cy="94.8" r="94.8" transform="matrix(0.09, -1, 1, 0.09, -8.13, 180.71)"/></g></mask><radialGradient id="Безымянный_градиент_6" cx="94.8" cy="94.8" r="94.8" gradientTransform="translate(180.71 -8.13) rotate(84.85)" gradientUnits="userSpaceOnUse"><stop offset="0" stop-color="#fff"/><stop offset="0.67" stop-color="#fff" stop-opacity="0.32"/><stop offset="1" stop-color="#fff" stop-opacity="0"/></radialGradient><filter id="luminosity-noclip-5" x="26.98" y="26.98" width="135.64" height="135.64" filterUnits="userSpaceOnUse" color-interpolation-filters="sRGB"><feFlood flood-color="#fff" result="bg"/><feBlend in="SourceGraphic" in2="bg"/></filter><mask id="mask-5" x="26.98" y="26.98" width="135.64" height="135.64" maskUnits="userSpaceOnUse"><g class="cls-3"><path class="cls-4" d="M162.62,94.8A67.82,67.82,0,1,1,94.8,27,67.81,67.81,0,0,1,162.62,94.8Z"/></g></mask><radialGradient id="Безымянный_градиент_6-2" cx="94.8" cy="94.8" r="67.82" gradientTransform="matrix(1, 0, 0, 1, 0, 0)" xlink:href="#Безымянный_градиент_6"/><filter id="luminosity-noclip-6" x="44.52" y="44.52" width="100.56" height="100.56" filterUnits="userSpaceOnUse" color-interpolation-filters="sRGB"><feFlood flood-color="#fff" result="bg"/><feBlend in="SourceGraphic" in2="bg"/></filter><mask id="mask-6" x="44.52" y="44.52" width="100.56" height="100.56" maskUnits="userSpaceOnUse"><g class="cls-5"><path class="cls-6" d="M145.08,94.8A50.28,50.28,0,1,1,94.8,44.52,50.28,50.28,0,0,1,145.08,94.8Z"/></g></mask><radialGradient id="Безымянный_градиент_6-3" cx="94.8" cy="94.8" r="50.28" gradientTransform="matrix(1, 0, 0, 1, 0, 0)" xlink:href="#Безымянный_градиент_6"/></defs><title>moon</title><g class="cls-7"><g id="Слой_2" data-name="Слой 2"><g id="Layer_1" data-name="Layer 1"><g class="cls-8"><circle class="cls-9" cx="94.8" cy="94.8" r="94.8" transform="matrix(0.09, -1, 1, 0.09, -8.13, 180.71)"/></g><g class="cls-10"><path class="cls-11" d="M162.62,94.8A67.82,67.82,0,1,1,94.8,27,67.81,67.81,0,0,1,162.62,94.8Z"/></g><g class="cls-12"><path class="cls-13" d="M145.08,94.8A50.28,50.28,0,1,1,94.8,44.52,50.28,50.28,0,0,1,145.08,94.8Z"/></g><circle class="cls-14" cx="94.8" cy="94.8" r="33.01"/></g></g></g></svg>