<?xml version="1.0" encoding="utf-8"?>
<!-- Generator: Adobe Illustrator 22.0.0, SVG Export Plug-In . SVG Version: 6.00 Build 0)  -->
<svg version="1.1" id="Слой_1" xmlns="http://www.w3.org/2000/svg" xmlns:xlink="http://www.w3.org/1999/xlink" x="0px" y="0px"
	 viewBox="0 0 579 413" style="enable-background:new 0 0 579 413;" xml:space="preserve">
<style type="text/css">
	.st0{clip-path:url(#SVGID_2_);}
	.st1{fill:#45019D;}
	.st2{clip-path:url(#SVGID_4_);}
	.st3{fill:#4EFFD7;}
	.st4{clip-path:url(#SVGID_6_);}
	.st5{fill:url(#SVGID_7_);}
	.st6{clip-path:url(#SVGID_9_);}
	.st7{fill:url(#SVGID_10_);}
	.st8{clip-path:url(#SVGID_12_);}
	.st9{fill:url(#SVGID_13_);}
	.st10{clip-path:url(#SVGID_15_);}
	.st11{fill:#B5C9AA;}
	.st12{clip-path:url(#SVGID_17_);}
	.st13{fill:url(#SVGID_18_);}
	.st14{clip-path:url(#SVGID_20_);}
	.st15{fill:#D7F6A6;}
	.st16{clip-path:url(#SVGID_22_);}
	.st17{enable-background:new    ;}
	.st18{fill:#FFFFFF;}
	.st19{clip-path:url(#SVGID_24_);}
	.st20{clip-path:url(#SVGID_26_);}
	.st21{clip-path:url(#SVGID_28_);}
	.st22{clip-path:url(#SVGID_30_);}
	.st23{clip-path:url(#SVGID_32_);}
	.st24{clip-path:url(#SVGID_34_);}
	.st25{clip-path:url(#SVGID_36_);}
	.st26{clip-path:url(#SVGID_38_);}
	.st27{clip-path:url(#SVGID_40_);}
	.st28{clip-path:url(#SVGID_42_);}
	.st29{clip-path:url(#SVGID_44_);}
	.st30{clip-path:url(#SVGID_46_);}
	.st31{clip-path:url(#SVGID_48_);}
	.st32{clip-path:url(#SVGID_50_);}
	.st33{clip-path:url(#SVGID_52_);}
	.st34{fill:#4FFFD7;}
	.st35{clip-path:url(#SVGID_54_);}
	.st36{fill:#D6F6A7;}
	.st37{clip-path:url(#SVGID_56_);}
	.st38{fill:#ABC9B3;}
	.st39{clip-path:url(#SVGID_58_);}
	.st40{fill:#D7C390;}
	.st41{clip-path:url(#SVGID_60_);}
	.st42{fill:#94CDF6;}
	.st43{clip-path:url(#SVGID_62_);}
	.st44{fill:#48A2E2;}
	.st45{clip-path:url(#SVGID_64_);}
	.st46{fill:#3A4EA9;}
	.st47{fill:#00DBA1;}
</style>
<g>
	<g>
		<g>
			<defs>
				<rect id="SVGID_1_" x="-698" y="-7828" width="1380" height="16000"/>
			</defs>
			<clipPath id="SVGID_2_">
				<use xlink:href="#SVGID_1_"  style="overflow:visible;"/>
			</clipPath>
			<g class="st0">
				<path class="st1" d="M435,342h72v37h-72V342z"/>
			</g>
		</g>
	</g>
</g>
<g>
	<g>
		<g>
			<defs>
				<rect id="SVGID_3_" x="-698" y="-7828" width="1380" height="16000"/>
			</defs>
			<clipPath id="SVGID_4_">
				<use xlink:href="#SVGID_3_"  style="overflow:visible;"/>
			</clipPath>
			<g class="st2">
				<path class="st3" d="M506,28h-72v2h72V28z M578,339h-72v2h72V339z"/>
			</g>
		</g>
	</g>
</g>
<g>
	<g>
		<g>
			<defs>
				<rect id="SVGID_5_" x="-698" y="-7828" width="1380" height="16000"/>
			</defs>
			<clipPath id="SVGID_6_">
				<use xlink:href="#SVGID_5_"  style="overflow:visible;"/>
			</clipPath>
			<g class="st4">
				
					<linearGradient id="SVGID_7_" gradientUnits="userSpaceOnUse" x1="139.4945" y1="-1946.259" x2="429.3156" y2="-1716.0894" gradientTransform="matrix(1 0 0 -1 146 -1513)">
					<stop  offset="0" style="stop-color:#4678B9"/>
					<stop  offset="1" style="stop-color:#49AEEF"/>
				</linearGradient>
				<path class="st5" d="M506,159h-72v110h72V159z M362,351h72v13h-72V351z M290,366h72v-2h-72v-4h-72v9h72V366z M506,355h72v13h-72
					V355z M218,377h-72v2h72V377z"/>
			</g>
		</g>
	</g>
</g>
<g>
	<g>
		<g>
			<defs>
				<rect id="SVGID_8_" x="-698" y="-7828" width="1380" height="16000"/>
			</defs>
			<clipPath id="SVGID_9_">
				<use xlink:href="#SVGID_8_"  style="overflow:visible;"/>
			</clipPath>
			<g class="st6">
				
					<linearGradient id="SVGID_10_" gradientUnits="userSpaceOnUse" x1="-129.6593" y1="-2022.329" x2="326.6196" y2="-1714.329" gradientTransform="matrix(1 0 0 -1 290 -1551)">
					<stop  offset="0" style="stop-color:#3022AD"/>
					<stop  offset="0.4752" style="stop-color:#52A0FD"/>
					<stop  offset="1" style="stop-color:#B1E1F2"/>
				</linearGradient>
				<path class="st7" d="M506,121h-72v38h72V121z M434,348h-72v3h72V348z M506,351h72v4h-72V351z M362,362h-72v2h72V362z"/>
			</g>
		</g>
	</g>
</g>
<g>
	<g>
		<g>
			<defs>
				<rect id="SVGID_11_" x="-698" y="-7828" width="1380" height="16000"/>
			</defs>
			<clipPath id="SVGID_12_">
				<use xlink:href="#SVGID_11_"  style="overflow:visible;"/>
			</clipPath>
			<g class="st8">
				
					<linearGradient id="SVGID_13_" gradientUnits="userSpaceOnUse" x1="388.6215" y1="-1791.3771" x2="-175.6543" y2="-1873.381" gradientTransform="matrix(1 0 0 -1 218 -1589)">
					<stop  offset="0" style="stop-color:#EFE5A5"/>
					<stop  offset="1" style="stop-color:#8A584A"/>
				</linearGradient>
				<path class="st9" d="M434,83h72v38h-72V83z M578,344h-72v7h72V344z M362,345h72v3h-72V345z M218,354h72v6h-72V354z M290,360v2
					h72v-2H290z"/>
			</g>
		</g>
	</g>
</g>
<g>
	<g>
		<g>
			<defs>
				<rect id="SVGID_14_" x="-698" y="-7828" width="1380" height="16000"/>
			</defs>
			<clipPath id="SVGID_15_">
				<use xlink:href="#SVGID_14_"  style="overflow:visible;"/>
			</clipPath>
			<g class="st10">
				<path class="st11" d="M434,47h72v36h-72V47z M578,341h-72v3h72V341z M362,342h72v3h-72V342z"/>
			</g>
		</g>
	</g>
</g>
<g>
	<g>
		<g>
			<defs>
				<rect id="SVGID_16_" x="-698" y="-7828" width="1380" height="16000"/>
			</defs>
			<clipPath id="SVGID_17_">
				<use xlink:href="#SVGID_16_"  style="overflow:visible;"/>
			</clipPath>
			<g class="st12">
				
					<linearGradient id="SVGID_18_" gradientUnits="userSpaceOnUse" x1="572.4166" y1="-1985.855" x2="308.8575" y2="-1773.092" gradientTransform="matrix(1 0 0 -1 0 -1403)">
					<stop  offset="0" style="stop-color:#2A015E"/>
					<stop  offset="1" style="stop-color:#4068C2"/>
				</linearGradient>
				<path class="st13" d="M434,269h72v99h72v13H146v-2h72v-10h72v-3h72v-2h72V269z M0,379h72v2H0V379z"/>
			</g>
		</g>
	</g>
</g>
<g>
	<g>
		<g>
			<defs>
				<rect id="SVGID_19_" x="-698" y="-7828" width="1380" height="16000"/>
			</defs>
			<clipPath id="SVGID_20_">
				<use xlink:href="#SVGID_19_"  style="overflow:visible;"/>
			</clipPath>
			<g class="st14">
				<path class="st15" d="M434,30h72v17h-72V30z"/>
			</g>
		</g>
	</g>
</g>
<g>
	<g>
		<g>
			<defs>
				<rect id="SVGID_21_" x="-698" y="-7828" width="1380" height="16000"/>
			</defs>
			<clipPath id="SVGID_22_">
				<use xlink:href="#SVGID_21_"  style="overflow:visible;"/>
			</clipPath>
			<g class="st16">
				<g class="st17">
					<path class="st18" d="M161.6,408H155v-1l2.6-2.6c0.8-0.8,1.3-1.4,1.6-1.7s0.4-0.7,0.6-1s0.2-0.7,0.2-1.1c0-0.5-0.2-1-0.5-1.3
						c-0.3-0.3-0.8-0.5-1.3-0.5c-0.4,0-0.8,0.1-1.2,0.2s-0.8,0.4-1.2,0.7l-0.6-0.8c0.9-0.8,1.9-1.1,3-1.1c0.9,0,1.7,0.2,2.2,0.7
						c0.5,0.5,0.8,1.1,0.8,1.9c0,0.6-0.2,1.3-0.5,1.9s-1,1.4-2,2.4l-2.2,2.1v0.1h5.1V408z"/>
					<path class="st18" d="M169.6,403c0,1.7-0.3,3-0.8,3.9s-1.4,1.3-2.5,1.3c-1.1,0-1.9-0.4-2.5-1.3c-0.6-0.9-0.8-2.2-0.8-3.8
						c0-1.7,0.3-3,0.8-3.9s1.4-1.3,2.5-1.3c1.1,0,1.9,0.4,2.5,1.3S169.6,401.3,169.6,403z M164.2,403c0,1.5,0.2,2.5,0.5,3.2
						c0.3,0.7,0.9,1,1.6,1c0.8,0,1.3-0.3,1.6-1c0.3-0.7,0.5-1.7,0.5-3.2s-0.2-2.5-0.5-3.2c-0.3-0.7-0.9-1-1.6-1
						c-0.7,0-1.3,0.3-1.6,1C164.3,400.5,164.2,401.5,164.2,403z"/>
					<path class="st18" d="M175.2,408h-1.1v-7.1c0-0.6,0-1.2,0.1-1.7c-0.1,0.1-0.2,0.2-0.3,0.3s-0.7,0.5-1.6,1.3l-0.6-0.8l2.6-2h1
						V408z"/>
					<path class="st18" d="M185.2,400.4c0,0.6-0.2,1.2-0.5,1.6s-0.9,0.7-1.5,0.8v0.1c0.8,0.1,1.4,0.4,1.8,0.8s0.6,0.9,0.6,1.6
						c0,1-0.3,1.7-1,2.2c-0.7,0.5-1.6,0.8-2.8,0.8c-0.5,0-1,0-1.5-0.1c-0.4-0.1-0.9-0.2-1.3-0.4v-1.1c0.4,0.2,0.9,0.4,1.4,0.5
						c0.5,0.1,1,0.2,1.4,0.2c1.7,0,2.6-0.7,2.6-2c0-1.2-1-1.8-2.9-1.8h-1v-1h1c0.8,0,1.4-0.2,1.9-0.5c0.5-0.3,0.7-0.8,0.7-1.4
						c0-0.5-0.2-0.9-0.5-1.1s-0.8-0.4-1.4-0.4c-0.4,0-0.9,0.1-1.2,0.2s-0.8,0.3-1.3,0.7l-0.6-0.8c0.4-0.3,0.9-0.6,1.4-0.8
						c0.5-0.2,1.1-0.3,1.7-0.3c1,0,1.7,0.2,2.3,0.7C184.9,399,185.2,399.6,185.2,400.4z"/>
				</g>
			</g>
		</g>
	</g>
</g>
<g>
	<g>
		<g>
			<defs>
				<rect id="SVGID_23_" x="-698" y="-7828" width="1380" height="16000"/>
			</defs>
			<clipPath id="SVGID_24_">
				<use xlink:href="#SVGID_23_"  style="overflow:visible;"/>
			</clipPath>
			<g class="st19">
				<g class="st17">
					<path class="st18" d="M97.5,408H91v-1l2.6-2.6c0.8-0.8,1.3-1.4,1.6-1.7s0.4-0.7,0.6-1s0.2-0.7,0.2-1.1c0-0.5-0.2-1-0.5-1.3
						c-0.3-0.3-0.8-0.5-1.3-0.5c-0.4,0-0.8,0.1-1.2,0.2s-0.8,0.4-1.2,0.7l-0.6-0.8c0.9-0.8,1.9-1.1,3-1.1c0.9,0,1.7,0.2,2.2,0.7
						c0.5,0.5,0.8,1.1,0.8,1.9c0,0.6-0.2,1.3-0.5,1.9s-1,1.4-2,2.4l-2.2,2.1v0.1h5.1V408z"/>
					<path class="st18" d="M105.6,403c0,1.7-0.3,3-0.8,3.9s-1.4,1.3-2.5,1.3c-1.1,0-1.9-0.4-2.5-1.3c-0.6-0.9-0.8-2.2-0.8-3.8
						c0-1.7,0.3-3,0.8-3.9s1.4-1.3,2.5-1.3c1.1,0,1.9,0.4,2.5,1.3S105.6,401.3,105.6,403z M100.1,403c0,1.5,0.2,2.5,0.5,3.2
						c0.3,0.7,0.9,1,1.6,1c0.8,0,1.3-0.3,1.6-1c0.3-0.7,0.5-1.7,0.5-3.2s-0.2-2.5-0.5-3.2c-0.3-0.7-0.9-1-1.6-1
						c-0.7,0-1.3,0.3-1.6,1C100.3,400.5,100.1,401.5,100.1,403z"/>
					<path class="st18" d="M111.2,408h-1.1v-7.1c0-0.6,0-1.2,0.1-1.7c-0.1,0.1-0.2,0.2-0.3,0.3s-0.7,0.5-1.6,1.3l-0.6-0.8l2.6-2h1
						V408z"/>
					<path class="st18" d="M121.5,408H115v-1l2.6-2.6c0.8-0.8,1.3-1.4,1.6-1.7s0.4-0.7,0.6-1s0.2-0.7,0.2-1.1c0-0.5-0.2-1-0.5-1.3
						c-0.3-0.3-0.8-0.5-1.3-0.5c-0.4,0-0.8,0.1-1.2,0.2s-0.8,0.4-1.2,0.7l-0.6-0.8c0.9-0.8,1.9-1.1,3-1.1c0.9,0,1.7,0.2,2.2,0.7
						c0.5,0.5,0.8,1.1,0.8,1.9c0,0.6-0.2,1.3-0.5,1.9s-1,1.4-2,2.4l-2.2,2.1v0.1h5.1V408z"/>
				</g>
			</g>
		</g>
	</g>
</g>
<g>
	<g>
		<g>
			<defs>
				<rect id="SVGID_25_" x="-698" y="-7828" width="1380" height="16000"/>
			</defs>
			<clipPath id="SVGID_26_">
				<use xlink:href="#SVGID_25_"  style="overflow:visible;"/>
			</clipPath>
			<g class="st20">
				<g class="st17">
					<path class="st18" d="M23.4,408h-6.6v-1l2.6-2.6c0.8-0.8,1.3-1.4,1.6-1.7s0.4-0.7,0.6-1s0.2-0.7,0.2-1.1c0-0.5-0.2-1-0.5-1.3
						c-0.3-0.3-0.8-0.5-1.3-0.5c-0.4,0-0.8,0.1-1.2,0.2s-0.8,0.4-1.2,0.7l-0.6-0.8c0.9-0.8,1.9-1.1,3-1.1c0.9,0,1.7,0.2,2.2,0.7
						c0.5,0.5,0.8,1.1,0.8,1.9c0,0.6-0.2,1.3-0.5,1.9s-1,1.4-2,2.4l-2.2,2.1v0.1h5.1V408z"/>
					<path class="st18" d="M31.4,403c0,1.7-0.3,3-0.8,3.9s-1.4,1.3-2.5,1.3c-1.1,0-1.9-0.4-2.5-1.3c-0.6-0.9-0.8-2.2-0.8-3.8
						c0-1.7,0.3-3,0.8-3.9s1.4-1.3,2.5-1.3c1.1,0,1.9,0.4,2.5,1.3S31.4,401.3,31.4,403z M26,403c0,1.5,0.2,2.5,0.5,3.2
						c0.3,0.7,0.9,1,1.6,1c0.8,0,1.3-0.3,1.6-1c0.3-0.7,0.5-1.7,0.5-3.2s-0.2-2.5-0.5-3.2c-0.3-0.7-0.9-1-1.6-1
						c-0.7,0-1.3,0.3-1.6,1C26.1,400.5,26,401.5,26,403z"/>
					<path class="st18" d="M37,408h-1.1v-7.1c0-0.6,0-1.2,0.1-1.7c-0.1,0.1-0.2,0.2-0.3,0.3S35,400,34,400.8l-0.6-0.8l2.6-2h1V408z"
						/>
					<path class="st18" d="M45,408h-1.1v-7.1c0-0.6,0-1.2,0.1-1.7c-0.1,0.1-0.2,0.2-0.3,0.3S43,400,42,400.8l-0.6-0.8l2.6-2h1V408z"
						/>
				</g>
			</g>
		</g>
	</g>
</g>
<g>
	<g>
		<g>
			<defs>
				<rect id="SVGID_27_" x="-698" y="-7828" width="1380" height="16000"/>
			</defs>
			<clipPath id="SVGID_28_">
				<use xlink:href="#SVGID_27_"  style="overflow:visible;"/>
			</clipPath>
			<g class="st21">
				<g class="st17">
					<path class="st18" d="M235.7,408h-6.6v-1l2.6-2.6c0.8-0.8,1.3-1.4,1.6-1.7s0.4-0.7,0.6-1s0.2-0.7,0.2-1.1c0-0.5-0.2-1-0.5-1.3
						c-0.3-0.3-0.8-0.5-1.3-0.5c-0.4,0-0.8,0.1-1.2,0.2s-0.8,0.4-1.2,0.7l-0.6-0.8c0.9-0.8,1.9-1.1,3-1.1c0.9,0,1.7,0.2,2.2,0.7
						c0.5,0.5,0.8,1.1,0.8,1.9c0,0.6-0.2,1.3-0.5,1.9s-1,1.4-2,2.4l-2.2,2.1v0.1h5.1V408z"/>
					<path class="st18" d="M243.8,403c0,1.7-0.3,3-0.8,3.9s-1.4,1.3-2.5,1.3c-1.1,0-1.9-0.4-2.5-1.3c-0.6-0.9-0.8-2.2-0.8-3.8
						c0-1.7,0.3-3,0.8-3.9s1.4-1.3,2.5-1.3c1.1,0,1.9,0.4,2.5,1.3S243.8,401.3,243.8,403z M238.3,403c0,1.5,0.2,2.5,0.5,3.2
						c0.3,0.7,0.9,1,1.6,1c0.8,0,1.3-0.3,1.6-1c0.3-0.7,0.5-1.7,0.5-3.2s-0.2-2.5-0.5-3.2c-0.3-0.7-0.9-1-1.6-1
						c-0.7,0-1.3,0.3-1.6,1C238.5,400.5,238.3,401.5,238.3,403z"/>
					<path class="st18" d="M249.4,408h-1.1v-7.1c0-0.6,0-1.2,0.1-1.7c-0.1,0.1-0.2,0.2-0.3,0.3s-0.7,0.5-1.6,1.3l-0.6-0.8l2.6-2h1
						V408z"/>
					<path class="st18" d="M260.2,405.7h-1.5v2.3h-1.1v-2.3h-4.9v-1l4.7-6.8h1.2v6.7h1.5V405.7z M257.7,404.7v-3.3
						c0-0.7,0-1.4,0.1-2.2h-0.1c-0.2,0.4-0.4,0.8-0.6,1.1l-3.1,4.4H257.7z"/>
				</g>
			</g>
		</g>
	</g>
</g>
<g>
	<g>
		<g>
			<defs>
				<rect id="SVGID_29_" x="-698" y="-7828" width="1380" height="16000"/>
			</defs>
			<clipPath id="SVGID_30_">
				<use xlink:href="#SVGID_29_"  style="overflow:visible;"/>
			</clipPath>
			<g class="st22">
				<g class="st17">
					<path class="st18" d="M312.4,408h-6.6v-1l2.6-2.6c0.8-0.8,1.3-1.4,1.6-1.7c0.3-0.3,0.4-0.7,0.6-1c0.1-0.3,0.2-0.7,0.2-1.1
						c0-0.5-0.2-1-0.5-1.3c-0.3-0.3-0.8-0.5-1.3-0.5c-0.4,0-0.8,0.1-1.2,0.2c-0.4,0.1-0.8,0.4-1.2,0.7L306,399
						c0.9-0.8,1.9-1.1,3-1.1c0.9,0,1.7,0.2,2.2,0.7c0.5,0.5,0.8,1.1,0.8,1.9c0,0.6-0.2,1.3-0.5,1.9s-1,1.4-2,2.4l-2.2,2.1v0.1h5.1
						V408z"/>
					<path class="st18" d="M320.5,403c0,1.7-0.3,3-0.8,3.9c-0.5,0.9-1.4,1.3-2.5,1.3c-1.1,0-1.9-0.4-2.5-1.3
						c-0.6-0.9-0.8-2.2-0.8-3.8c0-1.7,0.3-3,0.8-3.9c0.5-0.8,1.4-1.3,2.5-1.3c1.1,0,1.9,0.4,2.5,1.3
						C320.2,400,320.5,401.3,320.5,403z M315,403c0,1.5,0.2,2.5,0.5,3.2c0.3,0.7,0.9,1,1.6,1c0.8,0,1.3-0.3,1.6-1
						c0.3-0.7,0.5-1.7,0.5-3.2s-0.2-2.5-0.5-3.2c-0.3-0.7-0.9-1-1.6-1c-0.7,0-1.3,0.3-1.6,1C315.2,400.5,315,401.5,315,403z"/>
					<path class="st18" d="M326.1,408H325v-7.1c0-0.6,0-1.2,0.1-1.7c-0.1,0.1-0.2,0.2-0.3,0.3c-0.1,0.1-0.7,0.5-1.6,1.3l-0.6-0.8
						l2.6-2h1V408z"/>
					<path class="st18" d="M333,401.9c1.1,0,1.9,0.3,2.5,0.8c0.6,0.5,0.9,1.2,0.9,2.1c0,1-0.3,1.8-1,2.4c-0.7,0.6-1.6,0.9-2.7,0.9
						c-1.1,0-2-0.2-2.6-0.5v-1.1c0.3,0.2,0.7,0.4,1.2,0.5c0.5,0.1,0.9,0.2,1.4,0.2c0.8,0,1.4-0.2,1.9-0.6s0.7-0.9,0.7-1.6
						c0-1.4-0.9-2.1-2.6-2.1c-0.4,0-1,0.1-1.7,0.2l-0.6-0.4l0.4-4.7h5v1h-4l-0.3,3C332,401.9,332.5,401.9,333,401.9z"/>
				</g>
			</g>
		</g>
	</g>
</g>
<g>
	<g>
		<g>
			<defs>
				<rect id="SVGID_31_" x="-698" y="-7828" width="1380" height="16000"/>
			</defs>
			<clipPath id="SVGID_32_">
				<use xlink:href="#SVGID_31_"  style="overflow:visible;"/>
			</clipPath>
			<g class="st23">
				<g class="st17">
					<path class="st18" d="M389.1,408h-6.6v-1l2.6-2.6c0.8-0.8,1.3-1.4,1.6-1.7s0.4-0.7,0.6-1s0.2-0.7,0.2-1.1c0-0.5-0.2-1-0.5-1.3
						c-0.3-0.3-0.8-0.5-1.3-0.5c-0.4,0-0.8,0.1-1.2,0.2c-0.4,0.1-0.8,0.4-1.2,0.7l-0.6-0.8c0.9-0.8,1.9-1.1,3-1.1
						c0.9,0,1.7,0.2,2.2,0.7c0.5,0.5,0.8,1.1,0.8,1.9c0,0.6-0.2,1.3-0.5,1.9s-1,1.4-2,2.4l-2.2,2.1v0.1h5.1V408z"/>
					<path class="st18" d="M397.2,403c0,1.7-0.3,3-0.8,3.9c-0.5,0.9-1.4,1.3-2.5,1.3c-1.1,0-1.9-0.4-2.5-1.3
						c-0.6-0.9-0.8-2.2-0.8-3.8c0-1.7,0.3-3,0.8-3.9s1.4-1.3,2.5-1.3c1.1,0,1.9,0.4,2.5,1.3C396.9,400,397.2,401.3,397.2,403z
						 M391.7,403c0,1.5,0.2,2.5,0.5,3.2c0.3,0.7,0.9,1,1.6,1c0.8,0,1.3-0.3,1.6-1c0.3-0.7,0.5-1.7,0.5-3.2s-0.2-2.5-0.5-3.2
						c-0.3-0.7-0.9-1-1.6-1c-0.7,0-1.3,0.3-1.6,1C391.9,400.5,391.7,401.5,391.7,403z"/>
					<path class="st18" d="M402.8,408h-1.1v-7.1c0-0.6,0-1.2,0.1-1.7c-0.1,0.1-0.2,0.2-0.3,0.3s-0.7,0.5-1.6,1.3l-0.6-0.8l2.6-2h1
						V408z"/>
					<path class="st18" d="M406.7,403.7c0-2,0.4-3.4,1.1-4.4c0.8-1,1.9-1.5,3.4-1.5c0.5,0,0.9,0,1.2,0.1v1c-0.4-0.1-0.8-0.2-1.2-0.2
						c-1.1,0-1.9,0.3-2.5,1c-0.6,0.7-0.9,1.7-0.9,3.1h0.1c0.5-0.8,1.3-1.2,2.4-1.2c0.9,0,1.6,0.3,2.1,0.8c0.5,0.5,0.8,1.3,0.8,2.2
						c0,1-0.3,1.9-0.9,2.5c-0.6,0.6-1.3,0.9-2.3,0.9c-1,0-1.9-0.4-2.5-1.2C407,406.2,406.7,405.1,406.7,403.7z M410,407.2
						c0.6,0,1.1-0.2,1.5-0.6c0.4-0.4,0.5-1,0.5-1.8c0-0.7-0.2-1.2-0.5-1.6s-0.8-0.6-1.5-0.6c-0.4,0-0.8,0.1-1.1,0.3
						s-0.6,0.4-0.8,0.7c-0.2,0.3-0.3,0.6-0.3,0.9c0,0.5,0.1,0.9,0.3,1.3s0.4,0.7,0.8,1C409.2,407.1,409.6,407.2,410,407.2z"/>
				</g>
			</g>
		</g>
	</g>
</g>
<g>
	<g>
		<g>
			<defs>
				<rect id="SVGID_33_" x="-698" y="-7828" width="1380" height="16000"/>
			</defs>
			<clipPath id="SVGID_34_">
				<use xlink:href="#SVGID_33_"  style="overflow:visible;"/>
			</clipPath>
			<g class="st24">
				<g class="st17">
					<path class="st18" d="M460.7,408h-6.6v-1l2.6-2.6c0.8-0.8,1.3-1.4,1.6-1.7c0.3-0.3,0.4-0.7,0.6-1c0.1-0.3,0.2-0.7,0.2-1.1
						c0-0.5-0.2-1-0.5-1.3c-0.3-0.3-0.8-0.5-1.3-0.5c-0.4,0-0.8,0.1-1.2,0.2c-0.4,0.1-0.8,0.4-1.2,0.7l-0.6-0.8
						c0.9-0.8,1.9-1.1,3-1.1c0.9,0,1.7,0.2,2.2,0.7c0.5,0.5,0.8,1.1,0.8,1.9c0,0.6-0.2,1.3-0.5,1.9s-1,1.4-2,2.4l-2.2,2.1v0.1h5.1
						V408z"/>
					<path class="st18" d="M468.8,403c0,1.7-0.3,3-0.8,3.9c-0.5,0.9-1.4,1.3-2.5,1.3c-1.1,0-1.9-0.4-2.5-1.3
						c-0.6-0.9-0.8-2.2-0.8-3.8c0-1.7,0.3-3,0.8-3.9c0.5-0.8,1.4-1.3,2.5-1.3c1.1,0,1.9,0.4,2.5,1.3
						C468.5,400,468.8,401.3,468.8,403z M463.3,403c0,1.5,0.2,2.5,0.5,3.2c0.3,0.7,0.9,1,1.6,1c0.8,0,1.3-0.3,1.6-1
						c0.3-0.7,0.5-1.7,0.5-3.2s-0.2-2.5-0.5-3.2c-0.3-0.7-0.9-1-1.6-1c-0.7,0-1.3,0.3-1.6,1C463.5,400.5,463.3,401.5,463.3,403z"/>
					<path class="st18" d="M474.4,408h-1.1v-7.1c0-0.6,0-1.2,0.1-1.7c-0.1,0.1-0.2,0.2-0.3,0.3c-0.1,0.1-0.7,0.5-1.6,1.3l-0.6-0.8
						l2.6-2h1V408z"/>
					<path class="st18" d="M479.5,408l4.1-8.9h-5.4v-1h6.7v0.9l-4.1,9.1H479.5z"/>
				</g>
			</g>
		</g>
	</g>
</g>
<g>
	<g>
		<g>
			<defs>
				<rect id="SVGID_35_" x="-698" y="-7828" width="1380" height="16000"/>
			</defs>
			<clipPath id="SVGID_36_">
				<use xlink:href="#SVGID_35_"  style="overflow:visible;"/>
			</clipPath>
			<g class="st25">
				<g class="st17">
					<path class="st18" d="M539.1,408h-6.6v-1l2.6-2.6c0.8-0.8,1.3-1.4,1.6-1.7c0.3-0.3,0.4-0.7,0.6-1c0.1-0.3,0.2-0.7,0.2-1.1
						c0-0.5-0.2-1-0.5-1.3c-0.3-0.3-0.8-0.5-1.3-0.5c-0.4,0-0.8,0.1-1.2,0.2c-0.4,0.1-0.8,0.4-1.2,0.7l-0.6-0.8
						c0.9-0.8,1.9-1.1,3-1.1c0.9,0,1.7,0.2,2.2,0.7c0.5,0.5,0.8,1.1,0.8,1.9c0,0.6-0.2,1.3-0.5,1.9s-1,1.4-2,2.4l-2.2,2.1v0.1h5.1
						V408z"/>
					<path class="st18" d="M547.2,403c0,1.7-0.3,3-0.8,3.9c-0.5,0.9-1.4,1.3-2.5,1.3c-1.1,0-1.9-0.4-2.5-1.3
						c-0.6-0.9-0.8-2.2-0.8-3.8c0-1.7,0.3-3,0.8-3.9c0.5-0.8,1.4-1.3,2.5-1.3c1.1,0,1.9,0.4,2.5,1.3
						C546.9,400,547.2,401.3,547.2,403z M541.7,403c0,1.5,0.2,2.5,0.5,3.2c0.3,0.7,0.9,1,1.6,1c0.8,0,1.3-0.3,1.6-1
						c0.3-0.7,0.5-1.7,0.5-3.2s-0.2-2.5-0.5-3.2c-0.3-0.7-0.9-1-1.6-1c-0.7,0-1.3,0.3-1.6,1C541.9,400.5,541.7,401.5,541.7,403z"/>
					<path class="st18" d="M552.8,408h-1.1v-7.1c0-0.6,0-1.2,0.1-1.7c-0.1,0.1-0.2,0.2-0.3,0.3c-0.1,0.1-0.7,0.5-1.6,1.3l-0.6-0.8
						l2.6-2h1V408z"/>
					<path class="st18" d="M559.9,397.9c0.9,0,1.6,0.2,2.2,0.6s0.8,1,0.8,1.8c0,0.5-0.2,0.9-0.5,1.3c-0.3,0.4-0.8,0.8-1.5,1.1
						c0.8,0.4,1.4,0.8,1.7,1.2c0.3,0.4,0.5,0.9,0.5,1.5c0,0.8-0.3,1.5-0.9,2c-0.6,0.5-1.4,0.7-2.4,0.7c-1.1,0-1.9-0.2-2.5-0.7
						c-0.6-0.5-0.9-1.1-0.9-2c0-1.1,0.7-2,2.1-2.7c-0.6-0.4-1.1-0.7-1.4-1.2c-0.3-0.4-0.4-0.9-0.4-1.4c0-0.7,0.3-1.3,0.8-1.7
						C558.3,398.1,559,397.9,559.9,397.9z M557.7,405.5c0,0.5,0.2,1,0.6,1.3c0.4,0.3,0.9,0.5,1.6,0.5c0.7,0,1.2-0.2,1.6-0.5
						c0.4-0.3,0.6-0.8,0.6-1.3c0-0.4-0.2-0.8-0.5-1.2c-0.4-0.3-1-0.7-1.9-1c-0.7,0.3-1.2,0.6-1.5,1
						C557.9,404.6,557.7,405,557.7,405.5z M559.9,398.8c-0.6,0-1,0.1-1.3,0.4c-0.3,0.3-0.5,0.6-0.5,1.1c0,0.4,0.1,0.8,0.4,1.1
						c0.3,0.3,0.8,0.6,1.5,0.9c0.7-0.3,1.1-0.6,1.4-0.9c0.3-0.3,0.4-0.7,0.4-1.1c0-0.5-0.2-0.8-0.5-1.1
						C560.9,398.9,560.4,398.8,559.9,398.8z"/>
				</g>
			</g>
		</g>
	</g>
</g>
<g>
	<g>
		<g>
			<defs>
				<rect id="SVGID_37_" x="-698" y="-7828" width="1380" height="16000"/>
			</defs>
			<clipPath id="SVGID_38_">
				<use xlink:href="#SVGID_37_"  style="overflow:visible;"/>
			</clipPath>
			<g class="st26">
				<g class="st17">
					<path class="st18" d="M49.7,49.9c-1.1,0-2,0.4-2.6,1.1c-0.6,0.7-1,1.7-1,3c0,1.3,0.3,2.3,0.9,3c0.6,0.7,1.5,1.1,2.6,1.1
						c0.7,0,1.5-0.1,2.4-0.4v1c-0.7,0.3-1.5,0.4-2.6,0.4c-1.5,0-2.6-0.4-3.4-1.3s-1.2-2.2-1.2-3.8c0-1,0.2-1.9,0.6-2.7
						s0.9-1.4,1.7-1.8s1.6-0.6,2.6-0.6c1,0,2,0.2,2.7,0.6l-0.5,1C51.2,50.1,50.4,49.9,49.7,49.9z"/>
					<path class="st18" d="M57.5,51.4c0.3,0,0.6,0,0.9,0.1l-0.2,1.1c-0.3-0.1-0.6-0.1-0.8-0.1c-0.6,0-1.1,0.2-1.6,0.7
						s-0.6,1.1-0.6,1.8v4H54v-7.5H55l0.1,1.4h0.1c0.3-0.5,0.6-0.9,1-1.1S57,51.4,57.5,51.4z"/>
					<path class="st18" d="M62.9,59.1c-1.1,0-2-0.3-2.6-1s-1-1.6-1-2.8c0-1.2,0.3-2.2,0.9-2.9s1.4-1.1,2.4-1.1
						c0.9,0,1.7,0.3,2.2,0.9c0.5,0.6,0.8,1.4,0.8,2.4v0.7h-5.2c0,0.9,0.2,1.5,0.7,2s1,0.7,1.8,0.7c0.8,0,1.6-0.2,2.4-0.5v1
						c-0.4,0.2-0.8,0.3-1.1,0.4C63.9,59.1,63.4,59.1,62.9,59.1z M62.6,52.3c-0.6,0-1.1,0.2-1.4,0.6s-0.6,0.9-0.6,1.6h3.9
						c0-0.7-0.2-1.3-0.5-1.6C63.7,52.5,63.2,52.3,62.6,52.3z"/>
					<path class="st18" d="M72.7,58L72.7,58c-0.6,0.8-1.4,1.1-2.4,1.1c-1,0-1.7-0.3-2.3-1s-0.8-1.6-0.8-2.9s0.3-2.2,0.8-2.9
						s1.3-1,2.3-1c1,0,1.8,0.4,2.3,1.1h0.1l0-0.5l0-0.5v-3h1.1V59h-0.9L72.7,58z M70.4,58.2c0.8,0,1.3-0.2,1.7-0.6
						c0.3-0.4,0.5-1.1,0.5-2v-0.2c0-1.1-0.2-1.8-0.5-2.3c-0.4-0.5-0.9-0.7-1.7-0.7c-0.7,0-1.2,0.3-1.5,0.8c-0.4,0.5-0.5,1.2-0.5,2.2
						c0,1,0.2,1.7,0.5,2.2S69.8,58.2,70.4,58.2z"/>
					<path class="st18" d="M76.1,49.5c0-0.3,0.1-0.5,0.2-0.6c0.1-0.1,0.3-0.2,0.5-0.2c0.2,0,0.3,0.1,0.5,0.2s0.2,0.3,0.2,0.6
						s-0.1,0.4-0.2,0.6c-0.1,0.1-0.3,0.2-0.5,0.2c-0.2,0-0.4-0.1-0.5-0.2C76.2,49.9,76.1,49.7,76.1,49.5z M77.3,59h-1.1v-7.5h1.1V59
						z"/>
					<path class="st18" d="M82.1,58.2c0.2,0,0.4,0,0.6,0c0.2,0,0.3-0.1,0.4-0.1v0.9C83,59,82.9,59,82.6,59.1c-0.2,0-0.5,0.1-0.6,0.1
						c-1.4,0-2.2-0.8-2.2-2.3v-4.5h-1.1v-0.5l1.1-0.5l0.5-1.6h0.7v1.7h2.2v0.9h-2.2v4.4c0,0.5,0.1,0.8,0.3,1S81.8,58.2,82.1,58.2z"
						/>
				</g>
			</g>
		</g>
	</g>
</g>
<g>
	<g>
		<g>
			<defs>
				<rect id="SVGID_39_" x="-698" y="-7828" width="1380" height="16000"/>
			</defs>
			<clipPath id="SVGID_40_">
				<use xlink:href="#SVGID_39_"  style="overflow:visible;"/>
			</clipPath>
			<g class="st27">
				<g class="st17">
					<path class="st18" d="M46.5,97.5h-1.2v-10h5.6v1h-4.4v3.7h4.1v1h-4.1V97.5z"/>
					<path class="st18" d="M53.5,90v4.9c0,0.6,0.1,1.1,0.4,1.4s0.7,0.5,1.3,0.5c0.8,0,1.4-0.2,1.7-0.6s0.5-1.1,0.5-2.1V90h1.1v7.5
						h-0.9l-0.2-1h-0.1c-0.2,0.4-0.6,0.7-1,0.8s-0.9,0.3-1.4,0.3c-0.9,0-1.6-0.2-2-0.6s-0.7-1.1-0.7-2.1V90H53.5z"/>
					<path class="st18" d="M66.1,97.5v-4.8c0-0.6-0.1-1.1-0.4-1.4s-0.7-0.5-1.3-0.5c-0.8,0-1.4,0.2-1.7,0.6s-0.5,1.1-0.5,2.1v3.9H61
						V90h0.9l0.2,1h0.1c0.2-0.4,0.6-0.7,1-0.9c0.4-0.2,0.9-0.3,1.4-0.3c0.9,0,1.6,0.2,2,0.7c0.5,0.4,0.7,1.1,0.7,2.1v4.9H66.1z"/>
					<path class="st18" d="M74.7,96.5L74.7,96.5c-0.6,0.8-1.4,1.1-2.4,1.1c-1,0-1.7-0.3-2.3-1s-0.8-1.6-0.8-2.9s0.3-2.2,0.8-2.9
						s1.3-1,2.3-1c1,0,1.8,0.4,2.3,1.1h0.1l0-0.5l0-0.5v-3h1.1v10.6h-0.9L74.7,96.5z M72.4,96.7c0.8,0,1.3-0.2,1.7-0.6
						c0.3-0.4,0.5-1.1,0.5-2v-0.2c0-1.1-0.2-1.8-0.5-2.3c-0.4-0.5-0.9-0.7-1.7-0.7c-0.7,0-1.2,0.3-1.5,0.8c-0.4,0.5-0.5,1.2-0.5,2.2
						c0,1,0.2,1.7,0.5,2.2S71.8,96.7,72.4,96.7z"/>
					<path class="st18" d="M88.3,93.7c0,1.2-0.3,2.2-0.9,2.9c-0.6,0.7-1.5,1-2.5,1c-0.7,0-1.3-0.2-1.8-0.5s-0.9-0.8-1.2-1.4
						s-0.4-1.3-0.4-2.1c0-1.2,0.3-2.2,0.9-2.9c0.6-0.7,1.5-1,2.5-1c1,0,1.9,0.3,2.5,1S88.3,92.6,88.3,93.7z M82.6,93.7
						c0,1,0.2,1.7,0.6,2.2s0.9,0.8,1.7,0.8s1.3-0.2,1.7-0.7c0.4-0.5,0.6-1.2,0.6-2.2c0-1-0.2-1.7-0.6-2.2c-0.4-0.5-1-0.7-1.7-0.7
						c-0.7,0-1.3,0.2-1.7,0.7S82.6,92.8,82.6,93.7z"/>
					<path class="st18" d="M93.7,90.9h-1.9v6.6h-1.1v-6.6h-1.3v-0.5l1.3-0.4v-0.4c0-1.8,0.8-2.8,2.4-2.8c0.4,0,0.9,0.1,1.4,0.2
						l-0.3,0.9c-0.4-0.1-0.8-0.2-1.1-0.2c-0.4,0-0.7,0.1-1,0.4c-0.2,0.3-0.3,0.7-0.3,1.4V90h1.9V90.9z"/>
					<path class="st18" d="M100,97.5h-1.2v-10h5.6v1H100v3.7h4.1v1H100V97.5z"/>
					<path class="st18" d="M107,90v4.9c0,0.6,0.1,1.1,0.4,1.4s0.7,0.5,1.3,0.5c0.8,0,1.4-0.2,1.7-0.6s0.5-1.1,0.5-2.1V90h1.1v7.5
						h-0.9l-0.2-1h-0.1c-0.2,0.4-0.6,0.7-1,0.8s-0.9,0.3-1.4,0.3c-0.9,0-1.6-0.2-2-0.6s-0.7-1.1-0.7-2.1V90H107z"/>
					<path class="st18" d="M119.6,97.5v-4.8c0-0.6-0.1-1.1-0.4-1.4s-0.7-0.5-1.3-0.5c-0.8,0-1.4,0.2-1.7,0.6s-0.5,1.1-0.5,2.1v3.9
						h-1.1V90h0.9l0.2,1h0.1c0.2-0.4,0.6-0.7,1-0.9c0.4-0.2,0.9-0.3,1.4-0.3c0.9,0,1.6,0.2,2,0.7c0.5,0.4,0.7,1.1,0.7,2.1v4.9H119.6
						z"/>
					<path class="st18" d="M128.2,96.5L128.2,96.5c-0.6,0.8-1.4,1.1-2.4,1.1c-1,0-1.7-0.3-2.3-1s-0.8-1.6-0.8-2.9s0.3-2.2,0.8-2.9
						s1.3-1,2.3-1c1,0,1.8,0.4,2.3,1.1h0.1l0-0.5l0-0.5v-3h1.1v10.6h-0.9L128.2,96.5z M125.9,96.7c0.8,0,1.3-0.2,1.7-0.6
						c0.3-0.4,0.5-1.1,0.5-2v-0.2c0-1.1-0.2-1.8-0.5-2.3c-0.4-0.5-0.9-0.7-1.7-0.7c-0.7,0-1.2,0.3-1.5,0.8c-0.4,0.5-0.5,1.2-0.5,2.2
						c0,1,0.2,1.7,0.5,2.2S125.2,96.7,125.9,96.7z"/>
					<path class="st18" d="M136.5,95.5c0,0.7-0.3,1.2-0.8,1.6s-1.2,0.6-2.2,0.6c-1,0-1.8-0.2-2.3-0.5v-1.1c0.4,0.2,0.7,0.3,1.2,0.4
						s0.8,0.2,1.2,0.2c0.6,0,1-0.1,1.4-0.3c0.3-0.2,0.5-0.5,0.5-0.9c0-0.3-0.1-0.5-0.4-0.7c-0.3-0.2-0.7-0.5-1.5-0.7
						c-0.7-0.3-1.2-0.5-1.5-0.7c-0.3-0.2-0.5-0.4-0.7-0.7s-0.2-0.5-0.2-0.9c0-0.6,0.2-1.1,0.7-1.4c0.5-0.4,1.2-0.5,2-0.5
						c0.8,0,1.6,0.2,2.4,0.5l-0.4,0.9c-0.8-0.3-1.4-0.5-2-0.5c-0.5,0-0.9,0.1-1.2,0.3s-0.4,0.4-0.4,0.7c0,0.2,0.1,0.4,0.2,0.5
						s0.3,0.3,0.5,0.4s0.7,0.3,1.3,0.6c0.9,0.3,1.5,0.6,1.8,1S136.5,95,136.5,95.5z"/>
				</g>
			</g>
		</g>
	</g>
</g>
<g>
	<g>
		<g>
			<defs>
				<rect id="SVGID_41_" x="-698" y="-7828" width="1380" height="16000"/>
			</defs>
			<clipPath id="SVGID_42_">
				<use xlink:href="#SVGID_41_"  style="overflow:visible;"/>
			</clipPath>
			<g class="st28">
				<g class="st17">
					<path class="st18" d="M45.4,138v-10h1.2v10H45.4z"/>
					<path class="st18" d="M54.2,138v-4.8c0-0.6-0.1-1.1-0.4-1.4s-0.7-0.5-1.3-0.5c-0.8,0-1.4,0.2-1.7,0.6s-0.5,1.1-0.5,2.1v3.9
						h-1.1v-7.5H50l0.2,1h0.1c0.2-0.4,0.6-0.7,1-0.9c0.4-0.2,0.9-0.3,1.4-0.3c0.9,0,1.6,0.2,2,0.7c0.5,0.4,0.7,1.1,0.7,2.1v4.9H54.2
						z"/>
					<path class="st18" d="M62.8,137L62.8,137c-0.6,0.8-1.4,1.1-2.4,1.1c-1,0-1.7-0.3-2.3-1s-0.8-1.6-0.8-2.9s0.3-2.2,0.8-2.9
						s1.3-1,2.3-1c1,0,1.8,0.4,2.3,1.1h0.1l0-0.5l0-0.5v-3h1.1V138h-0.9L62.8,137z M60.5,137.2c0.8,0,1.3-0.2,1.7-0.6
						c0.3-0.4,0.5-1.1,0.5-2v-0.2c0-1.1-0.2-1.8-0.5-2.3c-0.4-0.5-0.9-0.7-1.7-0.7c-0.7,0-1.2,0.3-1.5,0.8c-0.4,0.5-0.5,1.2-0.5,2.2
						c0,1,0.2,1.7,0.5,2.2S59.9,137.2,60.5,137.2z"/>
					<path class="st18" d="M69.4,138.1c-1.1,0-2-0.3-2.6-1s-1-1.6-1-2.8c0-1.2,0.3-2.2,0.9-2.9s1.4-1.1,2.4-1.1
						c0.9,0,1.7,0.3,2.2,0.9c0.5,0.6,0.8,1.4,0.8,2.4v0.7H67c0,0.9,0.2,1.5,0.7,2s1,0.7,1.8,0.7c0.8,0,1.6-0.2,2.4-0.5v1
						c-0.4,0.2-0.8,0.3-1.1,0.4C70.4,138.1,69.9,138.1,69.4,138.1z M69.1,131.3c-0.6,0-1.1,0.2-1.4,0.6s-0.6,0.9-0.6,1.6H71
						c0-0.7-0.2-1.3-0.5-1.6C70.2,131.5,69.7,131.3,69.1,131.3z"/>
					<path class="st18" d="M75.9,134.2l-2.6-3.7h1.3l2,2.9l2-2.9h1.3l-2.6,3.7L80,138h-1.3l-2.1-3l-2.1,3h-1.3L75.9,134.2z"/>
				</g>
			</g>
		</g>
	</g>
</g>
<g>
	<g>
		<g>
			<defs>
				<rect id="SVGID_43_" x="-698" y="-7828" width="1380" height="16000"/>
			</defs>
			<clipPath id="SVGID_44_">
				<use xlink:href="#SVGID_43_"  style="overflow:visible;"/>
			</clipPath>
			<g class="st29">
				<g class="st17">
					<path class="st18" d="M48.5,179h-1.2v-9h-3.2v-1h7.5v1h-3.2V179z"/>
					<path class="st18" d="M59.4,175.2c0,1.2-0.3,2.2-0.9,2.9c-0.6,0.7-1.5,1-2.5,1c-0.7,0-1.3-0.2-1.8-0.5s-0.9-0.8-1.2-1.4
						s-0.4-1.3-0.4-2.1c0-1.2,0.3-2.2,0.9-2.9c0.6-0.7,1.5-1,2.5-1c1,0,1.9,0.3,2.5,1S59.4,174.1,59.4,175.2z M53.7,175.2
						c0,1,0.2,1.7,0.6,2.2s0.9,0.8,1.7,0.8s1.3-0.2,1.7-0.7c0.4-0.5,0.6-1.2,0.6-2.2c0-1-0.2-1.7-0.6-2.2c-0.4-0.5-1-0.7-1.7-0.7
						c-0.7,0-1.3,0.2-1.7,0.7S53.7,174.3,53.7,175.2z"/>
					<path class="st18" d="M62.5,175.2c0.2-0.3,0.5-0.6,0.9-1.1l2.4-2.6h1.3l-3,3.2l3.2,4.3H66l-2.6-3.5l-0.9,0.7v2.8h-1.1v-10.6
						h1.1v5.6C62.5,174.3,62.5,174.6,62.5,175.2L62.5,175.2z"/>
					<path class="st18" d="M71.9,179.1c-1.1,0-2-0.3-2.6-1s-1-1.6-1-2.8c0-1.2,0.3-2.2,0.9-2.9s1.4-1.1,2.4-1.1
						c0.9,0,1.7,0.3,2.2,0.9c0.5,0.6,0.8,1.4,0.8,2.4v0.7h-5.2c0,0.9,0.2,1.5,0.7,2s1,0.7,1.8,0.7c0.8,0,1.6-0.2,2.4-0.5v1
						c-0.4,0.2-0.8,0.3-1.1,0.4C72.9,179.1,72.4,179.1,71.9,179.1z M71.6,172.3c-0.6,0-1.1,0.2-1.4,0.6s-0.6,0.9-0.6,1.6h3.9
						c0-0.7-0.2-1.3-0.5-1.6C72.7,172.5,72.2,172.3,71.6,172.3z"/>
					<path class="st18" d="M81.7,179v-4.8c0-0.6-0.1-1.1-0.4-1.4s-0.7-0.5-1.3-0.5c-0.8,0-1.4,0.2-1.7,0.6s-0.5,1.1-0.5,2.1v3.9
						h-1.1v-7.5h0.9l0.2,1h0.1c0.2-0.4,0.6-0.7,1-0.9c0.4-0.2,0.9-0.3,1.4-0.3c0.9,0,1.6,0.2,2,0.7c0.5,0.4,0.7,1.1,0.7,2.1v4.9
						H81.7z"/>
					<path class="st18" d="M89,169h2.8c1.3,0,2.3,0.2,2.9,0.6s0.9,1,0.9,1.9c0,0.6-0.2,1.1-0.5,1.5c-0.3,0.4-0.8,0.6-1.4,0.7v0.1
						c1.5,0.3,2.3,1.1,2.3,2.4c0,0.9-0.3,1.6-0.9,2.1s-1.4,0.8-2.5,0.8H89V169z M90.2,173.3h1.9c0.8,0,1.4-0.1,1.8-0.4
						c0.4-0.3,0.5-0.7,0.5-1.3c0-0.6-0.2-1-0.6-1.2c-0.4-0.2-1-0.4-1.9-0.4h-1.7V173.3z M90.2,174.3v3.7h2.1c0.8,0,1.4-0.2,1.8-0.5
						c0.4-0.3,0.6-0.8,0.6-1.5c0-0.6-0.2-1.1-0.6-1.4s-1.1-0.4-1.9-0.4H90.2z"/>
					<path class="st18" d="M102.5,179l-0.2-1.1h-0.1c-0.4,0.5-0.7,0.8-1.1,1c-0.4,0.2-0.8,0.3-1.4,0.3c-0.7,0-1.3-0.2-1.7-0.6
						s-0.6-0.9-0.6-1.6c0-1.5,1.2-2.3,3.6-2.4l1.3,0V174c0-0.6-0.1-1-0.4-1.3c-0.3-0.3-0.7-0.4-1.2-0.4c-0.6,0-1.3,0.2-2.1,0.6
						l-0.3-0.9c0.4-0.2,0.8-0.4,1.2-0.5s0.9-0.2,1.3-0.2c0.9,0,1.6,0.2,2,0.6s0.6,1,0.6,1.9v5.1H102.5z M100,178.2
						c0.7,0,1.3-0.2,1.7-0.6s0.6-0.9,0.6-1.6v-0.7l-1.1,0c-0.9,0-1.6,0.2-2,0.4c-0.4,0.2-0.6,0.6-0.6,1.2c0,0.4,0.1,0.7,0.4,0.9
						S99.5,178.2,100,178.2z"/>
					<path class="st18" d="M110.5,177c0,0.7-0.3,1.2-0.8,1.6s-1.2,0.6-2.2,0.6c-1,0-1.8-0.2-2.3-0.5v-1.1c0.4,0.2,0.7,0.3,1.2,0.4
						s0.8,0.2,1.2,0.2c0.6,0,1-0.1,1.4-0.3c0.3-0.2,0.5-0.5,0.5-0.9c0-0.3-0.1-0.5-0.4-0.7c-0.3-0.2-0.7-0.5-1.5-0.7
						c-0.7-0.3-1.2-0.5-1.5-0.7c-0.3-0.2-0.5-0.4-0.7-0.7s-0.2-0.5-0.2-0.9c0-0.6,0.2-1.1,0.7-1.4c0.5-0.4,1.2-0.5,2-0.5
						c0.8,0,1.6,0.2,2.4,0.5l-0.4,0.9c-0.8-0.3-1.4-0.5-2-0.5c-0.5,0-0.9,0.1-1.2,0.3s-0.4,0.4-0.4,0.7c0,0.2,0.1,0.4,0.2,0.5
						s0.3,0.3,0.5,0.4s0.7,0.3,1.3,0.6c0.9,0.3,1.5,0.6,1.8,1S110.5,176.5,110.5,177z"/>
					<path class="st18" d="M113.5,175.2c0.2-0.3,0.5-0.6,0.9-1.1l2.4-2.6h1.3l-3,3.2l3.2,4.3H117l-2.6-3.5l-0.9,0.7v2.8h-1.1v-10.6
						h1.1v5.6C113.5,174.3,113.5,174.6,113.5,175.2L113.5,175.2z"/>
					<path class="st18" d="M122.9,179.1c-1.1,0-2-0.3-2.6-1s-1-1.6-1-2.8c0-1.2,0.3-2.2,0.9-2.9s1.4-1.1,2.4-1.1
						c0.9,0,1.7,0.3,2.2,0.9c0.5,0.6,0.8,1.4,0.8,2.4v0.7h-5.2c0,0.9,0.2,1.5,0.7,2s1,0.7,1.8,0.7c0.8,0,1.6-0.2,2.4-0.5v1
						c-0.4,0.2-0.8,0.3-1.1,0.4C123.8,179.1,123.4,179.1,122.9,179.1z M122.6,172.3c-0.6,0-1.1,0.2-1.4,0.6s-0.6,0.9-0.6,1.6h3.9
						c0-0.7-0.2-1.3-0.5-1.6C123.6,172.5,123.2,172.3,122.6,172.3z"/>
					<path class="st18" d="M130,178.2c0.2,0,0.4,0,0.6,0c0.2,0,0.3-0.1,0.4-0.1v0.9c-0.1,0.1-0.3,0.1-0.5,0.1
						c-0.2,0-0.5,0.1-0.6,0.1c-1.4,0-2.2-0.8-2.2-2.3v-4.5h-1.1v-0.5l1.1-0.5l0.5-1.6h0.7v1.7h2.2v0.9h-2.2v4.4c0,0.5,0.1,0.8,0.3,1
						S129.6,178.2,130,178.2z"/>
				</g>
			</g>
		</g>
	</g>
</g>
<g>
	<g>
		<g>
			<defs>
				<rect id="SVGID_45_" x="-698" y="-7828" width="1380" height="16000"/>
			</defs>
			<clipPath id="SVGID_46_">
				<use xlink:href="#SVGID_45_"  style="overflow:visible;"/>
			</clipPath>
			<g class="st30">
				<g class="st17">
					<path class="st18" d="M51.7,217l-1.2-3.2h-4l-1.2,3.2H44l4-10h1l3.9,10H51.7z M50,212.8l-1.2-3.1c-0.2-0.4-0.3-0.9-0.5-1.4
						c-0.1,0.4-0.2,0.9-0.4,1.4l-1.2,3.1H50z"/>
					<path class="st18" d="M54.2,217v-10h1.2v10H54.2z"/>
					<path class="st18" d="M61.8,207L58,217h-1.1l3.7-10H61.8z"/>
					<path class="st18" d="M72,212c0,1.3-0.3,2.3-0.8,3.2s-1.2,1.4-2.2,1.7l2.4,2.5h-1.7l-1.9-2.3l-0.4,0c-1.5,0-2.6-0.5-3.4-1.3
						c-0.8-0.9-1.2-2.2-1.2-3.8c0-1.6,0.4-2.9,1.2-3.8c0.8-0.9,1.9-1.3,3.4-1.3c1.4,0,2.6,0.5,3.4,1.4S72,210.4,72,212z M64,212
						c0,1.4,0.3,2.4,0.9,3.1c0.6,0.7,1.4,1,2.5,1c1.1,0,1.9-0.3,2.5-1s0.8-1.7,0.8-3.1c0-1.3-0.3-2.4-0.8-3.1c-0.6-0.7-1.4-1-2.5-1
						c-1.1,0-1.9,0.3-2.5,1C64.3,209.6,64,210.7,64,212z"/>
					<path class="st18" d="M75.1,209.5v4.9c0,0.6,0.1,1.1,0.4,1.4s0.7,0.5,1.3,0.5c0.8,0,1.4-0.2,1.7-0.6s0.5-1.1,0.5-2.1v-3.9h1.1
						v7.5h-0.9l-0.2-1H79c-0.2,0.4-0.6,0.7-1,0.8s-0.9,0.3-1.4,0.3c-0.9,0-1.6-0.2-2-0.6s-0.7-1.1-0.7-2.1v-4.9H75.1z"/>
					<path class="st18" d="M87.2,217l-0.2-1.1h-0.1c-0.4,0.5-0.7,0.8-1.1,1c-0.4,0.2-0.8,0.3-1.4,0.3c-0.7,0-1.3-0.2-1.7-0.6
						s-0.6-0.9-0.6-1.6c0-1.5,1.2-2.3,3.6-2.4l1.3,0V212c0-0.6-0.1-1-0.4-1.3c-0.3-0.3-0.7-0.4-1.2-0.4c-0.6,0-1.3,0.2-2.1,0.6
						l-0.3-0.9c0.4-0.2,0.8-0.4,1.2-0.5s0.9-0.2,1.3-0.2c0.9,0,1.6,0.2,2,0.6s0.6,1,0.6,1.9v5.1H87.2z M84.6,216.2
						c0.7,0,1.3-0.2,1.7-0.6s0.6-0.9,0.6-1.6v-0.7l-1.1,0c-0.9,0-1.6,0.2-2,0.4c-0.4,0.2-0.6,0.6-0.6,1.2c0,0.4,0.1,0.7,0.4,0.9
						S84.2,216.2,84.6,216.2z"/>
					<path class="st18" d="M95.5,217v-4.8c0-0.6-0.1-1.1-0.4-1.4s-0.7-0.5-1.3-0.5c-0.8,0-1.4,0.2-1.7,0.6s-0.5,1.1-0.5,2.1v3.9
						h-1.1v-7.5h0.9l0.2,1h0.1c0.2-0.4,0.6-0.7,1-0.9c0.4-0.2,0.9-0.3,1.4-0.3c0.9,0,1.6,0.2,2,0.7c0.5,0.4,0.7,1.1,0.7,2.1v4.9
						H95.5z"/>
					<path class="st18" d="M101.4,216.2c0.2,0,0.4,0,0.6,0c0.2,0,0.3-0.1,0.4-0.1v0.9c-0.1,0.1-0.3,0.1-0.5,0.1
						c-0.2,0-0.5,0.1-0.6,0.1c-1.4,0-2.2-0.8-2.2-2.3v-4.5H98v-0.5l1.1-0.5l0.5-1.6h0.7v1.7h2.2v0.9h-2.2v4.4c0,0.5,0.1,0.8,0.3,1
						S101,216.2,101.4,216.2z"/>
				</g>
			</g>
		</g>
	</g>
</g>
<g>
	<g>
		<g>
			<defs>
				<rect id="SVGID_47_" x="-698" y="-7828" width="1380" height="16000"/>
			</defs>
			<clipPath id="SVGID_48_">
				<use xlink:href="#SVGID_47_"  style="overflow:visible;"/>
			</clipPath>
			<g class="st31">
				<g class="st17">
					<path class="st18" d="M48.5,259h-1.2v-9h-3.2v-1h7.5v1h-3.2V259z"/>
					<path class="st18" d="M56.4,251.4c0.3,0,0.6,0,0.9,0.1l-0.2,1.1c-0.3-0.1-0.6-0.1-0.8-0.1c-0.6,0-1.1,0.2-1.6,0.7
						s-0.6,1.1-0.6,1.8v4h-1.1v-7.5h0.9l0.1,1.4h0.1c0.3-0.5,0.6-0.9,1-1.1S55.9,251.4,56.4,251.4z"/>
					<path class="st18" d="M63.3,259l-0.2-1.1H63c-0.4,0.5-0.7,0.8-1.1,1c-0.4,0.2-0.8,0.3-1.4,0.3c-0.7,0-1.3-0.2-1.7-0.6
						s-0.6-0.9-0.6-1.6c0-1.5,1.2-2.3,3.6-2.4l1.3,0V254c0-0.6-0.1-1-0.4-1.3c-0.3-0.3-0.7-0.4-1.2-0.4c-0.6,0-1.3,0.2-2.1,0.6
						l-0.3-0.9c0.4-0.2,0.8-0.4,1.2-0.5s0.9-0.2,1.3-0.2c0.9,0,1.6,0.2,2,0.6s0.6,1,0.6,1.9v5.1H63.3z M60.7,258.2
						c0.7,0,1.3-0.2,1.7-0.6s0.6-0.9,0.6-1.6v-0.7l-1.1,0c-0.9,0-1.6,0.2-2,0.4c-0.4,0.2-0.6,0.6-0.6,1.2c0,0.4,0.1,0.7,0.4,0.9
						S60.3,258.2,60.7,258.2z"/>
					<path class="st18" d="M71.5,258L71.5,258c-0.6,0.8-1.4,1.1-2.4,1.1c-1,0-1.7-0.3-2.3-1s-0.8-1.6-0.8-2.9s0.3-2.2,0.8-2.9
						s1.3-1,2.3-1c1,0,1.8,0.4,2.3,1.1h0.1l0-0.5l0-0.5v-3h1.1V259h-0.9L71.5,258z M69.3,258.2c0.8,0,1.3-0.2,1.7-0.6
						c0.3-0.4,0.5-1.1,0.5-2v-0.2c0-1.1-0.2-1.8-0.5-2.3c-0.4-0.5-0.9-0.7-1.7-0.7c-0.7,0-1.2,0.3-1.5,0.8c-0.4,0.5-0.5,1.2-0.5,2.2
						c0,1,0.2,1.7,0.5,2.2S68.6,258.2,69.3,258.2z"/>
					<path class="st18" d="M74.9,249.5c0-0.3,0.1-0.5,0.2-0.6c0.1-0.1,0.3-0.2,0.5-0.2c0.2,0,0.3,0.1,0.5,0.2s0.2,0.3,0.2,0.6
						s-0.1,0.4-0.2,0.6c-0.1,0.1-0.3,0.2-0.5,0.2c-0.2,0-0.4-0.1-0.5-0.2C75,249.9,74.9,249.7,74.9,249.5z M76.2,259H75v-7.5h1.1
						V259z"/>
					<path class="st18" d="M83.7,259v-4.8c0-0.6-0.1-1.1-0.4-1.4s-0.7-0.5-1.3-0.5c-0.8,0-1.4,0.2-1.7,0.6s-0.5,1.1-0.5,2.1v3.9
						h-1.1v-7.5h0.9l0.2,1h0.1c0.2-0.4,0.6-0.7,1-0.9c0.4-0.2,0.9-0.3,1.4-0.3c0.9,0,1.6,0.2,2,0.7c0.5,0.4,0.7,1.1,0.7,2.1v4.9
						H83.7z"/>
					<path class="st18" d="M93.3,251.5v0.7l-1.4,0.2c0.1,0.2,0.2,0.4,0.3,0.6c0.1,0.3,0.2,0.5,0.2,0.9c0,0.7-0.3,1.3-0.8,1.8
						s-1.2,0.7-2.1,0.7c-0.2,0-0.4,0-0.6-0.1c-0.5,0.3-0.7,0.6-0.7,1c0,0.2,0.1,0.4,0.3,0.5c0.2,0.1,0.5,0.1,0.9,0.1h1.3
						c0.8,0,1.4,0.2,1.9,0.5s0.7,0.8,0.7,1.5c0,0.8-0.3,1.5-1,1.9c-0.7,0.4-1.6,0.7-2.9,0.7c-1,0-1.7-0.2-2.3-0.5s-0.8-0.9-0.8-1.5
						c0-0.5,0.1-0.8,0.4-1.2s0.7-0.6,1.2-0.7c-0.2-0.1-0.4-0.2-0.5-0.4s-0.2-0.4-0.2-0.6c0-0.3,0.1-0.5,0.2-0.7s0.4-0.4,0.7-0.6
						c-0.4-0.2-0.7-0.4-0.9-0.8s-0.4-0.8-0.4-1.3c0-0.8,0.2-1.5,0.7-1.9c0.5-0.4,1.2-0.7,2.1-0.7c0.4,0,0.7,0,1.1,0.1H93.3z
						 M87.3,260.3c0,0.4,0.2,0.7,0.5,0.9s0.8,0.3,1.5,0.3c1,0,1.7-0.1,2.1-0.4c0.5-0.3,0.7-0.7,0.7-1.2c0-0.4-0.1-0.7-0.4-0.8
						c-0.3-0.2-0.7-0.2-1.4-0.2H89c-0.5,0-0.9,0.1-1.2,0.4S87.3,259.8,87.3,260.3z M87.9,253.9c0,0.5,0.1,0.9,0.4,1.2
						s0.7,0.4,1.2,0.4c1.1,0,1.7-0.5,1.7-1.6c0-1.1-0.6-1.7-1.7-1.7c-0.5,0-0.9,0.1-1.2,0.4S87.9,253.3,87.9,253.9z"/>
				</g>
			</g>
		</g>
	</g>
</g>
<g>
	<g>
		<g>
			<defs>
				<rect id="SVGID_49_" x="-698" y="-7828" width="1380" height="16000"/>
			</defs>
			<clipPath id="SVGID_50_">
				<use xlink:href="#SVGID_49_"  style="overflow:visible;"/>
			</clipPath>
			<g class="st32">
				<g class="st17">
					<path class="st18" d="M45.4,297v-10h1.2v8.9h4.4v1.1H45.4z"/>
					<path class="st18" d="M52.4,287.5c0-0.3,0.1-0.5,0.2-0.6c0.1-0.1,0.3-0.2,0.5-0.2c0.2,0,0.3,0.1,0.5,0.2s0.2,0.3,0.2,0.6
						s-0.1,0.4-0.2,0.6c-0.1,0.1-0.3,0.2-0.5,0.2c-0.2,0-0.4-0.1-0.5-0.2C52.4,287.9,52.4,287.7,52.4,287.5z M53.6,297h-1.1v-7.5
						h1.1V297z"/>
					<path class="st18" d="M58.7,297.1c-1,0-1.7-0.3-2.3-1s-0.8-1.6-0.8-2.8c0-1.2,0.3-2.2,0.8-2.9s1.3-1,2.3-1c1,0,1.8,0.4,2.4,1.2
						h0.1l0.2-1h0.9v10.9H61v-3.2c0-0.5,0-0.8,0.1-1.2H61C60.5,296.8,59.7,297.1,58.7,297.1z M58.8,296.2c0.8,0,1.3-0.2,1.7-0.6
						s0.5-1.1,0.6-2.1v-0.3c0-1-0.2-1.8-0.5-2.3s-0.9-0.7-1.7-0.7c-0.7,0-1.2,0.3-1.5,0.8c-0.4,0.5-0.5,1.2-0.5,2.2s0.2,1.7,0.5,2.2
						C57.6,295.9,58.2,296.2,58.8,296.2z"/>
					<path class="st18" d="M65.7,289.5v4.9c0,0.6,0.1,1.1,0.4,1.4s0.7,0.5,1.3,0.5c0.8,0,1.4-0.2,1.7-0.6s0.5-1.1,0.5-2.1v-3.9h1.1
						v7.5h-0.9l-0.2-1h-0.1c-0.2,0.4-0.6,0.7-1,0.8s-0.9,0.3-1.4,0.3c-0.9,0-1.6-0.2-2-0.6s-0.7-1.1-0.7-2.1v-4.9H65.7z"/>
					<path class="st18" d="M73.1,287.5c0-0.3,0.1-0.5,0.2-0.6c0.1-0.1,0.3-0.2,0.5-0.2c0.2,0,0.3,0.1,0.5,0.2s0.2,0.3,0.2,0.6
						s-0.1,0.4-0.2,0.6c-0.1,0.1-0.3,0.2-0.5,0.2c-0.2,0-0.4-0.1-0.5-0.2C73.2,287.9,73.1,287.7,73.1,287.5z M74.3,297h-1.1v-7.5
						h1.1V297z"/>
					<path class="st18" d="M81.8,296L81.8,296c-0.6,0.8-1.4,1.1-2.4,1.1c-1,0-1.7-0.3-2.3-1s-0.8-1.6-0.8-2.9s0.3-2.2,0.8-2.9
						s1.3-1,2.3-1c1,0,1.8,0.4,2.3,1.1h0.1l0-0.5l0-0.5v-3h1.1V297H82L81.8,296z M79.6,296.2c0.8,0,1.3-0.2,1.7-0.6
						c0.3-0.4,0.5-1.1,0.5-2v-0.2c0-1.1-0.2-1.8-0.5-2.3c-0.4-0.5-0.9-0.7-1.7-0.7c-0.7,0-1.2,0.3-1.5,0.8c-0.4,0.5-0.5,1.2-0.5,2.2
						c0,1,0.2,1.7,0.5,2.2S78.9,296.2,79.6,296.2z"/>
					<path class="st18" d="M94.8,287h1.3l-3.6,10h-1.1l-3.6-10H89l2.3,6.5c0.3,0.7,0.5,1.5,0.6,2.2c0.2-0.7,0.4-1.5,0.6-2.2
						L94.8,287z"/>
					<path class="st18" d="M100.4,297.1c-1.1,0-2-0.3-2.6-1s-1-1.6-1-2.8c0-1.2,0.3-2.2,0.9-2.9s1.4-1.1,2.4-1.1
						c0.9,0,1.7,0.3,2.2,0.9c0.5,0.6,0.8,1.4,0.8,2.4v0.7H98c0,0.9,0.2,1.5,0.7,2s1,0.7,1.8,0.7c0.8,0,1.6-0.2,2.4-0.5v1
						c-0.4,0.2-0.8,0.3-1.1,0.4C101.4,297.1,100.9,297.1,100.4,297.1z M100.1,290.3c-0.6,0-1.1,0.2-1.4,0.6s-0.6,0.9-0.6,1.6h3.9
						c0-0.7-0.2-1.3-0.5-1.6C101.2,290.5,100.7,290.3,100.1,290.3z"/>
					<path class="st18" d="M110.3,297v-4.8c0-0.6-0.1-1.1-0.4-1.4s-0.7-0.5-1.3-0.5c-0.8,0-1.4,0.2-1.7,0.6s-0.5,1.1-0.5,2.1v3.9
						h-1.1v-7.5h0.9l0.2,1h0.1c0.2-0.4,0.6-0.7,1-0.9c0.4-0.2,0.9-0.3,1.4-0.3c0.9,0,1.6,0.2,2,0.7c0.5,0.4,0.7,1.1,0.7,2.1v4.9
						H110.3z"/>
					<path class="st18" d="M116.1,296.2c0.2,0,0.4,0,0.6,0c0.2,0,0.3-0.1,0.4-0.1v0.9c-0.1,0.1-0.3,0.1-0.5,0.1
						c-0.2,0-0.5,0.1-0.6,0.1c-1.4,0-2.2-0.8-2.2-2.3v-4.5h-1.1v-0.5l1.1-0.5l0.5-1.6h0.7v1.7h2.2v0.9h-2.2v4.4c0,0.5,0.1,0.8,0.3,1
						S115.8,296.2,116.1,296.2z"/>
					<path class="st18" d="M119.7,289.5v4.9c0,0.6,0.1,1.1,0.4,1.4s0.7,0.5,1.3,0.5c0.8,0,1.4-0.2,1.7-0.6s0.5-1.1,0.5-2.1v-3.9h1.1
						v7.5h-0.9l-0.2-1h-0.1c-0.2,0.4-0.6,0.7-1,0.8s-0.9,0.3-1.4,0.3c-0.9,0-1.6-0.2-2-0.6s-0.7-1.1-0.7-2.1v-4.9H119.7z"/>
					<path class="st18" d="M130.7,289.4c0.3,0,0.6,0,0.9,0.1l-0.2,1.1c-0.3-0.1-0.6-0.1-0.8-0.1c-0.6,0-1.1,0.2-1.6,0.7
						s-0.6,1.1-0.6,1.8v4h-1.1v-7.5h0.9l0.1,1.4h0.1c0.3-0.5,0.6-0.9,1-1.1S130.2,289.4,130.7,289.4z"/>
					<path class="st18" d="M136.1,297.1c-1.1,0-2-0.3-2.6-1s-1-1.6-1-2.8c0-1.2,0.3-2.2,0.9-2.9s1.4-1.1,2.4-1.1
						c0.9,0,1.7,0.3,2.2,0.9c0.5,0.6,0.8,1.4,0.8,2.4v0.7h-5.2c0,0.9,0.2,1.5,0.7,2s1,0.7,1.8,0.7c0.8,0,1.6-0.2,2.4-0.5v1
						c-0.4,0.2-0.8,0.3-1.1,0.4C137.1,297.1,136.6,297.1,136.1,297.1z M135.8,290.3c-0.6,0-1.1,0.2-1.4,0.6s-0.6,0.9-0.6,1.6h3.9
						c0-0.7-0.2-1.3-0.5-1.6C136.9,290.5,136.4,290.3,135.8,290.3z"/>
				</g>
			</g>
		</g>
	</g>
</g>
<g>
	<g>
		<g>
			<defs>
				<rect id="SVGID_51_" x="-698" y="-7828" width="1380" height="16000"/>
			</defs>
			<clipPath id="SVGID_52_">
				<use xlink:href="#SVGID_51_"  style="overflow:visible;"/>
			</clipPath>
			<g class="st33">
				<path class="st34" d="M1,48h30v10H1V48z"/>
			</g>
		</g>
	</g>
</g>
<g>
	<g>
		<g>
			<defs>
				<rect id="SVGID_53_" x="-698" y="-7828" width="1380" height="16000"/>
			</defs>
			<clipPath id="SVGID_54_">
				<use xlink:href="#SVGID_53_"  style="overflow:visible;"/>
			</clipPath>
			<g class="st35">
				<path class="st36" d="M1,88h30v10H1V88z"/>
			</g>
		</g>
	</g>
</g>
<g>
	<g>
		<g>
			<defs>
				<rect id="SVGID_55_" x="-698" y="-7828" width="1380" height="16000"/>
			</defs>
			<clipPath id="SVGID_56_">
				<use xlink:href="#SVGID_55_"  style="overflow:visible;"/>
			</clipPath>
			<g class="st37">
				<path class="st38" d="M1,129h30v10H1V129z"/>
			</g>
		</g>
	</g>
</g>
<g>
	<g>
		<g>
			<defs>
				<rect id="SVGID_57_" x="-698" y="-7828" width="1380" height="16000"/>
			</defs>
			<clipPath id="SVGID_58_">
				<use xlink:href="#SVGID_57_"  style="overflow:visible;"/>
			</clipPath>
			<g class="st39">
				<path class="st40" d="M1,169h30v10H1V169z"/>
			</g>
		</g>
	</g>
</g>
<g>
	<g>
		<g>
			<defs>
				<rect id="SVGID_59_" x="-698" y="-7828" width="1380" height="16000"/>
			</defs>
			<clipPath id="SVGID_60_">
				<use xlink:href="#SVGID_59_"  style="overflow:visible;"/>
			</clipPath>
			<g class="st41">
				<path class="st42" d="M1,208h30v10H1V208z"/>
			</g>
		</g>
	</g>
</g>
<g>
	<g>
		<g>
			<defs>
				<rect id="SVGID_61_" x="-698" y="-7828" width="1380" height="16000"/>
			</defs>
			<clipPath id="SVGID_62_">
				<use xlink:href="#SVGID_61_"  style="overflow:visible;"/>
			</clipPath>
			<g class="st43">
				<path class="st44" d="M1,249h30v10H1V249z"/>
			</g>
		</g>
	</g>
</g>
<g>
	<g>
		<g>
			<defs>
				<rect id="SVGID_63_" x="-698" y="-7828" width="1380" height="16000"/>
			</defs>
			<clipPath id="SVGID_64_">
				<use xlink:href="#SVGID_63_"  style="overflow:visible;"/>
			</clipPath>
			<g class="st45">
				<path class="st46" d="M1,288h30v10H1V288z"/>
			</g>
		</g>
	</g>
</g>
<g class="st17">
	<path class="st47" d="M39.9,365.2h-1.1V358c0-0.6,0-1.2,0.1-1.7c-0.1,0.1-0.2,0.2-0.3,0.3s-0.7,0.5-1.6,1.3l-0.6-0.8l2.6-2h1V365.2
		z"/>
</g>
<g class="st17">
	<path class="st47" d="M189.7,366.7h-6.6v-1l2.6-2.6c0.8-0.8,1.3-1.4,1.6-1.7s0.4-0.7,0.6-1s0.2-0.7,0.2-1.1c0-0.5-0.2-1-0.5-1.3
		c-0.3-0.3-0.8-0.5-1.3-0.5c-0.4,0-0.8,0.1-1.2,0.2s-0.8,0.4-1.2,0.7l-0.6-0.8c0.9-0.8,1.9-1.1,3-1.1c0.9,0,1.7,0.2,2.2,0.7
		c0.5,0.5,0.8,1.1,0.8,1.9c0,0.6-0.2,1.3-0.5,1.9s-1,1.4-2,2.4l-2.2,2.1v0.1h5.1V366.7z"/>
</g>
<g class="st17">
	<path class="st47" d="M252.4,343.2h-1.1V336c0-0.6,0-1.2,0.1-1.7c-0.1,0.1-0.2,0.2-0.3,0.3s-0.7,0.5-1.6,1.3l-0.6-0.8l2.6-2h1
		V343.2z"/>
	<path class="st47" d="M262.8,338.2c0,1.7-0.3,3-0.8,3.9s-1.4,1.3-2.5,1.3c-1.1,0-1.9-0.4-2.5-1.3c-0.6-0.9-0.8-2.2-0.8-3.8
		c0-1.7,0.3-3,0.8-3.9s1.4-1.3,2.5-1.3c1.1,0,1.9,0.4,2.5,1.3S262.8,336.5,262.8,338.2z M257.3,338.2c0,1.5,0.2,2.5,0.5,3.2
		c0.3,0.7,0.9,1,1.6,1c0.8,0,1.3-0.3,1.6-1c0.3-0.7,0.5-1.7,0.5-3.2s-0.2-2.5-0.5-3.2c-0.3-0.7-0.9-1-1.6-1c-0.7,0-1.3,0.3-1.6,1
		C257.5,335.6,257.3,336.7,257.3,338.2z"/>
</g>
<g class="st17">
	<path class="st47" d="M324.9,347.2l4.1-8.9h-5.4v-1h6.7v0.9l-4.1,9.1H324.9z"/>
</g>
<g class="st17">
	<path class="st47" d="M394.4,329.7h-1.1v-7.1c0-0.6,0-1.2,0.1-1.7c-0.1,0.1-0.2,0.2-0.3,0.3s-0.7,0.5-1.6,1.3l-0.6-0.8l2.6-2h1
		V329.7z"/>
	<path class="st47" d="M404.7,323.9c0,3.9-1.5,5.9-4.5,5.9c-0.5,0-0.9,0-1.3-0.1v-1c0.4,0.1,0.8,0.2,1.2,0.2c1.1,0,1.9-0.3,2.5-1
		c0.6-0.7,0.9-1.7,0.9-3.1h-0.1c-0.3,0.4-0.6,0.7-1,0.9c-0.4,0.2-0.9,0.3-1.4,0.3c-0.9,0-1.6-0.3-2.1-0.8s-0.8-1.3-0.8-2.2
		c0-1,0.3-1.9,0.9-2.5c0.6-0.6,1.3-0.9,2.3-0.9c0.7,0,1.3,0.2,1.8,0.5c0.5,0.3,0.9,0.9,1.2,1.5C404.6,322.2,404.7,323,404.7,323.9z
		 M401.4,320.5c-0.7,0-1.2,0.2-1.5,0.6s-0.5,1-0.5,1.8c0,0.7,0.2,1.2,0.5,1.5c0.3,0.4,0.8,0.6,1.5,0.6c0.4,0,0.8-0.1,1.1-0.3
		c0.3-0.2,0.6-0.4,0.8-0.7s0.3-0.6,0.3-0.9c0-0.5-0.1-0.9-0.3-1.3s-0.4-0.7-0.8-1C402.2,320.6,401.8,320.5,401.4,320.5z"/>
</g>
<g class="st17">
	<path class="st47" d="M462.4,16.7h-1.1V9.5c0-0.6,0-1.2,0.1-1.7c-0.1,0.1-0.2,0.2-0.3,0.3s-0.7,0.5-1.6,1.3l-0.6-0.8l2.6-2h1V16.7z
		"/>
	<path class="st47" d="M466.3,12.4c0-2,0.4-3.4,1.1-4.4c0.8-1,1.9-1.5,3.4-1.5c0.5,0,0.9,0,1.2,0.1v1c-0.4-0.1-0.8-0.2-1.2-0.2
		c-1.1,0-1.9,0.3-2.5,1c-0.6,0.7-0.9,1.7-0.9,3.1h0.1c0.5-0.8,1.3-1.2,2.4-1.2c0.9,0,1.6,0.3,2.1,0.8c0.5,0.5,0.8,1.3,0.8,2.2
		c0,1-0.3,1.9-0.9,2.5c-0.6,0.6-1.3,0.9-2.3,0.9c-1,0-1.9-0.4-2.5-1.2C466.6,14.9,466.3,13.8,466.3,12.4z M469.7,15.8
		c0.6,0,1.1-0.2,1.5-0.6c0.4-0.4,0.5-1,0.5-1.8c0-0.7-0.2-1.2-0.5-1.6s-0.8-0.6-1.5-0.6c-0.4,0-0.8,0.1-1.1,0.3s-0.6,0.4-0.8,0.7
		c-0.2,0.3-0.3,0.6-0.3,0.9c0,0.5,0.1,0.9,0.3,1.3s0.4,0.7,0.8,1C468.8,15.7,469.2,15.8,469.7,15.8z"/>
	<path class="st47" d="M475.4,16.7l4.1-8.9h-5.4v-1h6.7v0.9l-4.1,9.1H475.4z"/>
</g>
<g class="st17">
	<path class="st47" d="M544.2,328.7h-6.6v-1l2.6-2.6c0.8-0.8,1.3-1.4,1.6-1.7c0.3-0.3,0.4-0.7,0.6-1c0.1-0.3,0.2-0.7,0.2-1.1
		c0-0.5-0.2-1-0.5-1.3c-0.3-0.3-0.8-0.5-1.3-0.5c-0.4,0-0.8,0.1-1.2,0.2c-0.4,0.1-0.8,0.4-1.2,0.7l-0.6-0.8c0.9-0.8,1.9-1.1,3-1.1
		c0.9,0,1.7,0.2,2.2,0.7c0.5,0.5,0.8,1.1,0.8,1.9c0,0.6-0.2,1.3-0.5,1.9s-1,1.4-2,2.4l-2.2,2.1v0.1h5.1V328.7z"/>
	<path class="st47" d="M552.3,323.7c0,1.7-0.3,3-0.8,3.9c-0.5,0.9-1.4,1.3-2.5,1.3c-1.1,0-1.9-0.4-2.5-1.3c-0.6-0.9-0.8-2.2-0.8-3.8
		c0-1.7,0.3-3,0.8-3.9c0.5-0.8,1.4-1.3,2.5-1.3c1.1,0,1.9,0.4,2.5,1.3C552,320.7,552.3,322,552.3,323.7z M546.8,323.7
		c0,1.5,0.2,2.5,0.5,3.2c0.3,0.7,0.9,1,1.6,1c0.8,0,1.3-0.3,1.6-1c0.3-0.7,0.5-1.7,0.5-3.2s-0.2-2.5-0.5-3.2c-0.3-0.7-0.9-1-1.6-1
		c-0.7,0-1.3,0.3-1.6,1C547,321.1,546.8,322.2,546.8,323.7z"/>
</g>
</svg>
