<?xml version="1.0" encoding="utf-8"?>
<!-- Generator: Adobe Illustrator 22.0.0, SVG Export Plug-In . SVG Version: 6.00 Build 0)  -->
<svg version="1.1" id="Слой_1" xmlns="http://www.w3.org/2000/svg" xmlns:xlink="http://www.w3.org/1999/xlink" x="0px" y="0px"
	 viewBox="0 0 543.9 1328.5" style="enable-background:new 0 0 543.9 1328.5;" xml:space="preserve">
<style type="text/css">
	.st0{fill:#9F86F6;}
	.st1{fill:#FFFFFF;}
	.st2{fill:#F0876E;}
	.st3{fill:#9ED036;}
	.st4{fill:#E79B15;}
	.st5{fill:#F04595;}
	.st6{fill:#CCD442;}
	.st7{fill:#4FFFD8;}
	.st8{fill:none;stroke:#FFFFFF;stroke-width:0.5;}
	.st9{filter:url(#Adobe_OpacityMaskFilter);}
	.st10{mask:url(#mask-2_2_);fill:url(#Fill-5_1_);}
	.st11{filter:url(#Adobe_OpacityMaskFilter_1_);}
	.st12{mask:url(#mask-5_2_);fill:url(#Fill-8_1_);}
	.st13{filter:url(#Adobe_OpacityMaskFilter_2_);}
	.st14{mask:url(#mask-8_2_);fill:url(#Fill-11_1_);}
	.st15{filter:url(#Adobe_OpacityMaskFilter_3_);}
	.st16{mask:url(#mask-11_2_);fill:url(#Fill-14_1_);}
	.st17{filter:url(#Adobe_OpacityMaskFilter_4_);}
	.st18{mask:url(#mask-14_2_);fill:url(#Fill-17_1_);}
	.st19{filter:url(#Adobe_OpacityMaskFilter_5_);}
	.st20{mask:url(#mask-17_2_);fill:url(#Fill-20_1_);}
	.st21{filter:url(#Adobe_OpacityMaskFilter_6_);}
	.st22{mask:url(#mask-20_2_);fill:url(#Fill-23_1_);}
</style>
<title>diagram-2nd block-mini</title>
<g id="Слой_2_1_">
	<g id="Слой_1-2">
		<path id="_21_" class="st0" d="M67,780.9c0-2.1,0.9-4.1,2.5-5.5c1.7-1.5,3.9-2.3,6.1-2.2c2.1-0.1,4.2,0.7,5.7,2.1
			c1.4,1.3,2.2,3.1,2.2,5c0,1.5-0.4,2.9-1.2,4.1c-1.4,2-3,3.9-4.7,5.6l-6,6.2v0.1h12.3v2.8H67.2v-2.2l8.9-9.3
			c1.3-1.2,2.4-2.6,3.4-4.1c0.5-0.9,0.8-1.9,0.8-3c0-1.2-0.4-2.3-1.3-3.2s-2.2-1.4-3.5-1.3c-1.4,0-2.8,0.5-3.9,1.4
			c-1,0.9-1.6,2.2-1.6,3.6L67,780.9z M94.3,798.9v-22h-0.1l-1,0.7l-2.3,1.7l-2.4,1.6l-1,0.7v-3.2l1-0.7l2.4-1.7l2.4-1.7l1-0.7h3.1
			v25.3H94.3z M108.2,786.2c-1.5,0.1-2.9-0.6-3.9-1.7c-1-1.4-1.5-3-1.4-4.7c-0.1-1.7,0.4-3.4,1.4-4.7c2-2.1,5.3-2.3,7.4-0.3
			c0.1,0.1,0.2,0.2,0.3,0.3c1,1.4,1.5,3,1.4,4.7c0.1,1.7-0.4,3.4-1.4,4.7C111.1,785.6,109.7,786.3,108.2,786.2z M108.2,784.1
			c0.8,0,1.6-0.4,2-1.1c0.5-1,0.8-2.1,0.7-3.2c0.1-1.1-0.2-2.2-0.7-3.2c-0.6-1.1-2.1-1.5-3.2-0.8c-0.3,0.2-0.6,0.5-0.8,0.8
			c-0.5,1-0.8,2.1-0.7,3.2c-0.1,1.1,0.2,2.2,0.7,3.2C106.6,783.7,107.4,784.1,108.2,784.1L108.2,784.1z M109.1,799h-2.9l17.7-25.4
			h2.9L109.1,799z M124.8,799.2c-1.5,0.1-2.9-0.6-3.9-1.7c-1-1.4-1.5-3-1.4-4.7c-0.1-1.7,0.4-3.4,1.4-4.7c1.9-2.1,5.2-2.3,7.4-0.4
			c0.1,0.1,0.2,0.2,0.4,0.4c1,1.4,1.5,3,1.4,4.7c0.1,1.7-0.4,3.3-1.4,4.7C127.7,798.6,126.3,799.3,124.8,799.2L124.8,799.2z
			 M124.8,797.2c0.8,0,1.6-0.4,2-1.1c0.5-1,0.8-2.1,0.7-3.2c0.1-1.1-0.2-2.2-0.7-3.2c-0.7-1.1-2.1-1.5-3.2-0.8
			c-0.3,0.2-0.6,0.5-0.8,0.8c-0.5,1-0.8,2.1-0.7,3.2c-0.1,1.1,0.2,2.2,0.7,3.2C123.2,796.8,123.9,797.2,124.8,797.2L124.8,797.2z"/>
		<path id="Team" class="st1" d="M152.4,784.8h-1.6v-11.3h-4.1v-1.4h9.8v1.4h-4.1L152.4,784.8L152.4,784.8z M161.4,776.5
			c-0.7,0-1.4,0.3-1.9,0.8s-0.8,1.3-0.8,2h5.2c0-0.7-0.2-1.4-0.7-2C162.8,776.7,162.1,776.5,161.4,776.5L161.4,776.5z M163.9,782.3
			h1.5c-0.2,0.8-0.7,1.5-1.4,1.9c-0.8,0.5-1.7,0.7-2.6,0.7c-1.2,0.1-2.3-0.4-3.1-1.3c-1.5-2.1-1.5-5,0-7.2c0.8-0.9,1.9-1.4,3.1-1.3
			c1.1,0,2.2,0.4,3,1.3c0.8,1,1.2,2.2,1.1,3.5v0.6h-6.8v0.1c0,0.8,0.3,1.6,0.8,2.2c0.5,0.6,1.2,0.9,1.9,0.8c0.5,0,1.1-0.1,1.5-0.3
			C163.4,783.1,163.7,782.7,163.9,782.3L163.9,782.3z M171.5,783.6c0.7,0,1.4-0.2,1.9-0.7c0.5-0.4,0.8-1,0.8-1.7v-0.9l-2.5,0.2
			c-1.4,0.1-2.1,0.6-2.1,1.5c0,0.4,0.2,0.9,0.5,1.1C170.5,783.5,171,783.6,171.5,783.6L171.5,783.6z M171.2,784.9
			c-0.8,0-1.7-0.2-2.3-0.8c-0.6-0.5-0.9-1.3-0.9-2.1c0-1.7,1.1-2.7,3.5-2.8l2.7-0.2v-0.9c0-1.2-0.7-1.8-2.1-1.8
			c-0.5,0-1,0.1-1.4,0.3c-0.4,0.2-0.6,0.5-0.7,0.9h-1.5c0.1-0.8,0.5-1.4,1.2-1.8c0.8-0.5,1.6-0.7,2.5-0.7c1-0.1,1.9,0.2,2.7,0.8
			c0.6,0.6,1,1.4,0.9,2.3v6.5h-1.4v-1.4h-0.1c-0.3,0.5-0.7,0.9-1.2,1.2C172.4,784.8,171.8,784.9,171.2,784.9L171.2,784.9z
			 M179.2,784.8v-9.5h1.4v1.5h0.1c0.2-0.5,0.5-0.9,1-1.2s1.1-0.5,1.6-0.4c0.6,0,1.1,0.1,1.6,0.5c0.4,0.3,0.8,0.7,1,1.2h0.1
			c0.3-0.5,0.7-0.9,1.1-1.2c0.5-0.3,1.1-0.5,1.8-0.5c0.8-0.1,1.6,0.2,2.2,0.8c0.6,0.6,0.8,1.5,0.8,2.3v6.5h-1.5v-6.2
			c0-0.6-0.1-1.1-0.5-1.6c-0.4-0.4-0.9-0.6-1.5-0.5c-0.6,0-1.2,0.2-1.6,0.7c-0.4,0.4-0.6,1-0.6,1.5v6.1h-1.5v-6.4
			c0-0.5-0.2-1-0.5-1.3c-0.4-0.3-0.9-0.5-1.4-0.5c-0.6,0-1.2,0.3-1.6,0.7c-0.4,0.5-0.6,1.1-0.6,1.7v5.9L179.2,784.8z"/>
		<path id="_1_" class="st2" d="M94.3,890.3v-22h-0.1l-1,0.7l-2.4,1.6l-2.4,1.6l-1,0.7v-3.2l1-0.7l2.4-1.7l2.4-1.7l1-0.7h3.1v25.4
			L94.3,890.3z M108.2,877.6c-1.5,0.1-2.9-0.6-3.9-1.7c-1-1.4-1.5-3-1.4-4.7c-0.1-1.7,0.4-3.3,1.4-4.7c1.9-2.1,5.2-2.3,7.4-0.4
			c0.1,0.1,0.2,0.2,0.4,0.4c1,1.3,1.5,3,1.4,4.7c0.1,1.7-0.4,3.4-1.4,4.7C111.1,877,109.7,877.6,108.2,877.6L108.2,877.6z
			 M108.2,875.5c0.8,0,1.6-0.4,2-1.1c0.5-1,0.8-2.1,0.7-3.2c0.1-1.1-0.2-2.2-0.7-3.2c-0.7-1.1-2.1-1.5-3.2-0.8
			c-0.3,0.2-0.6,0.5-0.8,0.8c-0.5,1-0.8,2.1-0.7,3.2c-0.1,1.1,0.2,2.2,0.7,3.2C106.6,875.1,107.4,875.5,108.2,875.5L108.2,875.5z
			 M109.1,890.3h-2.9l17.7-25.4h2.9L109.1,890.3z M124.8,890.6c-1.5,0.1-2.9-0.6-3.9-1.7c-1-1.4-1.5-3-1.4-4.7
			c-0.1-1.7,0.4-3.4,1.4-4.7c1.9-2.1,5.2-2.3,7.4-0.4c0.1,0.1,0.2,0.2,0.4,0.4c1,1.4,1.5,3,1.4,4.7c0.1,1.7-0.4,3.3-1.4,4.7
			C127.7,890,126.3,890.7,124.8,890.6L124.8,890.6z M124.8,888.6c0.8,0,1.6-0.4,2-1.1c0.5-1,0.8-2.1,0.7-3.2
			c0.1-1.1-0.2-2.2-0.7-3.2c-0.7-1.1-2.1-1.5-3.2-0.8c-0.3,0.2-0.6,0.5-0.8,0.8c-0.5,1-0.8,2.1-0.7,3.2c-0.1,1.1,0.2,2.2,0.7,3.2
			C123.2,888.1,123.9,888.6,124.8,888.6L124.8,888.6z"/>
		<path id="Bounty" class="st1" d="M156.6,879.2h-4.9v-12.7h4.9c1-0.1,2,0.2,2.8,0.8c0.7,0.6,1,1.4,1,2.3c0,0.6-0.2,1.3-0.6,1.8
			c-0.4,0.5-0.9,0.9-1.6,1v0.1c0.8,0.1,1.5,0.4,2.1,1c0.5,0.6,0.8,1.3,0.8,2.1c0.1,1-0.4,2-1.1,2.6
			C158.8,878.9,157.7,879.3,156.6,879.2z M153.2,867.9v4.1h2.5c0.8,0.1,1.5-0.1,2.2-0.5c0.5-0.4,0.8-0.9,0.7-1.5
			c0-0.6-0.2-1.1-0.6-1.5c-0.5-0.4-1.2-0.6-1.8-0.5h-3V867.9z M153.2,877.8h3.1c0.8,0.1,1.5-0.1,2.2-0.6c0.5-0.4,0.8-1,0.7-1.7
			c0-0.6-0.2-1.3-0.8-1.7c-0.7-0.4-1.5-0.6-2.3-0.6h-3L153.2,877.8z M167.8,879.4c-1.2,0.1-2.4-0.4-3.2-1.3c-1.6-2.1-1.6-5.1,0-7.2
			c1.8-1.7,4.6-1.7,6.4,0c1.6,2.1,1.6,5,0,7.2C170.2,878.9,169,879.4,167.8,879.4z M167.8,878c0.8,0,1.6-0.3,2.1-0.9
			c1-1.6,1-3.6,0-5.2c-1-1.1-2.8-1.2-4-0.2c-0.1,0.1-0.1,0.1-0.2,0.2c-1,1.6-1,3.6,0,5.2C166.3,877.7,167,878,167.8,878z
			 M182.9,869.7v9.5h-1.4v-1.5h-0.1c-0.2,0.5-0.6,0.9-1.1,1.2c-0.6,0.3-1.2,0.5-1.8,0.4c-0.9,0.1-1.8-0.3-2.4-0.9
			c-0.6-0.7-0.9-1.7-0.8-2.6v-6.1h1.5v5.8c-0.1,0.7,0.1,1.3,0.5,1.9c0.4,0.4,1,0.7,1.6,0.6c0.7,0,1.4-0.2,1.9-0.7
			c0.5-0.6,0.7-1.3,0.7-2v-5.6H182.9z M186.4,879.2v-9.5h1.4v1.5h0.1c0.2-0.5,0.6-0.9,1.1-1.2c0.5-0.3,1.2-0.5,1.8-0.4
			c0.9-0.1,1.8,0.3,2.5,0.9c0.6,0.7,0.9,1.7,0.9,2.6v6.2h-1.5v-5.8c0.1-0.7-0.1-1.4-0.5-1.9c-0.4-0.4-1.1-0.7-1.7-0.6
			c-0.7,0-1.3,0.2-1.8,0.7s-0.7,1.3-0.7,2v5.6L186.4,879.2z M198.2,867.3h1.5v2.5h2.1v1.3h-2.1v5.4c0,0.4,0.1,0.9,0.3,1.2
			c0.3,0.3,0.7,0.4,1.1,0.4h0.4h0.4v1.3c-0.1,0-0.3,0.1-0.4,0.1c-0.1,0-0.3,0-0.5,0c-0.7,0.1-1.5-0.1-2.1-0.6
			c-0.5-0.5-0.7-1.3-0.6-2v-6h-1.5v-1.3h1.5L198.2,867.3L198.2,867.3z M205.6,882.6h-0.2h-0.2H205v-1.3c0.1,0,0.2,0,0.3,0h0.3
			c0.4,0,0.7-0.1,1-0.3c0.3-0.3,0.6-0.7,0.7-1.2l0.2-0.6l-3.5-9.5h1.6l2.6,7.8h0.1l2.6-7.8h1.6l-3.7,10c-0.2,0.8-0.7,1.6-1.3,2.2
			C207,882.4,206.3,882.6,205.6,882.6L205.6,882.6z"/>
		<path id="_6_" class="st3" d="M91.5,983.7c-1.6,0-3.2-0.4-4.6-1.2c-1.6-0.9-2.9-2.3-3.6-4c-1.1-2.4-1.6-4.9-1.4-7.5
			c0-4.3,0.9-7.6,2.6-10c1.7-2.3,4.4-3.7,7.3-3.6c2-0.1,3.9,0.6,5.5,1.7c1.5,1.1,2.5,2.8,2.9,4.7H97c-0.3-1.1-1-2-2-2.7
			c-1-0.6-2.1-1-3.3-0.9c-2-0.1-3.9,1-4.9,2.7c-1.2,1.8-1.8,4.4-1.8,7.8h0.1c0.6-1.2,1.5-2.2,2.6-2.9c1.3-0.8,2.9-1.2,4.5-1.2
			c2.2-0.1,4.4,0.8,6,2.4c1.6,1.6,2.5,3.8,2.4,6c0.1,2.3-0.9,4.6-2.5,6.2C96.1,982.9,93.8,983.8,91.5,983.7z M91.5,980.9
			c1.5,0,3-0.6,4.1-1.7c2.2-2.3,2.3-5.9,0.1-8.2c-1.1-1.1-2.6-1.7-4.1-1.6c-1.5,0-3.1,0.5-4.2,1.6c-1.1,1-1.7,2.5-1.7,4
			c0,1.6,0.6,3,1.7,4.1C88.4,980.3,89.9,980.9,91.5,980.9L91.5,980.9z M108.2,970.5c-1.5,0.1-2.9-0.6-3.9-1.7c-1-1.4-1.5-3-1.4-4.7
			c-0.1-1.7,0.4-3.3,1.4-4.7c2-2.1,5.3-2.3,7.4-0.3c0.1,0.1,0.2,0.2,0.3,0.3c1,1.3,1.5,3,1.4,4.7c0.1,1.7-0.4,3.4-1.4,4.7
			C111.2,969.9,109.7,970.6,108.2,970.5L108.2,970.5z M108.2,968.4c0.8,0,1.6-0.4,2-1.1c0.5-1,0.8-2.1,0.7-3.3
			c0.1-1.1-0.2-2.2-0.7-3.2c-0.6-1.1-2.1-1.5-3.2-0.8c-0.3,0.2-0.6,0.5-0.8,0.8c-0.5,1-0.8,2.1-0.7,3.2c-0.1,1.1,0.2,2.3,0.7,3.3
			C106.6,968,107.4,968.4,108.2,968.4L108.2,968.4z M109.1,983.3h-2.9l17.7-25.4h2.9L109.1,983.3z M124.8,983.6
			c-1.5,0.1-2.9-0.6-3.9-1.7c-1-1.4-1.5-3-1.4-4.7c-0.1-1.7,0.4-3.4,1.4-4.7c2-2.1,5.3-2.3,7.4-0.3c0.1,0.1,0.2,0.2,0.3,0.3
			c1,1.4,1.5,3,1.4,4.7c0.1,1.7-0.4,3.3-1.4,4.7C127.8,983,126.3,983.6,124.8,983.6L124.8,983.6z M124.8,981.5c0.8,0,1.6-0.4,2-1.1
			c0.5-1,0.8-2.1,0.7-3.3c0.1-1.1-0.2-2.2-0.7-3.2c-0.6-1.1-2.1-1.5-3.2-0.8c-0.3,0.2-0.6,0.5-0.8,0.8c-0.5,1-0.8,2.1-0.7,3.2
			c-0.1,1.1,0.2,2.3,0.7,3.3C123.2,981.1,124,981.5,124.8,981.5L124.8,981.5z"/>
		<path id="Advisers" class="st1" d="M156,969.1l-0.2-0.6c-0.1-0.4-0.3-0.8-0.4-1.3s-0.3-0.9-0.4-1.3l-0.2-0.6h-5l-1.3,3.6h-1.7
			l4.7-12.7h1.6l4.7,12.7L156,969.1z M152.1,958.5l-0.2,0.6c-0.1,0.4-0.3,0.8-0.5,1.4l-0.6,1.7c-0.2,0.6-0.4,1-0.5,1.4l-0.2,0.6h4.1
			l-2-5.7H152.1z M163.3,969.3c-1.1,0-2.2-0.5-2.9-1.3c-1.4-2.2-1.4-5,0-7.1c0.7-0.9,1.8-1.4,2.9-1.3c0.6,0,1.2,0.1,1.8,0.4
			c0.5,0.3,0.9,0.7,1.2,1.2h0.1v-5.3h1.5v13.2h-1.4v-1.5h-0.1c-0.3,0.5-0.7,0.9-1.2,1.2C164.6,969.1,163.9,969.3,163.3,969.3z
			 M163.7,960.8c-0.8,0-1.5,0.3-2,0.9c-1,1.6-1,3.6,0,5.2c1,1.1,2.6,1.3,3.8,0.3c0.1-0.1,0.2-0.2,0.3-0.3c1-1.6,1-3.6,0-5.2
			C165.3,961.2,164.5,960.8,163.7,960.8z M179.3,959.7l-0.4,1c-0.2,0.6-0.5,1.4-0.9,2.4l-1,2.8l-0.9,2.4l-0.4,1h-1.5l-3.5-9.5h1.6
			l2.6,7.8h0.1l2.6-7.8L179.3,959.7z M182,969.1v-9.5h1.5v9.5H182z M182.8,957.7c-0.6,0-1-0.4-1.1-1c0-0.3,0.1-0.6,0.3-0.8
			s0.5-0.3,0.8-0.3c0.6,0,1.1,0.5,1,1.1c0,0.3-0.1,0.5-0.3,0.7C183.3,957.6,183.1,957.7,182.8,957.7L182.8,957.7z M186.9,962.2
			c0-0.8,0.4-1.5,1-2c0.7-0.5,1.6-0.8,2.5-0.8s1.7,0.2,2.5,0.7c0.6,0.4,1,1.1,1.1,1.9h-1.5c-0.1-0.4-0.3-0.7-0.7-0.9
			s-0.9-0.4-1.4-0.3c-0.5,0-1,0.1-1.4,0.4c-0.4,0.2-0.6,0.6-0.6,1c0,0.3,0.1,0.6,0.4,0.8c0.4,0.3,0.8,0.4,1.2,0.5l1.5,0.4
			c0.7,0.1,1.4,0.5,2,0.9c0.4,0.4,0.7,1,0.7,1.6c0,0.8-0.4,1.6-1.1,2.1c-0.8,0.6-1.7,0.8-2.7,0.8c-0.9,0-1.8-0.2-2.6-0.7
			c-0.6-0.4-1.1-1.1-1.1-1.9h1.6c0.1,0.4,0.4,0.8,0.8,1c1,0.5,2.1,0.5,3-0.1c0.4-0.2,0.6-0.6,0.6-1.1c0-0.3-0.1-0.6-0.4-0.8
			c-0.3-0.3-0.7-0.4-1.1-0.5l-1.6-0.4c-0.7-0.1-1.4-0.5-2-0.9C187.1,963.4,186.9,962.8,186.9,962.2L186.9,962.2z M201,960.8
			c-0.7,0-1.4,0.3-1.9,0.8s-0.8,1.3-0.8,2h5.2c0-0.7-0.2-1.4-0.7-2C202.3,961.1,201.6,960.8,201,960.8L201,960.8z M203.5,966.7h1.5
			c-0.2,0.8-0.7,1.5-1.4,1.9c-0.8,0.5-1.7,0.7-2.6,0.7c-1.2,0.1-2.3-0.4-3.1-1.3c-1.5-2.1-1.5-5,0-7.1c0.8-0.9,1.9-1.4,3.1-1.3
			c1.1-0.1,2.2,0.4,3,1.3c0.8,1,1.2,2.2,1.1,3.5v0.6h-6.8v0.1c0,0.8,0.3,1.6,0.8,2.2c0.5,0.6,1.2,0.9,1.9,0.8c0.5,0,1.1-0.1,1.5-0.3
			C202.9,967.4,203.3,967.1,203.5,966.7z M208.1,969.1v-9.5h1.4v1.4h0.1c0.2-0.5,0.5-0.9,1-1.1c0.5-0.3,1.1-0.5,1.7-0.4h0.4h0.4v1.5
			h-0.4h-0.5c-0.7,0-1.3,0.2-1.8,0.7c-0.5,0.4-0.7,1-0.7,1.7v5.9L208.1,969.1z M215.3,962.2c0-0.8,0.4-1.5,1-2
			c0.7-0.5,1.6-0.8,2.5-0.8s1.7,0.2,2.5,0.7c0.6,0.4,1,1.1,1.1,1.9H221c-0.1-0.4-0.3-0.7-0.7-0.9s-0.9-0.4-1.4-0.3
			c-0.5,0-1,0.1-1.4,0.4c-0.4,0.2-0.6,0.6-0.6,1c0,0.3,0.2,0.6,0.4,0.8c0.4,0.3,0.8,0.4,1.2,0.5l1.5,0.4c0.7,0.1,1.4,0.5,2,0.9
			c0.4,0.4,0.7,1,0.7,1.6c0,0.8-0.4,1.6-1.1,2.1c-1.6,1-3.7,1.1-5.3,0.1c-0.6-0.4-1.1-1.1-1.1-1.9h1.5c0.1,0.4,0.4,0.8,0.8,1
			c0.4,0.3,1,0.4,1.5,0.3c0.6,0,1.1-0.1,1.6-0.4c0.4-0.2,0.6-0.6,0.6-1.1c0-0.3-0.1-0.6-0.4-0.8c-0.3-0.3-0.7-0.4-1.1-0.5l-1.6-0.4
			c-0.7-0.1-1.4-0.4-2-0.9C215.5,963.4,215.3,962.8,215.3,962.2L215.3,962.2z"/>
		<path id="_15_" class="st4" d="M73,1074.9v-22h-0.1l-1,0.7l-2.3,1.6l-2.4,1.6l-1,0.7v-3.2l1-0.7l2.4-1.7l2.4-1.7l1-0.7h3v25.4H73z
			 M91.5,1075.3c-2.2,0.1-4.4-0.7-6.1-2.1c-1.6-1.3-2.5-3.2-2.6-5.3h3.1c0.1,1.3,0.8,2.5,1.8,3.3c1.1,0.9,2.5,1.3,3.9,1.3
			c3.1,0.1,5.7-2.2,5.8-5.3c0-0.2,0-0.3,0-0.5c0.1-3.1-2.3-5.7-5.3-5.8c-0.1,0-0.3,0-0.4,0c-1.1,0-2.2,0.2-3.2,0.8
			c-1,0.5-1.8,1.3-2.3,2.3h-2.8l1.3-14.5h14.5v2.8h-12l-0.9,8.5h0.1c0.6-0.9,1.4-1.6,2.4-2c4.1-1.9,9.1-0.1,11,4
			c0.5,1.2,0.8,2.4,0.8,3.7c0.1,2.3-0.8,4.6-2.5,6.2C96.3,1074.5,93.9,1075.4,91.5,1075.3z M108.2,1062.1c-1.5,0.1-2.9-0.6-3.9-1.7
			c-1-1.4-1.5-3-1.4-4.7c-0.1-1.7,0.4-3.4,1.4-4.7c2-2.1,5.3-2.3,7.4-0.3c0.1,0.1,0.2,0.2,0.3,0.3c1,1.4,1.5,3,1.4,4.7
			c0.1,1.7-0.4,3.4-1.4,4.7C111.1,1061.5,109.7,1062.2,108.2,1062.1L108.2,1062.1z M108.2,1060c0.8,0,1.6-0.4,2-1.1
			c0.5-1,0.8-2.1,0.7-3.2c0.1-1.1-0.2-2.2-0.7-3.2c-0.6-1.1-2.1-1.5-3.2-0.8c-0.3,0.2-0.6,0.5-0.8,0.8c-0.5,1-0.8,2.1-0.7,3.2
			c-0.1,1.1,0.2,2.2,0.7,3.2C106.6,1059.6,107.4,1060,108.2,1060L108.2,1060z M109.1,1074.9h-2.9l17.7-25.4h2.9L109.1,1074.9z
			 M124.8,1075.2c-1.5,0.1-2.9-0.6-3.9-1.7c-1-1.4-1.5-3-1.4-4.7c-0.1-1.7,0.4-3.4,1.4-4.7c2-2.1,5.3-2.3,7.4-0.3
			c0.1,0.1,0.2,0.2,0.3,0.3c1,1.4,1.5,3,1.4,4.7c0.1,1.7-0.4,3.3-1.4,4.7C127.7,1074.6,126.3,1075.2,124.8,1075.2L124.8,1075.2z
			 M124.8,1073.1c0.8,0,1.6-0.4,2-1.1c0.5-1,0.8-2.1,0.7-3.2c0.1-1.1-0.2-2.2-0.7-3.2c-0.6-1.1-2.1-1.5-3.2-0.8
			c-0.3,0.2-0.6,0.5-0.8,0.8c-0.5,1-0.8,2.1-0.7,3.2c-0.1,1.1,0.2,2.2,0.7,3.2C123.2,1072.7,124,1073.1,124.8,1073.1L124.8,1073.1z"
			/>
		<path id="Reserve" class="st1" d="M153.2,1049.5v4.8h3.1c0.7,0,1.4-0.2,1.9-0.6c0.5-0.5,0.7-1.1,0.7-1.8c0-0.7-0.2-1.3-0.7-1.8
			s-1.2-0.7-1.9-0.6L153.2,1049.5z M153.2,1055.7v5h-1.6V1048h4.8c1.1-0.1,2.1,0.3,2.9,1c0.7,0.7,1.1,1.7,1.1,2.8
			c0,0.8-0.2,1.6-0.7,2.3c-0.5,0.6-1.1,1.1-1.9,1.3l2.9,5.3H159l-2.7-5L153.2,1055.7z M167.4,1052.4c-0.7,0-1.4,0.3-1.9,0.8
			s-0.8,1.3-0.8,2h5.2c0-0.7-0.2-1.4-0.7-2C168.7,1052.7,168.1,1052.4,167.4,1052.4z M169.9,1058.3h1.5c-0.2,0.8-0.7,1.5-1.4,1.9
			c-0.8,0.5-1.7,0.7-2.6,0.7c-1.2,0.1-2.3-0.4-3.1-1.3c-1.5-2.1-1.5-5,0-7.2c0.8-0.9,1.9-1.4,3.1-1.3c1.1,0,2.2,0.4,3,1.3
			c0.8,1,1.2,2.2,1.1,3.5v0.6h-6.8v0.1c0,0.8,0.3,1.6,0.8,2.2s1.2,0.9,1.9,0.8c0.5,0,1.1-0.1,1.5-0.4
			C169.4,1059,169.7,1058.7,169.9,1058.3L169.9,1058.3z M174.3,1053.8c0-0.8,0.4-1.5,1-2c0.7-0.5,1.6-0.8,2.5-0.8s1.7,0.2,2.5,0.7
			c0.6,0.4,1,1.1,1.1,1.8h-1.5c-0.1-0.4-0.3-0.7-0.7-0.9c-0.9-0.5-1.9-0.5-2.8,0c-0.3,0.2-0.6,0.6-0.6,1c0,0.3,0.2,0.6,0.4,0.8
			c0.4,0.3,0.8,0.4,1.2,0.5l1.5,0.3c0.7,0.1,1.4,0.5,2,0.9c0.4,0.4,0.7,1,0.6,1.6c0,0.8-0.4,1.6-1.1,2.1c-1.6,1-3.7,1.1-5.3,0.1
			c-0.6-0.4-1.1-1.1-1.1-1.9h1.5c0.1,0.4,0.4,0.8,0.8,1c0.4,0.3,1,0.4,1.5,0.3c0.6,0,1.1-0.1,1.6-0.4c0.4-0.2,0.6-0.6,0.6-1.1
			c0-0.3-0.1-0.6-0.4-0.8c-0.3-0.3-0.7-0.4-1.1-0.5l-1.6-0.4c-0.7-0.1-1.4-0.5-2-0.9C174.5,1055,174.3,1054.4,174.3,1053.8
			L174.3,1053.8z M188.4,1052.4c-0.7,0-1.4,0.3-1.9,0.8s-0.8,1.3-0.8,2h5.2c0-0.7-0.2-1.4-0.7-2
			C189.8,1052.7,189.1,1052.4,188.4,1052.4L188.4,1052.4z M190.9,1058.3h1.5c-0.2,0.8-0.7,1.5-1.4,1.9c-0.8,0.5-1.7,0.7-2.6,0.7
			c-1.2,0.1-2.3-0.4-3.1-1.3c-0.8-1-1.2-2.3-1.1-3.6c-0.1-1.3,0.3-2.6,1.2-3.6c0.8-0.9,1.9-1.4,3.1-1.3c1.1,0,2.2,0.4,3,1.3
			c0.8,1,1.2,2.2,1.1,3.5v0.6h-6.8v0.1c0,0.8,0.3,1.6,0.8,2.2c0.5,0.5,1.2,0.8,1.9,0.8c0.5,0,1.1-0.1,1.5-0.3
			C190.4,1059,190.7,1058.7,190.9,1058.3L190.9,1058.3z M195.6,1060.7v-9.5h1.4v1.4h0.1c0.2-0.5,0.5-0.9,0.9-1.1
			c0.5-0.3,1.1-0.4,1.7-0.4h0.4h0.4v1.5c-0.1,0-0.3-0.1-0.4-0.1h-0.6c-0.7,0-1.3,0.2-1.8,0.7c-0.5,0.4-0.7,1-0.7,1.7v5.9
			L195.6,1060.7z M210.9,1051.3l-0.4,1c-0.2,0.6-0.5,1.4-0.9,2.4l-1,2.8c-0.3,0.9-0.6,1.7-0.9,2.4l-0.4,1h-1.5l-3.5-9.5h1.6l2.6,7.8
			h0.1l2.6-7.8L210.9,1051.3z M217,1052.4c-0.7,0-1.4,0.3-1.9,0.8s-0.8,1.3-0.8,2h5.2c0-0.7-0.2-1.4-0.7-2
			C218.3,1052.7,217.7,1052.4,217,1052.4L217,1052.4z M219.5,1058.3h1.5c-0.2,0.8-0.7,1.5-1.4,1.9c-0.8,0.5-1.7,0.7-2.6,0.7
			c-1.2,0.1-2.3-0.4-3.1-1.3c-0.8-1-1.2-2.3-1.2-3.6c-0.1-1.3,0.3-2.6,1.2-3.6c0.8-0.9,1.9-1.4,3.1-1.3c1.1-0.1,2.2,0.4,3,1.3
			c0.8,1,1.2,2.2,1.1,3.5v0.6h-6.8v0.1c0,0.8,0.3,1.6,0.8,2.2c0.5,0.5,1.2,0.8,1.9,0.8c0.5,0,1.1-0.1,1.5-0.3
			C219,1059,219.3,1058.7,219.5,1058.3L219.5,1058.3z"/>
		<path id="_2_" class="st5" d="M83.3,1140.1c-0.1-2.1,0.8-4.2,2.4-5.6c1.7-1.5,3.9-2.3,6.1-2.2c2.1-0.1,4.2,0.7,5.7,2.1
			c1.4,1.3,2.2,3.1,2.2,5c0,1.5-0.4,2.9-1.2,4.1c-1.4,2-3,3.9-4.7,5.6l-6,6.2v0.1h12.4v2.8H83.5v-2.2l8.9-9.3
			c1.3-1.2,2.4-2.6,3.4-4.1c0.5-0.9,0.8-1.9,0.8-3c0-1.2-0.4-2.3-1.3-3.2s-2.2-1.4-3.5-1.3c-1.4,0-2.8,0.5-3.9,1.4
			c-1,0.9-1.6,2.2-1.6,3.6L83.3,1140.1z M108.2,1145.3c-1.5,0.1-2.9-0.6-3.9-1.7c-1-1.4-1.5-3-1.4-4.7c-0.1-1.7,0.4-3.3,1.4-4.7
			c2-2.1,5.3-2.3,7.4-0.3c0.1,0.1,0.2,0.2,0.3,0.3c1,1.3,1.5,3,1.4,4.7c0.1,1.7-0.4,3.4-1.4,4.7
			C111.1,1144.7,109.7,1145.4,108.2,1145.3L108.2,1145.3z M108.2,1143.2c0.8,0,1.6-0.4,2-1.1c0.5-1,0.8-2.1,0.7-3.3
			c0.1-1.1-0.2-2.2-0.7-3.2c-0.6-1.1-2.1-1.5-3.2-0.8c-0.3,0.2-0.6,0.5-0.8,0.8c-0.5,1-0.8,2.1-0.7,3.2c-0.1,1.1,0.2,2.3,0.7,3.3
			C106.6,1142.8,107.4,1143.3,108.2,1143.2L108.2,1143.2z M109.1,1158.1h-2.9l17.7-25.4h2.9L109.1,1158.1z M124.8,1158.4
			c-1.5,0.1-2.9-0.6-3.9-1.7c-1-1.4-1.5-3-1.4-4.7c-0.1-1.7,0.4-3.4,1.4-4.7c2-2.1,5.3-2.3,7.4-0.3c0.1,0.1,0.2,0.2,0.3,0.3
			c1,1.4,1.5,3,1.4,4.7c0.1,1.7-0.4,3.3-1.4,4.7C127.7,1157.8,126.3,1158.4,124.8,1158.4L124.8,1158.4z M124.8,1156.3
			c0.8,0,1.6-0.4,2-1.1c0.5-1,0.8-2.1,0.7-3.3c0.1-1.1-0.2-2.2-0.7-3.2c-0.6-1.1-2.1-1.5-3.2-0.8c-0.3,0.2-0.6,0.5-0.8,0.8
			c-0.5,1-0.8,2.1-0.7,3.2c-0.1,1.1,0.2,2.3,0.7,3.3C123.2,1155.9,124,1156.3,124.8,1156.3L124.8,1156.3z"/>
		<path id="Asset-Manager-Recruitment-Program" class="st1" d="M156,1143.9l-0.2-0.6c-0.1-0.4-0.3-0.8-0.4-1.3s-0.3-0.9-0.4-1.3
			l-0.2-0.6h-5l-1.3,3.6h-1.7l4.7-12.7h1.6l4.7,12.7L156,1143.9z M152.1,1133.3l-0.2,0.6c-0.1,0.4-0.3,0.8-0.5,1.4l-0.6,1.7
			c-0.2,0.6-0.4,1-0.5,1.4l-0.2,0.6h4.1l-2-5.7H152.1z M160,1137.1c0-0.8,0.4-1.5,1-2c0.7-0.5,1.6-0.8,2.5-0.8s1.7,0.2,2.5,0.7
			c0.6,0.4,1,1.1,1.1,1.9h-1.5c-0.1-0.4-0.3-0.7-0.7-0.9c-0.4-0.2-0.9-0.4-1.4-0.3c-0.5,0-1,0.1-1.4,0.4c-0.4,0.2-0.6,0.6-0.6,1
			c0,0.3,0.1,0.6,0.4,0.8c0.4,0.3,0.8,0.4,1.2,0.5l1.5,0.3c0.7,0.1,1.4,0.5,2,0.9c0.4,0.4,0.7,1,0.7,1.6c0,0.8-0.4,1.6-1.1,2.1
			c-0.8,0.6-1.7,0.8-2.7,0.8c-0.9,0-1.8-0.2-2.6-0.7c-0.6-0.4-1.1-1.1-1.1-1.9h1.6c0.1,0.4,0.4,0.8,0.8,1c0.9,0.5,2.1,0.4,3-0.1
			c0.4-0.2,0.6-0.6,0.6-1.1c0-0.3-0.1-0.6-0.4-0.8c-0.3-0.3-0.7-0.4-1.1-0.5l-1.6-0.4c-0.7-0.1-1.4-0.5-2-0.9
			C160.1,1138.2,159.9,1137.7,160,1137.1L160,1137.1z M169.9,1137.1c0-0.8,0.4-1.5,1-2c0.7-0.5,1.6-0.8,2.5-0.8s1.7,0.2,2.5,0.7
			c0.6,0.4,1,1.1,1.1,1.9h-1.5c-0.1-0.4-0.3-0.7-0.7-0.9c-0.4-0.2-0.9-0.4-1.4-0.3c-0.5,0-1,0.1-1.4,0.4c-0.4,0.2-0.6,0.6-0.6,1
			c0,0.3,0.1,0.6,0.4,0.8c0.4,0.3,0.8,0.4,1.2,0.5l1.5,0.3c0.7,0.1,1.4,0.5,2,0.9c0.4,0.4,0.7,1,0.7,1.6c0,0.8-0.4,1.6-1.1,2.1
			c-0.8,0.6-1.7,0.8-2.7,0.8c-0.9,0-1.8-0.2-2.6-0.7c-0.6-0.4-1.1-1.1-1.1-1.9h1.6c0.1,0.4,0.4,0.8,0.8,1c0.9,0.5,2.1,0.4,3-0.1
			c0.4-0.2,0.6-0.6,0.6-1.1c0-0.3-0.1-0.6-0.4-0.8c-0.3-0.3-0.7-0.4-1.1-0.5l-1.6-0.4c-0.7-0.1-1.4-0.4-2-0.9
			C170,1138.2,169.9,1137.6,169.9,1137.1L169.9,1137.1z M184,1135.6c-0.7,0-1.4,0.3-1.9,0.8s-0.8,1.3-0.8,2h5.2c0-0.7-0.2-1.4-0.7-2
			C185.3,1135.9,184.7,1135.6,184,1135.6L184,1135.6z M186.5,1141.5h1.5c-0.2,0.8-0.7,1.5-1.4,1.9c-0.8,0.5-1.7,0.7-2.6,0.7
			c-1.2,0.1-2.3-0.4-3.1-1.3c-1.5-2.1-1.5-5,0-7.1c0.8-0.9,1.9-1.4,3.1-1.3c1.1-0.1,2.2,0.4,3,1.3c0.8,1,1.2,2.2,1.1,3.5v0.6h-6.8
			v0.1c0,0.8,0.3,1.6,0.8,2.2c0.5,0.6,1.2,0.9,1.9,0.8c0.5,0,1.1-0.1,1.5-0.3C185.9,1142.2,186.3,1141.9,186.5,1141.5L186.5,1141.5z
			 M191.8,1132h1.5v2.4h2.1v1.3h-2.1v5.4c0,0.4,0.1,0.9,0.3,1.2c0.3,0.3,0.7,0.4,1.1,0.4h0.4h0.4v1.3l-0.4,0.1h-0.5
			c-0.7,0.1-1.5-0.1-2.1-0.6c-0.5-0.5-0.7-1.2-0.6-1.9v-5.8h-1.5v-1.3h1.5L191.8,1132L191.8,1132z M216.8,1143.9h-1.5v-9.7h-0.1
			l-4,9.6h-1.3l-4-9.6h-0.1v9.7h-1.5v-12.7h1.8l4.3,10.5h0.1l4.3-10.5h1.8L216.8,1143.9z M223.4,1142.8c0.7,0,1.4-0.2,1.9-0.7
			c0.5-0.4,0.8-1,0.8-1.7v-0.9l-2.5,0.2c-1.4,0.1-2.1,0.6-2.1,1.6c0,0.4,0.2,0.9,0.5,1.1C222.5,1142.7,222.9,1142.8,223.4,1142.8
			L223.4,1142.8z M223.1,1144.1c-0.8,0-1.6-0.2-2.3-0.8c-0.6-0.5-0.9-1.3-0.9-2.1c0-1.7,1.1-2.7,3.5-2.8l2.7-0.2v-0.9
			c0-1.2-0.7-1.8-2.1-1.8c-0.5,0-1,0.1-1.4,0.3c-0.4,0.2-0.6,0.5-0.7,0.9h-1.5c0.1-0.8,0.5-1.4,1.2-1.8c0.8-0.5,1.6-0.7,2.5-0.7
			c1-0.1,1.9,0.2,2.7,0.8c0.6,0.6,1,1.4,0.9,2.3v6.5h-1.5v-1.4H226c-0.3,0.5-0.7,0.9-1.2,1.2C224.3,1144,223.7,1144.1,223.1,1144.1
			L223.1,1144.1z M231.1,1143.9v-9.5h1.5v1.5h0.1c0.2-0.5,0.6-0.9,1.1-1.2c1.4-0.7,3.1-0.5,4.2,0.5c0.6,0.7,0.9,1.6,0.9,2.6v6.1
			h-1.5v-5.8c0.1-0.7-0.1-1.3-0.5-1.9c-0.4-0.4-1.1-0.7-1.7-0.6c-0.7,0-1.3,0.2-1.8,0.7c-0.5,0.6-0.7,1.3-0.7,2v5.6H231.1z
			 M245.2,1142.8c0.7,0,1.4-0.2,1.9-0.7c0.5-0.4,0.8-1,0.8-1.7v-0.9l-2.5,0.2c-1.4,0.1-2.1,0.6-2.1,1.6c0,0.4,0.2,0.9,0.5,1.1
			C244.3,1142.7,244.7,1142.8,245.2,1142.8L245.2,1142.8z M245,1144.1c-0.8,0-1.6-0.2-2.3-0.8c-0.6-0.5-0.9-1.3-0.9-2.1
			c0-1.7,1.2-2.7,3.5-2.8l2.7-0.2v-0.9c0-1.2-0.7-1.8-2.2-1.8c-0.5,0-1,0.1-1.4,0.3c-0.4,0.2-0.6,0.5-0.7,0.9h-1.5
			c0.1-0.8,0.5-1.4,1.2-1.8c0.8-0.5,1.6-0.7,2.5-0.7c1-0.1,1.9,0.2,2.7,0.8c0.6,0.6,1,1.4,0.9,2.3v6.5H248v-1.4h-0.1
			c-0.3,0.5-0.7,0.9-1.2,1.2C246.1,1144,245.5,1144.1,245,1144.1L245,1144.1z M256.8,1142.5c0.8,0,1.6-0.3,2.1-0.9
			c1-1.5,1-3.5,0-4.9c-0.5-0.6-1.3-1-2.1-0.9c-0.8,0-1.5,0.3-2,0.9c-0.9,1.5-0.9,3.4,0,4.9C255.2,1142.1,256,1142.5,256.8,1142.5
			L256.8,1142.5z M256.8,1147.6c-1,0-1.9-0.2-2.8-0.7c-0.7-0.4-1.1-1.1-1.2-1.9h1.6c0.1,0.4,0.4,0.7,0.7,0.9
			c0.5,0.3,1.1,0.4,1.6,0.3c0.7,0,1.4-0.2,2-0.6c0.5-0.4,0.8-1,0.7-1.6v-1.8h-0.2c-0.3,0.5-0.7,0.9-1.2,1.2
			c-0.5,0.3-1.1,0.4-1.8,0.4c-1.1,0-2.2-0.4-2.9-1.3c-1.4-2.1-1.4-4.8,0-6.9c0.7-0.9,1.8-1.4,2.9-1.3c0.6,0,1.3,0.1,1.8,0.4
			c0.5,0.3,0.9,0.7,1.2,1.2h0.2v-1.5h1.4v9.7c0,1-0.4,1.9-1.1,2.5C259,1147.3,257.9,1147.6,256.8,1147.6L256.8,1147.6z
			 M268.3,1135.6c-0.7,0-1.4,0.3-1.9,0.8c-0.5,0.6-0.8,1.3-0.8,2h5.3c0-0.7-0.2-1.4-0.7-2C269.7,1135.8,269,1135.6,268.3,1135.6
			L268.3,1135.6z M270.8,1141.4h1.5c-0.2,0.8-0.7,1.5-1.4,1.9c-0.8,0.5-1.7,0.7-2.6,0.7c-1.2,0.1-2.3-0.4-3.1-1.3
			c-1.5-2.1-1.5-5,0-7.1c0.8-0.9,1.9-1.4,3.1-1.3c1.1-0.1,2.2,0.4,3,1.3c0.8,1,1.2,2.2,1.1,3.5v0.6h-6.8v0.1c0,0.8,0.3,1.6,0.8,2.2
			c0.5,0.6,1.2,0.9,1.9,0.8c0.5,0,1.1-0.1,1.5-0.3C270.3,1142.2,270.6,1141.9,270.8,1141.4L270.8,1141.4z M275.5,1143.9v-9.5h1.4
			v1.4h0.1c0.2-0.5,0.5-0.9,1-1.1c0.5-0.3,1.1-0.5,1.7-0.4h0.4h0.4v1.5l-0.4-0.1h-0.6c-0.7,0-1.3,0.2-1.8,0.7
			c-0.5,0.4-0.7,1-0.7,1.7v5.9L275.5,1143.9z M149.5,1161.1v4.8h3.1c0.7,0,1.4-0.2,1.9-0.6c0.5-0.5,0.7-1.1,0.7-1.8
			c0-0.7-0.2-1.3-0.7-1.8s-1.2-0.7-1.9-0.6H149.5z M149.5,1167.4v5h-1.6v-12.7h4.8c1.1-0.1,2.1,0.3,2.9,1c0.7,0.7,1.2,1.7,1.1,2.8
			c0,0.8-0.2,1.6-0.7,2.3c-0.5,0.6-1.1,1.1-1.9,1.3l2.9,5.3h-1.9l-2.7-5H149.5z M163.7,1164.1c-0.7,0-1.4,0.3-1.9,0.8
			c-0.5,0.6-0.8,1.3-0.8,2h5.2c0-0.7-0.3-1.4-0.7-2C165,1164.4,164.4,1164.1,163.7,1164.1L163.7,1164.1z M166.2,1170h1.5
			c-0.2,0.8-0.7,1.5-1.4,1.9c-0.8,0.5-1.7,0.7-2.6,0.7c-1.2,0.1-2.3-0.4-3.1-1.3c-1.5-2.1-1.5-5,0-7.2c0.8-0.9,1.9-1.4,3.1-1.3
			c1.1,0,2.2,0.4,3,1.3c0.8,1,1.2,2.2,1.1,3.5v0.6H161v0.1c0,0.8,0.3,1.6,0.8,2.2c0.5,0.5,1.2,0.8,1.9,0.8c0.5,0,1.1-0.1,1.5-0.3
			C165.6,1170.7,166,1170.4,166.2,1170L166.2,1170z M178.7,1165.8h-1.5c-0.1-0.5-0.4-0.9-0.8-1.2c-1.2-0.8-2.7-0.6-3.7,0.4
			c-1,1.6-1,3.6,0,5.2c0.5,0.6,1.2,1,2,1c0.6,0,1.1-0.1,1.6-0.4c0.4-0.3,0.7-0.7,0.8-1.2h1.5c-0.1,0.8-0.6,1.6-1.2,2.2
			c-0.8,0.6-1.7,0.9-2.7,0.9c-1.2,0.1-2.4-0.4-3.2-1.3c-0.8-1-1.3-2.3-1.2-3.6c-0.1-1.3,0.4-2.6,1.2-3.5s2-1.4,3.2-1.3
			c1-0.1,2,0.3,2.8,0.9C178.1,1164.2,178.6,1165,178.7,1165.8L178.7,1165.8z M181.6,1172.4v-9.5h1.4v1.4h0.1c0.2-0.5,0.5-0.9,1-1.1
			c0.5-0.3,1.1-0.4,1.7-0.4h0.4c0.1,0,0.2,0,0.4,0v1.5c-0.1,0-0.3-0.1-0.4-0.1h-0.5c-0.7,0-1.3,0.2-1.8,0.7c-0.5,0.4-0.7,1-0.7,1.7
			v5.9L181.6,1172.4z M196.8,1162.9v9.5h-1.4v-1.5h-0.1c-0.2,0.5-0.6,0.9-1.1,1.2c-0.6,0.3-1.2,0.5-1.8,0.4
			c-0.9,0.1-1.8-0.3-2.4-0.9c-0.6-0.7-0.9-1.7-0.8-2.6v-6.1h1.5v5.8c-0.1,0.7,0.1,1.3,0.5,1.9c0.4,0.4,1,0.7,1.6,0.6
			c0.7,0,1.4-0.2,1.9-0.7s0.7-1.2,0.7-1.9v-5.7H196.8z M200.4,1172.4v-9.5h1.6v9.5H200.4z M201.1,1161c-0.3,0-0.5-0.1-0.7-0.3
			c-0.2-0.2-0.3-0.5-0.3-0.7c0-0.3,0.1-0.6,0.3-0.8c0.2-0.2,0.5-0.3,0.7-0.3c0.6,0,1,0.4,1.1,0.9c0,0,0,0,0,0.1
			C202.2,1160.5,201.7,1160.9,201.1,1161L201.1,1161z M206.1,1160.5h1.5v2.4h2.1v1.3h-2.1v5.4c0,0.4,0.1,0.9,0.3,1.2
			c0.3,0.3,0.7,0.4,1.1,0.4h0.3h0.4v1.3c-0.1,0-0.3,0-0.4,0.1c-0.1,0-0.3,0-0.5,0c-0.7,0.1-1.5-0.1-2.1-0.6c-0.5-0.5-0.7-1.3-0.6-2
			v-5.8h-1.5v-1.3h1.5V1160.5z M212.6,1172.4v-9.5h1.4v1.5h0.1c0.2-0.5,0.5-0.9,1-1.2c0.5-0.3,1.1-0.5,1.6-0.4
			c0.6,0,1.1,0.1,1.6,0.5c0.4,0.3,0.8,0.7,1,1.2h0.2c0.3-0.5,0.7-0.9,1.2-1.2c0.5-0.3,1.1-0.5,1.8-0.4c0.8-0.1,1.6,0.2,2.2,0.8
			c0.6,0.6,0.8,1.5,0.8,2.3v6.5H224v-6.2c0-0.6-0.1-1.1-0.5-1.6c-0.4-0.4-0.9-0.6-1.5-0.5c-0.6,0-1.2,0.2-1.6,0.7
			c-0.4,0.4-0.6,1-0.6,1.5v6.1h-1.5v-6.4c0-0.5-0.2-1-0.5-1.3c-0.4-0.4-0.9-0.5-1.4-0.5c-0.6,0-1.2,0.2-1.6,0.7
			c-0.4,0.5-0.6,1.1-0.6,1.7v5.9L212.6,1172.4z M232.8,1164.1c-0.7,0-1.4,0.3-1.9,0.8s-0.8,1.3-0.8,2h5.2c0-0.7-0.2-1.4-0.7-2
			C234.1,1164.4,233.4,1164.1,232.8,1164.1L232.8,1164.1z M235.3,1169.9h1.5c-0.2,0.8-0.7,1.5-1.4,1.9c-0.8,0.5-1.7,0.7-2.6,0.7
			c-1.2,0.1-2.3-0.4-3.1-1.3c-0.8-1-1.2-2.3-1.2-3.6c-0.1-1.3,0.3-2.6,1.2-3.6c0.8-0.9,1.9-1.4,3.1-1.3c1.1-0.1,2.2,0.4,3,1.3
			c0.8,1,1.2,2.2,1.1,3.5v0.6h-6.8v0.1c0,0.8,0.3,1.6,0.8,2.2c0.5,0.6,1.2,0.9,1.9,0.8c0.5,0,1-0.1,1.5-0.3
			C234.7,1170.7,235,1170.4,235.3,1169.9L235.3,1169.9z M239.9,1172.4v-9.5h1.4v1.5h0.1c0.2-0.5,0.6-0.9,1.1-1.2
			c0.5-0.3,1.2-0.5,1.8-0.4c0.9-0.1,1.8,0.3,2.5,0.9c0.6,0.7,0.9,1.7,0.8,2.6v6.1h-1.5v-5.8c0.1-0.7-0.1-1.4-0.5-1.9
			c-0.5-0.4-1.1-0.6-1.7-0.6c-0.7,0-1.3,0.2-1.8,0.7s-0.7,1.3-0.7,2v5.6H239.9z M251.7,1160.5h1.5v2.4h2.1v1.3h-2.1v5.4
			c0,0.4,0.1,0.9,0.3,1.2c0.3,0.3,0.7,0.4,1.1,0.4h0.3h0.4v1.3c-0.1,0-0.3,0-0.4,0.1c-0.1,0-0.3,0-0.5,0c-0.7,0.1-1.5-0.1-2.1-0.6
			c-0.5-0.5-0.7-1.3-0.6-2v-5.8h-1.5v-1.3h1.5V1160.5z M264.3,1159.7h4.8c1.1,0,2.2,0.4,2.9,1.2c0.8,0.8,1.2,1.9,1.1,3
			c0,2.2-1.7,4-3.8,4c-0.1,0-0.2,0-0.2,0h-3.2v4.5h-1.6V1159.7z M265.9,1161.1v5.3h2.8c0.8,0,1.5-0.2,2.1-0.7c0.5-0.5,0.8-1.3,0.8-2
			c0.1-0.7-0.2-1.5-0.7-2c-0.6-0.5-1.4-0.7-2.1-0.7L265.9,1161.1z M276.2,1172.4v-9.5h1.4v1.4h0.1c0.2-0.5,0.5-0.9,1-1.1
			c0.5-0.3,1.1-0.4,1.7-0.4h0.4c0.1,0,0.2,0,0.4,0v1.5c-0.1,0-0.3-0.1-0.4-0.1h-0.5c-0.7,0-1.3,0.2-1.8,0.7c-0.5,0.4-0.7,1-0.7,1.7
			v5.9L276.2,1172.4z M287.3,1172.6c-1.2,0.1-2.4-0.4-3.2-1.3c-1.6-2.1-1.6-5,0-7.2c1.8-1.7,4.6-1.7,6.4,0c1.6,2.1,1.6,5.1,0,7.2
			C289.7,1172.2,288.6,1172.7,287.3,1172.6L287.3,1172.6z M287.3,1171.2c0.8,0,1.6-0.3,2.1-0.9c1-1.6,1-3.6,0-5.2
			c-1-1.1-2.8-1.2-3.9-0.2c-0.1,0.1-0.2,0.1-0.2,0.2c-1,1.6-1,3.6,0,5.2C285.8,1170.9,286.5,1171.3,287.3,1171.2L287.3,1171.2z
			 M298.6,1170.9c0.8,0,1.6-0.3,2.1-0.9c1-1.5,1-3.5,0-4.9c-0.5-0.6-1.3-1-2.1-0.9c-0.8,0-1.5,0.3-2,0.9c-0.9,1.5-0.9,3.4,0,4.9
			C297.1,1170.6,297.8,1171,298.6,1170.9L298.6,1170.9z M298.7,1176c-1,0.1-1.9-0.2-2.8-0.7c-0.7-0.4-1.1-1.1-1.2-1.9h1.6
			c0.1,0.4,0.4,0.7,0.7,0.9c0.5,0.3,1.1,0.4,1.6,0.3c0.7,0,1.4-0.2,2-0.6c0.5-0.4,0.7-1,0.7-1.6v-1.9h-0.1c-0.3,0.5-0.7,0.9-1.2,1.2
			c-0.5,0.3-1.1,0.4-1.8,0.4c-1.1,0-2.2-0.4-2.9-1.3c-0.8-1-1.1-2.2-1.1-3.4c-0.1-1.2,0.3-2.5,1.1-3.4c0.7-0.9,1.8-1.4,2.9-1.3
			c0.6,0,1.3,0.1,1.8,0.4c0.5,0.3,0.9,0.7,1.2,1.2h0.1v-1.4h1.5v9.6c0,1-0.4,1.9-1.1,2.5C300.9,1175.8,299.8,1176.1,298.7,1176
			L298.7,1176z M306.4,1172.4v-9.5h1.4v1.4h0.1c0.2-0.5,0.5-0.9,1-1.1c0.5-0.3,1.1-0.4,1.7-0.4h0.4c0.1,0,0.2,0,0.4,0v1.5
			c-0.1,0-0.3-0.1-0.4-0.1h-0.6c-0.7,0-1.3,0.2-1.8,0.7c-0.5,0.4-0.7,1-0.7,1.7v5.9L306.4,1172.4z M316.8,1171.2
			c0.7,0,1.4-0.2,1.9-0.7c0.5-0.4,0.8-1,0.8-1.7v-0.9l-2.5,0.2c-1.4,0.1-2.1,0.6-2.1,1.5c0,0.4,0.2,0.9,0.5,1.1
			C315.9,1171.1,316.3,1171.3,316.8,1171.2L316.8,1171.2z M316.6,1172.6c-0.8,0-1.6-0.2-2.3-0.8c-0.6-0.5-0.9-1.3-0.9-2.1
			c0-1.7,1.2-2.7,3.5-2.8l2.7-0.2v-0.8c0-1.2-0.7-1.8-2.2-1.8c-0.5,0-1,0.1-1.4,0.3c-0.4,0.2-0.6,0.5-0.7,0.9h-1.5
			c0.1-0.8,0.5-1.4,1.2-1.8c0.8-0.5,1.6-0.7,2.5-0.7c1-0.1,1.9,0.2,2.7,0.8c0.6,0.6,1,1.4,0.9,2.3v6.5h-1.4v-1.4h-0.1
			c-0.3,0.5-0.7,0.9-1.2,1.2C317.7,1172.5,317.2,1172.6,316.6,1172.6L316.6,1172.6z M324.6,1172.4v-9.5h1.4v1.5h0.1
			c0.2-0.5,0.5-0.9,1-1.2c0.5-0.3,1.1-0.5,1.6-0.4c1.1,0,2.2,0.6,2.6,1.7h0.1c0.3-0.5,0.7-0.9,1.2-1.2c0.5-0.3,1.1-0.5,1.8-0.4
			c0.8-0.1,1.6,0.2,2.2,0.8s0.8,1.5,0.8,2.3v6.5h-1.5v-6.2c0-0.6-0.1-1.1-0.5-1.6c-0.4-0.4-0.9-0.6-1.5-0.5c-0.6,0-1.2,0.2-1.6,0.7
			c-0.4,0.4-0.6,1-0.6,1.5v6.1h-1.5v-6.4c0-0.5-0.2-1-0.5-1.3c-0.4-0.4-0.9-0.5-1.4-0.5c-0.6,0-1.2,0.2-1.6,0.7s-0.6,1.1-0.6,1.7
			v5.9L324.6,1172.4z"/>
		<path id="_5_" class="st6" d="M91.5,1259.7c-2.2,0.1-4.4-0.6-6.1-2c-1.6-1.3-2.5-3.2-2.6-5.3h3.1c0.1,1.3,0.8,2.5,1.8,3.3
			c1.1,0.9,2.5,1.3,3.9,1.3c1.6,0.1,3.1-0.5,4.2-1.6s1.7-2.6,1.6-4.2c0.1-3.1-2.3-5.6-5.4-5.8c-0.1,0-0.3,0-0.4,0
			c-1.1,0-2.2,0.2-3.2,0.8c-1,0.5-1.8,1.3-2.3,2.3h-2.8l1.3-14.5h14.5v2.8H87.2l-0.9,8.5h0.1c0.6-0.9,1.4-1.5,2.4-1.9
			c1.1-0.5,2.2-0.7,3.4-0.7c4.5-0.1,8.2,3.4,8.4,7.9c0,0.2,0,0.4,0,0.5c0.1,2.3-0.8,4.6-2.5,6.2C96.2,1259,93.9,1259.8,91.5,1259.7z
			 M108.2,1246.5c-1.5,0.1-2.9-0.6-3.9-1.7c-1-1.4-1.5-3-1.4-4.7c-0.1-1.7,0.4-3.3,1.4-4.7c1.9-2.1,5.2-2.3,7.4-0.4
			c0.1,0.1,0.2,0.2,0.4,0.4c1,1.3,1.5,3,1.4,4.7c0.1,1.7-0.4,3.4-1.4,4.7C111.1,1245.9,109.7,1246.6,108.2,1246.5L108.2,1246.5z
			 M108.2,1244.5c0.8,0,1.6-0.4,2-1.1c0.5-1,0.8-2.1,0.7-3.2c0.1-1.1-0.2-2.2-0.7-3.2c-0.7-1.1-2.1-1.5-3.2-0.8
			c-0.3,0.2-0.6,0.5-0.8,0.8c-0.5,1-0.8,2.1-0.7,3.2c-0.1,1.1,0.2,2.2,0.7,3.2C106.6,1244,107.4,1244.5,108.2,1244.5L108.2,1244.5z
			 M109.1,1259.3h-2.9l17.7-25.4h2.9L109.1,1259.3z M124.8,1259.6c-1.5,0.1-2.9-0.6-3.9-1.7c-1-1.4-1.5-3-1.4-4.7
			c-0.1-1.7,0.4-3.4,1.4-4.7c2-2.1,5.3-2.3,7.4-0.3c0.1,0.1,0.2,0.2,0.3,0.3c1,1.4,1.5,3,1.4,4.7c0.1,1.7-0.4,3.3-1.4,4.7
			C127.7,1259,126.3,1259.6,124.8,1259.6L124.8,1259.6z M124.8,1257.5c0.8,0,1.6-0.4,2-1.1c0.9-2.1,0.9-4.4,0-6.5
			c-0.7-1.1-2.1-1.5-3.2-0.8c-0.3,0.2-0.6,0.5-0.8,0.8c-1,2-1,4.4,0,6.5C123.2,1257.1,124,1257.5,124.8,1257.5L124.8,1257.5z"/>
		<path id="Token-Liquidity-Support" class="st1" d="M152.4,1245.2h-1.6v-11.3h-4.1v-1.4h9.8v1.4h-4.1L152.4,1245.2L152.4,1245.2z
			 M161.6,1245.3c-1.2,0.1-2.4-0.4-3.2-1.3c-1.6-2.1-1.6-5,0-7.2c1.8-1.7,4.6-1.7,6.4,0c1.6,2.1,1.6,5,0,7.2
			C163.9,1244.9,162.8,1245.4,161.6,1245.3L161.6,1245.3z M161.6,1244c0.8,0,1.6-0.3,2.1-0.9c1-1.6,1-3.6,0-5.2
			c-1-1.1-2.8-1.2-3.9-0.2c-0.1,0.1-0.2,0.1-0.2,0.2c-1,1.6-1,3.6,0,5.2C160,1243.7,160.8,1244,161.6,1244L161.6,1244z
			 M170.7,1239.8l0.4-0.4l1-1l1.2-1.2l1-1l0.4-0.4h1.9l-4.1,4.1l4.4,5.4H175l-3.5-4.4l-0.9,0.8v3.6h-1.5v-13.4h1.5L170.7,1239.8
			L170.7,1239.8z M182.8,1236.8c-0.7,0-1.4,0.3-1.9,0.8s-0.8,1.3-0.8,2h5.2c0-0.7-0.2-1.4-0.7-2
			C184.1,1237.1,183.4,1236.8,182.8,1236.8z M185.3,1242.7h1.5c-0.2,0.8-0.7,1.5-1.4,1.9c-0.8,0.5-1.7,0.7-2.6,0.7
			c-1.2,0.1-2.3-0.4-3.1-1.3c-1.5-2.1-1.5-5,0-7.1c0.8-0.9,1.9-1.4,3.1-1.3c1.1-0.1,2.2,0.4,3,1.3c0.8,1,1.2,2.2,1.1,3.5v0.6h-6.8
			v0.1c0,0.8,0.3,1.6,0.8,2.2s1.2,0.9,1.9,0.8c0.5,0,1.1-0.1,1.5-0.3C184.7,1243.4,185.1,1243.1,185.3,1242.7z M189.9,1245.2v-9.5
			h1.4v1.5h0.1c0.2-0.5,0.6-0.9,1.1-1.2c0.5-0.3,1.2-0.5,1.8-0.4c0.9-0.1,1.8,0.3,2.5,0.9c0.6,0.7,0.9,1.6,0.9,2.6v6.1h-1.5v-5.8
			c0.1-0.7-0.1-1.4-0.5-1.9c-0.4-0.4-1.1-0.7-1.7-0.6c-0.7,0-1.3,0.2-1.8,0.7s-0.7,1.3-0.7,2v5.6L189.9,1245.2L189.9,1245.2z
			 M214.7,1243.8v1.4H207v-12.7h1.6v11.3H214.7z M217.7,1245.2v-9.5h1.5v9.5H217.7z M218.5,1233.8c-0.3,0-0.5-0.1-0.7-0.3
			c-0.2-0.2-0.3-0.5-0.3-0.8c0-0.3,0.1-0.5,0.3-0.7c0.4-0.4,1.1-0.4,1.5,0c0.2,0.2,0.3,0.5,0.3,0.7c0,0.3-0.1,0.6-0.3,0.8
			C219.1,1233.7,218.8,1233.8,218.5,1233.8L218.5,1233.8z M226.3,1235.5c0.6,0,1.2,0.2,1.8,0.5c0.5,0.3,1,0.7,1.3,1.3h0.1v-1.6h1.5
			v12.6h-1.5v-4.6h-0.1c-0.3,0.5-0.7,0.9-1.2,1.2c-0.5,0.3-1.1,0.4-1.8,0.4c-1.1,0-2.2-0.5-2.9-1.3c-1.4-2.2-1.4-5,0-7.1
			C224.1,1236,225.2,1235.5,226.3,1235.5L226.3,1235.5z M226.6,1244c0.8,0,1.6-0.4,2-1c0.5-0.8,0.8-1.7,0.8-2.6
			c0.1-0.9-0.2-1.8-0.8-2.6c-0.5-0.6-1.2-1-2-1s-1.5,0.3-2,0.9c-1,1.6-1,3.6,0,5.2C225.1,1243.6,225.9,1244,226.6,1244L226.6,1244z
			 M242.1,1235.7v9.5h-1.4v-1.5h-0.1c-0.2,0.5-0.6,0.9-1.1,1.2c-0.6,0.3-1.2,0.5-1.8,0.4c-0.9,0.1-1.8-0.3-2.4-0.9
			c-0.6-0.7-0.9-1.7-0.8-2.6v-6.1h1.5v5.8c-0.1,0.7,0.1,1.3,0.5,1.9c0.4,0.4,1,0.7,1.6,0.6c0.7,0.1,1.4-0.2,1.9-0.7s0.7-1.3,0.7-2
			v-5.6H242.1z M245.7,1245.2v-9.5h1.5v9.5H245.7z M246.4,1233.8c-0.3,0-0.5-0.1-0.7-0.3c-0.2-0.2-0.3-0.5-0.3-0.8
			c0-0.3,0.1-0.5,0.3-0.7c0.4-0.4,1.1-0.4,1.5,0c0.2,0.2,0.3,0.5,0.3,0.7c0,0.3-0.1,0.6-0.3,0.8
			C247,1233.7,246.7,1233.8,246.4,1233.8L246.4,1233.8z M254.2,1245.3c-1.1,0-2.2-0.5-2.9-1.3c-1.4-2.2-1.4-5,0-7.1
			c0.7-0.9,1.8-1.4,2.9-1.3c0.6,0,1.2,0.1,1.8,0.4c0.5,0.3,0.9,0.7,1.2,1.2h0.1v-5.3h1.6v13.2h-1.5v-1.5h-0.1
			c-0.3,0.5-0.7,0.9-1.2,1.2C255.5,1245.2,254.9,1245.3,254.2,1245.3L254.2,1245.3z M254.6,1236.9c-0.8,0-1.5,0.3-2,0.9
			c-1,1.6-1,3.6,0,5.2c0.9,1.1,2.6,1.3,3.7,0.3c0.1-0.1,0.2-0.2,0.3-0.3c1-1.6,1-3.6,0-5.2C256.2,1237.2,255.4,1236.9,254.6,1236.9
			L254.6,1236.9z M262.5,1245.2v-9.5h1.5v9.5H262.5z M263.3,1233.8c-0.3,0-0.6-0.1-0.8-0.3c-0.2-0.2-0.3-0.5-0.3-0.8
			c0-0.3,0.1-0.5,0.3-0.7c0.2-0.2,0.5-0.3,0.8-0.3c0.6,0,1,0.4,1,1S263.8,1233.7,263.3,1233.8L263.3,1233.8z M268.2,1233.3h1.5v2.4
			h2.2v1.3h-2.1v5.4c0,0.4,0.1,0.9,0.3,1.2c0.3,0.3,0.7,0.4,1.1,0.4h0.3h0.3v1.3l-0.4,0.1H271c-0.7,0.1-1.5-0.1-2.1-0.6
			c-0.5-0.5-0.7-1.2-0.6-1.9v-5.8h-1.6v-1.3h1.5L268.2,1233.3z M275.6,1248.6h-0.2h-0.2H275v-1.3h0.3h0.3c0.4,0,0.8-0.1,1-0.3
			c0.3-0.3,0.6-0.8,0.7-1.2l0.2-0.6l-3.5-9.5h1.6l2.6,7.8h0.1l2.6-7.8h1.6l-3.7,10.1c-0.2,0.8-0.7,1.6-1.3,2.3
			C277,1248.4,276.3,1248.6,275.6,1248.6L275.6,1248.6z M290.6,1241.9h1.6c0.1,0.6,0.5,1.2,1,1.6c0.7,0.4,1.5,0.6,2.2,0.6
			c0.8,0,1.5-0.2,2.1-0.6c0.5-0.4,0.8-0.9,0.8-1.6c0-0.5-0.2-1-0.6-1.3c-0.6-0.4-1.2-0.7-1.9-0.9l-1.6-0.4c-0.9-0.2-1.8-0.6-2.5-1.3
			c-0.5-0.6-0.8-1.4-0.8-2.2c0-1,0.4-2,1.2-2.6c0.9-0.7,2.1-1.1,3.3-1c1.1,0,2.2,0.3,3.1,1c0.8,0.6,1.3,1.5,1.3,2.5h-1.6
			c-0.1-0.6-0.4-1.2-0.9-1.5c-0.6-0.4-1.3-0.6-1.9-0.6c-0.7,0-1.4,0.2-2,0.6c-0.5,0.4-0.8,0.9-0.8,1.6c0,0.5,0.2,0.9,0.6,1.2
			c0.6,0.4,1.2,0.7,1.9,0.8l1.3,0.3c1,0.2,2,0.7,2.8,1.3c0.6,0.6,0.9,1.4,0.9,2.2c0,1.1-0.4,2.1-1.3,2.8c-1,0.7-2.2,1.1-3.5,1
			c-1.2,0-2.3-0.3-3.3-1C291.2,1243.8,290.7,1242.9,290.6,1241.9L290.6,1241.9z M310.8,1235.7v9.5h-1.4v-1.5h-0.2
			c-0.2,0.5-0.6,0.9-1.1,1.2c-0.6,0.3-1.2,0.5-1.8,0.4c-0.9,0.1-1.8-0.3-2.4-0.9c-0.6-0.7-0.9-1.7-0.8-2.6v-6.1h1.5v5.8
			c-0.1,0.7,0.1,1.3,0.5,1.9c0.4,0.4,1,0.7,1.6,0.6c0.7,0.1,1.4-0.2,1.9-0.7c0.5-0.6,0.7-1.3,0.7-2v-5.6H310.8z M318.9,1235.5
			c1.1,0,2.2,0.5,2.9,1.3c1.4,2.2,1.4,5,0,7.1c-0.7,0.9-1.8,1.4-2.9,1.3c-0.6,0-1.2-0.1-1.8-0.4c-0.5-0.3-0.9-0.7-1.2-1.2h-0.1v4.6
			h-1.5v-12.6h1.4v1.6h0.1c0.3-0.5,0.7-1,1.3-1.3C317.7,1235.7,318.3,1235.5,318.9,1235.5L318.9,1235.5z M318.6,1244
			c0.8,0,1.5-0.3,2-0.9c1-1.6,1-3.6,0-5.2c-0.5-0.6-1.2-1-2-0.9c-0.8,0-1.5,0.4-2,1c-1,1.6-1,3.6,0,5.2
			C317.1,1243.7,317.8,1244,318.6,1244L318.6,1244z M330.6,1235.5c1.1,0,2.2,0.5,2.9,1.3c1.5,2.2,1.5,5,0,7.1
			c-0.7,0.9-1.8,1.4-2.9,1.3c-0.6,0-1.2-0.1-1.8-0.4c-0.5-0.3-0.9-0.7-1.2-1.2h-0.1v4.6H326v-12.6h1.4v1.6h0.1
			c0.3-0.5,0.7-1,1.3-1.3C329.4,1235.7,330,1235.5,330.6,1235.5L330.6,1235.5z M330.2,1244c0.8,0,1.5-0.3,2-0.9c1-1.6,1-3.6,0-5.2
			c-0.5-0.6-1.2-1-2-0.9c-0.8,0-1.5,0.4-2,1c-1,1.6-1,3.6,0,5.2C328.7,1243.7,329.5,1244,330.2,1244L330.2,1244z M341.5,1245.3
			c-1.2,0.1-2.4-0.4-3.2-1.3c-1.6-2.1-1.6-5,0-7.2c1.8-1.7,4.6-1.7,6.4,0c1.6,2.1,1.6,5,0,7.2
			C343.9,1244.9,342.7,1245.4,341.5,1245.3L341.5,1245.3z M341.5,1244c0.8,0,1.6-0.3,2.1-0.9c1-1.6,1-3.6,0-5.2
			c-1-1.1-2.8-1.2-3.9-0.2c-0.1,0.1-0.2,0.1-0.2,0.2c-1,1.6-1,3.6,0,5.2C339.9,1243.7,340.7,1244,341.5,1244L341.5,1244z
			 M348.9,1245.2v-9.5h1.4v1.4h0.1c0.2-0.5,0.5-0.9,1-1.1c0.5-0.3,1.1-0.5,1.7-0.4h0.4h0.4v1.5c-0.1,0-0.3-0.1-0.4-0.1H353
			c-0.7,0-1.3,0.2-1.8,0.7c-0.5,0.4-0.7,1-0.7,1.7v5.9h-1.6V1245.2z M357.6,1233.3h1.5v2.4h2.1v1.3h-2.1v5.4c0,0.4,0.1,0.9,0.3,1.2
			c0.3,0.3,0.7,0.4,1.1,0.4h0.4h0.4v1.3l-0.4,0.1h-0.5c-0.7,0.1-1.5-0.1-2.1-0.6c-0.5-0.5-0.7-1.2-0.6-1.9v-5.8h-1.5v-1.3h1.5
			L357.6,1233.3z"/>
		<path id="_50_" class="st7" d="M69.4,697.9c-2.2,0.1-4.4-0.7-6.1-2.1c-1.6-1.3-2.5-3.2-2.6-5.3h3.1c0.1,1.3,0.8,2.5,1.8,3.3
			c1.1,0.9,2.5,1.3,3.9,1.3c3.1,0.1,5.7-2.2,5.8-5.3c0-0.2,0-0.3,0-0.5c0.1-3.1-2.3-5.7-5.3-5.8c-0.1,0-0.3,0-0.4,0
			c-1.1,0-2.2,0.2-3.2,0.8c-1,0.5-1.8,1.3-2.3,2.3h-2.8l1.3-14.5h14.5v2.8H65l-0.9,8.5h0.1c0.6-0.9,1.4-1.6,2.4-2
			c3.2-1.3,6.9-0.7,9.4,1.7c1.6,1.6,2.4,3.8,2.4,6c0.1,2.3-0.8,4.6-2.5,6.2C74.1,697.1,71.8,698,69.4,697.9z M90.9,697.9
			c-2.8,0.1-5.4-1.2-6.9-3.5c-1.6-2.4-2.5-5.6-2.5-9.6s0.8-7.2,2.5-9.5c2.7-3.8,7.9-4.7,11.7-2c0.8,0.6,1.5,1.2,2,2
			c1.6,2.4,2.5,5.6,2.5,9.5c0,4-0.8,7.2-2.4,9.6C96.2,696.6,93.7,698,90.9,697.9L90.9,697.9z M90.9,695.1c1.9,0,3.7-1.1,4.5-2.8
			c1.2-2.3,1.7-4.9,1.6-7.5c0.1-2.6-0.4-5.2-1.6-7.5c-0.8-1.7-2.6-2.8-4.5-2.8s-3.7,1.1-4.6,2.8c-2.1,4.8-2.1,10.2,0,15
			C87.2,694.1,89,695.2,90.9,695.1L90.9,695.1z M108.2,684.7c-1.5,0.1-2.9-0.6-3.9-1.8c-1-1.4-1.5-3-1.4-4.7
			c-0.1-1.7,0.4-3.3,1.4-4.7c2-2.1,5.3-2.3,7.4-0.3c0.1,0.1,0.2,0.2,0.3,0.3c1,1.3,1.5,3,1.4,4.7c0.1,1.7-0.4,3.4-1.4,4.7
			C111.1,684.1,109.7,684.8,108.2,684.7z M108.2,682.6c0.8,0,1.6-0.4,2-1.1c0.5-1,0.8-2.1,0.7-3.3c0.1-1.1-0.2-2.2-0.7-3.2
			c-0.6-1.1-2.1-1.5-3.2-0.8c-0.3,0.2-0.6,0.5-0.8,0.8c-0.5,1-0.8,2.1-0.7,3.2c-0.1,1.1,0.2,2.3,0.7,3.3
			C106.6,682.2,107.4,682.6,108.2,682.6z M109.1,697.5h-2.9l17.7-25.4h2.9L109.1,697.5z M124.8,697.8c-1.5,0.1-2.9-0.6-3.9-1.7
			c-1-1.4-1.5-3-1.4-4.7c-0.1-1.7,0.4-3.4,1.4-4.7c2-2.1,5.3-2.3,7.4-0.3c0.1,0.1,0.2,0.2,0.3,0.3c1,1.4,1.5,3,1.4,4.7
			c0.1,1.7-0.4,3.4-1.4,4.7C127.7,697.2,126.3,697.8,124.8,697.8L124.8,697.8z M124.8,695.7c0.8,0,1.6-0.4,2-1.1
			c0.5-1,0.8-2.1,0.7-3.3c0.1-1.1-0.2-2.2-0.7-3.2c-0.6-1.1-2.1-1.5-3.2-0.8c-0.3,0.2-0.6,0.5-0.8,0.8c-0.5,1-0.8,2.1-0.7,3.2
			c-0.1,1.1,0.2,2.3,0.7,3.3C123.2,695.3,124,695.7,124.8,695.7L124.8,695.7z"/>
		<path id="Available-for-Sale" class="st1" d="M156.1,685.3l-0.2-0.5l-0.5-1.3c-0.2-0.5-0.3-0.9-0.4-1.3l-0.2-0.5h-5l-1.3,3.6h-1.7
			l4.7-12.7h1.6l4.7,12.7H156.1z M152.2,674.7l-0.2,0.6c-0.1,0.4-0.3,0.8-0.5,1.4l-0.6,1.7c-0.2,0.6-0.4,1-0.5,1.4l-0.2,0.6h4.1
			l-2-5.7H152.2z M167,675.8l-0.4,1c-0.2,0.6-0.5,1.4-0.9,2.4l-1,2.8l-0.9,2.4l-0.4,1h-1.6l-3.5-9.5h1.6l2.6,7.8h0.1l2.6-7.8
			L167,675.8z M172.2,684.2c0.7,0,1.4-0.2,1.9-0.7c0.5-0.4,0.8-1,0.8-1.7v-0.9l-2.5,0.2c-1.4,0.1-2.1,0.6-2.1,1.5
			c0,0.4,0.2,0.9,0.5,1.1C171.3,684,171.8,684.2,172.2,684.2L172.2,684.2z M171.9,685.5c-0.8,0-1.6-0.2-2.3-0.8
			c-0.6-0.5-0.9-1.3-0.9-2.1c0-1.7,1.1-2.7,3.5-2.8l2.7-0.2v-0.9c0-1.2-0.7-1.8-2.1-1.8c-0.5,0-1,0.1-1.4,0.3
			c-0.4,0.2-0.6,0.5-0.7,0.9h-1.5c0.1-0.8,0.5-1.4,1.2-1.8c0.8-0.5,1.6-0.7,2.5-0.7c1-0.1,1.9,0.2,2.7,0.8c0.6,0.6,1,1.4,0.9,2.3
			v6.5H175v-1.3h-0.1c-0.3,0.5-0.7,0.9-1.2,1.2S172.5,685.5,171.9,685.5z M179.9,685.3v-9.5h1.5v9.5H179.9z M180.7,673.9
			c-0.3,0-0.5-0.1-0.7-0.3s-0.3-0.5-0.3-0.7c0-0.3,0.1-0.6,0.3-0.8s0.5-0.3,0.7-0.3c0.6,0,1,0.4,1.1,0.9v0.1c0,0.3-0.1,0.5-0.3,0.7
			C181.2,673.8,181,673.9,180.7,673.9L180.7,673.9z M185.1,685.3v-13.2h1.5v13.2H185.1z M193.1,684.2c0.7,0,1.4-0.2,1.9-0.7
			c0.5-0.4,0.8-1,0.8-1.7v-0.9l-2.5,0.2c-1.4,0.1-2.1,0.6-2.1,1.5c0,0.4,0.2,0.9,0.5,1.1C192.1,684.1,192.6,684.2,193.1,684.2
			L193.1,684.2z M192.9,685.5c-0.8,0-1.6-0.2-2.3-0.8c-0.6-0.5-0.9-1.3-0.9-2.1c0-1.7,1.1-2.7,3.5-2.8l2.7-0.2v-0.9
			c0-1.2-0.7-1.8-2.1-1.8c-0.5,0-1,0.1-1.4,0.3c-0.3,0.2-0.6,0.5-0.7,0.9h-1.5c0.1-0.8,0.5-1.4,1.2-1.8c0.8-0.5,1.6-0.7,2.5-0.7
			c1-0.1,1.9,0.2,2.7,0.8c0.6,0.6,1,1.4,0.9,2.3v6.5H196v-1.3h-0.1c-0.3,0.5-0.7,0.9-1.2,1.2C194.1,685.3,193.5,685.5,192.9,685.5z
			 M205.6,685.5c-0.6,0-1.2-0.1-1.8-0.5c-0.5-0.3-1-0.7-1.3-1.2h-0.1v1.5h-1.5v-13.2h1.5v5.3h0.1c0.3-0.5,0.7-0.9,1.2-1.2
			c1.6-0.8,3.5-0.5,4.7,0.9c1.4,2.2,1.4,5,0,7.1C207.8,685,206.7,685.5,205.6,685.5L205.6,685.5z M205.2,677c-0.8,0-1.5,0.3-2,1
			c-1,1.6-1,3.6,0,5.2c0.5,0.6,1.2,1,2,1s1.5-0.4,2-1c1-1.6,1-3.6,0-5.2C206.8,677.3,206,677,205.2,677L205.2,677z M212.7,685.3
			v-13.2h1.5v13.2H212.7z M221.6,677c-0.7,0-1.4,0.3-1.9,0.8s-0.8,1.3-0.8,2h5.2c0-0.7-0.2-1.4-0.7-2C223,677.2,222.3,677,221.6,677
			L221.6,677z M224.1,682.9h1.5c-0.2,0.8-0.7,1.5-1.4,1.9c-0.8,0.5-1.7,0.7-2.6,0.7c-1.2,0.1-2.3-0.4-3.1-1.3c-1.5-2.1-1.5-5,0-7.1
			c0.8-0.9,1.9-1.4,3.1-1.3c1.1-0.1,2.2,0.4,3,1.3c0.8,1,1.2,2.2,1.1,3.5v0.6h-6.8v0.1c0,0.8,0.3,1.6,0.8,2.2
			c0.5,0.5,1.2,0.8,1.9,0.8c0.5,0,1.1-0.1,1.5-0.3C223.6,683.6,223.9,683.3,224.1,682.9L224.1,682.9z M148.4,715.3v-8.2h-1.6v-1.3
			h1.6v-1.1c-0.1-0.8,0.2-1.5,0.7-2.1c0.6-0.5,1.3-0.7,2-0.7c0.2,0,0.4,0,0.5,0c0.2,0,0.3,0,0.5,0.1v1.2h-0.3h-0.4
			c-0.4,0-0.9,0.1-1.2,0.4s-0.4,0.8-0.4,1.2v1h2.2v1.3h-2.2v8.2L148.4,715.3z M158.4,715.5c-1.2,0.1-2.4-0.4-3.2-1.3
			c-1.6-2.1-1.6-5,0-7.2c1.8-1.7,4.6-1.7,6.4,0c1.6,2.1,1.6,5,0,7.2C160.8,715.1,159.6,715.6,158.4,715.5L158.4,715.5z M158.4,714.1
			c0.8,0,1.6-0.3,2.1-0.9c1-1.6,1-3.6,0-5.2c-1-1.1-2.8-1.2-3.9-0.2c-0.1,0.1-0.2,0.1-0.2,0.2c-1,1.6-1,3.6,0,5.2
			C156.8,713.8,157.6,714.1,158.4,714.1L158.4,714.1z M165.8,715.3v-9.5h1.4v1.4h0.1c0.2-0.5,0.5-0.9,1-1.1c0.5-0.3,1.1-0.4,1.7-0.4
			h0.4h0.4v1.5h-0.4h-0.5c-0.7,0-1.3,0.2-1.8,0.7c-0.5,0.4-0.7,1-0.7,1.7v5.9L165.8,715.3z M178.7,712h1.6c0.1,0.6,0.5,1.2,1,1.6
			c0.7,0.4,1.4,0.6,2.2,0.6s1.5-0.2,2.1-0.6c0.5-0.3,0.8-0.9,0.8-1.6c0-0.5-0.2-1-0.6-1.3c-0.6-0.4-1.2-0.7-1.9-0.9l-1.6-0.4
			c-0.9-0.2-1.8-0.6-2.5-1.3c-0.5-0.6-0.8-1.4-0.8-2.2c0-1,0.4-2,1.2-2.6c0.9-0.7,2.1-1.1,3.2-1c1.1,0,2.2,0.3,3.1,1
			c0.8,0.6,1.3,1.5,1.3,2.5h-1.6c-0.1-0.6-0.4-1.2-0.9-1.5c-0.6-0.4-1.3-0.6-2-0.5c-0.7,0-1.4,0.2-2,0.6c-0.5,0.4-0.8,0.9-0.8,1.5
			c0,0.5,0.2,0.9,0.6,1.2c0.6,0.4,1.2,0.7,1.9,0.8l1.3,0.3c1,0.2,2,0.7,2.8,1.3c0.6,0.6,0.9,1.4,0.9,2.2c0,1.1-0.4,2.1-1.3,2.8
			c-1,0.7-2.2,1.1-3.5,1c-1.2,0-2.3-0.3-3.3-1C179.2,714,178.7,713,178.7,712L178.7,712z M194.1,714.2c0.7,0,1.4-0.2,1.9-0.7
			c0.5-0.4,0.8-1,0.8-1.7v-0.9l-2.5,0.2c-1.4,0.1-2.1,0.6-2.1,1.5c0,0.4,0.2,0.9,0.5,1.1C193.1,714.1,193.6,714.2,194.1,714.2z
			 M193.8,715.5c-0.8,0-1.6-0.2-2.3-0.8c-0.6-0.5-0.9-1.3-0.9-2.1c0-1.7,1.2-2.7,3.5-2.8l2.7-0.2v-0.7c0-1.2-0.7-1.8-2.1-1.8
			c-0.5,0-1,0.1-1.4,0.3c-0.3,0.2-0.6,0.5-0.7,0.9H191c0.1-0.8,0.5-1.4,1.2-1.8c0.8-0.5,1.6-0.7,2.5-0.7c1-0.1,1.9,0.2,2.7,0.8
			c0.6,0.6,1,1.4,0.9,2.3v6.5h-1.4v-1.5h-0.1c-0.3,0.5-0.7,0.9-1.2,1.2C195,715.4,194.4,715.5,193.8,715.5L193.8,715.5z
			 M201.9,715.3V702h1.5v13.2L201.9,715.3z M210.8,707c-0.7,0-1.4,0.3-1.9,0.8s-0.8,1.3-0.8,2h5.2c0-0.7-0.2-1.4-0.7-2
			C212.2,707.3,211.5,707,210.8,707L210.8,707z M213.3,712.9h1.5c-0.2,0.8-0.7,1.5-1.4,1.9c-0.8,0.5-1.7,0.7-2.6,0.7
			c-1.2,0.1-2.3-0.4-3.1-1.3c-1.5-2.1-1.5-5,0-7.1c0.8-0.9,1.9-1.4,3.1-1.3c1.1-0.1,2.2,0.4,3,1.3c0.8,1,1.2,2.2,1.1,3.5v0.6h-6.8
			v0.1c0,0.8,0.3,1.6,0.8,2.2c0.5,0.5,1.2,0.8,1.9,0.8c0.5,0,1.1-0.1,1.5-0.3C212.8,713.6,213.1,713.3,213.3,712.9L213.3,712.9z"/>
		<polyline id="Stroke-39" class="st8" points="110,535.3 102.5,542.3 102.5,626.6 		"/>
	</g>
</g>
<g id="Templates">
	<g id="CINDEX-DT" transform="translate(-180.000000, -1305.000000)">
		<g id="Intro-Text" transform="translate(53.000000, 111.000000)">
			<g id="Pre-Sale-Details" transform="translate(3.000000, 799.000000)">
				<g id="Distribution" transform="translate(123.000000, 395.000000)">
					<g id="pieChart">
						<g id="CHART-itself" transform="translate(133.000000, 0.000000)">
							<g>
								<g id="Group-7">
									<g id="Clip-6">
									</g>
									<defs>
										<filter id="Adobe_OpacityMaskFilter" filterUnits="userSpaceOnUse" x="-384" y="-139" width="1042" height="786">
											<feColorMatrix  type="matrix" values="1 0 0 0 0  0 1 0 0 0  0 0 1 0 0  0 0 0 1 0"/>
										</filter>
									</defs>
									<mask maskUnits="userSpaceOnUse" x="-384" y="-139" width="1042" height="786" id="mask-2_2_">
										<g class="st9">
											<path id="path-1_2_" class="st1" d="M137,116.2c-98.2,0-177.8,79.6-177.8,177.8S38.8,471.7,137,471.7V531
												C6.1,531-100,424.9-100,294S6.1,57,137,57V116.2z"/>
										</g>
									</mask>
									
										<linearGradient id="Fill-5_1_" gradientUnits="userSpaceOnUse" x1="-638.1094" y1="1667.6222" x2="-638.1094" y2="1667.0166" gradientTransform="matrix(1042 0 0 -786 665047 1310807)">
										<stop  offset="0" style="stop-color:#00FBC0"/>
										<stop  offset="1" style="stop-color:#0088C1"/>
									</linearGradient>
									<polygon id="Fill-5" class="st10" points="-384,647 658,647 658,-139 -384,-139 									"/>
								</g>
								<g id="Group-10" transform="translate(237.000000, 406.000000)">
									<g id="Clip-9">
									</g>
									<defs>
										<filter id="Adobe_OpacityMaskFilter_1_" filterUnits="userSpaceOnUse" x="-621" y="-545" width="1042" height="786">
											<feColorMatrix  type="matrix" values="1 0 0 0 0  0 1 0 0 0  0 0 1 0 0  0 0 0 1 0"/>
										</filter>
									</defs>
									<mask maskUnits="userSpaceOnUse" x="-621" y="-545" width="1042" height="786" id="mask-5_2_">
										<g class="st11">
											<path id="path-4_2_" class="st1" d="M-100,65.7c18.7,0,37.2-2.9,54.9-8.7l18.3,56.4C-50.4,121.1-75.1,125-100,125V65.7z"
												/>
										</g>
									</mask>
									
										<linearGradient id="Fill-8_1_" gradientUnits="userSpaceOnUse" x1="-875.1094" y1="1261.1056" x2="-875.1094" y2="1261.0187" gradientTransform="matrix(1042 0 0 -786 911764 991285)">
										<stop  offset="0" style="stop-color:#FFF161"/>
										<stop  offset="1" style="stop-color:#93B320"/>
									</linearGradient>
									<polygon id="Fill-8" class="st12" points="-621,241 421,241 421,-545 -621,-545 									"/>
								</g>
								<g id="Group-13" transform="translate(291.000000, 397.000000)">
									<g id="Clip-12">
									</g>
									<defs>
										<filter id="Adobe_OpacityMaskFilter_2_" filterUnits="userSpaceOnUse" x="-675" y="-536" width="1042" height="786">
											<feColorMatrix  type="matrix" values="1 0 0 0 0  0 1 0 0 0  0 0 1 0 0  0 0 0 1 0"/>
										</filter>
									</defs>
									<mask maskUnits="userSpaceOnUse" x="-675" y="-536" width="1042" height="786" id="mask-8_2_">
										<g class="st13">
											<path id="path-7_2_" class="st1" d="M-99.1,66c7.1-2.3,14-5,20.8-8.2l25.2,53.6c-9,4.2-18.2,7.9-27.7,11L-99.1,66z"/>
										</g>
									</mask>
									
										<linearGradient id="Fill-11_1_" gradientUnits="userSpaceOnUse" x1="-929.1094" y1="1270.116" x2="-929.1094" y2="1270.0314" gradientTransform="matrix(1042 0 0 -786 967978 998368)">
										<stop  offset="0" style="stop-color:#FC5AA5"/>
										<stop  offset="1" style="stop-color:#CA0666"/>
									</linearGradient>
									<polygon id="Fill-11" class="st14" points="-675,250 367,250 367,-536 -675,-536 									"/>
								</g>
								<g id="Group-16" transform="translate(312.000000, 270.000000)">
									<g id="Clip-15">
									</g>
									<defs>
										<filter id="Adobe_OpacityMaskFilter_3_" filterUnits="userSpaceOnUse" x="-696" y="-409" width="1042" height="786">
											<feColorMatrix  type="matrix" values="1 0 0 0 0  0 1 0 0 0  0 0 1 0 0  0 0 0 1 0"/>
										</filter>
									</defs>
									<mask maskUnits="userSpaceOnUse" x="-696" y="-409" width="1042" height="786" id="mask-11_2_">
										<g class="st15">
											<path id="path-10_2_" class="st1" d="M-99.3,184.8C-47.8,160.6-11,113.2-0.4,57.3l58.2,11.1
												c-14.2,74.5-63.2,137.7-131.9,170L-99.3,184.8z"/>
										</g>
									</mask>
									
										<linearGradient id="Fill-14_1_" gradientUnits="userSpaceOnUse" x1="-950.1094" y1="1397.2782" x2="-950.1094" y2="1397.0453" gradientTransform="matrix(1042 0 0 -786 989839 1098317)">
										<stop  offset="0" style="stop-color:#F0D51A"/>
										<stop  offset="1" style="stop-color:#DF6C10"/>
									</linearGradient>
									<polygon id="Fill-14" class="st16" points="-696,377 346,377 346,-409 -696,-409 									"/>
								</g>
								<g id="Group-19" transform="translate(411.000000, 192.000000)">
									<g id="Clip-18">
									</g>
									<defs>
										<filter id="Adobe_OpacityMaskFilter_4_" filterUnits="userSpaceOnUse" x="-795" y="-331" width="1042" height="786">
											<feColorMatrix  type="matrix" values="1 0 0 0 0  0 1 0 0 0  0 0 1 0 0  0 0 0 1 0"/>
										</filter>
									</defs>
									<mask maskUnits="userSpaceOnUse" x="-795" y="-331" width="1042" height="786" id="mask-14_2_">
										<g class="st17">
											<path id="path-13_2_" class="st1" d="M-99.4,135.3c4.2-22,4.2-44.6,0-66.6l58.2-11.1c5.6,29.3,5.6,59.5,0,88.8
												L-99.4,135.3z"/>
										</g>
									</mask>
									
										<linearGradient id="Fill-17_1_" gradientUnits="userSpaceOnUse" x1="-1049.1094" y1="1475.3771" x2="-1049.1094" y2="1475.2616" gradientTransform="matrix(1042 0 0 -786 1092898 1159703)">
										<stop  offset="0" style="stop-color:#ABDB3C"/>
										<stop  offset="1" style="stop-color:#5F9C18"/>
									</linearGradient>
									<polygon id="Fill-17" class="st18" points="-795,455 247,455 247,-331 -795,-331 									"/>
								</g>
								<g id="Group-22" transform="translate(409.000000, 178.000000)">
									<g id="Clip-21">
									</g>
									<defs>
										<filter id="Adobe_OpacityMaskFilter_5_" filterUnits="userSpaceOnUse" x="-793" y="-317" width="1042" height="786">
											<feColorMatrix  type="matrix" values="1 0 0 0 0  0 1 0 0 0  0 0 1 0 0  0 0 0 1 0"/>
										</filter>
									</defs>
									<mask maskUnits="userSpaceOnUse" x="-793" y="-317" width="1042" height="786" id="mask-17_2_">
										<g class="st19">
											<path id="path-16_2_" class="st1" d="M-97.4,82.7c-0.7-3.7-1.5-7.3-2.4-10.9L-42.4,57c1.2,4.8,2.3,9.7,3.2,14.5
												L-97.4,82.7z"/>
										</g>
									</mask>
									
										<linearGradient id="Fill-20_1_" gradientUnits="userSpaceOnUse" x1="-1047.1094" y1="1489.3956" x2="-1047.1094" y2="1489.3605" gradientTransform="matrix(1042 0 0 -786 1090816 1170721)">
										<stop  offset="0" style="stop-color:#FC987E"/>
										<stop  offset="1" style="stop-color:#E3745C"/>
									</linearGradient>
									<polygon id="Fill-20" class="st20" points="-793,469 249,469 249,-317 -793,-317 									"/>
								</g>
								<g id="Group-25" transform="translate(237.000000, 0.000000)">
									<g id="Clip-24">
									</g>
									<defs>
										<filter id="Adobe_OpacityMaskFilter_6_" filterUnits="userSpaceOnUse" x="-621" y="-139" width="1042" height="786">
											<feColorMatrix  type="matrix" values="1 0 0 0 0  0 1 0 0 0  0 0 1 0 0  0 0 0 1 0"/>
										</filter>
									</defs>
									<mask maskUnits="userSpaceOnUse" x="-621" y="-139" width="1042" height="786" id="mask-20_2_">
										<g class="st21">
											<path id="path-19_2_" class="st1" d="M72.2,249.8C52,171.2-18.8,116.2-100,116.2V57C8.2,57,102.7,130.3,129.6,235
												L72.2,249.8z"/>
										</g>
									</mask>
									
										<linearGradient id="Fill-23_1_" gradientUnits="userSpaceOnUse" x1="-875.1094" y1="1667.6179" x2="-875.1094" y2="1667.38" gradientTransform="matrix(1042 0 0 -786 911764 1310807)">
										<stop  offset="0" style="stop-color:#A6BDFF"/>
										<stop  offset="1" style="stop-color:#6300D0"/>
									</linearGradient>
									<polygon id="Fill-23" class="st22" points="-621,647 421,647 421,-139 -621,-139 									"/>
								</g>
							</g>
						</g>
					</g>
				</g>
			</g>
		</g>
	</g>
</g>
</svg>
