<?xml version="1.0" encoding="utf-8" ?>
<svg xmlns="http://www.w3.org/2000/svg" xmlns:xlink="http://www.w3.org/1999/xlink" width="579" height="353">
	<defs>
		<clipPath id="clip_0">
			<rect x="-692" y="-7858" width="1380" height="16000" clip-rule="evenodd"/>
		</clipPath>
	</defs>
	<g clip-path="url(#clip_0)">
		<path fill="rgb(69,1,157)" stroke="none" transform="translate(435 314)" d="M0 0L72 0L72 37L0 37L0 0Z"/>
	</g>
	<defs>
		<clipPath id="clip_1">
			<rect x="-692" y="-7858" width="1380" height="16000" clip-rule="evenodd"/>
		</clipPath>
	</defs>
	<g clip-path="url(#clip_1)">
		<path fill="rgb(78,255,215)" stroke="none" transform="translate(433 0)" d="M73 0L1 0L1 2L73 2L73 0ZM145 311L73 311L73 313L145 313L145 311Z" fill-rule="evenodd"/>
	</g>
	<defs>
		<clipPath id="clip_2">
			<rect x="-692" y="-7858" width="1380" height="16000" clip-rule="evenodd"/>
		</clipPath>
		<linearGradient id="gradient_0" gradientUnits="userSpaceOnUse" x1="105.45293" y1="231.39516" x2="395.27408" y2="1.2254335">
			<stop offset="0" stop-color="rgb(70,120,185)"/>
			<stop offset="1" stop-color="rgb(73,174,239)"/>
		</linearGradient>
	</defs>
	<g clip-path="url(#clip_2)">
		<path fill="url(#gradient_0)" stroke="none" transform="translate(146 131)" d="M360 0L288 0L288 110L360 110L360 0ZM216 192L288 192L288 205L216 205L216 192ZM144 207L216 207L216 205L144 205L144 201L72 201L72 210L144 210L144 207ZM360 196L432 196L432 209L360 209L360 196ZM72 218L0 218L0 220L72 220L72 218Z" fill-rule="evenodd"/>
	</g>
	<defs>
		<clipPath id="clip_3">
			<rect x="-692" y="-7858" width="1380" height="16000" clip-rule="evenodd"/>
		</clipPath>
		<linearGradient id="gradient_1" gradientUnits="userSpaceOnUse" x1="-158.23256" y1="308" x2="298.04651" y2="0">
			<stop offset="0" stop-color="rgb(48,34,173)"/>
			<stop offset="0.47523499" stop-color="rgb(82,160,253)"/>
			<stop offset="1" stop-color="rgb(177,225,242)"/>
		</linearGradient>
	</defs>
	<g clip-path="url(#clip_3)">
		<path fill="url(#gradient_1)" stroke="none" transform="translate(290 93)" d="M216 0L144 0L144 38L216 38L216 0ZM144 227L72 227L72 230L144 230L144 227ZM216 230L288 230L288 234L216 234L216 230ZM72 241L0 241L0 243L72 243L72 241Z" fill-rule="evenodd"/>
	</g>
	<defs>
		<clipPath id="clip_4">
			<rect x="-692" y="-7858" width="1380" height="16000" clip-rule="evenodd"/>
		</clipPath>
		<linearGradient id="gradient_2" gradientUnits="userSpaceOnUse" x1="385.95023" y1="100.99609" x2="-178.32558" y2="182.99998">
			<stop offset="0" stop-color="rgb(239,229,165)"/>
			<stop offset="1" stop-color="rgb(138,88,74)"/>
		</linearGradient>
	</defs>
	<g clip-path="url(#clip_4)">
		<path fill="url(#gradient_2)" stroke="none" transform="translate(218 55)" d="M216 0L288 0L288 38L216 38L216 0ZM360 261L288 261L288 268L360 268L360 261ZM144 262L216 262L216 265L144 265L144 262ZM0 271L72 271L72 277L0 277L0 271ZM72 277L72 279L144 279L144 277L72 277Z" fill-rule="evenodd"/>
	</g>
	<defs>
		<clipPath id="clip_5">
			<rect x="-692" y="-7858" width="1380" height="16000" clip-rule="evenodd"/>
		</clipPath>
	</defs>
	<g clip-path="url(#clip_5)">
		<path fill="rgb(181,201,170)" stroke="none" transform="translate(362 19)" d="M72 0L144 0L144 36L72 36L72 0ZM216 294L144 294L144 297L216 297L216 294ZM0 295L72 295L72 298L0 298L0 295Z" fill-rule="evenodd"/>
	</g>
	<defs>
		<clipPath id="clip_6">
			<rect x="-692" y="-7858" width="1380" height="16000" clip-rule="evenodd"/>
		</clipPath>
		<linearGradient id="gradient_3" gradientUnits="userSpaceOnUse" x1="640.9173" y1="229" x2="377.35818" y2="16.236994">
			<stop offset="0" stop-color="rgb(42,1,94)"/>
			<stop offset="1" stop-color="rgb(64,104,194)"/>
		</linearGradient>
	</defs>
	<g clip-path="url(#clip_6)">
		<path fill="url(#gradient_3)" stroke="none" transform="translate(0 241)" d="M434 0L506 0L506 99L578 99L578 112L146 112L146 110L218 110L218 100L290 100L290 97L362 97L362 95L434 95L434 0ZM0 110L72 110L72 112L0 112L0 110Z" fill-rule="evenodd"/>
	</g>
	<defs>
		<clipPath id="clip_7">
			<rect x="-692" y="-7858" width="1380" height="16000" clip-rule="evenodd"/>
		</clipPath>
	</defs>
	<g clip-path="url(#clip_7)">
		<path fill="rgb(215,246,166)" stroke="none" transform="translate(434 2)" d="M0 0L72 0L72 17L0 17L0 0Z"/>
	</g>
</svg>
