<?xml version="1.0" encoding="utf-8"?>
<!-- Generator: Adobe Illustrator 22.0.0, SVG Export Plug-In . SVG Version: 6.00 Build 0)  -->
<svg version="1.1" id="Слой_1" xmlns="http://www.w3.org/2000/svg" xmlns:xlink="http://www.w3.org/1999/xlink" x="0px" y="0px"
	 viewBox="0 0 467 239" style="enable-background:new 0 0 467 239;" xml:space="preserve">
<style type="text/css">
	.st0{enable-background:new    ;}
	.st1{fill:#4EFFD7;}
	.st2{fill:url(#SVGID_1_);}
	.st3{fill:#FFFFFF;}
</style>
<g>
	<g class="st0">
		<path class="st1" d="M11.2,134.8v-1.2l5.1-6.4c0.5-0.6,0.7-1.2,0.7-1.9c0-1.4-0.8-2.3-2.2-2.3c-1.2,0-2.2,0.7-2.2,2.3h-1.3
			c0-2,1.4-3.5,3.5-3.5s3.5,1.3,3.5,3.5c0,1-0.3,1.7-1,2.6l-4.5,5.7h5.5v1.2H11.2z"/>
		<path class="st1" d="M24.1,134.9c-2.2,0-3.6-1.5-3.6-3.7c0-0.9,0.3-1.8,0.8-2.9l3.2-6.4h1.3l-2.9,5.8c0.4-0.2,0.8-0.3,1.4-0.3
			c2,0,3.3,1.5,3.3,3.6C27.7,133.3,26.3,134.9,24.1,134.9z M24.1,128.6c-1.4,0-2.3,1-2.3,2.6s0.9,2.6,2.3,2.6s2.3-1,2.3-2.6
			C26.4,129.8,25.6,128.6,24.1,128.6z"/>
		<path class="st1" d="M30.4,134.8v-1.7h1.7v1.7H30.4z"/>
		<path class="st1" d="M37.7,134.8h-1.4l4.4-11.7h-4.5v2H35V122h7.1v1.2L37.7,134.8z"/>
	</g>
</g>
<g>
	<g class="st0">
		<path class="st1" d="M65.1,87.8v2h-1.3v-2h-5.1v-1.2l4.6-9.6h1.4l-4.6,9.6h3.7V83h1.3v3.6h1.6v1.2C66.7,87.8,65.1,87.8,65.1,87.8z
			"/>
		<path class="st1" d="M71.4,89.8H70l4.4-11.7H70v2h-1.3V77h7.1v1.2L71.4,89.8z"/>
		<path class="st1" d="M78.4,89.8v-1.7H80v1.7H78.4z"/>
		<path class="st1" d="M86.3,89.8V78.4l-2.4,2.1V79l2.4-2.1h1.3v12.8L86.3,89.8L86.3,89.8z"/>
	</g>
</g>
<g>
	<g class="st0">
		<path class="st1" d="M108.5,110.9c-2,0-3.7-1.1-3.8-3.4h1.3c0.1,1.6,1.2,2.2,2.5,2.2c1.4,0,2.5-0.9,2.5-2.5c0-1.5-0.8-2.5-2.5-2.5
			h-0.3v-1.1h0.3c1.6,0,2.3-0.9,2.3-2.3c0-1.5-1-2.3-2.2-2.3c-1.4,0-2.2,0.8-2.3,2.1H105c0.1-2.1,1.7-3.3,3.6-3.3
			c2.1,0,3.5,1.4,3.5,3.5c0,1.4-0.6,2.3-1.7,2.8c1.3,0.5,2,1.5,2,3.1C112.3,109.7,110.6,110.9,108.5,110.9z"/>
		<path class="st1" d="M118.1,110.9c-2.1,0-3.8-1.5-3.8-3.6c0-1.5,0.8-2.5,1.9-3.1c-1-0.6-1.7-1.5-1.7-2.8c0-2,1.5-3.4,3.5-3.4
			s3.5,1.4,3.5,3.4c0,1.3-0.6,2.3-1.7,2.8c1.1,0.6,1.9,1.6,1.9,3.1C121.9,109.4,120.2,110.9,118.1,110.9z M118.1,104.8
			c-1.4,0-2.5,1.1-2.5,2.5s1.1,2.5,2.5,2.5s2.5-1.1,2.5-2.5C120.6,105.8,119.5,104.8,118.1,104.8z M118.1,99c-1.3,0-2.2,1-2.2,2.3
			c0,1.4,0.9,2.3,2.2,2.3c1.3,0,2.2-0.9,2.2-2.3C120.3,100,119.4,99,118.1,99z"/>
		<path class="st1" d="M124.4,110.8v-1.7h1.7v1.7H124.4z"/>
		<path class="st1" d="M134.9,110c-0.6,0.6-1.4,1-2.6,1c-1.1,0-2-0.4-2.6-0.9c-0.6-0.6-0.8-1.3-0.9-2.2h1.3c0.2,1.3,0.8,2,2.2,2
			c0.6,0,1.2-0.2,1.6-0.6c0.7-0.7,0.7-1.7,0.7-2.6c0-1.6-0.3-3.1-2.2-3.1c-1.1,0-1.9,0.5-2.1,1.3h-1.2V98h6.5v1.2h-5.3v4.1
			c0.5-0.6,1.3-0.9,2.3-0.9s1.7,0.3,2.2,0.8c0.9,0.9,1.1,2.2,1.1,3.4C136,107.9,135.8,109.1,134.9,110z"/>
	</g>
</g>
<g>
	<g class="st0">
		<path class="st1" d="M162.8,64c-0.6,0.6-1.4,1-2.6,1c-1.1,0-2-0.4-2.6-0.9c-0.6-0.6-0.8-1.3-0.9-2.2h1.3c0.2,1.3,0.8,2,2.2,2
			c0.6,0,1.2-0.2,1.6-0.6c0.7-0.7,0.7-1.7,0.7-2.6c0-1.6-0.3-3.1-2.2-3.1c-1.1,0-1.9,0.5-2.1,1.3H157V52h6.5v1.2h-5.3v4.1
			c0.5-0.6,1.3-0.9,2.3-0.9s1.7,0.3,2.2,0.8c0.9,0.9,1.1,2.2,1.1,3.4C163.8,61.9,163.7,63.1,162.8,64z"/>
		<path class="st1" d="M168.9,64.8h-1.4l4.4-11.7h-4.5v2h-1.3V52h7.1v1.2L168.9,64.8z"/>
	</g>
</g>
<g>
	<g class="st0">
		<path class="st1" d="M200,50.9c-2.2,0-3.6-1.5-3.6-3.7c0-0.9,0.3-1.8,0.8-2.9l3.2-6.4h1.3l-2.9,5.8c0.4-0.2,0.8-0.3,1.4-0.3
			c2,0,3.3,1.5,3.3,3.6C203.5,49.3,202.1,50.9,200,50.9z M199.9,44.6c-1.4,0-2.3,1-2.3,2.6s0.9,2.6,2.3,2.6s2.3-1,2.3-2.6
			C202.2,45.7,201.4,44.6,199.9,44.6z"/>
		<path class="st1" d="M205.8,50.8v-1.2l5.1-6.4c0.5-0.6,0.7-1.2,0.7-1.9c0-1.4-0.8-2.3-2.2-2.3c-1.2,0-2.2,0.7-2.2,2.3h-1.3
			c0-2,1.4-3.5,3.5-3.5s3.5,1.4,3.5,3.5c0,1-0.3,1.7-1,2.6l-4.5,5.7h5.5v1.2C212.9,50.8,205.8,50.8,205.8,50.8z"/>
		<path class="st1" d="M215.6,50.8v-1.7h1.7v1.7H215.6z"/>
		<path class="st1" d="M226,48.8v2h-1.3v-2h-5.1v-1.2l4.6-9.6h1.4l-4.6,9.6h3.7V44h1.3v3.6h1.6v1.2H226z"/>
	</g>
</g>
<g>
	<g class="st0">
		<path class="st1" d="M247.3,35.9c-2.2,0-3.6-1.5-3.6-3.7c0-0.9,0.3-1.8,0.8-2.9l3.2-6.4h1.3l-2.9,5.8c0.4-0.2,0.8-0.3,1.4-0.3
			c2,0,3.3,1.5,3.3,3.6C250.9,34.3,249.5,35.9,247.3,35.9z M247.3,29.6c-1.4,0-2.3,1-2.3,2.6c0,1.6,0.9,2.6,2.3,2.6s2.3-1,2.3-2.6
			C249.6,30.8,248.8,29.6,247.3,29.6z"/>
		<path class="st1" d="M256.7,35.9c-2.1,0-3.8-1.5-3.8-3.6c0-1.5,0.8-2.5,1.9-3.1c-1-0.6-1.7-1.5-1.7-2.8c0-2,1.5-3.4,3.5-3.4
			s3.5,1.4,3.5,3.4c0,1.3-0.6,2.3-1.7,2.8c1.1,0.6,1.9,1.6,1.9,3.1C260.5,34.4,258.8,35.9,256.7,35.9z M256.7,29.8
			c-1.4,0-2.5,1.1-2.5,2.5c0,1.4,1.1,2.5,2.5,2.5s2.5-1.1,2.5-2.5C259.2,30.8,258.1,29.8,256.7,29.8z M256.7,24
			c-1.3,0-2.2,1-2.2,2.3c0,1.4,0.9,2.3,2.2,2.3c1.3,0,2.2-0.9,2.2-2.3C258.9,25,258,24,256.7,24z"/>
		<path class="st1" d="M263,35.8v-1.7h1.7v1.7H263z"/>
		<path class="st1" d="M270.3,35.8h-1.4l4.4-11.7h-4.5v2h-1.3V23h7.1v1.2L270.3,35.8z"/>
	</g>
</g>
<g>
	<g class="st0">
		<path class="st1" d="M294.7,29.8h-1.4l4.4-11.7h-4.5v2H292V17h7.1v1.2L294.7,29.8z"/>
		<path class="st1" d="M304.7,29.9c-2,0-3.5-1.4-3.5-3.5v-6c0-2.1,1.5-3.5,3.5-3.5s3.5,1.4,3.5,3.5v6
			C308.2,28.5,306.7,29.9,304.7,29.9z M306.9,20.5c0-1.4-0.8-2.4-2.2-2.4c-1.4,0-2.2,1-2.2,2.4v5.8c0,1.4,0.8,2.4,2.2,2.4
			c1.4,0,2.2-1,2.2-2.4V20.5z"/>
		<path class="st1" d="M311,29.8v-1.7h1.7v1.7H311z"/>
		<path class="st1" d="M321.6,29c-0.6,0.6-1.4,1-2.6,1c-1.1,0-2-0.4-2.6-0.9c-0.6-0.6-0.8-1.3-0.9-2.2h1.3c0.2,1.3,0.8,2,2.2,2
			c0.6,0,1.2-0.2,1.6-0.6c0.7-0.7,0.7-1.7,0.7-2.6c0-1.6-0.3-3.1-2.2-3.1c-1.1,0-1.9,0.5-2.1,1.3h-1.2V17h6.5v1.2H317v4.1
			c0.5-0.6,1.3-0.9,2.3-0.9s1.7,0.3,2.2,0.8c0.9,0.9,1.1,2.2,1.1,3.4C322.6,26.9,322.5,28.1,321.6,29z"/>
	</g>
</g>
<g>
	<g class="st0">
		<path class="st1" d="M340.1,27.8h-1.4l4.4-11.7h-4.5v2h-1.3V15h7.1v1.2L340.1,27.8z"/>
		<path class="st1" d="M350.1,27.8V16.4l-2.4,2.1V17l2.4-2.1h1.3v12.8L350.1,27.8L350.1,27.8z"/>
		<path class="st1" d="M356.5,27.8v-1.7h1.7v1.7H356.5z"/>
		<path class="st1" d="M367,27c-0.6,0.6-1.4,1-2.6,1c-1.1,0-2-0.4-2.6-0.9c-0.6-0.6-0.8-1.3-0.9-2.2h1.3c0.2,1.3,0.8,2,2.2,2
			c0.6,0,1.2-0.2,1.6-0.6c0.7-0.7,0.7-1.7,0.7-2.6c0-1.6-0.3-3.1-2.2-3.1c-1.1,0-1.9,0.5-2.1,1.3h-1.2V15h6.5v1.2h-5.3v4.1
			c0.5-0.6,1.3-0.9,2.3-0.9s1.7,0.3,2.2,0.8c0.9,0.9,1.1,2.2,1.1,3.4C368.1,24.9,368,26.1,367,27z"/>
	</g>
</g>
<g class="st0">
	<path class="st1" d="M387.3,25.8h-1.4l4.4-11.7h-4.5v2h-1.3V13h7.1v1.2L387.3,25.8z"/>
	<path class="st1" d="M393.9,25.8v-1.2l5.1-6.4c0.5-0.6,0.7-1.2,0.7-1.9c0-1.4-0.8-2.3-2.2-2.3c-1.2,0-2.2,0.7-2.2,2.3H394
		c0-2,1.4-3.5,3.5-3.5s3.5,1.4,3.5,3.5c0,1-0.3,1.7-1,2.6l-4.5,5.7h5.5v1.2H393.9z"/>
	<path class="st1" d="M403.6,25.8v-1.7h1.7v1.7H403.6z"/>
	<path class="st1" d="M411.6,25.8V14.4l-2.4,2.1V15l2.4-2.1h1.3v12.8L411.6,25.8L411.6,25.8z"/>
</g>
<g class="st0">
	<path class="st1" d="M438.6,21.8h-1.4l4.4-11.7h-4.5v2h-1.3V9h7.1v1.2L438.6,21.8z"/>
	<path class="st1" d="M451.1,19.8v2h-1.3v-2h-5.1v-1.2l4.6-9.6h1.4l-4.6,9.6h3.7V15h1.3v3.6h1.6v1.2
		C452.7,19.8,451.1,19.8,451.1,19.8z"/>
</g>
<linearGradient id="SVGID_1_" gradientUnits="userSpaceOnUse" x1="467" y1="2474" x2="38.1986" y2="2305.0503" gradientTransform="matrix(1 0 0 1 0 -2260)">
	<stop  offset="0" style="stop-color:#4EFFD7"/>
	<stop  offset="1" style="stop-color:#0086C0"/>
</linearGradient>
<polygon class="st2" points="419.5,30 419.5,34 372,34 372,36 326.7,36 326.7,38 279.7,38 279.7,44 232.8,44 232.8,59 185.9,59 
	185.9,73 138.9,73 138.9,119 93.4,119 93.4,98 46.7,98 46.7,142 0,142 0,214 46.7,214 92,214 93.4,214 232.8,214 372,214 373.6,214 
	419.5,214 467,214 467,30 "/>
<g class="st0">
	<path class="st3" d="M16.3,234H9.7v-1l2.6-2.6c0.8-0.8,1.3-1.4,1.6-1.7s0.4-0.7,0.6-1s0.2-0.7,0.2-1.1c0-0.5-0.2-1-0.5-1.3
		c-0.3-0.3-0.8-0.5-1.3-0.5c-0.4,0-0.8,0.1-1.2,0.2s-0.8,0.4-1.2,0.7L9.8,225c0.9-0.8,1.9-1.1,3-1.1c0.9,0,1.7,0.2,2.2,0.7
		c0.5,0.5,0.8,1.1,0.8,1.9c0,0.6-0.2,1.3-0.5,1.9s-1,1.4-2,2.4l-2.2,2.1v0.1h5.1V234z"/>
	<path class="st3" d="M24.3,229c0,1.7-0.3,3-0.8,3.9s-1.4,1.3-2.5,1.3c-1.1,0-1.9-0.4-2.5-1.3c-0.6-0.9-0.8-2.2-0.8-3.8
		c0-1.7,0.3-3,0.8-3.9s1.4-1.3,2.5-1.3c1.1,0,1.9,0.4,2.5,1.3S24.3,227.3,24.3,229z M18.9,229c0,1.5,0.2,2.5,0.5,3.2
		c0.3,0.7,0.9,1,1.6,1c0.8,0,1.3-0.3,1.6-1c0.3-0.7,0.5-1.7,0.5-3.2s-0.2-2.5-0.5-3.2c-0.3-0.7-0.9-1-1.6-1c-0.7,0-1.3,0.3-1.6,1
		C19,226.5,18.9,227.5,18.9,229z"/>
	<path class="st3" d="M32.3,229c0,1.7-0.3,3-0.8,3.9s-1.4,1.3-2.5,1.3c-1.1,0-1.9-0.4-2.5-1.3c-0.6-0.9-0.8-2.2-0.8-3.8
		c0-1.7,0.3-3,0.8-3.9s1.4-1.3,2.5-1.3c1.1,0,1.9,0.4,2.5,1.3S32.3,227.3,32.3,229z M26.9,229c0,1.5,0.2,2.5,0.5,3.2
		c0.3,0.7,0.9,1,1.6,1c0.8,0,1.3-0.3,1.6-1c0.3-0.7,0.5-1.7,0.5-3.2s-0.2-2.5-0.5-3.2c-0.3-0.7-0.9-1-1.6-1c-0.7,0-1.3,0.3-1.6,1
		C27,226.5,26.9,227.5,26.9,229z"/>
	<path class="st3" d="M40.3,234h-6.6v-1l2.6-2.6c0.8-0.8,1.3-1.4,1.6-1.7s0.4-0.7,0.6-1s0.2-0.7,0.2-1.1c0-0.5-0.2-1-0.5-1.3
		c-0.3-0.3-0.8-0.5-1.3-0.5c-0.4,0-0.8,0.1-1.2,0.2s-0.8,0.4-1.2,0.7l-0.6-0.8c0.9-0.8,1.9-1.1,3-1.1c0.9,0,1.7,0.2,2.2,0.7
		c0.5,0.5,0.8,1.1,0.8,1.9c0,0.6-0.2,1.3-0.5,1.9s-1,1.4-2,2.4l-2.2,2.1v0.1h5.1V234z"/>
</g>
<g class="st0">
	<path class="st3" d="M63,234h-6.6v-1l2.6-2.6c0.8-0.8,1.3-1.4,1.6-1.7s0.4-0.7,0.6-1s0.2-0.7,0.2-1.1c0-0.5-0.2-1-0.5-1.3
		c-0.3-0.3-0.8-0.5-1.3-0.5c-0.4,0-0.8,0.1-1.2,0.2s-0.8,0.4-1.2,0.7l-0.6-0.8c0.9-0.8,1.9-1.1,3-1.1c0.9,0,1.7,0.2,2.2,0.7
		c0.5,0.5,0.8,1.1,0.8,1.9c0,0.6-0.2,1.3-0.5,1.9s-1,1.4-2,2.4l-2.2,2.1v0.1H63V234z"/>
	<path class="st3" d="M71,229c0,1.7-0.3,3-0.8,3.9s-1.4,1.3-2.5,1.3c-1.1,0-1.9-0.4-2.5-1.3c-0.6-0.9-0.8-2.2-0.8-3.8
		c0-1.7,0.3-3,0.8-3.9s1.4-1.3,2.5-1.3c1.1,0,1.9,0.4,2.5,1.3S71,227.3,71,229z M65.6,229c0,1.5,0.2,2.5,0.5,3.2
		c0.3,0.7,0.9,1,1.6,1c0.8,0,1.3-0.3,1.6-1c0.3-0.7,0.5-1.7,0.5-3.2s-0.2-2.5-0.5-3.2c-0.3-0.7-0.9-1-1.6-1c-0.7,0-1.3,0.3-1.6,1
		C65.7,226.5,65.6,227.5,65.6,229z"/>
	<path class="st3" d="M79,229c0,1.7-0.3,3-0.8,3.9s-1.4,1.3-2.5,1.3c-1.1,0-1.9-0.4-2.5-1.3c-0.6-0.9-0.8-2.2-0.8-3.8
		c0-1.7,0.3-3,0.8-3.9s1.4-1.3,2.5-1.3c1.1,0,1.9,0.4,2.5,1.3S79,227.3,79,229z M73.6,229c0,1.5,0.2,2.5,0.5,3.2
		c0.3,0.7,0.9,1,1.6,1c0.8,0,1.3-0.3,1.6-1c0.3-0.7,0.5-1.7,0.5-3.2s-0.2-2.5-0.5-3.2c-0.3-0.7-0.9-1-1.6-1c-0.7,0-1.3,0.3-1.6,1
		C73.7,226.5,73.6,227.5,73.6,229z"/>
	<path class="st3" d="M81.7,234l4.1-8.9h-5.4v-1H87v0.9l-4.1,9.1H81.7z"/>
</g>
<g class="st0">
	<path class="st3" d="M110.1,234h-6.6v-1l2.6-2.6c0.8-0.8,1.3-1.4,1.6-1.7s0.4-0.7,0.6-1s0.2-0.7,0.2-1.1c0-0.5-0.2-1-0.5-1.3
		c-0.3-0.3-0.8-0.5-1.3-0.5c-0.4,0-0.8,0.1-1.2,0.2s-0.8,0.4-1.2,0.7l-0.6-0.8c0.9-0.8,1.9-1.1,3-1.1c0.9,0,1.7,0.2,2.2,0.7
		c0.5,0.5,0.8,1.1,0.8,1.9c0,0.6-0.2,1.3-0.5,1.9s-1,1.4-2,2.4l-2.2,2.1v0.1h5.1V234z"/>
	<path class="st3" d="M118.2,229c0,1.7-0.3,3-0.8,3.9s-1.4,1.3-2.5,1.3c-1.1,0-1.9-0.4-2.5-1.3c-0.6-0.9-0.8-2.2-0.8-3.8
		c0-1.7,0.3-3,0.8-3.9s1.4-1.3,2.5-1.3c1.1,0,1.9,0.4,2.5,1.3S118.2,227.3,118.2,229z M112.7,229c0,1.5,0.2,2.5,0.5,3.2
		c0.3,0.7,0.9,1,1.6,1c0.8,0,1.3-0.3,1.6-1c0.3-0.7,0.5-1.7,0.5-3.2s-0.2-2.5-0.5-3.2c-0.3-0.7-0.9-1-1.6-1c-0.7,0-1.3,0.3-1.6,1
		C112.9,226.5,112.7,227.5,112.7,229z"/>
	<path class="st3" d="M126.2,229c0,1.7-0.3,3-0.8,3.9s-1.4,1.3-2.5,1.3c-1.1,0-1.9-0.4-2.5-1.3c-0.6-0.9-0.8-2.2-0.8-3.8
		c0-1.7,0.3-3,0.8-3.9s1.4-1.3,2.5-1.3c1.1,0,1.9,0.4,2.5,1.3S126.2,227.3,126.2,229z M120.7,229c0,1.5,0.2,2.5,0.5,3.2
		c0.3,0.7,0.9,1,1.6,1c0.8,0,1.3-0.3,1.6-1c0.3-0.7,0.5-1.7,0.5-3.2s-0.2-2.5-0.5-3.2c-0.3-0.7-0.9-1-1.6-1c-0.7,0-1.3,0.3-1.6,1
		C120.9,226.5,120.7,227.5,120.7,229z"/>
	<path class="st3" d="M130.9,223.9c0.9,0,1.6,0.2,2.2,0.6s0.8,1,0.8,1.8c0,0.5-0.2,0.9-0.5,1.3s-0.8,0.8-1.5,1.1
		c0.8,0.4,1.4,0.8,1.7,1.2c0.3,0.4,0.5,0.9,0.5,1.5c0,0.8-0.3,1.5-0.9,2c-0.6,0.5-1.4,0.7-2.4,0.7c-1.1,0-1.9-0.2-2.5-0.7
		c-0.6-0.5-0.9-1.1-0.9-2c0-1.1,0.7-2,2.1-2.7c-0.6-0.4-1.1-0.7-1.4-1.2c-0.3-0.4-0.4-0.9-0.4-1.4c0-0.7,0.3-1.3,0.8-1.7
		C129.3,224.1,130,223.9,130.9,223.9z M128.7,231.5c0,0.5,0.2,1,0.6,1.3s0.9,0.5,1.6,0.5c0.7,0,1.2-0.2,1.6-0.5s0.6-0.8,0.6-1.3
		c0-0.4-0.2-0.8-0.5-1.2c-0.4-0.3-1-0.7-1.9-1c-0.7,0.3-1.2,0.6-1.5,1C128.9,230.6,128.7,231,128.7,231.5z M130.9,224.8
		c-0.6,0-1,0.1-1.3,0.4s-0.5,0.6-0.5,1.1c0,0.4,0.1,0.8,0.4,1.1s0.8,0.6,1.5,0.9c0.7-0.3,1.1-0.6,1.4-0.9s0.4-0.7,0.4-1.1
		c0-0.5-0.2-0.8-0.5-1.1C131.9,224.9,131.5,224.8,130.9,224.8z"/>
</g>
<g class="st0">
	<path class="st3" d="M157.8,234h-6.6v-1l2.6-2.6c0.8-0.8,1.3-1.4,1.6-1.7s0.4-0.7,0.6-1s0.2-0.7,0.2-1.1c0-0.5-0.2-1-0.5-1.3
		c-0.3-0.3-0.8-0.5-1.3-0.5c-0.4,0-0.8,0.1-1.2,0.2s-0.8,0.4-1.2,0.7l-0.6-0.8c0.9-0.8,1.9-1.1,3-1.1c0.9,0,1.7,0.2,2.2,0.7
		c0.5,0.5,0.8,1.1,0.8,1.9c0,0.6-0.2,1.3-0.5,1.9s-1,1.4-2,2.4l-2.2,2.1v0.1h5.1V234z"/>
	<path class="st3" d="M165.8,229c0,1.7-0.3,3-0.8,3.9s-1.4,1.3-2.5,1.3c-1.1,0-1.9-0.4-2.5-1.3c-0.6-0.9-0.8-2.2-0.8-3.8
		c0-1.7,0.3-3,0.8-3.9s1.4-1.3,2.5-1.3c1.1,0,1.9,0.4,2.5,1.3S165.8,227.3,165.8,229z M160.4,229c0,1.5,0.2,2.5,0.5,3.2
		c0.3,0.7,0.9,1,1.6,1c0.8,0,1.3-0.3,1.6-1c0.3-0.7,0.5-1.7,0.5-3.2s-0.2-2.5-0.5-3.2c-0.3-0.7-0.9-1-1.6-1c-0.7,0-1.3,0.3-1.6,1
		C160.6,226.5,160.4,227.5,160.4,229z"/>
	<path class="st3" d="M171.4,234h-1.1v-7.1c0-0.6,0-1.2,0.1-1.7c-0.1,0.1-0.2,0.2-0.3,0.3s-0.7,0.5-1.6,1.3l-0.6-0.8l2.6-2h1V234z"
		/>
	<path class="st3" d="M179.4,234h-1.1v-7.1c0-0.6,0-1.2,0.1-1.7c-0.1,0.1-0.2,0.2-0.3,0.3s-0.7,0.5-1.6,1.3l-0.6-0.8l2.6-2h1V234z"
		/>
</g>
<g class="st0">
	<path class="st3" d="M204.5,234h-6.6v-1l2.6-2.6c0.8-0.8,1.3-1.4,1.6-1.7s0.4-0.7,0.6-1s0.2-0.7,0.2-1.1c0-0.5-0.2-1-0.5-1.3
		c-0.3-0.3-0.8-0.5-1.3-0.5c-0.4,0-0.8,0.1-1.2,0.2s-0.8,0.4-1.2,0.7l-0.6-0.8c0.9-0.8,1.9-1.1,3-1.1c0.9,0,1.7,0.2,2.2,0.7
		c0.5,0.5,0.8,1.1,0.8,1.9c0,0.6-0.2,1.3-0.5,1.9s-1,1.4-2,2.4l-2.2,2.1v0.1h5.1V234z"/>
	<path class="st3" d="M212.5,229c0,1.7-0.3,3-0.8,3.9s-1.4,1.3-2.5,1.3c-1.1,0-1.9-0.4-2.5-1.3c-0.6-0.9-0.8-2.2-0.8-3.8
		c0-1.7,0.3-3,0.8-3.9s1.4-1.3,2.5-1.3c1.1,0,1.9,0.4,2.5,1.3S212.5,227.3,212.5,229z M207.1,229c0,1.5,0.2,2.5,0.5,3.2
		c0.3,0.7,0.9,1,1.6,1c0.8,0,1.3-0.3,1.6-1c0.3-0.7,0.5-1.7,0.5-3.2s-0.2-2.5-0.5-3.2c-0.3-0.7-0.9-1-1.6-1c-0.7,0-1.3,0.3-1.6,1
		C207.3,226.5,207.1,227.5,207.1,229z"/>
	<path class="st3" d="M218.1,234H217v-7.1c0-0.6,0-1.2,0.1-1.7c-0.1,0.1-0.2,0.2-0.3,0.3s-0.7,0.5-1.6,1.3l-0.6-0.8l2.6-2h1V234z"/>
	<path class="st3" d="M228.5,234h-6.6v-1l2.6-2.6c0.8-0.8,1.3-1.4,1.6-1.7s0.4-0.7,0.6-1s0.2-0.7,0.2-1.1c0-0.5-0.2-1-0.5-1.3
		c-0.3-0.3-0.8-0.5-1.3-0.5c-0.4,0-0.8,0.1-1.2,0.2s-0.8,0.4-1.2,0.7l-0.6-0.8c0.9-0.8,1.9-1.1,3-1.1c0.9,0,1.7,0.2,2.2,0.7
		c0.5,0.5,0.8,1.1,0.8,1.9c0,0.6-0.2,1.3-0.5,1.9s-1,1.4-2,2.4l-2.2,2.1v0.1h5.1V234z"/>
</g>
<g class="st0">
	<path class="st3" d="M251.7,234h-6.6v-1l2.6-2.6c0.8-0.8,1.3-1.4,1.6-1.7c0.3-0.3,0.4-0.7,0.6-1c0.1-0.3,0.2-0.7,0.2-1.1
		c0-0.5-0.2-1-0.5-1.3c-0.3-0.3-0.8-0.5-1.3-0.5c-0.4,0-0.8,0.1-1.2,0.2c-0.4,0.1-0.8,0.4-1.2,0.7l-0.6-0.8c0.9-0.8,1.9-1.1,3-1.1
		c0.9,0,1.7,0.2,2.2,0.7c0.5,0.5,0.8,1.1,0.8,1.9c0,0.6-0.2,1.3-0.5,1.9s-1,1.4-2,2.4l-2.2,2.1v0.1h5.1V234z"/>
	<path class="st3" d="M259.7,229c0,1.7-0.3,3-0.8,3.9c-0.5,0.9-1.4,1.3-2.5,1.3c-1.1,0-1.9-0.4-2.5-1.3c-0.6-0.9-0.8-2.2-0.8-3.8
		c0-1.7,0.3-3,0.8-3.9c0.5-0.8,1.4-1.3,2.5-1.3c1.1,0,1.9,0.4,2.5,1.3C259.4,226,259.7,227.3,259.7,229z M254.3,229
		c0,1.5,0.2,2.5,0.5,3.2c0.3,0.7,0.9,1,1.6,1c0.8,0,1.3-0.3,1.6-1c0.3-0.7,0.5-1.7,0.5-3.2s-0.2-2.5-0.5-3.2c-0.3-0.7-0.9-1-1.6-1
		c-0.7,0-1.3,0.3-1.6,1C254.4,226.5,254.3,227.5,254.3,229z"/>
	<path class="st3" d="M265.3,234h-1.1v-7.1c0-0.6,0-1.2,0.1-1.7c-0.1,0.1-0.2,0.2-0.3,0.3c-0.1,0.1-0.7,0.5-1.6,1.3l-0.6-0.8l2.6-2
		h1V234z"/>
	<path class="st3" d="M275.3,226.4c0,0.6-0.2,1.2-0.5,1.6c-0.4,0.4-0.9,0.7-1.5,0.8v0.1c0.8,0.1,1.4,0.4,1.8,0.8
		c0.4,0.4,0.6,0.9,0.6,1.6c0,1-0.3,1.7-1,2.2c-0.7,0.5-1.6,0.8-2.8,0.8c-0.5,0-1,0-1.5-0.1c-0.4-0.1-0.9-0.2-1.3-0.4v-1.1
		c0.4,0.2,0.9,0.4,1.4,0.5c0.5,0.1,1,0.2,1.4,0.2c1.7,0,2.6-0.7,2.6-2c0-1.2-1-1.8-2.9-1.8h-1v-1h1c0.8,0,1.4-0.2,1.9-0.5
		c0.5-0.3,0.7-0.8,0.7-1.4c0-0.5-0.2-0.9-0.5-1.1s-0.8-0.4-1.4-0.4c-0.4,0-0.8,0.1-1.2,0.2c-0.4,0.1-0.8,0.3-1.3,0.7l-0.6-0.8
		c0.4-0.3,0.9-0.6,1.4-0.8c0.5-0.2,1.1-0.3,1.7-0.3c1,0,1.7,0.2,2.3,0.7C275,225,275.3,225.6,275.3,226.4z"/>
</g>
<g class="st0">
	<path class="st3" d="M298.8,234h-6.6v-1l2.6-2.6c0.8-0.8,1.3-1.4,1.6-1.7c0.3-0.3,0.4-0.7,0.6-1c0.1-0.3,0.2-0.7,0.2-1.1
		c0-0.5-0.2-1-0.5-1.3c-0.3-0.3-0.8-0.5-1.3-0.5c-0.4,0-0.8,0.1-1.2,0.2c-0.4,0.1-0.8,0.4-1.2,0.7l-0.6-0.8c0.9-0.8,1.9-1.1,3-1.1
		c0.9,0,1.7,0.2,2.2,0.7c0.5,0.5,0.8,1.1,0.8,1.9c0,0.6-0.2,1.3-0.5,1.9s-1,1.4-2,2.4l-2.2,2.1v0.1h5.1V234z"/>
	<path class="st3" d="M306.9,229c0,1.7-0.3,3-0.8,3.9c-0.5,0.9-1.4,1.3-2.5,1.3c-1.1,0-1.9-0.4-2.5-1.3c-0.6-0.9-0.8-2.2-0.8-3.8
		c0-1.7,0.3-3,0.8-3.9c0.5-0.8,1.4-1.3,2.5-1.3c1.1,0,1.9,0.4,2.5,1.3C306.6,226,306.9,227.3,306.9,229z M301.4,229
		c0,1.5,0.2,2.5,0.5,3.2c0.3,0.7,0.9,1,1.6,1c0.8,0,1.3-0.3,1.6-1c0.3-0.7,0.5-1.7,0.5-3.2s-0.2-2.5-0.5-3.2c-0.3-0.7-0.9-1-1.6-1
		c-0.7,0-1.3,0.3-1.6,1C301.6,226.5,301.4,227.5,301.4,229z"/>
	<path class="st3" d="M312.5,234h-1.1v-7.1c0-0.6,0-1.2,0.1-1.7c-0.1,0.1-0.2,0.2-0.3,0.3c-0.1,0.1-0.7,0.5-1.6,1.3l-0.6-0.8l2.6-2
		h1V234z"/>
	<path class="st3" d="M323.3,231.7h-1.5v2.3h-1.1v-2.3h-4.9v-1l4.7-6.8h1.2v6.7h1.5V231.7z M320.8,230.7v-3.3c0-0.7,0-1.4,0.1-2.2
		h-0.1c-0.2,0.4-0.4,0.8-0.6,1.1l-3.1,4.4H320.8z"/>
</g>
<g class="st0">
	<path class="st3" d="M345.5,234H339v-1l2.6-2.6c0.8-0.8,1.3-1.4,1.6-1.7c0.3-0.3,0.4-0.7,0.6-1c0.1-0.3,0.2-0.7,0.2-1.1
		c0-0.5-0.2-1-0.5-1.3c-0.3-0.3-0.8-0.5-1.3-0.5c-0.4,0-0.8,0.1-1.2,0.2c-0.4,0.1-0.8,0.4-1.2,0.7l-0.6-0.8c0.9-0.8,1.9-1.1,3-1.1
		c0.9,0,1.7,0.2,2.2,0.7c0.5,0.5,0.8,1.1,0.8,1.9c0,0.6-0.2,1.3-0.5,1.9s-1,1.4-2,2.4l-2.2,2.1v0.1h5.1V234z"/>
	<path class="st3" d="M353.6,229c0,1.7-0.3,3-0.8,3.9c-0.5,0.9-1.4,1.3-2.5,1.3c-1.1,0-1.9-0.4-2.5-1.3c-0.6-0.9-0.8-2.2-0.8-3.8
		c0-1.7,0.3-3,0.8-3.9c0.5-0.8,1.4-1.3,2.5-1.3c1.1,0,1.9,0.4,2.5,1.3C353.3,226,353.6,227.3,353.6,229z M348.1,229
		c0,1.5,0.2,2.5,0.5,3.2c0.3,0.7,0.9,1,1.6,1c0.8,0,1.3-0.3,1.6-1c0.3-0.7,0.5-1.7,0.5-3.2s-0.2-2.5-0.5-3.2c-0.3-0.7-0.9-1-1.6-1
		c-0.7,0-1.3,0.3-1.6,1C348.3,226.5,348.1,227.5,348.1,229z"/>
	<path class="st3" d="M359.2,234h-1.1v-7.1c0-0.6,0-1.2,0.1-1.7c-0.1,0.1-0.2,0.2-0.3,0.3c-0.1,0.1-0.7,0.5-1.6,1.3l-0.6-0.8l2.6-2
		h1V234z"/>
	<path class="st3" d="M366.1,227.9c1.1,0,1.9,0.3,2.5,0.8c0.6,0.5,0.9,1.2,0.9,2.1c0,1-0.3,1.8-1,2.4c-0.7,0.6-1.6,0.9-2.7,0.9
		c-1.1,0-2-0.2-2.6-0.5v-1.1c0.3,0.2,0.7,0.4,1.2,0.5c0.5,0.1,0.9,0.2,1.4,0.2c0.8,0,1.4-0.2,1.9-0.6s0.7-0.9,0.7-1.6
		c0-1.4-0.9-2.1-2.6-2.1c-0.4,0-1,0.1-1.7,0.2l-0.6-0.4l0.4-4.7h5v1h-4l-0.3,3C365.1,227.9,365.6,227.9,366.1,227.9z"/>
</g>
<g class="st0">
	<path class="st3" d="M392.7,234h-6.6v-1l2.6-2.6c0.8-0.8,1.3-1.4,1.6-1.7c0.3-0.3,0.4-0.7,0.6-1c0.1-0.3,0.2-0.7,0.2-1.1
		c0-0.5-0.2-1-0.5-1.3c-0.3-0.3-0.8-0.5-1.3-0.5c-0.4,0-0.8,0.1-1.2,0.2s-0.8,0.4-1.2,0.7l-0.6-0.8c0.9-0.8,1.9-1.1,3-1.1
		c0.9,0,1.7,0.2,2.2,0.7c0.5,0.5,0.8,1.1,0.8,1.9c0,0.6-0.2,1.3-0.5,1.9s-1,1.4-2,2.4l-2.2,2.1v0.1h5.1V234z"/>
	<path class="st3" d="M400.8,229c0,1.7-0.3,3-0.8,3.9s-1.4,1.3-2.5,1.3c-1.1,0-1.9-0.4-2.5-1.3c-0.6-0.9-0.8-2.2-0.8-3.8
		c0-1.7,0.3-3,0.8-3.9c0.5-0.8,1.4-1.3,2.5-1.3c1.1,0,1.9,0.4,2.5,1.3S400.8,227.3,400.8,229z M395.3,229c0,1.5,0.2,2.5,0.5,3.2
		c0.3,0.7,0.9,1,1.6,1c0.8,0,1.3-0.3,1.6-1c0.3-0.7,0.5-1.7,0.5-3.2s-0.2-2.5-0.5-3.2c-0.3-0.7-0.9-1-1.6-1c-0.7,0-1.3,0.3-1.6,1
		C395.5,226.5,395.3,227.5,395.3,229z"/>
	<path class="st3" d="M406.4,234h-1.1v-7.1c0-0.6,0-1.2,0.1-1.7c-0.1,0.1-0.2,0.2-0.3,0.3c-0.1,0.1-0.7,0.5-1.6,1.3l-0.6-0.8l2.6-2
		h1V234z"/>
	<path class="st3" d="M410.3,229.7c0-2,0.4-3.4,1.1-4.4c0.8-1,1.9-1.5,3.4-1.5c0.5,0,0.9,0,1.2,0.1v1c-0.4-0.1-0.8-0.2-1.2-0.2
		c-1.1,0-1.9,0.3-2.5,1c-0.6,0.7-0.9,1.7-0.9,3.1h0.1c0.5-0.8,1.3-1.2,2.4-1.2c0.9,0,1.6,0.3,2.1,0.8s0.8,1.3,0.8,2.2
		c0,1-0.3,1.9-0.9,2.5c-0.6,0.6-1.3,0.9-2.3,0.9c-1,0-1.9-0.4-2.5-1.2C410.6,232.2,410.3,231.1,410.3,229.7z M413.6,233.2
		c0.6,0,1.1-0.2,1.5-0.6c0.4-0.4,0.5-1,0.5-1.8c0-0.7-0.2-1.2-0.5-1.6c-0.3-0.4-0.8-0.6-1.5-0.6c-0.4,0-0.8,0.1-1.1,0.3
		s-0.6,0.4-0.8,0.7s-0.3,0.6-0.3,0.9c0,0.5,0.1,0.9,0.3,1.3c0.2,0.4,0.4,0.7,0.8,1S413.2,233.2,413.6,233.2z"/>
</g>
<g class="st0">
	<path class="st3" d="M439.9,234h-6.6v-1l2.6-2.6c0.8-0.8,1.3-1.4,1.6-1.7c0.3-0.3,0.4-0.7,0.6-1c0.1-0.3,0.2-0.7,0.2-1.1
		c0-0.5-0.2-1-0.5-1.3c-0.3-0.3-0.8-0.5-1.3-0.5c-0.4,0-0.8,0.1-1.2,0.2c-0.4,0.1-0.8,0.4-1.2,0.7l-0.6-0.8c0.9-0.8,1.9-1.1,3-1.1
		c0.9,0,1.7,0.2,2.2,0.7c0.5,0.5,0.8,1.1,0.8,1.9c0,0.6-0.2,1.3-0.5,1.9s-1,1.4-2,2.4l-2.2,2.1v0.1h5.1V234z"/>
	<path class="st3" d="M448,229c0,1.7-0.3,3-0.8,3.9c-0.5,0.9-1.4,1.3-2.5,1.3c-1.1,0-1.9-0.4-2.5-1.3c-0.6-0.9-0.8-2.2-0.8-3.8
		c0-1.7,0.3-3,0.8-3.9c0.5-0.8,1.4-1.3,2.5-1.3c1.1,0,1.9,0.4,2.5,1.3C447.7,226,448,227.3,448,229z M442.5,229
		c0,1.5,0.2,2.5,0.5,3.2c0.3,0.7,0.9,1,1.6,1c0.8,0,1.3-0.3,1.6-1c0.3-0.7,0.5-1.7,0.5-3.2s-0.2-2.5-0.5-3.2c-0.3-0.7-0.9-1-1.6-1
		c-0.7,0-1.3,0.3-1.6,1C442.7,226.5,442.5,227.5,442.5,229z"/>
	<path class="st3" d="M453.5,234h-1.1v-7.1c0-0.6,0-1.2,0.1-1.7c-0.1,0.1-0.2,0.2-0.3,0.3c-0.1,0.1-0.7,0.5-1.6,1.3l-0.6-0.8l2.6-2
		h1V234z"/>
	<path class="st3" d="M458.6,234l4.1-8.9h-5.4v-1h6.7v0.9l-4.1,9.1H458.6z"/>
</g>
</svg>
