<?xml version="1.0" encoding="utf-8"?>
<!-- Generator: Adobe Illustrator 22.0.0, SVG Export Plug-In . SVG Version: 6.00 Build 0)  -->
<svg version="1.1" id="Слой_1" xmlns="http://www.w3.org/2000/svg" xmlns:xlink="http://www.w3.org/1999/xlink" x="0px" y="0px"
	 viewBox="0 0 980 239" style="enable-background:new 0 0 980 239;" xml:space="preserve">
<style type="text/css">
	.st0{enable-background:new    ;}
	.st1{fill:#4EFFD7;}
	.st2{fill:url(#SVGID_1_);}
	.st3{fill:#FFFFFF;}
</style>
<g class="st0">
	<path class="st1" d="M33.2,134.8v-1.2l5.1-6.4c0.5-0.6,0.7-1.2,0.7-1.9c0-1.4-0.8-2.3-2.2-2.3c-1.2,0-2.2,0.7-2.2,2.3h-1.3
		c0-2,1.4-3.5,3.5-3.5c2.1,0,3.5,1.3,3.5,3.5c0,1-0.3,1.7-1,2.6l-4.5,5.7h5.5v1.2H33.2z"/>
	<path class="st1" d="M46.1,134.9c-2.2,0-3.6-1.5-3.6-3.7c0-0.9,0.3-1.8,0.8-2.9l3.2-6.4h1.3l-2.9,5.8c0.4-0.2,0.8-0.3,1.4-0.3
		c2,0,3.3,1.5,3.3,3.6C49.7,133.3,48.3,134.9,46.1,134.9z M46.1,128.6c-1.4,0-2.3,1-2.3,2.6c0,1.6,0.9,2.6,2.3,2.6
		c1.4,0,2.3-1,2.3-2.6C48.4,129.8,47.6,128.6,46.1,128.6z"/>
	<path class="st1" d="M52.4,134.8v-1.7h1.7v1.7H52.4z"/>
	<path class="st1" d="M59.7,134.8h-1.4l4.4-11.7h-4.5v2H57V122h7.1v1.2L59.7,134.8z"/>
</g>
<g class="st0">
	<path class="st1" d="M136.8,87.8v2h-1.3v-2h-5.1v-1.2L135,77h1.4l-4.6,9.6h3.7V83h1.3v3.6h1.6v1.2H136.8z"/>
	<path class="st1" d="M143.1,89.8h-1.4l4.4-11.7h-4.5v2h-1.3V77h7.1v1.2L143.1,89.8z"/>
	<path class="st1" d="M150,89.8v-1.7h1.7v1.7H150z"/>
	<path class="st1" d="M158,89.8V78.4l-2.4,2.1v-1.5L158,77h1.3v12.8H158z"/>
</g>
<g class="st0">
	<path class="st1" d="M234.7,110.9c-2,0-3.7-1.1-3.8-3.4h1.3c0.1,1.6,1.2,2.2,2.5,2.2c1.4,0,2.5-0.9,2.5-2.5c0-1.5-0.8-2.5-2.5-2.5
		h-0.3v-1.1h0.3c1.6,0,2.3-0.9,2.3-2.3c0-1.5-1-2.3-2.2-2.3c-1.4,0-2.2,0.8-2.3,2.1h-1.3c0.1-2.1,1.7-3.3,3.6-3.3
		c2.1,0,3.5,1.4,3.5,3.5c0,1.4-0.6,2.3-1.7,2.8c1.3,0.5,2,1.5,2,3.1C238.5,109.7,236.8,110.9,234.7,110.9z"/>
	<path class="st1" d="M244.3,110.9c-2.1,0-3.8-1.5-3.8-3.6c0-1.5,0.8-2.5,1.9-3.1c-1-0.6-1.7-1.5-1.7-2.8c0-2,1.5-3.4,3.5-3.4
		s3.5,1.4,3.5,3.4c0,1.3-0.6,2.3-1.7,2.8c1.1,0.6,1.9,1.6,1.9,3.1C248.1,109.4,246.4,110.9,244.3,110.9z M244.3,104.8
		c-1.4,0-2.5,1.1-2.5,2.5c0,1.4,1.1,2.5,2.5,2.5c1.4,0,2.5-1.1,2.5-2.5C246.8,105.8,245.7,104.8,244.3,104.8z M244.3,99
		c-1.3,0-2.2,1-2.2,2.3c0,1.4,0.9,2.3,2.2,2.3c1.3,0,2.2-0.9,2.2-2.3C246.5,100,245.6,99,244.3,99z"/>
	<path class="st1" d="M250.6,110.8v-1.7h1.7v1.7H250.6z"/>
	<path class="st1" d="M261.2,110c-0.6,0.6-1.4,1-2.6,1c-1.1,0-2-0.4-2.6-0.9c-0.6-0.6-0.8-1.3-0.9-2.2h1.3c0.2,1.3,0.8,2,2.2,2
		c0.6,0,1.2-0.2,1.6-0.6c0.7-0.7,0.7-1.7,0.7-2.6c0-1.6-0.3-3.1-2.2-3.1c-1.1,0-1.9,0.5-2.1,1.3h-1.2V98h6.5v1.2h-5.3v4.1
		c0.5-0.6,1.3-0.9,2.3-0.9c1,0,1.7,0.3,2.2,0.8c0.9,0.9,1.1,2.2,1.1,3.4C262.2,107.9,262.1,109.1,261.2,110z"/>
</g>
<g class="st0">
	<path class="st1" d="M341.5,64c-0.6,0.6-1.4,1-2.6,1c-1.1,0-2-0.4-2.6-0.9c-0.6-0.6-0.8-1.3-0.9-2.2h1.3c0.2,1.3,0.8,2,2.2,2
		c0.6,0,1.2-0.2,1.6-0.6c0.7-0.7,0.7-1.7,0.7-2.6c0-1.6-0.3-3.1-2.2-3.1c-1.1,0-1.9,0.5-2.1,1.3h-1.2V52h6.5v1.2H337v4.1
		c0.5-0.6,1.3-0.9,2.3-0.9c1,0,1.7,0.3,2.2,0.8c0.9,0.9,1.1,2.2,1.1,3.4C342.6,61.9,342.5,63.1,341.5,64z"/>
	<path class="st1" d="M347.7,64.8h-1.4l4.4-11.7h-4.5v2H345V52h7.1v1.2L347.7,64.8z"/>
</g>
<g class="st0">
	<path class="st1" d="M429.7,50.9c-2.2,0-3.6-1.5-3.6-3.7c0-0.9,0.3-1.8,0.8-2.9l3.2-6.4h1.3l-2.9,5.8c0.4-0.2,0.8-0.3,1.4-0.3
		c2,0,3.3,1.5,3.3,3.6C433.2,49.3,431.9,50.9,429.7,50.9z M429.7,44.6c-1.4,0-2.3,1-2.3,2.6c0,1.6,0.9,2.6,2.3,2.6
		c1.4,0,2.3-1,2.3-2.6C431.9,45.7,431.2,44.6,429.7,44.6z"/>
	<path class="st1" d="M435.6,50.8v-1.2l5.1-6.4c0.5-0.6,0.7-1.2,0.7-1.9c0-1.4-0.8-2.3-2.2-2.3c-1.2,0-2.2,0.7-2.2,2.3h-1.3
		c0-2,1.4-3.5,3.5-3.5c2.1,0,3.5,1.4,3.5,3.5c0,1-0.3,1.7-1,2.6l-4.5,5.7h5.5v1.2H435.6z"/>
	<path class="st1" d="M445.3,50.8v-1.7h1.7v1.7H445.3z"/>
	<path class="st1" d="M455.7,48.8v2h-1.3v-2h-5.1v-1.2L454,38h1.4l-4.6,9.6h3.7V44h1.3v3.6h1.6v1.2H455.7z"/>
</g>
<g class="st0">
	<path class="st1" d="M529.1,35.9c-2.2,0-3.6-1.5-3.6-3.7c0-0.9,0.3-1.8,0.8-2.9l3.2-6.4h1.3l-2.9,5.8c0.4-0.2,0.8-0.3,1.4-0.3
		c2,0,3.3,1.5,3.3,3.6C532.7,34.3,531.3,35.9,529.1,35.9z M529.1,29.6c-1.4,0-2.3,1-2.3,2.6c0,1.6,0.9,2.6,2.3,2.6s2.3-1,2.3-2.6
		C531.4,30.8,530.6,29.6,529.1,29.6z"/>
	<path class="st1" d="M538.5,35.9c-2.1,0-3.8-1.5-3.8-3.6c0-1.5,0.8-2.5,1.9-3.1c-1-0.6-1.7-1.5-1.7-2.8c0-2,1.5-3.4,3.5-3.4
		c2,0,3.5,1.4,3.5,3.4c0,1.3-0.6,2.3-1.7,2.8c1.1,0.6,1.9,1.6,1.9,3.1C542.3,34.4,540.6,35.9,538.5,35.9z M538.5,29.8
		c-1.4,0-2.5,1.1-2.5,2.5c0,1.4,1.1,2.5,2.5,2.5s2.5-1.1,2.5-2.5C541,30.8,539.9,29.8,538.5,29.8z M538.5,24c-1.3,0-2.2,1-2.2,2.3
		c0,1.4,0.9,2.3,2.2,2.3s2.2-0.9,2.2-2.3C540.7,25,539.8,24,538.5,24z"/>
	<path class="st1" d="M544.8,35.8v-1.7h1.7v1.7H544.8z"/>
	<path class="st1" d="M552.1,35.8h-1.4l4.4-11.7h-4.5v2h-1.3V23h7.1v1.2L552.1,35.8z"/>
</g>
<g class="st0">
	<path class="st1" d="M626.1,29.8h-1.4l4.4-11.7h-4.5v2h-1.3V17h7.1v1.2L626.1,29.8z"/>
	<path class="st1" d="M636.2,29.9c-2,0-3.5-1.4-3.5-3.5v-6c0-2.1,1.5-3.5,3.5-3.5c2,0,3.5,1.4,3.5,3.5v6
		C639.7,28.5,638.2,29.9,636.2,29.9z M638.4,20.5c0-1.4-0.8-2.4-2.2-2.4c-1.4,0-2.2,1-2.2,2.4v5.8c0,1.4,0.8,2.4,2.2,2.4
		c1.4,0,2.2-1,2.2-2.4V20.5z"/>
	<path class="st1" d="M642.4,29.8v-1.7h1.7v1.7H642.4z"/>
	<path class="st1" d="M653,29c-0.6,0.6-1.4,1-2.6,1c-1.1,0-2-0.4-2.6-0.9c-0.6-0.6-0.8-1.3-0.9-2.2h1.3c0.2,1.3,0.8,2,2.2,2
		c0.6,0,1.2-0.2,1.6-0.6c0.7-0.7,0.7-1.7,0.7-2.6c0-1.6-0.3-3.1-2.2-3.1c-1.1,0-1.9,0.5-2.1,1.3h-1.2V17h6.5v1.2h-5.3v4.1
		c0.5-0.6,1.3-0.9,2.3-0.9c1,0,1.7,0.3,2.2,0.8c0.9,0.9,1.1,2.2,1.1,3.4C654,26.9,653.9,28.1,653,29z"/>
</g>
<g class="st0">
	<path class="st1" d="M717.7,27.8h-1.4l4.4-11.7h-4.5v2h-1.3V15h7.1v1.2L717.7,27.8z"/>
	<path class="st1" d="M727.7,27.8V16.4l-2.4,2.1v-1.5l2.4-2.1h1.3v12.8H727.7z"/>
	<path class="st1" d="M734.1,27.8v-1.7h1.7v1.7H734.1z"/>
	<path class="st1" d="M744.6,27c-0.6,0.6-1.4,1-2.6,1c-1.1,0-2-0.4-2.6-0.9c-0.6-0.6-0.8-1.3-0.9-2.2h1.3c0.2,1.3,0.8,2,2.2,2
		c0.6,0,1.2-0.2,1.6-0.6c0.7-0.7,0.7-1.7,0.7-2.6c0-1.6-0.3-3.1-2.2-3.1c-1.1,0-1.9,0.5-2.1,1.3h-1.2V15h6.5v1.2h-5.3v4.1
		c0.5-0.6,1.3-0.9,2.3-0.9c1,0,1.7,0.3,2.2,0.8c0.9,0.9,1.1,2.2,1.1,3.4C745.7,24.9,745.5,26.1,744.6,27z"/>
</g>
<g class="st0">
	<path class="st1" d="M819.7,25.8h-1.4l4.4-11.7h-4.5v2H817V13h7.1v1.2L819.7,25.8z"/>
	<path class="st1" d="M826.3,25.8v-1.2l5.1-6.4c0.5-0.6,0.7-1.2,0.7-1.9c0-1.4-0.8-2.3-2.2-2.3c-1.2,0-2.2,0.7-2.2,2.3h-1.3
		c0-2,1.4-3.5,3.5-3.5c2.1,0,3.5,1.4,3.5,3.5c0,1-0.3,1.7-1,2.6l-4.5,5.7h5.5v1.2H826.3z"/>
	<path class="st1" d="M836.1,25.8v-1.7h1.7v1.7H836.1z"/>
	<path class="st1" d="M844,25.8V14.4l-2.4,2.1v-1.5L844,13h1.3v12.8H844z"/>
</g>
<g class="st0">
	<path class="st1" d="M924.4,21.8H923l4.4-11.7H923v2h-1.3V9h7.1v1.2L924.4,21.8z"/>
	<path class="st1" d="M936.8,19.8v2h-1.3v-2h-5.1v-1.2l4.6-9.6h1.4l-4.6,9.6h3.7V15h1.3v3.6h1.6v1.2H936.8z"/>
</g>
<linearGradient id="SVGID_1_" gradientUnits="userSpaceOnUse" x1="987.8348" y1="198.271" x2="7.8348" y2="14.271" gradientTransform="matrix(1 0 0 -1 0 270)">
	<stop  offset="0" style="stop-color:#4EFFD7"/>
	<stop  offset="1" style="stop-color:#0086C0"/>
</linearGradient>
<path class="st2" d="M980,214H0v-72h98V98h98v21h98V73h98V59h98V44h98v-6h98v-2h98v-2h98v-4h98V214z"/>
<g class="st0">
	<path class="st3" d="M43.7,234h-6.6v-1l2.6-2.6c0.8-0.8,1.3-1.4,1.6-1.7s0.4-0.7,0.6-1s0.2-0.7,0.2-1.1c0-0.5-0.2-1-0.5-1.3
		c-0.3-0.3-0.8-0.5-1.3-0.5c-0.4,0-0.8,0.1-1.2,0.2s-0.8,0.4-1.2,0.7l-0.6-0.8c0.9-0.8,1.9-1.1,3-1.1c0.9,0,1.7,0.2,2.2,0.7
		c0.5,0.5,0.8,1.1,0.8,1.9c0,0.6-0.2,1.3-0.5,1.9s-1,1.4-2,2.4l-2.2,2.1v0.1h5.1V234z"/>
	<path class="st3" d="M51.8,229c0,1.7-0.3,3-0.8,3.9s-1.4,1.3-2.5,1.3c-1.1,0-1.9-0.4-2.5-1.3c-0.6-0.9-0.8-2.2-0.8-3.8
		c0-1.7,0.3-3,0.8-3.9s1.4-1.3,2.5-1.3c1.1,0,1.9,0.4,2.5,1.3S51.8,227.3,51.8,229z M46.3,229c0,1.5,0.2,2.5,0.5,3.2
		c0.3,0.7,0.9,1,1.6,1c0.8,0,1.3-0.3,1.6-1c0.3-0.7,0.5-1.7,0.5-3.2s-0.2-2.5-0.5-3.2c-0.3-0.7-0.9-1-1.6-1c-0.7,0-1.3,0.3-1.6,1
		C46.5,226.5,46.3,227.5,46.3,229z"/>
	<path class="st3" d="M59.8,229c0,1.7-0.3,3-0.8,3.9s-1.4,1.3-2.5,1.3c-1.1,0-1.9-0.4-2.5-1.3c-0.6-0.9-0.8-2.2-0.8-3.8
		c0-1.7,0.3-3,0.8-3.9s1.4-1.3,2.5-1.3c1.1,0,1.9,0.4,2.5,1.3S59.8,227.3,59.8,229z M54.3,229c0,1.5,0.2,2.5,0.5,3.2
		c0.3,0.7,0.9,1,1.6,1c0.8,0,1.3-0.3,1.6-1c0.3-0.7,0.5-1.7,0.5-3.2s-0.2-2.5-0.5-3.2c-0.3-0.7-0.9-1-1.6-1c-0.7,0-1.3,0.3-1.6,1
		C54.5,226.5,54.3,227.5,54.3,229z"/>
	<path class="st3" d="M67.8,234h-6.6v-1l2.6-2.6c0.8-0.8,1.3-1.4,1.6-1.7s0.4-0.7,0.6-1s0.2-0.7,0.2-1.1c0-0.5-0.2-1-0.5-1.3
		c-0.3-0.3-0.8-0.5-1.3-0.5c-0.4,0-0.8,0.1-1.2,0.2s-0.8,0.4-1.2,0.7l-0.6-0.8c0.9-0.8,1.9-1.1,3-1.1c0.9,0,1.7,0.2,2.2,0.7
		c0.5,0.5,0.8,1.1,0.8,1.9c0,0.6-0.2,1.3-0.5,1.9s-1,1.4-2,2.4l-2.2,2.1v0.1h5.1V234z"/>
</g>
<g class="st0">
	<path class="st3" d="M141.7,234h-6.6v-1l2.6-2.6c0.8-0.8,1.3-1.4,1.6-1.7s0.4-0.7,0.6-1s0.2-0.7,0.2-1.1c0-0.5-0.2-1-0.5-1.3
		c-0.3-0.3-0.8-0.5-1.3-0.5c-0.4,0-0.8,0.1-1.2,0.2s-0.8,0.4-1.2,0.7l-0.6-0.8c0.9-0.8,1.9-1.1,3-1.1c0.9,0,1.7,0.2,2.2,0.7
		c0.5,0.5,0.8,1.1,0.8,1.9c0,0.6-0.2,1.3-0.5,1.9s-1,1.4-2,2.4l-2.2,2.1v0.1h5.1V234z"/>
	<path class="st3" d="M149.8,229c0,1.7-0.3,3-0.8,3.9s-1.4,1.3-2.5,1.3c-1.1,0-1.9-0.4-2.5-1.3c-0.6-0.9-0.8-2.2-0.8-3.8
		c0-1.7,0.3-3,0.8-3.9s1.4-1.3,2.5-1.3c1.1,0,1.9,0.4,2.5,1.3S149.8,227.3,149.8,229z M144.3,229c0,1.5,0.2,2.5,0.5,3.2
		c0.3,0.7,0.9,1,1.6,1c0.8,0,1.3-0.3,1.6-1c0.3-0.7,0.5-1.7,0.5-3.2s-0.2-2.5-0.5-3.2c-0.3-0.7-0.9-1-1.6-1c-0.7,0-1.3,0.3-1.6,1
		C144.5,226.5,144.3,227.5,144.3,229z"/>
	<path class="st3" d="M157.8,229c0,1.7-0.3,3-0.8,3.9s-1.4,1.3-2.5,1.3c-1.1,0-1.9-0.4-2.5-1.3c-0.6-0.9-0.8-2.2-0.8-3.8
		c0-1.7,0.3-3,0.8-3.9s1.4-1.3,2.5-1.3c1.1,0,1.9,0.4,2.5,1.3S157.8,227.3,157.8,229z M152.3,229c0,1.5,0.2,2.5,0.5,3.2
		c0.3,0.7,0.9,1,1.6,1c0.8,0,1.3-0.3,1.6-1c0.3-0.7,0.5-1.7,0.5-3.2s-0.2-2.5-0.5-3.2c-0.3-0.7-0.9-1-1.6-1c-0.7,0-1.3,0.3-1.6,1
		C152.5,226.5,152.3,227.5,152.3,229z"/>
	<path class="st3" d="M160.5,234l4.1-8.9h-5.4v-1h6.7v0.9l-4.1,9.1H160.5z"/>
</g>
<g class="st0">
	<path class="st3" d="M240.7,234h-6.6v-1l2.6-2.6c0.8-0.8,1.3-1.4,1.6-1.7s0.4-0.7,0.6-1s0.2-0.7,0.2-1.1c0-0.5-0.2-1-0.5-1.3
		c-0.3-0.3-0.8-0.5-1.3-0.5c-0.4,0-0.8,0.1-1.2,0.2s-0.8,0.4-1.2,0.7l-0.6-0.8c0.9-0.8,1.9-1.1,3-1.1c0.9,0,1.7,0.2,2.2,0.7
		c0.5,0.5,0.8,1.1,0.8,1.9c0,0.6-0.2,1.3-0.5,1.9s-1,1.4-2,2.4l-2.2,2.1v0.1h5.1V234z"/>
	<path class="st3" d="M248.8,229c0,1.7-0.3,3-0.8,3.9s-1.4,1.3-2.5,1.3c-1.1,0-1.9-0.4-2.5-1.3c-0.6-0.9-0.8-2.2-0.8-3.8
		c0-1.7,0.3-3,0.8-3.9s1.4-1.3,2.5-1.3c1.1,0,1.9,0.4,2.5,1.3S248.8,227.3,248.8,229z M243.3,229c0,1.5,0.2,2.5,0.5,3.2
		c0.3,0.7,0.9,1,1.6,1c0.8,0,1.3-0.3,1.6-1c0.3-0.7,0.5-1.7,0.5-3.2s-0.2-2.5-0.5-3.2c-0.3-0.7-0.9-1-1.6-1c-0.7,0-1.3,0.3-1.6,1
		C243.5,226.5,243.3,227.5,243.3,229z"/>
	<path class="st3" d="M256.8,229c0,1.7-0.3,3-0.8,3.9s-1.4,1.3-2.5,1.3c-1.1,0-1.9-0.4-2.5-1.3c-0.6-0.9-0.8-2.2-0.8-3.8
		c0-1.7,0.3-3,0.8-3.9s1.4-1.3,2.5-1.3c1.1,0,1.9,0.4,2.5,1.3S256.8,227.3,256.8,229z M251.3,229c0,1.5,0.2,2.5,0.5,3.2
		c0.3,0.7,0.9,1,1.6,1c0.8,0,1.3-0.3,1.6-1c0.3-0.7,0.5-1.7,0.5-3.2s-0.2-2.5-0.5-3.2c-0.3-0.7-0.9-1-1.6-1c-0.7,0-1.3,0.3-1.6,1
		C251.5,226.5,251.3,227.5,251.3,229z"/>
	<path class="st3" d="M261.5,223.9c0.9,0,1.6,0.2,2.2,0.6s0.8,1,0.8,1.8c0,0.5-0.2,0.9-0.5,1.3s-0.8,0.8-1.5,1.1
		c0.8,0.4,1.4,0.8,1.7,1.2c0.3,0.4,0.5,0.9,0.5,1.5c0,0.8-0.3,1.5-0.9,2c-0.6,0.5-1.4,0.7-2.4,0.7c-1.1,0-1.9-0.2-2.5-0.7
		c-0.6-0.5-0.9-1.1-0.9-2c0-1.1,0.7-2,2.1-2.7c-0.6-0.4-1.1-0.7-1.4-1.2c-0.3-0.4-0.4-0.9-0.4-1.4c0-0.7,0.3-1.3,0.8-1.7
		C259.9,224.1,260.6,223.9,261.5,223.9z M259.3,231.5c0,0.5,0.2,1,0.6,1.3s0.9,0.5,1.6,0.5c0.7,0,1.2-0.2,1.6-0.5s0.6-0.8,0.6-1.3
		c0-0.4-0.2-0.8-0.5-1.2c-0.4-0.3-1-0.7-1.9-1c-0.7,0.3-1.2,0.6-1.5,1C259.5,230.6,259.3,231,259.3,231.5z M261.5,224.8
		c-0.6,0-1,0.1-1.3,0.4s-0.5,0.6-0.5,1.1c0,0.4,0.1,0.8,0.4,1.1s0.8,0.6,1.5,0.9c0.7-0.3,1.1-0.6,1.4-0.9s0.4-0.7,0.4-1.1
		c0-0.5-0.2-0.8-0.5-1.1C262.5,224.9,262.1,224.8,261.5,224.8z"/>
</g>
<g class="st0">
	<path class="st3" d="M340.7,234h-6.6v-1l2.6-2.6c0.8-0.8,1.3-1.4,1.6-1.7s0.4-0.7,0.6-1s0.2-0.7,0.2-1.1c0-0.5-0.2-1-0.5-1.3
		c-0.3-0.3-0.8-0.5-1.3-0.5c-0.4,0-0.8,0.1-1.2,0.2s-0.8,0.4-1.2,0.7l-0.6-0.8c0.9-0.8,1.9-1.1,3-1.1c0.9,0,1.7,0.2,2.2,0.7
		c0.5,0.5,0.8,1.1,0.8,1.9c0,0.6-0.2,1.3-0.5,1.9s-1,1.4-2,2.4l-2.2,2.1v0.1h5.1V234z"/>
	<path class="st3" d="M348.8,229c0,1.7-0.3,3-0.8,3.9s-1.4,1.3-2.5,1.3c-1.1,0-1.9-0.4-2.5-1.3c-0.6-0.9-0.8-2.2-0.8-3.8
		c0-1.7,0.3-3,0.8-3.9s1.4-1.3,2.5-1.3c1.1,0,1.9,0.4,2.5,1.3S348.8,227.3,348.8,229z M343.3,229c0,1.5,0.2,2.5,0.5,3.2
		c0.3,0.7,0.9,1,1.6,1c0.8,0,1.3-0.3,1.6-1c0.3-0.7,0.5-1.7,0.5-3.2s-0.2-2.5-0.5-3.2c-0.3-0.7-0.9-1-1.6-1c-0.7,0-1.3,0.3-1.6,1
		C343.5,226.5,343.3,227.5,343.3,229z"/>
	<path class="st3" d="M354.4,234h-1.1v-7.1c0-0.6,0-1.2,0.1-1.7c-0.1,0.1-0.2,0.2-0.3,0.3s-0.7,0.5-1.6,1.3l-0.6-0.8l2.6-2h1V234z"
		/>
	<path class="st3" d="M362.4,234h-1.1v-7.1c0-0.6,0-1.2,0.1-1.7c-0.1,0.1-0.2,0.2-0.3,0.3s-0.7,0.5-1.6,1.3l-0.6-0.8l2.6-2h1V234z"
		/>
</g>
<g class="st0">
	<path class="st3" d="M438.7,234h-6.6v-1l2.6-2.6c0.8-0.8,1.3-1.4,1.6-1.7s0.4-0.7,0.6-1s0.2-0.7,0.2-1.1c0-0.5-0.2-1-0.5-1.3
		c-0.3-0.3-0.8-0.5-1.3-0.5c-0.4,0-0.8,0.1-1.2,0.2s-0.8,0.4-1.2,0.7l-0.6-0.8c0.9-0.8,1.9-1.1,3-1.1c0.9,0,1.7,0.2,2.2,0.7
		c0.5,0.5,0.8,1.1,0.8,1.9c0,0.6-0.2,1.3-0.5,1.9s-1,1.4-2,2.4l-2.2,2.1v0.1h5.1V234z"/>
	<path class="st3" d="M446.8,229c0,1.7-0.3,3-0.8,3.9s-1.4,1.3-2.5,1.3c-1.1,0-1.9-0.4-2.5-1.3c-0.6-0.9-0.8-2.2-0.8-3.8
		c0-1.7,0.3-3,0.8-3.9s1.4-1.3,2.5-1.3c1.1,0,1.9,0.4,2.5,1.3S446.8,227.3,446.8,229z M441.3,229c0,1.5,0.2,2.5,0.5,3.2
		c0.3,0.7,0.9,1,1.6,1c0.8,0,1.3-0.3,1.6-1c0.3-0.7,0.5-1.7,0.5-3.2s-0.2-2.5-0.5-3.2c-0.3-0.7-0.9-1-1.6-1c-0.7,0-1.3,0.3-1.6,1
		C441.5,226.5,441.3,227.5,441.3,229z"/>
	<path class="st3" d="M452.4,234h-1.1v-7.1c0-0.6,0-1.2,0.1-1.7c-0.1,0.1-0.2,0.2-0.3,0.3s-0.7,0.5-1.6,1.3l-0.6-0.8l2.6-2h1V234z"
		/>
	<path class="st3" d="M462.8,234h-6.6v-1l2.6-2.6c0.8-0.8,1.3-1.4,1.6-1.7s0.4-0.7,0.6-1s0.2-0.7,0.2-1.1c0-0.5-0.2-1-0.5-1.3
		c-0.3-0.3-0.8-0.5-1.3-0.5c-0.4,0-0.8,0.1-1.2,0.2s-0.8,0.4-1.2,0.7l-0.6-0.8c0.9-0.8,1.9-1.1,3-1.1c0.9,0,1.7,0.2,2.2,0.7
		c0.5,0.5,0.8,1.1,0.8,1.9c0,0.6-0.2,1.3-0.5,1.9s-1,1.4-2,2.4l-2.2,2.1v0.1h5.1V234z"/>
</g>
<g class="st0">
	<path class="st3" d="M537.7,234h-6.6v-1l2.6-2.6c0.8-0.8,1.3-1.4,1.6-1.7s0.4-0.7,0.6-1s0.2-0.7,0.2-1.1c0-0.5-0.2-1-0.5-1.3
		c-0.3-0.3-0.8-0.5-1.3-0.5c-0.4,0-0.8,0.1-1.2,0.2c-0.4,0.1-0.8,0.4-1.2,0.7l-0.6-0.8c0.9-0.8,1.9-1.1,3-1.1c0.9,0,1.7,0.2,2.2,0.7
		c0.5,0.5,0.8,1.1,0.8,1.9c0,0.6-0.2,1.3-0.5,1.9s-1,1.4-2,2.4l-2.2,2.1v0.1h5.1V234z"/>
	<path class="st3" d="M545.8,229c0,1.7-0.3,3-0.8,3.9c-0.5,0.9-1.4,1.3-2.5,1.3c-1.1,0-1.9-0.4-2.5-1.3c-0.6-0.9-0.8-2.2-0.8-3.8
		c0-1.7,0.3-3,0.8-3.9s1.4-1.3,2.5-1.3c1.1,0,1.9,0.4,2.5,1.3C545.5,226,545.8,227.3,545.8,229z M540.3,229c0,1.5,0.2,2.5,0.5,3.2
		c0.3,0.7,0.9,1,1.6,1c0.8,0,1.3-0.3,1.6-1c0.3-0.7,0.5-1.7,0.5-3.2s-0.2-2.5-0.5-3.2c-0.3-0.7-0.9-1-1.6-1c-0.7,0-1.3,0.3-1.6,1
		C540.5,226.5,540.3,227.5,540.3,229z"/>
	<path class="st3" d="M551.4,234h-1.1v-7.1c0-0.6,0-1.2,0.1-1.7c-0.1,0.1-0.2,0.2-0.3,0.3s-0.7,0.5-1.6,1.3l-0.6-0.8l2.6-2h1V234z"
		/>
	<path class="st3" d="M561.4,226.4c0,0.6-0.2,1.2-0.5,1.6c-0.4,0.4-0.9,0.7-1.5,0.8v0.1c0.8,0.1,1.4,0.4,1.8,0.8s0.6,0.9,0.6,1.6
		c0,1-0.3,1.7-1,2.2c-0.7,0.5-1.6,0.8-2.8,0.8c-0.5,0-1,0-1.5-0.1c-0.4-0.1-0.9-0.2-1.3-0.4v-1.1c0.4,0.2,0.9,0.4,1.4,0.5
		c0.5,0.1,1,0.2,1.4,0.2c1.7,0,2.6-0.7,2.6-2c0-1.2-1-1.8-2.9-1.8h-1v-1h1c0.8,0,1.4-0.2,1.9-0.5c0.5-0.3,0.7-0.8,0.7-1.4
		c0-0.5-0.2-0.9-0.5-1.1c-0.3-0.3-0.8-0.4-1.4-0.4c-0.4,0-0.8,0.1-1.2,0.2s-0.8,0.3-1.3,0.7l-0.6-0.8c0.4-0.3,0.9-0.6,1.4-0.8
		c0.5-0.2,1.1-0.3,1.7-0.3c1,0,1.7,0.2,2.3,0.7C561.1,225,561.4,225.6,561.4,226.4z"/>
</g>
<g class="st0">
	<path class="st3" d="M636.7,234h-6.6v-1l2.6-2.6c0.8-0.8,1.3-1.4,1.6-1.7s0.4-0.7,0.6-1s0.2-0.7,0.2-1.1c0-0.5-0.2-1-0.5-1.3
		c-0.3-0.3-0.8-0.5-1.3-0.5c-0.4,0-0.8,0.1-1.2,0.2c-0.4,0.1-0.8,0.4-1.2,0.7l-0.6-0.8c0.9-0.8,1.9-1.1,3-1.1c0.9,0,1.7,0.2,2.2,0.7
		c0.5,0.5,0.8,1.1,0.8,1.9c0,0.6-0.2,1.3-0.5,1.9s-1,1.4-2,2.4l-2.2,2.1v0.1h5.1V234z"/>
	<path class="st3" d="M644.8,229c0,1.7-0.3,3-0.8,3.9c-0.5,0.9-1.4,1.3-2.5,1.3c-1.1,0-1.9-0.4-2.5-1.3c-0.6-0.9-0.8-2.2-0.8-3.8
		c0-1.7,0.3-3,0.8-3.9s1.4-1.3,2.5-1.3c1.1,0,1.9,0.4,2.5,1.3C644.5,226,644.8,227.3,644.8,229z M639.3,229c0,1.5,0.2,2.5,0.5,3.2
		c0.3,0.7,0.9,1,1.6,1c0.8,0,1.3-0.3,1.6-1c0.3-0.7,0.5-1.7,0.5-3.2s-0.2-2.5-0.5-3.2c-0.3-0.7-0.9-1-1.6-1c-0.7,0-1.3,0.3-1.6,1
		C639.5,226.5,639.3,227.5,639.3,229z"/>
	<path class="st3" d="M650.4,234h-1.1v-7.1c0-0.6,0-1.2,0.1-1.7c-0.1,0.1-0.2,0.2-0.3,0.3s-0.7,0.5-1.6,1.3l-0.6-0.8l2.6-2h1V234z"
		/>
	<path class="st3" d="M661.2,231.7h-1.5v2.3h-1.1v-2.3h-4.9v-1l4.7-6.8h1.2v6.7h1.5V231.7z M658.7,230.7v-3.3c0-0.7,0-1.4,0.1-2.2
		h-0.1c-0.2,0.4-0.4,0.8-0.6,1.1l-3.1,4.4H658.7z"/>
</g>
<g class="st0">
	<path class="st3" d="M734.7,234h-6.6v-1l2.6-2.6c0.8-0.8,1.3-1.4,1.6-1.7s0.4-0.7,0.6-1s0.2-0.7,0.2-1.1c0-0.5-0.2-1-0.5-1.3
		c-0.3-0.3-0.8-0.5-1.3-0.5c-0.4,0-0.8,0.1-1.2,0.2c-0.4,0.1-0.8,0.4-1.2,0.7l-0.6-0.8c0.9-0.8,1.9-1.1,3-1.1c0.9,0,1.7,0.2,2.2,0.7
		c0.5,0.5,0.8,1.1,0.8,1.9c0,0.6-0.2,1.3-0.5,1.9s-1,1.4-2,2.4l-2.2,2.1v0.1h5.1V234z"/>
	<path class="st3" d="M742.8,229c0,1.7-0.3,3-0.8,3.9c-0.5,0.9-1.4,1.3-2.5,1.3c-1.1,0-1.9-0.4-2.5-1.3c-0.6-0.9-0.8-2.2-0.8-3.8
		c0-1.7,0.3-3,0.8-3.9s1.4-1.3,2.5-1.3c1.1,0,1.9,0.4,2.5,1.3C742.5,226,742.8,227.3,742.8,229z M737.3,229c0,1.5,0.2,2.5,0.5,3.2
		c0.3,0.7,0.9,1,1.6,1c0.8,0,1.3-0.3,1.6-1c0.3-0.7,0.5-1.7,0.5-3.2s-0.2-2.5-0.5-3.2c-0.3-0.7-0.9-1-1.6-1c-0.7,0-1.3,0.3-1.6,1
		C737.5,226.5,737.3,227.5,737.3,229z"/>
	<path class="st3" d="M748.4,234h-1.1v-7.1c0-0.6,0-1.2,0.1-1.7c-0.1,0.1-0.2,0.2-0.3,0.3s-0.7,0.5-1.6,1.3l-0.6-0.8l2.6-2h1V234z"
		/>
	<path class="st3" d="M755.3,227.9c1.1,0,1.9,0.3,2.5,0.8c0.6,0.5,0.9,1.2,0.9,2.1c0,1-0.3,1.8-1,2.4c-0.7,0.6-1.6,0.9-2.7,0.9
		c-1.1,0-2-0.2-2.6-0.5v-1.1c0.3,0.2,0.7,0.4,1.2,0.5c0.5,0.1,0.9,0.2,1.4,0.2c0.8,0,1.4-0.2,1.9-0.6c0.4-0.4,0.7-0.9,0.7-1.6
		c0-1.4-0.9-2.1-2.6-2.1c-0.4,0-1,0.1-1.7,0.2l-0.6-0.4l0.4-4.7h5v1h-4l-0.3,3C754.3,227.9,754.8,227.9,755.3,227.9z"/>
</g>
<g class="st0">
	<path class="st3" d="M833.7,234h-6.6v-1l2.6-2.6c0.8-0.8,1.3-1.4,1.6-1.7s0.4-0.7,0.6-1s0.2-0.7,0.2-1.1c0-0.5-0.2-1-0.5-1.3
		c-0.3-0.3-0.8-0.5-1.3-0.5c-0.4,0-0.8,0.1-1.2,0.2c-0.4,0.1-0.8,0.4-1.2,0.7l-0.6-0.8c0.9-0.8,1.9-1.1,3-1.1c0.9,0,1.7,0.2,2.2,0.7
		c0.5,0.5,0.8,1.1,0.8,1.9c0,0.6-0.2,1.3-0.5,1.9s-1,1.4-2,2.4l-2.2,2.1v0.1h5.1V234z"/>
	<path class="st3" d="M841.8,229c0,1.7-0.3,3-0.8,3.9c-0.5,0.9-1.4,1.3-2.5,1.3c-1.1,0-1.9-0.4-2.5-1.3c-0.6-0.9-0.8-2.2-0.8-3.8
		c0-1.7,0.3-3,0.8-3.9s1.4-1.3,2.5-1.3c1.1,0,1.9,0.4,2.5,1.3C841.5,226,841.8,227.3,841.8,229z M836.3,229c0,1.5,0.2,2.5,0.5,3.2
		c0.3,0.7,0.9,1,1.6,1c0.8,0,1.3-0.3,1.6-1c0.3-0.7,0.5-1.7,0.5-3.2s-0.2-2.5-0.5-3.2c-0.3-0.7-0.9-1-1.6-1c-0.7,0-1.3,0.3-1.6,1
		C836.5,226.5,836.3,227.5,836.3,229z"/>
	<path class="st3" d="M847.4,234h-1.1v-7.1c0-0.6,0-1.2,0.1-1.7c-0.1,0.1-0.2,0.2-0.3,0.3s-0.7,0.5-1.6,1.3l-0.6-0.8l2.6-2h1V234z"
		/>
	<path class="st3" d="M851.3,229.7c0-2,0.4-3.4,1.1-4.4c0.8-1,1.9-1.5,3.4-1.5c0.5,0,0.9,0,1.2,0.1v1c-0.4-0.1-0.8-0.2-1.2-0.2
		c-1.1,0-1.9,0.3-2.5,1c-0.6,0.7-0.9,1.7-0.9,3.1h0.1c0.5-0.8,1.3-1.2,2.4-1.2c0.9,0,1.6,0.3,2.1,0.8c0.5,0.5,0.8,1.3,0.8,2.2
		c0,1-0.3,1.9-0.9,2.5c-0.6,0.6-1.3,0.9-2.3,0.9c-1,0-1.9-0.4-2.5-1.2C851.6,232.2,851.3,231.1,851.3,229.7z M854.7,233.2
		c0.6,0,1.1-0.2,1.5-0.6c0.4-0.4,0.5-1,0.5-1.8c0-0.7-0.2-1.2-0.5-1.6s-0.8-0.6-1.5-0.6c-0.4,0-0.8,0.1-1.1,0.3s-0.6,0.4-0.8,0.7
		c-0.2,0.3-0.3,0.6-0.3,0.9c0,0.5,0.1,0.9,0.3,1.3s0.4,0.7,0.8,1C853.9,233.1,854.2,233.2,854.7,233.2z"/>
</g>
<g class="st0">
	<path class="st3" d="M932.7,234h-6.6v-1l2.6-2.6c0.8-0.8,1.3-1.4,1.6-1.7s0.4-0.7,0.6-1s0.2-0.7,0.2-1.1c0-0.5-0.2-1-0.5-1.3
		c-0.3-0.3-0.8-0.5-1.3-0.5c-0.4,0-0.8,0.1-1.2,0.2c-0.4,0.1-0.8,0.4-1.2,0.7l-0.6-0.8c0.9-0.8,1.9-1.1,3-1.1c0.9,0,1.7,0.2,2.2,0.7
		c0.5,0.5,0.8,1.1,0.8,1.9c0,0.6-0.2,1.3-0.5,1.9s-1,1.4-2,2.4l-2.2,2.1v0.1h5.1V234z"/>
	<path class="st3" d="M940.8,229c0,1.7-0.3,3-0.8,3.9c-0.5,0.9-1.4,1.3-2.5,1.3c-1.1,0-1.9-0.4-2.5-1.3c-0.6-0.9-0.8-2.2-0.8-3.8
		c0-1.7,0.3-3,0.8-3.9s1.4-1.3,2.5-1.3c1.1,0,1.9,0.4,2.5,1.3C940.5,226,940.8,227.3,940.8,229z M935.3,229c0,1.5,0.2,2.5,0.5,3.2
		c0.3,0.7,0.9,1,1.6,1c0.8,0,1.3-0.3,1.6-1c0.3-0.7,0.5-1.7,0.5-3.2s-0.2-2.5-0.5-3.2c-0.3-0.7-0.9-1-1.6-1c-0.7,0-1.3,0.3-1.6,1
		C935.5,226.5,935.3,227.5,935.3,229z"/>
	<path class="st3" d="M946.4,234h-1.1v-7.1c0-0.6,0-1.2,0.1-1.7c-0.1,0.1-0.2,0.2-0.3,0.3s-0.7,0.5-1.6,1.3l-0.6-0.8l2.6-2h1V234z"
		/>
	<path class="st3" d="M951.5,234l4.1-8.9h-5.4v-1h6.7v0.9l-4.1,9.1H951.5z"/>
</g>
</svg>
