<?xml version="1.0" encoding="utf-8"?>
<!-- Generator: Adobe Illustrator 22.0.0, SVG Export Plug-In . SVG Version: 6.00 Build 0)  -->
<svg version="1.1" id="Слой_1" xmlns="http://www.w3.org/2000/svg" xmlns:xlink="http://www.w3.org/1999/xlink" x="0px" y="0px"
	 viewBox="0 0 378 432.7" style="enable-background:new 0 0 378 432.7;" xml:space="preserve">
<style type="text/css">
	.st0{fill:none;}
	.st1{fill:#FFFFFF;}
	.st2{font-family:'OpenSans';}
	.st3{font-size:14px;}
	.st4{fill:#00DBA1;}
	.st5{clip-path:url(#SVGID_2_);}
	.st6{clip-path:url(#SVGID_4_);}
	.st7{clip-path:url(#SVGID_6_);}
	.st8{fill:url(#SVGID_7_);}
	.st9{clip-path:url(#SVGID_9_);}
	.st10{fill:url(#SVGID_10_);}
	.st11{clip-path:url(#SVGID_12_);}
	.st12{fill:url(#SVGID_13_);}
	.st13{clip-path:url(#SVGID_15_);}
	.st14{clip-path:url(#SVGID_17_);}
	.st15{clip-path:url(#SVGID_19_);}
	.st16{clip-path:url(#SVGID_21_);}
	.st17{fill:#37DBD0;}
	.st18{clip-path:url(#SVGID_23_);}
	.st19{fill:#0084BF;}
	.st20{clip-path:url(#SVGID_25_);}
	.st21{fill:#85336B;}
</style>
<rect x="-202" y="-7804.3" class="st0" width="1380" height="16000"/>
<g>
	<text transform="matrix(1 0 0 1 21.9902 427.6637)" class="st1 st2 st3 .marketing__graph-text">2013</text>
</g>
<g>
	<text transform="matrix(1 0 0 1 24.4902 366.1668)" class="st4 st2 st3">150</text>
</g>
<g>
	<text transform="matrix(1 0 0 1 100.4902 333.5)" class="st4 st2 st3">514</text>
</g>
<g>
	<text transform="matrix(1 0 0 1 175.8235 327.5002)" class="st4 st2 st3">576</text>
</g>
<g>
	<text transform="matrix(1 0 0 1 253.1568 289.5002)" class="st4 st2 st3">928</text>
</g>
<g>
	<text transform="matrix(1 0 0 1 321.8235 25.8335)" class="st4 st2 st3">3,609</text>
</g>
<rect x="-202" y="-7804.3" class="st0" width="1380" height="16000"/>
<g>
	<text transform="matrix(1 0 0 1 96.9902 427.6637)" class="st1 st2 st3">2014</text>
</g>
<rect x="-202" y="-7804.3" class="st0" width="1380" height="16000"/>
<g>
	<text transform="matrix(1 0 0 1 173.9902 427.6637)" class="st1 st2 st3">2015</text>
</g>
<g>
	<defs>
		<rect id="SVGID_1_" x="-202" y="-7804.3" width="1380" height="16000"/>
	</defs>
	<clipPath id="SVGID_2_">
		<use xlink:href="#SVGID_1_"  style="overflow:visible;"/>
	</clipPath>
	<g class="st5">
		<text transform="matrix(1 0 0 1 250.9902 427.6637)" class="st1 st2 st3">2016</text>
	</g>
</g>
<g>
	<defs>
		<rect id="SVGID_3_" x="-202" y="-7804.3" width="1380" height="16000"/>
	</defs>
	<clipPath id="SVGID_4_">
		<use xlink:href="#SVGID_3_"  style="overflow:visible;"/>
	</clipPath>
	<g class="st6">
		<text transform="matrix(1 0 0 1 310.0942 427.6637)" class="st1 st2 st3">2017YTD</text>
	</g>
</g>
<g>
	<defs>
		<rect id="SVGID_5_" x="-202" y="-7804.3" width="1380" height="16000"/>
	</defs>
	<clipPath id="SVGID_6_">
		<use xlink:href="#SVGID_5_"  style="overflow:visible;"/>
	</clipPath>
	<g class="st7">

			<linearGradient id="SVGID_7_" gradientUnits="userSpaceOnUse" x1="445.8612" y1="351.4969" x2="75.1305" y2="9.9968" gradientTransform="matrix(1 0 0 -1 0 471.3333)">
			<stop  offset="0" style="stop-color:#4EFFD7"/>
			<stop  offset="1" style="stop-color:#0086C0"/>
		</linearGradient>
		<path class="st8" d="M378,397.7H0v-15h75.6v-36h75.6v-6h75.6v-36h75.6v-268H378V397.7z"/>
	</g>
</g>
<g>
	<defs>
		<rect id="SVGID_8_" x="-202" y="-7804.3" width="1380" height="16000"/>
	</defs>
	<clipPath id="SVGID_9_">
		<use xlink:href="#SVGID_8_"  style="overflow:visible;"/>
	</clipPath>
	<g class="st9">

			<linearGradient id="SVGID_10_" gradientUnits="userSpaceOnUse" x1="-32.7235" y1="373.2495" x2="237.3342" y2="428.2495" gradientTransform="matrix(1 0 0 -1 76 761.3333)">
			<stop  offset="0" style="stop-color:#00AEDB"/>
			<stop  offset="1" style="stop-color:#0076B5"/>
		</linearGradient>
		<path class="st10" d="M227,355.7h75.5v-4H378v-11h-75.5v-14H227v15h-75.5v8H76v48h75.5v-23H227V355.7z"/>
	</g>
</g>
<g>
	<defs>
		<rect id="SVGID_11_" x="-202" y="-7804.3" width="1380" height="16000"/>
	</defs>
	<clipPath id="SVGID_12_">
		<use xlink:href="#SVGID_11_"  style="overflow:visible;"/>
	</clipPath>
	<g class="st11">

			<linearGradient id="SVGID_13_" gradientUnits="userSpaceOnUse" x1="362.7404" y1="429.0331" x2="12.7404" y2="383.0331" gradientTransform="matrix(1 0 0 -1 0 786.3333)">
			<stop  offset="0" style="stop-color:#DAB2AC"/>
			<stop  offset="1" style="stop-color:#7B2464"/>
		</linearGradient>
		<path class="st12" d="M378,397.7H0v-14h75.6v-31h75.6v22h75.6v-19h75.6v-4H378V397.7z"/>
	</g>
</g>
<g>
	<defs>
		<rect id="SVGID_14_" x="-197" y="-7831.3" width="1380" height="16000"/>
	</defs>
	<clipPath id="SVGID_15_">
		<use xlink:href="#SVGID_14_"  style="overflow:visible;"/>
	</clipPath>
	<g class="st13">
		<text transform="matrix(1 0 0 1 49 52.6637)" class="st1 st2 st3">ICO</text>
	</g>
</g>
<g>
	<defs>
		<rect id="SVGID_16_" x="-197" y="-7831.3" width="1380" height="16000"/>
	</defs>
	<clipPath id="SVGID_17_">
		<use xlink:href="#SVGID_16_"  style="overflow:visible;"/>
	</clipPath>
	<g class="st14">
		<text transform="matrix(1 0 0 1 49 92.6637)" class="st1 st2 st3">Corporate Venture</text>
	</g>
</g>
<g>
	<defs>
		<rect id="SVGID_18_" x="-197" y="-7831.3" width="1380" height="16000"/>
	</defs>
	<clipPath id="SVGID_19_">
		<use xlink:href="#SVGID_18_"  style="overflow:visible;"/>
	</clipPath>
	<g class="st15">
		<text transform="matrix(1 0 0 1 49 132.6637)" class="st1 st2 st3">Other Early Stage Investors</text>
	</g>
</g>
<g>
	<defs>
		<rect id="SVGID_20_" x="-197" y="-7831.3" width="1380" height="16000"/>
	</defs>
	<clipPath id="SVGID_21_">
		<use xlink:href="#SVGID_20_"  style="overflow:visible;"/>
	</clipPath>
	<g class="st16">
		<path class="st17" d="M5,41.7h30v10H5V41.7z"/>
	</g>
</g>
<g>
	<defs>
		<rect id="SVGID_22_" x="-197" y="-7831.3" width="1380" height="16000"/>
	</defs>
	<clipPath id="SVGID_23_">
		<use xlink:href="#SVGID_22_"  style="overflow:visible;"/>
	</clipPath>
	<g class="st18">
		<path class="st19" d="M5,81.7h30v10H5V81.7z"/>
	</g>
</g>
<g>
	<defs>
		<rect id="SVGID_24_" x="-197" y="-7831.3" width="1380" height="16000"/>
	</defs>
	<clipPath id="SVGID_25_">
		<use xlink:href="#SVGID_24_"  style="overflow:visible;"/>
	</clipPath>
	<g class="st20">
		<path class="st21" d="M5,122.7h30v10H5V122.7z"/>
	</g>
</g>
</svg>
