<?xml version="1.0" encoding="UTF-8"?>
<svg width="26px" height="22px" viewBox="0 0 26 22" version="1.1" xmlns="http://www.w3.org/2000/svg" xmlns:xlink="http://www.w3.org/1999/xlink">
    <!-- Generator: Sketch 49.3 (51167) - http://www.bohemiancoding.com/sketch -->
    <title>icons / medium</title>
    <desc>Created with Sketch.</desc>
    <defs></defs>
    <g id="Symbols" stroke="none" stroke-width="1" fill="none" fill-rule="evenodd">
        <g id="navig-/-Social-Block" transform="translate(-15.000000, -178.000000)" fill="#FF4B81">
            <g id="icons-/-medium" transform="translate(13.000000, 174.000000)">
                <g id="Group" transform="translate(2.000000, 4.000000)">
                    <path d="M24.9664538,3.79860836 C24.9620574,3.79485827 24.9585403,3.78993628 24.9530449,3.78712371 L24.9451314,3.78290486 L18.0054763,0.0832051564 C17.9586551,0.0581264191 17.9094158,0.0412510071 17.8595171,0.0276569252 C17.796869,0.0105471325 17.7329019,0 17.6687151,0 C17.4029551,0 17.138514,0.142269098 16.9951926,0.390243902 L13,7.31291291 L18.0138294,16 L24.9877761,3.91673625 C25.010857,3.87642276 24.9998661,3.82673405 24.9664538,3.79860836" id="Fill-53"></path>
                    <polyline id="Fill-54" points="10 7 10 15.3078064 18 19 10 7"></polyline>
                    <path d="M18,18.8691144 L24.4744859,21.8246181 C25.3169929,22.2093455 26,21.9399643 26,21.2233766 L26,7 L18,18.8691144" id="Fill-55"></path>
                    <path d="M7.95688691,3.95010664 L0.886111509,0.102327903 C0.758377526,0.0329445932 0.636835316,0 0.526759352,0 C0.217170704,0 0,0.260811363 0,0.698325543 L0,17.3128829 C0,17.7576349 0.299039702,18.2842492 0.664583632,18.4831647 L6.89236061,21.8719653 C7.05197076,21.9588193 7.20401319,22 7.34137882,22 C7.72847929,22 8,21.6740482 8,21.1269683 L8,4.02572946 C8,3.99378318 7.98325928,3.96433271 7.95688691,3.95010664" id="Fill-56"></path>
                </g>
            </g>
        </g>
    </g>
</svg>