<?xml version="1.0" encoding="UTF-8"?>
<svg width="24px" height="20px" viewBox="0 0 24 20" version="1.1" xmlns="http://www.w3.org/2000/svg" xmlns:xlink="http://www.w3.org/1999/xlink">
    <!-- Generator: Sketch 49.3 (51167) - http://www.bohemiancoding.com/sketch -->
    <title>icons / reddit</title>
    <desc>Created with Sketch.</desc>
    <defs></defs>
    <g id="Symbols" stroke="none" stroke-width="1" fill="none" fill-rule="evenodd">
        <g id="navig-/-Social-Block" transform="translate(-16.000000, -233.000000)" fill="#FF4B81">
            <g id="icons-/-reddit" transform="translate(13.000000, 228.000000)">
                <path d="M18.512022,18 C17.6904053,18 17,17.3331806 17,16.5109991 C17,15.6888176 17.6904053,15 18.512022,15 C19.3336387,15 20,15.6888176 20,16.5109991 C20,17.3331806 19.3336387,18 18.512022,18 M18.8148123,20.9485479 C18.0081687,21.6560849 16.7641708,22 15.0118571,22 C15.0082366,22 15.003892,21.9993643 14.9995474,21.9993643 C14.995927,21.9993643 14.9915824,22 14.9872378,22 C13.2349241,22 11.9916503,21.6560849 11.1857308,20.9485479 C10.9380897,20.7311376 10.9380897,20.379594 11.1857308,20.1628194 C11.4326477,19.9460448 11.8330731,19.9460448 12.0807141,20.1628194 C12.6368203,20.651039 13.5875591,20.8887918 14.9872378,20.8887918 C14.9915824,20.8887918 14.995927,20.8894275 14.9995474,20.8894275 C15.003892,20.8894275 15.0082366,20.8887918 15.0118571,20.8887918 C16.4115358,20.8887918 17.3629987,20.651039 17.9198289,20.1628194 C18.16747,19.9454091 18.5678954,19.9460448 18.8148123,20.1628194 C19.0617292,20.3802297 19.0617292,20.7317733 18.8148123,20.9485479 M10,16.5109991 C10,15.689505 10.689505,15 11.5109991,15 C12.3331806,15 13,15.689505 13,16.5109991 C13,17.3331806 12.3331806,18 11.5109991,18 C10.689505,18 10,17.3331806 10,16.5109991 M23,6 C23.5513955,6 24,6.44875724 24,6.99965952 C24,7.55124276 23.5513955,8 23,8 C22.4486045,8 22,7.55124276 22,6.99965952 C22,6.44875724 22.4486045,6 23,6 M27,14.7852259 C27,13.2089774 25.70625,11.9270214 24.1155,11.9270214 C23.427,11.9270214 22.79475,12.1678062 22.29825,12.568371 C20.5395,11.4729489 18.3075,10.8130202 15.915,10.6733056 L17.163,6.76352556 L20.59275,7.56391201 C20.68275,8.80127824 21.72675,9.78076694 22.998,9.78076694 C24.32775,9.78076694 25.41,8.70838288 25.41,7.39001189 C25.41,6.07238407 24.32775,5 22.998,5 C22.068,5 21.2595,5.52467301 20.85675,6.29087396 L16.87125,5.36117717 C16.5375,5.28314507 16.2,5.47339477 16.0965,5.79741379 L14.547,10.6502675 C11.96925,10.7126932 9.546,11.3748514 7.65825,12.5341855 C7.1685,12.1544293 6.55275,11.9270214 5.8845,11.9270214 C4.29375,11.9270214 3,13.2089774 3,14.7852259 C3,15.7595125 3.495,16.6208383 4.24875,17.1365933 C4.21725,17.363258 4.20075,17.591409 4.20075,17.8225327 C4.20075,19.7926576 5.3565,21.6252973 7.455,22.9823127 C9.4665,24.283591 12.129,25 14.95125,25 C17.7735,25 20.436,24.283591 22.4475,22.9823127 C24.546,21.6252973 25.70175,19.7926576 25.70175,17.8225327 C25.70175,17.6122176 25.6875,17.4033888 25.66125,17.1960464 C26.46525,16.6884661 27,15.7974138 27,14.7852259" id="Reddit"></path>
            </g>
        </g>
    </g>
</svg>