<svg xmlns="http://www.w3.org/2000/svg" viewBox="0 0 16.22 15.95"><defs><style>.cls-1{fill:#fff;}</style></defs><title>LinkedIN__icon</title><g id="Слой_2" data-name="Слой 2"><g id="Layer_1" data-name="Layer 1"><path class="cls-1" d="M2.16,3.78A1.51,1.51,0,0,0,3.3,3.33a1.61,1.61,0,0,0,.48-1.17A1.64,1.64,0,0,0,3.3,1,1.58,1.58,0,0,0,2.19.54h0A1.62,1.62,0,0,0,.54,2.16,1.58,1.58,0,0,0,1,3.33a1.67,1.67,0,0,0,1.13.45Zm.06.55H2.16A2.06,2.06,0,0,1,.65,3.7,2.15,2.15,0,0,1,.65.62,2.14,2.14,0,0,1,2.19,0h0A2,2,0,0,1,3.7.65a2,2,0,0,1,.63,1.51A2.17,2.17,0,0,1,3.68,3.7a2,2,0,0,1-1.46.63Z"/><path class="cls-1" d="M1.05,5.41a.26.26,0,0,0-.24.27v9.46a.3.3,0,0,0,.27.27H3.24a.27.27,0,0,0,.27-.25V5.68a.28.28,0,0,0-.27-.27ZM3.24,16H1.08a.83.83,0,0,1-.81-.81V5.68a.79.79,0,0,1,.78-.81H3.24a.82.82,0,0,1,.81.81v9.48a.82.82,0,0,1-.81.79Z"/><path class="cls-1" d="M13,15.41h2.65l0,0v-7a3.23,3.23,0,0,0-3.22-3.29h-.57A3.06,3.06,0,0,0,9.41,6.38l0,0-.73.73V5.43l0,0H6v10h3V9.62a2.07,2.07,0,0,1,2-2.13,2.12,2.12,0,0,1,1.51.62A2,2,0,0,1,13,9.6l0,5.81Zm2.68.54H13a.58.58,0,0,1-.54-.54V9.6a1.38,1.38,0,0,0-.38-1.11A1.56,1.56,0,0,0,10.92,8,1.52,1.52,0,0,0,9.43,9.62v5.84a.53.53,0,0,1-.54.49h-3a.53.53,0,0,1-.54-.49V5.38a.55.55,0,0,1,.54-.51h2.7a.58.58,0,0,1,.54.54v.38A3.62,3.62,0,0,1,11.87,4.6h.56a3.75,3.75,0,0,1,3.79,3.83v7a.58.58,0,0,1-.54.54Z"/></g></g></svg>