<svg xmlns="http://www.w3.org/2000/svg" xmlns:xlink="http://www.w3.org/1999/xlink" viewBox="0 0 436.65 245.61"><defs><style>.cls-1{mask:url(#mask);filter:url(#luminosity-noclip-2);}.cls-2{mix-blend-mode:multiply;fill:url(#radial-gradient);}.cls-3{isolation:isolate;}.cls-4{fill:#231f20;opacity:0.3;}.cls-5{mask:url(#mask-2);}.cls-6{mix-blend-mode:screen;fill:url(#Безымянный_градиент_17);}.cls-7{fill:#fff;}.cls-8{fill:url(#linear-gradient);}.cls-9{filter:url(#luminosity-noclip);}</style><filter id="luminosity-noclip" x="158.05" y="-6131.53" width="120.55" height="32766" filterUnits="userSpaceOnUse" color-interpolation-filters="sRGB"><feFlood flood-color="#fff" result="bg"/><feBlend in="SourceGraphic" in2="bg"/></filter><mask id="mask" x="158.05" y="-6131.53" width="120.55" height="32766" maskUnits="userSpaceOnUse"><g class="cls-9"/></mask><radialGradient id="radial-gradient" cx="218.32" cy="122.81" r="60.27" gradientUnits="userSpaceOnUse"><stop offset="0"/><stop offset="0.67" stop-color="#aeaeae"/><stop offset="1" stop-color="#fff"/></radialGradient><filter id="luminosity-noclip-2" x="158.05" y="62.53" width="120.55" height="120.55" filterUnits="userSpaceOnUse" color-interpolation-filters="sRGB"><feFlood flood-color="#fff" result="bg"/><feBlend in="SourceGraphic" in2="bg"/></filter><mask id="mask-2" x="158.05" y="62.53" width="120.55" height="120.55" maskUnits="userSpaceOnUse"><g class="cls-1"><path class="cls-2" d="M278.6,122.81a60.28,60.28,0,1,1-60.28-60.28A60.28,60.28,0,0,1,278.6,122.81Z"/></g></mask><radialGradient id="Безымянный_градиент_17" cx="218.32" cy="122.81" r="60.27" gradientUnits="userSpaceOnUse"><stop offset="0" stop-color="#fff"/><stop offset="0.67" stop-color="#fff" stop-opacity="0.32"/><stop offset="1" stop-color="#fff" stop-opacity="0"/></radialGradient><linearGradient id="linear-gradient" x1="213.29" y1="120.53" x2="233.05" y2="120.53" gradientUnits="userSpaceOnUse"><stop offset="0" stop-color="#6c5ed6"/><stop offset="0.35" stop-color="#976bcc"/><stop offset="1" stop-color="#f287b7"/></linearGradient></defs><title>play_button</title><g class="cls-3"><g id="Слой_2" data-name="Слой 2"><g id="Layer_1" data-name="Layer 1"><rect class="cls-4" width="436.65" height="245.61" rx="50.54" ry="50.54"/><g class="cls-5"><path class="cls-6" d="M278.6,122.81a60.28,60.28,0,1,1-60.28-60.28A60.28,60.28,0,0,1,278.6,122.81Z"/></g><path class="cls-7" d="M258.85,121a39.57,39.57,0,1,1-39.57-39.57A39.56,39.56,0,0,1,258.85,121Z"/><path class="cls-8" d="M216.46,103a1.83,1.83,0,0,0-2.59-.06,1.79,1.79,0,0,0-.06,2.55l14.81,15.21-14.81,14.82a1.84,1.84,0,0,0,0,2.56,1.89,1.89,0,0,0,1.36.56,1.8,1.8,0,0,0,1.29-.56l16.07-16a1.88,1.88,0,0,0,0-2.59Z"/></g></g></g></svg>