<svg xmlns="http://www.w3.org/2000/svg" viewBox="0 0 313.18 221.36"><defs><style>.cls-1,.cls-17,.cls-18,.cls-2,.cls-22,.cls-23,.cls-24,.cls-9{fill:none;}.cls-1,.cls-17,.cls-23,.cls-24{stroke:#0e0f2d;}.cls-1,.cls-17,.cls-18,.cls-2,.cls-22,.cls-9{stroke-linecap:round;}.cls-1,.cls-2,.cls-22,.cls-23,.cls-24{stroke-miterlimit:10;}.cls-1,.cls-2{stroke-width:8.03px;}.cls-2,.cls-22{stroke:#ece6e1;}.cls-3{fill:#6b9c38;}.cls-4{fill:#2e2b33;}.cls-5{fill:#0e0f2d;}.cls-6{fill:#162b52;}.cls-7{fill:#d8d0bc;}.cls-8{fill:#ffa685;}.cls-9{stroke:#ec8d75;stroke-width:1.49px;}.cls-10{fill:#d0d2d3;}.cls-11{fill:#ece6e1;}.cls-12{fill:#1f2935;}.cls-13{fill:#3c265b;}.cls-14{fill:#f7f3e8;}.cls-15{fill:#929497;}.cls-16{fill:#422b21;}.cls-17,.cls-18{stroke-width:1.22px;}.cls-18{stroke:#d8d0bc;}.cls-19{fill:#00324b;}.cls-20{fill:#1a3b51;}.cls-21{fill:#5a4a42;}.cls-22{stroke-width:8.14px;}.cls-23{stroke-width:1.17px;}.cls-24{stroke-width:1.21px;}</style></defs><title>Three_men</title><g id="Слой_2" data-name="Слой 2"><g id="Layer_1" data-name="Layer 1"><path class="cls-1" d="M77.21,63.22,66.68,85.68a7,7,0,0,1-6.31,4h0a7,7,0,0,1-6.94-6.29L50.74,56"/><line class="cls-2" x1="78.88" y1="59.65" x2="77.21" y2="63.22"/><path class="cls-3" d="M45.82,201l-.14,10.75a3.37,3.37,0,0,1-6.72-.09l.14-10.75Z"/><path class="cls-4" d="M37.67,207l1.23-93.61a5.06,5.06,0,0,1,10.1.13L47.78,207Z"/><path class="cls-5" d="M32,105.33c9,0,16.3,8.15,16.3,18.21v3.72H15.72v-3.72C15.72,113.48,23,105.33,32,105.33Z"/><path class="cls-3" d="M20.87,201.88l-.58,10.87a3.28,3.28,0,0,1-3.58,2.95,3.29,3.29,0,0,1-3.22-3.34l.57-10.82Z"/><path class="cls-4" d="M12.59,206.28c1.66-31.78,2.76-61.13,3.5-93a4.88,4.88,0,0,1,5.15-4.56,4.86,4.86,0,0,1,5,4.78c-.74,31.84-1.84,61.13-3.49,93Z"/><path class="cls-5" d="M54,213.6a3.42,3.42,0,0,1-3.4-3.06V210a2,2,0,0,0-2-2H47.29a1.44,1.44,0,0,0-1.43,1.44v.39a2.43,2.43,0,0,1-2.41,2.29H40a2.22,2.22,0,0,0-2.21,2.22v5h24.8V218a4.38,4.38,0,0,0-4.38-4.39Z"/><path class="cls-4" d="M28.82,213.56a3.46,3.46,0,0,1-3.44-3.08v-.56a2.05,2.05,0,0,0-2-2H21a1.44,1.44,0,0,0-1.44,1.45v.39A2.44,2.44,0,0,1,17.12,212H13.65a2.23,2.23,0,0,0-2.23,2.23v5H34.16V218a4.41,4.41,0,0,0-4.41-4.42Z"/><path class="cls-6" d="M36.41,46.82l3.19,3.31a82.07,82.07,0,0,1,12.66,2.2L51,71v47.93H13.37V71L12.08,52.33a82.4,82.4,0,0,1,20.09-2.56Z"/><path class="cls-7" d="M39.66,50.14v9.23l5.46-6.7.16-1.8C43.41,50.56,41.53,50.32,39.66,50.14Z"/><path class="cls-8" d="M32.17,31.71A4.25,4.25,0,0,0,27.92,36V50.17l6.24.64,2.25-.64V36A4.24,4.24,0,0,0,32.17,31.71Z"/><polygon class="cls-6" points="29.88 59.37 24.11 50.15 27.68 46.82 34.68 54.41 29.88 59.37"/><polygon class="cls-6" points="29.88 59.37 34.76 54.5 39.63 59.37 29.88 59.37"/><path class="cls-6" d="M24.14,50.2,39.65,75V50.14a81.63,81.63,0,0,1,12.61,2.19L52.15,71v51.33h-40l1.18-21.57L12.19,71l-.11-18.66A80.39,80.39,0,0,1,24.14,50.2Z"/><path class="cls-6" d="M37.4,80.4A1.46,1.46,0,1,0,38.86,79,1.46,1.46,0,0,0,37.4,80.4Z"/><path class="cls-6" d="M37.4,91.81a1.46,1.46,0,1,0,1.46-1.46A1.46,1.46,0,0,0,37.4,91.81Z"/><polygon class="cls-6" points="37.59 60.42 39.63 67.31 39.65 75.02 35.02 67.61 35.7 60.48 31.76 57.43 34.68 54.75 37.61 57.43 37.59 60.42"/><path class="cls-6" d="M14.2,103.83a2.63,2.63,0,0,0,2.63,2.63h10a2.63,2.63,0,0,0,2.63-2.63h0a2.62,2.62,0,0,0-2.63-2.62h-10a2.62,2.62,0,0,0-2.63,2.62Z"/><path class="cls-6" d="M14.2,101.21a2.62,2.62,0,0,0,2.63,2.62h10a2.62,2.62,0,0,0,2.63-2.62h0a2.63,2.63,0,0,0-2.63-2.63h-10a2.63,2.63,0,0,0-2.63,2.63Z"/><polygon class="cls-6" points="39.87 122.61 32.95 122.61 39.87 102.52 39.87 122.61"/><path class="cls-8" d="M5.14,132.57a4.18,4.18,0,0,1-4-1.77,4,4,0,0,1-.71-3.59c.73-2.18,1-2.08,1-8.83l5.72,0c3.73,9,2.23,7.28,1.81,10.51a4.27,4.27,0,0,1-3.64,3.69Z"/><path class="cls-6" d="M.33,116.51c-1.12-20.46.31-42,8.84-61.62A4.3,4.3,0,0,1,15,52.57a4.43,4.43,0,0,1,2.12,5.72C9.3,76.14,7.84,96.22,8.92,116.07Z"/><polygon class="cls-5" points="9.27 121.91 0.69 122.5 0.33 116.52 8.92 116.07 9.27 121.91"/><path class="cls-8" d="M50.79,16.75,49.11,34.46a16.73,16.73,0,0,1-6.46,10.36c-.46,0-7.24-.69-7.35-.7A13.66,13.66,0,0,1,23,29.23l1.42-15Z"/><path class="cls-8" d="M22,24.41A3.81,3.81,0,1,0,21.31,32l6.18.58L28,25Z"/><path class="cls-5" d="M55.65,7.22,33.8,5.15a10.77,10.77,0,0,0-9,3.51,4.2,4.2,0,0,0-3.2-2,4,4,0,0,0-1.3.08L21.35,8a5.31,5.31,0,0,1,1,3.42l-.21,2.29a.24.24,0,0,0,0,.09l-1,10.53,1.51.14-.25,2.71a2.27,2.27,0,1,0,4.51.43L27.08,26a3.67,3.67,0,0,1,3.86-2.67l.43-4.46a3.66,3.66,0,0,1,3.85-2.66v0l15.48,1.47a4.83,4.83,0,0,0,5.19-3.88L52,13.42A10.85,10.85,0,0,0,55.65,7.22Z"/><path class="cls-5" d="M47.75,26.59a.91.91,0,1,1-1.81-.17.91.91,0,1,1,1.81.17Z"/><path class="cls-5" d="M38,25.67a.91.91,0,1,1-.82-1A.91.91,0,0,1,38,25.67Z"/><path class="cls-9" d="M37.45,35.09a11.57,11.57,0,0,0,5.93.76"/><path class="cls-10" d="M77.51,55.5a2.34,2.34,0,0,1-2.76,1.79l-.67-.14a2.33,2.33,0,0,1-1.79-2.77l2.45-11.5a2.34,2.34,0,0,1,2.76-1.79l.66.15A2.32,2.32,0,0,1,80,44Z"/><path class="cls-5" d="M78.93,55.84a2.33,2.33,0,0,1-2.76,1.79l-.67-.14a2.33,2.33,0,0,1-1.79-2.76l2.45-11.5a2.32,2.32,0,0,1,2.76-1.79l.66.14a2.32,2.32,0,0,1,1.79,2.76Z"/><path class="cls-10" d="M79.39,45.91c-.13.67-.6,1.15-1,1.07s-.68-.71-.54-1.39.58-1.15,1-1.06S79.52,45.23,79.39,45.91Z"/><path class="cls-8" d="M77.67,48.44a3.81,3.81,0,0,1,5.69,1.21A10.38,10.38,0,0,1,82,61.1a3.8,3.8,0,1,1-5.91-4.78,2.93,2.93,0,0,0,.52-3.08A3.81,3.81,0,0,1,77.67,48.44Z"/><path class="cls-8" d="M123.83,119.35a3.42,3.42,0,0,0-.42-.52,3.94,3.94,0,0,0-5.56-.23,10.8,10.8,0,0,0-2.59,11.65,3.94,3.94,0,0,0,7.4-2.68,3,3,0,0,1,.53-3.18A3.93,3.93,0,0,0,123.83,119.35Z"/><path class="cls-5" d="M127.44,116.4c6.69-20.12,11.14-42,8-63.91a4.45,4.45,0,0,0-5.14-3.88,4.59,4.59,0,0,0-3.68,5.13c2.9,19.93-1.11,40.37-7.6,59.88Z"/><polygon class="cls-11" points="117.05 119.35 125.46 122.27 127.44 116.4 118.99 113.62 117.05 119.35"/><path class="cls-12" d="M136.62,202.47l.15,11.12a3.48,3.48,0,0,0,6.95-.09l-.14-11.12Z"/><path class="cls-13" d="M145.05,208.63l-1.27-96.84a5.24,5.24,0,0,0-10.45.13l1.27,96.71Z"/><path class="cls-5" d="M150.89,103.47c-9.31,0-16.86,8.44-16.86,18.85v3.84h33.73v-3.84C167.76,111.91,160.21,103.47,150.89,103.47Z"/><path class="cls-12" d="M162.42,203.35l.61,11.24a3.54,3.54,0,0,0,7-.4l-.6-11.19Z"/><path class="cls-13" d="M171,207.9c-1.71-32.87-2.84-63.24-3.61-96.18a5.24,5.24,0,0,0-10.45.23c.77,32.93,1.9,63.23,3.61,96.18Z"/><path class="cls-5" d="M128.21,215.48a3.54,3.54,0,0,0,3.52-3.17v-.57a2.11,2.11,0,0,1,2.1-2.11h1.26a1.48,1.48,0,0,1,1.48,1.48v.41a2.51,2.51,0,0,0,2.5,2.37h3.57a2.3,2.3,0,0,1,2.29,2.29v5.18H119.28V220a4.53,4.53,0,0,1,4.54-4.53Z"/><path class="cls-13" d="M154.21,215.43a3.57,3.57,0,0,0,3.55-3.18v-.58a2.13,2.13,0,0,1,2.12-2.12h2.43A1.49,1.49,0,0,1,163.8,211v.41a2.52,2.52,0,0,0,2.51,2.39h3.6a2.3,2.3,0,0,1,2.3,2.31v5.21H148.68V220a4.57,4.57,0,0,1,4.56-4.57Z"/><path class="cls-11" d="M146.36,43l-3.31,3.43A85.23,85.23,0,0,0,130,48.65L131.3,68v49.58h38.89V68l1.33-19.3A85.06,85.06,0,0,0,150.74,46Z"/><path class="cls-7" d="M143,46.38v9.55L137.36,49l-.17-1.86Q140.09,46.66,143,46.38Z"/><path class="cls-8" d="M150.74,27.32a4.39,4.39,0,0,1,4.4,4.39v14.7l-7,4.4-1.79-4.4V31.71A4.39,4.39,0,0,1,150.74,27.32Z"/><path class="cls-8" d="M134.23,10.28V28.69A17.2,17.2,0,0,0,139.87,40c.47.1,7.53,0,7.64,0a14.13,14.13,0,0,0,14.13-14.13V10.28Z"/><path class="cls-8" d="M163.09,21a3.95,3.95,0,1,1,0,7.89h-6.41l.23-7.89Z"/><path class="cls-5" d="M130.15,0h22.7a11.18,11.18,0,0,1,9,4.49,4.38,4.38,0,0,1,3.49-1.77,4.17,4.17,0,0,1,1.33.22L165.4,4.18A5.58,5.58,0,0,0,164,7.6V10a.29.29,0,0,0,0,.09V21h-1.58v2.82a2.34,2.34,0,1,1-4.68,0v-1.7A3.79,3.79,0,0,0,154,19V14.37a3.77,3.77,0,0,0-3.71-3.1v0H134.22a5,5,0,0,1-5-4.5h4.1A11.17,11.17,0,0,1,130.15,0Z"/><path class="cls-5" d="M137.68,19.65a.95.95,0,1,0,.95-.95A.95.95,0,0,0,137.68,19.65Z"/><path class="cls-5" d="M147.78,19.65a1,1,0,0,0,.95.94.95.95,0,0,0,0-1.89A1,1,0,0,0,147.78,19.65Z"/><path class="cls-14" d="M148.86,29.24a4.65,4.65,0,1,1-9.29,0Z"/><polygon class="cls-11" points="153.11 55.94 159.08 46.4 155.38 42.95 148.15 50.81 153.11 55.94"/><polygon class="cls-7" points="153.11 55.94 148.07 50.89 143.03 55.94 153.11 55.94"/><path class="cls-13" d="M159.05,46.44,143,72.12V46.38a84.59,84.59,0,0,0-13,2.27l.12,19.3v53.1h41.33l-1.22-22.31L171.41,68l.11-19.3A83.1,83.1,0,0,0,159.05,46.44Z"/><path class="cls-15" d="M145.33,77.69a1.51,1.51,0,1,1-1.5-1.51A1.51,1.51,0,0,1,145.33,77.69Z"/><path class="cls-15" d="M145.33,89.48a1.51,1.51,0,1,1-1.5-1.5A1.51,1.51,0,0,1,145.33,89.48Z"/><polygon class="cls-5" points="145.13 57.02 143.03 64.14 143 72.12 147.79 64.45 147.09 57.08 151.17 53.93 148.14 51.16 145.12 53.92 145.13 57.02"/><path class="cls-5" d="M169.33,101.93a2.71,2.71,0,0,1-2.72,2.71H156.29a2.71,2.71,0,0,1-2.71-2.71h0a2.72,2.72,0,0,1,2.71-2.72h10.32a2.72,2.72,0,0,1,2.72,2.72Z"/><path class="cls-13" d="M169.33,99.21a2.72,2.72,0,0,1-2.72,2.72H156.29a2.72,2.72,0,0,1-2.71-2.72h0a2.71,2.71,0,0,1,2.71-2.71h10.32a2.71,2.71,0,0,1,2.72,2.71Z"/><polygon class="cls-5" points="142.78 121.35 149.94 121.35 142.78 100.57 142.78 121.35"/><path class="cls-5" d="M186.58,135.92H172v-7.28a3.18,3.18,0,0,1,3.17-3.16h8.28a3.18,3.18,0,0,1,3.17,3.16v7.28ZM173.91,134h10.71v-5.33a1.21,1.21,0,0,0-1.21-1.21h-8.28a1.22,1.22,0,0,0-1.22,1.21V134Z"/><path class="cls-16" d="M199.55,131.93H161.29a2.45,2.45,0,0,0-2.21,2.44v26.8a2.44,2.44,0,0,0,1.34,2.18,8.26,8.26,0,0,0,2,.26h36.78a17.45,17.45,0,0,0,2.24-8.18Z"/><path class="cls-5" d="M201.68,161.17a2.47,2.47,0,0,1-2.47,2.46h0a2.46,2.46,0,0,1-2.46-2.46v-26.8a2.46,2.46,0,0,1,2.46-2.46h0a2.47,2.47,0,0,1,2.47,2.46Z"/><line class="cls-17" x1="194.55" y1="138.71" x2="162.04" y2="138.71"/><line class="cls-18" x1="193.12" y1="138.71" x2="193.12" y2="141.7"/><path class="cls-8" d="M178.71,131.65a4.3,4.3,0,0,0,4.15-1.83,4.08,4.08,0,0,0,.73-3.72c-.75-2.25-1-2.14-1-9.12l-5.91,0c-3.86,9.35-2.32,7.53-1.87,10.88a4.38,4.38,0,0,0,3.76,3.81Z"/><path class="cls-13" d="M183.68,115c1.15-21.16-.32-43.49-9.15-63.75a4.44,4.44,0,0,0-6-2.39,4.58,4.58,0,0,0-2.2,5.92c8,18.46,9.55,39.24,8.43,59.77Z"/><polygon class="cls-11" points="174.43 120.63 183.31 121.23 183.68 115.04 174.79 114.59 174.43 120.63"/><path class="cls-4" d="M264.35,199.38l.14,10.9a3.41,3.41,0,0,0,6.81-.09l-.14-10.89Z"/><path class="cls-19" d="M272.6,205.42l-1.24-94.86a5.13,5.13,0,0,0-10.24.13l1.24,94.74Z"/><path class="cls-4" d="M289.63,200.25l.59,11a3.47,3.47,0,0,0,6.9-.39l-.6-11Z"/><path class="cls-19" d="M298,204.71c-1.67-32.2-2.78-62-3.53-94.22a5.14,5.14,0,0,0-10.25.23c.76,32.26,1.87,61.94,3.54,94.2Z"/><path class="cls-5" d="M256.11,212.13a3.48,3.48,0,0,0,3.45-3.1v-.57a2.07,2.07,0,0,1,2.06-2.06h1.24a1.45,1.45,0,0,1,1.45,1.45v.4a2.46,2.46,0,0,0,2.45,2.33h3.49a2.24,2.24,0,0,1,2.24,2.24v5.07H247.36v-1.32a4.44,4.44,0,0,1,4.44-4.44Z"/><path class="cls-20" d="M281.58,212.09a3.51,3.51,0,0,0,3.48-3.13v-.56a2.08,2.08,0,0,1,2.07-2.08h2.38a1.46,1.46,0,0,1,1.46,1.46v.4a2.47,2.47,0,0,0,2.46,2.35H297a2.26,2.26,0,0,1,2.26,2.25v5.11h-23v-1.33a4.47,4.47,0,0,1,4.47-4.47Z"/><path class="cls-11" d="M273.88,43.13l-3.23,3.35c-2.8.27-5.63.68-8.38,1.22a5.12,5.12,0,0,0-4.15,5.36l1,14.56v48.56h38.1V67.62l1.31-18.91a83.69,83.69,0,0,0-20.36-2.59Z"/><path class="cls-7" d="M270.59,46.49v9.35l-5.52-6.79-.17-1.82C266.79,46.92,268.7,46.67,270.59,46.49Z"/><path class="cls-8" d="M278.18,27.82a4.29,4.29,0,0,1,4.3,4.3v14.4l-6.84,4.3-1.76-4.3V32.12A4.3,4.3,0,0,1,278.18,27.82Z"/><path class="cls-8" d="M262,11.13v18a16.83,16.83,0,0,0,5.52,11.06c.46.1,7.37,0,7.48,0a13.84,13.84,0,0,0,13.84-13.84V11.13Z"/><path class="cls-8" d="M290.28,21.61a3.86,3.86,0,1,1,0,7.72H284l.23-7.72Z"/><path class="cls-21" d="M258,1.06h22.24A10.94,10.94,0,0,1,289,5.46a4.26,4.26,0,0,1,3.42-1.73,4.31,4.31,0,0,1,1.3.2l-1.22,1.22a5.46,5.46,0,0,0-1.38,3.35v2.33s0,.06,0,.09V21.64h-1.54V24.4a2.3,2.3,0,1,1-4.59,0V22.74a3.73,3.73,0,0,0-3.65-3.06V15.14a3.69,3.69,0,0,0-3.63-3.05v0H262a4.9,4.9,0,0,1-4.87-4.41h4A10.93,10.93,0,0,1,258,1.06Z"/><path class="cls-5" d="M265.39,20.3a.93.93,0,1,0,.92-.92A.92.92,0,0,0,265.39,20.3Z"/><path class="cls-5" d="M275.28,20.3a.93.93,0,1,0,.93-.92A.93.93,0,0,0,275.28,20.3Z"/><path class="cls-5" d="M276.34,29.7a4.55,4.55,0,1,1-9.1,0Z"/><polygon class="cls-11" points="280.49 55.84 286.35 46.5 282.73 43.13 275.64 50.82 280.49 55.84"/><polygon class="cls-7" points="280.49 55.84 275.56 50.91 270.63 55.84 280.49 55.84"/><path class="cls-11" d="M244.7,88.83a13.11,13.11,0,0,1-7.59-2.41L218,72.87a4.07,4.07,0,1,1,4.71-6.64l19.1,13.55A5,5,0,0,0,249.53,77l7.28-25.9a4.07,4.07,0,1,1,7.83,2.2l-7.27,25.87a13.14,13.14,0,0,1-12.67,9.66Z"/><line class="cls-22" x1="219.22" y1="68.75" x2="220.36" y2="69.55"/><path class="cls-8" d="M222,66.22a5.89,5.89,0,0,1,.24.58,3.7,3.7,0,0,1-2.4,4.65,10.1,10.1,0,0,1-10.72-3.28,3.7,3.7,0,1,1,5.62-4.81,2.84,2.84,0,0,0,2.85,1A3.72,3.72,0,0,1,222,66.22Z"/><path class="cls-15" d="M272.88,88.71a1.48,1.48,0,1,1-1.48-1.47A1.48,1.48,0,0,1,272.88,88.71Z"/><path class="cls-14" d="M267.72,31.71h8.13a4.55,4.55,0,0,0,.49-2h-9.1A4.54,4.54,0,0,0,267.72,31.71Z"/><path class="cls-7" d="M279.75,95.87a4.07,4.07,0,0,1-.36-8.13l21.11-1.93a5,5,0,0,0,4.05-7.13L293.23,54.27a4.07,4.07,0,0,1,7.38-3.43l11.31,24.38a13.15,13.15,0,0,1-10.67,18.7l-21.12,1.93Z"/><line class="cls-22" x1="277.55" y1="92" x2="279.76" y2="91.8"/><polyline class="cls-11" points="263.31 98.26 275.68 98.33 273.29 82.44 260.94 82.44"/><path class="cls-8" d="M279.82,90.11a4.12,4.12,0,0,1,.23.58,3.69,3.69,0,0,1-2.39,4.65,10.13,10.13,0,0,1-10.73-3.28,3.7,3.7,0,1,1,5.62-4.81,2.86,2.86,0,0,0,2.86,1A3.72,3.72,0,0,1,279.82,90.11Z"/><path class="cls-23" d="M40.3,25.16A3.89,3.89,0,1,0,36.41,29,3.89,3.89,0,0,0,40.3,25.16Z"/><path class="cls-24" d="M49.91,26.21a3.44,3.44,0,1,0-3.44,3.43A3.44,3.44,0,0,0,49.91,26.21Z"/><line class="cls-23" x1="32.79" y1="23.73" x2="21.58" y2="24.39"/><line class="cls-23" x1="40.3" y1="25.16" x2="43.38" y2="25.58"/></g></g></svg>