<?xml version="1.0" encoding="utf-8"?>
<!-- Generator: Adobe Illustrator 22.0.0, SVG Export Plug-In . SVG Version: 6.00 Build 0)  -->
<svg version="1.1" id="td_logo" xmlns="http://www.w3.org/2000/svg" xmlns:xlink="http://www.w3.org/1999/xlink" x="0px" y="0px"
	 viewBox="0 0 3953.5 659.5" style="enable-background:new 0 0 3953.5 659.5;" xml:space="preserve">
<style type="text/css">
	.st0{fill:#F16C62;}
	.st1{fill:#FFFFFF;}
	.st2{fill:#CCCCCC;}
</style>
<g>
	<path id="copyright" d="M3953.5,0L3943,85.8h-10.8l8.2-66.9l-31.8,45.7l-10.4-45.7L3875,85.8h-10.8L3893.8,0h10.8l9.4,41.1
		L3942.6,0H3953.5z M3873.7,0h-54.1l-2.4,10.2h21.6l-17.7,75.5h10.8l17.7-75.5h21.7L3873.7,0z"/>
	<path id="token" class="st0" d="M2065.1,418.6c-13.6,58-54.4,232.2-54.4,232.2h-82.3c0,0,41.3-174,54.4-232.2
		c22.7-100.6-10.4-125.7-50.6-125.7c-48.8,0-84.7,27.1-121.3,73.9l-66.5,284h-82.3l100.1-427.2h82.3l-8.7,36.9
		c0,0,49.3-45.6,122.1-45.6C2030.8,214.9,2104.7,249.7,2065.1,418.6z M759,0H18.2L0,77.7h493.9L359.6,650.8h82.3L576.2,77.7h164.6
		L759,0z M1362,223.6h-101.1l-153.4,149.1L1194.9,0h-82.3L960.1,650.8h82.3l48.3-206.2l88.9,206.2h82.3l-100.1-232.4L1362,223.6z
		 M1653.6,380.7c-39,68-136.6,108.3-271.3,80.3c-17.6,114.9,59,126,123.5,119.8c28.3-2.7,65.3-10.3,109.8-28.3l-17.3,73.9
		c-50.1,22.1-96.3,33.1-138.6,33.1c-105.2,0-168.3-67-160-184.8c9.6-138,113.5-259.8,249.8-259.8
		C1668.5,214.9,1696.1,306.6,1653.6,380.7z M1577.3,359.9c32.8-37.7,15.9-85.9-68.2-62.6c-42.1,11.7-79.9,48.3-103.2,92.7
		C1491.6,408.3,1550.3,391,1577.3,359.9z M861.4,602.9c-95.3,81.2-258.1,81-297.9-43.6c-24.3-76-3.5-215.1,101.1-295.7
		c93.2-71.9,251.9-71.5,289.3,55C973.9,386.5,960.4,518.5,861.4,602.9z M874.3,340.9c-18.4-52.8-107.5-72.1-177-2.1
		C656,380.6,619.1,468,641.9,533.5c16,46,101.5,78.2,177,2.1C860.3,493.9,897.1,406.4,874.3,340.9z"/>
	<path id="desk" class="st1" d="M2647.9,327.9c-76.1,327.7-293.1,322.9-338.1,322.9c-10.1,0-214.9,0-214.9,0L2195,223.6h82.3
		l-81.9,349.5c0,0,116.2,0,122.4,0c147.2,0,218.5-121.3,249.9-244.9c36.1-141.5,25-250.6-119.5-250.6c-24.1,0-651.9,0-651.9,0
		L1814.6,0c0,0,602.9,0,625.2,0C2484.8,0,2724,0.2,2647.9,327.9z M2910,214.9c-136.3,0-240.2,121.9-249.8,259.8
		c-8.3,117.7,54.8,184.8,160,184.8c42.2,0,88.4-11.1,138.6-33.1l17.3-73.9c-44.4,17.9-81.4,25.5-109.8,28.3
		c-64.5,6.2-141.1-4.9-123.5-119.8c134.7,28,232.3-12.3,271.3-80.3C3056.5,306.6,3028.9,214.9,2910,214.9z M2766.3,390
		c23.4-44.4,61.2-81.1,103.2-92.7c84.1-23.3,101,24.9,68.2,62.6C2910.6,391,2851.9,408.3,2766.3,390z M3215.5,648.3
		c54.1-18.2,89.6-58,101.5-104c13.7-53,8.9-96.9-47.3-128.3c-48.5-27.1-109.6-17.3-100.4-65.2c11.5-60.6,107.6-81.3,182.5-34.8
		l17.3-73.9c-27.1-18.4-62-27.3-104.4-27.3c-101.5,0-172.7,65.1-178.4,146.5c-5,70.4,43.5,89.8,93.1,102.1
		c44,10.9,67.7,27.9,56.4,64.9c-7.8,25.6-27.9,51.7-83.4,55.9c-44.1,3.3-93.3-7.2-120.3-36.4l-17.3,73.9
		C3065.1,664.3,3158.7,667.4,3215.5,648.3z M3751.2,223.6h-101.1l-153.4,149.1L3584.1,0h-82.3l-152.5,650.8h82.3l48.3-206.2
		l88.9,206.2h82.3l-100.1-232.4L3751.2,223.6z"/>
</g>
<g>
	<path id="copyright_1_" d="M3953.5-1679.7l-10.5,85.8h-10.8l8.2-66.9l-31.8,45.6l-10.4-45.7l-23.1,66.9h-10.8l29.7-85.8h10.8
		l9.4,41.1l28.6-41.1H3953.5z M3873.7-1679.7h-54.1l-2.4,10.2h21.6l-17.7,75.5h10.8l17.7-75.5h21.7L3873.7-1679.7z"/>
	<path id="token_1_" class="st0" d="M2065.1-1261.1c-13.6,58-54.4,232.2-54.4,232.2h-82.3c0,0,41.3-174,54.4-232.2
		c22.7-100.6-10.4-125.7-50.6-125.7c-48.8,0-84.7,27.1-121.3,73.9l-66.5,284h-82.3l100.1-427.2h82.3l-8.7,36.9
		c0,0,49.3-45.6,122.1-45.6C2030.8-1464.8,2104.7-1430,2065.1-1261.1z M759-1679.7H18.2L0-1602h493.9l-134.3,573.1h82.3L576.2-1602
		h164.6L759-1679.7z M1362-1456.1h-101.1l-153.4,149.1l87.3-372.8h-82.3l-152.5,650.8h82.3l48.3-206.2l88.9,206.2h82.3l-100.1-232.4
		L1362-1456.1z M1653.6-1299c-39,68-136.6,108.3-271.3,80.3c-17.6,114.9,59,126,123.5,119.8c28.3-2.7,65.3-10.3,109.8-28.3
		l-17.3,73.9c-50.1,22.1-96.3,33.1-138.6,33.1c-105.2,0-168.3-67-160-184.8c9.6-138,113.5-259.8,249.8-259.8
		C1668.5-1464.8,1696.1-1373.1,1653.6-1299z M1577.3-1319.8c32.8-37.7,15.9-85.9-68.2-62.6c-42.1,11.7-79.9,48.3-103.2,92.7
		C1491.6-1271.4,1550.3-1288.7,1577.3-1319.8z M861.4-1076.8c-95.3,81.2-258.1,81-297.9-43.6c-24.3-76-3.5-215.1,101.1-295.7
		c93.2-71.9,251.9-71.5,289.3,55C973.9-1293.1,960.4-1161.2,861.4-1076.8z M874.3-1338.7c-18.4-52.8-107.5-72.1-177-2.1
		c-41.4,41.7-78.2,129.2-55.4,194.6c16,46,101.5,78.2,177,2.1C860.3-1185.8,897.1-1273.3,874.3-1338.7z"/>
	<path id="desk_1_" class="st2" d="M2647.9-1351.8c-76.1,327.7-293.1,322.9-338.1,322.9c-10.1,0-214.9,0-214.9,0l100.1-427.2h82.3
		l-81.9,349.5c0,0,116.2,0,122.4,0c147.2,0,218.5-121.3,249.9-244.9c36.1-141.5,25-250.6-119.5-250.6c-24.1,0-651.9,0-651.9,0
		l18.2-77.7c0,0,602.9,0,625.2,0C2484.8-1679.7,2724-1679.5,2647.9-1351.8z M2910-1464.8c-136.3,0-240.2,121.9-249.8,259.8
		c-8.3,117.7,54.8,184.8,160,184.8c42.2,0,88.4-11.1,138.6-33.1l17.3-73.9c-44.4,17.9-81.4,25.5-109.8,28.3
		c-64.5,6.2-141.1-4.9-123.5-119.8c134.7,28,232.3-12.3,271.3-80.3C3056.5-1373.1,3028.9-1464.8,2910-1464.8z M2766.3-1289.7
		c23.4-44.4,61.2-81.1,103.2-92.7c84.1-23.3,101,24.9,68.2,62.6C2910.6-1288.7,2851.9-1271.4,2766.3-1289.7z M3215.5-1031.3
		c54.1-18.2,89.6-58,101.5-104c13.7-53,8.9-96.9-47.3-128.3c-48.5-27.1-109.6-17.3-100.4-65.2c11.5-60.6,107.6-81.3,182.5-34.8
		l17.3-73.9c-27.1-18.4-62-27.3-104.4-27.3c-101.5,0-172.7,65.1-178.4,146.5c-5,70.4,43.5,89.8,93.1,102.1
		c44,10.9,67.7,27.9,56.4,64.9c-7.8,25.6-27.9,51.7-83.4,55.9c-44.1,3.3-93.3-7.2-120.3-36.4l-17.3,73.9
		C3065.1-1015.4,3158.7-1012.3,3215.5-1031.3z M3751.2-1456.1h-101.1l-153.4,149.1l87.3-372.8h-82.3l-152.5,650.8h82.3l48.3-206.2
		l88.9,206.2h82.3l-100.1-232.4L3751.2-1456.1z"/>
</g>
</svg>
