<svg xmlns="http://www.w3.org/2000/svg" width="59" height="58" fill="none" viewBox="0 0 59 58">
    <path fill="#6C5ED6" d="M53.697 29c0-4.866-1.446-9.622-4.155-13.668a24.639 24.639 0 0 0-11.062-9.06 24.693 24.693 0 0 0-14.241-1.4 24.664 24.664 0 0 0-12.62 6.732 24.587 24.587 0 0 0-6.746 12.597 24.557 24.557 0 0 0 1.402 14.214 24.612 24.612 0 0 0 9.079 11.04 24.683 24.683 0 0 0 31.123-3.06A24.577 24.577 0 0 0 53.697 29z"/>
    <path stroke="#fff" stroke-opacity=".2" stroke-width="4.47" d="M55.896 29A26.767 26.767 0 0 0 51.37 14.11a26.838 26.838 0 0 0-12.05-9.87 26.893 26.893 0 0 0-15.51-1.525 26.863 26.863 0 0 0-13.745 7.334 26.786 26.786 0 0 0-7.35 13.723 26.756 26.756 0 0 0 1.529 15.487 26.81 26.81 0 0 0 9.89 12.027 26.883 26.883 0 0 0 33.897-3.332A26.777 26.777 0 0 0 55.896 29z"/>
    <path fill="#fff" d="M34.688 15.552H23.406c-2.077 0-4.07.823-5.539 2.29a7.81 7.81 0 0 0-2.294 5.527V34.63a7.81 7.81 0 0 0 2.294 5.528 7.841 7.841 0 0 0 5.539 2.29h11.282a7.84 7.84 0 0 0 5.54-2.29 7.81 7.81 0 0 0 2.293-5.528V23.37a7.81 7.81 0 0 0-2.294-5.529 7.84 7.84 0 0 0-5.539-2.29zm6.145 19.33a5.908 5.908 0 0 1-1.737 4.183 5.93 5.93 0 0 1-4.192 1.733H23.19a5.938 5.938 0 0 1-4.192-1.733 5.918 5.918 0 0 1-1.736-4.184V23.154c0-1.569.624-3.074 1.736-4.184a5.935 5.935 0 0 1 4.192-1.733h11.714c1.572 0 3.08.623 4.192 1.733a5.911 5.911 0 0 1 1.737 4.184v11.727z"/>
    <path fill="#fff" d="M29.047 21.756c-1.421 0-2.81.42-3.992 1.209A7.16 7.16 0 0 0 23.966 34a7.19 7.19 0 0 0 7.831 1.554 7.183 7.183 0 0 0 3.225-2.641 7.163 7.163 0 0 0-.894-9.056 7.193 7.193 0 0 0-5.081-2.101zm0 12.838a5.63 5.63 0 0 1-3.126-.947 5.615 5.615 0 0 1-2.388-5.767 5.61 5.61 0 0 1 1.544-2.873 5.626 5.626 0 0 1 6.134-1.205 5.621 5.621 0 0 1 2.52 2.075c.616.925.943 2.012.94 3.123a5.586 5.586 0 0 1-1.649 3.962 5.604 5.604 0 0 1-3.975 1.632zM36.304 20.698a1.062 1.062 0 0 1 .992.64 1.056 1.056 0 0 1-.76 1.454 1.061 1.061 0 0 1-1.274-1.036 1.038 1.038 0 0 1 1.042-1.058z"/>
</svg>
