<svg xmlns="http://www.w3.org/2000/svg" width="59" height="58" fill="none" viewBox="0 0 59 58">
    <path fill="#6C5ED6" d="M53.697 29c0-4.866-1.446-9.622-4.155-13.668a24.638 24.638 0 0 0-11.062-9.06 24.693 24.693 0 0 0-14.241-1.4 24.664 24.664 0 0 0-12.62 6.732 24.587 24.587 0 0 0-6.746 12.597 24.557 24.557 0 0 0 1.402 14.214 24.612 24.612 0 0 0 9.079 11.04 24.683 24.683 0 0 0 31.123-3.06A24.577 24.577 0 0 0 53.697 29z"/>
    <path stroke="#fff" stroke-opacity=".2" stroke-width="4.47" d="M55.896 29A26.767 26.767 0 0 0 51.37 14.11a26.839 26.839 0 0 0-12.05-9.87 26.893 26.893 0 0 0-15.51-1.525 26.863 26.863 0 0 0-13.745 7.334 26.786 26.786 0 0 0-7.35 13.723 26.756 26.756 0 0 0 1.529 15.487 26.811 26.811 0 0 0 9.89 12.027 26.883 26.883 0 0 0 33.897-3.332A26.777 26.777 0 0 0 55.896 29z"/>
    <path fill="#fff" d="M27.755 13.508l2.695.664-.899 4.303 1.797.448 1.06-4.32 2.533.645-1.042 4.357c2.677.896 5.857 2.815 5.551 5.81a4.675 4.675 0 0 1-1.03 2.554 4.69 4.69 0 0 1-2.293 1.534 4.905 4.905 0 0 1 2.57 5.38 5.735 5.735 0 0 1-2.012 3.669 5.756 5.756 0 0 1-3.972 1.333 12.494 12.494 0 0 1-2.946-.395l-.575-.143-1.06 4.5-2.64-.627 1.077-4.411-1.796-.448-1.078 4.429-2.713-.664 1.078-4.41-5.228-1.256.682-2.851 2.066.502h.288c.449 0 .862-.269 1.06-1.094l2.874-11.906c.18-.717-.197-1.094-1.096-1.309l-2.012-.502.665-2.78 5.39 1.31 1.006-4.322zm3.593 14.076a2.788 2.788 0 0 0 2.749-2.295c.52-2.188-2.066-3.066-3.414-3.389l-1.922-.466-1.276 5.29 3.593.842h.27v.018zm-1.168 8.607a3.112 3.112 0 0 0 2.168-.624 3.1 3.1 0 0 0 1.174-1.922c.52-2.152-2.444-3.156-3.252-3.353l-3.467-.79-1.384 5.739 2.983.717c.587.149 1.19.227 1.796.233h-.018zm-3.27-24.189l-.305 1.22-.755 3.102-4.186-1.023-1.221-.286-.306 1.219-.664 2.78-.306 1.219 1.222.304 1.976.485h.108l-2.785 11.762-1.796-.448-1.222-.287-.305 1.22-.683 2.832-.306 1.22 1.222.305 3.97 1.04-.772 3.191-.287 1.22 1.221.286 2.713.664 1.222.287.575.143 2.64.628 1.222.304.306-1.219.772-3.21c.851.179 1.718.275 2.587.288a6.962 6.962 0 0 0 4.744-1.593 6.936 6.936 0 0 0 2.442-4.36 6.175 6.175 0 0 0-1.419-5.523 6.01 6.01 0 0 0 2.318-4.268c.287-2.725-1.689-5.182-5.39-6.688l.79-3.263.306-1.22-1.222-.305-2.712-.663-1.276-.287-.593-.143-2.623-.646-1.222-.287zm2.084 13.79l.683-2.834.7.161c.709.148 1.384.42 1.995.807.593.413.575.753.503 1.058a1.559 1.559 0 0 1-1.527 1.345h-.108l-2.246-.538zm-2.066 8.516l.827-3.317 2.245.538c.521.125 2.57.86 2.318 1.793a1.79 1.79 0 0 1-1.378 1.58 1.8 1.8 0 0 1-.742.016 5.706 5.706 0 0 1-1.042-.108l-.449-.107-1.797-.43.018.035z"/>
</svg>
