<?xml version="1.0" encoding="UTF-8" standalone="no"?>
<!DOCTYPE svg PUBLIC "-//W3C//DTD SVG 1.1//EN" "http://www.w3.org/Graphics/SVG/1.1/DTD/svg11.dtd">
<svg width="100%" height="100%" viewBox="0 0 144 144" version="1.1" xmlns="http://www.w3.org/2000/svg" xmlns:xlink="http://www.w3.org/1999/xlink" xml:space="preserve" xmlns:serif="http://www.serif.com/" style="fill-rule:evenodd;clip-rule:evenodd;stroke-linejoin:round;stroke-miterlimit:1.41421;">
    <g transform="matrix(1,0,0,1,-4482.2,-2186.05)">
        <g transform="matrix(4.16667,0,0,4.16667,0,0)">
            <g transform="matrix(1,0,0,1,1107.4,524.652)">
                <path d="M0,34.555L-28.794,34.555C-30.408,34.555 -31.674,33.287 -31.674,31.676L-31.674,2.881C-31.674,1.268 -30.408,0 -28.794,0L0,0C1.61,0 2.88,1.268 2.88,2.881L2.88,31.676C2.88,33.287 1.61,34.555 0,34.555M-28.794,1.153C-29.776,1.153 -30.524,1.901 -30.524,2.881L-30.524,31.676C-30.524,32.655 -29.776,33.403 -28.794,33.403L0,33.403C0.978,33.403 1.727,32.655 1.727,31.676L1.727,2.881C1.727,1.901 0.978,1.153 0,1.153L-28.794,1.153Z" style="fill:white;fill-rule:nonzero;"/>
            </g>
        </g>
    </g>
</svg>
