<?xml version="1.0" encoding="UTF-8" standalone="no"?>
<!DOCTYPE svg PUBLIC "-//W3C//DTD SVG 1.1//EN" "http://www.w3.org/Graphics/SVG/1.1/DTD/svg11.dtd">
<svg width="100%" height="100%" viewBox="0 0 155 129" version="1.1" xmlns="http://www.w3.org/2000/svg" xmlns:xlink="http://www.w3.org/1999/xlink" xml:space="preserve" xmlns:serif="http://www.serif.com/" style="fill-rule:evenodd;clip-rule:evenodd;stroke-linejoin:round;stroke-miterlimit:1.41421;">
    <g transform="matrix(1,0,0,1,-5170.87,-2196.54)">
        <g transform="matrix(4.16667,0,0,4.16667,0,0)">
            <g transform="matrix(1,0,0,1,1276.42,542.771)">
                <path d="M0,-0.049C-0.172,0.279 -0.407,0.57 -0.694,0.822L-1.229,1.289L-1.527,0.646C-2.157,-0.713 -3.152,-1.99 -4.483,-3.147L-5.085,-3.67L-4.371,-4.026C-3.383,-4.52 -2.105,-4.485 -1.156,-3.951C-0.657,-3.67 -0.258,-3.268 0.005,-2.781L0.059,-2.684C0.259,-2.311 0.36,-1.899 0.367,-1.457C0.367,-0.981 0.24,-0.496 0,-0.049M-2.282,5.297C-2.478,6.332 -2.928,7.344 -3.616,8.293C-4.217,9.133 -4.991,9.904 -5.915,10.588C-8.357,12.4 -11.552,13.517 -15.153,13.814C-15.703,13.853 -16.252,13.873 -16.802,13.873C-20.247,13.873 -23.487,13.082 -26.171,11.586C-26.394,11.461 -26.61,11.332 -26.828,11.197C-27.919,10.504 -28.832,9.724 -29.549,8.877C-30.35,7.945 -30.913,6.924 -31.219,5.846L-31.259,5.707C-31.404,5.168 -31.479,4.611 -31.479,4.051C-31.479,2.58 -30.986,1.088 -30.087,-0.153C-28.184,-2.82 -25.252,-4.184 -23.125,-4.858C-19.584,-5.953 -15.713,-6.106 -12.072,-5.278C-11.556,-5.158 -11.04,-5.02 -10.53,-4.863C-8.401,-4.195 -5.482,-2.846 -3.554,-0.158C-2.648,1.094 -2.148,2.58 -2.148,4.031C-2.148,4.469 -2.195,4.896 -2.282,5.297M-32.098,0.638L-32.4,1.303L-32.939,0.81C-33.211,0.566 -33.434,0.295 -33.605,0.006C-33.868,-0.442 -33.999,-0.903 -33.999,-1.369C-33.999,-1.438 -33.997,-1.51 -33.988,-1.582C-33.964,-2.293 -33.622,-2.998 -33.033,-3.537C-32.527,-4.004 -31.87,-4.301 -31.207,-4.365L-31.194,-4.377L-30.984,-4.381C-30.896,-4.389 -30.834,-4.393 -30.771,-4.393C-30.32,-4.393 -29.848,-4.274 -29.288,-4.016L-28.537,-3.67L-29.161,-3.129C-30.493,-1.977 -31.479,-0.709 -32.098,0.638M-6.708,-13.399C-6.362,-13.813 -5.909,-14.123 -5.418,-14.283L-5.357,-14.344L-5.205,-14.346C-4.365,-14.565 -3.422,-14.285 -2.754,-13.641C-2.23,-13.131 -1.929,-12.453 -1.929,-11.781L-1.931,-11.631C-1.962,-10.969 -2.268,-10.322 -2.773,-9.854C-3.276,-9.385 -3.93,-9.117 -4.562,-9.117L-4.727,-9.123L-4.729,-9.123C-5.339,-9.123 -5.988,-9.393 -6.48,-9.863C-6.979,-10.338 -7.278,-10.981 -7.307,-11.627L-7.309,-11.787C-7.309,-12.354 -7.095,-12.926 -6.708,-13.399M1.771,-1.455C1.771,-1.524 1.77,-1.596 1.765,-1.662L1.752,-1.815C1.645,-2.662 1.268,-3.49 0.677,-4.164C0.046,-4.875 -0.751,-5.371 -1.627,-5.596C-3.015,-5.945 -4.266,-5.701 -5.301,-5.018C-5.521,-4.883 -5.696,-4.746 -5.861,-4.608L-6.145,-4.373L-6.743,-4.711C-9.178,-6.106 -12.093,-6.924 -15.41,-7.141L-15.911,-7.174L-15.906,-7.678C-15.895,-8.84 -15.805,-10.18 -15.234,-11.362L-15.179,-11.479C-14.731,-12.369 -13.836,-12.983 -12.84,-13.082C-12.656,-13.096 -12.49,-13.108 -12.319,-13.108C-11.051,-13.108 -9.844,-12.643 -8.932,-12.237L-8.604,-12.09L-8.616,-11.729L-9.157,-11.584L-8.624,-11.584C-8.624,-10.651 -8.241,-9.737 -7.549,-9.012C-6.877,-8.303 -5.971,-7.858 -5.06,-7.785C-4.877,-7.764 -4.723,-7.754 -4.568,-7.754C-3.629,-7.754 -2.696,-8.115 -1.943,-8.772C-1.178,-9.44 -0.711,-10.324 -0.632,-11.266C-0.617,-11.432 -0.604,-11.578 -0.604,-11.721C-0.604,-12.461 -0.844,-13.229 -1.281,-13.877C-1.703,-14.496 -2.268,-14.967 -2.917,-15.24L-3.144,-15.24L-3.206,-15.358C-4.047,-15.678 -5.047,-15.684 -6.061,-15.367L-6.062,-15.367C-6.854,-15.057 -7.553,-14.487 -8.033,-13.758L-8.274,-13.397L-8.676,-13.559C-10.455,-14.27 -12.122,-14.496 -13.723,-14.192L-13.725,-14.201C-14.897,-13.86 -15.826,-13.094 -16.386,-12.041C-16.982,-10.92 -17.264,-9.578 -17.297,-7.692L-17.305,-7.197L-17.799,-7.168C-21.421,-6.959 -24.319,-6.182 -26.658,-4.793C-26.899,-4.694 -27.039,-4.619 -27.166,-4.549L-27.474,-4.383L-27.75,-4.602C-28.09,-4.869 -28.491,-5.102 -29.012,-5.326L-29.168,-5.389C-29.765,-5.61 -30.437,-5.699 -31.143,-5.651C-32.278,-5.649 -33.34,-5.17 -34.146,-4.34C-34.95,-3.506 -35.412,-2.412 -35.412,-1.338C-35.379,-0.574 -35.116,0.199 -34.654,0.887C-34.24,1.5 -33.681,2.017 -33.035,2.381L-32.722,2.558L-32.77,2.916C-32.817,3.262 -32.84,3.611 -32.84,3.961C-32.84,5.508 -32.407,7.031 -31.592,8.363C-29.867,11.199 -27.014,12.818 -24.923,13.68L-24.779,13.738C-20.655,15.353 -15.898,15.635 -11.416,14.562L-11.356,14.547C-8.683,13.865 -4.989,12.377 -2.578,9.168C-1.425,7.654 -0.79,5.801 -0.79,3.943C-0.79,3.597 -0.815,3.248 -0.861,2.902L-0.906,2.539L-0.588,2.365C0.069,2.006 0.642,1.476 1.063,0.836C1.525,0.127 1.771,-0.664 1.771,-1.455" style="fill:white;fill-rule:nonzero;"/>
            </g>
        </g>
    </g>
</svg>
