<?xml version="1.0" encoding="utf-8"?>
<!-- Generator: Adobe Illustrator 22.0.0, SVG Export Plug-In . SVG Version: 6.00 Build 0)  -->
<svg version="1.1" id="Слой_1" xmlns="http://www.w3.org/2000/svg" xmlns:xlink="http://www.w3.org/1999/xlink" x="0px" y="0px"
	 viewBox="0 0 305.4 178.5" style="enable-background:new 0 0 305.4 178.5;" xml:space="preserve">
<style type="text/css">
	.st0{fill:#221F1F;}
	.st1{fill:#BBBDBF;}
	.st2{fill:#E6E6E7;}
	.st3{fill:#FFFFFF;}
	.st4{fill:#834AA5;}
	.st5{fill:#1E51D2;}
	.st6{fill:#122248;}
</style>
<title>laptop</title>
<g>
	<g>
		<g>
			<path class="st0" d="M278.4,169.3V13.5C278.4,6,272.4,0,265,0H40.5C33,0,27,6,27,13.5v155.9H278.4z"/>
			<path class="st1" d="M298.5,178.5H7c-6,0-7-8-7-8h305.4C305.4,170.5,304.5,178.5,298.5,178.5z"/>
			<rect x="0" y="167.4" class="st2" width="305.4" height="4.5"/>
			<rect x="123.2" y="167.4" class="st1" width="58.9" height="2.5"/>
			<rect x="36.9" y="12.7" class="st3" width="231.7" height="146.4"/>
		</g>
	</g>
	<g>
		<path class="st4" d="M109.3,108H97.9c-0.1,0-0.1,0-0.2-0.1L84.2,95.3c0,0-0.1-0.1-0.1-0.2V79c0-0.1,0-0.1,0.1-0.2l13.5-12.7
			c0,0,0.1-0.1,0.2-0.1h11.4c0.1,0,0.1,0,0.2,0.1l10.8,10.3c0.1,0.1,0.2,0.1,0.3,0l3.7-2.3c0.1-0.1,0.1-0.3,0-0.4l-12.6-12
			c-0.3-0.3-0.7-0.5-1.2-0.5H96.7c-0.4,0-0.8,0.2-1.2,0.5L80.1,76.3c-0.4,0.3-0.6,0.8-0.6,1.3v18.9c0,0.5,0.2,1,0.6,1.3l15.5,14.4
			c0.3,0.3,0.7,0.5,1.2,0.5h13.8c0.4,0,0.9-0.2,1.2-0.5l12.6-12c0.1-0.1,0.1-0.3,0-0.4l-3.7-2.3c-0.1-0.1-0.2,0-0.3,0l-10.8,10.3
			C109.4,108,109.4,108,109.3,108"/>
		<path class="st5" d="M108.6,67.7H103c-0.2,0-0.3,0.3-0.2,0.4L115,79.7c0.1,0.1,0.2,0.1,0.3,0l3.7-2.3c0.1-0.1,0.1-0.3,0-0.4
			l-9.3-8.9C109.5,67.9,109,67.7,108.6,67.7"/>
		<path class="st5" d="M106.3,100c-3.1-2.9-7.1-6.8-9.6-9.2l-0.6-0.6c0,0-0.1-0.1-0.1-0.2v-5.9c0-0.1,0-0.1,0.1-0.2l6.3-6.1
			c0.1-0.1,0.1-0.2,0-0.3l-3.1-2.9c-0.1-0.1-0.2-0.1-0.3,0l-7.2,6.9c-0.2,0.2-0.4,0.6-0.4,0.9v9.2c0,0.3,0.1,0.5,0.2,0.7l0,0
			l9.5,9.2l4.4,4.2l0.5,0.5c0,0,0.1,0.1,0.2,0.1h2.3c0.4,0,0.9-0.2,1.2-0.5l9.3-8.8c0.1-0.1,0.1-0.3,0-0.4l-3.7-2.3
			c-0.1-0.1-0.2,0-0.3,0l-7.1,6.8c-0.1,0.1-0.2,0.1-0.3,0C107.2,100.8,106.8,100.4,106.3,100"/>
		<path class="st6" d="M107.9,99.4l5.9-5.6c0.1-0.1,0.1-0.3,0-0.4l-3.7-2.3c-0.1-0.1-0.2,0-0.3,0l-5.2,5c-0.1,0.1-0.1,0.2,0,0.3
			l3,2.9C107.7,99.5,107.8,99.5,107.9,99.4"/>
		<path class="st6" d="M100.7,67.9c-0.1-0.1-0.3-0.2-0.5-0.2h-1.7c-0.1,0-0.1,0-0.2,0c-0.4,0-0.7,0.2-1,0.5L86.1,78.8
			c-0.4,0.3-0.6,0.8-0.6,1.3V94c0,0.5,0.2,1,0.6,1.3l11.3,10.6c0.3,0.3,0.7,0.5,1.2,0.5h5.3c0.2,0,0.3-0.3,0.2-0.4l-14-13.3l0,0
			V81.8c0-0.2,0.1-0.4,0.2-0.5l8.8-8.2c0.1-0.1,0.2-0.1,0.3,0l10.4,9.9c0.1,0.1,0.2,0.1,0.3,0l3.6-2.2c0.1-0.1,0.1-0.3,0-0.4
			l-8.2-7.8L100.7,67.9z"/>
		<rect x="135.3" y="74.2" class="st6" width="5" height="25.8"/>
		<polygon class="st6" points="167,99.9 156.8,84.1 156.8,99.9 151.8,99.9 151.8,74.2 156.3,74.2 166.5,90 166.5,74.2 171.5,74.2 
			171.5,99.9 		"/>
		<path class="st6" d="M199,97.5c-1.7,1.7-4.1,2.5-6.8,2.5h-9.3V74.2h9.3c2.7,0,5.1,0.8,6.8,2.5c2.9,2.9,2.6,6.4,2.6,10.3
			C201.7,90.8,201.9,94.6,199,97.5 M195.5,80.3c-0.9-1-2-1.6-3.8-1.6H188v16.8h3.8c1.7,0,2.9-0.5,3.8-1.6c0.9-1.2,1.1-3,1.1-6.9
			S196.5,81.4,195.5,80.3"/>
		<polygon class="st6" points="224.7,99.9 219.7,91 214.7,99.9 209,99.9 217,86.7 209.5,74.2 215.2,74.2 219.7,82.5 224.2,74.2 
			229.9,74.2 222.4,86.7 230.4,99.9 		"/>
	</g>
</g>
</svg>
