<svg xmlns="http://www.w3.org/2000/svg" width="59" height="58" fill="none" viewBox="0 0 59 58">
    <path fill="#6C5ED6" d="M53.697 29c0-4.866-1.446-9.622-4.155-13.668a24.639 24.639 0 0 0-11.062-9.06 24.693 24.693 0 0 0-14.241-1.4 24.664 24.664 0 0 0-12.62 6.732 24.587 24.587 0 0 0-6.746 12.597 24.557 24.557 0 0 0 1.402 14.214 24.612 24.612 0 0 0 9.079 11.04 24.683 24.683 0 0 0 31.123-3.06A24.577 24.577 0 0 0 53.697 29z"/>
    <path stroke="#fff" stroke-opacity=".2" stroke-width="4.47" d="M55.896 29A26.767 26.767 0 0 0 51.37 14.11a26.838 26.838 0 0 0-12.05-9.87 26.893 26.893 0 0 0-15.51-1.525 26.863 26.863 0 0 0-13.745 7.334 26.786 26.786 0 0 0-7.35 13.723 26.756 26.756 0 0 0 1.529 15.487 26.811 26.811 0 0 0 9.89 12.027 26.883 26.883 0 0 0 33.897-3.332A26.777 26.777 0 0 0 55.896 29z"/>
    <path fill="#fff" d="M23.533 29.324a1.798 1.798 0 0 0-1.222 1.04v.215c-.01.095-.01.191 0 .287.006.345.112.681.305.968.188.251.444.444.737.556h.162a1.62 1.62 0 0 0 1.58-.395 1.45 1.45 0 0 0 .504-1.093v-.144a1.522 1.522 0 0 0-.503-1.094 1.618 1.618 0 0 0-1.563-.34zM33.7 37.41l.324-.179c.139-.057.271-.13.395-.215.1-.052.19-.119.27-.197a.986.986 0 0 0 .144-.27v-.107a.63.63 0 0 0 0-.233.771.771 0 0 0-.234-.25.558.558 0 0 0-.575 0 9.786 9.786 0 0 1-8.983.555 2.624 2.624 0 0 1-.52-.305l-.163-.107a.951.951 0 0 0-.269-.144H23.658a.484.484 0 0 0-.27.215.68.68 0 0 0 0 .323.608.608 0 0 0 0 .323c.043.08.113.144.198.18a9.356 9.356 0 0 0 5.39 1.56v.465-.556A11.641 11.641 0 0 0 33.7 37.41zM35.461 31.887c.21-.288.328-.63.342-.986a1.057 1.057 0 0 0 0-.413v-.268c-.121-.234-.3-.431-.521-.574a1.656 1.656 0 0 0-1.204-.27H33.7c-.283.122-.53.313-.718.557a1.79 1.79 0 0 0-.306.932.16.16 0 0 0 0 .09v.448c.106.277.286.519.521.7a1.654 1.654 0 0 0 1.51.286h.09a1.58 1.58 0 0 0 .664-.502z"/>
    <path fill="#fff" d="M45.127 27.907v-.305a4.014 4.014 0 0 0-2.947-3.281 3.869 3.869 0 0 0-3.18.502 3.786 3.786 0 0 0-.484.359l-.252.197-.521-.287a17.182 17.182 0 0 0-7.51-2.098h-.449v-.43a7.16 7.16 0 0 1 .557-3.228v-.107a2.548 2.548 0 0 1 2.03-1.381h.45c1.02.046 2.018.31 2.928.77l.287.126v.305l-.467.126h.45a3.26 3.26 0 0 0 .934 2.223 3.416 3.416 0 0 0 2.173 1.076h.414a3.435 3.435 0 0 0 2.281-.879 3.158 3.158 0 0 0 1.132-2.17 3.244 3.244 0 0 0 0-.394 3.457 3.457 0 0 0-.593-1.793 3.34 3.34 0 0 0-1.42-1.183h-.197a3.78 3.78 0 0 0-2.479 0 3.7 3.7 0 0 0-1.707 1.398l-.215.323-.342-.143a7.63 7.63 0 0 0-4.311-.682 3.722 3.722 0 0 0-2.318 1.793 8.323 8.323 0 0 0-.79 3.766v.43h-.432c-2.692.058-5.33.765-7.689 2.062l-.431.215-.27.144-.233-.197a5.181 5.181 0 0 0-1.096-.628h-.144a4.104 4.104 0 0 0-1.707-.215 3.6 3.6 0 0 0-2.604 1.13 3.798 3.798 0 0 0-1.114 2.6c.045.687.275 1.35.664 1.918.362.537.84.985 1.402 1.31l.27.143v.322a7.287 7.287 0 0 0 0 .897 7.395 7.395 0 0 0 1.077 3.82 11.943 11.943 0 0 0 5.785 4.59h.126a19.6 19.6 0 0 0 11.588.717 13.603 13.603 0 0 0 7.617-4.662 7.45 7.45 0 0 0 1.563-4.519 7.532 7.532 0 0 0 0-.897v-.322l.27-.144a3.914 3.914 0 0 0 1.437-1.327 3.58 3.58 0 0 0 .467-1.99zm-7.348-10.346c.294-.35.68-.61 1.114-.753h.126a2.359 2.359 0 0 1 2.603 1.232c.156.308.243.646.253.991v.072c-.04.584-.3 1.13-.725 1.533-.426.402-.988.629-1.575.637h-.143a2.247 2.247 0 0 1-1.51-.646 2.257 2.257 0 0 1-.718-1.524v-.144a2.22 2.22 0 0 1 .575-1.398zM15.753 29.718l-.27.592-.466-.43a2.98 2.98 0 0 1-.575-.7 2.31 2.31 0 0 1-.342-1.201v-.18a2.455 2.455 0 0 1 .827-1.685 2.715 2.715 0 0 1 1.599-.717h.377a2.95 2.95 0 0 1 1.275.34l.647.287-.539.484a9.416 9.416 0 0 0-2.533 3.21zm25.87 4.034c-.199.94-.597 1.827-1.167 2.6a8.74 8.74 0 0 1-1.994 1.99 15.416 15.416 0 0 1-8.013 2.798h-1.437a16.554 16.554 0 0 1-8.12-1.99l-.576-.323a10.163 10.163 0 0 1-2.353-2.026 6.9 6.9 0 0 1-1.455-2.618v-.126a5.533 5.533 0 0 1-.198-1.434 6.197 6.197 0 0 1 1.222-3.586 11.697 11.697 0 0 1 6.036-4.07 18.719 18.719 0 0 1 9.594-.36c.45.093.894.213 1.33.36a11.589 11.589 0 0 1 6.054 4.07 6.196 6.196 0 0 1 1.221 3.586c-.006.38-.055.76-.143 1.13zm1.977-4.626c-.152.29-.36.545-.611.753l-.467.413-.252-.556a9.489 9.489 0 0 0-2.569-3.281l-.52-.467.628-.304a3.059 3.059 0 0 1 2.785 0c.422.234.771.582 1.006 1.004.163.33.254.69.27 1.058.034.476-.06.952-.27 1.38z"/>
</svg>
