<svg xmlns="http://www.w3.org/2000/svg" xmlns:xlink="http://www.w3.org/1999/xlink" viewBox="0 0 94.7 135.91"><defs><style>.cls-1{fill:url(#linear-gradient);}.cls-2{fill:url(#linear-gradient-2);}.cls-3{fill:url(#linear-gradient-3);}.cls-4{fill:url(#linear-gradient-4);}</style><linearGradient id="linear-gradient" x1="85.73" y1="82.16" x2="29.31" y2="34.82" gradientUnits="userSpaceOnUse"><stop offset="0" stop-color="#2e1d68"/><stop offset="0.19" stop-color="#3e3079"/><stop offset="0.73" stop-color="#6b63a6"/><stop offset="1" stop-color="#7c77b7"/></linearGradient><linearGradient id="linear-gradient-2" x1="65.55" y1="106.18" x2="28.68" y2="106.18" gradientUnits="userSpaceOnUse"><stop offset="0" stop-color="#2e1d68"/><stop offset="0.12" stop-color="#32226d"/><stop offset="0.28" stop-color="#3f317a"/><stop offset="0.44" stop-color="#55498f"/><stop offset="0.62" stop-color="#726bad"/><stop offset="0.67" stop-color="#7c77b7"/><stop offset="0.73" stop-color="#8083bd"/><stop offset="0.85" stop-color="#8aa2ce"/><stop offset="1" stop-color="#9ad3e7"/></linearGradient><linearGradient id="linear-gradient-3" x1="63.27" y1="127.36" x2="31.65" y2="127.36" xlink:href="#linear-gradient-2"/><linearGradient id="linear-gradient-4" x1="61.91" y1="114.46" x2="64.55" y2="114.46" xlink:href="#linear-gradient-2"/></defs><title>baloon</title><g id="Слой_2" data-name="Слой 2"><g id="Layer_2" data-name="Layer 2"><path class="cls-1" d="M93.43,51.1C90.35,62.68,82.94,75.44,74.64,87.4c-8.44,11.7-17.55,22.21-27.29,22-9.74.21-18.86-10.3-27.29-22-8.31-12-15.71-24.72-18.79-36.3S.67,28.65,8.93,18.49C17,8.59,31.19-.14,47.35,0,63.5-.14,77.68,8.59,85.77,18.49,94,28.65,96.49,39.44,93.43,51.1Z"/><path class="cls-2" d="M64.55,109.74H29.68a1,1,0,0,1-1-1v-5a1,1,0,0,1,1-1.05H64.55a1,1,0,0,1,1,1.05v5A1,1,0,0,1,64.55,109.74Z"/><path class="cls-3" d="M56.67,135.91c-6.13-.3-12.29-.3-18.43,0-.26,0-.61-.34-.79-.8q-2.87-7.53-5.74-15.07a.57.57,0,0,1,.48-.86c10.17-.5,20.37-.5,30.54,0,.44,0,.65.41.48.86q-2.87,7.54-5.74,15.07C57.29,135.57,56.94,135.92,56.67,135.91Z"/><line class="cls-4" x1="61.91" y1="119.19" x2="64.55" y2="109.74"/></g></g></svg>