<svg xmlns="http://www.w3.org/2000/svg" viewBox="0 0 247.52 95.15"><defs><style>.cls-1{fill:#fff;opacity:0.1;}</style></defs><title>cloud</title><g id="Слой_2" data-name="Слой 2"><g id="Layer_1" data-name="Layer 1"><path class="cls-1" d="M225.24,29.54h-78.8a21.09,21.09,0,0,1,.8-8.43H215c7.75,0,14-4.68,14-10.45v-.21C229.06,4.68,222.78,0,215,0H87.24c-7.75,0-14,4.68-14,10.45v.21c0,5.77,6.28,10.45,14,10.45h26.59a20.91,20.91,0,0,1,.79,8.43H22.28C10,29.54,0,37,0,46.14v.33c0,9.17,10,16.6,22.28,16.6h133a20.84,20.84,0,0,1-.17,11H71.53c-7.75,0-14,4.68-14,10.45v.21c0,5.77,6.28,10.45,14,10.45h127.8c7.74,0,14-4.68,14-10.45v-.21c0-5.77-6.28-10.45-14-10.45h-11a20.74,20.74,0,0,1-.18-11h37.06c12.31,0,22.28-7.43,22.28-16.6v-.33C247.52,37,237.55,29.54,225.24,29.54Z"/></g></g></svg>