<svg xmlns="http://www.w3.org/2000/svg" viewBox="0 0 716.63 263.63"><defs><style>.cls-1,.cls-3{fill:#fff;}.cls-1{opacity:0.1;}.cls-2{fill:#b9add5;opacity:0.9;}.cls-4{fill:#e8d0e6;}</style></defs><title>Distribution_graph</title><g id="Слой_2" data-name="Слой 2"><g id="Layer_1" data-name="Layer 1"><path class="cls-1" d="M0,17.2A17.2,17.2,0,0,0,17.2,34.41H296.63a17.2,17.2,0,0,0,17.2-17.21h0A17.2,17.2,0,0,0,296.63,0H17.2A17.2,17.2,0,0,0,0,17.2Z"/><path class="cls-2" d="M17.2,0H97.14V34.41H17.2A17.21,17.21,0,0,1,17.2,0Z"/><path class="cls-1" d="M0,131.92a17.2,17.2,0,0,0,17.2,17.2H296.63a17.2,17.2,0,0,0,17.2-17.2h0a17.2,17.2,0,0,0-17.2-17.2H17.2A17.2,17.2,0,0,0,0,131.92Z"/><path class="cls-2" d="M17.2,114.72H72.31v34.4H17.2a17.2,17.2,0,0,1,0-34.4Z"/><path class="cls-1" d="M0,93.75A17.2,17.2,0,0,0,17.2,111H296.63a17.2,17.2,0,0,0,17.2-17.2h0a17.2,17.2,0,0,0-17.2-17.2H17.2A17.2,17.2,0,0,0,0,93.75Z"/><path class="cls-2" d="M17.2,76.55H43.8V111H17.2a17.2,17.2,0,1,1,0-34.4Z"/><path class="cls-1" d="M0,208.26a17.2,17.2,0,0,0,17.2,17.2H296.63a17.2,17.2,0,0,0,17.2-17.2h0a17.2,17.2,0,0,0-17.2-17.2H17.2A17.2,17.2,0,0,0,0,208.26Z"/><path class="cls-2" d="M17.2,191.06H43.8v34.4H17.2a17.2,17.2,0,0,1,0-34.4Z"/><path class="cls-1" d="M0,246.43a17.2,17.2,0,0,0,17.2,17.2H296.63a17.2,17.2,0,0,0,17.2-17.2h0a17.2,17.2,0,0,0-17.2-17.2H17.2A17.2,17.2,0,0,0,0,246.43Z"/><path class="cls-1" d="M0,55.58a17.2,17.2,0,0,0,17.2,17.2H296.63a17.2,17.2,0,0,0,17.2-17.2h0a17.2,17.2,0,0,0-17.2-17.2H17.2A17.2,17.2,0,0,0,0,55.58Z"/><path class="cls-1" d="M0,170.09a17.2,17.2,0,0,0,17.2,17.2H296.63a17.2,17.2,0,0,0,17.2-17.2h0a17.2,17.2,0,0,0-17.2-17.2H17.2A17.2,17.2,0,0,0,0,170.09Z"/><path class="cls-2" d="M17.2,229.23H156v34.4H17.2a17.2,17.2,0,0,1,0-34.4Z"/><path class="cls-3" d="M368.35,24.11V11.59h-4.76V10.26h11.05v1.33h-4.82V24.11Z"/><path class="cls-3" d="M375.34,22.94a4.67,4.67,0,0,1-1.5-3.6,5,5,0,0,1,1.34-3.58,4.58,4.58,0,0,1,3.5-1.44c3.2,0,4.47,2.8,4.47,5v.4H375.3c.16,2.05,1.78,3.38,4.07,3.38a5.64,5.64,0,0,0,3.07-.89v1.26a5.29,5.29,0,0,1-3.34.91A5.36,5.36,0,0,1,375.34,22.94Zm6.37-4.43a3.27,3.27,0,0,0-.84-2,2.71,2.71,0,0,0-2.25-.91,3.21,3.21,0,0,0-2.33.87,3.14,3.14,0,0,0-1,2Z"/><path class="cls-3" d="M386.06,23.51A2.86,2.86,0,0,1,385,21.18a2.79,2.79,0,0,1,1.11-2.31,4.43,4.43,0,0,1,2.81-.85,6.74,6.74,0,0,1,3.44.92V18c0-1.61-1.05-2.4-3.15-2.4a5.47,5.47,0,0,0-3.12,1V15.19a6.32,6.32,0,0,1,3.42-.87c2.55,0,4.27,1.22,4.27,3.54v3.93c0,.73.36,1.19.91,1.19a1.22,1.22,0,0,0,.56-.12V24a1.9,1.9,0,0,1-2.75-1.31,4.83,4.83,0,0,1-3.86,1.68A4.06,4.06,0,0,1,386.06,23.51Zm6.31-2.05V20.13a5.65,5.65,0,0,0-3.11-.95c-1.74,0-2.82.73-2.82,1.92s1.12,2,2.61,2A4.41,4.41,0,0,0,392.37,21.46Z"/><path class="cls-3" d="M397.57,24.11V14.55H399V16a4,4,0,0,1,3.44-1.66,3,3,0,0,1,3.06,1.88,4.26,4.26,0,0,1,3.68-1.88c2.14,0,3.38,1.36,3.38,3.83v6h-1.42V18.47c0-1.88-.79-2.81-2.37-2.81a3.74,3.74,0,0,0-3,2.06c0,.53,0,.89,0,1.07v5.32h-1.42V18.47c0-1.88-.79-2.81-2.38-2.81a3,3,0,0,0-1.7.59A4.12,4.12,0,0,0,399,17.64v6.47Z"/><path class="cls-3" d="M364.83,62.34V48.5h6c2.45,0,4,1.29,4,3.36A2.91,2.91,0,0,1,373,54.79a3.49,3.49,0,0,1,3,3.7c0,2.31-1.72,3.85-4.55,3.85Zm1.47-8h4.29c1.76,0,2.77-.8,2.77-2.24s-1-2.29-2.77-2.29H366.3Zm0,6.66h4.88c2.06,0,3.24-1,3.24-2.71s-1.18-2.67-3.24-2.67H366.3Z"/><path class="cls-3" d="M383.39,52.56A5,5,0,0,1,387.11,54a5.07,5.07,0,0,1,0,7.08,5.47,5.47,0,0,1-7.44,0,5.07,5.07,0,0,1,0-7.08A5,5,0,0,1,383.39,52.56ZM386,54.91a3.82,3.82,0,0,0-5.3,0,3.89,3.89,0,0,0,0,5.32,3.82,3.82,0,0,0,5.3,0,3.89,3.89,0,0,0,0-5.32Z"/><path class="cls-3" d="M398.5,52.79h1.42v9.55H398.5V60.88a4.89,4.89,0,0,1-3.82,1.7c-2.37,0-3.64-1.46-3.64-4V52.79h1.43v5.5c0,2.51,1.54,3,2.71,3a3.46,3.46,0,0,0,1.9-.6,4.42,4.42,0,0,0,1.42-1.4Z"/><path class="cls-3" d="M404.71,62.34h-1.42V52.79h1.42v1.47a4.9,4.9,0,0,1,3.82-1.7c2.37,0,3.64,1.46,3.64,4v5.81h-1.42V56.85c0-2.52-1.55-3-2.71-3a3.45,3.45,0,0,0-1.92.61,4.26,4.26,0,0,0-1.41,1.39Z"/><path class="cls-3" d="M416.46,59.64V54h-2.25V52.79h2.25V49.85h1.43v2.94h3.34V54h-3.34V59.2a2.51,2.51,0,0,0,.37,1.58,1.64,1.64,0,0,0,1.29.46,3.07,3.07,0,0,0,1.56-.4v1.31a3.47,3.47,0,0,1-2,.43C417.33,62.58,416.46,61.43,416.46,59.64Z"/><path class="cls-3" d="M422.87,66.1V64.78a2.87,2.87,0,0,0,1.31.31c1.19,0,1.94-1,2.83-3.1l-4.26-9.2h1.59l3.38,7.52L431,52.79h1.54l-4.72,10.62c-.85,2-2,3-3.42,3A3.24,3.24,0,0,1,422.87,66.1Z"/><path class="cls-3" d="M363.47,100.58l6.17-13.92H371l6.19,13.92h-1.54l-1.72-3.81h-7.26L365,100.58Zm3.7-5.1h6.29l-3.15-7Z"/><path class="cls-3" d="M387.07,86.74h1.42v13.84h-1.42V99.06a4.39,4.39,0,0,1-3.7,1.76,4.49,4.49,0,0,1-3.46-1.46,5.34,5.34,0,0,1,0-7.1,4.5,4.5,0,0,1,3.46-1.47,4.41,4.41,0,0,1,3.7,1.76Zm0,7.5a3.73,3.73,0,0,0-3.36-2.16,3.52,3.52,0,0,0-2.64,1.09,3.9,3.9,0,0,0,0,5.3,3.57,3.57,0,0,0,2.64,1.07,3.81,3.81,0,0,0,3.36-2.16Z"/><path class="cls-3" d="M395.12,100.64,390.73,91h1.6l3.48,7.69L399.27,91h1.54l-4.39,9.61Z"/><path class="cls-3" d="M403.29,87a1,1,0,0,1,1.42,1.42A1,1,0,0,1,403.29,87Zm0,13.54V91h1.42v9.55Z"/><path class="cls-3" d="M407.62,99.83V98.37a6.88,6.88,0,0,0,3.92,1.17c1.64,0,2.63-.58,2.63-1.53a1.12,1.12,0,0,0-.67-1,4.63,4.63,0,0,0-1-.35,5.29,5.29,0,0,0-.66-.16,6.46,6.46,0,0,0-.65-.16c-2.27-.57-3.34-1.25-3.34-2.89s1.4-2.65,3.84-2.65a6.34,6.34,0,0,1,3.48.85v1.41a6.6,6.6,0,0,0-3.42-1c-1.65,0-2.46.55-2.46,1.4a1.19,1.19,0,0,0,.74,1.07c.31.1.39.18.77.28l.43.12c.18.06.79.19.95.22,2.2.53,3.46,1.22,3.46,2.86a2.31,2.31,0,0,1-1.15,2,5.22,5.22,0,0,1-2.9.75A7.79,7.79,0,0,1,407.62,99.83Z"/><path class="cls-3" d="M419.21,99.42a4.71,4.71,0,0,1-1.5-3.6,5,5,0,0,1,1.35-3.58,4.57,4.57,0,0,1,3.5-1.45c3.2,0,4.47,2.81,4.47,5v.39h-7.86c.16,2.06,1.79,3.39,4.08,3.39a5.6,5.6,0,0,0,3.06-.89v1.26a6.1,6.1,0,0,1-7.1-.49ZM425.58,95a3.21,3.21,0,0,0-.83-2,2.71,2.71,0,0,0-2.25-.91,3.25,3.25,0,0,0-2.34.87,3.17,3.17,0,0,0-1,2Z"/><path class="cls-3" d="M429.7,100.58V91h1.42v1.82a4.42,4.42,0,0,1,3.8-2.06v1.45a3.76,3.76,0,0,0-1.19.18,3.87,3.87,0,0,0-2.61,2.13v6Z"/><path class="cls-3" d="M436.29,99.83V98.37a6.85,6.85,0,0,0,3.91,1.17c1.64,0,2.63-.58,2.63-1.53a1.11,1.11,0,0,0-.67-1,4.45,4.45,0,0,0-1-.35,5,5,0,0,0-.65-.16c-.3-.08-.51-.14-.65-.16-2.28-.57-3.35-1.25-3.35-2.89s1.41-2.65,3.84-2.65a6.32,6.32,0,0,1,3.48.85v1.41a6.58,6.58,0,0,0-3.42-1c-1.64,0-2.45.55-2.45,1.4a1.2,1.2,0,0,0,.73,1.07c.32.1.4.18.77.28l.44.12c.17.06.79.19.95.22,2.19.53,3.46,1.22,3.46,2.86a2.33,2.33,0,0,1-1.15,2,5.23,5.23,0,0,1-2.91.75A7.75,7.75,0,0,1,436.29,99.83Z"/><path class="cls-3" d="M364.83,138.82V125H371c2.71,0,4.37,1.48,4.37,3.76a3.6,3.6,0,0,1-3.26,3.71l4.47,6.37h-1.72l-4.35-6.23H366.3v6.23Zm1.47-7.55h4.64c1.9,0,3-.89,3-2.47s-1.11-2.5-3-2.5H366.3Z"/><path class="cls-3" d="M379.39,137.66a4.67,4.67,0,0,1-1.5-3.6,5,5,0,0,1,1.34-3.58,4.59,4.59,0,0,1,3.51-1.45c3.2,0,4.46,2.81,4.46,5v.39h-7.85c.16,2.06,1.78,3.38,4.08,3.38a5.52,5.52,0,0,0,3.06-.89v1.27a5.35,5.35,0,0,1-3.34.91A5.42,5.42,0,0,1,379.39,137.66Zm6.37-4.43a3.27,3.27,0,0,0-.83-2,2.69,2.69,0,0,0-2.25-.91,3.21,3.21,0,0,0-2.34.87,3.15,3.15,0,0,0-1,2Z"/><path class="cls-3" d="M389.17,138.07v-1.46a6.84,6.84,0,0,0,3.91,1.16c1.64,0,2.63-.57,2.63-1.52a1.11,1.11,0,0,0-.67-1,4,4,0,0,0-1-.35,5,5,0,0,0-.65-.16c-.3-.08-.52-.14-.65-.16-2.28-.57-3.35-1.25-3.35-2.89s1.41-2.65,3.84-2.65a6.34,6.34,0,0,1,3.48.85v1.41a6.48,6.48,0,0,0-3.42-1c-1.64,0-2.45.55-2.45,1.4a1.18,1.18,0,0,0,.73,1.07c.31.1.4.18.77.28l.44.12a8.92,8.92,0,0,0,.94.21c2.2.54,3.47,1.23,3.47,2.87a2.33,2.33,0,0,1-1.15,2,5.23,5.23,0,0,1-2.91.75A7.86,7.86,0,0,1,389.17,138.07Z"/><path class="cls-3" d="M400.76,137.66a4.67,4.67,0,0,1-1.5-3.6,5,5,0,0,1,1.34-3.58,4.59,4.59,0,0,1,3.5-1.45c3.2,0,4.47,2.81,4.47,5v.39h-7.85c.16,2.06,1.78,3.38,4.07,3.38a5.55,5.55,0,0,0,3.07-.89v1.27a6.1,6.1,0,0,1-7.1-.49Zm6.37-4.43a3.23,3.23,0,0,0-.84-2,2.68,2.68,0,0,0-2.25-.91,3.17,3.17,0,0,0-2.33.87,3.1,3.1,0,0,0-1,2Z"/><path class="cls-3" d="M411.24,138.82v-9.55h1.43v1.82a4.4,4.4,0,0,1,3.79-2.06v1.45a4,4,0,0,0-1.18.17,3.87,3.87,0,0,0-2.61,2.14v6Z"/><path class="cls-3" d="M422.54,138.88l-4.39-9.61h1.6l3.48,7.69,3.46-7.69h1.54l-4.39,9.61Z"/><path class="cls-3" d="M431.1,137.66a4.71,4.71,0,0,1-1.5-3.6,5,5,0,0,1,1.35-3.58,4.57,4.57,0,0,1,3.5-1.45c3.2,0,4.47,2.81,4.47,5v.39h-7.86c.16,2.06,1.78,3.38,4.08,3.38a5.52,5.52,0,0,0,3.06-.89v1.27a5.35,5.35,0,0,1-3.34.91A5.42,5.42,0,0,1,431.1,137.66Zm6.37-4.43a3.21,3.21,0,0,0-.83-2,2.68,2.68,0,0,0-2.25-.91,3.21,3.21,0,0,0-2.34.87,3.15,3.15,0,0,0-1,2Z"/><path class="cls-3" d="M363.47,177.06l6.17-13.92H371l6.19,13.92h-1.54l-1.72-3.82h-7.26L365,177.06Zm3.7-5.1h6.29l-3.15-7Z"/><path class="cls-3" d="M378.74,176.31v-1.47a6.81,6.81,0,0,0,3.92,1.17c1.64,0,2.63-.57,2.63-1.52a1.1,1.1,0,0,0-.68-1,4,4,0,0,0-1-.36A5.86,5.86,0,0,0,383,173a6.46,6.46,0,0,0-.65-.16c-2.27-.58-3.34-1.25-3.34-2.89s1.4-2.65,3.83-2.65a6.37,6.37,0,0,1,3.49.85v1.41a6.52,6.52,0,0,0-3.43-1c-1.64,0-2.45.55-2.45,1.4a1.2,1.2,0,0,0,.73,1.07c.32.1.4.18.77.28l.44.11a9.2,9.2,0,0,0,1,.22c2.19.54,3.46,1.23,3.46,2.87a2.33,2.33,0,0,1-1.15,2,5.22,5.22,0,0,1-2.9.75A7.87,7.87,0,0,1,378.74,176.31Z"/><path class="cls-3" d="M388.81,176.31v-1.47a6.81,6.81,0,0,0,3.92,1.17c1.64,0,2.63-.57,2.63-1.52a1.1,1.1,0,0,0-.68-1,4,4,0,0,0-1-.36A5.06,5.06,0,0,0,393,173a6.46,6.46,0,0,0-.65-.16c-2.27-.58-3.34-1.25-3.34-2.89s1.4-2.65,3.83-2.65a6.32,6.32,0,0,1,3.48.85v1.41a6.46,6.46,0,0,0-3.42-1c-1.64,0-2.45.55-2.45,1.4a1.2,1.2,0,0,0,.73,1.07c.32.1.4.18.77.28l.44.11a9.2,9.2,0,0,0,.95.22c2.19.54,3.46,1.23,3.46,2.87a2.33,2.33,0,0,1-1.15,2,5.23,5.23,0,0,1-2.91.75A7.86,7.86,0,0,1,388.81,176.31Z"/><path class="cls-3" d="M400.4,175.89a4.66,4.66,0,0,1-1.5-3.6,5,5,0,0,1,1.34-3.58,4.61,4.61,0,0,1,3.5-1.44c3.21,0,4.47,2.81,4.47,5v.4h-7.85c.16,2.06,1.78,3.38,4.08,3.38a5.63,5.63,0,0,0,3.06-.89v1.27a6.08,6.08,0,0,1-7.1-.5Zm6.37-4.43a3.27,3.27,0,0,0-.83-2,2.72,2.72,0,0,0-2.26-.91,3.19,3.19,0,0,0-2.33.87,3.14,3.14,0,0,0-1,2Z"/><path class="cls-3" d="M412,174.35v-5.6h-2.25v-1.24H412v-2.95h1.43v2.95h3.34v1.24h-3.34v5.17a2.53,2.53,0,0,0,.37,1.58,1.68,1.68,0,0,0,1.29.45,3.17,3.17,0,0,0,1.56-.39v1.3a3.38,3.38,0,0,1-2,.44C412.86,177.3,412,176.15,412,174.35Z"/><path class="cls-3" d="M424.89,177.06V163.22h1.45l5,6.7,5-6.7h1.43v13.84h-1.45V165.43l-4.53,6h-.89l-4.56-6v11.63Z"/><path class="cls-3" d="M441.63,176.47a2.9,2.9,0,0,1-1.05-2.34,2.79,2.79,0,0,1,1.11-2.31,4.49,4.49,0,0,1,2.81-.85,6.75,6.75,0,0,1,3.44.93v-1c0-1.6-1.05-2.39-3.15-2.39a5.4,5.4,0,0,0-3.12,1v-1.39a6.38,6.38,0,0,1,3.42-.87c2.55,0,4.27,1.23,4.27,3.54v3.94c0,.73.36,1.18.91,1.18a1.15,1.15,0,0,0,.55-.12v1.11a1.64,1.64,0,0,1-.95.22,1.68,1.68,0,0,1-1.79-1.52,4.86,4.86,0,0,1-3.86,1.68A4.12,4.12,0,0,1,441.63,176.47Zm6.31-2.06v-1.33a5.64,5.64,0,0,0-3.11-.94c-1.74,0-2.83.73-2.83,1.91s1.13,2,2.61,2A4.43,4.43,0,0,0,447.94,174.41Z"/><path class="cls-3" d="M454.57,177.06h-1.43v-9.55h1.43V169a4.87,4.87,0,0,1,3.81-1.7c2.38,0,3.64,1.46,3.64,4v5.81H460.6v-5.5c0-2.51-1.55-2.94-2.71-2.94a3.4,3.4,0,0,0-1.92.61,4.2,4.2,0,0,0-1.4,1.38Z"/><path class="cls-3" d="M465.45,176.47a2.87,2.87,0,0,1-1.05-2.34,2.78,2.78,0,0,1,1.1-2.31,4.53,4.53,0,0,1,2.81-.85,6.7,6.7,0,0,1,3.44.93v-1c0-1.6-1-2.39-3.14-2.39a5.35,5.35,0,0,0-3.12,1v-1.39a6.36,6.36,0,0,1,3.42-.87c2.55,0,4.27,1.23,4.27,3.54v3.94c0,.73.35,1.18.91,1.18a1.2,1.2,0,0,0,.55-.12v1.11a1.66,1.66,0,0,1-.95.22,1.69,1.69,0,0,1-1.8-1.52A4.84,4.84,0,0,1,468,177.3,4.12,4.12,0,0,1,465.45,176.47Zm6.3-2.06v-1.33a5.58,5.58,0,0,0-3.1-.94c-1.74,0-2.83.73-2.83,1.91s1.13,2,2.61,2A4.39,4.39,0,0,0,471.75,174.41Z"/><path class="cls-3" d="M484.77,175.44a4.35,4.35,0,0,1-3.7,1.7,4.55,4.55,0,0,1-3.46-1.43,5.24,5.24,0,0,1,0-7,4.53,4.53,0,0,1,3.46-1.44,4.3,4.3,0,0,1,3.7,1.7v-1.46h1.42v8.94a4.14,4.14,0,0,1-1.48,3.44,5.58,5.58,0,0,1-3.7,1.2,7.37,7.37,0,0,1-3.7-.87v-1.38a6.83,6.83,0,0,0,3.56,1c2.3,0,3.9-1.09,3.9-3.36Zm0-4.79a3.65,3.65,0,0,0-3.36-2.09,3.65,3.65,0,1,0,0,7.29,3.65,3.65,0,0,0,3.36-2.09Z"/><path class="cls-3" d="M490.35,175.89a4.66,4.66,0,0,1-1.5-3.6,5,5,0,0,1,1.34-3.58,4.61,4.61,0,0,1,3.5-1.44c3.21,0,4.47,2.81,4.47,5v.4h-7.85c.16,2.06,1.78,3.38,4.07,3.38a5.64,5.64,0,0,0,3.07-.89v1.27a6.08,6.08,0,0,1-7.1-.5Zm6.37-4.43a3.27,3.27,0,0,0-.83-2,2.72,2.72,0,0,0-2.26-.91,3.16,3.16,0,0,0-3.3,2.9Z"/><path class="cls-3" d="M500.83,177.06v-9.55h1.43v1.82a4.41,4.41,0,0,1,3.8-2.06v1.44a3.72,3.72,0,0,0-1.19.18,3.87,3.87,0,0,0-2.61,2.14v6Z"/><path class="cls-3" d="M513.63,177.06V163.22h6.19c2.71,0,4.37,1.48,4.37,3.75a3.6,3.6,0,0,1-3.26,3.72l4.47,6.37h-1.72l-4.35-6.23H515.1v6.23Zm1.47-7.55h4.65c1.89,0,3-.89,3-2.48s-1.11-2.49-3-2.49H515.1Z"/><path class="cls-3" d="M528.19,175.89a4.69,4.69,0,0,1-1.5-3.6,5,5,0,0,1,1.35-3.58,4.6,4.6,0,0,1,3.5-1.44c3.2,0,4.46,2.81,4.46,5v.4h-7.85c.16,2.06,1.78,3.38,4.08,3.38a5.6,5.6,0,0,0,3.06-.89v1.27a6.08,6.08,0,0,1-7.1-.5Zm6.37-4.43a3.21,3.21,0,0,0-.83-2,2.68,2.68,0,0,0-2.25-.91,3.21,3.21,0,0,0-2.34.87,3.14,3.14,0,0,0-1,2Z"/><path class="cls-3" d="M539.43,175.87a4.85,4.85,0,0,1-1.44-3.6,4.79,4.79,0,0,1,1.46-3.56,5,5,0,0,1,3.64-1.44A5.88,5.88,0,0,1,546,168v1.33a5.29,5.29,0,0,0-2.69-.73,3.8,3.8,0,0,0-2.75,1.06,3.82,3.82,0,0,0,0,5.34,3.84,3.84,0,0,0,2.75,1,5.07,5.07,0,0,0,2.86-.83v1.31a5.89,5.89,0,0,1-3.08.81A5,5,0,0,1,539.43,175.87Z"/><path class="cls-3" d="M549,177.06v-9.55h1.43v1.82a4.4,4.4,0,0,1,3.79-2.06v1.44a3.65,3.65,0,0,0-1.18.18,3.87,3.87,0,0,0-2.61,2.14v6Z"/><path class="cls-3" d="M563.64,167.51h1.42v9.55h-1.42V175.6a4.92,4.92,0,0,1-3.82,1.7c-2.37,0-3.63-1.47-3.63-4v-5.81h1.42V173c0,2.51,1.54,2.94,2.71,2.94a3.53,3.53,0,0,0,1.9-.59,4.52,4.52,0,0,0,1.42-1.4Z"/><path class="cls-3" d="M568.65,163.51a1,1,0,1,1,1.42,1.43,1,1,0,0,1-1.42-1.43Zm0,13.55v-9.55h1.42v9.55Z"/><path class="cls-3" d="M574.8,174.35v-5.6h-2.25v-1.24h2.25v-2.95h1.42v2.95h3.35v1.24h-3.35v5.17a2.46,2.46,0,0,0,.38,1.58,1.65,1.65,0,0,0,1.28.45,3.2,3.2,0,0,0,1.57-.39v1.3a3.4,3.4,0,0,1-2,.44C575.67,177.3,574.8,176.15,574.8,174.35Z"/><path class="cls-3" d="M582.2,177.06v-9.55h1.42v1.42a4,4,0,0,1,3.44-1.66,3,3,0,0,1,3.07,1.88,4.26,4.26,0,0,1,3.68-1.88c2.13,0,3.38,1.37,3.38,3.84v5.95h-1.43v-5.64c0-1.88-.79-2.8-2.37-2.8a3.75,3.75,0,0,0-3,2c0,.54,0,.89,0,1.07v5.32H589v-5.64c0-1.88-.79-2.8-2.37-2.8a2.92,2.92,0,0,0-1.7.59,4,4,0,0,0-1.29,1.38v6.47Z"/><path class="cls-3" d="M601.19,175.89a4.66,4.66,0,0,1-1.5-3.6,5,5,0,0,1,1.34-3.58,4.61,4.61,0,0,1,3.5-1.44c3.2,0,4.47,2.81,4.47,5v.4h-7.85c.16,2.06,1.78,3.38,4.07,3.38a5.64,5.64,0,0,0,3.07-.89v1.27a6.08,6.08,0,0,1-7.1-.5Zm6.37-4.43a3.27,3.27,0,0,0-.83-2,2.72,2.72,0,0,0-2.26-.91,3.17,3.17,0,0,0-2.33.87,3.1,3.1,0,0,0-1,2Z"/><path class="cls-3" d="M613.1,177.06h-1.43v-9.55h1.43V169a4.88,4.88,0,0,1,3.81-1.7c2.38,0,3.64,1.46,3.64,4v5.81h-1.42v-5.5c0-2.51-1.54-2.94-2.71-2.94a3.4,3.4,0,0,0-1.92.61,4.2,4.2,0,0,0-1.4,1.38Z"/><path class="cls-3" d="M624.85,174.35v-5.6h-2.26v-1.24h2.26v-2.95h1.42v2.95h3.34v1.24h-3.34v5.17a2.46,2.46,0,0,0,.38,1.58,1.64,1.64,0,0,0,1.28.45,3.2,3.2,0,0,0,1.57-.39v1.3a3.4,3.4,0,0,1-2,.44C625.72,177.3,624.85,176.15,624.85,174.35Z"/><path class="cls-3" d="M637.75,177.06V163.22h5.81c2.77,0,4.43,1.54,4.43,3.83s-1.66,3.9-4.43,3.9h-4.35v6.11Zm1.46-7.44h4.25c2,0,3.09-.92,3.09-2.53s-1.13-2.55-3.09-2.55h-4.25Z"/><path class="cls-3" d="M650.43,177.06v-9.55h1.42v1.82a4.42,4.42,0,0,1,3.8-2.06v1.44a3.72,3.72,0,0,0-1.19.18,3.91,3.91,0,0,0-2.61,2.14v6Z"/><path class="cls-3" d="M662.2,167.27a5,5,0,0,1,3.71,1.48,5,5,0,0,1,0,7.08,5.43,5.43,0,0,1-7.43,0,5.07,5.07,0,0,1,0-7.08A5,5,0,0,1,662.2,167.27Zm2.65,2.35a3.84,3.84,0,0,0-5.3,0,3.68,3.68,0,0,0-1,2.67,3.63,3.63,0,0,0,1,2.65,3.82,3.82,0,0,0,5.3,0,3.67,3.67,0,0,0,1-2.65A3.71,3.71,0,0,0,664.85,169.62Z"/><path class="cls-3" d="M677.82,175.44a4.33,4.33,0,0,1-3.7,1.7,4.55,4.55,0,0,1-3.46-1.43,5.24,5.24,0,0,1,0-7,4.53,4.53,0,0,1,3.46-1.44,4.28,4.28,0,0,1,3.7,1.7v-1.46h1.43v8.94a4.15,4.15,0,0,1-1.49,3.44,5.58,5.58,0,0,1-3.7,1.2,7.3,7.3,0,0,1-3.69-.87v-1.38a6.8,6.8,0,0,0,3.56,1c2.29,0,3.89-1.09,3.89-3.36Zm0-4.79a3.65,3.65,0,0,0-3.36-2.09,3.65,3.65,0,1,0,0,7.29,3.65,3.65,0,0,0,3.36-2.09Z"/><path class="cls-3" d="M682.59,177.06v-9.55H684v1.82a4.4,4.4,0,0,1,3.79-2.06v1.44a3.65,3.65,0,0,0-1.18.18A3.87,3.87,0,0,0,684,171v6Z"/><path class="cls-3" d="M690.13,176.47a2.9,2.9,0,0,1-1-2.34,2.79,2.79,0,0,1,1.11-2.31A4.49,4.49,0,0,1,693,171a6.75,6.75,0,0,1,3.44.93v-1c0-1.6-1.05-2.39-3.15-2.39a5.4,5.4,0,0,0-3.12,1v-1.39a6.41,6.41,0,0,1,3.42-.87c2.55,0,4.27,1.23,4.27,3.54v3.94c0,.73.36,1.18.91,1.18a1.15,1.15,0,0,0,.55-.12v1.11a1.64,1.64,0,0,1-1,.22,1.68,1.68,0,0,1-1.79-1.52,4.86,4.86,0,0,1-3.86,1.68A4.12,4.12,0,0,1,690.13,176.47Zm6.31-2.06v-1.33a5.64,5.64,0,0,0-3.11-.94c-1.74,0-2.83.73-2.83,1.91s1.13,2,2.62,2A4.41,4.41,0,0,0,696.44,174.41Z"/><path class="cls-3" d="M701.64,177.06v-9.55h1.43v1.42a4,4,0,0,1,3.44-1.66,3,3,0,0,1,3.06,1.88,4.27,4.27,0,0,1,3.68-1.88c2.14,0,3.38,1.37,3.38,3.84v5.95h-1.42v-5.64c0-1.88-.79-2.8-2.37-2.8a3.75,3.75,0,0,0-3,2c0,.54,0,.89,0,1.07v5.32h-1.42v-5.64c0-1.88-.8-2.8-2.38-2.8a2.94,2.94,0,0,0-1.7.59,4,4,0,0,0-1.28,1.38v6.47Z"/><path class="cls-3" d="M368.35,215.3V202.78h-4.76v-1.32h11.05v1.32h-4.82V215.3Z"/><path class="cls-3" d="M379,205.51a4.93,4.93,0,0,1,3.71,1.48,5,5,0,0,1,0,7.08,5.43,5.43,0,0,1-7.43,0,5.07,5.07,0,0,1,0-7.08A5,5,0,0,1,379,205.51Zm2.65,2.35a3.82,3.82,0,0,0-5.3,0,3.89,3.89,0,0,0,0,5.32,3.82,3.82,0,0,0,5.3,0,3.89,3.89,0,0,0,0-5.32Z"/><path class="cls-3" d="M388.24,201.46v8.22l4.54-3.93h1.94l-5,4.31,5.75,5.24h-2l-5.16-4.71v4.71h-1.43V201.46Z"/><path class="cls-3" d="M397.79,214.13a4.66,4.66,0,0,1-1.5-3.6,5,5,0,0,1,1.34-3.58,4.58,4.58,0,0,1,3.5-1.44c3.21,0,4.47,2.81,4.47,5v.4h-7.85c.16,2.06,1.78,3.38,4.07,3.38a5.64,5.64,0,0,0,3.07-.89v1.27a6.08,6.08,0,0,1-7.1-.5Zm6.37-4.43a3.27,3.27,0,0,0-.83-2,2.72,2.72,0,0,0-2.26-.92,3.18,3.18,0,0,0-2.33.88,3.14,3.14,0,0,0-1,2Z"/><path class="cls-3" d="M409.7,215.3h-1.42v-9.55h1.42v1.46a4.89,4.89,0,0,1,3.82-1.7c2.37,0,3.63,1.46,3.63,4v5.82h-1.42v-5.5c0-2.51-1.54-3-2.71-3a3.44,3.44,0,0,0-1.92.62,4.3,4.3,0,0,0-1.4,1.38Z"/><path class="cls-3" d="M425.84,215.3V201.46h1.46V214H435v1.33Z"/><path class="cls-3" d="M437.59,201.75a1,1,0,0,1,1.43,1.43,1,1,0,1,1-1.43-1.43Zm0,13.55v-9.55H439v9.55Z"/><path class="cls-3" d="M451.87,219.25h-1.42v-5.47a4.41,4.41,0,0,1-3.7,1.76,4.52,4.52,0,0,1-3.46-1.47,5.34,5.34,0,0,1,0-7.1,4.51,4.51,0,0,1,3.46-1.46,4.39,4.39,0,0,1,3.7,1.76v-1.52h1.42ZM450.45,209a3.81,3.81,0,0,0-3.36-2.16,3.54,3.54,0,0,0-2.63,1.07,3.65,3.65,0,0,0-1,2.65,3.71,3.71,0,0,0,1,2.67,3.54,3.54,0,0,0,2.63,1.07,3.73,3.73,0,0,0,3.36-2.16Z"/><path class="cls-3" d="M462.54,205.75H464v9.55h-1.42v-1.47a4.91,4.91,0,0,1-3.82,1.71c-2.38,0-3.64-1.47-3.64-4v-5.81h1.42v5.49c0,2.52,1.55,2.95,2.71,2.95a3.48,3.48,0,0,0,1.9-.59,4.48,4.48,0,0,0,1.43-1.41Z"/><path class="cls-3" d="M467.54,201.75a1,1,0,0,1,1.43,1.43,1,1,0,1,1-1.43-1.43Zm0,13.55v-9.55H469v9.55Z"/><path class="cls-3" d="M480.4,201.46h1.42V215.3H480.4v-1.52a4.41,4.41,0,0,1-3.7,1.76,4.5,4.5,0,0,1-3.46-1.47,5.34,5.34,0,0,1,0-7.1,4.49,4.49,0,0,1,3.46-1.46,4.39,4.39,0,0,1,3.7,1.76Zm0,7.49a3.73,3.73,0,0,0-3.36-2.16,3.48,3.48,0,0,0-2.63,1.09,3.87,3.87,0,0,0,0,5.3,3.54,3.54,0,0,0,2.63,1.07,3.79,3.79,0,0,0,3.36-2.16Z"/><path class="cls-3" d="M485.41,201.75a1,1,0,0,1,1.42,0,1,1,0,0,1,0,1.43,1,1,0,0,1-1.42-1.43Zm0,13.55v-9.55h1.42v9.55Z"/><path class="cls-3" d="M491.56,212.59V207H489.3v-1.24h2.26V202.8H493v2.95h3.34V207H493v5.16a2.47,2.47,0,0,0,.38,1.59,1.64,1.64,0,0,0,1.28.45,3.14,3.14,0,0,0,1.56-.39v1.3a3.35,3.35,0,0,1-1.95.44C492.43,215.54,491.56,214.39,491.56,212.59Z"/><path class="cls-3" d="M498,219.06v-1.33a2.72,2.72,0,0,0,1.3.32c1.19,0,1.94-1,2.83-3.11l-4.25-9.19h1.58l3.38,7.51,3.28-7.51h1.55l-4.73,10.62c-.85,2-2,3-3.42,3A3.35,3.35,0,0,1,498,219.06Z"/><path class="cls-3" d="M514.42,214.07v-1.64a7.63,7.63,0,0,0,2.16,1.23,8.51,8.51,0,0,0,2.87.51c2.15,0,3.74-1,3.74-2.61a2.07,2.07,0,0,0-1.15-1.88,3.08,3.08,0,0,0-.83-.39l-.87-.3-1.05-.32c-.61-.17-1.11-.31-1.46-.43a10,10,0,0,1-1.23-.5,3.61,3.61,0,0,1-1-.69,3.26,3.26,0,0,1-.87-2.25,3.12,3.12,0,0,1,1.27-2.57,5.46,5.46,0,0,1,3.52-1,7.87,7.87,0,0,1,4.31,1.15v1.5a8,8,0,0,0-4.27-1.29c-2.22,0-3.35,1-3.35,2.26a1.84,1.84,0,0,0,.89,1.56,2.51,2.51,0,0,0,.66.32l.67.25.85.24.83.24c.57.18,1,.31,1.37.43a9.52,9.52,0,0,1,1.2.54,4.08,4.08,0,0,1,1.07.75,3.29,3.29,0,0,1,1,2.37,3.39,3.39,0,0,1-1.5,2.93,6.08,6.08,0,0,1-3.64,1.07A9,9,0,0,1,514.42,214.07Z"/><path class="cls-3" d="M534.88,205.75h1.42v9.55h-1.42v-1.47a4.91,4.91,0,0,1-3.82,1.71c-2.37,0-3.64-1.47-3.64-4v-5.81h1.42v5.49c0,2.52,1.55,2.95,2.71,2.95a3.48,3.48,0,0,0,1.9-.59,4.38,4.38,0,0,0,1.43-1.41Z"/><path class="cls-3" d="M541.09,219.25h-1.42v-13.5h1.42v1.52a4.39,4.39,0,0,1,3.7-1.76,4.51,4.51,0,0,1,3.46,1.46,5.37,5.37,0,0,1,0,7.1,4.52,4.52,0,0,1-3.46,1.47,4.41,4.41,0,0,1-3.7-1.76Zm0-7.16a3.72,3.72,0,0,0,3.36,2.16,3.54,3.54,0,0,0,2.63-1.07,3.76,3.76,0,0,0,1-2.67,3.69,3.69,0,0,0-1-2.65,3.54,3.54,0,0,0-2.63-1.07,3.8,3.8,0,0,0-3.36,2.16Z"/><path class="cls-3" d="M553.67,219.25h-1.42v-13.5h1.42v1.52a4.39,4.39,0,0,1,3.7-1.76,4.51,4.51,0,0,1,3.46,1.46,5.37,5.37,0,0,1,0,7.1,4.52,4.52,0,0,1-3.46,1.47,4.41,4.41,0,0,1-3.7-1.76Zm0-7.16a3.72,3.72,0,0,0,3.36,2.16,3.54,3.54,0,0,0,2.63-1.07,3.71,3.71,0,0,0,1.05-2.67,3.65,3.65,0,0,0-1.05-2.65,3.54,3.54,0,0,0-2.63-1.07,3.8,3.8,0,0,0-3.36,2.16Z"/><path class="cls-3" d="M569.3,205.51A5,5,0,0,1,573,207a5.07,5.07,0,0,1,0,7.08,5.44,5.44,0,0,1-7.44,0,5.07,5.07,0,0,1,0-7.08A5,5,0,0,1,569.3,205.51Zm2.65,2.35a3.82,3.82,0,0,0-5.3,0,3.89,3.89,0,0,0,0,5.32,3.82,3.82,0,0,0,5.3,0,3.89,3.89,0,0,0,0-5.32Z"/><path class="cls-3" d="M577.11,215.3v-9.55h1.43v1.82a4.4,4.4,0,0,1,3.79-2.06V207a3.65,3.65,0,0,0-1.18.18,3.87,3.87,0,0,0-2.61,2.14v6Z"/><path class="cls-3" d="M586.11,212.59V207h-2.25v-1.24h2.25V202.8h1.43v2.95h3.34V207h-3.34v5.16a2.54,2.54,0,0,0,.37,1.59,1.68,1.68,0,0,0,1.29.45,3.17,3.17,0,0,0,1.56-.39v1.3a3.38,3.38,0,0,1-2,.44C587,215.54,586.11,214.39,586.11,212.59Z"/><path class="cls-3" d="M363.47,253.54l6.17-13.92H371l6.19,13.92h-1.54l-1.72-3.82h-7.26L365,253.54Zm3.7-5.11h6.29l-3.15-7Z"/><path class="cls-3" d="M381.82,253.6,377.43,244H379l3.48,7.69L386,244h1.54l-4.39,9.61Z"/><path class="cls-3" d="M389.82,252.94a2.84,2.84,0,0,1-1.05-2.33,2.79,2.79,0,0,1,1.11-2.31,4.43,4.43,0,0,1,2.81-.85,6.65,6.65,0,0,1,3.44.93v-.95c0-1.61-1.05-2.4-3.15-2.4a5.45,5.45,0,0,0-3.12,1v-1.38a6.29,6.29,0,0,1,3.42-.87c2.55,0,4.27,1.22,4.27,3.54v3.93c0,.74.36,1.19.91,1.19a1.15,1.15,0,0,0,.55-.12v1.11a1.64,1.64,0,0,1-.95.22,1.69,1.69,0,0,1-1.8-1.53,4.81,4.81,0,0,1-3.85,1.68A4.06,4.06,0,0,1,389.82,252.94Zm6.31-2.05v-1.33a5.65,5.65,0,0,0-3.11-.95c-1.74,0-2.83.73-2.83,1.92s1.13,2,2.61,2A4.43,4.43,0,0,0,396.13,250.89Z"/><path class="cls-3" d="M401.55,240a1,1,0,0,1,1.42,1.43,1,1,0,1,1-1.42-1.43Zm0,13.55V244H403v9.55Z"/><path class="cls-3" d="M406.59,251.42V239.69H408v11.39c0,.93.41,1.41,1.24,1.41a1.75,1.75,0,0,0,.93-.26v1.27a3,3,0,0,1-1.4.27A2.05,2.05,0,0,1,406.59,251.42Z"/><path class="cls-3" d="M412.61,252.94a2.84,2.84,0,0,1-1.05-2.33,2.76,2.76,0,0,1,1.11-2.31,4.42,4.42,0,0,1,2.8-.85,6.66,6.66,0,0,1,3.45.93v-.95c0-1.61-1.05-2.4-3.15-2.4a5.45,5.45,0,0,0-3.12,1v-1.38a6.29,6.29,0,0,1,3.42-.87c2.55,0,4.27,1.22,4.27,3.54v3.93c0,.74.36,1.19.91,1.19a1.18,1.18,0,0,0,.55-.12v1.11a1.66,1.66,0,0,1-.95.22,1.69,1.69,0,0,1-1.8-1.53,4.81,4.81,0,0,1-3.85,1.68A4.06,4.06,0,0,1,412.61,252.94Zm6.31-2.05v-1.33a5.65,5.65,0,0,0-3.11-.95c-1.74,0-2.83.73-2.83,1.92s1.13,2,2.61,2A4.43,4.43,0,0,0,418.92,250.89Z"/><path class="cls-3" d="M424.12,239.69h1.42v5.82a4.39,4.39,0,0,1,3.7-1.76,4.49,4.49,0,0,1,3.46,1.46,5.34,5.34,0,0,1,0,7.1,4.49,4.49,0,0,1-3.46,1.46,4.39,4.39,0,0,1-3.7-1.76v1.53h-1.42Zm1.42,10.64a3.79,3.79,0,0,0,3.37,2.16,3.57,3.57,0,0,0,2.63-1.07,3.9,3.9,0,0,0,0-5.3,3.51,3.51,0,0,0-2.63-1.09,3.74,3.74,0,0,0-3.37,2.16Z"/><path class="cls-3" d="M436.7,251.42V239.69h1.42v11.39c0,.93.42,1.41,1.25,1.41a1.77,1.77,0,0,0,.93-.26v1.27a3,3,0,0,1-1.4.27A2.05,2.05,0,0,1,436.7,251.42Z"/><path class="cls-3" d="M443.29,252.37a4.67,4.67,0,0,1-1.5-3.6,5,5,0,0,1,1.34-3.58,4.58,4.58,0,0,1,3.5-1.44c3.2,0,4.47,2.81,4.47,5v.4h-7.85c.16,2,1.78,3.38,4.07,3.38a5.64,5.64,0,0,0,3.07-.89v1.26a5.29,5.29,0,0,1-3.34.91A5.36,5.36,0,0,1,443.29,252.37Zm6.37-4.43a3.32,3.32,0,0,0-.83-2,2.74,2.74,0,0,0-2.26-.91,3.21,3.21,0,0,0-2.33.87,3.14,3.14,0,0,0-1,2Z"/><path class="cls-3" d="M461.17,253.54h-1.42v-8.31h-1.9V244h1.9v-1.61a2.55,2.55,0,0,1,2.73-2.84,4.69,4.69,0,0,1,2,.37v1.31a4.3,4.3,0,0,0-1.66-.4c-1.1,0-1.66.61-1.66,1.84V244h3.32v1.24h-3.32Z"/><path class="cls-3" d="M470.86,243.75a5,5,0,0,1,3.72,1.48,5,5,0,0,1,0,7.08,5.46,5.46,0,0,1-7.43,0,5,5,0,0,1,0-7.08A4.94,4.94,0,0,1,470.86,243.75Zm2.65,2.35a3.82,3.82,0,0,0-5.3,0,3.92,3.92,0,0,0,0,5.32,3.82,3.82,0,0,0,5.3,0,3.89,3.89,0,0,0,0-5.32Z"/><path class="cls-3" d="M478.68,253.54V244h1.42v1.81a4.43,4.43,0,0,1,3.8-2.05v1.44a3.72,3.72,0,0,0-1.19.18,3.91,3.91,0,0,0-2.61,2.14v6Z"/><path class="cls-3" d="M490.47,252.31v-1.64a7.81,7.81,0,0,0,2.15,1.23,8.51,8.51,0,0,0,2.87.51c2.16,0,3.74-1,3.74-2.61a2,2,0,0,0-1.15-1.88,2.93,2.93,0,0,0-.83-.39l-.87-.3c-.2-.06-.55-.18-1.05-.32s-1.1-.31-1.46-.43a11.41,11.41,0,0,1-1.23-.5,3.41,3.41,0,0,1-1-.69,3.24,3.24,0,0,1-.87-2.25,3.11,3.11,0,0,1,1.26-2.57,5.48,5.48,0,0,1,3.52-1,7.93,7.93,0,0,1,4.31,1.14v1.51a8,8,0,0,0-4.27-1.29c-2.21,0-3.34,1-3.34,2.26a1.79,1.79,0,0,0,.89,1.56,2.31,2.31,0,0,0,.65.31l.67.26.85.24.83.24c.58.17,1,.31,1.37.43a9.58,9.58,0,0,1,1.21.54,4,4,0,0,1,1.06.75,3.25,3.25,0,0,1,1,2.37,3.38,3.38,0,0,1-1.5,2.93,6.05,6.05,0,0,1-3.64,1.06A9,9,0,0,1,490.47,252.31Z"/><path class="cls-3" d="M503.86,252.94a2.86,2.86,0,0,1-1.05-2.33,2.79,2.79,0,0,1,1.11-2.31,4.43,4.43,0,0,1,2.81-.85,6.65,6.65,0,0,1,3.44.93v-.95c0-1.61-1.05-2.4-3.14-2.4a5.48,5.48,0,0,0-3.13,1v-1.38a6.32,6.32,0,0,1,3.42-.87c2.55,0,4.27,1.22,4.27,3.54v3.93c0,.74.36,1.19.91,1.19a1.22,1.22,0,0,0,.56-.12v1.11a1.9,1.9,0,0,1-2.75-1.31,4.83,4.83,0,0,1-3.86,1.68A4.06,4.06,0,0,1,503.86,252.94Zm6.31-2.05v-1.33a5.64,5.64,0,0,0-3.1-.95c-1.74,0-2.83.73-2.83,1.92s1.12,2,2.61,2A4.41,4.41,0,0,0,510.17,250.89Z"/><path class="cls-3" d="M515.37,251.42V239.69h1.43v11.39c0,.93.41,1.41,1.24,1.41a1.75,1.75,0,0,0,.93-.26v1.27a3,3,0,0,1-1.4.27A2.05,2.05,0,0,1,515.37,251.42Z"/><path class="cls-3" d="M522,252.37a4.67,4.67,0,0,1-1.5-3.6,5,5,0,0,1,1.34-3.58,4.58,4.58,0,0,1,3.5-1.44c3.21,0,4.47,2.81,4.47,5v.4h-7.85c.16,2,1.78,3.38,4.08,3.38a5.63,5.63,0,0,0,3.06-.89v1.26a5.29,5.29,0,0,1-3.34.91A5.37,5.37,0,0,1,522,252.37Zm6.37-4.43a3.32,3.32,0,0,0-.83-2,2.74,2.74,0,0,0-2.26-.91,3.23,3.23,0,0,0-2.33.87,3.19,3.19,0,0,0-1,2Z"/><path class="cls-4" d="M261.33,24.11V22l4.08-3.7a13,13,0,0,0,1.92-2,2.91,2.91,0,0,0,.55-1.69c0-1.18-.95-1.93-2.38-1.93a5.57,5.57,0,0,0-3.73,1.58V11.31a6.3,6.3,0,0,1,4-1.32,5.36,5.36,0,0,1,3.44,1.16,3.74,3.74,0,0,1,1.47,3.07,5,5,0,0,1-.66,2.59,11.51,11.51,0,0,1-2.27,2.63l-2.37,2.17h5.77v2.5Z"/><path class="cls-4" d="M275.4,24.11V13.31l-2.93,1.48V12l3.24-1.74h2.47V24.11Z"/><path class="cls-4" d="M283.76,10.14a3.45,3.45,0,0,1,2.52,1,3.3,3.3,0,0,1,1,2.42,3.26,3.26,0,0,1-1,2.41,3.75,3.75,0,0,1-5,0,3.27,3.27,0,0,1-1-2.41,3.3,3.3,0,0,1,1-2.42A3.43,3.43,0,0,1,283.76,10.14Zm0,5a1.53,1.53,0,0,0,1.13-.46,1.66,1.66,0,0,0,0-2.29,1.53,1.53,0,0,0-1.13-.46,1.55,1.55,0,0,0-1.14.46,1.72,1.72,0,0,0,0,2.29A1.55,1.55,0,0,0,283.76,15.13Zm-1,9L291,10.26h2l-8.27,13.85ZM292,17.46a3.41,3.41,0,0,1,2.51,1,3.27,3.27,0,0,1,1,2.41,3.3,3.3,0,0,1-1,2.42,3.76,3.76,0,0,1-5,0,3.3,3.3,0,0,1-1-2.42,3.27,3.27,0,0,1,1-2.41A3.41,3.41,0,0,1,292,17.46Zm0,5A1.53,1.53,0,0,0,293.1,22a1.66,1.66,0,0,0,0-2.29,1.53,1.53,0,0,0-1.13-.46,1.59,1.59,0,0,0-1.15.46,1.75,1.75,0,0,0,0,2.29A1.59,1.59,0,0,0,292,22.45Z"/><path class="cls-4" d="M264,62.34V51.55L261,53V50.24l3.24-1.74h2.47V62.34Z"/><path class="cls-4" d="M272.33,48.38a3.41,3.41,0,0,1,2.51,1,3.44,3.44,0,0,1,0,4.83,3.73,3.73,0,0,1-5,0,3.44,3.44,0,0,1,0-4.83A3.41,3.41,0,0,1,272.33,48.38Zm0,5a1.53,1.53,0,0,0,1.13-.46,1.66,1.66,0,0,0,0-2.29,1.53,1.53,0,0,0-1.13-.46,1.59,1.59,0,0,0-1.15.46,1.75,1.75,0,0,0,0,2.29A1.59,1.59,0,0,0,272.33,53.37Zm-1,9,8.27-13.84h2l-8.26,13.84Zm9.22-6.64a3.41,3.41,0,0,1,2.51,1,3.43,3.43,0,0,1,0,4.82,3.73,3.73,0,0,1-5,0,3.43,3.43,0,0,1,0-4.82A3.41,3.41,0,0,1,280.54,55.7Zm0,5a1.5,1.5,0,0,0,1.12-.45,1.65,1.65,0,0,0,0-2.3,1.54,1.54,0,0,0-1.12-.45,1.61,1.61,0,0,0-1.15.45,1.76,1.76,0,0,0,0,2.3A1.57,1.57,0,0,0,280.54,60.68Z"/><path class="cls-4" d="M261.73,94.37c0-4.09,2.06-7.91,6.35-7.91a5.54,5.54,0,0,1,3.12.89v2.57a4.9,4.9,0,0,0-2.81-.89,3.52,3.52,0,0,0-2.69,1.07,4.24,4.24,0,0,0-1.08,2.69,4,4,0,0,1,3.22-1.28A4.4,4.4,0,0,1,271,92.73,4.26,4.26,0,0,1,272.27,96a4.63,4.63,0,0,1-1.44,3.52,5,5,0,0,1-3.58,1.36C263.76,100.86,261.73,98.41,261.73,94.37ZM269.44,96a2.27,2.27,0,0,0-2.37-2.31,2.79,2.79,0,0,0-2.53,1.74c.08,1.88,1,3,2.53,3A2.27,2.27,0,0,0,269.44,96Z"/><path class="cls-4" d="M277.24,86.62a3.41,3.41,0,0,1,2.51,1,3.27,3.27,0,0,1,1,2.41,3.3,3.3,0,0,1-1,2.42,3.76,3.76,0,0,1-5,0,3.27,3.27,0,0,1-1-2.42,3.23,3.23,0,0,1,1-2.41A3.41,3.41,0,0,1,277.24,86.62Zm0,5a1.5,1.5,0,0,0,1.12-.45,1.64,1.64,0,0,0,0-2.29,1.51,1.51,0,0,0-1.12-.46,1.58,1.58,0,0,0-1.15.46,1.75,1.75,0,0,0,0,2.29A1.57,1.57,0,0,0,277.24,91.6Zm-1,9,8.26-13.84h2l-8.26,13.84Zm9.21-6.64a3.41,3.41,0,0,1,2.52,1,3.45,3.45,0,0,1,0,4.82,3.41,3.41,0,0,1-2.52,1,3.38,3.38,0,0,1-2.51-1,3.43,3.43,0,0,1,0-4.82A3.38,3.38,0,0,1,285.44,93.94Zm0,5a1.56,1.56,0,0,0,1.13-.45,1.67,1.67,0,0,0,0-2.3,1.56,1.56,0,0,0-1.13-.45,1.58,1.58,0,0,0-1.14.45,1.74,1.74,0,0,0,0,2.3A1.58,1.58,0,0,0,285.44,98.92Z"/><path class="cls-4" d="M264,138.82V128L261,129.51v-2.79l3.24-1.74h2.47v13.84Z"/><path class="cls-4" d="M269.29,138.11v-2.67a7,7,0,0,0,3.81,1.11c1.74,0,3.07-.83,3.07-2.32s-1.19-2.29-3.09-2.29a10.12,10.12,0,0,0-3.32.59l.91-7.55h7.4v2.45h-5.3l-.3,2.35a6.42,6.42,0,0,1,1.32-.13,5.45,5.45,0,0,1,3.74,1.26,4.17,4.17,0,0,1,1.48,3.32,4.24,4.24,0,0,1-1.68,3.58,6.53,6.53,0,0,1-4.11,1.29A7.91,7.91,0,0,1,269.29,138.11Z"/><path class="cls-4" d="M283.94,124.86a3.41,3.41,0,0,1,2.51,1,3.43,3.43,0,0,1,0,4.82,3.73,3.73,0,0,1-5,0,3.43,3.43,0,0,1,0-4.82A3.41,3.41,0,0,1,283.94,124.86Zm0,5a1.52,1.52,0,0,0,1.13-.45,1.67,1.67,0,0,0,0-2.3,1.56,1.56,0,0,0-1.13-.45,1.58,1.58,0,0,0-1.14.45,1.74,1.74,0,0,0,0,2.3A1.54,1.54,0,0,0,283.94,129.84Zm-1,9L291.2,125h2l-8.27,13.84Zm9.22-6.64a3.38,3.38,0,0,1,2.51,1,3.43,3.43,0,0,1,0,4.82,3.73,3.73,0,0,1-5,0,3.43,3.43,0,0,1,0-4.82A3.38,3.38,0,0,1,292.15,132.18Zm0,5a1.58,1.58,0,0,0,1.13-.45,1.67,1.67,0,0,0,0-2.3,1.58,1.58,0,0,0-1.13-.45,1.61,1.61,0,0,0-1.15.45,1.76,1.76,0,0,0,0,2.3A1.61,1.61,0,0,0,292.15,137.16Z"/><path class="cls-4" d="M261.33,177.06V175l4.08-3.69a13,13,0,0,0,1.92-2.06,2.88,2.88,0,0,0,.55-1.68c0-1.19-.95-1.94-2.38-1.94a5.57,5.57,0,0,0-3.73,1.58v-2.92a6.25,6.25,0,0,1,4-1.33,5.37,5.37,0,0,1,3.44,1.17,3.74,3.74,0,0,1,1.47,3.06,5,5,0,0,1-.66,2.59,11.51,11.51,0,0,1-2.27,2.63l-2.37,2.18h5.77v2.49Z"/><path class="cls-4" d="M276.05,163.1a3.41,3.41,0,0,1,2.51,1,3.43,3.43,0,0,1,0,4.82,3.73,3.73,0,0,1-5,0,3.43,3.43,0,0,1,0-4.82A3.41,3.41,0,0,1,276.05,163.1Zm0,5a1.58,1.58,0,0,0,1.13-.45,1.67,1.67,0,0,0,0-2.3,1.58,1.58,0,0,0-1.13-.45,1.61,1.61,0,0,0-1.15.45,1.76,1.76,0,0,0,0,2.3A1.61,1.61,0,0,0,276.05,168.08Zm-1,9,8.27-13.84h2L277,177.06Zm9.22-6.64a3.44,3.44,0,0,1,2.51,1,3.3,3.3,0,0,1,1,2.42,3.27,3.27,0,0,1-1,2.41,3.75,3.75,0,0,1-5,0,3.26,3.26,0,0,1-1-2.41,3.3,3.3,0,0,1,1-2.42A3.45,3.45,0,0,1,284.26,170.42Zm0,5a1.51,1.51,0,0,0,1.12-.46,1.64,1.64,0,0,0,0-2.29,1.5,1.5,0,0,0-1.12-.45,1.57,1.57,0,0,0-1.15.45,1.75,1.75,0,0,0,0,2.29A1.58,1.58,0,0,0,284.26,175.4Z"/><path class="cls-4" d="M261.57,214.59v-2.67a7.05,7.05,0,0,0,3.82,1.1c1.74,0,3.06-.83,3.06-2.31s-1.18-2.29-3.08-2.29A9.92,9.92,0,0,0,262,209l.91-7.55h7.4v2.45h-5.3l-.3,2.35a5.89,5.89,0,0,1,1.33-.14,5.47,5.47,0,0,1,3.74,1.27,4.17,4.17,0,0,1,1.48,3.32,4.25,4.25,0,0,1-1.68,3.58,6.56,6.56,0,0,1-4.12,1.29A7.94,7.94,0,0,1,261.57,214.59Z"/><path class="cls-4" d="M276.23,201.34a3.38,3.38,0,0,1,2.51,1,3.43,3.43,0,0,1,0,4.82,3.73,3.73,0,0,1-5,0,3.43,3.43,0,0,1,0-4.82A3.38,3.38,0,0,1,276.23,201.34Zm0,5a1.54,1.54,0,0,0,1.12-.45,1.65,1.65,0,0,0,0-2.3,1.54,1.54,0,0,0-1.12-.45,1.61,1.61,0,0,0-1.15.45,1.76,1.76,0,0,0,0,2.3A1.61,1.61,0,0,0,276.23,206.32Zm-1,9,8.27-13.84h2l-8.26,13.84Zm9.21-6.65a3.45,3.45,0,0,1,2.52,1,3.47,3.47,0,0,1,0,4.83,3.75,3.75,0,0,1-5,0,3.44,3.44,0,0,1,0-4.83A3.45,3.45,0,0,1,284.43,208.65Zm0,5a1.53,1.53,0,0,0,1.13-.46,1.66,1.66,0,0,0,0-2.29,1.53,1.53,0,0,0-1.13-.46,1.55,1.55,0,0,0-1.14.46,1.72,1.72,0,0,0,0,2.29A1.55,1.55,0,0,0,284.43,213.64Z"/><path class="cls-4" d="M261.57,252.83v-2.67a7.05,7.05,0,0,0,3.82,1.1c1.74,0,3.06-.83,3.06-2.31s-1.18-2.29-3.08-2.29a9.92,9.92,0,0,0-3.33.59l.91-7.56h7.4v2.46h-5.3l-.3,2.35a5.89,5.89,0,0,1,1.33-.14,5.47,5.47,0,0,1,3.74,1.27A4.16,4.16,0,0,1,271.3,249a4.25,4.25,0,0,1-1.68,3.58,6.55,6.55,0,0,1-4.12,1.28A7.93,7.93,0,0,1,261.57,252.83Z"/><path class="cls-4" d="M276,252.79a7.44,7.44,0,0,1-2.75-6.17,8.91,8.91,0,0,1,.67-3.52,5.75,5.75,0,0,1,5.3-3.68,5.16,5.16,0,0,1,4.33,2.11,8.75,8.75,0,0,1,0,10.17,5.16,5.16,0,0,1-4.33,2.11A5.24,5.24,0,0,1,276,252.79Zm3.22-1.65a2.56,2.56,0,0,0,2.26-1.3,5.84,5.84,0,0,0,.85-3.22,5.73,5.73,0,0,0-.85-3.21,2.54,2.54,0,0,0-2.26-1.32,2.57,2.57,0,0,0-2.27,1.32,5.73,5.73,0,0,0-.85,3.21,5.84,5.84,0,0,0,.85,3.22A2.59,2.59,0,0,0,279.23,251.14Z"/><path class="cls-4" d="M290.17,239.58a3.45,3.45,0,0,1,2.52,1,3.3,3.3,0,0,1,1,2.42,3.26,3.26,0,0,1-1,2.41,3.75,3.75,0,0,1-5,0,3.27,3.27,0,0,1-1-2.41,3.3,3.3,0,0,1,1-2.42A3.44,3.44,0,0,1,290.17,239.58Zm0,5a1.53,1.53,0,0,0,1.13-.46,1.66,1.66,0,0,0,0-2.29,1.52,1.52,0,0,0-1.13-.45,1.54,1.54,0,0,0-1.14.45,1.72,1.72,0,0,0,0,2.29A1.55,1.55,0,0,0,290.17,244.56Zm-1,9,8.26-13.85h2l-8.27,13.85Zm9.21-6.65a3.41,3.41,0,0,1,2.51,1,3.27,3.27,0,0,1,1,2.41,3.3,3.3,0,0,1-1,2.42,3.73,3.73,0,0,1-5,0,3.3,3.3,0,0,1-1-2.42,3.27,3.27,0,0,1,1-2.41A3.41,3.41,0,0,1,298.38,246.89Zm0,5a1.53,1.53,0,0,0,1.13-.46,1.66,1.66,0,0,0,0-2.29,1.53,1.53,0,0,0-1.13-.46,1.59,1.59,0,0,0-1.15.46,1.75,1.75,0,0,0,0,2.29A1.59,1.59,0,0,0,298.38,251.88Z"/><path class="cls-2" d="M17.2,38.38H25v34.4H17.2a17.2,17.2,0,0,1,0-34.4Z"/><path class="cls-2" d="M17.2,152.89H25v34.4H17.2a17.2,17.2,0,1,1,0-34.4Z"/></g></g></svg>