<svg xmlns="http://www.w3.org/2000/svg" viewBox="0 0 16.22 16.22"><defs><style>.cls-1{fill:#fff;}</style></defs><title>Facebook_icon</title><g id="Слой_2" data-name="Слой 2"><g id="Layer_1" data-name="Layer 1"><path class="cls-1" d="M8.11,15.68h2.16V10.27H13V8.11h-2.7V6.22a.79.79,0,0,1,.81-.81h2.16V3.24H10.81a3,3,0,0,0-2.7,3V8.11H6v2.16H8.11v5.41Zm2.7.54H7.57V10.81H5.4V7.57H7.57V6.22A3.56,3.56,0,0,1,10.78,2.7h3V6h-2.7a.25.25,0,0,0-.27.27V7.57h2.7v3.24h-2.7v5.41Z"/><path class="cls-1" d="M1.35.54a.79.79,0,0,0-.81.81V14.87a.79.79,0,0,0,.81.81H14.87a.8.8,0,0,0,.81-.81V1.35a.8.8,0,0,0-.81-.81ZM14.87,16.22H1.35A1.34,1.34,0,0,1,0,14.87V1.35A1.33,1.33,0,0,1,1.35,0H14.87a1.34,1.34,0,0,1,1.35,1.35V14.87a1.34,1.34,0,0,1-1.35,1.35Z"/></g></g></svg>