<?xml version="1.0" encoding="utf-8"?>
<!-- Generator: Adobe Illustrator 22.0.0, SVG Export Plug-In . SVG Version: 6.00 Build 0)  -->
<svg version="1.1" id="Слой_1" xmlns="http://www.w3.org/2000/svg" xmlns:xlink="http://www.w3.org/1999/xlink" x="0px" y="0px"
	 viewBox="0 0 576 455.3" style="enable-background:new 0 0 576 455.3;" xml:space="preserve">
<style type="text/css">
	.st0{fill:none;}
	.st1{fill:#FFFFFF;}
	.st2{font-family:'ArialMT';}
	.st3{font-size:11.7579px;}
	.st4{fill:#85C5C9;}
	.st5{fill:#D7CFBC;}
	.st6{fill:#E7A38B;}
	.st7{fill:#A873AE;}
	.st8{fill:#6E6CAE;}
	.st9{fill:#848DC5;}
	.st10{font-size:14.4588px;}
</style>
<g>
	<g>
		<rect x="0.1" y="34.1" class="st0" width="40.7" height="394.1"/>
		<text transform="matrix(1 0 0 1 8.205234e-02 42.5167)" class="st1 st2 st3">100%</text>
		<text transform="matrix(1 0 0 1 8.205234e-02 80.1168)" class="st1 st2 st3">90%</text>
		<text transform="matrix(1 0 0 1 8.205234e-02 117.7167)" class="st1 st2 st3">80%</text>
		<text transform="matrix(1 0 0 1 8.205234e-02 155.3168)" class="st1 st2 st3">70%</text>
		<text transform="matrix(1 0 0 1 8.205234e-02 192.9168)" class="st1 st2 st3">60%</text>
		<text transform="matrix(1 0 0 1 8.205234e-02 230.5168)" class="st1 st2 st3">50%</text>
		<text transform="matrix(1 0 0 1 8.205234e-02 268.1168)" class="st1 st2 st3">40%</text>
		<text transform="matrix(1 0 0 1 8.205234e-02 305.6168)" class="st1 st2 st3">30%</text>
		<text transform="matrix(1 0 0 1 8.205234e-02 343.2168)" class="st1 st2 st3">20%</text>
		<text transform="matrix(1 0 0 1 8.205234e-02 380.8167)" class="st1 st2 st3">10%</text>
		<text transform="matrix(1 0 0 1 8.205234e-02 418.4167)" class="st1 st2 st3">0%</text>
	</g>
	<g>
		<rect x="499.9" y="139.4" class="st0" width="111" height="223.5"/>
		<text transform="matrix(1 0 0 1 499.878 147.8258)" class="st1 st2 st3">Index</text>
		<text transform="matrix(1 0 0 1 499.878 185.4259)" class="st1 st2 st3">Token Basket</text>
		<text transform="matrix(1 0 0 1 499.878 223.0258)" class="st1 st2 st3">Fund of Funds</text>
		<text transform="matrix(1 0 0 1 499.878 260.6259)" class="st1 st2 st3">AI / Quant</text>
		<text transform="matrix(1 0 0 1 499.878 298.2258)" class="st1 st2 st3">Trading</text>
		<text transform="matrix(1 0 0 1 499.878 335.8258)" class="st1 st2 st3">Liquid Venture</text>
	</g>
	<g>
		<rect x="76.4" y="276.2" class="st4" width="59.1" height="142"/>
	</g>
	<g>
		<rect x="216.2" y="228" class="st4" width="59.1" height="190.2"/>
	</g>
	<g>
		<rect x="216.2" y="118.1" class="st5" width="59.1" height="111.7"/>
	</g>
	<g>
		<rect x="216.2" y="37.3" class="st6" width="59.1" height="20.2"/>
	</g>
	<g>
		<rect x="216.2" y="57.5" class="st7" width="59.1" height="20.2"/>
	</g>
	<g>
		<rect x="216.2" y="77.7" class="st8" width="59.1" height="20.2"/>
	</g>
	<g>
		<rect x="216.2" y="97.9" class="st9" width="59.1" height="20.2"/>
	</g>
	<g>
		<rect x="76.4" y="153.5" class="st5" width="59.1" height="122.7"/>
	</g>
	<g>
		<rect x="76.4" y="115.8" class="st9" width="59.1" height="37.7"/>
	</g>
	<g>
		<rect x="76.4" y="99" class="st8" width="59.1" height="16.9"/>
	</g>
	<g>
		<rect x="76.4" y="68.1" class="st7" width="59.1" height="30.8"/>
	</g>
	<g>
		<rect x="76.4" y="37.3" class="st6" width="59.1" height="30.8"/>
	</g>
	<text transform="matrix(1 0 0 1 147.539 48.3825)" class="st6 st2 st10">10</text>
	<text transform="matrix(1 0 0 1 292.7696 48.3825)" class="st6 st2 st10">0.1</text>
	<text transform="matrix(1 0 0 1 292.7696 68.1432)" class="st7 st2 st10">0.1</text>
	<text transform="matrix(1 0 0 1 292.7696 89.3493)" class="st8 st2 st10">0.1</text>
	<text transform="matrix(1 0 0 1 292.7696 108.0054)" class="st9 st2 st10">0.1</text>
	<text transform="matrix(1 0 0 1 147.539 80.6735)" class="st7 st2 st10">11</text>
	<text transform="matrix(1 0 0 1 147.539 111.5192)" class="st8 st2 st10">4</text>
	<text transform="matrix(0.7367 0 0 1 149.9492 151.5221)" class="st9 st2 st10">13</text>
	<text transform="matrix(0.7367 0 0 1 149.9492 272.0118)" class="st5 st2 st10">40</text>
	<text transform="matrix(0.7367 0 0 1 292.7696 228.0255)" class="st5 st2 st10">0.7</text>
	<text transform="matrix(0.7367 0 0 1 292.7696 418.2062)" class="st5 st2 st10">1.1</text>
	<text transform="matrix(0.7367 0 0 1 149.9492 418.2062)" class="st4 st2 st10">46</text>
	<g>
		<text transform="matrix(1 0 0 1 76.3702 9.299)" class="st1 st2 st3">124</text>
	</g>
	<g>
		<text transform="matrix(1 0 0 1 76.3702 452.5197)" class="st1 st2 st3">Number</text>
	</g>
	<g>
		<text transform="matrix(1 0 0 1 216.1377 452.5197)" class="st1 st2 st3">Estimated AUM ($B)</text>
	</g>
	<g>
		<text transform="matrix(1 0 0 1 216.1377 9.299)" class="st1 st2 st3">$2,3B</text>
	</g>
	<rect x="470.8" y="138.7" class="st6" width="11.9" height="9"/>
	<rect x="470.8" y="175.7" class="st7" width="11.9" height="9"/>
	<rect x="470.8" y="213.3" class="st8" width="11.9" height="9"/>
	<rect x="470.8" y="252.3" class="st9" width="11.9" height="9"/>
	<rect x="470.8" y="288" class="st5" width="11.9" height="9"/>
	<rect x="470.8" y="326.2" class="st4" width="11.9" height="9"/>
</g>
</svg>
