<?xml version="1.0" encoding="utf-8"?>
<!-- Generator: Adobe Illustrator 22.0.0, SVG Export Plug-In . SVG Version: 6.00 Build 0)  -->
<svg version="1.1" id="Слой_1" xmlns="http://www.w3.org/2000/svg" xmlns:xlink="http://www.w3.org/1999/xlink" x="0px" y="0px"
	 viewBox="0 0 537.5 342.3" style="enable-background:new 0 0 537.5 342.3;" xml:space="preserve">
<style type="text/css">
	.st0{opacity:0.2;fill:#FFFFFF;enable-background:new    ;}
	.st1{fill:#FFFFFF;}
	.st2{font-family:'ArialMT';}
	.st3{font-size:12.198px;}
	.st4{fill:none;stroke:#FFFFFF;stroke-miterlimit:10;}
	.st5{fill:none;}
</style>
<rect x="40.3" y="215.5" class="st0" width="24.7" height="102.3"/>
<rect x="92.2" y="138.7" class="st0" width="24.7" height="179.1"/>
<rect x="144.2" y="171.2" class="st0" width="24.7" height="146.6"/>
<rect x="196.1" y="101.7" class="st0" width="24.7" height="216.1"/>
<rect x="248" y="82" class="st0" width="24.7" height="235.9"/>
<rect x="300" y="59.2" class="st0" width="24.7" height="258.7"/>
<rect x="351.9" y="51.8" class="st0" width="24.7" height="266"/>
<rect x="403.8" y="47.8" class="st0" width="24.7" height="270"/>
<rect x="455.8" y="45.2" class="st0" width="24.7" height="272.7"/>
<rect x="507.7" y="37.8" class="st0" width="24.7" height="280"/>
<text transform="matrix(1 0 0 1 37.2769 339.6945)" class="st1 st2 st3">2002</text>
<text transform="matrix(1 0 0 1 39.2895 194.3473)" class="st1 st2 st3">26,7</text>
<g>
	<text transform="matrix(1 0 0 1 92.2683 119.649)" class="st1 st2 st3">47,1</text>
	<text transform="matrix(1 0 0 1 92.2683 119.649)" class="st4 st2 st3">47,1</text>
</g>
<g>
	<text transform="matrix(1 0 0 1 142.8706 153.4188)" class="st1 st2 st3">38,5</text>
</g>
<g>
	<text transform="matrix(1 0 0 1 200.5996 80.925)" class="st1 st2 st3">57</text>
</g>
<g>
	<text transform="matrix(1 0 0 1 247.4497 62.925)" class="st1 st2 st3">62,4</text>
</g>
<g>
	<text transform="matrix(1 0 0 1 298.2507 37.8469)" class="st1 st2 st3">68,7</text>
</g>
<g>
	<text transform="matrix(1 0 0 1 349.8796 26.8469)" class="st1 st2 st3">70,5</text>
</g>
<g>
	<text transform="matrix(1 0 0 1 402.6609 24.5791)" class="st1 st2 st3">71,5</text>
</g>
<g>
	<text transform="matrix(1 0 0 1 455.9553 23.4452)" class="st1 st2 st3">72,1</text>
</g>
<g>
	<text transform="matrix(1 0 0 1 507.3816 12.1117)" class="st1 st2 st3">74,1</text>
</g>
<text transform="matrix(1 0 0 1 88.4951 339.6945)" class="st1 st2 st3">2007</text>
<text transform="matrix(1 0 0 1 139.9707 339.6945)" class="st1 st2 st3">2008</text>
<text transform="matrix(1 0 0 1 196.0537 339.6945)" class="st1 st2 st3">2011</text>
<text transform="matrix(1 0 0 1 246.6558 339.6945)" class="st1 st2 st3">2012</text>
<text transform="matrix(1 0 0 1 299.1013 339.6945)" class="st1 st2 st3">2013</text>
<text transform="matrix(1 0 0 1 349.8799 339.6945)" class="st1 st2 st3">2014</text>
<text transform="matrix(1 0 0 1 402.6611 339.6945)" class="st1 st2 st3">2015</text>
<text transform="matrix(1 0 0 1 454.397 339.6945)" class="st1 st2 st3">2016</text>
<text transform="matrix(1 0 0 1 506.7583 339.6945)" class="st1 st2 st3">2017</text>
<g>
	<rect x="3" y="9.3" class="st5" width="41.3" height="334"/>
	<text transform="matrix(1 0 0 1 3 17.9771)" class="st1 st2 st3">80</text>
	<text transform="matrix(1 0 0 1 3 55.9771)" class="st1 st2 st3">70</text>
	<text transform="matrix(1 0 0 1 3 93.9771)" class="st1 st2 st3">60</text>
	<text transform="matrix(1 0 0 1 3 131.9771)" class="st1 st2 st3">50</text>
	<text transform="matrix(1 0 0 1 3 169.9771)" class="st1 st2 st3">40</text>
	<text transform="matrix(1 0 0 1 3 207.9771)" class="st1 st2 st3">30</text>
	<text transform="matrix(1 0 0 1 3 245.9771)" class="st1 st2 st3">20</text>
	<text transform="matrix(1 0 0 1 3 283.9771)" class="st1 st2 st3">10</text>
	<text transform="matrix(1 0 0 1 3 321.9771)" class="st1 st2 st3">0</text>
</g>
</svg>
