<?xml version="1.0" encoding="utf-8"?>
<!-- Generator: Adobe Illustrator 22.0.0, SVG Export Plug-In . SVG Version: 6.00 Build 0)  -->
<svg version="1.1" id="Слой_1" xmlns="http://www.w3.org/2000/svg" xmlns:xlink="http://www.w3.org/1999/xlink" x="0px" y="0px"
	 viewBox="0 0 534 413.1" style="enable-background:new 0 0 534 413.1;" xml:space="preserve">
<style type="text/css">
	.st0{fill:#85C5C9;}
	.st1{fill:#A873AE;}
	.st2{fill:#A2C4E4;}
	.st3{fill:#FFFFFF;}
	.st4{font-family:'ArialMT';}
	.st5{font-size:15.0413px;}
</style>
<g>
	<g>
		<rect x="0.4" y="341.5" class="st0" width="61" height="13.6"/>
	</g>
	<g>
		<rect x="108.3" y="313.1" class="st0" width="61" height="41.9"/>
		<rect x="108.3" y="310" class="st1" width="61" height="3.1"/>
		<rect x="108.3" y="307" class="st2" width="61" height="3.1"/>
	</g>
	<g>
		<rect x="216.1" y="332.2" class="st0" width="61" height="22.8"/>
		<rect x="216.1" y="304.7" class="st1" width="61" height="27.5"/>
		<rect x="216.1" y="302.7" class="st2" width="61" height="2.4"/>
	</g>
	<g>
		<rect x="323.9" y="315.8" class="st0" width="61" height="39.3"/>
		<rect x="323.9" y="291.5" class="st1" width="61" height="24.3"/>
		<rect x="323.9" y="273.9" class="st2" width="61" height="17.7"/>
	</g>
	<g>
		<rect x="431.8" y="313.1" class="st0" width="61" height="41.9"/>
		<rect x="431.8" y="301.2" class="st1" width="61" height="11.9"/>
		<rect x="431.8" y="29.3" class="st2" width="61" height="271.9"/>
	</g>
	<g>
		<text transform="matrix(1 0 0 1 0.4679 411.1182)" class="st3 st4 st5">2013</text>
	</g>
	<g>
		<text transform="matrix(1 0 0 1 108.3106 411.1182)" class="st3 st4 st5">2014</text>
	</g>
	<g>
		<text transform="matrix(1 0 0 1 216.1544 411.1182)" class="st3 st4 st5">2015</text>
	</g>
	<g>
		<text transform="matrix(1 0 0 1 323.9972 411.1182)" class="st3 st4 st5">2016</text>
	</g>
	<g>
		<text transform="matrix(1 0 0 1 429.3741 411.1182)" class="st3 st4 st5">2017 YTD</text>
	</g>
	<g>
		<text transform="matrix(1 0 0 1 0.4679 308.4639)" class="st3 st4 st5">150</text>
	</g>
	<g>
		<text transform="matrix(1 0 0 1 108.3106 273.834)" class="st3 st4 st5">514</text>
	</g>
	<g>
		<text transform="matrix(1 0 0 1 216.1544 269.107)" class="st3 st4 st5">576</text>
	</g>
	<g>
		<text transform="matrix(1 0 0 1 323.9972 234.9126)" class="st3 st4 st5">928</text>
	</g>
	<g>
		<text transform="matrix(1 0 0 1 429.3722 11.7232)" class="st3 st4 st5">3609</text>
	</g>
	<text transform="matrix(1 0 0 1 63.9737 355.562)" class="st0 st4 st5">138</text>
	<text transform="matrix(1 0 0 1 63.9737 337.6827)" class="st2 st4 st5">12</text>
	<text transform="matrix(1 0 0 1 174.336 355.562)" class="st0 st4 st5">138</text>
	<text transform="matrix(1 0 0 1 174.336 323.5025)" class="st1 st4 st5">32</text>
	<text transform="matrix(1 0 0 1 174.336 306.9214)" class="st2 st4 st5">32</text>
	<text transform="matrix(1 0 0 1 282.8477 355.562)" class="st0 st4 st5">232</text>
	<text transform="matrix(1 0 0 1 282.8477 323.5025)" class="st1 st4 st5">331</text>
	<text transform="matrix(1 0 0 1 282.8477 306.9214)" class="st2 st4 st5">14</text>
	<text transform="matrix(1 0 0 1 392.5929 355.562)" class="st0 st4 st5">417</text>
	<text transform="matrix(1 0 0 1 392.5929 302.7105)" class="st1 st4 st5">288</text>
	<text transform="matrix(1 0 0 1 392.5929 282.6709)" class="st2 st4 st5">222</text>
	<text transform="matrix(1 0 0 1 500.4884 355.562)" class="st0 st4 st5">462</text>
	<text transform="matrix(1 0 0 1 500.4884 310.0049)" class="st1 st4 st5">106</text>
	<text transform="matrix(1 0 0 1 500.4884 282.6709)" class="st2 st4 st5">3040</text>
	<rect x="0.4" y="6.7" class="st0" width="15.3" height="11.5"/>
	<text transform="matrix(1 0 0 1 34.172 18.9942)" class="st0 st4 st5">Other erly stage investors</text>
	<rect x="0.4" y="40.4" class="st1" width="15.3" height="11.5"/>
	<text transform="matrix(1 0 0 1 34.172 52.6988)" class="st1 st4 st5">Cjrporate Venture</text>
	<rect x="0.4" y="71.6" class="st2" width="15.3" height="11.5"/>
	<text transform="matrix(1 0 0 1 34.172 83.9365)" class="st2 st4 st5">ICO</text>
</g>
</svg>
