<svg xmlns="http://www.w3.org/2000/svg" xmlns:xlink="http://www.w3.org/1999/xlink" viewBox="0 0 78.86 88.46"><defs><style>.cls-1{mask:url(#mask);filter:url(#luminosity-noclip-4);}.cls-2,.cls-4,.cls-6{mix-blend-mode:multiply;}.cls-2{fill:url(#radial-gradient);}.cls-3{mask:url(#mask-2);filter:url(#luminosity-noclip-5);}.cls-4{fill:url(#radial-gradient-2);}.cls-5{mask:url(#mask-3);filter:url(#luminosity-noclip-6);}.cls-6{fill:url(#radial-gradient-3);}.cls-7{isolation:isolate;}.cls-8{fill:url(#linear-gradient);}.cls-9{fill:url(#linear-gradient-2);}.cls-10{fill:url(#linear-gradient-3);}.cls-11{fill:#fff;}.cls-12{fill:url(#linear-gradient-4);}.cls-13{mask:url(#mask-4);}.cls-14{opacity:0.4;fill:url(#Безымянный_градиент_9);}.cls-14,.cls-16,.cls-18{mix-blend-mode:screen;}.cls-15{mask:url(#mask-5);}.cls-16{opacity:0.72;fill:url(#Безымянный_градиент_9-2);}.cls-17{mask:url(#mask-6);}.cls-18{fill:url(#Безымянный_градиент_9-3);}.cls-19{filter:url(#luminosity-noclip-3);}.cls-20{filter:url(#luminosity-noclip-2);}.cls-21{filter:url(#luminosity-noclip);}</style><filter id="luminosity-noclip" x="0" y="-8072.66" width="78.86" height="32766" filterUnits="userSpaceOnUse" color-interpolation-filters="sRGB"><feFlood flood-color="#fff" result="bg"/><feBlend in="SourceGraphic" in2="bg"/></filter><mask id="mask" x="0" y="-8072.66" width="78.86" height="32766" maskUnits="userSpaceOnUse"><g class="cls-21"/></mask><radialGradient id="radial-gradient" cx="39.43" cy="49.03" r="39.43" gradientUnits="userSpaceOnUse"><stop offset="0"/><stop offset="0.67" stop-color="#aeaeae"/><stop offset="1" stop-color="#fff"/></radialGradient><filter id="luminosity-noclip-2" x="11.22" y="-8072.66" width="56.42" height="32766" filterUnits="userSpaceOnUse" color-interpolation-filters="sRGB"><feFlood flood-color="#fff" result="bg"/><feBlend in="SourceGraphic" in2="bg"/></filter><mask id="mask-2" x="11.22" y="-8072.66" width="56.42" height="32766" maskUnits="userSpaceOnUse"><g class="cls-20"/></mask><radialGradient id="radial-gradient-2" cx="39.43" cy="49.03" r="28.21" xlink:href="#radial-gradient"/><filter id="luminosity-noclip-3" x="18.52" y="-8072.66" width="41.83" height="32766" filterUnits="userSpaceOnUse" color-interpolation-filters="sRGB"><feFlood flood-color="#fff" result="bg"/><feBlend in="SourceGraphic" in2="bg"/></filter><mask id="mask-3" x="18.52" y="-8072.66" width="41.83" height="32766" maskUnits="userSpaceOnUse"><g class="cls-19"/></mask><radialGradient id="radial-gradient-3" cx="39.43" cy="49.03" r="20.91" xlink:href="#radial-gradient"/><linearGradient id="linear-gradient" x1="2259.72" x2="2259.72" y2="22.09" gradientTransform="matrix(-1, 0, 0, 1, 2295.99, 0)" gradientUnits="userSpaceOnUse"><stop offset="0" stop-color="#9ad3e7"/><stop offset="0.42" stop-color="#6a96b8"/><stop offset="0.78" stop-color="#5a92b6"/></linearGradient><linearGradient id="linear-gradient-2" x1="2258.63" y1="35.79" x2="2258.63" y2="78.34" xlink:href="#linear-gradient"/><linearGradient id="linear-gradient-3" x1="2251.71" y1="11.34" x2="2251.71" y2="39.06" xlink:href="#linear-gradient"/><linearGradient id="linear-gradient-4" x1="2258.63" y1="45.34" x2="2258.63" y2="64.26" xlink:href="#linear-gradient"/><filter id="luminosity-noclip-4" x="0" y="9.6" width="78.86" height="78.86" filterUnits="userSpaceOnUse" color-interpolation-filters="sRGB"><feFlood flood-color="#fff" result="bg"/><feBlend in="SourceGraphic" in2="bg"/></filter><mask id="mask-4" x="0" y="9.6" width="78.86" height="78.86" maskUnits="userSpaceOnUse"><g class="cls-1"><path class="cls-2" d="M78.86,49A39.43,39.43,0,1,1,39.43,9.6,39.43,39.43,0,0,1,78.86,49Z"/></g></mask><radialGradient id="Безымянный_градиент_9" cx="39.43" cy="49.03" r="39.43" gradientUnits="userSpaceOnUse"><stop offset="0" stop-color="#fff"/><stop offset="0.67" stop-color="#fff" stop-opacity="0.32"/><stop offset="1" stop-color="#fff" stop-opacity="0"/></radialGradient><filter id="luminosity-noclip-5" x="11.22" y="20.82" width="56.42" height="56.42" filterUnits="userSpaceOnUse" color-interpolation-filters="sRGB"><feFlood flood-color="#fff" result="bg"/><feBlend in="SourceGraphic" in2="bg"/></filter><mask id="mask-5" x="11.22" y="20.82" width="56.42" height="56.42" maskUnits="userSpaceOnUse"><g class="cls-3"><path class="cls-4" d="M67.64,49A28.21,28.21,0,1,1,39.43,20.82,28.21,28.21,0,0,1,67.64,49Z"/></g></mask><radialGradient id="Безымянный_градиент_9-2" cx="39.43" cy="49.03" r="28.21" xlink:href="#Безымянный_градиент_9"/><filter id="luminosity-noclip-6" x="18.52" y="28.12" width="41.83" height="41.83" filterUnits="userSpaceOnUse" color-interpolation-filters="sRGB"><feFlood flood-color="#fff" result="bg"/><feBlend in="SourceGraphic" in2="bg"/></filter><mask id="mask-6" x="18.52" y="28.12" width="41.83" height="41.83" maskUnits="userSpaceOnUse"><g class="cls-5"><path class="cls-6" d="M60.35,49A20.92,20.92,0,1,1,39.43,28.12,20.92,20.92,0,0,1,60.35,49Z"/></g></mask><radialGradient id="Безымянный_градиент_9-3" cx="39.43" cy="49.03" r="20.91" xlink:href="#Безымянный_градиент_9"/></defs><title>kabinka</title><g class="cls-7"><g id="Слой_2" data-name="Слой 2"><g id="Layer_1" data-name="Layer 1"><polygon class="cls-8" points="26.93 18.38 32.1 22.09 45.61 3.77 40.35 0 26.93 18.38"/><path class="cls-9" d="M48.12,78.34A6.83,6.83,0,0,0,55,71.5V42.62a6.83,6.83,0,0,0-6.83-6.83H26.59a6.82,6.82,0,0,0-6.82,6.83V71.5a6.83,6.83,0,0,0,6.82,6.84Z"/><path class="cls-10" d="M37.36,14.63V11.34a13.86,13.86,0,0,1,0,27.72v-3.3a10.57,10.57,0,0,0,0-21.13Z"/><rect class="cls-11" x="19.77" y="45.34" width="35.18" height="18.92"/><rect class="cls-12" x="29.31" y="45.34" width="16.1" height="18.92"/><g class="cls-13"><path class="cls-14" d="M78.86,49A39.43,39.43,0,1,1,39.43,9.6,39.43,39.43,0,0,1,78.86,49Z"/></g><g class="cls-15"><path class="cls-16" d="M67.64,49A28.21,28.21,0,1,1,39.43,20.82,28.21,28.21,0,0,1,67.64,49Z"/></g><g class="cls-17"><path class="cls-18" d="M60.35,49A20.92,20.92,0,1,1,39.43,28.12,20.92,20.92,0,0,1,60.35,49Z"/></g></g></g></g></svg>