<svg xmlns="http://www.w3.org/2000/svg" viewBox="0 0 138.89 318.03"><defs><style>.cls-1{fill:#ffa685;}.cls-10,.cls-18,.cls-19,.cls-2,.cls-3,.cls-4{fill:none;stroke-miterlimit:10;}.cls-10,.cls-2,.cls-3{stroke:#0e0f2d;}.cls-10,.cls-18,.cls-19,.cls-2{stroke-linecap:round;}.cls-18,.cls-19,.cls-2,.cls-3,.cls-4{stroke-width:11.94px;}.cls-4{stroke:#ece6e1;}.cls-5{fill:#6b9c38;}.cls-6{fill:#2e2b33;}.cls-7{fill:#0e0f2d;}.cls-8{fill:#ece6e1;}.cls-9{fill:#d8d0bc;}.cls-10{stroke-width:1.71px;}.cls-11{fill:#f7f3e8;}.cls-12{fill:#cc982a;}.cls-13{fill:#b8840c;}.cls-14{fill:#51a8b7;}.cls-15{fill:#85d1d4;}.cls-16{fill:#eaab57;}.cls-17{fill:#929497;}.cls-18{stroke:#f1f1f2;}.cls-19{stroke:#2e2b33;}</style></defs><title>one_man_binokl</title><g id="Слой_2" data-name="Слой 2"><g id="Layer_1" data-name="Layer 1"><path class="cls-1" d="M58.56,28.8a5.54,5.54,0,0,0-.39-.87,5.65,5.65,0,0,0-7.69-2.18,15.47,15.47,0,0,0-7.54,15.4A5.65,5.65,0,0,0,54.17,39.9,4.36,4.36,0,0,1,56,35.62,5.65,5.65,0,0,0,58.56,28.8Z"/><path class="cls-2" d="M48.43,67.2,48.58,89a10.52,10.52,0,0,0,1.36,5.13h0a10.55,10.55,0,0,0,18,.61L80.6,75.53"/><line class="cls-3" x1="48.61" y1="49.26" x2="48.43" y2="67.2"/><line class="cls-4" x1="48.68" y1="42.02" x2="48.61" y2="49.26"/><path class="cls-5" d="M87.76,290.89l.21,16a5,5,0,0,0,10-.13l-.21-16Z"/><path class="cls-6" d="M99.87,299.74,98.05,160.6a7.53,7.53,0,0,0-15,.2l1.82,139Z"/><path class="cls-7" d="M108.26,148.66C94.89,148.66,84,160.78,84,175.73v5.53h48.45v-5.53C132.49,160.78,121.65,148.66,108.26,148.66Z"/><path class="cls-5" d="M124.84,292.16l.86,16.15a5.08,5.08,0,0,0,10.12-.58L135,291.64Z"/><path class="cls-6" d="M137.14,298.69c-2.45-47.23-4.09-90.85-5.19-138.18-.08-3.83-3.5-6.85-7.65-6.78a7.23,7.23,0,0,0-7.36,7.11c1.1,47.32,2.73,90.85,5.18,138.17Z"/><path class="cls-7" d="M75.67,309.58A5.1,5.1,0,0,0,80.74,305v-.83a3,3,0,0,1,3-3h1.81a2.13,2.13,0,0,1,2.13,2.13v.58a3.61,3.61,0,0,0,3.59,3.41h5.12a3.29,3.29,0,0,1,3.29,3.29V318H62.85v-1.94a6.51,6.51,0,0,1,6.52-6.51Z"/><path class="cls-6" d="M113,309.52a5.13,5.13,0,0,0,5.09-4.58v-.83a3.06,3.06,0,0,1,3-3.05h3.47a2.15,2.15,0,0,1,2.15,2.15v.58a3.64,3.64,0,0,0,3.61,3.44h5.16a3.31,3.31,0,0,1,3.31,3.31V318h-33.8v-2a6.55,6.55,0,0,1,6.55-6.55Z"/><path class="cls-8" d="M101.75,61.71,97,66.63a122,122,0,0,0-18.8,3.26l1.91,27.74v71.23H136V97.63l1.38-19.95a9.07,9.07,0,0,0-7.4-9.54,123.56,123.56,0,0,0-21.92-2Z"/><path class="cls-9" d="M96.92,66.64V80.36l-8.1-10-.24-2.68C91.35,67.27,94.14,66.9,96.92,66.64Z"/><path class="cls-1" d="M108.06,39.25a6.32,6.32,0,0,1,6.31,6.31V66.68L104.32,73l-2.57-6.31V45.56A6.31,6.31,0,0,1,108.06,39.25Z"/><path class="cls-1" d="M84.32,14.77V41.22a24.83,24.83,0,0,0,8.1,16.23c.68.14,10.82,0,11,0a20.3,20.3,0,0,0,20.3-20.31V14.77Z"/><path class="cls-1" d="M125.79,30.14a5.67,5.67,0,1,1,0,11.33h-9.21l.33-11.33Z"/><path class="cls-7" d="M78.47,0h32.61A16.07,16.07,0,0,1,124,6.46a6.24,6.24,0,0,1,5-2.54,6.31,6.31,0,0,1,1.91.3L129.11,6a8,8,0,0,0-2,4.91v3.42a.57.57,0,0,0,0,.13V30.19h-2.25v4a3.38,3.38,0,1,1-6.75,0V31.8a5.43,5.43,0,0,0-5.33-4.48V20.65a5.42,5.42,0,0,0-5.34-4.46v0H84.31a7.18,7.18,0,0,1-7.14-6.47h5.89A16,16,0,0,1,78.47,0Z"/><path class="cls-7" d="M89.29,28.23a1.36,1.36,0,1,0,1.36-1.36A1.35,1.35,0,0,0,89.29,28.23Z"/><path class="cls-10" d="M102.67,28.93a2.56,2.56,0,0,1,4.71-.06"/><path class="cls-11" d="M105.34,42A6.67,6.67,0,0,1,92,42Z"/><path class="cls-12" d="M86,24.05h3.26a4.42,4.42,0,1,1,0,8.83H86Z"/><path class="cls-13" d="M86.54,24.05H88.9a6.83,6.83,0,0,1,0,8.83H86.54a5.25,5.25,0,0,0,0-8.83Z"/><path class="cls-12" d="M83.47,22.83a5.64,5.64,0,1,1,0,11.27H65.7V24.51h0V22.83Z"/><path class="cls-13" d="M66.87,28.47c0-2.29.49-4.32-1.17-5.64h2.39a8.84,8.84,0,0,1,0,11.27H65.7C67.36,32.79,66.87,30.75,66.87,28.47Z"/><path class="cls-12" d="M36.09,20.22H60.38a8.25,8.25,0,0,1,0,16.49H36.09Z"/><path class="cls-13" d="M45,28.47a9.71,9.71,0,0,0-4.6-8.25h3.1a11.62,11.62,0,0,1,0,16.49h-3.1A9.68,9.68,0,0,0,45,28.47Z"/><path class="cls-12" d="M33.56,17a11.47,11.47,0,0,1,0,22.93H11.4V17Z"/><path class="cls-13" d="M1.14,28.47A10.32,10.32,0,1,1,11.46,38.79,10.33,10.33,0,0,1,1.14,28.47Z"/><path class="cls-14" d="M4.21,28.47a9.11,9.11,0,1,1,9.11,9.11A9.11,9.11,0,0,1,4.21,28.47Z"/><path class="cls-15" d="M9.49,28.47A6.47,6.47,0,1,1,16,34.94,6.48,6.48,0,0,1,9.49,28.47Z"/><path class="cls-16" d="M11.46,39.93A11.47,11.47,0,1,1,22.92,28.47,11.48,11.48,0,0,1,11.46,39.93Zm0-20.65a9.19,9.19,0,1,0,9.18,9.19,9.2,9.2,0,0,0-9.18-9.19Z"/><polygon class="cls-8" points="111.44 80.36 120.03 66.66 114.72 61.71 104.31 72.99 111.44 80.36"/><polygon class="cls-9" points="111.44 80.36 104.21 73.12 96.97 80.36 111.44 80.36"/><path class="cls-6" d="M120,66.73,96.92,103.61v-37A120.81,120.81,0,0,0,78.2,69.89l.16,27.74v76.29h59.38L136,141.86l1.75-44.23.13-20.43a9.06,9.06,0,0,0-7.37-9C127,67.59,123.5,67.08,120,66.73Z"/><path class="cls-7" d="M78.2,70.69a24.3,24.3,0,0,0,18.72,15.4v15.68c-.4,0-.8.06-1.21.06a29.4,29.4,0,0,1-17.36-5.69Z"/><path class="cls-7" d="M108.35,85.34c.7-.22,1.38-.45,2.06-.73L129,77h0a20.29,20.29,0,0,1-12.56,18.75l-9.39,3.85a30,30,0,0,1-8.94,2.14Z"/><path class="cls-17" d="M100.28,111.62a2.17,2.17,0,1,1-2.17-2.17A2.17,2.17,0,0,1,100.28,111.62Z"/><path class="cls-17" d="M100.28,128.57a2.17,2.17,0,1,1-2.17-2.17A2.17,2.17,0,0,1,100.28,128.57Z"/><polygon class="cls-5" points="100 81.92 96.97 92.15 96.92 103.61 103.81 92.6 102.79 82 108.66 77.48 104.31 73.5 99.97 77.47 100 81.92"/><path class="cls-7" d="M134.75,146.44a3.9,3.9,0,0,1-3.9,3.9H116a3.9,3.9,0,0,1-3.9-3.9h0a3.9,3.9,0,0,1,3.9-3.9h14.82a3.9,3.9,0,0,1,3.9,3.9Z"/><path class="cls-6" d="M134.75,142.54a3.9,3.9,0,0,1-3.9,3.9H116a3.9,3.9,0,0,1-3.9-3.9h0a3.89,3.89,0,0,1,3.9-3.9h14.82a3.89,3.89,0,0,1,3.9,3.9Z"/><polygon class="cls-7" points="96.6 174.35 106.9 174.35 96.6 144.49 96.6 174.35"/><path class="cls-1" d="M59.79,23.68a5.54,5.54,0,0,1,.39-.87,5.65,5.65,0,0,1,7.7-2.17A15.46,15.46,0,0,1,75.41,36a5.65,5.65,0,0,1-11.23-1.25,4.37,4.37,0,0,0-1.81-4.27A5.66,5.66,0,0,1,59.79,23.68Z"/><line class="cls-18" x1="71.59" y1="41.87" x2="70.78" y2="38.71"/><path class="cls-19" d="M131.56,74.75,101.87,87a16,16,0,0,1-19.13-5.56,15.67,15.67,0,0,1-2.41-5.27L72.07,43.47"/></g></g></svg>