<svg xmlns="http://www.w3.org/2000/svg" viewBox="0 0 52.74 52.74"><defs><style>.cls-1{fill:#fff;}</style></defs><title>play_button_advisor</title><g id="Слой_2" data-name="Слой 2"><g id="Layer_1" data-name="Layer 1"><path class="cls-1" d="M40.05,25.64,20.71,12.46a.86.86,0,0,0-.9-.05.87.87,0,0,0-.47.77V39.55a.87.87,0,0,0,.47.78.85.85,0,0,0,.4.1.89.89,0,0,0,.5-.15L40.05,27.09a.86.86,0,0,0,.38-.72.89.89,0,0,0-.38-.73Zm-19,12.25v-23L38,26.37Z"/><path class="cls-1" d="M26.37,0A26.37,26.37,0,1,0,52.74,26.37,26.4,26.4,0,0,0,26.37,0Zm0,51A24.61,24.61,0,1,1,51,26.37,24.64,24.64,0,0,1,26.37,51Z"/></g></g></svg>