<svg xmlns="http://www.w3.org/2000/svg" xmlns:xlink="http://www.w3.org/1999/xlink" viewBox="0 0 1921.13 451.47"><defs><style>.cls-1{isolation:isolate;}.cls-2{opacity:0.8;}.cls-10,.cls-100,.cls-101,.cls-102,.cls-103,.cls-104,.cls-105,.cls-106,.cls-107,.cls-108,.cls-109,.cls-11,.cls-110,.cls-111,.cls-112,.cls-113,.cls-114,.cls-115,.cls-116,.cls-117,.cls-118,.cls-119,.cls-12,.cls-120,.cls-121,.cls-122,.cls-123,.cls-124,.cls-125,.cls-126,.cls-127,.cls-128,.cls-129,.cls-13,.cls-130,.cls-131,.cls-132,.cls-133,.cls-134,.cls-135,.cls-136,.cls-137,.cls-138,.cls-139,.cls-14,.cls-140,.cls-141,.cls-142,.cls-143,.cls-144,.cls-145,.cls-146,.cls-147,.cls-148,.cls-149,.cls-15,.cls-150,.cls-151,.cls-152,.cls-153,.cls-154,.cls-155,.cls-156,.cls-157,.cls-158,.cls-159,.cls-16,.cls-160,.cls-161,.cls-162,.cls-163,.cls-164,.cls-165,.cls-166,.cls-167,.cls-168,.cls-169,.cls-17,.cls-170,.cls-171,.cls-172,.cls-18,.cls-19,.cls-20,.cls-21,.cls-22,.cls-23,.cls-24,.cls-25,.cls-26,.cls-27,.cls-28,.cls-29,.cls-3,.cls-30,.cls-31,.cls-32,.cls-33,.cls-34,.cls-35,.cls-36,.cls-37,.cls-38,.cls-39,.cls-4,.cls-40,.cls-41,.cls-42,.cls-43,.cls-44,.cls-45,.cls-46,.cls-47,.cls-48,.cls-49,.cls-5,.cls-50,.cls-51,.cls-52,.cls-53,.cls-54,.cls-55,.cls-56,.cls-57,.cls-58,.cls-59,.cls-6,.cls-60,.cls-61,.cls-62,.cls-63,.cls-64,.cls-65,.cls-66,.cls-67,.cls-68,.cls-69,.cls-7,.cls-70,.cls-71,.cls-72,.cls-73,.cls-74,.cls-75,.cls-76,.cls-77,.cls-78,.cls-79,.cls-8,.cls-80,.cls-81,.cls-82,.cls-83,.cls-84,.cls-85,.cls-86,.cls-87,.cls-88,.cls-89,.cls-9,.cls-90,.cls-91,.cls-92,.cls-93,.cls-94,.cls-95,.cls-96,.cls-97,.cls-98,.cls-99{mix-blend-mode:screen;}.cls-3{fill:url(#Безымянный_градиент_13);}.cls-4{fill:url(#Безымянный_градиент_13-2);}.cls-5{fill:url(#Безымянный_градиент_13-3);}.cls-6{fill:url(#Безымянный_градиент_13-4);}.cls-7{fill:url(#Безымянный_градиент_13-5);}.cls-8{fill:url(#Безымянный_градиент_13-6);}.cls-9{fill:url(#Безымянный_градиент_13-7);}.cls-10{fill:url(#Безымянный_градиент_13-8);}.cls-11{fill:url(#Безымянный_градиент_13-9);}.cls-12{fill:url(#Безымянный_градиент_13-10);}.cls-100,.cls-101,.cls-127,.cls-13,.cls-140,.cls-142,.cls-143,.cls-15,.cls-16,.cls-169,.cls-42,.cls-55,.cls-57,.cls-58,.cls-84,.cls-98{opacity:0.5;}.cls-13{fill:url(#Безымянный_градиент_13-11);}.cls-14{fill:url(#Безымянный_градиент_13-12);}.cls-15{fill:url(#Безымянный_градиент_13-13);}.cls-16{fill:url(#Безымянный_градиент_13-14);}.cls-17{fill:url(#Безымянный_градиент_13-15);}.cls-18{fill:url(#Безымянный_градиент_13-16);}.cls-19{fill:url(#Безымянный_градиент_13-17);}.cls-20{fill:url(#Безымянный_градиент_13-18);}.cls-106,.cls-125,.cls-148,.cls-167,.cls-21,.cls-40,.cls-63,.cls-82{opacity:0.6;}.cls-21{fill:url(#Безымянный_градиент_13-19);}.cls-22{fill:url(#Безымянный_градиент_13-20);}.cls-23{fill:url(#Безымянный_градиент_13-21);}.cls-24{fill:url(#Безымянный_градиент_13-22);}.cls-25{fill:url(#Безымянный_градиент_13-23);}.cls-26{fill:url(#Безымянный_градиент_13-24);}.cls-27{fill:url(#Безымянный_градиент_13-25);}.cls-113,.cls-155,.cls-28,.cls-70{opacity:0.4;}.cls-28{fill:url(#Безымянный_градиент_13-26);}.cls-29{fill:url(#Безымянный_градиент_13-27);}.cls-30{fill:url(#Безымянный_градиент_13-28);}.cls-31{fill:url(#Безымянный_градиент_13-29);}.cls-32{fill:url(#Безымянный_градиент_13-30);}.cls-33{fill:url(#Безымянный_градиент_13-31);}.cls-34{fill:url(#Безымянный_градиент_13-32);}.cls-35{fill:url(#Безымянный_градиент_13-33);}.cls-36{fill:url(#Безымянный_градиент_13-34);}.cls-37{fill:url(#Безымянный_градиент_13-35);}.cls-38{fill:url(#Безымянный_градиент_13-36);}.cls-39{fill:url(#Безымянный_градиент_13-37);}.cls-40{fill:url(#Безымянный_градиент_13-38);}.cls-126,.cls-168,.cls-41,.cls-83{opacity:0.7;}.cls-41{fill:url(#Безымянный_градиент_13-39);}.cls-42{fill:url(#Безымянный_градиент_13-40);}.cls-43{fill:url(#Безымянный_градиент_13-41);}.cls-44{fill:url(#Безымянный_градиент_13-42);}.cls-45{fill:url(#Безымянный_градиент_13-43);}.cls-46{fill:url(#Безымянный_градиент_13-44);}.cls-47{fill:url(#Безымянный_градиент_13-45);}.cls-48{fill:url(#Безымянный_градиент_13-46);}.cls-49{fill:url(#Безымянный_градиент_13-47);}.cls-50{fill:url(#Безымянный_градиент_13-48);}.cls-51{fill:url(#Безымянный_градиент_13-49);}.cls-52{fill:url(#Безымянный_градиент_13-50);}.cls-53{fill:url(#Безымянный_градиент_13-51);}.cls-54{fill:url(#Безымянный_градиент_13-52);}.cls-55{fill:url(#Безымянный_градиент_13-53);}.cls-56{fill:url(#Безымянный_градиент_13-54);}.cls-57{fill:url(#Безымянный_градиент_13-55);}.cls-58{fill:url(#Безымянный_градиент_13-56);}.cls-59{fill:url(#Безымянный_градиент_13-57);}.cls-60{fill:url(#Безымянный_градиент_13-58);}.cls-61{fill:url(#Безымянный_градиент_13-59);}.cls-62{fill:url(#Безымянный_градиент_13-60);}.cls-63{fill:url(#Безымянный_градиент_13-61);}.cls-64{fill:url(#Безымянный_градиент_13-62);}.cls-65{fill:url(#Безымянный_градиент_13-63);}.cls-66{fill:url(#Безымянный_градиент_13-64);}.cls-67{fill:url(#Безымянный_градиент_13-65);}.cls-68{fill:url(#Безымянный_градиент_13-66);}.cls-69{fill:url(#Безымянный_градиент_13-67);}.cls-70{fill:url(#Безымянный_градиент_13-68);}.cls-71{fill:url(#Безымянный_градиент_13-69);}.cls-72{fill:url(#Безымянный_градиент_13-70);}.cls-73{fill:url(#Безымянный_градиент_13-71);}.cls-74{fill:url(#Безымянный_градиент_13-72);}.cls-75{fill:url(#Безымянный_градиент_13-73);}.cls-76{fill:url(#Безымянный_градиент_13-74);}.cls-77{fill:url(#Безымянный_градиент_13-75);}.cls-78{fill:url(#Безымянный_градиент_13-76);}.cls-79{fill:url(#Безымянный_градиент_13-77);}.cls-80{fill:url(#Безымянный_градиент_13-78);}.cls-81{fill:url(#Безымянный_градиент_13-79);}.cls-82{fill:url(#Безымянный_градиент_13-80);}.cls-83{fill:url(#Безымянный_градиент_13-81);}.cls-84{fill:url(#Безымянный_градиент_13-82);}.cls-85{fill:url(#Безымянный_градиент_13-83);}.cls-86{fill:url(#Безымянный_градиент_13-84);}.cls-87{fill:url(#Безымянный_градиент_13-85);}.cls-88{fill:url(#Безымянный_градиент_13-86);}.cls-89{fill:url(#Безымянный_градиент_13-87);}.cls-90{fill:url(#Безымянный_градиент_13-88);}.cls-91{fill:url(#Безымянный_градиент_13-89);}.cls-92{fill:url(#Безымянный_градиент_13-90);}.cls-93{fill:url(#Безымянный_градиент_13-91);}.cls-94{fill:url(#Безымянный_градиент_13-92);}.cls-95{fill:url(#Безымянный_градиент_13-93);}.cls-96{fill:url(#Безымянный_градиент_13-94);}.cls-97{fill:url(#Безымянный_градиент_13-95);}.cls-98{fill:url(#Безымянный_градиент_13-96);}.cls-99{fill:url(#Безымянный_градиент_13-97);}.cls-100{fill:url(#Безымянный_градиент_13-98);}.cls-101{fill:url(#Безымянный_градиент_13-99);}.cls-102{fill:url(#Безымянный_градиент_13-100);}.cls-103{fill:url(#Безымянный_градиент_13-101);}.cls-104{fill:url(#Безымянный_градиент_13-102);}.cls-105{fill:url(#Безымянный_градиент_13-103);}.cls-106{fill:url(#Безымянный_градиент_13-104);}.cls-107{fill:url(#Безымянный_градиент_13-105);}.cls-108{fill:url(#Безымянный_градиент_13-106);}.cls-109{fill:url(#Безымянный_градиент_13-107);}.cls-110{fill:url(#Безымянный_градиент_13-108);}.cls-111{fill:url(#Безымянный_градиент_13-109);}.cls-112{fill:url(#Безымянный_градиент_13-110);}.cls-113{fill:url(#Безымянный_градиент_13-111);}.cls-114{fill:url(#Безымянный_градиент_13-112);}.cls-115{fill:url(#Безымянный_градиент_13-113);}.cls-116{fill:url(#Безымянный_градиент_13-114);}.cls-117{fill:url(#Безымянный_градиент_13-115);}.cls-118{fill:url(#Безымянный_градиент_13-116);}.cls-119{fill:url(#Безымянный_градиент_13-117);}.cls-120{fill:url(#Безымянный_градиент_13-118);}.cls-121{fill:url(#Безымянный_градиент_13-119);}.cls-122{fill:url(#Безымянный_градиент_13-120);}.cls-123{fill:url(#Безымянный_градиент_13-121);}.cls-124{fill:url(#Безымянный_градиент_13-122);}.cls-125{fill:url(#Безымянный_градиент_13-123);}.cls-126{fill:url(#Безымянный_градиент_13-124);}.cls-127{fill:url(#Безымянный_градиент_13-125);}.cls-128{fill:url(#Безымянный_градиент_13-126);}.cls-129{fill:url(#Безымянный_градиент_13-127);}.cls-130{fill:url(#Безымянный_градиент_13-128);}.cls-131{fill:url(#Безымянный_градиент_13-129);}.cls-132{fill:url(#Безымянный_градиент_13-130);}.cls-133{fill:url(#Безымянный_градиент_13-131);}.cls-134{fill:url(#Безымянный_градиент_13-132);}.cls-135{fill:url(#Безымянный_градиент_13-133);}.cls-136{fill:url(#Безымянный_градиент_13-134);}.cls-137{fill:url(#Безымянный_градиент_13-135);}.cls-138{fill:url(#Безымянный_градиент_13-136);}.cls-139{fill:url(#Безымянный_градиент_13-137);}.cls-140{fill:url(#Безымянный_градиент_13-138);}.cls-141{fill:url(#Безымянный_градиент_13-139);}.cls-142{fill:url(#Безымянный_градиент_13-140);}.cls-143{fill:url(#Безымянный_градиент_13-141);}.cls-144{fill:url(#Безымянный_градиент_13-142);}.cls-145{fill:url(#Безымянный_градиент_13-143);}.cls-146{fill:url(#Безымянный_градиент_13-144);}.cls-147{fill:url(#Безымянный_градиент_13-145);}.cls-148{fill:url(#Безымянный_градиент_13-146);}.cls-149{fill:url(#Безымянный_градиент_13-147);}.cls-150{fill:url(#Безымянный_градиент_13-148);}.cls-151{fill:url(#Безымянный_градиент_13-149);}.cls-152{fill:url(#Безымянный_градиент_13-150);}.cls-153{fill:url(#Безымянный_градиент_13-151);}.cls-154{fill:url(#Безымянный_градиент_13-152);}.cls-155{fill:url(#Безымянный_градиент_13-153);}.cls-156{fill:url(#Безымянный_градиент_13-154);}.cls-157{fill:url(#Безымянный_градиент_13-155);}.cls-158{fill:url(#Безымянный_градиент_13-156);}.cls-159{fill:url(#Безымянный_градиент_13-157);}.cls-160{fill:url(#Безымянный_градиент_13-158);}.cls-161{fill:url(#Безымянный_градиент_13-159);}.cls-162{fill:url(#Безымянный_градиент_13-160);}.cls-163{fill:url(#Безымянный_градиент_13-161);}.cls-164{fill:url(#Безымянный_градиент_13-162);}.cls-165{fill:url(#Безымянный_градиент_13-163);}.cls-166{fill:url(#Безымянный_градиент_13-164);}.cls-167{fill:url(#Безымянный_градиент_13-165);}.cls-168{fill:url(#Безымянный_градиент_13-166);}.cls-169{fill:url(#Безымянный_градиент_13-167);}.cls-170{fill:url(#Безымянный_градиент_13-168);}.cls-171{fill:url(#Безымянный_градиент_13-169);}.cls-172{fill:url(#Безымянный_градиент_13-170);}</style><radialGradient id="Безымянный_градиент_13" cx="425.25" cy="133.94" r="5.59" gradientUnits="userSpaceOnUse"><stop offset="0" stop-color="#fff"/><stop offset="0.04" stop-color="#fff" stop-opacity="0.94"/><stop offset="0.19" stop-color="#fff" stop-opacity="0.69"/><stop offset="0.35" stop-color="#fff" stop-opacity="0.48"/><stop offset="0.5" stop-color="#fff" stop-opacity="0.31"/><stop offset="0.64" stop-color="#fff" stop-opacity="0.17"/><stop offset="0.77" stop-color="#fff" stop-opacity="0.08"/><stop offset="0.9" stop-color="#fff" stop-opacity="0.02"/><stop offset="1" stop-color="#fff" stop-opacity="0"/></radialGradient><radialGradient id="Безымянный_градиент_13-2" cx="392.03" cy="29.57" r="3.5" xlink:href="#Безымянный_градиент_13"/><radialGradient id="Безымянный_градиент_13-3" cx="367.15" cy="71.53" r="1.94" xlink:href="#Безымянный_градиент_13"/><radialGradient id="Безымянный_градиент_13-4" cx="465.34" cy="170.16" r="1.94" xlink:href="#Безымянный_градиент_13"/><radialGradient id="Безымянный_градиент_13-5" cx="293.05" cy="354.25" r="1.94" xlink:href="#Безымянный_градиент_13"/><radialGradient id="Безымянный_градиент_13-6" cx="139.38" cy="287.81" r="1.94" xlink:href="#Безымянный_градиент_13"/><radialGradient id="Безымянный_градиент_13-7" cx="200.57" cy="-16.57" r="1.94" gradientTransform="translate(15.42 80.95) rotate(1.49)" xlink:href="#Безымянный_градиент_13"/><radialGradient id="Безымянный_градиент_13-8" cx="296.84" cy="-78.88" r="1.94" gradientTransform="translate(15.42 80.95) rotate(1.49)" xlink:href="#Безымянный_градиент_13"/><radialGradient id="Безымянный_градиент_13-9" cx="3.2" cy="-79.12" r="1.94" gradientTransform="translate(15.42 80.95) rotate(1.49)" xlink:href="#Безымянный_градиент_13"/><radialGradient id="Безымянный_градиент_13-10" cx="70.18" cy="-71.05" r="1.94" gradientTransform="translate(15.42 80.95) rotate(1.49)" xlink:href="#Безымянный_градиент_13"/><radialGradient id="Безымянный_градиент_13-11" cx="16.14" cy="-26.17" r="1.94" gradientTransform="translate(15.42 80.95) rotate(1.49)" xlink:href="#Безымянный_градиент_13"/><radialGradient id="Безымянный_градиент_13-12" cx="51.25" cy="-36.1" r="1.94" gradientTransform="translate(15.42 80.95) rotate(1.49)" xlink:href="#Безымянный_градиент_13"/><radialGradient id="Безымянный_градиент_13-13" cx="37.29" cy="-8.45" r="1.94" gradientTransform="translate(15.42 80.95) rotate(1.49)" xlink:href="#Безымянный_градиент_13"/><radialGradient id="Безымянный_градиент_13-14" cx="14.96" cy="3.16" r="1.94" gradientTransform="translate(15.42 80.95) rotate(1.49)" xlink:href="#Безымянный_градиент_13"/><radialGradient id="Безымянный_градиент_13-15" cx="167.46" cy="82.95" r="1.94" gradientTransform="translate(15.42 80.95) rotate(1.49)" xlink:href="#Безымянный_градиент_13"/><radialGradient id="Безымянный_градиент_13-16" cx="178.63" cy="92.58" r="1.94" gradientTransform="translate(15.42 80.95) rotate(1.49)" xlink:href="#Безымянный_градиент_13"/><radialGradient id="Безымянный_градиент_13-17" cx="193.76" cy="78.77" r="1.94" gradientTransform="translate(15.42 80.95) rotate(1.49)" xlink:href="#Безымянный_градиент_13"/><radialGradient id="Безымянный_градиент_13-18" cx="383.39" cy="-42.8" r="1.94" gradientTransform="translate(15.42 80.95) rotate(1.49)" xlink:href="#Безымянный_градиент_13"/><radialGradient id="Безымянный_градиент_13-19" cx="394.56" cy="-33.18" r="1.94" gradientTransform="translate(15.42 80.95) rotate(1.49)" xlink:href="#Безымянный_градиент_13"/><radialGradient id="Безымянный_градиент_13-20" cx="409.69" cy="-46.98" r="1.94" gradientTransform="translate(15.42 80.95) rotate(1.49)" xlink:href="#Безымянный_градиент_13"/><radialGradient id="Безымянный_градиент_13-21" cx="153.11" cy="103.25" r="1.94" gradientTransform="translate(15.42 80.95) rotate(1.49)" xlink:href="#Безымянный_градиент_13"/><radialGradient id="Безымянный_градиент_13-22" cx="469.64" cy="24.14" r="1.94" xlink:href="#Безымянный_градиент_13"/><radialGradient id="Безымянный_градиент_13-23" cx="296.93" cy="80.62" r="1.94" xlink:href="#Безымянный_градиент_13"/><radialGradient id="Безымянный_градиент_13-24" cx="151.48" cy="33.07" r="1.94" xlink:href="#Безымянный_градиент_13"/><radialGradient id="Безымянный_градиент_13-25" cx="115.88" cy="99.66" r="1.94" xlink:href="#Безымянный_градиент_13"/><radialGradient id="Безымянный_градиент_13-26" cx="168.51" cy="53.27" r="1.94" xlink:href="#Безымянный_градиент_13"/><radialGradient id="Безымянный_градиент_13-27" cx="275.76" cy="152.94" r="1.94" xlink:href="#Безымянный_градиент_13"/><radialGradient id="Безымянный_градиент_13-28" cx="289.18" cy="244.09" r="1.94" xlink:href="#Безымянный_градиент_13"/><radialGradient id="Безымянный_градиент_13-29" cx="467.71" cy="242.16" r="1.94" xlink:href="#Безымянный_градиент_13"/><radialGradient id="Безымянный_градиент_13-30" cx="410.72" cy="230.78" r="1.94" xlink:href="#Безымянный_градиент_13"/><radialGradient id="Безымянный_градиент_13-31" cx="447.21" cy="338.51" r="1.94" xlink:href="#Безымянный_градиент_13"/><radialGradient id="Безымянный_градиент_13-32" cx="326.27" cy="449.54" r="1.94" xlink:href="#Безымянный_градиент_13"/><radialGradient id="Безымянный_градиент_13-33" cx="166.57" cy="415.44" r="1.94" xlink:href="#Безымянный_градиент_13"/><radialGradient id="Безымянный_градиент_13-34" cx="26.41" cy="336.57" r="1.94" xlink:href="#Безымянный_градиент_13"/><radialGradient id="Безымянный_градиент_13-35" cx="18.74" cy="240.22" r="1.94" xlink:href="#Безымянный_градиент_13"/><radialGradient id="Безымянный_градиент_13-36" cx="89.36" cy="238.28" r="1.94" xlink:href="#Безымянный_градиент_13"/><radialGradient id="Безымянный_градиент_13-37" cx="1.94" cy="78.68" r="1.94" xlink:href="#Безымянный_градиент_13"/><radialGradient id="Безымянный_градиент_13-38" cx="369.08" cy="117.86" r="1.94" xlink:href="#Безымянный_градиент_13"/><radialGradient id="Безымянный_градиент_13-39" cx="28.35" cy="162.79" r="1.94" xlink:href="#Безымянный_градиент_13"/><radialGradient id="Безымянный_градиент_13-40" cx="180.67" cy="105.09" r="3.5" xlink:href="#Безымянный_градиент_13"/><radialGradient id="Безымянный_градиент_13-41" cx="242.22" cy="29.57" r="3.5" xlink:href="#Безымянный_градиент_13"/><radialGradient id="Безымянный_градиент_13-42" cx="119.37" cy="162.79" r="3.5" xlink:href="#Безымянный_градиент_13"/><radialGradient id="Безымянный_градиент_13-43" cx="56.42" cy="121.36" r="3.5" xlink:href="#Безымянный_градиент_13"/><radialGradient id="Безымянный_градиент_13-44" cx="863.61" cy="29.57" r="3.5" xlink:href="#Безымянный_градиент_13"/><radialGradient id="Безымянный_градиент_13-45" cx="838.73" cy="71.53" r="1.94" xlink:href="#Безымянный_градиент_13"/><radialGradient id="Безымянный_градиент_13-46" cx="936.92" cy="170.16" r="1.94" xlink:href="#Безымянный_градиент_13"/><radialGradient id="Безымянный_градиент_13-47" cx="764.63" cy="354.25" r="1.94" xlink:href="#Безымянный_градиент_13"/><radialGradient id="Безымянный_градиент_13-48" cx="610.96" cy="287.81" r="1.94" xlink:href="#Безымянный_градиент_13"/><radialGradient id="Безымянный_градиент_13-49" cx="671.98" cy="-28.83" r="1.94" gradientTransform="translate(15.42 80.95) rotate(1.49)" xlink:href="#Безымянный_градиент_13"/><radialGradient id="Безымянный_градиент_13-50" cx="768.25" cy="-91.15" r="1.94" gradientTransform="translate(15.42 80.95) rotate(1.49)" xlink:href="#Безымянный_градиент_13"/><radialGradient id="Безымянный_градиент_13-51" cx="474.6" cy="-91.38" r="1.94" gradientTransform="translate(15.42 80.95) rotate(1.49)" xlink:href="#Безымянный_градиент_13"/><radialGradient id="Безымянный_градиент_13-52" cx="541.58" cy="-83.31" r="1.94" gradientTransform="translate(15.42 80.95) rotate(1.49)" xlink:href="#Безымянный_градиент_13"/><radialGradient id="Безымянный_градиент_13-53" cx="487.54" cy="-38.43" r="1.94" gradientTransform="translate(15.42 80.95) rotate(1.49)" xlink:href="#Безымянный_градиент_13"/><radialGradient id="Безымянный_градиент_13-54" cx="522.66" cy="-48.36" r="1.94" gradientTransform="translate(15.42 80.95) rotate(1.49)" xlink:href="#Безымянный_градиент_13"/><radialGradient id="Безымянный_градиент_13-55" cx="508.7" cy="-20.71" r="1.94" gradientTransform="translate(15.42 80.95) rotate(1.49)" xlink:href="#Безымянный_градиент_13"/><radialGradient id="Безымянный_градиент_13-56" cx="486.36" cy="-9.11" r="1.94" gradientTransform="translate(15.42 80.95) rotate(1.49)" xlink:href="#Безымянный_градиент_13"/><radialGradient id="Безымянный_градиент_13-57" cx="638.87" cy="70.69" r="1.94" gradientTransform="translate(15.42 80.95) rotate(1.49)" xlink:href="#Безымянный_градиент_13"/><radialGradient id="Безымянный_градиент_13-58" cx="650.03" cy="80.32" r="1.94" gradientTransform="translate(15.42 80.95) rotate(1.49)" xlink:href="#Безымянный_градиент_13"/><radialGradient id="Безымянный_градиент_13-59" cx="665.16" cy="66.51" r="1.94" gradientTransform="translate(15.42 80.95) rotate(1.49)" xlink:href="#Безымянный_градиент_13"/><radialGradient id="Безымянный_градиент_13-60" cx="854.8" cy="-55.06" r="1.94" gradientTransform="translate(15.42 80.95) rotate(1.49)" xlink:href="#Безымянный_градиент_13"/><radialGradient id="Безымянный_градиент_13-61" cx="865.96" cy="-45.44" r="1.94" gradientTransform="translate(15.42 80.95) rotate(1.49)" xlink:href="#Безымянный_градиент_13"/><radialGradient id="Безымянный_градиент_13-62" cx="881.09" cy="-59.24" r="1.94" gradientTransform="translate(15.42 80.95) rotate(1.49)" xlink:href="#Безымянный_градиент_13"/><radialGradient id="Безымянный_градиент_13-63" cx="624.51" cy="90.99" r="1.94" gradientTransform="translate(15.42 80.95) rotate(1.49)" xlink:href="#Безымянный_градиент_13"/><radialGradient id="Безымянный_градиент_13-64" cx="941.22" cy="24.14" r="1.94" xlink:href="#Безымянный_градиент_13"/><radialGradient id="Безымянный_градиент_13-65" cx="768.51" cy="80.62" r="1.94" xlink:href="#Безымянный_градиент_13"/><radialGradient id="Безымянный_градиент_13-66" cx="623.06" cy="33.07" r="1.94" xlink:href="#Безымянный_градиент_13"/><radialGradient id="Безымянный_градиент_13-67" cx="587.46" cy="99.66" r="1.94" xlink:href="#Безымянный_градиент_13"/><radialGradient id="Безымянный_градиент_13-68" cx="640.09" cy="53.27" r="1.94" xlink:href="#Безымянный_градиент_13"/><radialGradient id="Безымянный_градиент_13-69" cx="747.34" cy="152.94" r="1.94" xlink:href="#Безымянный_градиент_13"/><radialGradient id="Безымянный_градиент_13-70" cx="760.76" cy="244.09" r="1.94" xlink:href="#Безымянный_градиент_13"/><radialGradient id="Безымянный_градиент_13-71" cx="939.29" cy="242.16" r="1.94" xlink:href="#Безымянный_градиент_13"/><radialGradient id="Безымянный_градиент_13-72" cx="882.3" cy="230.78" r="1.94" xlink:href="#Безымянный_градиент_13"/><radialGradient id="Безымянный_градиент_13-73" cx="918.79" cy="338.51" r="1.94" xlink:href="#Безымянный_градиент_13"/><radialGradient id="Безымянный_градиент_13-74" cx="797.85" cy="449.54" r="1.94" xlink:href="#Безымянный_градиент_13"/><radialGradient id="Безымянный_градиент_13-75" cx="638.15" cy="415.44" r="1.94" xlink:href="#Безымянный_градиент_13"/><radialGradient id="Безымянный_градиент_13-76" cx="498" cy="336.57" r="1.94" xlink:href="#Безымянный_градиент_13"/><radialGradient id="Безымянный_градиент_13-77" cx="490.32" cy="240.22" r="1.94" xlink:href="#Безымянный_градиент_13"/><radialGradient id="Безымянный_градиент_13-78" cx="560.94" cy="238.28" r="1.94" xlink:href="#Безымянный_градиент_13"/><radialGradient id="Безымянный_градиент_13-79" cx="473.52" cy="78.68" r="1.94" xlink:href="#Безымянный_градиент_13"/><radialGradient id="Безымянный_градиент_13-80" cx="840.66" cy="117.86" r="1.94" xlink:href="#Безымянный_градиент_13"/><radialGradient id="Безымянный_градиент_13-81" cx="499.93" cy="162.79" r="1.94" xlink:href="#Безымянный_градиент_13"/><radialGradient id="Безымянный_градиент_13-82" cx="652.25" cy="105.09" r="3.5" xlink:href="#Безымянный_градиент_13"/><radialGradient id="Безымянный_градиент_13-83" cx="713.8" cy="29.57" r="3.5" xlink:href="#Безымянный_градиент_13"/><radialGradient id="Безымянный_градиент_13-84" cx="590.95" cy="162.79" r="3.5" xlink:href="#Безымянный_градиент_13"/><radialGradient id="Безымянный_градиент_13-85" cx="528" cy="121.36" r="3.5" xlink:href="#Безымянный_градиент_13"/><radialGradient id="Безымянный_градиент_13-86" cx="1403.22" cy="133.94" r="5.59" xlink:href="#Безымянный_градиент_13"/><radialGradient id="Безымянный_градиент_13-87" cx="1369.99" cy="29.57" r="3.5" xlink:href="#Безымянный_градиент_13"/><radialGradient id="Безымянный_градиент_13-88" cx="1345.11" cy="71.53" r="1.94" xlink:href="#Безымянный_градиент_13"/><radialGradient id="Безымянный_градиент_13-89" cx="1443.3" cy="170.16" r="1.94" xlink:href="#Безымянный_градиент_13"/><radialGradient id="Безымянный_градиент_13-90" cx="1271.02" cy="354.25" r="1.94" xlink:href="#Безымянный_градиент_13"/><radialGradient id="Безымянный_градиент_13-91" cx="1117.35" cy="287.81" r="1.94" xlink:href="#Безымянный_градиент_13"/><radialGradient id="Безымянный_градиент_13-92" cx="1178.17" cy="-42" r="1.94" gradientTransform="translate(15.42 80.95) rotate(1.49)" xlink:href="#Безымянный_градиент_13"/><radialGradient id="Безымянный_градиент_13-93" cx="1274.44" cy="-104.31" r="1.94" gradientTransform="translate(15.42 80.95) rotate(1.49)" xlink:href="#Безымянный_градиент_13"/><radialGradient id="Безымянный_градиент_13-94" cx="980.8" cy="-104.54" r="1.94" gradientTransform="translate(15.42 80.95) rotate(1.49)" xlink:href="#Безымянный_градиент_13"/><radialGradient id="Безымянный_градиент_13-95" cx="1047.78" cy="-96.48" r="1.94" gradientTransform="translate(15.42 80.95) rotate(1.49)" xlink:href="#Безымянный_градиент_13"/><radialGradient id="Безымянный_градиент_13-96" cx="993.74" cy="-51.59" r="1.94" gradientTransform="translate(15.42 80.95) rotate(1.49)" xlink:href="#Безымянный_градиент_13"/><radialGradient id="Безымянный_градиент_13-97" cx="1028.85" cy="-61.53" r="1.94" gradientTransform="translate(15.42 80.95) rotate(1.49)" xlink:href="#Безымянный_градиент_13"/><radialGradient id="Безымянный_градиент_13-98" cx="1014.89" cy="-33.88" r="1.94" gradientTransform="translate(15.42 80.95) rotate(1.49)" xlink:href="#Безымянный_градиент_13"/><radialGradient id="Безымянный_градиент_13-99" cx="992.56" cy="-22.27" r="1.94" gradientTransform="translate(15.42 80.95) rotate(1.49)" xlink:href="#Безымянный_градиент_13"/><radialGradient id="Безымянный_градиент_13-100" cx="1145.06" cy="57.52" r="1.94" gradientTransform="translate(15.42 80.95) rotate(1.49)" xlink:href="#Безымянный_градиент_13"/><radialGradient id="Безымянный_градиент_13-101" cx="1156.23" cy="67.15" r="1.94" gradientTransform="translate(15.42 80.95) rotate(1.49)" xlink:href="#Безымянный_градиент_13"/><radialGradient id="Безымянный_градиент_13-102" cx="1171.36" cy="53.34" r="1.94" gradientTransform="translate(15.42 80.95) rotate(1.49)" xlink:href="#Безымянный_градиент_13"/><radialGradient id="Безымянный_градиент_13-103" cx="1360.99" cy="-68.23" r="1.94" gradientTransform="translate(15.42 80.95) rotate(1.49)" xlink:href="#Безымянный_градиент_13"/><radialGradient id="Безымянный_градиент_13-104" cx="1372.16" cy="-58.6" r="1.94" gradientTransform="translate(15.42 80.95) rotate(1.49)" xlink:href="#Безымянный_градиент_13"/><radialGradient id="Безымянный_градиент_13-105" cx="1387.29" cy="-72.41" r="1.94" gradientTransform="translate(15.42 80.95) rotate(1.49)" xlink:href="#Безымянный_градиент_13"/><radialGradient id="Безымянный_градиент_13-106" cx="1130.71" cy="77.82" r="1.94" gradientTransform="translate(15.42 80.95) rotate(1.49)" xlink:href="#Безымянный_градиент_13"/><radialGradient id="Безымянный_градиент_13-107" cx="1447.61" cy="24.14" r="1.94" xlink:href="#Безымянный_градиент_13"/><radialGradient id="Безымянный_градиент_13-108" cx="1274.89" cy="80.62" r="1.94" xlink:href="#Безымянный_градиент_13"/><radialGradient id="Безымянный_градиент_13-109" cx="1129.44" cy="33.07" r="1.94" xlink:href="#Безымянный_градиент_13"/><radialGradient id="Безымянный_градиент_13-110" cx="1093.84" cy="99.66" r="1.94" xlink:href="#Безымянный_градиент_13"/><radialGradient id="Безымянный_градиент_13-111" cx="1146.48" cy="53.27" r="1.94" xlink:href="#Безымянный_градиент_13"/><radialGradient id="Безымянный_градиент_13-112" cx="1253.72" cy="152.94" r="1.94" xlink:href="#Безымянный_градиент_13"/><radialGradient id="Безымянный_градиент_13-113" cx="1267.14" cy="244.09" r="1.94" xlink:href="#Безымянный_градиент_13"/><radialGradient id="Безымянный_градиент_13-114" cx="1445.67" cy="242.16" r="1.94" xlink:href="#Безымянный_градиент_13"/><radialGradient id="Безымянный_градиент_13-115" cx="1388.69" cy="230.78" r="1.94" xlink:href="#Безымянный_градиент_13"/><radialGradient id="Безымянный_градиент_13-116" cx="1425.18" cy="338.51" r="1.94" xlink:href="#Безымянный_градиент_13"/><radialGradient id="Безымянный_градиент_13-117" cx="1304.24" cy="449.54" r="1.94" xlink:href="#Безымянный_градиент_13"/><radialGradient id="Безымянный_градиент_13-118" cx="1144.54" cy="415.44" r="1.94" xlink:href="#Безымянный_градиент_13"/><radialGradient id="Безымянный_градиент_13-119" cx="1004.38" cy="336.57" r="1.94" xlink:href="#Безымянный_градиент_13"/><radialGradient id="Безымянный_градиент_13-120" cx="996.7" cy="240.22" r="1.94" xlink:href="#Безымянный_градиент_13"/><radialGradient id="Безымянный_градиент_13-121" cx="1067.33" cy="238.28" r="1.94" xlink:href="#Безымянный_градиент_13"/><radialGradient id="Безымянный_градиент_13-122" cx="979.9" cy="78.68" r="1.94" xlink:href="#Безымянный_градиент_13"/><radialGradient id="Безымянный_градиент_13-123" cx="1347.05" cy="117.86" r="1.94" xlink:href="#Безымянный_градиент_13"/><radialGradient id="Безымянный_градиент_13-124" cx="1006.32" cy="162.79" r="1.94" xlink:href="#Безымянный_градиент_13"/><radialGradient id="Безымянный_градиент_13-125" cx="1158.64" cy="105.09" r="3.5" xlink:href="#Безымянный_градиент_13"/><radialGradient id="Безымянный_градиент_13-126" cx="1220.19" cy="29.57" r="3.5" xlink:href="#Безымянный_градиент_13"/><radialGradient id="Безымянный_градиент_13-127" cx="1097.34" cy="162.79" r="3.5" xlink:href="#Безымянный_градиент_13"/><radialGradient id="Безымянный_градиент_13-128" cx="1034.38" cy="121.36" r="3.5" xlink:href="#Безымянный_градиент_13"/><radialGradient id="Безымянный_градиент_13-129" cx="1841.57" cy="29.57" r="3.5" xlink:href="#Безымянный_градиент_13"/><radialGradient id="Безымянный_градиент_13-130" cx="1816.69" cy="71.53" r="1.94" xlink:href="#Безымянный_градиент_13"/><radialGradient id="Безымянный_градиент_13-131" cx="1914.88" cy="170.16" r="1.94" xlink:href="#Безымянный_градиент_13"/><radialGradient id="Безымянный_градиент_13-132" cx="1742.6" cy="354.25" r="1.94" xlink:href="#Безымянный_градиент_13"/><radialGradient id="Безымянный_градиент_13-133" cx="1588.93" cy="287.81" r="1.94" xlink:href="#Безымянный_градиент_13"/><radialGradient id="Безымянный_градиент_13-134" cx="1649.58" cy="-54.26" r="1.94" gradientTransform="translate(15.42 80.95) rotate(1.49)" xlink:href="#Безымянный_градиент_13"/><radialGradient id="Безымянный_градиент_13-135" cx="1745.85" cy="-116.57" r="1.94" gradientTransform="translate(15.42 80.95) rotate(1.49)" xlink:href="#Безымянный_градиент_13"/><radialGradient id="Безымянный_градиент_13-136" cx="1452.2" cy="-116.8" r="1.94" gradientTransform="translate(15.42 80.95) rotate(1.49)" xlink:href="#Безымянный_градиент_13"/><radialGradient id="Безымянный_градиент_13-137" cx="1519.18" cy="-108.74" r="1.94" gradientTransform="translate(15.42 80.95) rotate(1.49)" xlink:href="#Безымянный_градиент_13"/><radialGradient id="Безымянный_градиент_13-138" cx="1465.14" cy="-63.85" r="1.94" gradientTransform="translate(15.42 80.95) rotate(1.49)" xlink:href="#Безымянный_градиент_13"/><radialGradient id="Безымянный_градиент_13-139" cx="1500.25" cy="-73.79" r="1.94" gradientTransform="translate(15.42 80.95) rotate(1.49)" xlink:href="#Безымянный_градиент_13"/><radialGradient id="Безымянный_градиент_13-140" cx="1486.3" cy="-46.14" r="1.94" gradientTransform="translate(15.42 80.95) rotate(1.49)" xlink:href="#Безымянный_градиент_13"/><radialGradient id="Безымянный_градиент_13-141" cx="1463.96" cy="-34.53" r="1.94" gradientTransform="translate(15.42 80.95) rotate(1.49)" xlink:href="#Безымянный_градиент_13"/><radialGradient id="Безымянный_градиент_13-142" cx="1616.47" cy="45.26" r="1.94" gradientTransform="translate(15.42 80.95) rotate(1.49)" xlink:href="#Безымянный_градиент_13"/><radialGradient id="Безымянный_градиент_13-143" cx="1627.63" cy="54.89" r="1.94" gradientTransform="translate(15.42 80.95) rotate(1.49)" xlink:href="#Безымянный_градиент_13"/><radialGradient id="Безымянный_градиент_13-144" cx="1642.76" cy="41.08" r="1.94" gradientTransform="translate(15.42 80.95) rotate(1.49)" xlink:href="#Безымянный_градиент_13"/><radialGradient id="Безымянный_градиент_13-145" cx="1832.4" cy="-80.49" r="1.94" gradientTransform="translate(15.42 80.95) rotate(1.49)" xlink:href="#Безымянный_градиент_13"/><radialGradient id="Безымянный_градиент_13-146" cx="1843.56" cy="-70.86" r="1.94" gradientTransform="translate(15.42 80.95) rotate(1.49)" xlink:href="#Безымянный_градиент_13"/><radialGradient id="Безымянный_градиент_13-147" cx="1858.7" cy="-84.67" r="1.94" gradientTransform="translate(15.42 80.95) rotate(1.49)" xlink:href="#Безымянный_градиент_13"/><radialGradient id="Безымянный_градиент_13-148" cx="1602.11" cy="65.56" r="1.94" gradientTransform="translate(15.42 80.95) rotate(1.49)" xlink:href="#Безымянный_градиент_13"/><radialGradient id="Безымянный_градиент_13-149" cx="1919.19" cy="24.14" r="1.94" xlink:href="#Безымянный_градиент_13"/><radialGradient id="Безымянный_градиент_13-150" cx="1746.47" cy="80.62" r="1.94" xlink:href="#Безымянный_градиент_13"/><radialGradient id="Безымянный_градиент_13-151" cx="1601.02" cy="33.07" r="1.94" xlink:href="#Безымянный_градиент_13"/><radialGradient id="Безымянный_градиент_13-152" cx="1565.42" cy="99.66" r="1.94" xlink:href="#Безымянный_градиент_13"/><radialGradient id="Безымянный_градиент_13-153" cx="1618.06" cy="53.27" r="1.94" xlink:href="#Безымянный_градиент_13"/><radialGradient id="Безымянный_градиент_13-154" cx="1725.3" cy="152.94" r="1.94" xlink:href="#Безымянный_градиент_13"/><radialGradient id="Безымянный_градиент_13-155" cx="1738.73" cy="244.09" r="1.94" xlink:href="#Безымянный_градиент_13"/><radialGradient id="Безымянный_градиент_13-156" cx="1917.25" cy="242.16" r="1.94" xlink:href="#Безымянный_градиент_13"/><radialGradient id="Безымянный_градиент_13-157" cx="1860.27" cy="230.78" r="1.94" xlink:href="#Безымянный_градиент_13"/><radialGradient id="Безымянный_градиент_13-158" cx="1896.76" cy="338.51" r="1.94" xlink:href="#Безымянный_градиент_13"/><radialGradient id="Безымянный_градиент_13-159" cx="1775.82" cy="449.54" r="1.94" xlink:href="#Безымянный_градиент_13"/><radialGradient id="Безымянный_градиент_13-160" cx="1616.12" cy="415.44" r="1.94" xlink:href="#Безымянный_градиент_13"/><radialGradient id="Безымянный_градиент_13-161" cx="1475.96" cy="336.57" r="1.94" xlink:href="#Безымянный_градиент_13"/><radialGradient id="Безымянный_градиент_13-162" cx="1468.29" cy="240.22" r="1.94" xlink:href="#Безымянный_градиент_13"/><radialGradient id="Безымянный_градиент_13-163" cx="1538.91" cy="238.28" r="1.94" xlink:href="#Безымянный_градиент_13"/><radialGradient id="Безымянный_градиент_13-164" cx="1451.48" cy="78.68" r="1.94" xlink:href="#Безымянный_градиент_13"/><radialGradient id="Безымянный_градиент_13-165" cx="1818.63" cy="117.86" r="1.94" xlink:href="#Безымянный_градиент_13"/><radialGradient id="Безымянный_градиент_13-166" cx="1477.9" cy="162.79" r="1.94" xlink:href="#Безымянный_градиент_13"/><radialGradient id="Безымянный_градиент_13-167" cx="1630.22" cy="105.09" r="3.5" xlink:href="#Безымянный_градиент_13"/><radialGradient id="Безымянный_градиент_13-168" cx="1691.77" cy="29.57" r="3.5" xlink:href="#Безымянный_градиент_13"/><radialGradient id="Безымянный_градиент_13-169" cx="1568.92" cy="162.79" r="3.5" xlink:href="#Безымянный_градиент_13"/><radialGradient id="Безымянный_градиент_13-170" cx="1505.96" cy="121.36" r="3.5" xlink:href="#Безымянный_градиент_13"/></defs><title>stars</title><g class="cls-1"><g id="Слой_2" data-name="Слой 2"><g id="Layer_1" data-name="Layer 1"><g class="cls-2"><path class="cls-3" d="M430.84,133.94a5.6,5.6,0,1,1-5.59-5.59A5.6,5.6,0,0,1,430.84,133.94Z"/><path class="cls-4" d="M395.52,29.57a3.5,3.5,0,1,1-3.49-3.5A3.5,3.5,0,0,1,395.52,29.57Z"/><path class="cls-5" d="M369.08,71.53a1.94,1.94,0,1,1-1.93-1.94A1.93,1.93,0,0,1,369.08,71.53Z"/><path class="cls-6" d="M467.27,170.16a1.94,1.94,0,1,1-1.93-1.93A1.93,1.93,0,0,1,467.27,170.16Z"/><path class="cls-7" d="M295,354.25a1.94,1.94,0,1,1-1.94-1.94A1.93,1.93,0,0,1,295,354.25Z"/><path class="cls-8" d="M141.32,287.81a1.94,1.94,0,1,1-1.94-1.94A1.93,1.93,0,0,1,141.32,287.81Z"/><path class="cls-9" d="M218.3,69.64a1.94,1.94,0,1,1-1.89-2A1.94,1.94,0,0,1,218.3,69.64Z"/><path class="cls-10" d="M316.16,9.86a1.94,1.94,0,1,1-1.89-2A1.94,1.94,0,0,1,316.16,9.86Z"/><path class="cls-11" d="M22.61,2a1.94,1.94,0,1,1-1.88-2A1.93,1.93,0,0,1,22.61,2Z"/><path class="cls-12" d="M89.36,11.79a1.94,1.94,0,1,1-1.89-2A1.94,1.94,0,0,1,89.36,11.79Z"/><path class="cls-13" d="M34.16,55.26a1.94,1.94,0,1,1-1.88-2A1.93,1.93,0,0,1,34.16,55.26Z"/><path class="cls-14" d="M69.53,46.24a1.94,1.94,0,1,1-1.89-2A1.95,1.95,0,0,1,69.53,46.24Z"/><path class="cls-15" d="M54.85,73.52a1.94,1.94,0,0,1-3.87-.1,1.94,1.94,0,1,1,3.87.1Z"/><path class="cls-16" d="M32.23,84.54a1.94,1.94,0,1,1-1.89-2A1.94,1.94,0,0,1,32.23,84.54Z"/><path class="cls-17" d="M182.61,168.28a1.94,1.94,0,1,1-1.89-2A1.93,1.93,0,0,1,182.61,168.28Z"/><path class="cls-18" d="M193.52,178.19a1.94,1.94,0,1,1-3.87-.1,1.94,1.94,0,0,1,3.87.1Z"/><path class="cls-19" d="M209,164.78a1.94,1.94,0,1,1-1.89-2A1.95,1.95,0,0,1,209,164.78Z"/><path class="cls-20" d="M401.75,48.18a1.94,1.94,0,1,1-1.89-2A1.93,1.93,0,0,1,401.75,48.18Z"/><path class="cls-21" d="M412.66,58.09a1.94,1.94,0,1,1-1.89-2A1.94,1.94,0,0,1,412.66,58.09Z"/><path class="cls-22" d="M428.14,44.68a1.94,1.94,0,1,1-1.88-2A1.94,1.94,0,0,1,428.14,44.68Z"/><path class="cls-23" d="M167.73,188.2a1.94,1.94,0,1,1-1.89-2A1.94,1.94,0,0,1,167.73,188.2Z"/><path class="cls-24" d="M471.58,24.14a1.94,1.94,0,1,1-1.94-1.94A1.93,1.93,0,0,1,471.58,24.14Z"/><path class="cls-25" d="M298.86,80.62a1.94,1.94,0,1,1-1.93-1.94A1.92,1.92,0,0,1,298.86,80.62Z"/><path class="cls-26" d="M153.42,33.07a1.94,1.94,0,1,1-1.94-1.94A1.93,1.93,0,0,1,153.42,33.07Z"/><path class="cls-27" d="M117.81,99.66a1.94,1.94,0,1,1-1.93-1.94A1.93,1.93,0,0,1,117.81,99.66Z"/><path class="cls-28" d="M170.45,53.27a1.94,1.94,0,1,1-1.94-1.93A1.94,1.94,0,0,1,170.45,53.27Z"/><path class="cls-29" d="M277.69,152.94a1.94,1.94,0,1,1-1.93-1.93A1.93,1.93,0,0,1,277.69,152.94Z"/><path class="cls-30" d="M291.11,244.1a1.94,1.94,0,1,1-1.93-1.94A1.93,1.93,0,0,1,291.11,244.1Z"/><path class="cls-31" d="M469.64,242.16a1.94,1.94,0,1,1-1.93-1.94A1.93,1.93,0,0,1,469.64,242.16Z"/><path class="cls-32" d="M412.66,230.78a1.94,1.94,0,1,1-1.94-1.93A1.94,1.94,0,0,1,412.66,230.78Z"/><path class="cls-33" d="M449.15,338.51a1.94,1.94,0,1,1-1.94-1.94A1.94,1.94,0,0,1,449.15,338.51Z"/><path class="cls-34" d="M328.21,449.54a1.94,1.94,0,1,1-1.94-1.94A1.93,1.93,0,0,1,328.21,449.54Z"/><path class="cls-35" d="M168.51,415.44a1.94,1.94,0,1,1-1.94-1.94A1.94,1.94,0,0,1,168.51,415.44Z"/><path class="cls-36" d="M28.35,336.57a1.94,1.94,0,1,1-1.93-1.93A1.93,1.93,0,0,1,28.35,336.57Z"/><path class="cls-37" d="M20.67,240.22a1.94,1.94,0,1,1-1.93-1.94A1.93,1.93,0,0,1,20.67,240.22Z"/><path class="cls-38" d="M91.3,238.28a1.94,1.94,0,1,1-1.94-1.93A1.94,1.94,0,0,1,91.3,238.28Z"/><path class="cls-39" d="M3.87,78.68a1.94,1.94,0,1,1-1.93-1.94A1.93,1.93,0,0,1,3.87,78.68Z"/><path class="cls-40" d="M371,117.86a1.94,1.94,0,1,1-1.94-1.94A1.94,1.94,0,0,1,371,117.86Z"/><path class="cls-41" d="M30.29,162.79a1.94,1.94,0,1,1-1.94-1.93A1.94,1.94,0,0,1,30.29,162.79Z"/><path class="cls-42" d="M184.17,105.09a3.5,3.5,0,1,1-3.5-3.49A3.5,3.5,0,0,1,184.17,105.09Z"/><path class="cls-43" d="M245.72,29.57a3.5,3.5,0,1,1-3.5-3.5A3.5,3.5,0,0,1,245.72,29.57Z"/><path class="cls-44" d="M122.87,162.79a3.5,3.5,0,1,1-3.5-3.49A3.5,3.5,0,0,1,122.87,162.79Z"/><path class="cls-45" d="M59.91,121.36a3.5,3.5,0,1,1-3.49-3.5A3.5,3.5,0,0,1,59.91,121.36Z"/><path class="cls-46" d="M867.1,29.57a3.5,3.5,0,1,1-3.49-3.5A3.5,3.5,0,0,1,867.1,29.57Z"/><path class="cls-47" d="M840.66,71.53a1.94,1.94,0,1,1-1.93-1.94A1.93,1.93,0,0,1,840.66,71.53Z"/><path class="cls-48" d="M938.85,170.16a1.94,1.94,0,1,1-1.93-1.93A1.93,1.93,0,0,1,938.85,170.16Z"/><path class="cls-49" d="M766.57,354.25a1.94,1.94,0,1,1-1.94-1.94A1.93,1.93,0,0,1,766.57,354.25Z"/><path class="cls-50" d="M612.9,287.81a1.94,1.94,0,1,1-1.94-1.94A1.93,1.93,0,0,1,612.9,287.81Z"/><path class="cls-51" d="M689.88,69.64a1.94,1.94,0,1,1-1.89-2A1.94,1.94,0,0,1,689.88,69.64Z"/><path class="cls-52" d="M787.74,9.86a1.94,1.94,0,1,1-1.89-2A1.94,1.94,0,0,1,787.74,9.86Z"/><path class="cls-53" d="M494.19,2a1.94,1.94,0,1,1-1.88-2A1.93,1.93,0,0,1,494.19,2Z"/><path class="cls-54" d="M560.94,11.79a1.94,1.94,0,1,1-1.89-2A1.94,1.94,0,0,1,560.94,11.79Z"/><path class="cls-55" d="M505.74,55.26a1.94,1.94,0,1,1-1.88-2A1.93,1.93,0,0,1,505.74,55.26Z"/><path class="cls-56" d="M541.11,46.24a1.94,1.94,0,1,1-1.89-2A1.95,1.95,0,0,1,541.11,46.24Z"/><path class="cls-57" d="M526.43,73.52a1.94,1.94,0,0,1-3.87-.1,1.94,1.94,0,1,1,3.87.1Z"/><path class="cls-58" d="M503.81,84.54a1.94,1.94,0,1,1-1.89-2A1.94,1.94,0,0,1,503.81,84.54Z"/><path class="cls-59" d="M654.19,168.28a1.94,1.94,0,1,1-1.89-2A1.93,1.93,0,0,1,654.19,168.28Z"/><path class="cls-60" d="M665.1,178.19a1.94,1.94,0,1,1-3.87-.1,1.94,1.94,0,0,1,3.87.1Z"/><path class="cls-61" d="M680.59,164.78a1.94,1.94,0,1,1-1.89-2A1.95,1.95,0,0,1,680.59,164.78Z"/><path class="cls-62" d="M873.33,48.18a1.94,1.94,0,1,1-1.89-2A1.93,1.93,0,0,1,873.33,48.18Z"/><path class="cls-63" d="M884.24,58.09a1.94,1.94,0,1,1-1.89-2A1.94,1.94,0,0,1,884.24,58.09Z"/><path class="cls-64" d="M899.72,44.68a1.94,1.94,0,1,1-1.88-2A1.93,1.93,0,0,1,899.72,44.68Z"/><path class="cls-65" d="M639.31,188.2a1.94,1.94,0,1,1-1.89-2A1.94,1.94,0,0,1,639.31,188.2Z"/><path class="cls-66" d="M943.16,24.14a1.94,1.94,0,1,1-1.94-1.94A1.93,1.93,0,0,1,943.16,24.14Z"/><path class="cls-67" d="M770.44,80.62a1.94,1.94,0,1,1-1.93-1.94A1.92,1.92,0,0,1,770.44,80.62Z"/><path class="cls-68" d="M625,33.07a1.94,1.94,0,1,1-1.94-1.94A1.93,1.93,0,0,1,625,33.07Z"/><path class="cls-69" d="M589.39,99.66a1.94,1.94,0,1,1-1.93-1.94A1.93,1.93,0,0,1,589.39,99.66Z"/><path class="cls-70" d="M642,53.27a1.94,1.94,0,1,1-1.94-1.93A1.94,1.94,0,0,1,642,53.27Z"/><path class="cls-71" d="M749.27,152.94a1.94,1.94,0,1,1-1.93-1.93A1.93,1.93,0,0,1,749.27,152.94Z"/><path class="cls-72" d="M762.69,244.1a1.94,1.94,0,1,1-1.93-1.94A1.93,1.93,0,0,1,762.69,244.1Z"/><path class="cls-73" d="M941.22,242.16a1.94,1.94,0,1,1-1.93-1.94A1.93,1.93,0,0,1,941.22,242.16Z"/><path class="cls-74" d="M884.24,230.78a1.94,1.94,0,1,1-1.94-1.93A1.94,1.94,0,0,1,884.24,230.78Z"/><path class="cls-75" d="M920.73,338.51a1.94,1.94,0,1,1-1.94-1.94A1.94,1.94,0,0,1,920.73,338.51Z"/><path class="cls-76" d="M799.79,449.54a1.94,1.94,0,1,1-1.94-1.94A1.93,1.93,0,0,1,799.79,449.54Z"/><path class="cls-77" d="M640.09,415.44a1.94,1.94,0,1,1-1.94-1.94A1.94,1.94,0,0,1,640.09,415.44Z"/><path class="cls-78" d="M499.93,336.57a1.94,1.94,0,1,1-1.93-1.93A1.93,1.93,0,0,1,499.93,336.57Z"/><path class="cls-79" d="M492.25,240.22a1.94,1.94,0,1,1-1.93-1.94A1.93,1.93,0,0,1,492.25,240.22Z"/><path class="cls-80" d="M562.88,238.28a1.94,1.94,0,1,1-1.94-1.93A1.94,1.94,0,0,1,562.88,238.28Z"/><path class="cls-81" d="M475.45,78.68a1.94,1.94,0,1,1-1.93-1.94A1.93,1.93,0,0,1,475.45,78.68Z"/><path class="cls-82" d="M842.6,117.86a1.94,1.94,0,1,1-1.94-1.94A1.94,1.94,0,0,1,842.6,117.86Z"/><path class="cls-83" d="M501.87,162.79a1.94,1.94,0,1,1-1.94-1.93A1.94,1.94,0,0,1,501.87,162.79Z"/><path class="cls-84" d="M655.75,105.09a3.5,3.5,0,1,1-3.5-3.49A3.5,3.5,0,0,1,655.75,105.09Z"/><path class="cls-85" d="M717.3,29.57a3.5,3.5,0,1,1-3.5-3.5A3.5,3.5,0,0,1,717.3,29.57Z"/><path class="cls-86" d="M594.45,162.79a3.5,3.5,0,1,1-3.5-3.49A3.5,3.5,0,0,1,594.45,162.79Z"/><path class="cls-87" d="M531.49,121.36a3.5,3.5,0,1,1-3.49-3.5A3.5,3.5,0,0,1,531.49,121.36Z"/><path class="cls-88" d="M1408.81,133.94a5.6,5.6,0,1,1-5.59-5.59A5.6,5.6,0,0,1,1408.81,133.94Z"/><path class="cls-89" d="M1373.49,29.57a3.5,3.5,0,1,1-3.5-3.5A3.5,3.5,0,0,1,1373.49,29.57Z"/><path class="cls-90" d="M1347.05,71.53a1.94,1.94,0,1,1-1.94-1.94A1.94,1.94,0,0,1,1347.05,71.53Z"/><path class="cls-91" d="M1445.24,170.16a1.94,1.94,0,1,1-1.93-1.93A1.93,1.93,0,0,1,1445.24,170.16Z"/><path class="cls-92" d="M1273,354.25a1.94,1.94,0,1,1-1.94-1.94A1.93,1.93,0,0,1,1273,354.25Z"/><path class="cls-93" d="M1119.28,287.81a1.94,1.94,0,1,1-1.93-1.94A1.92,1.92,0,0,1,1119.28,287.81Z"/><path class="cls-94" d="M1196.26,69.64a1.94,1.94,0,1,1-1.88-2A1.93,1.93,0,0,1,1196.26,69.64Z"/><path class="cls-95" d="M1294.13,9.86a1.94,1.94,0,1,1-1.89-2A1.94,1.94,0,0,1,1294.13,9.86Z"/><path class="cls-96" d="M1000.58,2a1.94,1.94,0,1,1-1.89-2A1.93,1.93,0,0,1,1000.58,2Z"/><path class="cls-97" d="M1067.33,11.79a1.94,1.94,0,1,1-1.89-2A1.94,1.94,0,0,1,1067.33,11.79Z"/><path class="cls-98" d="M1012.13,55.26a1.94,1.94,0,1,1-1.89-2A1.95,1.95,0,0,1,1012.13,55.26Z"/><path class="cls-99" d="M1047.5,46.24a1.94,1.94,0,1,1-1.89-2A1.95,1.95,0,0,1,1047.5,46.24Z"/><path class="cls-100" d="M1032.82,73.52a1.94,1.94,0,0,1-3.87-.1,1.94,1.94,0,1,1,3.87.1Z"/><path class="cls-101" d="M1010.19,84.54a1.94,1.94,0,1,1-3.87-.1,1.94,1.94,0,1,1,3.87.1Z"/><path class="cls-102" d="M1160.58,168.28a1.94,1.94,0,1,1-1.89-2A1.93,1.93,0,0,1,1160.58,168.28Z"/><path class="cls-103" d="M1171.48,178.19a1.94,1.94,0,1,1-1.88-2A1.93,1.93,0,0,1,1171.48,178.19Z"/><path class="cls-104" d="M1187,164.78a1.94,1.94,0,1,1-1.89-2A1.95,1.95,0,0,1,1187,164.78Z"/><path class="cls-105" d="M1379.71,48.18a1.94,1.94,0,1,1-1.88-2A1.93,1.93,0,0,1,1379.71,48.18Z"/><path class="cls-106" d="M1390.62,58.09a1.94,1.94,0,1,1-1.88-2A1.94,1.94,0,0,1,1390.62,58.09Z"/><path class="cls-107" d="M1406.11,44.68a1.94,1.94,0,1,1-1.88-2A1.95,1.95,0,0,1,1406.11,44.68Z"/><path class="cls-108" d="M1145.7,188.2a1.94,1.94,0,1,1-1.89-2A1.94,1.94,0,0,1,1145.7,188.2Z"/><path class="cls-109" d="M1449.55,24.14a1.94,1.94,0,1,1-1.94-1.94A1.93,1.93,0,0,1,1449.55,24.14Z"/><path class="cls-110" d="M1276.83,80.62a1.94,1.94,0,1,1-1.94-1.94A1.93,1.93,0,0,1,1276.83,80.62Z"/><path class="cls-111" d="M1131.38,33.07a1.94,1.94,0,1,1-1.93-1.94A1.92,1.92,0,0,1,1131.38,33.07Z"/><path class="cls-112" d="M1095.78,99.66a1.94,1.94,0,1,1-1.94-1.94A1.94,1.94,0,0,1,1095.78,99.66Z"/><path class="cls-113" d="M1148.41,53.27a1.94,1.94,0,1,1-1.93-1.93A1.93,1.93,0,0,1,1148.41,53.27Z"/><path class="cls-114" d="M1255.66,152.94a1.94,1.94,0,1,1-1.94-1.93A1.94,1.94,0,0,1,1255.66,152.94Z"/><path class="cls-115" d="M1269.08,244.1a1.94,1.94,0,1,1-1.94-1.94A1.93,1.93,0,0,1,1269.08,244.1Z"/><path class="cls-116" d="M1447.61,242.16a1.94,1.94,0,1,1-1.94-1.94A1.94,1.94,0,0,1,1447.61,242.16Z"/><circle class="cls-117" cx="1388.69" cy="230.78" r="1.94"/><path class="cls-118" d="M1427.12,338.51a1.94,1.94,0,1,1-1.94-1.94A1.94,1.94,0,0,1,1427.12,338.51Z"/><path class="cls-119" d="M1306.18,449.54a1.94,1.94,0,1,1-1.94-1.94A1.93,1.93,0,0,1,1306.18,449.54Z"/><path class="cls-120" d="M1146.48,415.44a1.94,1.94,0,1,1-1.94-1.94A1.94,1.94,0,0,1,1146.48,415.44Z"/><path class="cls-121" d="M1006.32,336.57a1.94,1.94,0,1,1-1.94-1.93A1.94,1.94,0,0,1,1006.32,336.57Z"/><path class="cls-122" d="M998.64,240.22a1.94,1.94,0,1,1-1.94-1.94A1.94,1.94,0,0,1,998.64,240.22Z"/><circle class="cls-123" cx="1067.33" cy="238.28" r="1.94"/><path class="cls-124" d="M981.84,78.68a1.94,1.94,0,1,1-1.93-1.94A1.93,1.93,0,0,1,981.84,78.68Z"/><circle class="cls-125" cx="1347.05" cy="117.86" r="1.94"/><path class="cls-126" d="M1008.26,162.79a1.94,1.94,0,1,1-1.94-1.93A1.94,1.94,0,0,1,1008.26,162.79Z"/><path class="cls-127" d="M1162.14,105.09a3.5,3.5,0,1,1-3.5-3.49A3.5,3.5,0,0,1,1162.14,105.09Z"/><path class="cls-128" d="M1223.69,29.57a3.5,3.5,0,1,1-3.5-3.5A3.5,3.5,0,0,1,1223.69,29.57Z"/><path class="cls-129" d="M1100.84,162.79a3.5,3.5,0,1,1-3.5-3.49A3.5,3.5,0,0,1,1100.84,162.79Z"/><path class="cls-130" d="M1037.88,121.36a3.5,3.5,0,1,1-3.5-3.5A3.5,3.5,0,0,1,1037.88,121.36Z"/><path class="cls-131" d="M1845.07,29.57a3.5,3.5,0,1,1-3.5-3.5A3.5,3.5,0,0,1,1845.07,29.57Z"/><path class="cls-132" d="M1818.63,71.53a1.94,1.94,0,1,1-1.94-1.94A1.94,1.94,0,0,1,1818.63,71.53Z"/><path class="cls-133" d="M1916.82,170.16a1.94,1.94,0,1,1-1.93-1.93A1.93,1.93,0,0,1,1916.82,170.16Z"/><path class="cls-134" d="M1744.54,354.25a1.94,1.94,0,1,1-1.94-1.94A1.93,1.93,0,0,1,1744.54,354.25Z"/><path class="cls-135" d="M1590.86,287.81a1.94,1.94,0,1,1-1.93-1.94A1.92,1.92,0,0,1,1590.86,287.81Z"/><path class="cls-136" d="M1667.84,69.64a1.94,1.94,0,1,1-1.88-2A1.93,1.93,0,0,1,1667.84,69.64Z"/><path class="cls-137" d="M1765.71,9.86a1.94,1.94,0,1,1-1.89-2A1.94,1.94,0,0,1,1765.71,9.86Z"/><path class="cls-138" d="M1472.16,2a1.94,1.94,0,1,1-1.89-2A1.93,1.93,0,0,1,1472.16,2Z"/><path class="cls-139" d="M1538.91,11.79a1.94,1.94,0,1,1-1.89-2A1.94,1.94,0,0,1,1538.91,11.79Z"/><path class="cls-140" d="M1483.71,55.26a1.94,1.94,0,1,1-1.89-2A1.95,1.95,0,0,1,1483.71,55.26Z"/><path class="cls-141" d="M1519.08,46.24a1.94,1.94,0,1,1-1.89-2A1.95,1.95,0,0,1,1519.08,46.24Z"/><path class="cls-142" d="M1504.4,73.52a1.94,1.94,0,0,1-3.87-.1,1.94,1.94,0,1,1,3.87.1Z"/><path class="cls-143" d="M1481.77,84.54a1.94,1.94,0,1,1-3.87-.1,1.94,1.94,0,1,1,3.87.1Z"/><path class="cls-144" d="M1632.16,168.28a1.94,1.94,0,1,1-1.89-2A1.93,1.93,0,0,1,1632.16,168.28Z"/><path class="cls-145" d="M1643.06,178.19a1.93,1.93,0,1,1-1.88-2A1.93,1.93,0,0,1,1643.06,178.19Z"/><path class="cls-146" d="M1658.56,164.78a1.94,1.94,0,1,1-1.89-2A1.95,1.95,0,0,1,1658.56,164.78Z"/><path class="cls-147" d="M1851.29,48.18a1.94,1.94,0,0,1-3.87-.1,1.94,1.94,0,1,1,3.87.1Z"/><path class="cls-148" d="M1862.2,58.09a1.94,1.94,0,1,1-1.88-2A1.94,1.94,0,0,1,1862.2,58.09Z"/><path class="cls-149" d="M1877.69,44.68a1.94,1.94,0,1,1-1.88-2A1.95,1.95,0,0,1,1877.69,44.68Z"/><path class="cls-150" d="M1617.28,188.2a1.94,1.94,0,1,1-1.89-2A1.94,1.94,0,0,1,1617.28,188.2Z"/><path class="cls-151" d="M1921.13,24.14a1.94,1.94,0,1,1-1.94-1.94A1.93,1.93,0,0,1,1921.13,24.14Z"/><path class="cls-152" d="M1748.41,80.62a1.94,1.94,0,1,1-1.93-1.94A1.93,1.93,0,0,1,1748.41,80.62Z"/><path class="cls-153" d="M1603,33.07a1.94,1.94,0,1,1-1.93-1.94A1.92,1.92,0,0,1,1603,33.07Z"/><path class="cls-154" d="M1567.36,99.66a1.94,1.94,0,1,1-1.94-1.94A1.94,1.94,0,0,1,1567.36,99.66Z"/><path class="cls-155" d="M1620,53.27a1.94,1.94,0,1,1-1.93-1.93A1.93,1.93,0,0,1,1620,53.27Z"/><path class="cls-156" d="M1727.24,152.94a1.94,1.94,0,1,1-1.93-1.93A1.93,1.93,0,0,1,1727.24,152.94Z"/><path class="cls-157" d="M1740.66,244.1a1.94,1.94,0,1,1-1.93-1.94A1.93,1.93,0,0,1,1740.66,244.1Z"/><path class="cls-158" d="M1919.19,242.16a1.94,1.94,0,1,1-1.94-1.94A1.94,1.94,0,0,1,1919.19,242.16Z"/><circle class="cls-159" cx="1860.27" cy="230.78" r="1.94"/><circle class="cls-160" cx="1896.76" cy="338.51" r="1.94"/><path class="cls-161" d="M1777.76,449.54a1.94,1.94,0,1,1-1.94-1.94A1.93,1.93,0,0,1,1777.76,449.54Z"/><path class="cls-162" d="M1618.06,415.44a1.94,1.94,0,1,1-1.94-1.94A1.94,1.94,0,0,1,1618.06,415.44Z"/><path class="cls-163" d="M1477.9,336.57a1.94,1.94,0,1,1-1.94-1.93A1.94,1.94,0,0,1,1477.9,336.57Z"/><path class="cls-164" d="M1470.22,240.22a1.94,1.94,0,1,1-1.94-1.94A1.94,1.94,0,0,1,1470.22,240.22Z"/><path class="cls-165" d="M1540.84,238.28a1.94,1.94,0,1,1-1.93-1.93A1.93,1.93,0,0,1,1540.84,238.28Z"/><path class="cls-166" d="M1453.42,78.68a1.94,1.94,0,1,1-1.93-1.94A1.93,1.93,0,0,1,1453.42,78.68Z"/><circle class="cls-167" cx="1818.63" cy="117.86" r="1.94"/><path class="cls-168" d="M1479.84,162.79a1.94,1.94,0,1,1-1.94-1.93A1.94,1.94,0,0,1,1479.84,162.79Z"/><path class="cls-169" d="M1633.72,105.09a3.5,3.5,0,1,1-3.5-3.49A3.5,3.5,0,0,1,1633.72,105.09Z"/><path class="cls-170" d="M1695.27,29.57a3.5,3.5,0,1,1-3.5-3.5A3.5,3.5,0,0,1,1695.27,29.57Z"/><path class="cls-171" d="M1572.42,162.79a3.5,3.5,0,1,1-3.5-3.49A3.5,3.5,0,0,1,1572.42,162.79Z"/><path class="cls-172" d="M1509.46,121.36a3.5,3.5,0,1,1-3.5-3.5A3.5,3.5,0,0,1,1509.46,121.36Z"/></g></g></g></g></svg>