<svg xmlns="http://www.w3.org/2000/svg" viewBox="0 0 9.97 16.22"><defs><style>.cls-1{fill:#fff;}</style></defs><title>Tumblr_icon</title><g id="Слой_2" data-name="Слой 2"><g id="Layer_1" data-name="Layer 1"><path class="cls-1" d="M.54,6.49H2.16v5.75a6.45,6.45,0,0,0,.08,1.06,2.42,2.42,0,0,0,.62,1.11,3.68,3.68,0,0,0,1.47.94,3.8,3.8,0,0,0,1.08.27,5.05,5.05,0,0,0,.67.06h.65a6,6,0,0,0,2.11-.49l.32-.11L9.43,15V13.19a3.6,3.6,0,0,1-1.19.38,2.93,2.93,0,0,1-1.1,0,2.33,2.33,0,0,1-1.08-.38,1.42,1.42,0,0,1-.6-1,7.73,7.73,0,0,1-.08-1V6.49H8.89V4.59H5.41v-4H3.65s0,.11,0,.14a6.78,6.78,0,0,1-.43,1.54A4.56,4.56,0,0,1,1,4.46a1.51,1.51,0,0,1-.41.16V6.49Zm6,9.73H6.06a5.83,5.83,0,0,1-.73-.06,5.32,5.32,0,0,1-1.19-.29,4.41,4.41,0,0,1-1.65-1.11,2.67,2.67,0,0,1-.76-1.38,4.84,4.84,0,0,1-.11-1.14V7H0V4.27l.35-.14A2.05,2.05,0,0,0,.73,4a3.86,3.86,0,0,0,2-2A5.52,5.52,0,0,0,3.11.59a.66.66,0,0,0,0-.24l0-.35H6V4.05H9.46V7H6v4.13a5.3,5.3,0,0,0,.08.95.93.93,0,0,0,.35.67,1.77,1.77,0,0,0,.84.3A2.78,2.78,0,0,0,8.16,13a3.25,3.25,0,0,0,1.41-.57l.4-.27v3.14l-.13.08-.49.19a1.43,1.43,0,0,0-.29.1,6.94,6.94,0,0,1-2.28.52Z"/></g></g></svg>