<svg xmlns="http://www.w3.org/2000/svg" viewBox="0 0 16.19 13.19"><defs><style>.cls-1{fill:#fff;}</style></defs><title>Twitter_icon</title><g id="Слой_2" data-name="Слой 2"><g id="Layer_1" data-name="Layer 1"><path class="cls-1" d="M1,11.79A12.16,12.16,0,0,0,6,12.65c4.54,0,8.25-4.07,8.25-9.08V3.11l.16-.06a1.93,1.93,0,0,0,1-1l-1.07.36A.28.28,0,0,1,14,2.31a.31.31,0,0,1,.08-.38,4.55,4.55,0,0,0,1-1.16c-.55.22-1.05.41-1.46.55a.61.61,0,0,1-.49-.05,5,5,0,0,0-2-.72h0a3.09,3.09,0,0,0-3,3.14v.76l-.33,0A10.88,10.88,0,0,1,1.45,1.32c-.82,2.09.88,3.55,1.46,4l.68.49H2.74A4.08,4.08,0,0,1,1,5.47,5,5,0,0,0,3.92,8l-.08.55a4.86,4.86,0,0,0-.66,0,4.15,4.15,0,0,1-1.59-.14C2.14,9.46,3.1,9.9,4.67,9.9h.82l-.69.49A6.62,6.62,0,0,1,1,11.79ZM6,13.19c-2.72,0-4.92-.46-5.91-1.26A.39.39,0,0,1,0,11.52a.39.39,0,0,1,.36-.25,6.74,6.74,0,0,0,3.46-.88,3.29,3.29,0,0,1-3-2.34A.29.29,0,0,1,1,7.7a.35.35,0,0,1,.38,0A2.25,2.25,0,0,0,2.66,8,5.39,5.39,0,0,1,.27,5a.34.34,0,0,1,.14-.36.33.33,0,0,1,.38,0,2.27,2.27,0,0,0,1.13.5A3.73,3.73,0,0,1,1.12.69L1.29.36l.27.27A10,10,0,0,0,7.69,3.79v-.1A3.64,3.64,0,0,1,11.21,0h0a5.68,5.68,0,0,1,2.28.8s0,0,0,0c.55-.17,1.21-.44,2-.77a.29.29,0,0,1,.39.38,3.86,3.86,0,0,1-.69,1.19l.55-.2a.39.39,0,0,1,.33.08.37.37,0,0,1,.08.33,2.7,2.7,0,0,1-1.34,1.68v.08c0,5.31-4,9.62-8.8,9.62Z"/></g></g></svg>