<svg xmlns="http://www.w3.org/2000/svg" width="59" height="58" fill="none" viewBox="0 0 59 58">
    <path fill="#6C5ED6" d="M53.697 29c0-4.866-1.446-9.622-4.155-13.668a24.638 24.638 0 0 0-11.062-9.06 24.693 24.693 0 0 0-14.241-1.4 24.664 24.664 0 0 0-12.62 6.732 24.587 24.587 0 0 0-6.746 12.597 24.557 24.557 0 0 0 1.402 14.214 24.612 24.612 0 0 0 9.079 11.04 24.683 24.683 0 0 0 31.123-3.06 24.598 24.598 0 0 0 5.343-7.98A24.559 24.559 0 0 0 53.697 29z"/>
    <path stroke="#fff" stroke-opacity=".2" stroke-width="4.47" d="M55.896 29A26.767 26.767 0 0 0 51.37 14.11a26.838 26.838 0 0 0-12.05-9.87 26.893 26.893 0 0 0-15.51-1.525 26.863 26.863 0 0 0-13.745 7.334 26.786 26.786 0 0 0-7.35 13.723 26.756 26.756 0 0 0 1.529 15.487 26.811 26.811 0 0 0 9.89 12.027 26.883 26.883 0 0 0 33.897-3.332 26.798 26.798 0 0 0 5.82-8.695A26.759 26.759 0 0 0 55.897 29z"/>
    <path fill="#fff" fill-rule="evenodd" d="M26.349 28.802c.883.136 1.774.188 2.697.188.922 0 1.813-.052 2.696-.188l.015-.002c.236-.032.477-.068.723-.104.927-.137 1.912-.282 2.918-.282 1.743 0 3.15.73 4.105 1.886.941 1.138 1.413 2.646 1.413 4.197 0 1.52-.35 2.778-.998 3.799-.647 1.019-1.554 1.742-2.577 2.25-.38.188-.778.348-1.19.484.207-.05.412-.103.615-.161 2.388-.68 4.35-1.884 5.387-3.975.81-1.65 1.008-3.607 1.008-5.566 0-2.465-.674-4.748-2.24-6.588l-.328-.385.16-.48c.294-.878.441-1.809.441-2.742a7.918 7.918 0 0 0-.59-3.01c-2.183.146-3.71 1.148-5.664 2.672l-.342.267-.422-.102a20.74 20.74 0 0 0-4.842-.551c-1.814 0-3.62.191-5.368.606l-.421.1-.34-.266c-1.98-1.548-3.507-2.577-5.717-2.727a7.918 7.918 0 0 0-.591 3.011c0 .934.148 1.884.442 2.783l.158.48-.33.383c-1.564 1.821-2.237 4.085-2.237 6.549 0 1.961.2 3.93 1.021 5.556 1.032 2.028 2.985 3.227 5.37 3.92a8.485 8.485 0 0 1-.57-.258c-1.024-.508-1.93-1.231-2.578-2.25-.648-1.02-.998-2.28-.998-3.799 0-1.55.472-3.06 1.412-4.197.956-1.155 2.363-1.886 4.106-1.886 1.022 0 2.031.15 2.967.288.23.034.455.068.675.098l.014.002zM15.15 37.29c-.92-1.819-1.119-3.962-1.119-5.962 0-2.63.722-5.115 2.455-7.132a9.875 9.875 0 0 1-.488-3.062c0-1.35.307-2.701.92-3.926 2.852 0 4.675 1.243 6.84 2.936 1.823-.433 3.7-.63 5.576-.63 1.697 0 3.41.18 5.053.576 2.148-1.675 3.97-2.882 6.785-2.882a8.776 8.776 0 0 1 .92 3.926 9.57 9.57 0 0 1-.487 3.026c1.733 2.035 2.455 4.539 2.455 7.169 0 1.999-.199 4.124-1.101 5.961-2.382 4.809-8.933 5.277-13.625 5.277-4.764 0-11.712-.414-14.184-5.277zm9.092-4.592c-.296-.553-.628-.761-.971-.761-.343 0-.676.208-.972.761-.295.553-.44 1.268-.44 1.8s.145 1.248.44 1.8c.296.554.629.762.972.762.343 0 .675-.208.971-.762.296-.552.44-1.267.44-1.8 0-.532-.144-1.247-.44-1.8zm11.55 0c-.296-.553-.629-.761-.972-.761-.343 0-.675.208-.971.761-.296.553-.44 1.268-.44 1.8s.144 1.248.44 1.8c.296.554.628.762.971.762.343 0 .676-.208.972-.762.295-.552.44-1.267.44-1.8 0-.532-.145-1.247-.44-1.8zM23.27 31.04c1.624 0 2.31 2.144 2.31 3.458 0 1.315-.686 3.459-2.31 3.459s-2.31-2.144-2.31-3.459c0-1.314.686-3.458 2.31-3.458zm11.55 0c1.623 0 2.309 2.144 2.309 3.458 0 1.315-.686 3.459-2.31 3.459s-2.31-2.144-2.31-3.459c0-1.314.686-3.458 2.31-3.458zm-4.26 9.816c4.404 0 9.456-.846 9.456-6.358 0-2.755-1.678-5.187-4.62-5.187-.932 0-1.832.133-2.75.268-.255.038-.51.075-.768.11a18.57 18.57 0 0 1-2.834.199c-.956 0-1.894-.054-2.833-.198l-.715-.104c-.93-.138-1.855-.275-2.804-.275-2.941 0-4.62 2.432-4.62 5.187 0 5.512 5.053 6.358 9.457 6.358h3.031z" clip-rule="evenodd"/>
</svg>
