<svg xmlns="http://www.w3.org/2000/svg" width="59" height="58" fill="none" viewBox="0 0 59 58">
    <path fill="#6C5ED6" d="M53.697 29c0-4.866-1.446-9.622-4.155-13.668a24.639 24.639 0 0 0-11.062-9.06 24.693 24.693 0 0 0-14.241-1.4 24.664 24.664 0 0 0-12.62 6.732 24.587 24.587 0 0 0-6.746 12.597 24.557 24.557 0 0 0 1.402 14.214 24.612 24.612 0 0 0 9.079 11.04 24.683 24.683 0 0 0 31.123-3.06 24.598 24.598 0 0 0 5.343-7.98A24.559 24.559 0 0 0 53.697 29z"/>
    <path stroke="#fff" stroke-opacity=".2" stroke-width="4.47" d="M55.896 29A26.767 26.767 0 0 0 51.37 14.11a26.838 26.838 0 0 0-12.05-9.87 26.893 26.893 0 0 0-15.51-1.525 26.863 26.863 0 0 0-13.745 7.334 26.786 26.786 0 0 0-7.35 13.723 26.756 26.756 0 0 0 1.529 15.487 26.81 26.81 0 0 0 9.89 12.027 26.883 26.883 0 0 0 33.897-3.332 26.797 26.797 0 0 0 5.82-8.695A26.759 26.759 0 0 0 55.897 29z"/>
    <path fill="#fff" d="M18.052 21.593a2.736 2.736 0 0 0 2.102-.843 2.939 2.939 0 0 0 .899-2.151 2.99 2.99 0 0 0-.899-2.134 2.95 2.95 0 0 0-2.066-.86 2.95 2.95 0 0 0-2.137.86 2.924 2.924 0 0 0-.899 2.134 2.864 2.864 0 0 0 .899 2.151 3.003 3.003 0 0 0 2.101.843zm.09 1.004h-.09a3.798 3.798 0 0 1-2.802-1.147 3.98 3.98 0 0 1-1.204-2.851 4.013 4.013 0 0 1 1.198-2.824 4.028 4.028 0 0 1 2.845-1.157 3.724 3.724 0 0 1 2.802 1.201 3.586 3.586 0 0 1 1.15 2.78 4.03 4.03 0 0 1-1.186 2.85 3.789 3.789 0 0 1-2.713 1.148zM16.005 24.589a.485.485 0 0 0-.45.502v17.464a.538.538 0 0 0 .486.484h4.006a.486.486 0 0 0 .503-.448v-17.5a.538.538 0 0 0-.503-.502h-4.042zm4.042 19.455h-4.006a1.528 1.528 0 0 1-1.491-1.489V25.091a1.47 1.47 0 0 1 1.455-1.507h4.042a1.528 1.528 0 0 1 1.491 1.507v17.5a1.505 1.505 0 0 1-1.49 1.453zM38.085 43.04h4.904V30.182a5.962 5.962 0 0 0-1.7-4.297 5.984 5.984 0 0 0-4.264-1.8h-1.042a5.722 5.722 0 0 0-4.6 2.295l-1.347 1.345v-3.084h-4.958v18.397h5.461V32.281a3.85 3.85 0 0 1 1.061-2.747 3.866 3.866 0 0 1 2.694-1.198c1.044 0 2.045.413 2.785 1.147a3.587 3.587 0 0 1 .952 2.744v10.758l.054.054zm4.958 1.003h-5.012a1.06 1.06 0 0 1-.988-1.004V32.281a2.596 2.596 0 0 0-.7-2.045 2.986 2.986 0 0 0-2.103-.842 2.826 2.826 0 0 0-2.578 1.841 2.81 2.81 0 0 0-.17 1.1v10.758a.986.986 0 0 1-1.007.896h-5.497a.971.971 0 0 1-.988-.896V24.534a1.021 1.021 0 0 1 .988-.95H30a1.08 1.08 0 0 1 .988 1.004v.7a6.773 6.773 0 0 1 4.94-2.188h1.06a6.947 6.947 0 0 1 5.03 2.096 6.921 6.921 0 0 1 1.96 5.076V43.13a1.075 1.075 0 0 1-.989 1.004l.054-.09z"/>
</svg>
