<svg xmlns="http://www.w3.org/2000/svg" width="59" height="58" fill="none" viewBox="0 0 59 58">
    <path fill="#6C5ED6" d="M29.048 53.601c13.613 0 24.649-11.014 24.649-24.6 0-13.588-11.036-24.602-24.65-24.602C15.436 4.399 4.4 15.413 4.4 29s11.036 24.601 24.649 24.601z"/>
    <path stroke="#fff" stroke-opacity=".2" stroke-width="4.47" d="M29.048 55.8c14.824 0 26.848-11.994 26.848-26.8 0-14.806-12.024-26.8-26.848-26.8S2.2 14.194 2.2 29c0 14.806 12.024 26.8 26.848 26.8z"/>
    <path fill="#fff" d="M44.48 20.984a.484.484 0 0 0-.27-.412L34.6 15.766a.504.504 0 0 0-.647.18l-6.486 9.969-3.341-5.182a.555.555 0 0 0-.198-.161l-9.593-4.806a.522.522 0 0 0-.737.448v21.302a.484.484 0 0 0 .287.449l9.594 4.787a.504.504 0 0 0 .719-.448v-9.217l19.564 9.755a.505.505 0 0 0 .719-.448v-21.41zM23.209 41.497l-8.516-4.286V16.95l8.605 4.303-.09 20.244zm.988-9.611v-9.18l8.767 13.555-8.767-4.375zm3.862-5.056l6.486-9.88 8.731 4.357-1.635 2.654-7.348 12.551-6.234-9.683zm15.379 14.667l-8.39-4.178L42.7 24.122l.773-1.327-.036 18.702z"/>
</svg>
