<svg xmlns="http://www.w3.org/2000/svg" width="59" height="58" fill="none" viewBox="0 0 59 58">
    <path fill="#6C5ED6" d="M29.048 53.601c13.613 0 24.649-11.014 24.649-24.6 0-13.588-11.036-24.602-24.65-24.602C15.436 4.399 4.4 15.413 4.4 29s11.036 24.601 24.649 24.601z"/>
    <path stroke="#fff" stroke-opacity=".2" stroke-width="4.47" d="M29.048 55.8c14.824 0 26.848-11.994 26.848-26.8 0-14.806-12.024-26.8-26.848-26.8S2.2 14.194 2.2 29c0 14.806 12.024 26.8 26.848 26.8z"/>
    <path fill="#fff" d="M36.486 42.412a.665.665 0 0 0 .61 0 .718.718 0 0 0 .396-.484l4.887-25.605c.004-.06.004-.12 0-.18a.717.717 0 0 0-.162-.394.628.628 0 0 0-.45-.215.504.504 0 0 0-.287 0L12.502 27.17a.647.647 0 0 0-.414.538.661.661 0 0 0 .414.591l7.905 3.013 2.227 8.374a.664.664 0 0 0 .395.448.683.683 0 0 0 .611 0l4.617-3.317 8.229 5.594zm-.09-1.614l-11.3-7.71 15.63-15.008-4.33 22.718zm-12.756-2.33l-2.012-7.621v-.18a.68.68 0 0 0-.395-.43l-6.701-2.528 24.38-9.683-15.29 14.685a.699.699 0 0 0-.197.395v.25l.143.198.162.162 3.378 2.277-3.468 2.474z"/>
</svg>
