<svg xmlns="http://www.w3.org/2000/svg" width="59" height="58" fill="none" viewBox="0 0 59 58">
    <path fill="#6C5ED6" d="M53.697 29c0-4.866-1.446-9.622-4.155-13.668a24.639 24.639 0 0 0-11.062-9.06 24.693 24.693 0 0 0-14.241-1.4 24.664 24.664 0 0 0-12.62 6.732 24.587 24.587 0 0 0-6.746 12.597 24.557 24.557 0 0 0 1.402 14.214 24.612 24.612 0 0 0 9.079 11.04 24.683 24.683 0 0 0 31.123-3.06 24.598 24.598 0 0 0 5.343-7.98A24.559 24.559 0 0 0 53.697 29z"/>
    <path stroke="#fff" stroke-opacity=".2" stroke-width="4.47" d="M55.896 29A26.767 26.767 0 0 0 51.37 14.11a26.838 26.838 0 0 0-12.05-9.87 26.893 26.893 0 0 0-15.51-1.525 26.863 26.863 0 0 0-13.745 7.334 26.786 26.786 0 0 0-7.35 13.723 26.756 26.756 0 0 0 1.529 15.487 26.81 26.81 0 0 0 9.89 12.027 26.883 26.883 0 0 0 33.897-3.332 26.797 26.797 0 0 0 5.82-8.695A26.759 26.759 0 0 0 55.897 29z"/>
    <path stroke="#fff" stroke-width=".912" d="M35.735 19.735a.719.719 0 0 0-.29 1.408 4.797 4.797 0 0 1 3.73 3.724.722.722 0 0 0 1.413-.29l-4.853-4.842zm0 0a6.242 6.242 0 0 1 4.853 4.842l-4.853-4.842zm-6.466 5.61l.003-.002c1.622-.69 3.112-1.042 4.303-1.047 1.2-.005 2.006.339 2.414.931.436.632.443 1.594-.058 2.876-.14.355-.192.752.088 1.064.117.13.261.206.378.255.112.047.238.085.344.118l.006.002h.002c1.806.57 3.632 1.885 3.632 4.091 0 1.877-1.352 4.187-3.872 6.051-2.5 1.851-6.094 3.212-10.428 3.212-3.305 0-6.636-.897-9.128-2.446-2.494-1.552-4.085-3.711-4.085-6.236 0-2.688 1.687-5.888 4.725-8.975 2.019-2.05 4.19-3.525 6.052-4.263.933-.37 1.766-.547 2.454-.534.683.013 1.194.21 1.54.561.61.621.748 1.793.251 3.419-.079.25-.118.572.088.828.201.249.5.263.65.256.172-.008.337-.053.445-.088a2.463 2.463 0 0 0 .183-.068l.013-.005zm-3.126 15.993c2.771-.275 5.227-1.265 6.956-2.667 1.725-1.4 2.769-3.25 2.575-5.225-.194-1.974-1.58-3.584-3.545-4.617-1.969-1.035-4.57-1.523-7.341-1.248-2.77.275-5.226 1.265-6.955 2.666-1.726 1.4-2.77 3.25-2.575 5.224.194 1.975 1.58 3.585 3.545 4.618 1.969 1.035 4.57 1.523 7.34 1.249zm-2.72-9.392c2.007-.403 3.762.64 4.062 2.13.3 1.492-.915 3.129-2.922 3.531-2.008.404-3.763-.638-4.063-2.13-.3-1.49.914-3.128 2.922-3.53zm12.226-16.842c5.29 0 9.576 4.278 9.578 9.555v.004a.72.72 0 0 1-.72.719.72.72 0 0 1-.722-.719c0-4.486-3.643-8.122-8.136-8.122a.72.72 0 1 1 0-1.437z"/>
</svg>
