<svg xmlns="http://www.w3.org/2000/svg" width="59" height="58" fill="none" viewBox="0 0 59 58">
    <path fill="#6C5ED6" d="M29.048 53.601c13.613 0 24.649-11.014 24.649-24.6 0-13.588-11.036-24.602-24.65-24.602C15.436 4.399 4.4 15.413 4.4 29s11.036 24.601 24.649 24.601z"/>
    <path stroke="#fff" stroke-opacity=".2" stroke-width="4.47" d="M29.048 55.8c14.824 0 26.848-11.994 26.848-26.8 0-14.806-12.024-26.8-26.848-26.8S2.2 14.194 2.2 29c0 14.806 12.024 26.8 26.848 26.8z"/>
    <path stroke="#fff" stroke-miterlimit="10" stroke-width="1.642" d="M45.235 19.084c-1.24-1.47-3.431-2.134-7.851-2.134H21.628c-4.437 0-6.773.7-7.977 2.26-1.203 1.56-1.203 3.747-1.203 6.85v5.88c0 5.99 1.419 8.966 9.18 8.966h15.756c3.773 0 5.857-.52 7.186-1.793 1.33-1.273 1.976-3.479 1.976-7.172v-5.882c.018-3.263-.072-5.523-1.311-6.975zm-9.486 10.974l-9.234 4.823c-.2.106-.422.161-.647.162-.26.01-.516-.06-.737-.198a1.4 1.4 0 0 1-.682-1.219v-9.629a1.397 1.397 0 0 1 .682-1.201 1.457 1.457 0 0 1 1.384 0l9.234 4.787a1.455 1.455 0 0 1 .773 1.256 1.414 1.414 0 0 1-.773 1.219z"/>
</svg>
