<svg xmlns="http://www.w3.org/2000/svg" width="59" height="58" fill="none" viewBox="0 0 59 58">
    <path fill="#6C5ED6" d="M53.697 29c0-4.866-1.446-9.622-4.155-13.668a24.639 24.639 0 0 0-11.062-9.06 24.693 24.693 0 0 0-14.241-1.4 24.664 24.664 0 0 0-12.62 6.732 24.587 24.587 0 0 0-6.746 12.597 24.557 24.557 0 0 0 1.402 14.214 24.612 24.612 0 0 0 9.079 11.04 24.683 24.683 0 0 0 31.123-3.06A24.577 24.577 0 0 0 53.697 29z"/>
    <path stroke="#fff" stroke-opacity=".2" stroke-width="4.47" d="M55.896 29A26.767 26.767 0 0 0 51.37 14.11a26.838 26.838 0 0 0-12.05-9.87 26.893 26.893 0 0 0-15.51-1.525 26.863 26.863 0 0 0-13.745 7.334 26.786 26.786 0 0 0-7.35 13.723 26.756 26.756 0 0 0 1.529 15.487 26.811 26.811 0 0 0 9.89 12.027 26.883 26.883 0 0 0 33.897-3.332A26.777 26.777 0 0 0 55.896 29z"/>
    <path fill="#fff" d="M29.03 43.165H33v-9.97h4.994v-3.998H33V25.7a1.47 1.47 0 0 1 1.509-1.488h3.988v-3.999h-4.491a5.555 5.555 0 0 0-3.564 1.781 5.535 5.535 0 0 0-1.449 3.706v3.497h-3.988v3.998h3.988v9.97h.036zm5.012 1.004h-6V34.18h-4.025v-5.989h4.006V25.7a6.538 6.538 0 0 1 1.724-4.38 6.561 6.561 0 0 1 4.223-2.093h5.551v5.989h-4.994a.468.468 0 0 0-.503.484v2.492h4.994v5.99h-4.994v9.987h.018z"/>
    <path fill="#fff" d="M16.544 15.156a1.474 1.474 0 0 0-1.491 1.506v24.924a1.467 1.467 0 0 0 .913 1.396c.183.075.38.113.578.11h24.99a1.476 1.476 0 0 0 1.388-.928c.073-.184.108-.38.103-.578V16.734a1.467 1.467 0 0 0-.913-1.396 1.478 1.478 0 0 0-.578-.11l-24.99-.072zm24.99 28.94h-24.99a2.485 2.485 0 0 1-2.318-1.548 2.47 2.47 0 0 1-.18-.962V16.734a2.47 2.47 0 0 1 1.535-2.324c.305-.125.633-.189.963-.186h24.99a2.484 2.484 0 0 1 2.317 1.548c.124.305.185.632.18.962v24.924a2.472 2.472 0 0 1-1.534 2.324 2.484 2.484 0 0 1-.963.186v-.072z"/>
</svg>
