<?xml version="1.0" encoding="UTF-8" standalone="no"?>
<!DOCTYPE svg PUBLIC "-//W3C//DTD SVG 1.1//EN" "http://www.w3.org/Graphics/SVG/1.1/DTD/svg11.dtd">
<svg width="100%" height="100%" viewBox="0 0 144 142" version="1.1" xmlns="http://www.w3.org/2000/svg" xmlns:xlink="http://www.w3.org/1999/xlink" xml:space="preserve" xmlns:serif="http://www.serif.com/" style="fill-rule:evenodd;clip-rule:evenodd;stroke-linejoin:round;stroke-miterlimit:1.41421;">
    <g transform="matrix(1,0,0,1,-4120.66,-2187.25)">
        <g transform="matrix(4.16667,0,0,4.16667,0,0)">
            <g transform="matrix(1,0,0,1,993.681,524.996)">
                <path d="M0,9.16L-0.116,9.16C-1.266,9.217 -2.477,8.699 -3.338,7.836C-4.203,6.971 -4.723,5.818 -4.723,4.553C-4.723,3.342 -4.262,2.191 -3.338,1.269C-2.477,0.406 -1.323,-0.057 -0.059,-0.057C1.152,-0.057 2.306,0.406 3.167,1.328C4.032,2.191 4.549,3.342 4.494,4.553C4.494,5.818 3.975,6.971 3.113,7.836C2.247,8.699 1.152,9.16 0,9.16M-0.116,8.008C0.808,8.064 1.673,7.662 2.306,7.029C2.996,6.394 3.342,5.472 3.342,4.553C3.342,3.631 2.996,2.767 2.306,2.074C1.673,1.441 0.808,1.097 -0.059,1.097C-1.036,1.097 -1.897,1.441 -2.534,2.074C-3.225,2.767 -3.57,3.631 -3.57,4.553C-3.57,5.472 -3.225,6.394 -2.534,7.029C-1.897,7.662 -0.978,8.008 -0.116,8.008" style="fill:white;fill-rule:nonzero;"/>
            </g>
        </g>
        <g transform="matrix(4.16667,0,0,4.16667,0,0)">
            <g transform="matrix(1,0,0,1,995.871,535.307)">
                <path d="M0,23.611L-4.607,23.611C-5.527,23.611 -6.334,22.804 -6.334,21.884L-6.334,1.726C-6.334,0.748 -5.585,0 -4.666,0L0,0C0.924,0 1.727,0.806 1.727,1.726L1.727,21.941C1.727,22.804 0.924,23.611 0,23.611M-4.666,1.152C-4.953,1.152 -5.182,1.439 -5.182,1.726L-5.182,21.884C-5.182,22.172 -4.895,22.461 -4.607,22.461L0,22.461C0.287,22.461 0.578,22.23 0.578,21.941L0.578,1.726C0.578,1.439 0.287,1.152 0,1.152L-4.666,1.152Z" style="fill:white;fill-rule:nonzero;"/>
            </g>
        </g>
        <g transform="matrix(4.16667,0,0,4.16667,0,0)">
            <g transform="matrix(1,0,0,1,1022.36,534.732)">
                <path d="M0,24.186L-5.76,24.186C-6.338,24.186 -6.913,23.61 -6.913,23.036L-6.913,10.653C-6.913,9.618 -7.142,8.811 -7.721,8.291C-8.353,7.659 -9.214,7.313 -10.138,7.313C-11.924,7.313 -13.305,8.811 -13.305,10.709L-13.305,23.151C-13.305,23.784 -13.938,24.186 -14.457,24.186L-20.791,24.186C-21.308,24.186 -21.944,23.784 -21.944,23.151L-21.944,1.668C-21.944,1.034 -21.308,0.575 -20.791,0.575L-15.031,0.575C-14.457,0.575 -13.879,1.151 -13.879,1.727L-13.879,2.536C-12.498,0.979 -10.367,0 -8.119,0L-6.913,0C-2.364,0 1.152,3.569 1.152,8.176L1.152,23.036C1.152,23.61 0.574,24.186 0,24.186M-5.701,23.036L-0.059,23.036L0,22.975L0,8.176C0,4.262 -2.997,1.151 -6.854,1.151L-8.065,1.151C-10.196,1.151 -12.211,2.188 -13.363,3.801L-13.422,3.858L-14.974,5.413L-14.974,1.784L-15.031,1.727L-20.733,1.727L-20.733,23.036L-14.399,23.036L-14.399,10.709C-14.399,8.176 -12.498,6.219 -10.08,6.161C-8.873,6.161 -7.721,6.622 -6.854,7.487C-6.105,8.233 -5.76,9.27 -5.76,10.653L-5.701,23.036C-5.76,22.975 -5.701,23.036 -5.701,23.036" style="fill:white;fill-rule:nonzero;"/>
            </g>
        </g>
    </g>
</svg>
