<svg xmlns="http://www.w3.org/2000/svg" viewBox="0 0 116.88 39.94"><defs><style>.cls-1{fill:#fff;}</style></defs><title>logo_white</title><g id="Слой_2" data-name="Слой 2"><g id="Layer_1" data-name="Layer 1"><path class="cls-1" d="M23.12,36.23H14.28a.18.18,0,0,1-.12,0L3.65,26.37a.16.16,0,0,1-.06-.13V13.75a.16.16,0,0,1,.06-.13L14.16,3.76a.21.21,0,0,1,.13,0h8.82a.16.16,0,0,1,.13.06l8.37,8a.18.18,0,0,0,.23,0L34.73,10a.17.17,0,0,0,0-.28L25,.37A1.35,1.35,0,0,0,24.06,0H13.35a1.33,1.33,0,0,0-.9.36L.45,11.61a1.38,1.38,0,0,0-.45,1V27.35a1.38,1.38,0,0,0,.45,1l12,11.21a1.32,1.32,0,0,0,.9.35H24.06a1.34,1.34,0,0,0,.91-.36l9.82-9.32a.19.19,0,0,0,0-.29l-2.89-1.78a.18.18,0,0,0-.23,0l-8.38,8a.21.21,0,0,1-.13,0"/><path class="cls-1" d="M22.57,5H18.2a.19.19,0,0,0-.13.32l9.48,9a.2.2,0,0,0,.23,0l2.89-1.79a.18.18,0,0,0,0-.29L23.49,5.33A1.37,1.37,0,0,0,22.57,5"/><path class="cls-1" d="M20.82,30,13.4,22.85l-.49-.46a.16.16,0,0,1-.06-.13V17.7a.24.24,0,0,1,.05-.13l4.91-4.71a.17.17,0,0,0,0-.26l-2.37-2.25a.19.19,0,0,0-.26,0L9.55,15.7a1,1,0,0,0-.29.69v7.19a1,1,0,0,0,.17.55v0l7.4,7.11,3.41,3.28.41.39a.19.19,0,0,0,.13,0h1.81a1.28,1.28,0,0,0,.9-.37l7.24-6.87a.17.17,0,0,0,0-.28l-2.9-1.79a.2.2,0,0,0-.22,0l-5.52,5.25a.19.19,0,0,1-.26,0l-1-.93"/><path class="cls-1" d="M22.05,29.59l4.59-4.36a.18.18,0,0,0,0-.29l-2.89-1.79a.2.2,0,0,0-.23,0l-4.07,3.91a.19.19,0,0,0,0,.26l2.36,2.24a.19.19,0,0,0,.26,0"/><path class="cls-1" d="M16.45,5.11A.58.58,0,0,0,16.07,5H14.63a1.34,1.34,0,0,0-.75.35L5.07,13.58a1.44,1.44,0,0,0-.45,1V25.36a1.44,1.44,0,0,0,.45,1l8.81,8.22a1.33,1.33,0,0,0,.9.36h4.13a.18.18,0,0,0,.14-.31L8.2,24.35V15.87a.52.52,0,0,1,.17-.38L15.21,9.1a.18.18,0,0,1,.25,0l8.05,7.66a.21.21,0,0,0,.23,0L26.55,15a.17.17,0,0,0,0-.28L20.2,8.68Z"/><rect class="cls-1" x="43.33" y="9.97" width="3.91" height="20.02"/><polygon class="cls-1" points="67.95 29.98 60.03 17.7 60.03 29.98 56.12 29.98 56.12 9.97 59.61 9.97 67.53 22.23 67.53 9.97 71.44 9.97 71.44 29.98 67.95 29.98"/><path class="cls-1" d="M92.83,28.07A7.28,7.28,0,0,1,87.55,30H80.32V10h7.23a7.28,7.28,0,0,1,5.28,1.91c2.25,2.25,2,5,2,8s.22,5.93-2,8.18M90.11,14.69a3.52,3.52,0,0,0-2.93-1.23h-3v13h3a3.5,3.5,0,0,0,2.93-1.24c.73-.9.84-2.33.84-5.37s-.11-4.3-.84-5.2"/><polygon class="cls-1" points="112.41 29.98 108.53 23.01 104.68 29.98 100.21 29.98 106.42 19.72 100.6 9.96 105.04 9.96 108.53 16.43 112.04 9.96 116.46 9.96 110.64 19.72 116.88 29.98 112.41 29.98"/></g></g></svg>