<svg width="49" height="35" viewBox="0 0 49 35" fill="none" xmlns="http://www.w3.org/2000/svg">
<path d="M48.1393 0.684363C48.1347 0.670637 48.1247 0.660219 48.1196 0.646738C48.1051 0.608868 48.0835 0.577248 48.0647 0.541706C48.0268 0.470009 47.9845 0.403706 47.9316 0.344142C47.9035 0.312523 47.8747 0.284947 47.8429 0.257004C47.7822 0.203814 47.7164 0.160796 47.6448 0.123538C47.6103 0.1054 47.5791 0.0855454 47.5424 0.0715738C47.4304 0.0286786 47.3125 0 47.1877 0H1.00399C0.87923 0 0.76133 0.0286786 0.649312 0.0715738C0.612606 0.0855454 0.581414 0.1054 0.546915 0.123538C0.475341 0.160796 0.409466 0.203814 0.348861 0.257004C0.316996 0.284947 0.288195 0.312523 0.260129 0.344142C0.207245 0.403706 0.164902 0.470009 0.12697 0.541706C0.108219 0.577248 0.0865871 0.608867 0.0721253 0.646738C0.0669778 0.660219 0.0570508 0.670637 0.0524548 0.684363C0.0174032 0.78817 0.00110301 0.894673 0.000735347 1.00032L0 1.00399V33.4858C0 34.0407 0.449542 34.4897 1.00399 34.4897H47.1877C47.7422 34.4897 48.1917 34.0407 48.1917 33.4858V1.00399L48.191 1.00032C48.1906 0.894673 48.1743 0.78817 48.1393 0.684363ZM44.2032 2.00799L24.0959 17.2611L3.98852 2.00799H44.2032ZM2.00799 32.4818V29.3306H8.70063C9.25508 29.3306 9.70462 28.8815 9.70462 28.3266C9.70462 27.7716 9.25508 27.3226 8.70063 27.3226H2.00799V24.6939H6.42154C6.97599 24.6939 7.42554 24.2449 7.42554 23.6899C7.42554 23.135 6.97599 22.686 6.42154 22.686H2.00799V3.02595L23.489 19.321C23.6684 19.4573 23.8821 19.5249 24.0959 19.5249C24.3096 19.5249 24.5233 19.4573 24.7028 19.321L46.1837 3.02595V32.4818H2.00799Z" fill="white"/>
</svg>
