<svg xmlns="http://www.w3.org/2000/svg" width="30" height="30" fill="none" viewBox="0 0 30 30">
    <path fill="#000" fill-opacity="0" d="M5 25V5h20v20z"/>
    <ellipse cx="15" cy="15" fill="url(#a)" rx="10" ry="10"/>
    <ellipse cx="15" cy="15" fill="#6C5ED6" rx="10" ry="10"/>
    <path stroke="#fff" stroke-opacity=".2" stroke-width="5" d="M15 27.5c6.904 0 12.5-5.596 12.5-12.5S21.904 2.5 15 2.5 2.5 8.096 2.5 15 8.096 27.5 15 27.5z"/>
    <path fill="#fff" d="M21.638 11.65c0 .2-.096.3-.191.5l-7.475 7.7c-.096.1-.288.2-.48.2-.191 0-.287-.1-.383-.2l-4.216-4.4a.782.782 0 0 1-.192-.5c0-.2.096-.4.192-.5l.862-1c.192 0 .288-.1.48-.1.191 0 .383.1.479.2l2.779 2.9 6.037-6.3c.096-.1.287-.2.48-.2.19 0 .382.1.478.2l.863 1c.192.1.287.3.287.5z"/>
    <defs>
        <linearGradient id="a" x1="25" x2="5" y1="5" y2="25" gradientUnits="userSpaceOnUse">
            <stop stop-color="#A388ED"/>
            <stop offset="1" stop-color="#EBA5DF"/>
        </linearGradient>
    </defs>
</svg>
