<svg xmlns="http://www.w3.org/2000/svg" xmlns:xlink="http://www.w3.org/1999/xlink" viewBox="0 0 577.84 112.82"><defs><style>.cls-1,.cls-16{fill:#fff;}.cls-1,.cls-10,.cls-11,.cls-12,.cls-13,.cls-14,.cls-2,.cls-21,.cls-22,.cls-23,.cls-4,.cls-5,.cls-6,.cls-7,.cls-8,.cls-9{fill-rule:evenodd;}.cls-2{fill:url(#linear-gradient);}.cls-3{fill:url(#linear-gradient-2);}.cls-4{fill:url(#linear-gradient-3);}.cls-5{fill:url(#linear-gradient-4);}.cls-6{fill:url(#linear-gradient-5);}.cls-7{fill:url(#linear-gradient-6);}.cls-8{fill:url(#linear-gradient-7);}.cls-9{fill:url(#linear-gradient-8);}.cls-10{fill:url(#linear-gradient-9);}.cls-11{fill:url(#linear-gradient-10);}.cls-12{fill:#ffe3e3;}.cls-13{fill:url(#linear-gradient-11);}.cls-14{fill:url(#linear-gradient-12);}.cls-15{fill:url(#linear-gradient-13);}.cls-17{fill:url(#linear-gradient-14);}.cls-18{fill:url(#linear-gradient-15);}.cls-19{fill:url(#linear-gradient-16);}.cls-20{fill:url(#linear-gradient-17);}.cls-21{fill:url(#linear-gradient-18);}.cls-22{fill:url(#linear-gradient-19);}.cls-23{fill:url(#linear-gradient-20);}.cls-24{fill:none;stroke:#fff;stroke-miterlimit:10;}.cls-25{fill:url(#linear-gradient-21);}</style><linearGradient id="linear-gradient" x1="688.89" y1="405.87" x2="706.85" y2="405.87" gradientTransform="translate(-202.63 -248.09) rotate(-4.98)" gradientUnits="userSpaceOnUse"><stop offset="0" stop-color="#2e1d68"/><stop offset="0.12" stop-color="#32226d"/><stop offset="0.28" stop-color="#3f317a"/><stop offset="0.44" stop-color="#55498f"/><stop offset="0.62" stop-color="#726bad"/><stop offset="0.67" stop-color="#7c77b7"/><stop offset="0.73" stop-color="#8083bd"/><stop offset="0.85" stop-color="#8aa2ce"/><stop offset="1" stop-color="#9ad3e7"/></linearGradient><linearGradient id="linear-gradient-2" x1="681.33" y1="390.81" x2="696.85" y2="390.81" gradientTransform="translate(119.13 -603.15) rotate(30.23)" gradientUnits="userSpaceOnUse"><stop offset="0" stop-color="#9ad3e7"/><stop offset="0.42" stop-color="#6a96b8"/><stop offset="0.78" stop-color="#5a92b6"/></linearGradient><linearGradient id="linear-gradient-3" x1="687.29" y1="390.57" x2="718.95" y2="390.57" gradientTransform="translate(-202.63 -248.09) rotate(-4.98)" xlink:href="#linear-gradient-2"/><linearGradient id="linear-gradient-4" x1="646.77" y1="363.91" x2="671.87" y2="363.91" gradientTransform="translate(-202.63 -248.09) rotate(-4.98)" xlink:href="#linear-gradient-2"/><linearGradient id="linear-gradient-5" x1="530.24" y1="373.62" x2="741.66" y2="373.62" gradientTransform="translate(-202.63 -248.09) rotate(-4.98)" xlink:href="#linear-gradient-2"/><linearGradient id="linear-gradient-6" x1="656.3" y1="370.27" x2="711.1" y2="370.27" gradientTransform="translate(-202.63 -248.09) rotate(-4.98)" xlink:href="#linear-gradient-2"/><linearGradient id="linear-gradient-7" x1="718.25" y1="360.13" x2="749.21" y2="360.13" gradientTransform="translate(-202.63 -248.09) rotate(-4.98)" xlink:href="#linear-gradient-2"/><linearGradient id="linear-gradient-8" x1="734.91" y1="356.66" x2="742.41" y2="356.66" gradientTransform="translate(-202.63 -248.09) rotate(-4.98)" xlink:href="#linear-gradient-2"/><linearGradient id="linear-gradient-9" x1="530.24" y1="377.72" x2="749.17" y2="377.72" gradientTransform="translate(-202.63 -248.09) rotate(-4.98)" xlink:href="#linear-gradient-2"/><linearGradient id="linear-gradient-10" x1="733.08" y1="361.58" x2="749.17" y2="361.58" gradientTransform="translate(-202.63 -248.09) rotate(-4.98)" xlink:href="#linear-gradient-2"/><linearGradient id="linear-gradient-11" x1="745.22" y1="357.98" x2="749.21" y2="357.98" gradientTransform="translate(-202.63 -248.09) rotate(-4.98)" xlink:href="#linear-gradient-2"/><linearGradient id="linear-gradient-12" x1="680.07" y1="412.41" x2="699.99" y2="412.41" xlink:href="#linear-gradient"/><linearGradient id="linear-gradient-13" x1="680" y1="399.89" x2="692.4" y2="399.89" gradientTransform="translate(-23.44 -492.47) rotate(17.02)" xlink:href="#linear-gradient-2"/><linearGradient id="linear-gradient-14" x1="627.97" y1="356.46" x2="653.11" y2="356.46" gradientTransform="translate(-202.63 -248.09) rotate(-4.98)" xlink:href="#linear-gradient-2"/><linearGradient id="linear-gradient-15" x1="622.62" y1="358.87" x2="660.46" y2="358.87" gradientTransform="translate(-202.63 -248.09) rotate(-4.98)" xlink:href="#linear-gradient-2"/><linearGradient id="linear-gradient-16" x1="686.89" y1="342.21" x2="692.13" y2="342.21" gradientTransform="translate(-202.63 -248.09) rotate(-4.98)" xlink:href="#linear-gradient-2"/><linearGradient id="linear-gradient-17" x1="674.3" y1="344.22" x2="682.28" y2="344.22" gradientTransform="translate(-202.63 -248.09) rotate(-4.98)" xlink:href="#linear-gradient-2"/><linearGradient id="linear-gradient-18" x1="506.97" y1="383.16" x2="582.35" y2="383.16" gradientTransform="translate(-202.63 -248.09) rotate(-4.98)" xlink:href="#linear-gradient-2"/><linearGradient id="linear-gradient-19" x1="495.85" y1="388.12" x2="563.39" y2="388.12" gradientTransform="translate(-202.63 -248.09) rotate(-4.98)" xlink:href="#linear-gradient-2"/><linearGradient id="linear-gradient-20" x1="495.85" y1="387.62" x2="563.38" y2="387.62" gradientTransform="translate(-202.63 -248.09) rotate(-4.98)" xlink:href="#linear-gradient-2"/><linearGradient id="linear-gradient-21" x1="0" y1="59.28" x2="300.86" y2="59.28" gradientTransform="matrix(1, 0, 0, 1, 0, 0)" xlink:href="#linear-gradient-2"/></defs><title>Samolet</title><g id="Слой_2" data-name="Слой 2"><g id="Layer_1" data-name="Layer 1"><path class="cls-1" d="M392.74,79.18c-6.79,3.31-14.24,2-26.1-6.78s-25.3-15.08-30.41-8.7.32,24.47,5.25,30.75,17.57,7.54,47.09,5S422.41,76.05,392.74,79.18Z"/><path class="cls-2" d="M528.59,104.62a9,9,0,1,0-9.72-8.17A9,9,0,0,0,528.59,104.62Z"/><path class="cls-1" d="M528.23,100.49a4.84,4.84,0,1,0-5.24-4.4A4.85,4.85,0,0,0,528.23,100.49Z"/><rect class="cls-3" x="515.28" y="70.27" width="4.96" height="22.3" transform="translate(47.78 313.41) rotate(-35.21)"/><polygon class="cls-4" points="546.25 64.37 543.69 62.28 517.19 95.56 519.76 97.66 546.25 64.37"/><path class="cls-5" d="M492.58,49a1.33,1.33,0,0,0-1.21,1.44v0c-.41,1.12-1.83,4.3-4.95,4.42-3.63.13-2.94-2.57-3.83-3.87a4.71,4.71,0,1,0-6,1.3c-2.1,3.09-3.4,8.57-2.45,15.93,1.17,9.17,25-1.61,25-1.61s-6.89-5.26-6.33-9.66A43.85,43.85,0,0,1,494,50.66h0a1.24,1.24,0,0,0,0-.43A1.34,1.34,0,0,0,492.58,49Z"/><path class="cls-6" d="M567.31,44.91c1.58,8-10.42,24.33-67.11,36.49s-136.35,22.87-140.2,18c-3.38-4.22,55.12-32.88,97.27-46.32,1,5.23,2.75,8.93,6.24,7.77,5.85-1.94,26.86-7.49,35.52-10,7.34-2.09,7.22-5,7.1-8.77C538.21,37.07,565.67,36.53,567.31,44.91Z"/><path class="cls-7" d="M538.87,70.13c-9.67,3.9-22.3,7.76-38.67,11.27q-5.54,1.18-11.33,2.35l-6.28-28.28C488.9,53.74,495.18,52,499,50.93c7.34-2.09,7.22-5,7.1-8.77,5-.8,9.93-1.48,14.65-2Z"/><path class="cls-8" d="M558.31,42.29c-8.37,2.25-14.59,6.18-13.89,8.77s8,2.87,16.41.62,14.59-6.18,13.89-8.77S566.68,40,558.31,42.29Z"/><path class="cls-9" d="M567.74,40.78a40.54,40.54,0,0,0-7.44,1c.5,1.8.93,3.37.94,3.49,0,.28,6.71-.58,6.71-.58Z"/><path class="cls-10" d="M567.42,45.74h0l-.06,0h0l0,0H567l0,0h-.35l0,0h-.22l0,0h-.66v0h0l0,0,0,0v0h0l0,0,0,0h0l0,0,0,0,0,0h0l0,0-.08.09h0l0,.06-.05,0-.06.07-.06.06-.06.07-.06.07-.07.07-.07.07-.06.07h0l-.08.08-.16.17-.09.09h0l-.08.08-.09.1-.1.09-.1.1-.1.1-.11.11-.11.1-.11.11,0,0-.21.2h0l-.12.12h0l-.22.21,0,0-.14.12,0,0-.11.1-.15.13-.14.13-.15.13h0l-.15.13L562,50l-.15.13-.26.22-.2.16-.27.23-.23.19-.33.26-.15.12-.41.32-.16.13c-8,6.16-25.09,16.17-57.41,22.5C453,83.9,389.22,95.46,367.89,93.53l-1.7-.16c-4.59,3-6.95,5.14-6.19,6.08,3.85,4.82,83.52-5.9,140.2-18,47.05-10.09,63.32-23,66.59-31.74,4.63-1.95,7.77-4.29,8-6.15C571.38,44.53,568.92,45.27,567.42,45.74Z"/><path class="cls-11" d="M567.42,45.74h0l-.06,0h0l0,0H567l0,0h-.35l0,0h-.22l0,0h-.66v0h0l0,0,0,0v0h0l0,0,0,0h0l0,0,0,0,0,0h0l0,0-.08.09h0l0,.06-.05,0-.06.07-.06.06-.06.07-.06.07-.07.07-.07.07-.06.07h0l-.08.08-.16.17-.09.09h0l-.08.08-.09.1-.1.09-.1.1-.1.1-.11.11-.11.1-.11.11,0,0-.21.2h0l-.12.12h0l-.22.21,0,0-.14.12,0,0-.11.1-.15.13-.14.13-.15.13h0l-.15.13L562,50l-.15.13-.26.22-.2.16-.27.23-.23.19-.33.26-.15.12-.41.32-.16.13-.43.32c.49-.11,1-.23,1.47-.37a47.18,47.18,0,0,0,6-2l.21-.09.22-.09.42-.19.2-.09.21-.09h0l.2-.09.2-.09c.86-.42,1.65-.84,2.36-1.27h0l.46-.29,0,0,.14-.09.15-.1.11-.08.06,0,.12-.08.14-.1.11-.08.06,0,.1-.07h0l.14-.1.25-.19.12-.11.11-.09h0c.15-.13.3-.26.43-.39l.1-.1.1-.1h0l.1-.09.09-.1.08-.09h0l.23-.28h0l.19-.27v0a2.63,2.63,0,0,0,.16-.26v0l0-.08,0-.09,0-.08v0l0-.08h0l0-.09,0-.08v0l0-.07v0l0-.15h0l0-.09C571.38,44.53,568.92,45.27,567.42,45.74Z"/><path class="cls-12" d="M560.52,12.2a266.32,266.32,0,0,0,6.79,32.71,266.91,266.91,0,0,0,10.53,31.7,265.94,265.94,0,0,0-6.79-32.71A265.69,265.69,0,0,0,560.52,12.2Z"/><path class="cls-13" d="M572.22,46.72c1.84-1.36,2.8-2.7,2.5-3.81s-1.8-1.79-4.08-2a10.53,10.53,0,0,0,1.58,5.84Z"/><path class="cls-14" d="M521.44,112.78a10,10,0,1,0-10.79-9.06A10,10,0,0,0,521.44,112.78Z"/><path class="cls-1" d="M521,108.2a5.37,5.37,0,1,0-5.81-4.88A5.39,5.39,0,0,0,521,108.2Z"/><path class="cls-1" d="M523.81,21.63c2-.28,2.1,1-1.33,2S486.21,35.1,481.93,35.81s-17,2.65-25.65,1.06S406,25.55,402.56,24.51s-5.95-1.16-2.44-3.13S447.71,3.69,454.58,1.92s12.58-3.26,17.05,0,34,17.77,36.3,19.57S519.5,22.24,523.81,21.63Z"/><rect class="cls-15" x="513.19" y="77.64" width="4.96" height="26.17" transform="translate(3.56 199.75) rotate(-22)"/><polygon class="cls-1" points="447.3 25.13 443.2 25.94 454.18 88.56 458.28 87.74 447.3 25.13"/><rect class="cls-16" x="481.2" y="14.03" width="4.19" height="68.56" transform="translate(-0.14 95.2) rotate(-11.25)"/><polygon class="cls-17" points="474.54 15.1 456.94 87.43 458.28 87.74 475.89 15.41 474.54 15.1"/><polygon class="cls-18" points="446.21 25.97 487.94 82.34 489.03 81.49 447.3 25.13 446.21 25.97"/><path class="cls-1" d="M499.06,29.57l-3.26.61,4.09,20.49A16.93,16.93,0,0,0,503,49.36Z"/><path class="cls-1" d="M518.35,24.14l-3.26.61,3.13,15.68,3.3-.4Z"/><polygon class="cls-19" points="515.09 24.75 512.06 41.26 512.92 41.14 515.9 24.94 515.09 24.75"/><polygon class="cls-20" points="498.47 30.34 506.58 42.09 507.49 41.95 499.12 29.83 498.47 30.34"/><path class="cls-1" d="M518.55,77.05c-8.44.13-31.37,2.33-41.9,3.85S452.28,87.45,441,92.05s-23.26,10.07-23.73,11.52,5.85.29,14-1,39.76-9.9,45.69-11S522.19,77.33,518.55,77.05Z"/><path class="cls-21" d="M334.43,75.31c.91,7.23,4.07,15.34,7.05,19.14,4.94,6.27,17.57,7.54,47.09,5,11.88-1,19.67-5,22.82-9.22-19,2.67-34.79,4.13-43.5,3.34C346.55,91.6,342,90.1,334.75,75.88A5,5,0,0,0,334.43,75.31Z"/><path class="cls-22" d="M357.92,89.38c-18.35,4.27-32.88,9.17-32.47,10.93s15.61-.26,34-4.53,32.88-9.17,32.47-10.93S376.26,85.11,357.92,89.38Z"/><path class="cls-23" d="M357.92,89.38c-18.35,4.27-32.88,9.17-32.47,10.93l66.43-15.46C391.47,83.08,376.26,85.11,357.92,89.38Z"/><line class="cls-24" x1="336.93" y1="68.56" x2="300.86" y2="23.09"/><line class="cls-24" x1="341.48" y1="66.6" x2="300.86" y2="101.46"/><polygon class="cls-25" points="0 108.22 300.86 108.22 300.86 10.33 0 10.33 35.35 59.27 0 108.22"/><path class="cls-16" d="M128.62,79.67H117.54a.2.2,0,0,1-.15-.06L104.2,67.3a.2.2,0,0,1-.07-.16V51.47a.21.21,0,0,1,.07-.17l13.19-12.36a.23.23,0,0,1,.16-.06h11.07a.23.23,0,0,1,.16.06l10.5,10a.26.26,0,0,0,.29,0l3.63-2.25a.23.23,0,0,0,0-.35L131,34.68a1.66,1.66,0,0,0-1.15-.46H116.37a1.65,1.65,0,0,0-1.13.45L100.18,48.78a1.75,1.75,0,0,0-.56,1.29V68.53a1.75,1.75,0,0,0,.56,1.3l15.06,14.06a1.7,1.7,0,0,0,1.13.45h13.44a1.66,1.66,0,0,0,1.14-.46l12.32-11.7a.23.23,0,0,0,0-.35l-3.63-2.25a.24.24,0,0,0-.29,0l-10.52,10a.25.25,0,0,1-.17.06"/><path class="cls-16" d="M127.94,40.44h-5.49a.23.23,0,0,0-.16.39l11.9,11.28a.21.21,0,0,0,.28,0l3.63-2.25a.22.22,0,0,0,0-.35l-9-8.63a1.65,1.65,0,0,0-1.15-.47"/><path class="cls-16" d="M125.74,71.87c-3-2.87-6.88-6.63-9.31-9l-.62-.58a.2.2,0,0,1-.07-.16V56.43a.2.2,0,0,1,.07-.16L122,50.35a.24.24,0,0,0,0-.33l-3-2.82a.24.24,0,0,0-.32,0l-7.06,6.72a1.17,1.17,0,0,0-.38.86v9a1.2,1.2,0,0,0,.22.69v0l9.28,8.92L125,77.55l.52.49a.23.23,0,0,0,.15.07h2.27a1.65,1.65,0,0,0,1.14-.46L138.16,69a.23.23,0,0,0,0-.36l-3.63-2.24a.21.21,0,0,0-.28,0L127.28,73a.22.22,0,0,1-.32,0l-1.22-1.16"/><path class="cls-16" d="M127.28,71.34l5.77-5.47a.23.23,0,0,0,0-.36l-3.62-2.24a.24.24,0,0,0-.29,0L124,68.2a.22.22,0,0,0,0,.33l3,2.81a.22.22,0,0,0,.32,0"/><path class="cls-16" d="M120.26,40.63a.71.71,0,0,0-.48-.19h-1.61l-.19,0a1.62,1.62,0,0,0-.94.44L106,51.26a1.75,1.75,0,0,0-.56,1.29V66a1.77,1.77,0,0,0,.56,1.3L117,77.66a1.65,1.65,0,0,0,1.13.45h5.18a.24.24,0,0,0,.17-.4L109.9,64.77l0,0V54.13a.68.68,0,0,1,.21-.48l8.57-8a.22.22,0,0,1,.32,0l10.1,9.61a.24.24,0,0,0,.29,0l3.52-2.18a.23.23,0,0,0,0-.36l-8-7.62Z"/><rect class="cls-16" x="153.99" y="46.72" width="4.9" height="25.11"/><polygon class="cls-16" points="184.88 71.84 174.94 56.42 174.94 71.84 170.03 71.84 170.03 46.72 174.41 46.72 184.35 62.1 184.35 46.72 189.26 46.72 189.26 71.84 184.88 71.84"/><path class="cls-16" d="M216.1,69.44a9.14,9.14,0,0,1-6.63,2.4H200.4V46.72h9.07a9.14,9.14,0,0,1,6.63,2.4c2.82,2.82,2.54,6.28,2.54,10.06s.28,7.44-2.54,10.26m-3.42-16.79A4.4,4.4,0,0,0,209,51.1h-3.7V67.46H209a4.4,4.4,0,0,0,3.67-1.55c.91-1.13,1-2.92,1-6.73s-.14-5.4-1-6.53"/><polygon class="cls-16" points="240.66 71.83 235.79 63.08 230.97 71.83 225.36 71.83 233.15 58.96 225.85 46.72 231.42 46.72 235.79 54.83 240.2 46.72 245.74 46.72 238.44 58.96 246.27 71.83 240.66 71.83"/></g></g></svg>