<svg xmlns="http://www.w3.org/2000/svg" width="59" height="58" fill="none" viewBox="0 0 59 58">
    <path fill="#6C5ED6" d="M53.697 29c0-4.866-1.446-9.622-4.155-13.668a24.638 24.638 0 0 0-11.062-9.06 24.693 24.693 0 0 0-14.241-1.4 24.664 24.664 0 0 0-12.62 6.732 24.587 24.587 0 0 0-6.746 12.597 24.557 24.557 0 0 0 1.402 14.214 24.612 24.612 0 0 0 9.079 11.04 24.683 24.683 0 0 0 31.123-3.06 24.598 24.598 0 0 0 5.343-7.98A24.559 24.559 0 0 0 53.697 29z"/>
    <path stroke="#fff" stroke-opacity=".2" stroke-width="4.47" d="M55.896 29A26.767 26.767 0 0 0 51.37 14.11a26.838 26.838 0 0 0-12.05-9.87 26.893 26.893 0 0 0-15.51-1.525 26.863 26.863 0 0 0-13.745 7.334 26.786 26.786 0 0 0-7.35 13.723 26.756 26.756 0 0 0 1.529 15.487 26.811 26.811 0 0 0 9.89 12.027 26.883 26.883 0 0 0 33.897-3.332 26.798 26.798 0 0 0 5.82-8.695A26.759 26.759 0 0 0 55.897 29z"/>
    <path fill="#fff" d="M15.844 38.72a22.82 22.82 0 0 0 9.414 1.577c8.39 0 15.235-7.513 15.235-16.747v-.861h.305a3.59 3.59 0 0 0 1.886-1.793l-1.976.663a.504.504 0 0 1-.665-.25.627.627 0 0 1 .144-.718 7.625 7.625 0 0 0 1.886-2.116c-1.006.395-1.922.753-2.694 1.004a1.17 1.17 0 0 1-.917 0 9.227 9.227 0 0 0-3.593-1.327 5.718 5.718 0 0 0-3.932 1.777 5.696 5.696 0 0 0-1.565 4.015v1.416l-.611-.107c-5.587-1.004-8.695-2.474-11.947-5.684-1.527 3.855 1.635 6.545 2.695 7.316l1.24.824h-1.582a7.828 7.828 0 0 1-3.144-.555 9.182 9.182 0 0 0 5.39 4.608l-.162 1.004a8.987 8.987 0 0 0-1.203 0 7.92 7.92 0 0 1-2.947-.251c1.006 1.937 2.785 2.743 5.677 2.743h1.527l-1.257.915a12.249 12.249 0 0 1-7.186 2.582l-.018-.036zm9.414 2.581c-5.03 0-9.109-.86-10.923-2.33a.7.7 0 0 1-.216-.754.753.753 0 0 1 .665-.466c2.239.053 4.45-.505 6.395-1.614a6.133 6.133 0 0 1-3.449-1.29 6.114 6.114 0 0 1-2.084-3.031.555.555 0 0 1 .198-.646.701.701 0 0 1 .718 0c.732.451 1.585.664 2.444.61a9.884 9.884 0 0 1-4.42-5.487.645.645 0 0 1 .252-.663.648.648 0 0 1 .718 0 3.992 3.992 0 0 0 2.066.914 6.864 6.864 0 0 1-1.473-8.32l.305-.61.521.52a18.606 18.606 0 0 0 11.319 5.828v-.197a6.7 6.7 0 0 1 1.86-4.743 6.725 6.725 0 0 1 4.661-2.071c1.492.18 2.926.682 4.204 1.47h.108a38.43 38.43 0 0 0 3.593-1.434.594.594 0 0 1 .611.107.52.52 0 0 1 0 .61c-.28.8-.706 1.542-1.258 2.188l1.007-.359a.665.665 0 0 1 .61.143.697.697 0 0 1 .162.61 5.089 5.089 0 0 1-2.497 3.102v.144c0 9.79-7.312 17.751-16.26 17.751l.163.018z"/>
</svg>
