<?xml version="1.0" encoding="UTF-8" standalone="no"?>
<!DOCTYPE svg PUBLIC "-//W3C//DTD SVG 1.1//EN" "http://www.w3.org/Graphics/SVG/1.1/DTD/svg11.dtd">
<svg width="100%" height="100%" viewBox="0 0 89 144" version="1.1" xmlns="http://www.w3.org/2000/svg" xmlns:xlink="http://www.w3.org/1999/xlink" xml:space="preserve" xmlns:serif="http://www.serif.com/" style="fill-rule:evenodd;clip-rule:evenodd;stroke-linejoin:round;stroke-miterlimit:1.41421;">
    <g transform="matrix(1,0,0,1,-3786.84,-2186.05)">
        <g transform="matrix(4.16667,0,0,4.16667,0,0)">
            <g transform="matrix(1,0,0,1,922.778,524.652)">
                <path d="M0,34.555L-1.032,34.555C-1.557,34.555 -2.073,34.498 -2.589,34.438C-3.513,34.323 -4.315,34.094 -5.123,33.807C-6.446,33.287 -7.716,32.479 -8.636,31.444C-9.56,30.465 -10.079,29.485 -10.25,28.508C-10.425,27.817 -10.479,27.01 -10.479,26.088L-10.479,17.336L-10.479,14.975L-13.937,14.975L-13.937,9.1L-13.188,8.811C-12.896,8.696 -12.668,8.639 -12.381,8.467C-10.479,7.604 -9.039,6.162 -8.178,4.262C-7.774,3.457 -7.545,2.477 -7.312,1.268C-7.254,1.096 -7.254,0.922 -7.254,0.75L-7.195,0L-1.266,0L-1.266,8.639L6.222,8.639L6.222,14.975L-1.266,14.975L-1.266,23.784C-1.266,24.418 -1.207,25.11 -1.095,25.801C-0.979,26.491 -0.749,26.953 -0.346,27.241C0.175,27.586 0.808,27.817 1.439,27.873C2.076,27.932 2.704,27.932 3.458,27.758C4.724,27.53 5.53,27.182 6.45,26.549L7.315,25.973L7.315,32.655L7.028,32.826C6.625,33 6.279,33.114 5.988,33.231C5.817,33.287 5.589,33.346 5.36,33.459C3.57,34.151 2.019,34.498 0.521,34.555L0,34.555C0.058,34.555 0,34.555 0,34.555M-12.784,13.821L-9.326,13.821L-9.326,26.088C-9.326,26.953 -9.272,27.701 -9.155,28.334C-9.039,29.084 -8.577,29.832 -7.832,30.696C-7.024,31.559 -5.931,32.307 -4.72,32.711C-4.032,33 -3.284,33.17 -2.418,33.287C-1.956,33.346 -1.437,33.403 -0.979,33.403L0.403,33.403C1.843,33.346 3.229,33.055 4.897,32.367C5.185,32.25 5.414,32.192 5.589,32.137C5.759,32.078 5.988,32.02 6.163,31.963L6.163,28.104C5.302,28.565 4.553,28.739 3.629,28.909C2.825,29.084 2.019,29.139 1.269,29.026C0.403,28.909 -0.346,28.68 -1.032,28.219C-1.728,27.758 -2.131,27.01 -2.302,26.032C-2.418,25.282 -2.477,24.475 -2.477,23.842L-2.477,14.399L-2.477,13.821L5.011,13.821L5.011,9.791L-2.418,9.791L-2.418,1.153L-6.163,1.153C-6.163,1.268 -6.218,1.383 -6.218,1.442C-6.446,2.766 -6.737,3.803 -7.142,4.723C-8.178,6.91 -9.788,8.524 -11.919,9.502C-12.206,9.674 -12.497,9.791 -12.784,9.85L-12.784,13.821Z" style="fill:white;fill-rule:nonzero;"/>
            </g>
        </g>
    </g>
</svg>
