<?xml version="1.0" encoding="utf-8"?>
<!-- Generator: Adobe Illustrator 22.0.0, SVG Export Plug-In . SVG Version: 6.00 Build 0)  -->
<svg version="1.1" id="Слой_1" xmlns="http://www.w3.org/2000/svg" xmlns:xlink="http://www.w3.org/1999/xlink" x="0px" y="0px"
	 viewBox="0 0 1014 1090.5" style="enable-background:new 0 0 1014 1090.5;" xml:space="preserve">
<style type="text/css">
	.st0{opacity:0.7;}
	.st1{fill:none;stroke:#00FCC0;stroke-miterlimit:10;stroke-dasharray:4;}
	.st2{fill:#00FCC0;}
	.st3{fill:url(#path-25_1_);}
	.st4{fill:url(#path-25-2_2_);}
	.st5{fill:#45029D;stroke:#4FFFD8;stroke-width:4;stroke-miterlimit:10;}
	.st6{enable-background:new    ;}
	.st7{fill:#FFFFFF;}
</style>
<title>Orbs</title>
<desc>Created with Sketch.</desc>
<g id="Templates">
	<g id="CINDEX-DT" transform="translate(-126.000000, -7671.000000)">
		<g id="How-it-works" transform="translate(92.000000, 7402.000000)">
			<g id="Orbs" transform="translate(41.000000, 276.000000)">
				<g id="Oval-3" class="st0">
					<g>
						<path id="path-27_2_" class="st1" d="M521,777c165.7,0,300-134.3,300-300S686.7,177,521,177S221,311.3,221,477
							S355.3,777,521,777z"/>
					</g>
					<g>
						<path id="path-27_1_" class="st1" d="M521,777c165.7,0,300-134.3,300-300S686.7,177,521,177S221,311.3,221,477
							S355.3,777,521,777z"/>
					</g>
				</g>
				<g id="Oval-3_1_" class="st0">
					<g>
						<path id="path-29_2_" class="st1" d="M557,837c220.9,0,400-179.1,400-400S777.9,37,557,37S157,216.1,157,437
							S336.1,837,557,837z"/>
					</g>
					<g>
						<path id="path-29_1_" class="st1" d="M557,837c220.9,0,400-179.1,400-400S777.9,37,557,37S157,216.1,157,437
							S336.1,837,557,837z"/>
					</g>
				</g>
				<g id="Oval-3_2_" class="st0">
					<g>
						<path id="path-31_2_" class="st1" d="M500,1000c276.1,0,500-223.9,500-500S776.1,0,500,0S0,223.9,0,500S223.9,1000,500,1000z"
							/>
					</g>
					<g>
						<path id="path-31_1_" class="st1" d="M500,1000c276.1,0,500-223.9,500-500S776.1,0,500,0S0,223.9,0,500S223.9,1000,500,1000z"
							/>
					</g>
				</g>
				<g id="Investors" transform="translate(224.000000, 364.000000)">
					<g id="Inversot-Planet">
						<g id="Fill-21">
							<g>
								<polygon id="path-2_2_" class="st2" points="22.4,0.6 22.8,11.9 32.4,18 21.7,21.9 18.8,32.9 11.8,23.9 0.5,24.6 6.9,15.2 
									2.7,4.6 13.6,7.8 								"/>
							</g>
							<g>
								<polygon id="path-2_1_" class="st2" points="22.4,0.6 22.8,11.9 32.4,18 21.7,21.9 18.8,32.9 11.8,23.9 0.5,24.6 6.9,15.2 
									2.7,4.6 13.6,7.8 								"/>
							</g>
						</g>
					</g>
				</g>
				<g id="Investors2" transform="translate(624.000000, 731.000000)">
					<g id="Inversot-Planet_1_">
						<g id="Fill-21_1_">
							<g>
								<polygon id="path-4_2_" class="st2" points="22.4,0.6 22.8,11.9 32.4,18 21.7,21.9 18.8,32.9 11.8,23.9 0.5,24.6 6.9,15.2 
									2.7,4.6 13.6,7.8 								"/>
							</g>
							<g>
								<polygon id="path-4_1_" class="st2" points="22.4,0.6 22.8,11.9 32.4,18 21.7,21.9 18.8,32.9 11.8,23.9 0.5,24.6 6.9,15.2 
									2.7,4.6 13.6,7.8 								"/>
							</g>
						</g>
					</g>
				</g>
				<g id="Traders1" transform="translate(147.000000, 494.000000)">
					<g id="Trader-Planet">
						<g id="Fill-17">
							<g>
								<path id="path-7_2_" class="st2" d="M30.8,16.5c0,7.9-6.4,14.3-14.3,14.3S2.3,24.4,2.3,16.5S8.6,2.3,16.5,2.3
									S30.8,8.6,30.8,16.5"/>
							</g>
							<g>
								<path id="path-7_1_" class="st2" d="M30.8,16.5c0,7.9-6.4,14.3-14.3,14.3S2.3,24.4,2.3,16.5S8.6,2.3,16.5,2.3
									S30.8,8.6,30.8,16.5"/>
							</g>
						</g>
					</g>
				</g>
				<g id="Traders2" transform="translate(850.000000, 667.000000)">
					<g id="Trader-Planet_1_">
						<g id="Fill-17_1_">
							<g>
								<path id="path-9_2_" class="st2" d="M30.8,16.5c0,7.9-6.4,14.3-14.3,14.3S2.3,24.4,2.3,16.5S8.6,2.3,16.5,2.3
									S30.8,8.6,30.8,16.5"/>
							</g>
							<g>
								<path id="path-9_1_" class="st2" d="M30.8,16.5c0,7.9-6.4,14.3-14.3,14.3S2.3,24.4,2.3,16.5S8.6,2.3,16.5,2.3
									S30.8,8.6,30.8,16.5"/>
							</g>
						</g>
					</g>
				</g>
				<g id="CINDEX-DT_2_">
					<g id="How-it-works_2_">
						<g id="Orbs_2_">
							<g id="Cindex_2_">
								<g id="Logo-Sign_2_">
									<g id="Page-1_2_">
										<g id="Combined-Shape_2_">
											
												<radialGradient id="path-25_1_" cx="507.6844" cy="610.5499" r="102.2593" gradientTransform="matrix(1 0 0 -1 7 1085)" gradientUnits="userSpaceOnUse">
												<stop  offset="0" style="stop-color:#4FFFD8"/>
												<stop  offset="1" style="stop-color:#0087C1"/>
											</radialGradient>
											<path id="path-25_3_" class="st3" d="M545.7,563.1c0.3,0,0.5-0.1,0.7-0.3l45.8-43.5c0.3-0.3,0.8-0.4,1.2-0.1l15.8,9.8
												c0.5,0.3,0.6,0.9,0.3,1.4c0,0.1-0.1,0.1-0.1,0.2l-53.5,50.9c-1.3,1.3-3.1,2-5,2h-58.4c-1.8,0-3.6-0.7-4.9-2l-65.5-61.1
												c-1.6-1.5-2.4-3.5-2.4-5.7v-80.3c0-2.1,0.9-4.2,2.4-5.6l65.5-61.4c1.3-1.3,3.1-2,4.9-2h58.4c1.9,0,3.7,0.7,5,2l53.4,50.9
												c0.4,0.4,0.4,1,0,1.4c-0.1,0.1-0.1,0.1-0.2,0.1l-15.8,9.8c-0.4,0.3-0.9,0.2-1.2-0.1L546.4,386c-0.2-0.2-0.4-0.3-0.7-0.3
												h-48.1c-0.3,0-0.5,0.1-0.7,0.3l-57.3,53.7c-0.2,0.2-0.3,0.4-0.3,0.7v68.2c0,0.3,0.1,0.5,0.3,0.7l57.3,53.5
												c0.2,0.2,0.4,0.3,0.7,0.3L545.7,563.1L545.7,563.1z M542.7,392.5c1.9,0,3.7,0.7,5,2L587,432c0.4,0.4,0.4,1,0,1.4
												c-0.1,0.1-0.1,0.1-0.2,0.1l-15.8,9.8c-0.4,0.2-0.9,0.2-1.2-0.1l-51.7-49c-0.4-0.4-0.4-1,0-1.4c0.2-0.2,0.4-0.3,0.7-0.3
												H542.7z M533.1,529.1l5.3,5.1c0.4,0.4,1,0.4,1.4,0l30.2-28.6c0.3-0.3,0.8-0.4,1.2-0.1l15.8,9.8c0.5,0.3,0.6,0.9,0.3,1.4
												c0,0.1-0.1,0.1-0.1,0.2l-39.4,37.5c-1.3,1.3-3.1,2-5,2h-9.9c-0.3,0-0.5-0.1-0.7-0.3L530,554l-18.6-17.9l-40.3-38.8v-0.2
												c-0.6-0.9-0.9-1.9-0.9-3v-39.2c0-1.4,0.6-2.8,1.6-3.8l30.7-29.2c0.4-0.4,1-0.4,1.4,0l12.9,12.3c0.4,0.4,0.4,1,0,1.4l0,0
												L490,461.3c-0.2,0.2-0.3,0.4-0.3,0.7v24.8c0,0.3,0.1,0.5,0.3,0.7l2.7,2.5C503.3,500.3,520.2,516.7,533.1,529.1
												L533.1,529.1z M539.9,526.9c-0.4,0.4-1,0.4-1.4,0l-12.9-12.2c-0.4-0.4-0.4-1,0-1.4l0,0l22.2-21.3
												c0.3-0.3,0.8-0.4,1.2-0.1l15.8,9.8c0.5,0.3,0.6,0.9,0.3,1.4c0,0.1-0.1,0.1-0.1,0.2L539.9,526.9z M509.3,393.3l20.5,19.5
												l34.8,33.2c0.4,0.4,0.4,1,0,1.4c-0.1,0.1-0.1,0.1-0.2,0.1l-15.3,9.5c-0.4,0.3-0.9,0.2-1.2-0.1L504,415
												c-0.4-0.4-1-0.4-1.4,0l-37.2,34.9c-0.6,0.5-0.9,1.3-0.9,2.1v46.1l-0.1,0.1l59.2,56.3c0.4,0.4,0.4,1,0,1.4
												c-0.2,0.2-0.4,0.3-0.7,0.3h-22.6c-1.8,0-3.6-0.7-4.9-2l-48.1-44.8c-1.6-1.5-2.4-3.5-2.4-5.7v-58.6c0-2.1,0.9-4.2,2.4-5.6
												l48.1-45.1c1.1-1.1,2.6-1.7,4.1-1.9c0.3,0,0.6-0.1,0.8,0h7C508.1,392.5,508.8,392.8,509.3,393.3z"/>
											
												<radialGradient id="path-25-2_2_" cx="-3470.1489" cy="193.8424" r="2.33" gradientTransform="matrix(133.93 134.77 -134.77 133.93 491391.0938 442154.8438)" gradientUnits="userSpaceOnUse">
												<stop  offset="0" style="stop-color:#4FFFD8"/>
												<stop  offset="1" style="stop-color:#0087C1"/>
											</radialGradient>
											<path id="path-25-2_1_" class="st4" d="M545.7,563.1c0.3,0,0.5-0.1,0.7-0.3l45.8-43.5c0.3-0.3,0.8-0.4,1.2-0.1l15.8,9.8
												c0.5,0.3,0.6,0.9,0.3,1.4c0,0.1-0.1,0.1-0.1,0.2l-53.5,50.9c-1.3,1.3-3.1,2-5,2h-58.4c-1.8,0-3.6-0.7-4.9-2l-65.5-61.1
												c-1.6-1.5-2.4-3.5-2.4-5.7v-80.3c0-2.1,0.9-4.2,2.4-5.6l65.5-61.4c1.3-1.3,3.1-2,4.9-2h58.4c1.9,0,3.7,0.7,5,2l53.4,50.9
												c0.4,0.4,0.4,1,0,1.4c-0.1,0.1-0.1,0.1-0.2,0.1l-15.8,9.8c-0.4,0.3-0.9,0.2-1.2-0.1L546.4,386c-0.2-0.2-0.4-0.3-0.7-0.3
												h-48.1c-0.3,0-0.5,0.1-0.7,0.3l-57.3,53.7c-0.2,0.2-0.3,0.4-0.3,0.7v68.2c0,0.3,0.1,0.5,0.3,0.7l57.3,53.5
												c0.2,0.2,0.4,0.3,0.7,0.3L545.7,563.1L545.7,563.1z M542.7,392.5c1.9,0,3.7,0.7,5,2L587,432c0.4,0.4,0.4,1,0,1.4
												c-0.1,0.1-0.1,0.1-0.2,0.1l-15.8,9.8c-0.4,0.2-0.9,0.2-1.2-0.1l-51.7-49c-0.4-0.4-0.4-1,0-1.4c0.2-0.2,0.4-0.3,0.7-0.3
												H542.7z M533.1,529.1l5.3,5.1c0.4,0.4,1,0.4,1.4,0l30.2-28.6c0.3-0.3,0.8-0.4,1.2-0.1l15.8,9.8c0.5,0.3,0.6,0.9,0.3,1.4
												c0,0.1-0.1,0.1-0.1,0.2l-39.4,37.5c-1.3,1.3-3.1,2-5,2h-9.9c-0.3,0-0.5-0.1-0.7-0.3L530,554l-18.6-17.9l-40.3-38.8v-0.2
												c-0.6-0.9-0.9-1.9-0.9-3v-39.2c0-1.4,0.6-2.8,1.6-3.8l30.7-29.2c0.4-0.4,1-0.4,1.4,0l12.9,12.3c0.4,0.4,0.4,1,0,1.4l0,0
												L490,461.3c-0.2,0.2-0.3,0.4-0.3,0.7v24.8c0,0.3,0.1,0.5,0.3,0.7l2.7,2.5C503.3,500.3,520.2,516.7,533.1,529.1
												L533.1,529.1z M539.9,526.9c-0.4,0.4-1,0.4-1.4,0l-12.9-12.2c-0.4-0.4-0.4-1,0-1.4l0,0l22.2-21.3
												c0.3-0.3,0.8-0.4,1.2-0.1l15.8,9.8c0.5,0.3,0.6,0.9,0.3,1.4c0,0.1-0.1,0.1-0.1,0.2L539.9,526.9z M509.3,393.3l20.5,19.5
												l34.8,33.2c0.4,0.4,0.4,1,0,1.4c-0.1,0.1-0.1,0.1-0.2,0.1l-15.3,9.5c-0.4,0.3-0.9,0.2-1.2-0.1L504,415
												c-0.4-0.4-1-0.4-1.4,0l-37.2,34.9c-0.6,0.5-0.9,1.3-0.9,2.1v46.1l-0.1,0.1l59.2,56.3c0.4,0.4,0.4,1,0,1.4
												c-0.2,0.2-0.4,0.3-0.7,0.3h-22.6c-1.8,0-3.6-0.7-4.9-2l-48.1-44.8c-1.6-1.5-2.4-3.5-2.4-5.7v-58.6c0-2.1,0.9-4.2,2.4-5.6
												l48.1-45.1c1.1-1.1,2.6-1.7,4.1-1.9c0.3,0,0.6-0.1,0.8,0h7C508.1,392.5,508.8,392.8,509.3,393.3z"/>
										</g>
									</g>
								</g>
							</g>
						</g>
					</g>
				</g>
				<g id="Traders2-2_1_">
					<g id="Trader-Planet-2_1_">
						<g id="Fill-17-2_1_">
							<path id="path-9-3_1_" d="M78.1,746.8c0,7.9-6.4,14.3-14.3,14.3s-14.3-6.4-14.3-14.3s6.4-14.3,14.3-14.3
								C71.7,732.5,78.1,738.9,78.1,746.8L78.1,746.8"/>
							<path id="path-9-4_1_" class="st5" d="M78.1,746.8c0,7.9-6.4,14.3-14.3,14.3s-14.3-6.4-14.3-14.3s6.4-14.3,14.3-14.3
								C71.7,732.5,78.1,738.9,78.1,746.8L78.1,746.8"/>
						</g>
					</g>
				</g>
				<g id="Traders2-2_2_">
					<g id="Trader-Planet-2_2_">
						<g id="Fill-17-2_2_">
							<path id="path-9-3_2_" d="M701.4,964.1c0,7.9-6.4,14.3-14.3,14.3c-7.9,0-14.3-6.4-14.3-14.3s6.4-14.3,14.3-14.3
								C695,949.8,701.4,956.2,701.4,964.1L701.4,964.1"/>
							<path id="path-9-4_2_" class="st5" d="M701.4,964.1c0,7.9-6.4,14.3-14.3,14.3c-7.9,0-14.3-6.4-14.3-14.3s6.4-14.3,14.3-14.3
								C695,949.8,701.4,956.2,701.4,964.1L701.4,964.1"/>
						</g>
					</g>
				</g>
			</g>
		</g>
	</g>
	<g class="st6">
		<path class="st7" d="M273.7,442.4c-1.2,0-2.1-0.4-2.7-1.1s-1-1.7-1-3s0.3-2.4,1-3.1s1.6-1.1,2.8-1.1c0.4,0,0.8,0,1.2,0.1
			s0.7,0.2,0.9,0.3l-0.4,1c-0.3-0.1-0.6-0.2-0.9-0.3c-0.3-0.1-0.6-0.1-0.8-0.1c-1.6,0-2.4,1-2.4,3.1c0,1,0.2,1.7,0.6,2.3
			c0.4,0.5,1,0.8,1.8,0.8c0.7,0,1.4-0.1,2.1-0.4v1.1C275.2,442.2,274.5,442.4,273.7,442.4z"/>
		<path class="st7" d="M284.6,438.2c0,1.3-0.3,2.3-1,3.1c-0.7,0.7-1.6,1.1-2.7,1.1c-0.7,0-1.4-0.2-1.9-0.5c-0.6-0.3-1-0.8-1.3-1.4
			s-0.5-1.4-0.5-2.2c0-1.3,0.3-2.3,1-3.1c0.7-0.7,1.6-1.1,2.7-1.1s2,0.4,2.7,1.1C284.3,435.9,284.6,436.9,284.6,438.2z M278.5,438.2
			c0,1,0.2,1.8,0.6,2.3s1,0.8,1.8,0.8s1.4-0.3,1.8-0.8s0.6-1.3,0.6-2.3s-0.2-1.8-0.6-2.3s-1-0.8-1.8-0.8s-1.4,0.3-1.8,0.8
			S278.5,437.2,278.5,438.2z"/>
		<path class="st7" d="M297,442.2V437c0-0.6-0.1-1.1-0.4-1.4s-0.7-0.5-1.3-0.5c-0.8,0-1.3,0.2-1.7,0.7s-0.5,1.1-0.5,2v4.5h-1.2V437
			c0-0.6-0.1-1.1-0.4-1.4s-0.7-0.5-1.3-0.5c-0.8,0-1.3,0.2-1.7,0.7c-0.4,0.5-0.5,1.2-0.5,2.2v4.2h-1.2v-8h1l0.2,1.1h0.1
			c0.2-0.4,0.6-0.7,1-0.9c0.4-0.2,0.9-0.3,1.4-0.3c1.3,0,2.1,0.5,2.5,1.4h0.1c0.2-0.4,0.6-0.8,1-1s1-0.4,1.6-0.4
			c0.9,0,1.6,0.2,2,0.7c0.5,0.5,0.7,1.2,0.7,2.2v5.2L297,442.2L297,442.2z"/>
		<path class="st7" d="M304.1,442.4c-1.2,0-2.1-0.4-2.8-1.1s-1-1.7-1-3s0.3-2.3,1-3.1c0.6-0.8,1.5-1.1,2.6-1.1c1,0,1.8,0.3,2.4,1
			s0.9,1.5,0.9,2.6v0.8h-5.5c0,0.9,0.3,1.7,0.7,2.1c0.5,0.5,1.1,0.7,1.9,0.7c0.9,0,1.7-0.2,2.6-0.5v1.1c-0.4,0.2-0.8,0.3-1.2,0.4
			C305.1,442.3,304.6,442.4,304.1,442.4z M303.7,435.1c-0.6,0-1.2,0.2-1.5,0.6s-0.6,1-0.7,1.7h4.2c0-0.8-0.2-1.4-0.5-1.8
			C304.9,435.3,304.4,435.1,303.7,435.1z"/>
		<path class="st7" d="M312.9,432c0-0.3,0.1-0.5,0.2-0.6s0.3-0.2,0.5-0.2s0.4,0.1,0.5,0.2s0.2,0.3,0.2,0.6c0,0.3-0.1,0.5-0.2,0.6
			s-0.3,0.2-0.5,0.2s-0.4-0.1-0.5-0.2S312.9,432.3,312.9,432z M314.2,442.2H313v-8h1.2V442.2z"/>
		<path class="st7" d="M322.3,442.2V437c0-0.7-0.1-1.1-0.4-1.5s-0.8-0.5-1.4-0.5c-0.8,0-1.5,0.2-1.8,0.7S318,437,318,438v4.2h-1.2
			v-8h1l0.2,1.1h0.1c0.2-0.4,0.6-0.7,1-0.9c0.4-0.2,0.9-0.3,1.5-0.3c1,0,1.7,0.2,2.2,0.7s0.7,1.2,0.7,2.2v5.2L322.3,442.2
			L322.3,442.2z"/>
		<path class="st7" d="M336.4,442.2l-1.5-4.7c-0.1-0.3-0.3-0.9-0.5-2h-0.1c-0.2,0.9-0.4,1.5-0.5,2l-1.5,4.7H331l-2.2-8h1.3
			c0.5,2,0.9,3.6,1.2,4.6c0.3,1.1,0.4,1.8,0.5,2.1h0.1c0.1-0.3,0.1-0.6,0.3-1.1c0.1-0.4,0.2-0.8,0.3-1.1l1.5-4.6h1.3l1.4,4.6
			c0.3,0.8,0.5,1.5,0.6,2.1h0.1c0-0.2,0.1-0.4,0.2-0.8s0.6-2.3,1.5-5.9h1.3l-2.2,8L336.4,442.2L336.4,442.2z"/>
		<path class="st7" d="M341.5,432c0-0.3,0.1-0.5,0.2-0.6s0.3-0.2,0.5-0.2s0.4,0.1,0.5,0.2s0.2,0.3,0.2,0.6c0,0.3-0.1,0.5-0.2,0.6
			s-0.3,0.2-0.5,0.2s-0.4-0.1-0.5-0.2C341.5,432.5,341.5,432.3,341.5,432z M342.8,442.2h-1.2v-8h1.2V442.2z"/>
		<path class="st7" d="M347.9,441.4c0.2,0,0.4,0,0.6,0s0.4-0.1,0.5-0.1v0.9c-0.1,0.1-0.3,0.1-0.6,0.2c-0.3,0-0.5,0.1-0.7,0.1
			c-1.6,0-2.3-0.8-2.3-2.5v-4.8h-1.1v-0.6l1.1-0.5l0.5-1.7h0.7v1.9h2.3v0.9h-2.3v4.7c0,0.5,0.1,0.9,0.3,1.1S347.5,441.4,347.9,441.4
			z"/>
		<path class="st7" d="M356.1,442.2V437c0-0.7-0.1-1.1-0.4-1.5s-0.8-0.5-1.4-0.5c-0.8,0-1.5,0.2-1.8,0.7c-0.4,0.5-0.6,1.2-0.6,2.3
			v4.2h-1.2v-11.4h1.2v3.4c0,0.4,0,0.8-0.1,1h0.1c0.2-0.4,0.6-0.7,1-0.9c0.4-0.2,0.9-0.3,1.5-0.3c1,0,1.7,0.2,2.2,0.7
			s0.7,1.2,0.7,2.2v5.2L356.1,442.2L356.1,442.2z"/>
		<path class="st7" d="M273.7,460.4c-1.2,0-2.1-0.4-2.7-1.1s-1-1.7-1-3s0.3-2.4,1-3.1s1.6-1.1,2.8-1.1c0.4,0,0.8,0,1.2,0.1
			s0.7,0.2,0.9,0.3l-0.4,1c-0.3-0.1-0.6-0.2-0.9-0.3c-0.3-0.1-0.6-0.1-0.8-0.1c-1.6,0-2.4,1-2.4,3.1c0,1,0.2,1.7,0.6,2.3
			c0.4,0.5,1,0.8,1.8,0.8c0.7,0,1.4-0.1,2.1-0.4v1.1C275.2,460.2,274.5,460.4,273.7,460.4z"/>
		<path class="st7" d="M281.3,452c0.4,0,0.7,0,1,0.1l-0.2,1.1c-0.3-0.1-0.6-0.1-0.9-0.1c-0.6,0-1.2,0.3-1.7,0.8s-0.7,1.2-0.7,2v4.3
			h-1.2v-8h1l0.1,1.5h0.1c0.3-0.5,0.7-0.9,1.1-1.2S280.8,452,281.3,452z"/>
		<path class="st7" d="M282.5,452.2h1.3l1.8,4.6c0.4,1,0.6,1.8,0.7,2.3h0.1c0.1-0.2,0.2-0.7,0.4-1.3c0.2-0.6,0.9-2.5,2-5.6h1.3
			l-3.4,9.1c-0.3,0.9-0.7,1.5-1.2,1.9s-1,0.6-1.7,0.6c-0.4,0-0.7,0-1.1-0.1v-1c0.3,0.1,0.6,0.1,0.9,0.1c0.8,0,1.4-0.5,1.8-1.4
			l0.4-1.1L282.5,452.2z"/>
		<path class="st7" d="M295.1,460.4c-0.5,0-1-0.1-1.4-0.3c-0.4-0.2-0.8-0.5-1.1-0.9h-0.1c0.1,0.5,0.1,0.9,0.1,1.3v3.3h-1.2v-11.6h1
			l0.2,1.1h0.1c0.3-0.4,0.7-0.8,1.1-1s0.9-0.3,1.4-0.3c1.1,0,1.9,0.4,2.5,1.1s0.9,1.7,0.9,3.1c0,1.3-0.3,2.3-0.9,3.1
			C296.9,460,296.1,460.4,295.1,460.4z M294.9,453.1c-0.8,0-1.4,0.2-1.8,0.7s-0.6,1.2-0.6,2.2v0.3c0,1.1,0.2,1.9,0.6,2.4
			s1,0.7,1.8,0.7c0.7,0,1.2-0.3,1.6-0.8c0.4-0.6,0.6-1.3,0.6-2.3s-0.2-1.8-0.6-2.3C296.2,453.3,295.6,453.1,294.9,453.1z"/>
		<path class="st7" d="M303.1,459.4c0.2,0,0.4,0,0.6,0s0.4-0.1,0.5-0.1v0.9c-0.1,0.1-0.3,0.1-0.6,0.2c-0.3,0-0.5,0.1-0.7,0.1
			c-1.6,0-2.3-0.8-2.3-2.5v-4.8h-1.1v-0.6l1.1-0.5l0.5-1.7h0.7v1.9h2.3v0.9h-2.3v4.7c0,0.5,0.1,0.9,0.3,1.1S302.7,459.4,303.1,459.4
			z"/>
		<path class="st7" d="M312.8,456.2c0,1.3-0.3,2.3-1,3.1c-0.7,0.7-1.6,1.1-2.7,1.1c-0.7,0-1.4-0.2-1.9-0.5c-0.6-0.3-1-0.8-1.3-1.4
			s-0.5-1.4-0.5-2.2c0-1.3,0.3-2.3,1-3.1c0.7-0.7,1.6-1.1,2.7-1.1s2,0.4,2.7,1.1C312.4,453.9,312.8,454.9,312.8,456.2z M306.6,456.2
			c0,1,0.2,1.8,0.6,2.3s1,0.8,1.8,0.8s1.4-0.3,1.8-0.8s0.6-1.3,0.6-2.3s-0.2-1.8-0.6-2.3s-1-0.8-1.8-0.8s-1.4,0.3-1.8,0.8
			S306.6,455.2,306.6,456.2z"/>
		<path class="st7" d="M323.7,460.2l-0.2-1.1h-0.1c-0.4,0.5-0.8,0.8-1.2,1c-0.4,0.2-0.9,0.3-1.5,0.3c-0.8,0-1.4-0.2-1.9-0.6
			s-0.7-1-0.7-1.8c0-1.6,1.3-2.5,3.9-2.5h1.4V455c0-0.6-0.1-1.1-0.4-1.4s-0.7-0.5-1.3-0.5c-0.7,0-1.4,0.2-2.3,0.6l-0.4-0.9
			c0.4-0.2,0.8-0.4,1.3-0.5s0.9-0.2,1.4-0.2c1,0,1.7,0.2,2.1,0.6c0.5,0.4,0.7,1.1,0.7,2v5.5H323.7z M321,459.4
			c0.8,0,1.4-0.2,1.8-0.6s0.6-1,0.6-1.7v-0.7l-1.2,0.1c-1,0-1.7,0.2-2.1,0.5s-0.6,0.7-0.6,1.2c0,0.4,0.1,0.8,0.4,1
			C320.1,459.2,320.5,459.4,321,459.4z"/>
		<path class="st7" d="M332.3,458c0,0.7-0.3,1.3-0.8,1.7s-1.3,0.6-2.3,0.6c-1.1,0-1.9-0.2-2.5-0.5v-1.1c0.4,0.2,0.8,0.3,1.2,0.5
			c0.4,0.1,0.9,0.2,1.3,0.2c0.6,0,1.1-0.1,1.5-0.3c0.3-0.2,0.5-0.5,0.5-0.9c0-0.3-0.1-0.6-0.4-0.8c-0.3-0.2-0.8-0.5-1.6-0.8
			c-0.7-0.3-1.3-0.5-1.6-0.7c-0.3-0.2-0.5-0.4-0.7-0.7c-0.2-0.3-0.2-0.6-0.2-0.9c0-0.7,0.3-1.2,0.8-1.5c0.5-0.4,1.3-0.6,2.2-0.6
			c0.9,0,1.7,0.2,2.5,0.5l-0.4,1c-0.8-0.3-1.5-0.5-2.2-0.5c-0.6,0-1,0.1-1.3,0.3s-0.4,0.4-0.4,0.7c0,0.2,0.1,0.4,0.2,0.5
			c0.1,0.2,0.3,0.3,0.5,0.4s0.7,0.3,1.4,0.6c1,0.3,1.6,0.7,1.9,1C332.1,457,332.3,457.5,332.3,458z"/>
		<path class="st7" d="M339.5,458c0,0.7-0.3,1.3-0.8,1.7s-1.3,0.6-2.3,0.6c-1.1,0-1.9-0.2-2.5-0.5v-1.1c0.4,0.2,0.8,0.3,1.2,0.5
			c0.4,0.1,0.9,0.2,1.3,0.2c0.6,0,1.1-0.1,1.5-0.3c0.3-0.2,0.5-0.5,0.5-0.9c0-0.3-0.1-0.6-0.4-0.8c-0.3-0.2-0.8-0.5-1.6-0.8
			c-0.7-0.3-1.3-0.5-1.6-0.7c-0.3-0.2-0.5-0.4-0.7-0.7c-0.2-0.3-0.2-0.6-0.2-0.9c0-0.7,0.3-1.2,0.8-1.5c0.5-0.4,1.3-0.6,2.2-0.6
			c0.9,0,1.7,0.2,2.5,0.5l-0.4,1c-0.8-0.3-1.5-0.5-2.2-0.5c-0.6,0-1,0.1-1.3,0.3s-0.4,0.4-0.4,0.7c0,0.2,0.1,0.4,0.2,0.5
			c0.1,0.2,0.3,0.3,0.5,0.4s0.7,0.3,1.4,0.6c1,0.3,1.6,0.7,1.9,1C339.3,457,339.5,457.5,339.5,458z"/>
		<path class="st7" d="M344.8,460.4c-1.2,0-2.1-0.4-2.8-1.1s-1-1.7-1-3s0.3-2.3,1-3.1c0.6-0.8,1.5-1.1,2.6-1.1c1,0,1.8,0.3,2.4,1
			s0.9,1.5,0.9,2.6v0.8h-5.5c0,0.9,0.3,1.7,0.7,2.1c0.5,0.5,1.1,0.7,1.9,0.7c0.9,0,1.7-0.2,2.6-0.5v1.1c-0.4,0.2-0.8,0.3-1.2,0.4
			C345.8,460.3,345.4,460.4,344.8,460.4z M344.5,453.1c-0.6,0-1.2,0.2-1.5,0.6s-0.6,1-0.7,1.7h4.2c0-0.8-0.2-1.4-0.5-1.8
			C345.6,453.3,345.1,453.1,344.5,453.1z"/>
		<path class="st7" d="M352.5,459.4c0.2,0,0.4,0,0.6,0s0.4-0.1,0.5-0.1v0.9c-0.1,0.1-0.3,0.1-0.6,0.2c-0.3,0-0.5,0.1-0.7,0.1
			c-1.6,0-2.3-0.8-2.3-2.5v-4.8h-1.1v-0.6l1.1-0.5l0.5-1.7h0.7v1.9h2.3v0.9h-2.3v4.7c0,0.5,0.1,0.9,0.3,1.1S352.1,459.4,352.5,459.4
			z"/>
		<path class="st7" d="M360.3,458c0,0.7-0.3,1.3-0.8,1.7s-1.3,0.6-2.3,0.6c-1.1,0-1.9-0.2-2.5-0.5v-1.1c0.4,0.2,0.8,0.3,1.2,0.5
			c0.4,0.1,0.9,0.2,1.3,0.2c0.6,0,1.1-0.1,1.5-0.3c0.3-0.2,0.5-0.5,0.5-0.9c0-0.3-0.1-0.6-0.4-0.8c-0.3-0.2-0.8-0.5-1.6-0.8
			c-0.7-0.3-1.3-0.5-1.6-0.7c-0.3-0.2-0.5-0.4-0.7-0.7c-0.2-0.3-0.2-0.6-0.2-0.9c0-0.7,0.3-1.2,0.8-1.5c0.5-0.4,1.3-0.6,2.2-0.6
			c0.9,0,1.7,0.2,2.5,0.5l-0.4,1c-0.8-0.3-1.5-0.5-2.2-0.5c-0.6,0-1,0.1-1.3,0.3s-0.4,0.4-0.4,0.7c0,0.2,0.1,0.4,0.2,0.5
			c0.1,0.2,0.3,0.3,0.5,0.4s0.7,0.3,1.4,0.6c1,0.3,1.6,0.7,1.9,1C360.2,457,360.3,457.5,360.3,458z"/>
	</g>
	<g class="st6">
		<path class="st2" d="M270.9,418.4v-12.1h1.4v12.1H270.9z"/>
		<path class="st2" d="M281.7,418.4v-5.9c0-0.7-0.2-1.3-0.5-1.7c-0.3-0.4-0.9-0.5-1.6-0.5c-1,0-1.6,0.3-2.1,0.8
			c-0.4,0.5-0.7,1.4-0.7,2.5v4.8h-1.4v-9.1h1.1l0.2,1.2h0.1c0.3-0.4,0.7-0.8,1.2-1s1.1-0.4,1.7-0.4c1.1,0,1.9,0.3,2.5,0.8
			s0.8,1.4,0.8,2.5v5.9h-1.3L281.7,418.4L281.7,418.4z"/>
		<path class="st2" d="M287.9,418.4l-3.5-9.1h1.5l2,5.4c0.4,1.3,0.7,2.1,0.8,2.5h0.1c0.1-0.3,0.3-0.9,0.6-1.8c0.3-0.9,1-2.9,2.2-6
			h1.5l-3.5,9.1h-1.7V418.4z"/>
		<path class="st2" d="M298.2,418.6c-1.3,0-2.4-0.4-3.2-1.2c-0.8-0.8-1.2-2-1.2-3.4c0-1.5,0.4-2.6,1.1-3.5s1.7-1.3,2.9-1.3
			c1.1,0,2,0.4,2.7,1.1s1,1.7,1,3v0.9h-6.3c0,1.1,0.3,1.9,0.8,2.4c0.5,0.6,1.2,0.8,2.2,0.8s1.9-0.2,2.9-0.6v1.2
			c-0.5,0.2-0.9,0.4-1.4,0.5C299.4,418.5,298.8,418.6,298.2,418.6z M297.9,410.3c-0.7,0-1.3,0.2-1.7,0.7c-0.4,0.5-0.7,1.1-0.8,2h4.8
			c0-0.9-0.2-1.5-0.6-2C299.1,410.5,298.6,410.3,297.9,410.3z"/>
		<path class="st2" d="M309.8,415.9c0,0.8-0.3,1.5-0.9,2s-1.5,0.7-2.7,0.7s-2.1-0.2-2.8-0.6v-1.3c0.4,0.2,0.9,0.4,1.4,0.5
			s1,0.2,1.4,0.2c0.7,0,1.3-0.1,1.7-0.3c0.4-0.2,0.6-0.6,0.6-1s-0.2-0.7-0.5-0.9c-0.3-0.3-0.9-0.5-1.8-0.9c-0.8-0.3-1.4-0.6-1.8-0.8
			c-0.4-0.2-0.6-0.5-0.8-0.8c-0.2-0.3-0.3-0.7-0.3-1.1c0-0.7,0.3-1.3,0.9-1.8c0.6-0.4,1.4-0.6,2.5-0.6c1,0,1.9,0.2,2.9,0.6l-0.5,1.1
			c-0.9-0.4-1.7-0.6-2.5-0.6c-0.7,0-1.1,0.1-1.5,0.3s-0.5,0.5-0.5,0.8c0,0.2,0.1,0.5,0.2,0.6c0.1,0.2,0.3,0.3,0.6,0.5
			c0.3,0.2,0.8,0.4,1.6,0.7c1.1,0.4,1.8,0.8,2.2,1.2C309.6,414.8,309.8,415.3,309.8,415.9z"/>
		<path class="st2" d="M315,417.4c0.2,0,0.5,0,0.7-0.1c0.2,0,0.4-0.1,0.5-0.1v1.1c-0.1,0.1-0.4,0.1-0.7,0.2c-0.3,0-0.6,0.1-0.8,0.1
			c-1.8,0-2.6-0.9-2.6-2.8v-5.4h-1.3v-0.7l1.3-0.6l0.6-1.9h0.8v2.1h2.6v1.1h-2.6v5.4c0,0.5,0.1,1,0.4,1.3
			C314.2,417.3,314.5,417.4,315,417.4z"/>
		<path class="st2" d="M325.9,413.8c0,1.5-0.4,2.6-1.1,3.5s-1.8,1.2-3.1,1.2c-0.8,0-1.5-0.2-2.2-0.6c-0.6-0.4-1.1-0.9-1.5-1.6
			c-0.3-0.7-0.5-1.5-0.5-2.5c0-1.5,0.4-2.6,1.1-3.5c0.7-0.8,1.8-1.2,3.1-1.2c1.3,0,2.3,0.4,3,1.3
			C325.5,411.3,325.9,412.4,325.9,413.8z M319,413.8c0,1.2,0.2,2,0.7,2.7c0.5,0.6,1.1,0.9,2,0.9s1.6-0.3,2.1-0.9s0.7-1.5,0.7-2.7
			s-0.2-2-0.7-2.6s-1.2-0.9-2.1-0.9s-1.6,0.3-2,0.9C319.2,411.8,319,412.7,319,413.8z"/>
		<path class="st2" d="M332.5,409.1c0.4,0,0.8,0,1.1,0.1l-0.2,1.3c-0.4-0.1-0.7-0.1-1-0.1c-0.7,0-1.4,0.3-1.9,0.9s-0.8,1.3-0.8,2.2
			v4.9h-1.4v-9.1h1.1l0.2,1.7h0.1c0.3-0.6,0.7-1,1.2-1.4C331.4,409.3,331.9,409.1,332.5,409.1z"/>
		<path class="st2" d="M341.1,415.9c0,0.8-0.3,1.5-0.9,2s-1.5,0.7-2.7,0.7s-2.1-0.2-2.8-0.6v-1.3c0.4,0.2,0.9,0.4,1.4,0.5
			s1,0.2,1.4,0.2c0.7,0,1.3-0.1,1.7-0.3c0.4-0.2,0.6-0.6,0.6-1s-0.2-0.7-0.5-0.9c-0.3-0.3-0.9-0.5-1.8-0.9c-0.8-0.3-1.4-0.6-1.8-0.8
			c-0.4-0.2-0.6-0.5-0.8-0.8c-0.2-0.3-0.3-0.7-0.3-1.1c0-0.7,0.3-1.3,0.9-1.8c0.6-0.4,1.4-0.6,2.5-0.6c1,0,1.9,0.2,2.9,0.6l-0.5,1.1
			c-0.9-0.4-1.7-0.6-2.5-0.6c-0.7,0-1.1,0.1-1.5,0.3s-0.5,0.5-0.5,0.8c0,0.2,0.1,0.5,0.2,0.6c0.1,0.2,0.3,0.3,0.6,0.5
			c0.3,0.2,0.8,0.4,1.6,0.7c1.1,0.4,1.8,0.8,2.2,1.2S341.1,415.3,341.1,415.9z"/>
	</g>
	<g class="st6">
		<path class="st7" d="M203.2,566.9c-1.2,0-2.1-0.4-2.7-1.1c-0.6-0.7-1-1.7-1-3s0.3-2.4,1-3.1c0.6-0.7,1.6-1.1,2.8-1.1
			c0.4,0,0.8,0,1.2,0.1s0.7,0.2,0.9,0.3l-0.4,1c-0.3-0.1-0.6-0.2-0.9-0.3s-0.6-0.1-0.8-0.1c-1.6,0-2.4,1-2.4,3.1
			c0,1,0.2,1.7,0.6,2.3c0.4,0.5,1,0.8,1.8,0.8c0.7,0,1.4-0.1,2.1-0.4v1.1C204.7,566.7,204.1,566.9,203.2,566.9z"/>
		<path class="st7" d="M214.1,562.7c0,1.3-0.3,2.3-1,3.1s-1.6,1.1-2.7,1.1c-0.7,0-1.4-0.2-1.9-0.5c-0.6-0.3-1-0.8-1.3-1.4
			c-0.3-0.6-0.5-1.4-0.5-2.2c0-1.3,0.3-2.3,1-3.1s1.6-1.1,2.7-1.1c1.1,0,2,0.4,2.7,1.1C213.8,560.4,214.1,561.4,214.1,562.7z
			 M208,562.7c0,1,0.2,1.8,0.6,2.3c0.4,0.5,1,0.8,1.8,0.8s1.4-0.3,1.8-0.8c0.4-0.5,0.6-1.3,0.6-2.3s-0.2-1.8-0.6-2.3
			c-0.4-0.5-1-0.8-1.8-0.8s-1.4,0.3-1.8,0.8S208,561.6,208,562.7z"/>
		<path class="st7" d="M226.5,566.7v-5.2c0-0.6-0.1-1.1-0.4-1.4c-0.3-0.3-0.7-0.5-1.3-0.5c-0.8,0-1.3,0.2-1.7,0.7
			c-0.4,0.4-0.5,1.1-0.5,2v4.5h-1.2v-5.2c0-0.6-0.1-1.1-0.4-1.4c-0.3-0.3-0.7-0.5-1.3-0.5c-0.8,0-1.3,0.2-1.7,0.7s-0.5,1.2-0.5,2.2
			v4.2h-1.2v-8h1l0.2,1.1h0.1c0.2-0.4,0.6-0.7,1-0.9s0.9-0.3,1.4-0.3c1.3,0,2.1,0.5,2.5,1.4h0.1c0.2-0.4,0.6-0.8,1-1s1-0.4,1.6-0.4
			c0.9,0,1.6,0.2,2,0.7c0.5,0.5,0.7,1.2,0.7,2.2v5.2L226.5,566.7L226.5,566.7z"/>
		<path class="st7" d="M233.6,566.9c-1.2,0-2.1-0.4-2.8-1.1c-0.7-0.7-1-1.7-1-3s0.3-2.3,1-3.1c0.6-0.8,1.5-1.1,2.6-1.1
			c1,0,1.8,0.3,2.4,1c0.6,0.7,0.9,1.5,0.9,2.6v0.8H231c0,0.9,0.3,1.7,0.7,2.1c0.5,0.5,1.1,0.7,1.9,0.7c0.9,0,1.7-0.2,2.6-0.5v1.1
			c-0.4,0.2-0.8,0.3-1.2,0.4C234.6,566.8,234.1,566.9,233.6,566.9z M233.2,559.5c-0.6,0-1.2,0.2-1.5,0.6c-0.4,0.4-0.6,1-0.7,1.7h4.2
			c0-0.8-0.2-1.4-0.5-1.8C234.4,559.8,233.9,559.5,233.2,559.5z"/>
		<path class="st7" d="M242.4,556.5c0-0.3,0.1-0.5,0.2-0.6c0.1-0.1,0.3-0.2,0.5-0.2s0.4,0.1,0.5,0.2c0.1,0.1,0.2,0.3,0.2,0.6
			s-0.1,0.5-0.2,0.6c-0.1,0.1-0.3,0.2-0.5,0.2s-0.4-0.1-0.5-0.2C242.5,557,242.4,556.8,242.4,556.5z M243.7,566.7h-1.2v-8h1.2V566.7
			z"/>
		<path class="st7" d="M251.8,566.7v-5.2c0-0.7-0.1-1.1-0.4-1.5s-0.8-0.5-1.4-0.5c-0.8,0-1.5,0.2-1.8,0.7c-0.4,0.5-0.6,1.2-0.6,2.2
			v4.2h-1.2v-8h1l0.2,1.1h0.1c0.2-0.4,0.6-0.7,1-0.9s0.9-0.3,1.5-0.3c1,0,1.7,0.2,2.2,0.7s0.7,1.2,0.7,2.2v5.2L251.8,566.7
			L251.8,566.7z"/>
		<path class="st7" d="M206.6,584.7l-1.5-4.7c-0.1-0.3-0.3-0.9-0.5-2h-0.1c-0.2,0.9-0.4,1.5-0.5,2l-1.5,4.7h-1.4l-2.2-8h1.3
			c0.5,2,0.9,3.6,1.2,4.6c0.3,1.1,0.4,1.8,0.5,2.1h0.1c0.1-0.3,0.1-0.6,0.3-1.1c0.1-0.4,0.2-0.8,0.3-1.1l1.5-4.6h1.3l1.4,4.6
			c0.3,0.8,0.5,1.5,0.6,2.1h0.1c0-0.2,0.1-0.4,0.2-0.8c0.1-0.4,0.6-2.3,1.5-5.9h1.3l-2.2,8h-1.7L206.6,584.7L206.6,584.7z"/>
		<path class="st7" d="M211.6,574.5c0-0.3,0.1-0.5,0.2-0.6c0.1-0.1,0.3-0.2,0.5-0.2s0.4,0.1,0.5,0.2c0.1,0.1,0.2,0.3,0.2,0.6
			s-0.1,0.5-0.2,0.6c-0.1,0.1-0.3,0.2-0.5,0.2s-0.4-0.1-0.5-0.2C211.7,575,211.6,574.8,211.6,574.5z M212.9,584.7h-1.2v-8h1.2V584.7
			z"/>
		<path class="st7" d="M218.1,583.8c0.2,0,0.4,0,0.6,0s0.4-0.1,0.5-0.1v0.9c-0.1,0.1-0.3,0.1-0.6,0.2c-0.3,0-0.5,0.1-0.7,0.1
			c-1.6,0-2.3-0.8-2.3-2.5v-4.8h-1.2V577l1.2-0.5l0.5-1.7h0.7v1.9h2.3v0.9h-2.3v4.7c0,0.5,0.1,0.9,0.3,1.1
			C217.4,583.7,217.7,583.8,218.1,583.8z"/>
		<path class="st7" d="M226.3,584.7v-5.2c0-0.7-0.1-1.1-0.4-1.5s-0.8-0.5-1.4-0.5c-0.8,0-1.5,0.2-1.8,0.7c-0.4,0.5-0.6,1.2-0.6,2.3
			v4.2h-1.2v-11.4h1.2v3.4c0,0.4,0,0.8-0.1,1h0.1c0.2-0.4,0.6-0.7,1-0.9s0.9-0.3,1.5-0.3c1,0,1.7,0.2,2.2,0.7s0.7,1.2,0.7,2.2v5.2
			L226.3,584.7L226.3,584.7z"/>
		<path class="st7" d="M237.3,584.9c-1.2,0-2.1-0.4-2.8-1.1c-0.7-0.7-1-1.7-1-3s0.3-2.3,1-3.1c0.6-0.8,1.5-1.1,2.6-1.1
			c1,0,1.8,0.3,2.4,1c0.6,0.7,0.9,1.5,0.9,2.6v0.8h-5.5c0,0.9,0.3,1.7,0.7,2.1c0.5,0.5,1.1,0.7,1.9,0.7c0.9,0,1.7-0.2,2.6-0.5v1.1
			c-0.4,0.2-0.8,0.3-1.2,0.4C238.3,584.8,237.8,584.9,237.3,584.9z M236.9,577.5c-0.6,0-1.2,0.2-1.5,0.6c-0.4,0.4-0.6,1-0.7,1.7h4.2
			c0-0.8-0.2-1.4-0.5-1.8C238.1,577.8,237.6,577.5,236.9,577.5z"/>
		<path class="st7" d="M244.2,580.6l-2.8-3.9h1.4l2.1,3.1l2.1-3.1h1.4l-2.8,3.9l2.9,4.1h-1.4l-2.2-3.3l-2.3,3.3h-1.4L244.2,580.6z"
			/>
		<path class="st7" d="M253.9,584.9c-0.5,0-1-0.1-1.4-0.3s-0.8-0.5-1.1-0.9h-0.1c0.1,0.5,0.1,0.9,0.1,1.3v3.3h-1.2v-11.6h1l0.2,1.1
			h0.1c0.3-0.4,0.7-0.8,1.1-1s0.9-0.3,1.4-0.3c1.1,0,1.9,0.4,2.5,1.1c0.6,0.7,0.9,1.7,0.9,3.1c0,1.3-0.3,2.3-0.9,3.1
			C255.8,584.5,254.9,584.9,253.9,584.9z M253.7,577.6c-0.8,0-1.4,0.2-1.8,0.7c-0.4,0.5-0.6,1.2-0.6,2.2v0.3c0,1.1,0.2,1.9,0.6,2.4
			s1,0.7,1.8,0.7c0.7,0,1.2-0.3,1.6-0.8c0.4-0.6,0.6-1.3,0.6-2.3s-0.2-1.8-0.6-2.3C255,577.8,254.4,577.6,253.7,577.6z"/>
		<path class="st7" d="M262.7,584.9c-1.2,0-2.1-0.4-2.8-1.1c-0.7-0.7-1-1.7-1-3s0.3-2.3,1-3.1c0.6-0.8,1.5-1.1,2.6-1.1
			c1,0,1.8,0.3,2.4,1s0.9,1.5,0.9,2.6v0.8h-5.5c0,0.9,0.3,1.7,0.7,2.1c0.5,0.5,1.1,0.7,1.9,0.7c0.9,0,1.7-0.2,2.6-0.5v1.1
			c-0.4,0.2-0.8,0.3-1.2,0.4C263.7,584.8,263.3,584.9,262.7,584.9z M262.4,577.5c-0.6,0-1.2,0.2-1.5,0.6c-0.4,0.4-0.6,1-0.7,1.7h4.2
			c0-0.8-0.2-1.4-0.5-1.8C263.5,577.8,263.1,577.5,262.4,577.5z"/>
		<path class="st7" d="M271.4,576.5c0.4,0,0.7,0,1,0.1l-0.2,1.1c-0.3-0.1-0.6-0.1-0.9-0.1c-0.6,0-1.2,0.3-1.7,0.8s-0.7,1.2-0.7,2
			v4.3h-1.2v-8h1l0.1,1.5h0.1c0.3-0.5,0.7-0.9,1.1-1.2S270.9,576.5,271.4,576.5z"/>
		<path class="st7" d="M276.5,583.8c0.2,0,0.4,0,0.6,0s0.4-0.1,0.5-0.1v0.9c-0.1,0.1-0.3,0.1-0.6,0.2c-0.3,0-0.5,0.1-0.7,0.1
			c-1.6,0-2.3-0.8-2.3-2.5v-4.8h-1.2V577l1.2-0.5l0.5-1.7h0.7v1.9h2.3v0.9h-2.3v4.7c0,0.5,0.1,0.9,0.3,1.1
			C275.8,583.7,276.1,583.8,276.5,583.8z"/>
		<path class="st7" d="M279.1,574.5c0-0.3,0.1-0.5,0.2-0.6s0.3-0.2,0.5-0.2s0.4,0.1,0.5,0.2c0.1,0.1,0.2,0.3,0.2,0.6
			s-0.1,0.5-0.2,0.6s-0.3,0.2-0.5,0.2s-0.4-0.1-0.5-0.2C279.2,575,279.1,574.8,279.1,574.5z M280.4,584.7h-1.2v-8h1.2V584.7z"/>
		<path class="st7" d="M288.2,582.5c0,0.7-0.3,1.3-0.8,1.7c-0.6,0.4-1.3,0.6-2.3,0.6c-1.1,0-1.9-0.2-2.5-0.5v-1.1
			c0.4,0.2,0.8,0.3,1.2,0.5c0.4,0.1,0.9,0.2,1.3,0.2c0.6,0,1.1-0.1,1.5-0.3s0.5-0.5,0.5-0.9c0-0.3-0.1-0.6-0.4-0.8s-0.8-0.5-1.6-0.8
			c-0.7-0.3-1.3-0.5-1.6-0.7c-0.3-0.2-0.5-0.4-0.7-0.7s-0.2-0.6-0.2-0.9c0-0.7,0.3-1.2,0.8-1.5s1.3-0.6,2.2-0.6
			c0.9,0,1.7,0.2,2.5,0.5l-0.4,1c-0.8-0.3-1.5-0.5-2.2-0.5c-0.6,0-1,0.1-1.3,0.3s-0.4,0.4-0.4,0.7c0,0.2,0.1,0.4,0.2,0.5
			c0.1,0.2,0.3,0.3,0.5,0.4s0.7,0.3,1.4,0.6c1,0.3,1.6,0.7,1.9,1C288,581.5,288.2,582,288.2,582.5z"/>
		<path class="st7" d="M293.5,584.9c-1.2,0-2.1-0.4-2.8-1.1c-0.7-0.7-1-1.7-1-3s0.3-2.3,1-3.1c0.6-0.8,1.5-1.1,2.6-1.1
			c1,0,1.8,0.3,2.4,1s0.9,1.5,0.9,2.6v0.8H291c0,0.9,0.3,1.7,0.7,2.1c0.5,0.5,1.1,0.7,1.9,0.7c0.9,0,1.7-0.2,2.6-0.5v1.1
			c-0.4,0.2-0.8,0.3-1.2,0.4C294.5,584.8,294.1,584.9,293.5,584.9z M293.2,577.5c-0.6,0-1.2,0.2-1.5,0.6c-0.4,0.4-0.6,1-0.7,1.7h4.2
			c0-0.8-0.2-1.4-0.5-1.8C294.3,577.8,293.8,577.5,293.2,577.5z"/>
	</g>
	<g class="st6">
		<path class="st2" d="M204.1,542.9h-1.4V532h-3.8v-1.3h9.1v1.3h-3.8v10.9H204.1z"/>
		<path class="st2" d="M213.8,533.6c0.4,0,0.8,0,1.1,0.1l-0.2,1.3c-0.4-0.1-0.7-0.1-1-0.1c-0.7,0-1.4,0.3-1.9,0.9
			c-0.5,0.6-0.8,1.3-0.8,2.2v4.9h-1.4v-9.1h1.1l0.2,1.7h0.1c0.3-0.6,0.7-1,1.2-1.4S213.2,533.6,213.8,533.6z"/>
		<path class="st2" d="M222.1,542.9l-0.3-1.3h-0.1c-0.5,0.6-0.9,1-1.4,1.2s-1,0.3-1.7,0.3c-0.9,0-1.6-0.2-2.1-0.7s-0.8-1.1-0.8-2
			c0-1.8,1.5-2.8,4.4-2.9h1.5v-0.6c0-0.7-0.2-1.2-0.5-1.6c-0.3-0.3-0.8-0.5-1.5-0.5c-0.8,0-1.6,0.2-2.6,0.7l-0.4-1.1
			c0.4-0.2,0.9-0.4,1.5-0.6c0.5-0.1,1.1-0.2,1.6-0.2c1.1,0,1.9,0.2,2.4,0.7s0.8,1.3,0.8,2.3v6.2L222.1,542.9L222.1,542.9z
			 M219,541.9c0.9,0,1.5-0.2,2-0.7s0.7-1.1,0.7-2v-0.8l-1.4,0.1c-1.1,0-1.9,0.2-2.4,0.5s-0.7,0.8-0.7,1.4c0,0.5,0.2,0.9,0.5,1.1
			C218.1,541.8,218.5,541.9,219,541.9z"/>
		<path class="st2" d="M232.2,541.7L232.2,541.7c-0.7,0.9-1.7,1.4-2.9,1.4s-2.1-0.4-2.8-1.2s-1-2-1-3.5s0.3-2.7,1-3.5
			s1.6-1.2,2.8-1.2s2.2,0.4,2.8,1.3h0.1l-0.1-0.7v-0.6V530h1.4v12.9h-1.1L232.2,541.7z M229.4,541.9c0.9,0,1.6-0.3,2-0.8
			s0.6-1.3,0.6-2.5v-0.3c0-1.3-0.2-2.2-0.6-2.8c-0.4-0.6-1.1-0.8-2.1-0.8c-0.8,0-1.4,0.3-1.9,0.9c-0.4,0.6-0.6,1.5-0.6,2.7
			s0.2,2,0.6,2.6S228.6,541.9,229.4,541.9z"/>
		<path class="st2" d="M240.3,543.1c-1.3,0-2.4-0.4-3.2-1.2s-1.2-2-1.2-3.4c0-1.5,0.4-2.6,1.1-3.5c0.7-0.9,1.7-1.3,2.9-1.3
			c1.1,0,2,0.4,2.7,1.1s1,1.7,1,3v0.9h-6.3c0,1.1,0.3,1.9,0.8,2.4c0.5,0.6,1.2,0.8,2.2,0.8s1.9-0.2,2.9-0.6v1.2
			c-0.5,0.2-0.9,0.4-1.4,0.5C241.4,543,240.9,543.1,240.3,543.1z M239.9,534.8c-0.7,0-1.3,0.2-1.7,0.7s-0.7,1.1-0.8,2h4.8
			c0-0.9-0.2-1.5-0.6-2S240.6,534.8,239.9,534.8z"/>
		<path class="st2" d="M250.1,533.6c0.4,0,0.8,0,1.1,0.1L251,535c-0.4-0.1-0.7-0.1-1-0.1c-0.7,0-1.4,0.3-1.9,0.9
			c-0.5,0.6-0.8,1.3-0.8,2.2v4.9H246v-9.1h1.1l0.2,1.7h0.1c0.3-0.6,0.7-1,1.2-1.4S249.5,533.6,250.1,533.6z"/>
		<path class="st2" d="M258.8,540.4c0,0.8-0.3,1.5-0.9,2s-1.5,0.7-2.7,0.7s-2.1-0.2-2.8-0.6v-1.3c0.4,0.2,0.9,0.4,1.4,0.5
			s1,0.2,1.4,0.2c0.7,0,1.3-0.1,1.7-0.3s0.6-0.6,0.6-1s-0.2-0.7-0.5-0.9c-0.3-0.3-0.9-0.5-1.8-0.9c-0.8-0.3-1.4-0.6-1.8-0.8
			c-0.4-0.2-0.6-0.5-0.8-0.8s-0.3-0.7-0.3-1.1c0-0.7,0.3-1.3,0.9-1.8s1.4-0.6,2.5-0.6c1,0,1.9,0.2,2.9,0.6l-0.5,1.1
			c-0.9-0.4-1.7-0.6-2.5-0.6c-0.7,0-1.1,0.1-1.5,0.3s-0.5,0.5-0.5,0.8c0,0.2,0.1,0.5,0.2,0.6c0.1,0.2,0.3,0.3,0.6,0.5
			s0.8,0.4,1.6,0.7c1.1,0.4,1.8,0.8,2.2,1.2C258.6,539.3,258.8,539.8,258.8,540.4z"/>
	</g>
	<g class="st6">
		<path class="st7" d="M98.7,806.5c-1.2,0-2.1-0.4-2.7-1.1c-0.6-0.7-1-1.7-1-3s0.3-2.4,1-3.1s1.6-1.1,2.8-1.1c0.4,0,0.8,0,1.2,0.1
			c0.4,0.1,0.7,0.2,0.9,0.3l-0.4,1c-0.3-0.1-0.6-0.2-0.9-0.3s-0.6-0.1-0.8-0.1c-1.6,0-2.4,1-2.4,3.1c0,1,0.2,1.7,0.6,2.3
			c0.4,0.5,1,0.8,1.8,0.8c0.7,0,1.4-0.1,2.1-0.4v1.1C100.2,806.4,99.6,806.5,98.7,806.5z"/>
		<path class="st7" d="M109.6,802.4c0,1.3-0.3,2.3-1,3.1c-0.7,0.7-1.6,1.1-2.7,1.1c-0.7,0-1.4-0.2-1.9-0.5c-0.6-0.3-1-0.8-1.3-1.4
			c-0.3-0.6-0.5-1.4-0.5-2.2c0-1.3,0.3-2.3,1-3.1c0.7-0.7,1.6-1.1,2.7-1.1s2,0.4,2.7,1.1C109.3,800.1,109.6,801.1,109.6,802.4z
			 M103.5,802.4c0,1,0.2,1.8,0.6,2.3s1,0.8,1.8,0.8s1.4-0.3,1.8-0.8s0.6-1.3,0.6-2.3s-0.2-1.8-0.6-2.3s-1-0.8-1.8-0.8
			s-1.4,0.3-1.8,0.8S103.5,801.3,103.5,802.4z"/>
		<path class="st7" d="M122,806.4v-5.2c0-0.6-0.1-1.1-0.4-1.4s-0.7-0.5-1.3-0.5c-0.8,0-1.3,0.2-1.7,0.7c-0.4,0.4-0.5,1.1-0.5,2v4.5
			h-1.2v-5.3c0-0.6-0.1-1.1-0.4-1.4s-0.7-0.5-1.3-0.5c-0.8,0-1.3,0.2-1.7,0.7c-0.4,0.5-0.5,1.2-0.5,2.2v4.2h-1.2v-8h1l0.2,1.1h0.1
			c0.2-0.4,0.6-0.7,1-0.9s0.9-0.3,1.4-0.3c1.3,0,2.1,0.5,2.5,1.4h0.1c0.2-0.4,0.6-0.8,1-1s1-0.4,1.6-0.4c0.9,0,1.6,0.2,2,0.7
			c0.5,0.5,0.7,1.2,0.7,2.2v5.2H122z"/>
		<path class="st7" d="M129.1,806.5c-1.2,0-2.1-0.4-2.8-1.1s-1-1.7-1-3s0.3-2.3,1-3.1c0.6-0.8,1.5-1.1,2.6-1.1c1,0,1.8,0.3,2.4,1
			s0.9,1.5,0.9,2.6v0.8h-5.7c0,0.9,0.3,1.7,0.7,2.1c0.5,0.5,1.1,0.7,1.9,0.7c0.9,0,1.7-0.2,2.6-0.5v1.1c-0.4,0.2-0.8,0.3-1.2,0.4
			C130.1,806.5,129.6,806.5,129.1,806.5z M128.7,799.2c-0.6,0-1.2,0.2-1.5,0.6s-0.6,1-0.7,1.7h4.2c0-0.8-0.2-1.4-0.5-1.8
			S129.4,799.2,128.7,799.2z"/>
		<path class="st7" d="M137.9,796.2c0-0.3,0.1-0.5,0.2-0.6s0.3-0.2,0.5-0.2s0.4,0.1,0.5,0.2c0.1,0.1,0.2,0.3,0.2,0.6
			s-0.1,0.5-0.2,0.6s-0.3,0.2-0.5,0.2s-0.4-0.1-0.5-0.2S137.9,796.5,137.9,796.2z M139.2,806.4H138v-8h1.2V806.4z"/>
		<path class="st7" d="M147.3,806.4v-5.2c0-0.7-0.1-1.1-0.4-1.5s-0.8-0.5-1.4-0.5c-0.8,0-1.5,0.2-1.8,0.7c-0.4,0.5-0.6,1.2-0.6,2.3
			v4.2h-1.2v-8h1l0.2,1.1h0.1c0.2-0.4,0.6-0.7,1-0.9s0.9-0.3,1.5-0.3c1,0,1.7,0.2,2.2,0.7s0.7,1.2,0.7,2.2v5.2H147.3z"/>
		<path class="st7" d="M102.1,824.4l-1.5-4.7c-0.1-0.3-0.3-0.9-0.5-2H100c-0.2,0.9-0.4,1.5-0.5,2l-1.5,4.7h-1.4l-2.2-8h1.3
			c0.5,2,0.9,3.6,1.2,4.6c0.3,1.1,0.4,1.8,0.5,2.1h0.1c0.1-0.3,0.1-0.6,0.3-1.1c0.1-0.4,0.2-0.8,0.3-1.1l1.5-4.6h1.3l1.4,4.6
			c0.3,0.8,0.5,1.5,0.6,2.1h0.1c0-0.2,0.1-0.4,0.2-0.8c0.1-0.4,0.6-2.3,1.5-5.9h1.3l-2.2,8h-1.7L102.1,824.4L102.1,824.4z"/>
		<path class="st7" d="M107.1,814.2c0-0.3,0.1-0.5,0.2-0.6s0.3-0.2,0.5-0.2s0.4,0.1,0.5,0.2c0.1,0.1,0.2,0.3,0.2,0.6
			s-0.1,0.5-0.2,0.6s-0.3,0.2-0.5,0.2s-0.4-0.1-0.5-0.2S107.1,814.5,107.1,814.2z M108.4,824.4h-1.2v-8h1.2V824.4z"/>
		<path class="st7" d="M113.6,823.5c0.2,0,0.4,0,0.6,0s0.4-0.1,0.5-0.1v0.9c-0.1,0.1-0.3,0.1-0.6,0.2c-0.3,0-0.5,0.1-0.7,0.1
			c-1.6,0-2.3-0.8-2.3-2.5v-4.8H110v-0.6l1.1-0.5l0.5-1.7h0.7v1.9h2.3v0.9h-2.3v4.7c0,0.5,0.1,0.9,0.3,1.1
			C112.9,823.4,113.2,823.5,113.6,823.5z"/>
		<path class="st7" d="M121.8,824.4v-5.2c0-0.7-0.1-1.1-0.4-1.5s-0.8-0.5-1.4-0.5c-0.8,0-1.5,0.2-1.8,0.7c-0.4,0.5-0.6,1.2-0.6,2.3
			v4.2h-1.2V813h1.2v3.4c0,0.4,0,0.8-0.1,1h0.1c0.2-0.4,0.6-0.7,1-0.9s0.9-0.3,1.5-0.3c1,0,1.7,0.2,2.2,0.7s0.7,1.2,0.7,2.2v5.2
			L121.8,824.4L121.8,824.4z"/>
		<path class="st7" d="M136.3,824.4L135,821h-4.3l-1.3,3.4h-1.3l4.2-10.8h1l4.2,10.8H136.3z M134.6,819.9l-1.2-3.3
			c-0.2-0.4-0.3-0.9-0.5-1.5c-0.1,0.5-0.3,1-0.5,1.5l-1.3,3.3H134.6z"/>
		<path class="st7" d="M142.6,824.5c-0.5,0-1-0.1-1.4-0.3s-0.8-0.5-1.1-0.9H140c0.1,0.5,0.1,0.9,0.1,1.3v3.3h-1.2v-11.6h1l0.2,1.1
			h0.1c0.3-0.4,0.7-0.8,1.1-1s0.9-0.3,1.4-0.3c1.1,0,1.9,0.4,2.5,1.1c0.6,0.7,0.9,1.7,0.9,3.1c0,1.3-0.3,2.3-0.9,3.1
			C144.5,824.2,143.7,824.5,142.6,824.5z M142.4,817.3c-0.8,0-1.4,0.2-1.8,0.7c-0.4,0.5-0.6,1.2-0.6,2.2v0.3c0,1.1,0.2,1.9,0.6,2.4
			c0.4,0.5,1,0.7,1.8,0.7c0.7,0,1.2-0.3,1.6-0.8c0.4-0.6,0.6-1.3,0.6-2.3s-0.2-1.8-0.6-2.3C143.7,817.5,143.2,817.3,142.4,817.3z"/>
		<path class="st7" d="M151.8,824.5c-0.5,0-1-0.1-1.4-0.3s-0.8-0.5-1.1-0.9h-0.1c0.1,0.5,0.1,0.9,0.1,1.3v3.3h-1.2v-11.6h1l0.2,1.1
			h0.1c0.3-0.4,0.7-0.8,1.1-1s0.9-0.3,1.4-0.3c1.1,0,1.9,0.4,2.5,1.1c0.6,0.7,0.9,1.7,0.9,3.1c0,1.3-0.3,2.3-0.9,3.1
			C153.7,824.2,152.9,824.5,151.8,824.5z M151.6,817.3c-0.8,0-1.4,0.2-1.8,0.7c-0.4,0.5-0.6,1.2-0.6,2.2v0.3c0,1.1,0.2,1.9,0.6,2.4
			c0.4,0.5,1,0.7,1.8,0.7c0.7,0,1.2-0.3,1.6-0.8c0.4-0.6,0.6-1.3,0.6-2.3s-0.2-1.8-0.6-2.3C152.9,817.5,152.3,817.3,151.6,817.3z"/>
		<path class="st7" d="M162.4,822.2c0,0.7-0.3,1.3-0.8,1.7c-0.6,0.4-1.3,0.6-2.3,0.6c-1.1,0-1.9-0.2-2.5-0.5v-1.1
			c0.4,0.2,0.8,0.3,1.2,0.5c0.4,0.1,0.9,0.2,1.3,0.2c0.6,0,1.1-0.1,1.5-0.3c0.3-0.2,0.5-0.5,0.5-0.9c0-0.3-0.1-0.6-0.4-0.8
			c-0.3-0.2-0.8-0.5-1.6-0.8c-0.7-0.3-1.3-0.5-1.6-0.7s-0.5-0.4-0.7-0.7s-0.2-0.6-0.2-0.9c0-0.7,0.3-1.2,0.8-1.6
			c0.5-0.4,1.3-0.6,2.2-0.6s1.7,0.2,2.5,0.5l-0.4,1c-0.8-0.3-1.5-0.5-2.2-0.5c-0.6,0-1,0.1-1.3,0.3s-0.4,0.4-0.4,0.7
			c0,0.2,0.1,0.4,0.2,0.6c0.1,0.2,0.3,0.3,0.5,0.4s0.7,0.3,1.4,0.6c1,0.3,1.6,0.7,1.9,1C162.3,821.2,162.4,821.7,162.4,822.2z"/>
		<path class="st7" d="M99.2,835.3h-2v7.1H96v-7.1h-1.5v-0.6l1.4-0.4v-0.4c0-2,0.9-3,2.6-3c0.4,0,0.9,0.1,1.5,0.3l-0.3,1
			c-0.5-0.2-0.9-0.2-1.2-0.2c-0.5,0-0.8,0.2-1,0.5s-0.3,0.8-0.3,1.5v0.5h2V835.3z"/>
		<path class="st7" d="M107.5,838.4c0,1.3-0.3,2.3-1,3.1c-0.7,0.7-1.6,1.1-2.7,1.1c-0.7,0-1.4-0.2-1.9-0.5c-0.6-0.3-1-0.8-1.3-1.4
			c-0.3-0.6-0.5-1.4-0.5-2.2c0-1.3,0.3-2.3,1-3.1c0.7-0.7,1.6-1.1,2.7-1.1s2,0.4,2.7,1.1C107.2,836.1,107.5,837.1,107.5,838.4z
			 M101.4,838.4c0,1,0.2,1.8,0.6,2.3s1,0.8,1.8,0.8s1.4-0.3,1.8-0.8s0.6-1.3,0.6-2.3s-0.2-1.8-0.6-2.3s-1-0.8-1.8-0.8
			s-1.4,0.3-1.8,0.8S101.4,837.3,101.4,838.4z"/>
		<path class="st7" d="M113.3,834.2c0.4,0,0.7,0,1,0.1l-0.2,1.1c-0.3-0.1-0.6-0.1-0.9-0.1c-0.6,0-1.2,0.3-1.7,0.8s-0.7,1.2-0.7,2
			v4.3h-1.2v-8h1l0.1,1.5h0.1c0.3-0.5,0.7-0.9,1.1-1.2S112.8,834.2,113.3,834.2z"/>
		<path class="st7" d="M122.3,841.5c0.2,0,0.4,0,0.6,0s0.4-0.1,0.5-0.1v0.9c-0.1,0.1-0.3,0.1-0.6,0.2c-0.3,0-0.5,0.1-0.7,0.1
			c-1.6,0-2.3-0.8-2.3-2.5v-4.8h-1.1v-0.6l1.1-0.5l0.5-1.7h0.7v1.9h2.3v0.9H121v4.7c0,0.5,0.1,0.9,0.3,1.1
			C121.6,841.4,121.9,841.5,122.3,841.5z"/>
		<path class="st7" d="M128.7,834.2c0.4,0,0.7,0,1,0.1l-0.2,1.1c-0.3-0.1-0.6-0.1-0.9-0.1c-0.6,0-1.2,0.3-1.7,0.8s-0.7,1.2-0.7,2
			v4.3H125v-8h1l0.1,1.5h0.1c0.3-0.5,0.7-0.9,1.1-1.2S128.2,834.2,128.7,834.2z"/>
		<path class="st7" d="M136.1,842.4l-0.2-1.1h-0.1c-0.4,0.5-0.8,0.8-1.2,1s-0.9,0.3-1.5,0.3c-0.8,0-1.4-0.2-1.9-0.6
			c-0.5-0.4-0.7-1-0.7-1.8c0-1.6,1.3-2.5,3.9-2.5h1.4v-0.5c0-0.6-0.1-1.1-0.4-1.4c-0.3-0.3-0.7-0.5-1.3-0.5c-0.7,0-1.4,0.2-2.3,0.6
			l-0.4-0.9c0.4-0.2,0.8-0.4,1.3-0.5s0.9-0.2,1.4-0.2c1,0,1.7,0.2,2.1,0.6c0.5,0.4,0.7,1.1,0.7,2v5.5L136.1,842.4L136.1,842.4z
			 M133.3,841.5c0.8,0,1.4-0.2,1.8-0.6c0.4-0.4,0.6-1,0.6-1.7v-0.7l-1.2,0.1c-1,0-1.7,0.2-2.1,0.4c-0.4,0.3-0.6,0.7-0.6,1.2
			c0,0.4,0.1,0.8,0.4,1C132.5,841.4,132.8,841.5,133.3,841.5z"/>
		<path class="st7" d="M144.9,841.3L144.9,841.3c-0.6,0.8-1.5,1.2-2.6,1.2c-1,0-1.9-0.4-2.4-1.1c-0.6-0.7-0.9-1.7-0.9-3.1
			c0-1.3,0.3-2.4,0.9-3.1s1.4-1.1,2.4-1.1c1.1,0,1.9,0.4,2.5,1.2h0.1l-0.1-0.6v-0.6v-3.3h1.2v11.4h-1L144.9,841.3z M142.5,841.5
			c0.8,0,1.4-0.2,1.8-0.7c0.4-0.5,0.6-1.2,0.6-2.2v-0.3c0-1.1-0.2-1.9-0.6-2.4s-1-0.7-1.8-0.7c-0.7,0-1.3,0.3-1.6,0.8
			c-0.4,0.6-0.6,1.3-0.6,2.3s0.2,1.8,0.6,2.3C141.2,841.3,141.8,841.5,142.5,841.5z"/>
		<path class="st7" d="M152,842.5c-1.2,0-2.1-0.4-2.8-1.1s-1-1.7-1-3s0.3-2.3,1-3.1c0.6-0.8,1.5-1.1,2.6-1.1c1,0,1.8,0.3,2.4,1
			s0.9,1.5,0.9,2.6v0.8h-5.6c0,0.9,0.3,1.7,0.7,2.1c0.5,0.5,1.1,0.7,1.9,0.7c0.9,0,1.7-0.2,2.6-0.5v1.1c-0.4,0.2-0.8,0.3-1.2,0.4
			C153,842.5,152.6,842.5,152,842.5z M151.7,835.2c-0.6,0-1.2,0.2-1.5,0.6s-0.6,1-0.7,1.7h4.2c0-0.8-0.2-1.4-0.5-1.8
			S152.3,835.2,151.7,835.2z"/>
		<path class="st7" d="M160.7,834.2c0.4,0,0.7,0,1,0.1l-0.2,1.1c-0.3-0.1-0.6-0.1-0.9-0.1c-0.6,0-1.2,0.3-1.7,0.8s-0.7,1.2-0.7,2
			v4.3H157v-8h1l0.1,1.5h0.1c0.3-0.5,0.7-0.9,1.1-1.2S160.2,834.2,160.7,834.2z"/>
		<path class="st7" d="M168.4,840.2c0,0.7-0.3,1.3-0.8,1.7c-0.6,0.4-1.3,0.6-2.3,0.6c-1.1,0-1.9-0.2-2.5-0.5v-1.1
			c0.4,0.2,0.8,0.3,1.2,0.5c0.4,0.1,0.9,0.2,1.3,0.2c0.6,0,1.1-0.1,1.5-0.3c0.3-0.2,0.5-0.5,0.5-0.9c0-0.3-0.1-0.6-0.4-0.8
			c-0.3-0.2-0.8-0.5-1.6-0.8c-0.7-0.3-1.3-0.5-1.6-0.7s-0.5-0.4-0.7-0.7s-0.2-0.6-0.2-0.9c0-0.7,0.3-1.2,0.8-1.6
			c0.5-0.4,1.3-0.6,2.2-0.6s1.7,0.2,2.5,0.5l-0.4,1c-0.8-0.3-1.5-0.5-2.2-0.5c-0.6,0-1,0.1-1.3,0.3s-0.4,0.4-0.4,0.7
			c0,0.2,0.1,0.4,0.2,0.6c0.1,0.2,0.3,0.3,0.5,0.4s0.7,0.3,1.4,0.6c1,0.3,1.6,0.7,1.9,1C168.2,839.2,168.4,839.7,168.4,840.2z"/>
	</g>
	<g class="st6">
		<path class="st2" d="M102.8,770.4h1.5l-4.4,12.1h-1.4l-4.3-12.1h1.5l2.8,7.9c0.3,0.9,0.6,1.8,0.8,2.6c0.2-0.9,0.5-1.8,0.8-2.7
			L102.8,770.4z"/>
		<path class="st2" d="M109.7,782.7c-1.3,0-2.4-0.4-3.2-1.2s-1.2-2-1.2-3.4c0-1.5,0.4-2.6,1.1-3.5s1.7-1.3,2.9-1.3
			c1.1,0,2,0.4,2.7,1.1s1,1.7,1,3v0.9h-6.3c0,1.1,0.3,1.9,0.8,2.4c0.5,0.6,1.2,0.8,2.2,0.8s1.9-0.2,2.9-0.6v1.2
			c-0.5,0.2-0.9,0.4-1.4,0.5C110.8,782.7,110.3,782.7,109.7,782.7z M109.3,774.5c-0.7,0-1.3,0.2-1.7,0.7c-0.4,0.5-0.7,1.1-0.8,2h4.8
			c0-0.9-0.2-1.5-0.6-2C110.6,774.7,110,774.5,109.3,774.5z"/>
		<path class="st2" d="M121.6,782.6v-5.9c0-0.7-0.2-1.3-0.5-1.7s-0.9-0.5-1.6-0.5c-1,0-1.6,0.3-2.1,0.8c-0.4,0.5-0.7,1.4-0.7,2.5
			v4.8h-1.4v-9.1h1.1l0.2,1.2h0.1c0.3-0.4,0.7-0.8,1.2-1s1.1-0.4,1.7-0.4c1.1,0,1.9,0.3,2.5,0.8s0.8,1.4,0.8,2.5v5.9h-1.3
			C121.6,782.5,121.6,782.6,121.6,782.6z"/>
		<path class="st2" d="M132,781.4L132,781.4c-0.7,0.9-1.7,1.4-2.9,1.4c-1.2,0-2.1-0.4-2.8-1.2c-0.7-0.8-1-2-1-3.5s0.3-2.7,1-3.5
			s1.6-1.2,2.8-1.2c1.2,0,2.2,0.4,2.8,1.3h0.1l-0.1-0.7v-0.6v-3.7h1.4v12.9h-1.1L132,781.4z M129.2,781.6c0.9,0,1.6-0.3,2-0.8
			s0.6-1.3,0.6-2.5V778c0-1.3-0.2-2.2-0.6-2.8s-1.1-0.8-2.1-0.8c-0.8,0-1.4,0.3-1.9,0.9c-0.4,0.6-0.6,1.5-0.6,2.7s0.2,2,0.6,2.6
			C127.8,781.3,128.4,781.6,129.2,781.6z"/>
		<path class="st2" d="M144.1,778c0,1.5-0.4,2.6-1.1,3.5s-1.8,1.2-3.1,1.2c-0.8,0-1.5-0.2-2.2-0.6c-0.6-0.4-1.1-0.9-1.5-1.6
			c-0.3-0.7-0.5-1.5-0.5-2.5c0-1.5,0.4-2.6,1.1-3.5c0.7-0.8,1.8-1.2,3.1-1.2s2.3,0.4,3,1.3C143.7,775.4,144.1,776.6,144.1,778z
			 M137.1,778c0,1.2,0.2,2,0.7,2.7c0.5,0.6,1.1,0.9,2.1,0.9c0.9,0,1.6-0.3,2.1-0.9c0.5-0.6,0.7-1.5,0.7-2.7s-0.2-2-0.7-2.6
			s-1.2-0.9-2.1-0.9c-0.9,0-1.6,0.3-2,0.9C137.4,776,137.1,776.9,137.1,778z"/>
		<path class="st2" d="M150.6,773.3c0.4,0,0.8,0,1.1,0.1l-0.2,1.3c-0.4-0.1-0.7-0.1-1-0.1c-0.7,0-1.4,0.3-1.9,0.9
			c-0.5,0.6-0.8,1.3-0.8,2.2v4.9h-1.3v-9.1h1.1l0.2,1.7h0.1c0.3-0.6,0.7-1,1.2-1.4C149.5,773.5,150.1,773.3,150.6,773.3z"/>
		<path class="st2" d="M159.3,780.1c0,0.8-0.3,1.5-0.9,2c-0.6,0.5-1.5,0.7-2.7,0.7s-2.1-0.2-2.8-0.6v-1.3c0.4,0.2,0.9,0.4,1.4,0.5
			s1,0.2,1.4,0.2c0.7,0,1.3-0.1,1.7-0.3s0.6-0.6,0.6-1s-0.2-0.7-0.5-0.9c-0.3-0.3-0.9-0.5-1.8-0.9c-0.8-0.3-1.4-0.6-1.8-0.8
			c-0.4-0.2-0.6-0.5-0.8-0.8s-0.3-0.7-0.3-1.1c0-0.7,0.3-1.3,0.9-1.8c0.6-0.4,1.4-0.6,2.5-0.6c1,0,1.9,0.2,2.9,0.6l-0.5,1.1
			c-0.9-0.4-1.7-0.6-2.5-0.6c-0.7,0-1.1,0.1-1.5,0.3s-0.5,0.5-0.5,0.8c0,0.2,0.1,0.5,0.2,0.6c0.1,0.2,0.3,0.3,0.6,0.5
			s0.8,0.4,1.6,0.7c1.1,0.4,1.8,0.8,2.2,1.2C159.1,779,159.3,779.5,159.3,780.1z"/>
	</g>
	<g class="st6">
		<path class="st7" d="M682.1,800.2v0.8l-1.5,0.2c0.1,0.2,0.3,0.4,0.4,0.7c0.1,0.3,0.2,0.6,0.2,0.9c0,0.8-0.3,1.4-0.8,1.9
			s-1.3,0.7-2.2,0.7c-0.2,0-0.5,0-0.7-0.1c-0.5,0.3-0.8,0.6-0.8,1c0,0.2,0.1,0.4,0.3,0.5s0.5,0.2,0.9,0.2h1.4c0.9,0,1.5,0.2,2,0.5
			c0.5,0.4,0.7,0.9,0.7,1.6c0,0.9-0.4,1.6-1.1,2c-0.7,0.5-1.8,0.7-3.1,0.7c-1,0-1.9-0.2-2.4-0.6c-0.6-0.4-0.9-0.9-0.9-1.7
			c0-0.5,0.2-0.9,0.5-1.3c0.3-0.4,0.8-0.6,1.3-0.7c-0.2-0.1-0.4-0.2-0.5-0.4s-0.2-0.4-0.2-0.7s0.1-0.5,0.2-0.8
			c0.2-0.2,0.4-0.4,0.7-0.6c-0.4-0.2-0.8-0.5-1-0.9c-0.3-0.4-0.4-0.9-0.4-1.4c0-0.9,0.3-1.6,0.8-2c0.5-0.5,1.3-0.7,2.2-0.7
			c0.4,0,0.8,0,1.1,0.1L682.1,800.2L682.1,800.2z M675.7,809.5c0,0.4,0.2,0.8,0.5,1s0.9,0.3,1.6,0.3c1,0,1.8-0.2,2.3-0.5
			s0.7-0.7,0.7-1.2c0-0.4-0.1-0.7-0.4-0.9c-0.3-0.2-0.8-0.3-1.5-0.3h-1.5c-0.6,0-1,0.1-1.3,0.4S675.7,809,675.7,809.5z M676.3,802.7
			c0,0.6,0.2,1,0.5,1.3s0.8,0.4,1.3,0.4c1.2,0,1.8-0.6,1.8-1.7c0-1.2-0.6-1.8-1.8-1.8c-0.6,0-1,0.2-1.3,0.5S676.3,802.1,676.3,802.7
			z"/>
		<path class="st7" d="M690.7,804.2c0,1.3-0.3,2.3-1,3.1c-0.7,0.7-1.6,1.1-2.7,1.1c-0.7,0-1.4-0.2-1.9-0.5c-0.6-0.3-1-0.8-1.3-1.4
			c-0.3-0.6-0.5-1.4-0.5-2.2c0-1.3,0.3-2.3,1-3.1c0.7-0.7,1.6-1.1,2.7-1.1c1.1,0,2,0.4,2.7,1.1C690.3,801.9,690.7,802.9,690.7,804.2
			z M684.5,804.2c0,1,0.2,1.8,0.6,2.3c0.4,0.5,1,0.8,1.8,0.8s1.4-0.3,1.8-0.8c0.4-0.5,0.6-1.3,0.6-2.3s-0.2-1.8-0.6-2.3
			c-0.4-0.5-1-0.8-1.8-0.8s-1.4,0.3-1.8,0.8S684.5,803.1,684.5,804.2z"/>
		<path class="st7" d="M703.6,804.2c0,1.3-0.3,2.3-1,3.1c-0.7,0.7-1.6,1.1-2.7,1.1c-0.7,0-1.4-0.2-1.9-0.5c-0.6-0.3-1-0.8-1.3-1.4
			c-0.3-0.6-0.5-1.4-0.5-2.2c0-1.3,0.3-2.3,1-3.1c0.7-0.7,1.6-1.1,2.7-1.1c1.1,0,2,0.4,2.7,1.1C703.3,801.9,703.6,802.9,703.6,804.2
			z M697.5,804.2c0,1,0.2,1.8,0.6,2.3c0.4,0.5,1,0.8,1.8,0.8s1.4-0.3,1.8-0.8c0.4-0.5,0.6-1.3,0.6-2.3s-0.2-1.8-0.6-2.3
			c-0.4-0.5-1-0.8-1.8-0.8s-1.4,0.3-1.8,0.8S697.5,803.1,697.5,804.2z"/>
		<path class="st7" d="M706.9,800.2v5.2c0,0.7,0.1,1.1,0.4,1.5s0.8,0.5,1.4,0.5c0.8,0,1.5-0.2,1.8-0.7c0.4-0.5,0.6-1.2,0.6-2.2v-4.2
			h1.2v8h-1l-0.2-1.1H711c-0.2,0.4-0.6,0.7-1,0.9s-0.9,0.3-1.5,0.3c-1,0-1.7-0.2-2.2-0.7s-0.7-1.2-0.7-2.2v-5.3H706.9z"/>
		<path class="st7" d="M717.5,807.3c0.2,0,0.4,0,0.6,0c0.2,0,0.4-0.1,0.5-0.1v0.9c-0.1,0.1-0.3,0.1-0.6,0.2c-0.3,0-0.5,0.1-0.7,0.1
			c-1.6,0-2.3-0.8-2.3-2.5v-4.8h-1.1v-0.6l1.1-0.5l0.5-1.7h0.7v1.9h2.3v0.9h-2.3v4.7c0,0.5,0.1,0.9,0.3,1.1S717.1,807.3,717.5,807.3
			z"/>
		<path class="st7" d="M730.7,808.2l-1.5-4.7c-0.1-0.3-0.3-0.9-0.5-2h-0.1c-0.2,0.9-0.4,1.5-0.5,2l-1.5,4.7h-1.4l-2.2-8h1.3
			c0.5,2,0.9,3.6,1.2,4.6c0.3,1.1,0.4,1.8,0.5,2.1h0.1c0.1-0.3,0.1-0.6,0.3-1.1c0.1-0.4,0.2-0.8,0.3-1.1l1.5-4.6h1.3l1.4,4.6
			c0.3,0.8,0.5,1.5,0.6,2.1h0.1c0-0.2,0.1-0.4,0.2-0.8c0.1-0.4,0.6-2.3,1.5-5.9h1.3l-2.2,8h-1.7L730.7,808.2L730.7,808.2z"/>
		<path class="st7" d="M735.7,798c0-0.3,0.1-0.5,0.2-0.6c0.1-0.1,0.3-0.2,0.5-0.2s0.4,0.1,0.5,0.2s0.2,0.3,0.2,0.6s-0.1,0.5-0.2,0.6
			c-0.1,0.1-0.3,0.2-0.5,0.2s-0.4-0.1-0.5-0.2C735.8,798.5,735.7,798.3,735.7,798z M737,808.2h-1.2v-8h1.2V808.2z"/>
		<path class="st7" d="M742.2,807.3c0.2,0,0.4,0,0.6,0c0.2,0,0.4-0.1,0.5-0.1v0.9c-0.1,0.1-0.3,0.1-0.6,0.2c-0.3,0-0.5,0.1-0.7,0.1
			c-1.6,0-2.3-0.8-2.3-2.5v-4.8h-1.1v-0.6l1.1-0.5l0.5-1.7h0.7v1.9h2.3v0.9h-2.3v4.7c0,0.5,0.1,0.9,0.3,1.1S741.8,807.3,742.2,807.3
			z"/>
		<path class="st7" d="M750.4,808.2V803c0-0.7-0.1-1.1-0.4-1.5s-0.8-0.5-1.4-0.5c-0.8,0-1.5,0.2-1.8,0.7c-0.4,0.5-0.6,1.2-0.6,2.3
			v4.2H745v-11.4h1.2v3.4c0,0.4,0,0.8-0.1,1h0.1c0.2-0.4,0.6-0.7,1-0.9s0.9-0.3,1.5-0.3c1,0,1.7,0.2,2.2,0.7s0.7,1.2,0.7,2.2v5.2
			L750.4,808.2L750.4,808.2z"/>
		<path class="st7" d="M768.2,808.2V803c0-0.6-0.1-1.1-0.4-1.4c-0.3-0.3-0.7-0.5-1.3-0.5c-0.8,0-1.3,0.2-1.7,0.7s-0.5,1.1-0.5,2v4.5
			h-1.2V803c0-0.6-0.1-1.1-0.4-1.4c-0.3-0.3-0.7-0.5-1.3-0.5c-0.8,0-1.3,0.2-1.7,0.7s-0.5,1.2-0.5,2.2v4.2H758v-8h1l0.2,1.1h0.1
			c0.2-0.4,0.6-0.7,1-0.9s0.9-0.3,1.4-0.3c1.3,0,2.1,0.5,2.5,1.4h0.1c0.2-0.4,0.6-0.8,1-1s1-0.4,1.6-0.4c0.9,0,1.6,0.2,2,0.7
			c0.5,0.5,0.7,1.2,0.7,2.2v5.2H768.2z"/>
		<path class="st7" d="M778.9,804.2c0,1.3-0.3,2.3-1,3.1c-0.7,0.7-1.6,1.1-2.7,1.1c-0.7,0-1.4-0.2-1.9-0.5c-0.6-0.3-1-0.8-1.3-1.4
			c-0.3-0.6-0.5-1.4-0.5-2.2c0-1.3,0.3-2.3,1-3.1c0.7-0.7,1.6-1.1,2.7-1.1c1.1,0,2,0.4,2.7,1.1C778.5,801.9,778.9,802.9,778.9,804.2
			z M772.8,804.2c0,1,0.2,1.8,0.6,2.3c0.4,0.5,1,0.8,1.8,0.8s1.4-0.3,1.8-0.8c0.4-0.5,0.6-1.3,0.6-2.3s-0.2-1.8-0.6-2.3
			c-0.4-0.5-1-0.8-1.8-0.8s-1.4,0.3-1.8,0.8S772.8,803.1,772.8,804.2z"/>
		<path class="st7" d="M784.7,800c0.4,0,0.7,0,1,0.1l-0.2,1.1c-0.3-0.1-0.6-0.1-0.9-0.1c-0.6,0-1.2,0.3-1.7,0.8s-0.7,1.2-0.7,2v4.3
			H781v-8h1l0.1,1.5h0.1c0.3-0.5,0.7-0.9,1.1-1.2S784.2,800,784.7,800z"/>
		<path class="st7" d="M790.5,808.3c-1.2,0-2.1-0.4-2.8-1.1c-0.7-0.7-1-1.7-1-3s0.3-2.3,1-3.1c0.6-0.8,1.5-1.1,2.6-1.1
			c1,0,1.8,0.3,2.4,1c0.6,0.7,0.9,1.5,0.9,2.6v0.8h-5.5c0,0.9,0.3,1.7,0.7,2.1c0.5,0.5,1.1,0.7,1.9,0.7c0.9,0,1.7-0.2,2.6-0.5v1.1
			c-0.4,0.2-0.8,0.3-1.2,0.4C791.5,808.3,791.1,808.3,790.5,808.3z M790.2,801c-0.6,0-1.2,0.2-1.5,0.6c-0.4,0.4-0.6,1-0.7,1.7h4.2
			c0-0.8-0.2-1.4-0.5-1.8C791.3,801.2,790.8,801,790.2,801z"/>
		<path class="st7" d="M685.7,826.2V821c0-0.6-0.1-1.1-0.4-1.4c-0.3-0.3-0.7-0.5-1.3-0.5c-0.8,0-1.3,0.2-1.7,0.7s-0.5,1.1-0.5,2v4.5
			h-1.2V821c0-0.6-0.1-1.1-0.4-1.4c-0.3-0.3-0.7-0.5-1.3-0.5c-0.8,0-1.3,0.2-1.7,0.7s-0.5,1.2-0.5,2.2v4.2h-1.2v-8h1l0.2,1.1h0.1
			c0.2-0.4,0.6-0.7,1-0.9s0.9-0.3,1.4-0.3c1.3,0,2.1,0.5,2.5,1.4h0.1c0.2-0.4,0.6-0.8,1-1s1-0.4,1.6-0.4c0.9,0,1.6,0.2,2,0.7
			c0.5,0.5,0.7,1.2,0.7,2.2v5.2H685.7z"/>
		<path class="st7" d="M696.4,822.2c0,1.3-0.3,2.3-1,3.1c-0.7,0.7-1.6,1.1-2.7,1.1c-0.7,0-1.4-0.2-1.9-0.5c-0.6-0.3-1-0.8-1.3-1.4
			c-0.3-0.6-0.5-1.4-0.5-2.2c0-1.3,0.3-2.3,1-3.1c0.7-0.7,1.6-1.1,2.7-1.1c1.1,0,2,0.4,2.7,1.1C696.1,819.9,696.4,820.9,696.4,822.2
			z M690.3,822.2c0,1,0.2,1.8,0.6,2.3c0.4,0.5,1,0.8,1.8,0.8s1.4-0.3,1.8-0.8c0.4-0.5,0.6-1.3,0.6-2.3s-0.2-1.8-0.6-2.3
			c-0.4-0.5-1-0.8-1.8-0.8s-1.4,0.3-1.8,0.8S690.3,821.1,690.3,822.2z"/>
		<path class="st7" d="M704,826.2V821c0-0.7-0.1-1.1-0.4-1.5s-0.8-0.5-1.4-0.5c-0.8,0-1.5,0.2-1.8,0.7s-0.6,1.2-0.6,2.2v4.2h-1.2v-8
			h1l0.2,1.1h0.1c0.2-0.4,0.6-0.7,1-0.9s1-0.3,1.5-0.3c1,0,1.7,0.2,2.2,0.7s0.7,1.2,0.7,2.2v5.2L704,826.2L704,826.2z"/>
		<path class="st7" d="M711.1,826.3c-1.2,0-2.1-0.4-2.8-1.1c-0.7-0.7-1-1.7-1-3s0.3-2.3,1-3.1c0.6-0.8,1.5-1.1,2.6-1.1
			c1,0,1.8,0.3,2.4,1c0.6,0.7,0.9,1.5,0.9,2.6v0.8h-5.5c0,0.9,0.3,1.7,0.7,2.1c0.5,0.5,1.1,0.7,1.9,0.7c0.9,0,1.7-0.2,2.6-0.5v1.1
			c-0.4,0.2-0.8,0.3-1.2,0.4C712.1,826.3,711.7,826.3,711.1,826.3z M710.8,819c-0.6,0-1.2,0.2-1.5,0.6c-0.4,0.4-0.6,1-0.7,1.7h4.2
			c0-0.8-0.2-1.4-0.5-1.8C711.9,819.2,711.4,819,710.8,819z"/>
		<path class="st7" d="M714.9,818.2h1.3l1.8,4.6c0.4,1,0.6,1.8,0.7,2.3h0.1c0.1-0.2,0.2-0.7,0.4-1.3s0.9-2.5,2-5.6h1.3l-3.5,9.1
			c-0.3,0.9-0.7,1.5-1.2,1.9s-1,0.6-1.7,0.6c-0.4,0-0.7,0-1.1-0.1v-1c0.3,0.1,0.6,0.1,0.9,0.1c0.8,0,1.4-0.5,1.8-1.4l0.4-1.1
			L714.9,818.2z"/>
		<path class="st7" d="M727.5,816c0-0.3,0.1-0.5,0.2-0.6c0.1-0.1,0.3-0.2,0.5-0.2s0.4,0.1,0.5,0.2s0.2,0.3,0.2,0.6s-0.1,0.5-0.2,0.6
			c-0.1,0.1-0.3,0.2-0.5,0.2s-0.4-0.1-0.5-0.2C727.6,816.5,727.5,816.3,727.5,816z M728.8,826.2h-1.2v-8h1.2V826.2z"/>
		<path class="st7" d="M736.9,826.2V821c0-0.7-0.1-1.1-0.4-1.5s-0.8-0.5-1.4-0.5c-0.8,0-1.5,0.2-1.8,0.7s-0.6,1.2-0.6,2.2v4.2h-1.2
			v-8h1l0.2,1.1h0.1c0.2-0.4,0.6-0.7,1-0.9s1-0.3,1.5-0.3c1,0,1.7,0.2,2.2,0.7s0.7,1.2,0.7,2.2v5.2L736.9,826.2L736.9,826.2z"/>
		<path class="st7" d="M749.4,826.2l-0.2-1.1h-0.1c-0.4,0.5-0.8,0.8-1.2,1s-0.9,0.3-1.5,0.3c-0.8,0-1.4-0.2-1.9-0.6
			c-0.5-0.4-0.7-1-0.7-1.8c0-1.6,1.3-2.5,3.9-2.5h1.4V821c0-0.6-0.1-1.1-0.4-1.4c-0.3-0.3-0.7-0.5-1.3-0.5c-0.7,0-1.4,0.2-2.3,0.6
			l-0.4-0.9c0.4-0.2,0.8-0.4,1.3-0.5s0.9-0.2,1.4-0.2c1,0,1.7,0.2,2.1,0.6c0.5,0.4,0.7,1.1,0.7,2v5.5L749.4,826.2L749.4,826.2z
			 M746.7,825.3c0.8,0,1.4-0.2,1.8-0.6c0.4-0.4,0.6-1,0.6-1.7v-0.7l-1.2,0.1c-1,0-1.7,0.2-2.1,0.5c-0.4,0.3-0.6,0.7-0.6,1.2
			c0,0.4,0.1,0.8,0.4,1C745.8,825.2,746.2,825.3,746.7,825.3z"/>
		<path class="st7" d="M758,824c0,0.7-0.3,1.3-0.8,1.7s-1.3,0.6-2.3,0.6c-1.1,0-1.9-0.2-2.5-0.5v-1.1c0.4,0.2,0.8,0.3,1.2,0.5
			c0.4,0.1,0.9,0.2,1.3,0.2c0.6,0,1.1-0.1,1.5-0.3c0.3-0.2,0.5-0.5,0.5-0.9c0-0.3-0.1-0.6-0.4-0.8c-0.3-0.2-0.8-0.5-1.6-0.8
			c-0.7-0.3-1.3-0.5-1.6-0.7s-0.5-0.4-0.7-0.7s-0.2-0.6-0.2-0.9c0-0.7,0.3-1.2,0.8-1.5c0.5-0.4,1.3-0.6,2.2-0.6s1.7,0.2,2.5,0.5
			l-0.4,1c-0.8-0.3-1.5-0.5-2.2-0.5c-0.6,0-1,0.1-1.3,0.3s-0.4,0.4-0.4,0.7c0,0.2,0.1,0.4,0.2,0.5c0.1,0.2,0.3,0.3,0.5,0.4
			s0.7,0.3,1.4,0.6c1,0.3,1.6,0.7,1.9,1C757.8,823,758,823.5,758,824z"/>
		<path class="st7" d="M765.2,824c0,0.7-0.3,1.3-0.8,1.7s-1.3,0.6-2.3,0.6c-1.1,0-1.9-0.2-2.5-0.5v-1.1c0.4,0.2,0.8,0.3,1.2,0.5
			c0.4,0.1,0.9,0.2,1.3,0.2c0.6,0,1.1-0.1,1.5-0.3c0.3-0.2,0.5-0.5,0.5-0.9c0-0.3-0.1-0.6-0.4-0.8c-0.3-0.2-0.8-0.5-1.6-0.8
			c-0.7-0.3-1.3-0.5-1.6-0.7s-0.5-0.4-0.7-0.7s-0.2-0.6-0.2-0.9c0-0.7,0.3-1.2,0.8-1.5c0.5-0.4,1.3-0.6,2.2-0.6s1.7,0.2,2.5,0.5
			l-0.4,1c-0.8-0.3-1.5-0.5-2.2-0.5c-0.6,0-1,0.1-1.3,0.3s-0.4,0.4-0.4,0.7c0,0.2,0.1,0.4,0.2,0.5c0.1,0.2,0.3,0.3,0.5,0.4
			s0.7,0.3,1.4,0.6c1,0.3,1.6,0.7,1.9,1C765,823,765.2,823.5,765.2,824z"/>
		<path class="st7" d="M770.5,826.3c-1.2,0-2.1-0.4-2.8-1.1c-0.7-0.7-1-1.7-1-3s0.3-2.3,1-3.1c0.6-0.8,1.5-1.1,2.6-1.1
			c1,0,1.8,0.3,2.4,1c0.6,0.7,0.9,1.5,0.9,2.6v0.8H768c0,0.9,0.3,1.7,0.7,2.1c0.5,0.5,1.1,0.7,1.9,0.7c0.9,0,1.7-0.2,2.6-0.5v1.1
			c-0.4,0.2-0.8,0.3-1.2,0.4C771.5,826.3,771.1,826.3,770.5,826.3z M770.2,819c-0.6,0-1.2,0.2-1.5,0.6c-0.4,0.4-0.6,1-0.7,1.7h4.2
			c0-0.8-0.2-1.4-0.5-1.8C771.3,819.2,770.8,819,770.2,819z"/>
		<path class="st7" d="M778.2,825.3c0.2,0,0.4,0,0.6,0c0.2,0,0.4-0.1,0.5-0.1v0.9c-0.1,0.1-0.3,0.1-0.6,0.2c-0.3,0-0.5,0.1-0.7,0.1
			c-1.6,0-2.3-0.8-2.3-2.5v-4.8h-1.1v-0.6l1.1-0.5l0.5-1.7h0.7v1.9h2.3v0.9h-2.3v4.7c0,0.5,0.1,0.9,0.3,1.1S777.8,825.3,778.2,825.3
			z"/>
		<path class="st7" d="M786,824c0,0.7-0.3,1.3-0.8,1.7s-1.3,0.6-2.3,0.6c-1.1,0-1.9-0.2-2.5-0.5v-1.1c0.4,0.2,0.8,0.3,1.2,0.5
			c0.4,0.1,0.9,0.2,1.3,0.2c0.6,0,1.1-0.1,1.5-0.3c0.3-0.2,0.5-0.5,0.5-0.9c0-0.3-0.1-0.6-0.4-0.8c-0.3-0.2-0.8-0.5-1.6-0.8
			c-0.7-0.3-1.3-0.5-1.6-0.7s-0.5-0.4-0.7-0.7s-0.2-0.6-0.2-0.9c0-0.7,0.3-1.2,0.8-1.5c0.5-0.4,1.3-0.6,2.2-0.6s1.7,0.2,2.5,0.5
			l-0.4,1c-0.8-0.3-1.5-0.5-2.2-0.5c-0.6,0-1,0.1-1.3,0.3s-0.4,0.4-0.4,0.7c0,0.2,0.1,0.4,0.2,0.5c0.1,0.2,0.3,0.3,0.5,0.4
			s0.7,0.3,1.4,0.6c1,0.3,1.6,0.7,1.9,1C785.9,823,786,823.5,786,824z"/>
	</g>
	<g class="st6">
		<path class="st2" d="M675.9,784.4v-12.1h1.4v12.1H675.9z"/>
		<path class="st2" d="M686.6,784.4v-5.9c0-0.7-0.2-1.3-0.5-1.7s-0.9-0.5-1.6-0.5c-1,0-1.6,0.3-2.1,0.8c-0.4,0.5-0.7,1.4-0.7,2.5
			v4.8h-1.4v-9.1h1.1l0.2,1.2h0.1c0.3-0.4,0.7-0.8,1.2-1s1.1-0.4,1.7-0.4c1.1,0,1.9,0.3,2.5,0.8s0.8,1.4,0.8,2.5v5.9h-1.3V784.4z"/>
		<path class="st2" d="M692.8,784.4l-3.5-9.1h1.5l2,5.4c0.4,1.3,0.7,2.1,0.8,2.5h0.1c0.1-0.3,0.3-0.9,0.6-1.8c0.3-0.9,1-2.9,2.2-6
			h1.5l-3.5,9.1h-1.7L692.8,784.4L692.8,784.4z"/>
		<path class="st2" d="M703.2,784.5c-1.3,0-2.4-0.4-3.2-1.2s-1.2-2-1.2-3.4c0-1.5,0.4-2.6,1.1-3.5c0.7-0.9,1.7-1.3,2.9-1.3
			c1.1,0,2,0.4,2.7,1.1s1,1.7,1,3v0.9h-6.3c0,1.1,0.3,1.9,0.8,2.4c0.5,0.6,1.2,0.8,2.2,0.8s1.9-0.2,2.9-0.6v1.2
			c-0.5,0.2-0.9,0.4-1.4,0.5C704.3,784.5,703.8,784.5,703.2,784.5z M702.8,776.3c-0.7,0-1.3,0.2-1.7,0.7s-0.7,1.1-0.8,2h4.8
			c0-0.9-0.2-1.5-0.6-2C704.1,776.5,703.6,776.3,702.8,776.3z"/>
		<path class="st2" d="M714.8,781.9c0,0.8-0.3,1.5-0.9,2c-0.6,0.5-1.5,0.7-2.7,0.7s-2.1-0.2-2.8-0.6v-1.3c0.4,0.2,0.9,0.4,1.4,0.5
			s1,0.2,1.4,0.2c0.7,0,1.3-0.1,1.7-0.3s0.6-0.6,0.6-1s-0.2-0.7-0.5-0.9c-0.3-0.3-0.9-0.5-1.8-0.9c-0.8-0.3-1.4-0.6-1.8-0.8
			c-0.4-0.2-0.6-0.5-0.8-0.8s-0.3-0.7-0.3-1.1c0-0.7,0.3-1.3,0.9-1.8c0.6-0.4,1.4-0.6,2.5-0.6c1,0,1.9,0.2,2.9,0.6l-0.5,1.1
			c-0.9-0.4-1.7-0.6-2.5-0.6c-0.7,0-1.1,0.1-1.5,0.3s-0.5,0.5-0.5,0.8c0,0.2,0.1,0.5,0.2,0.6c0.1,0.2,0.3,0.3,0.6,0.5
			s0.8,0.4,1.6,0.7c1.1,0.4,1.8,0.8,2.2,1.2S714.8,781.3,714.8,781.9z"/>
		<path class="st2" d="M720,783.4c0.2,0,0.5,0,0.7-0.1c0.2,0,0.4-0.1,0.5-0.1v1.1c-0.1,0.1-0.4,0.1-0.7,0.2c-0.3,0-0.6,0.1-0.8,0.1
			c-1.8,0-2.6-0.9-2.6-2.8v-5.4h-1.3v-0.7l1.3-0.6l0.6-1.9h0.8v2.1h2.6v1.1h-2.6v5.4c0,0.5,0.1,1,0.4,1.3
			C719.1,783.3,719.5,783.4,720,783.4z"/>
		<path class="st2" d="M730.9,779.8c0,1.5-0.4,2.6-1.1,3.5s-1.8,1.2-3.1,1.2c-0.8,0-1.5-0.2-2.2-0.6c-0.6-0.4-1.1-0.9-1.5-1.6
			c-0.3-0.7-0.5-1.5-0.5-2.5c0-1.5,0.4-2.6,1.1-3.5c0.7-0.8,1.8-1.2,3.1-1.2s2.3,0.4,3,1.3C730.5,777.2,730.9,778.4,730.9,779.8z
			 M723.9,779.8c0,1.2,0.2,2,0.7,2.7c0.5,0.6,1.1,0.9,2.1,0.9c0.9,0,1.6-0.3,2.1-0.9c0.5-0.6,0.7-1.5,0.7-2.7s-0.2-2-0.7-2.6
			s-1.2-0.9-2.1-0.9c-0.9,0-1.6,0.3-2,0.9C724.2,777.8,723.9,778.7,723.9,779.8z"/>
		<path class="st2" d="M737.4,775.1c0.4,0,0.8,0,1.1,0.1l-0.2,1.3c-0.4-0.1-0.7-0.1-1-0.1c-0.7,0-1.4,0.3-1.9,0.9
			c-0.5,0.6-0.8,1.3-0.8,2.2v4.9h-1.4v-9.1h1.1l0.2,1.7h0.1c0.3-0.6,0.7-1,1.2-1.4C736.3,775.3,736.9,775.1,737.4,775.1z"/>
		<path class="st2" d="M746.1,781.9c0,0.8-0.3,1.5-0.9,2c-0.6,0.5-1.5,0.7-2.7,0.7s-2.1-0.2-2.8-0.6v-1.3c0.4,0.2,0.9,0.4,1.4,0.5
			s1,0.2,1.4,0.2c0.7,0,1.3-0.1,1.7-0.3s0.6-0.6,0.6-1s-0.2-0.7-0.5-0.9c-0.3-0.3-0.9-0.5-1.8-0.9c-0.8-0.3-1.4-0.6-1.8-0.8
			c-0.4-0.2-0.6-0.5-0.8-0.8s-0.3-0.7-0.3-1.1c0-0.7,0.3-1.3,0.9-1.8c0.6-0.4,1.4-0.6,2.5-0.6c1,0,1.9,0.2,2.9,0.6l-0.5,1.1
			c-0.9-0.4-1.7-0.6-2.5-0.6c-0.7,0-1.1,0.1-1.5,0.3s-0.5,0.5-0.5,0.8c0,0.2,0.1,0.5,0.2,0.6c0.1,0.2,0.3,0.3,0.6,0.5
			s0.8,0.4,1.6,0.7c1.1,0.4,1.8,0.8,2.2,1.2C745.9,780.8,746.1,781.3,746.1,781.9z"/>
	</g>
	<g class="st6">
		<path class="st7" d="M646.9,576.3c-1.2,0-2.1-0.4-2.8-1.1c-0.7-0.7-1-1.7-1-3s0.3-2.3,1-3.1c0.6-0.8,1.5-1.1,2.6-1.1
			c1,0,1.8,0.3,2.4,1c0.6,0.7,0.9,1.5,0.9,2.6v0.8h-5.5c0,0.9,0.3,1.7,0.7,2.1c0.5,0.5,1.1,0.7,1.9,0.7c0.9,0,1.7-0.2,2.6-0.5v1.1
			c-0.4,0.2-0.8,0.3-1.2,0.4C647.9,576.3,647.4,576.3,646.9,576.3z M646.6,569c-0.6,0-1.2,0.2-1.5,0.6c-0.4,0.4-0.6,1-0.7,1.7h4.2
			c0-0.8-0.2-1.4-0.5-1.8C647.7,569.2,647.2,569,646.6,569z"/>
		<path class="st7" d="M656.9,576.2l-0.2-1.1h-0.1c-0.4,0.5-0.8,0.8-1.2,1s-0.9,0.3-1.5,0.3c-0.8,0-1.4-0.2-1.9-0.6
			c-0.5-0.4-0.7-1-0.7-1.8c0-1.6,1.3-2.5,3.9-2.5h1.4V571c0-0.6-0.1-1.1-0.4-1.4c-0.3-0.3-0.7-0.5-1.3-0.5c-0.7,0-1.4,0.2-2.3,0.6
			l-0.4-0.9c0.4-0.2,0.8-0.4,1.3-0.5s0.9-0.2,1.4-0.2c1,0,1.7,0.2,2.1,0.6c0.5,0.4,0.7,1.1,0.7,2v5.5L656.9,576.2L656.9,576.2z
			 M654.1,575.3c0.8,0,1.4-0.2,1.8-0.6c0.4-0.4,0.6-1,0.6-1.7v-0.7l-1.2,0.1c-1,0-1.7,0.2-2.1,0.5c-0.4,0.3-0.6,0.7-0.6,1.2
			c0,0.4,0.1,0.8,0.4,1C653.3,575.2,653.6,575.3,654.1,575.3z"/>
		<path class="st7" d="M663.9,568c0.4,0,0.7,0,1,0.1l-0.2,1.1c-0.3-0.1-0.6-0.1-0.9-0.1c-0.6,0-1.2,0.3-1.7,0.8s-0.7,1.2-0.7,2v4.3
			h-1.2v-8h1l0.1,1.5h0.1c0.3-0.5,0.7-0.9,1.1-1.2S663.4,568,663.9,568z"/>
		<path class="st7" d="M671.9,576.2V571c0-0.7-0.1-1.1-0.4-1.5s-0.8-0.5-1.4-0.5c-0.8,0-1.5,0.2-1.8,0.7s-0.6,1.2-0.6,2.2v4.2h-1.2
			v-8h1l0.2,1.1h0.1c0.2-0.4,0.6-0.7,1-0.9s1-0.3,1.5-0.3c1,0,1.7,0.2,2.2,0.7s0.7,1.2,0.7,2.2v5.2L671.9,576.2L671.9,576.2z"/>
		<path class="st7" d="M679,576.3c-1.2,0-2.1-0.4-2.8-1.1c-0.7-0.7-1-1.7-1-3s0.3-2.3,1-3.1c0.6-0.8,1.5-1.1,2.6-1.1
			c1,0,1.8,0.3,2.4,1c0.6,0.7,0.9,1.5,0.9,2.6v0.8h-5.5c0,0.9,0.3,1.7,0.7,2.1c0.5,0.5,1.1,0.7,1.9,0.7c0.9,0,1.7-0.2,2.6-0.5v1.1
			c-0.4,0.2-0.8,0.3-1.2,0.4C680,576.3,679.5,576.3,679,576.3z M678.7,569c-0.6,0-1.2,0.2-1.5,0.6c-0.4,0.4-0.6,1-0.7,1.7h4.2
			c0-0.8-0.2-1.4-0.5-1.8C679.8,569.2,679.3,569,678.7,569z"/>
		<path class="st7" d="M689.2,574c0,0.7-0.3,1.3-0.8,1.7s-1.3,0.6-2.3,0.6c-1.1,0-1.9-0.2-2.5-0.5v-1.1c0.4,0.2,0.8,0.3,1.2,0.5
			c0.4,0.1,0.9,0.2,1.3,0.2c0.6,0,1.1-0.1,1.5-0.3c0.3-0.2,0.5-0.5,0.5-0.9c0-0.3-0.1-0.6-0.4-0.8c-0.3-0.2-0.8-0.5-1.6-0.8
			c-0.7-0.3-1.3-0.5-1.6-0.7s-0.5-0.4-0.7-0.7s-0.2-0.6-0.2-0.9c0-0.7,0.3-1.2,0.8-1.5c0.5-0.4,1.3-0.6,2.2-0.6s1.7,0.2,2.5,0.5
			l-0.4,1c-0.8-0.3-1.5-0.5-2.2-0.5c-0.6,0-1,0.1-1.3,0.3s-0.4,0.4-0.4,0.7c0,0.2,0.1,0.4,0.2,0.5c0.1,0.2,0.3,0.3,0.5,0.4
			s0.7,0.3,1.4,0.6c1,0.3,1.6,0.7,1.9,1C689,573,689.2,573.5,689.2,574z"/>
		<path class="st7" d="M646.7,594.3c-1.2,0-2.1-0.4-2.7-1.1c-0.6-0.7-1-1.7-1-3s0.3-2.4,1-3.1c0.6-0.7,1.6-1.1,2.8-1.1
			c0.4,0,0.8,0,1.2,0.1s0.7,0.2,0.9,0.3l-0.4,1c-0.3-0.1-0.6-0.2-0.9-0.3c-0.3-0.1-0.6-0.1-0.8-0.1c-1.6,0-2.4,1-2.4,3.1
			c0,1,0.2,1.7,0.6,2.3c0.4,0.5,1,0.8,1.8,0.8c0.7,0,1.4-0.1,2.1-0.4v1.1C648.2,594.2,647.5,594.3,646.7,594.3z"/>
		<path class="st7" d="M657.6,590.2c0,1.3-0.3,2.3-1,3.1c-0.7,0.7-1.6,1.1-2.7,1.1c-0.7,0-1.4-0.2-1.9-0.5c-0.6-0.3-1-0.8-1.3-1.4
			c-0.3-0.6-0.5-1.4-0.5-2.2c0-1.3,0.3-2.3,1-3.1c0.7-0.7,1.6-1.1,2.7-1.1c1.1,0,2,0.4,2.7,1.1C657.2,587.9,657.6,588.9,657.6,590.2
			z M651.5,590.2c0,1,0.2,1.8,0.6,2.3c0.4,0.5,1,0.8,1.8,0.8s1.4-0.3,1.8-0.8c0.4-0.5,0.6-1.3,0.6-2.3s-0.2-1.8-0.6-2.3
			c-0.4-0.5-1-0.8-1.8-0.8s-1.4,0.3-1.8,0.8S651.5,589.1,651.5,590.2z"/>
		<path class="st7" d="M669.9,594.2V589c0-0.6-0.1-1.1-0.4-1.4c-0.3-0.3-0.7-0.5-1.3-0.5c-0.8,0-1.3,0.2-1.7,0.7s-0.5,1.1-0.5,2v4.5
			h-1.2V589c0-0.6-0.1-1.1-0.4-1.4c-0.3-0.3-0.7-0.5-1.3-0.5c-0.8,0-1.3,0.2-1.7,0.7s-0.5,1.2-0.5,2.2v4.2h-1.2v-8h1l0.2,1.1h0.1
			c0.2-0.4,0.6-0.7,1-0.9s0.9-0.3,1.4-0.3c1.3,0,2.1,0.5,2.5,1.4h0.1c0.2-0.4,0.6-0.8,1-1s1-0.4,1.6-0.4c0.9,0,1.6,0.2,2,0.7
			c0.5,0.5,0.7,1.2,0.7,2.2v5.2H669.9z"/>
		<path class="st7" d="M683.9,594.2V589c0-0.6-0.1-1.1-0.4-1.4c-0.3-0.3-0.7-0.5-1.3-0.5c-0.8,0-1.3,0.2-1.7,0.7s-0.5,1.1-0.5,2v4.5
			h-1.2V589c0-0.6-0.1-1.1-0.4-1.4c-0.3-0.3-0.7-0.5-1.3-0.5c-0.8,0-1.3,0.2-1.7,0.7s-0.5,1.2-0.5,2.2v4.2h-1.2v-8h1l0.2,1.1h0.1
			c0.2-0.4,0.6-0.7,1-0.9s0.9-0.3,1.4-0.3c1.3,0,2.1,0.5,2.5,1.4h0.1c0.2-0.4,0.6-0.8,1-1s1-0.4,1.6-0.4c0.9,0,1.6,0.2,2,0.7
			c0.5,0.5,0.7,1.2,0.7,2.2v5.2H683.9z"/>
		<path class="st7" d="M687.5,584c0-0.3,0.1-0.5,0.2-0.6c0.1-0.1,0.3-0.2,0.5-0.2s0.4,0.1,0.5,0.2s0.2,0.3,0.2,0.6s-0.1,0.5-0.2,0.6
			c-0.1,0.1-0.3,0.2-0.5,0.2s-0.4-0.1-0.5-0.2C687.6,584.5,687.5,584.3,687.5,584z M688.8,594.2h-1.2v-8h1.2V594.2z"/>
		<path class="st7" d="M696.6,592c0,0.7-0.3,1.3-0.8,1.7s-1.3,0.6-2.3,0.6c-1.1,0-1.9-0.2-2.5-0.5v-1.1c0.4,0.2,0.8,0.3,1.2,0.5
			c0.4,0.1,0.9,0.2,1.3,0.2c0.6,0,1.1-0.1,1.5-0.3c0.3-0.2,0.5-0.5,0.5-0.9c0-0.3-0.1-0.6-0.4-0.8c-0.3-0.2-0.8-0.5-1.6-0.8
			c-0.7-0.3-1.3-0.5-1.6-0.7s-0.5-0.4-0.7-0.7s-0.2-0.6-0.2-0.9c0-0.7,0.3-1.2,0.8-1.5c0.5-0.4,1.3-0.6,2.2-0.6s1.7,0.2,2.5,0.5
			l-0.4,1c-0.8-0.3-1.5-0.5-2.2-0.5c-0.6,0-1,0.1-1.3,0.3s-0.4,0.4-0.4,0.7c0,0.2,0.1,0.4,0.2,0.5c0.1,0.2,0.3,0.3,0.5,0.4
			s0.7,0.3,1.4,0.6c1,0.3,1.6,0.7,1.9,1C696.4,591,696.6,591.5,696.6,592z"/>
		<path class="st7" d="M703.7,592c0,0.7-0.3,1.3-0.8,1.7s-1.3,0.6-2.3,0.6c-1.1,0-1.9-0.2-2.5-0.5v-1.1c0.4,0.2,0.8,0.3,1.2,0.5
			c0.4,0.1,0.9,0.2,1.3,0.2c0.6,0,1.1-0.1,1.5-0.3c0.3-0.2,0.5-0.5,0.5-0.9c0-0.3-0.1-0.6-0.4-0.8c-0.3-0.2-0.8-0.5-1.6-0.8
			c-0.7-0.3-1.3-0.5-1.6-0.7s-0.5-0.4-0.7-0.7s-0.2-0.6-0.2-0.9c0-0.7,0.3-1.2,0.8-1.5c0.5-0.4,1.3-0.6,2.2-0.6s1.7,0.2,2.5,0.5
			l-0.4,1c-0.8-0.3-1.5-0.5-2.2-0.5c-0.6,0-1,0.1-1.3,0.3s-0.4,0.4-0.4,0.7c0,0.2,0.1,0.4,0.2,0.5c0.1,0.2,0.3,0.3,0.5,0.4
			s0.7,0.3,1.4,0.6c1,0.3,1.6,0.7,1.9,1C703.6,591,703.7,591.5,703.7,592z"/>
		<path class="st7" d="M705.6,584c0-0.3,0.1-0.5,0.2-0.6c0.1-0.1,0.3-0.2,0.5-0.2s0.4,0.1,0.5,0.2s0.2,0.3,0.2,0.6s-0.1,0.5-0.2,0.6
			c-0.1,0.1-0.3,0.2-0.5,0.2s-0.4-0.1-0.5-0.2C705.7,584.5,705.6,584.3,705.6,584z M706.9,594.2h-1.2v-8h1.2V594.2z"/>
		<path class="st7" d="M716.4,590.2c0,1.3-0.3,2.3-1,3.1c-0.7,0.7-1.6,1.1-2.7,1.1c-0.7,0-1.4-0.2-1.9-0.5c-0.6-0.3-1-0.8-1.3-1.4
			c-0.3-0.6-0.5-1.4-0.5-2.2c0-1.3,0.3-2.3,1-3.1c0.7-0.7,1.6-1.1,2.7-1.1c1.1,0,2,0.4,2.7,1.1C716.1,587.9,716.4,588.9,716.4,590.2
			z M710.3,590.2c0,1,0.2,1.8,0.6,2.3c0.4,0.5,1,0.8,1.8,0.8s1.4-0.3,1.8-0.8c0.4-0.5,0.6-1.3,0.6-2.3s-0.2-1.8-0.6-2.3
			c-0.4-0.5-1-0.8-1.8-0.8s-1.4,0.3-1.8,0.8S710.3,589.1,710.3,590.2z"/>
		<path class="st7" d="M724.1,594.2V589c0-0.7-0.1-1.1-0.4-1.5s-0.8-0.5-1.4-0.5c-0.8,0-1.5,0.2-1.8,0.7s-0.6,1.2-0.6,2.2v4.2h-1.2
			v-8h1l0.2,1.1h0.1c0.2-0.4,0.6-0.7,1-0.9s0.9-0.3,1.5-0.3c1,0,1.7,0.2,2.2,0.7s0.7,1.2,0.7,2.2v5.2L724.1,594.2L724.1,594.2z"/>
		<path class="st7" d="M650.4,608.2c0,1.3-0.3,2.3-1,3.1c-0.7,0.7-1.6,1.1-2.7,1.1c-0.7,0-1.4-0.2-1.9-0.5c-0.6-0.3-1-0.8-1.3-1.4
			c-0.3-0.6-0.5-1.4-0.5-2.2c0-1.3,0.3-2.3,1-3.1c0.7-0.7,1.6-1.1,2.7-1.1c1.1,0,2,0.4,2.7,1.1C650.1,605.9,650.4,606.9,650.4,608.2
			z M644.3,608.2c0,1,0.2,1.8,0.6,2.3c0.4,0.5,1,0.8,1.8,0.8s1.4-0.3,1.8-0.8c0.4-0.5,0.6-1.3,0.6-2.3s-0.2-1.8-0.6-2.3
			c-0.4-0.5-1-0.8-1.8-0.8s-1.4,0.3-1.8,0.8S644.3,607.1,644.3,608.2z"/>
		<path class="st7" d="M658.1,612.2V607c0-0.7-0.1-1.1-0.4-1.5s-0.8-0.5-1.4-0.5c-0.8,0-1.5,0.2-1.8,0.7s-0.6,1.2-0.6,2.2v4.2h-1.2
			v-8h1l0.2,1.1h0.1c0.2-0.4,0.6-0.7,1-0.9s0.9-0.3,1.5-0.3c1,0,1.7,0.2,2.2,0.7s0.7,1.2,0.7,2.2v5.2L658.1,612.2L658.1,612.2z"/>
		<path class="st7" d="M670.8,610c0,0.7-0.3,1.3-0.8,1.7s-1.3,0.6-2.3,0.6c-1.1,0-1.9-0.2-2.5-0.5v-1.1c0.4,0.2,0.8,0.3,1.2,0.5
			c0.4,0.1,0.9,0.2,1.3,0.2c0.6,0,1.1-0.1,1.5-0.3c0.3-0.2,0.5-0.5,0.5-0.9c0-0.3-0.1-0.6-0.4-0.8c-0.3-0.2-0.8-0.5-1.6-0.8
			c-0.7-0.3-1.3-0.5-1.6-0.7s-0.5-0.4-0.7-0.7s-0.2-0.6-0.2-0.9c0-0.7,0.3-1.2,0.8-1.5c0.5-0.4,1.3-0.6,2.2-0.6s1.7,0.2,2.5,0.5
			l-0.4,1c-0.8-0.3-1.5-0.5-2.2-0.5c-0.6,0-1,0.1-1.3,0.3s-0.4,0.4-0.4,0.7c0,0.2,0.1,0.4,0.2,0.5c0.1,0.2,0.3,0.3,0.5,0.4
			s0.7,0.3,1.4,0.6c1,0.3,1.6,0.7,1.9,1C670.7,609,670.8,609.5,670.8,610z"/>
		<path class="st7" d="M674,604.2v5.2c0,0.7,0.1,1.1,0.4,1.5s0.8,0.5,1.4,0.5c0.8,0,1.5-0.2,1.8-0.7c0.4-0.5,0.6-1.2,0.6-2.2v-4.2
			h1.2v8h-1l-0.2-1.1h-0.1c-0.2,0.4-0.6,0.7-1,0.9s-0.9,0.3-1.5,0.3c-1,0-1.7-0.2-2.2-0.7s-0.7-1.2-0.7-2.2v-5.3H674z"/>
		<path class="st7" d="M685.2,612.3c-1.2,0-2.1-0.4-2.7-1.1c-0.6-0.7-1-1.7-1-3s0.3-2.4,1-3.1c0.6-0.7,1.6-1.1,2.8-1.1
			c0.4,0,0.8,0,1.2,0.1s0.7,0.2,0.9,0.3l-0.4,1c-0.3-0.1-0.6-0.2-0.9-0.3c-0.3-0.1-0.6-0.1-0.8-0.1c-1.6,0-2.4,1-2.4,3.1
			c0,1,0.2,1.7,0.6,2.3c0.4,0.5,1,0.8,1.8,0.8c0.7,0,1.4-0.1,2.1-0.4v1.1C686.7,612.2,686.1,612.3,685.2,612.3z"/>
		<path class="st7" d="M692.4,612.3c-1.2,0-2.1-0.4-2.7-1.1c-0.6-0.7-1-1.7-1-3s0.3-2.4,1-3.1c0.6-0.7,1.6-1.1,2.8-1.1
			c0.4,0,0.8,0,1.2,0.1s0.7,0.2,0.9,0.3l-0.4,1c-0.3-0.1-0.6-0.2-0.9-0.3c-0.3-0.1-0.6-0.1-0.8-0.1c-1.6,0-2.4,1-2.4,3.1
			c0,1,0.2,1.7,0.6,2.3c0.4,0.5,1,0.8,1.8,0.8c0.7,0,1.4-0.1,2.1-0.4v1.1C693.9,612.2,693.2,612.3,692.4,612.3z"/>
		<path class="st7" d="M699.7,612.3c-1.2,0-2.1-0.4-2.8-1.1c-0.7-0.7-1-1.7-1-3s0.3-2.3,1-3.1c0.6-0.8,1.5-1.1,2.6-1.1
			c1,0,1.8,0.3,2.4,1c0.6,0.7,0.9,1.5,0.9,2.6v0.8h-5.5c0,0.9,0.3,1.7,0.7,2.1c0.5,0.5,1.1,0.7,1.9,0.7c0.9,0,1.7-0.2,2.6-0.5v1.1
			c-0.4,0.2-0.8,0.3-1.2,0.4C700.7,612.3,700.2,612.3,699.7,612.3z M699.4,605c-0.6,0-1.2,0.2-1.5,0.6c-0.4,0.4-0.6,1-0.7,1.7h4.2
			c0-0.8-0.2-1.4-0.5-1.8C700.5,605.2,700,605,699.4,605z"/>
		<path class="st7" d="M709.9,610c0,0.7-0.3,1.3-0.8,1.7s-1.3,0.6-2.3,0.6c-1.1,0-1.9-0.2-2.5-0.5v-1.1c0.4,0.2,0.8,0.3,1.2,0.5
			c0.4,0.1,0.9,0.2,1.3,0.2c0.6,0,1.1-0.1,1.5-0.3c0.3-0.2,0.5-0.5,0.5-0.9c0-0.3-0.1-0.6-0.4-0.8c-0.3-0.2-0.8-0.5-1.6-0.8
			c-0.7-0.3-1.3-0.5-1.6-0.7s-0.5-0.4-0.7-0.7s-0.2-0.6-0.2-0.9c0-0.7,0.3-1.2,0.8-1.5c0.5-0.4,1.3-0.6,2.2-0.6s1.7,0.2,2.5,0.5
			l-0.4,1c-0.8-0.3-1.5-0.5-2.2-0.5c-0.6,0-1,0.1-1.3,0.3s-0.4,0.4-0.4,0.7c0,0.2,0.1,0.4,0.2,0.5c0.1,0.2,0.3,0.3,0.5,0.4
			s0.7,0.3,1.4,0.6c1,0.3,1.6,0.7,1.9,1C709.7,609,709.9,609.5,709.9,610z"/>
		<path class="st7" d="M717.1,610c0,0.7-0.3,1.3-0.8,1.7s-1.3,0.6-2.3,0.6c-1.1,0-1.9-0.2-2.5-0.5v-1.1c0.4,0.2,0.8,0.3,1.2,0.5
			c0.4,0.1,0.9,0.2,1.3,0.2c0.6,0,1.1-0.1,1.5-0.3c0.3-0.2,0.5-0.5,0.5-0.9c0-0.3-0.1-0.6-0.4-0.8c-0.3-0.2-0.8-0.5-1.6-0.8
			c-0.7-0.3-1.3-0.5-1.6-0.7s-0.5-0.4-0.7-0.7s-0.2-0.6-0.2-0.9c0-0.7,0.3-1.2,0.8-1.5c0.5-0.4,1.3-0.6,2.2-0.6s1.7,0.2,2.5,0.5
			l-0.4,1c-0.8-0.3-1.5-0.5-2.2-0.5c-0.6,0-1,0.1-1.3,0.3s-0.4,0.4-0.4,0.7c0,0.2,0.1,0.4,0.2,0.5c0.1,0.2,0.3,0.3,0.5,0.4
			s0.7,0.3,1.4,0.6c1,0.3,1.6,0.7,1.9,1C716.9,609,717.1,609.5,717.1,610z"/>
		<path class="st7" d="M722.7,605.1h-2v7.1h-1.2v-7.1H718v-0.5l1.4-0.4v-0.4c0-2,0.9-3,2.6-3c0.4,0,0.9,0.1,1.5,0.3l-0.3,1
			c-0.5-0.2-0.9-0.2-1.2-0.2c-0.5,0-0.8,0.2-1,0.5s-0.3,0.8-0.3,1.5v0.5h2V605.1z"/>
		<path class="st7" d="M725.3,604.2v5.2c0,0.7,0.1,1.1,0.4,1.5s0.8,0.5,1.4,0.5c0.8,0,1.5-0.2,1.8-0.7c0.4-0.5,0.6-1.2,0.6-2.2v-4.2
			h1.2v8h-1l-0.2-1.1h-0.1c-0.2,0.4-0.6,0.7-1,0.9s-0.9,0.3-1.5,0.3c-1,0-1.7-0.2-2.2-0.7s-0.7-1.2-0.7-2.2v-5.3H725.3z"/>
		<path class="st7" d="M734.5,612.2h-1.2v-11.4h1.2V612.2z"/>
		<path class="st7" d="M646.1,629.3c0.2,0,0.4,0,0.6,0c0.2,0,0.4-0.1,0.5-0.1v0.9c-0.1,0.1-0.3,0.1-0.6,0.2c-0.3,0-0.5,0.1-0.7,0.1
			c-1.6,0-2.3-0.8-2.3-2.5v-4.8h-1.2v-0.6l1.2-0.5l0.5-1.7h0.7v1.9h2.3v0.9h-2.3v4.7c0,0.5,0.1,0.9,0.3,1.1S645.7,629.3,646.1,629.3
			z"/>
		<path class="st7" d="M652.5,622c0.4,0,0.7,0,1,0.1l-0.2,1.1c-0.3-0.1-0.6-0.1-0.9-0.1c-0.6,0-1.2,0.3-1.7,0.8s-0.7,1.2-0.7,2v4.3
			h-1.2v-8h1l0.1,1.5h0.1c0.3-0.5,0.7-0.9,1.1-1.2S652,622,652.5,622z"/>
		<path class="st7" d="M659.9,630.2l-0.2-1.1h-0.1c-0.4,0.5-0.8,0.8-1.2,1s-0.9,0.3-1.5,0.3c-0.8,0-1.4-0.2-1.9-0.6
			c-0.5-0.4-0.7-1-0.7-1.8c0-1.6,1.3-2.5,3.9-2.5h1.4V625c0-0.6-0.1-1.1-0.4-1.4c-0.3-0.3-0.7-0.5-1.3-0.5c-0.7,0-1.4,0.2-2.3,0.6
			l-0.4-0.9c0.4-0.2,0.8-0.4,1.3-0.5s0.9-0.2,1.4-0.2c1,0,1.7,0.2,2.1,0.6c0.5,0.4,0.7,1.1,0.7,2v5.5L659.9,630.2L659.9,630.2z
			 M657.1,629.3c0.8,0,1.4-0.2,1.8-0.6c0.4-0.4,0.6-1,0.6-1.7v-0.7l-1.2,0.1c-1,0-1.7,0.2-2.1,0.5c-0.4,0.3-0.6,0.7-0.6,1.2
			c0,0.4,0.1,0.8,0.4,1C656.3,629.2,656.6,629.3,657.1,629.3z"/>
		<path class="st7" d="M668.7,629.1L668.7,629.1c-0.6,0.8-1.5,1.2-2.6,1.2c-1,0-1.9-0.4-2.4-1.1c-0.6-0.7-0.9-1.7-0.9-3.1
			c0-1.3,0.3-2.4,0.9-3.1s1.4-1.1,2.4-1.1c1.1,0,1.9,0.4,2.5,1.2h0.1l-0.1-0.6v-0.6v-3.3h1.2V630h-1L668.7,629.1z M666.3,629.3
			c0.8,0,1.4-0.2,1.8-0.7c0.4-0.5,0.6-1.2,0.6-2.2v-0.3c0-1.1-0.2-1.9-0.6-2.4c-0.4-0.5-1-0.7-1.8-0.7c-0.7,0-1.3,0.3-1.6,0.8
			c-0.4,0.6-0.6,1.3-0.6,2.3s0.2,1.8,0.6,2.3S665.6,629.3,666.3,629.3z"/>
		<path class="st7" d="M675.8,630.3c-1.2,0-2.1-0.4-2.8-1.1c-0.7-0.7-1-1.7-1-3s0.3-2.3,1-3.1c0.6-0.8,1.5-1.1,2.6-1.1
			c1,0,1.8,0.3,2.4,1c0.6,0.7,0.9,1.5,0.9,2.6v0.8h-5.5c0,0.9,0.3,1.7,0.7,2.1c0.5,0.5,1.1,0.7,1.9,0.7c0.9,0,1.7-0.2,2.6-0.5v1.1
			c-0.4,0.2-0.8,0.3-1.2,0.4C676.9,630.3,676.4,630.3,675.8,630.3z M675.5,623c-0.6,0-1.2,0.2-1.5,0.6c-0.4,0.4-0.6,1-0.7,1.7h4.2
			c0-0.8-0.2-1.4-0.5-1.8C676.6,623.2,676.2,623,675.5,623z"/>
		<path class="st7" d="M686.1,628c0,0.7-0.3,1.3-0.8,1.7s-1.3,0.6-2.3,0.6c-1.1,0-1.9-0.2-2.5-0.5v-1.1c0.4,0.2,0.8,0.3,1.2,0.5
			c0.4,0.1,0.9,0.2,1.3,0.2c0.6,0,1.1-0.1,1.5-0.3c0.3-0.2,0.5-0.5,0.5-0.9c0-0.3-0.1-0.6-0.4-0.8c-0.3-0.2-0.8-0.5-1.6-0.8
			c-0.7-0.3-1.3-0.5-1.6-0.7s-0.5-0.4-0.7-0.7s-0.2-0.6-0.2-0.9c0-0.7,0.3-1.2,0.8-1.5c0.5-0.4,1.3-0.6,2.2-0.6s1.7,0.2,2.5,0.5
			l-0.4,1c-0.8-0.3-1.5-0.5-2.2-0.5c-0.6,0-1,0.1-1.3,0.3s-0.4,0.4-0.4,0.7c0,0.2,0.1,0.4,0.2,0.5c0.1,0.2,0.3,0.3,0.5,0.4
			s0.7,0.3,1.4,0.6c1,0.3,1.6,0.7,1.9,1C685.9,627,686.1,627.5,686.1,628z"/>
		<path class="st7" d="M648.4,648.2l-0.2-1.1h-0.1c-0.4,0.5-0.8,0.8-1.2,1s-0.9,0.3-1.5,0.3c-0.8,0-1.4-0.2-1.9-0.6
			c-0.5-0.4-0.7-1-0.7-1.8c0-1.6,1.3-2.5,3.9-2.5h1.4V643c0-0.6-0.1-1.1-0.4-1.4c-0.3-0.3-0.7-0.5-1.3-0.5c-0.7,0-1.4,0.2-2.3,0.6
			l-0.4-0.9c0.4-0.2,0.8-0.4,1.3-0.5s0.9-0.2,1.4-0.2c1,0,1.7,0.2,2.1,0.6c0.5,0.4,0.7,1.1,0.7,2v5.5L648.4,648.2L648.4,648.2z
			 M645.7,647.3c0.8,0,1.4-0.2,1.8-0.6c0.4-0.4,0.6-1,0.6-1.7v-0.7l-1.2,0.1c-1,0-1.7,0.2-2.1,0.5c-0.4,0.3-0.6,0.7-0.6,1.2
			c0,0.4,0.1,0.8,0.4,1C644.8,647.2,645.2,647.3,645.7,647.3z"/>
		<path class="st7" d="M657.3,648.2V643c0-0.7-0.1-1.1-0.4-1.5s-0.8-0.5-1.4-0.5c-0.8,0-1.5,0.2-1.8,0.7s-0.6,1.2-0.6,2.2v4.2h-1.2
			v-8h1l0.2,1.1h0.1c0.2-0.4,0.6-0.7,1-0.9s0.9-0.3,1.5-0.3c1,0,1.7,0.2,2.2,0.7s0.7,1.2,0.7,2.2v5.2L657.3,648.2L657.3,648.2z"/>
		<path class="st7" d="M666.5,647.1L666.5,647.1c-0.6,0.8-1.5,1.2-2.6,1.2c-1,0-1.9-0.4-2.4-1.1c-0.6-0.7-0.9-1.7-0.9-3.1
			c0-1.3,0.3-2.4,0.9-3.1s1.4-1.1,2.4-1.1c1.1,0,1.9,0.4,2.5,1.2h0.1l-0.1-0.6v-0.6v-3.3h1.2V648h-1L666.5,647.1z M664.1,647.3
			c0.8,0,1.4-0.2,1.8-0.7c0.4-0.5,0.6-1.2,0.6-2.2v-0.3c0-1.1-0.2-1.9-0.6-2.4c-0.4-0.5-1-0.7-1.8-0.7c-0.7,0-1.3,0.3-1.6,0.8
			c-0.4,0.6-0.6,1.3-0.6,2.3s0.2,1.8,0.6,2.3S663.4,647.3,664.1,647.3z"/>
		<path class="st7" d="M679.3,646c0,0.7-0.3,1.3-0.8,1.7s-1.3,0.6-2.3,0.6c-1.1,0-1.9-0.2-2.5-0.5v-1.1c0.4,0.2,0.8,0.3,1.2,0.5
			c0.4,0.1,0.9,0.2,1.3,0.2c0.6,0,1.1-0.1,1.5-0.3c0.3-0.2,0.5-0.5,0.5-0.9c0-0.3-0.1-0.6-0.4-0.8c-0.3-0.2-0.8-0.5-1.6-0.8
			c-0.7-0.3-1.3-0.5-1.6-0.7s-0.5-0.4-0.7-0.7s-0.2-0.6-0.2-0.9c0-0.7,0.3-1.2,0.8-1.5c0.5-0.4,1.3-0.6,2.2-0.6s1.7,0.2,2.5,0.5
			l-0.4,1c-0.8-0.3-1.5-0.5-2.2-0.5c-0.6,0-1,0.1-1.3,0.3s-0.4,0.4-0.4,0.7c0,0.2,0.1,0.4,0.2,0.5c0.1,0.2,0.3,0.3,0.5,0.4
			s0.7,0.3,1.4,0.6c1,0.3,1.6,0.7,1.9,1C679.2,645,679.3,645.5,679.3,646z"/>
		<path class="st7" d="M688.2,644.2c0,1.3-0.3,2.3-1,3.1c-0.7,0.7-1.6,1.1-2.7,1.1c-0.7,0-1.4-0.2-1.9-0.5c-0.6-0.3-1-0.8-1.3-1.4
			c-0.3-0.6-0.5-1.4-0.5-2.2c0-1.3,0.3-2.3,1-3.1c0.7-0.7,1.6-1.1,2.7-1.1c1.1,0,2,0.4,2.7,1.1C687.9,641.9,688.2,642.9,688.2,644.2
			z M682.1,644.2c0,1,0.2,1.8,0.6,2.3c0.4,0.5,1,0.8,1.8,0.8s1.4-0.3,1.8-0.8c0.4-0.5,0.6-1.3,0.6-2.3s-0.2-1.8-0.6-2.3
			c-0.4-0.5-1-0.8-1.8-0.8s-1.4,0.3-1.8,0.8S682.1,643.1,682.1,644.2z"/>
		<path class="st7" d="M691.6,648.2h-1.2v-11.4h1.2V648.2z"/>
		<path class="st7" d="M699.6,647.1L699.6,647.1c-0.6,0.8-1.5,1.2-2.6,1.2c-1,0-1.9-0.4-2.5-1.1c-0.6-0.7-0.9-1.7-0.9-3.1
			c0-1.3,0.3-2.4,0.9-3.1s1.4-1.1,2.4-1.1c1.1,0,1.9,0.4,2.5,1.2h0.1l-0.1-0.6v-0.6v-3.3h1.2V648h-1L699.6,647.1z M697.2,647.3
			c0.8,0,1.4-0.2,1.8-0.7c0.4-0.5,0.6-1.2,0.6-2.2v-0.3c0-1.1-0.2-1.9-0.6-2.4c-0.4-0.5-1-0.7-1.8-0.7c-0.7,0-1.3,0.3-1.6,0.8
			c-0.4,0.6-0.6,1.3-0.6,2.3s0.2,1.8,0.6,2.3S696.5,647.3,697.2,647.3z"/>
		<path class="st7" d="M714.2,648.2l-1.3-3.4h-4.3l-1.3,3.4H706l4.2-10.8h1l4.2,10.8H714.2z M712.4,643.7l-1.2-3.3
			c-0.2-0.4-0.3-0.9-0.5-1.5c-0.1,0.5-0.3,1-0.5,1.5l-1.3,3.3H712.4z"/>
		<path class="st7" d="M720.5,648.3c-0.5,0-1-0.1-1.4-0.3s-0.8-0.5-1.1-0.9h-0.1c0.1,0.5,0.1,0.9,0.1,1.3v3.3h-1.2v-11.6h1l0.2,1.1
			h0.1c0.3-0.4,0.7-0.8,1.1-1s0.9-0.3,1.4-0.3c1.1,0,1.9,0.4,2.5,1.1c0.6,0.7,0.9,1.7,0.9,3.1c0,1.3-0.3,2.3-0.9,3.1
			C722.3,648,721.5,648.3,720.5,648.3z M720.3,641.1c-0.8,0-1.4,0.2-1.8,0.7s-0.6,1.2-0.6,2.2v0.3c0,1.1,0.2,1.9,0.6,2.4
			c0.4,0.5,1,0.7,1.8,0.7c0.7,0,1.2-0.3,1.6-0.8c0.4-0.6,0.6-1.3,0.6-2.3s-0.2-1.8-0.6-2.3C721.6,641.3,721,641.1,720.3,641.1z"/>
		<path class="st7" d="M729.7,648.3c-0.5,0-1-0.1-1.4-0.3s-0.8-0.5-1.1-0.9h-0.1c0.1,0.5,0.1,0.9,0.1,1.3v3.3H726v-11.6h1l0.2,1.1
			h0.1c0.3-0.4,0.7-0.8,1.1-1s0.9-0.3,1.4-0.3c1.1,0,1.9,0.4,2.5,1.1c0.6,0.7,0.9,1.7,0.9,3.1c0,1.3-0.3,2.3-0.9,3.1
			C731.5,648,730.7,648.3,729.7,648.3z M729.5,641.1c-0.8,0-1.4,0.2-1.8,0.7s-0.6,1.2-0.6,2.2v0.3c0,1.1,0.2,1.9,0.6,2.4
			c0.4,0.5,1,0.7,1.8,0.7c0.7,0,1.2-0.3,1.6-0.8c0.4-0.6,0.6-1.3,0.6-2.3s-0.2-1.8-0.6-2.3C730.7,641.3,730.2,641.1,729.5,641.1z"/>
		<path class="st7" d="M740.3,646c0,0.7-0.3,1.3-0.8,1.7s-1.3,0.6-2.3,0.6c-1.1,0-1.9-0.2-2.5-0.5v-1.1c0.4,0.2,0.8,0.3,1.2,0.5
			c0.4,0.1,0.9,0.2,1.3,0.2c0.6,0,1.1-0.1,1.5-0.3c0.3-0.2,0.5-0.5,0.5-0.9c0-0.3-0.1-0.6-0.4-0.8c-0.3-0.2-0.8-0.5-1.6-0.8
			c-0.7-0.3-1.3-0.5-1.6-0.7s-0.5-0.4-0.7-0.7s-0.2-0.6-0.2-0.9c0-0.7,0.3-1.2,0.8-1.5c0.5-0.4,1.3-0.6,2.2-0.6s1.7,0.2,2.5,0.5
			l-0.4,1c-0.8-0.3-1.5-0.5-2.2-0.5c-0.6,0-1,0.1-1.3,0.3s-0.4,0.4-0.4,0.7c0,0.2,0.1,0.4,0.2,0.5c0.1,0.2,0.3,0.3,0.5,0.4
			s0.7,0.3,1.4,0.6c1,0.3,1.6,0.7,1.9,1C740.1,645,740.3,645.5,740.3,646z"/>
	</g>
	<g class="st6">
		<path class="st2" d="M649.1,541.3c-1.3,0-2.4,0.4-3.2,1.3c-0.8,0.9-1.2,2.1-1.2,3.6c0,1.6,0.4,2.8,1.1,3.7s1.8,1.3,3.2,1.3
			c0.8,0,1.8-0.2,2.9-0.5v1.2c-0.8,0.3-1.9,0.5-3.1,0.5c-1.8,0-3.2-0.5-4.1-1.6c-1-1.1-1.5-2.6-1.5-4.6c0-1.3,0.2-2.3,0.7-3.3
			c0.5-0.9,1.1-1.7,2-2.2s1.9-0.8,3.1-0.8c1.3,0,2.4,0.2,3.3,0.7l-0.6,1.2C650.9,541.6,650,541.3,649.1,541.3z"/>
		<path class="st2" d="M654.3,540.8c0-0.3,0.1-0.5,0.2-0.7c0.2-0.1,0.3-0.2,0.6-0.2c0.2,0,0.4,0.1,0.6,0.2c0.2,0.1,0.2,0.4,0.2,0.7
			s-0.1,0.5-0.2,0.7c-0.2,0.2-0.4,0.2-0.6,0.2c-0.2,0-0.4-0.1-0.6-0.2C654.4,541.4,654.3,541.1,654.3,540.8z M655.8,552.4h-1.4v-9.1
			h1.4V552.4z"/>
		<path class="st2" d="M664.9,552.4v-5.9c0-0.7-0.2-1.3-0.5-1.7s-0.9-0.5-1.6-0.5c-1,0-1.6,0.3-2.1,0.8c-0.4,0.5-0.7,1.4-0.7,2.5
			v4.8h-1.4v-9.1h1.1l0.2,1.2h0.1c0.3-0.4,0.7-0.8,1.2-1s1.1-0.4,1.7-0.4c1.1,0,1.9,0.3,2.5,0.8s0.8,1.4,0.8,2.5v5.9h-1.3V552.4z"/>
		<path class="st2" d="M675.3,551.2L675.3,551.2c-0.7,0.9-1.7,1.4-2.9,1.4s-2.1-0.4-2.8-1.2s-1-2-1-3.5s0.3-2.7,1-3.5
			s1.6-1.2,2.8-1.2s2.2,0.4,2.8,1.3h0.1l-0.1-0.7v-0.6v-3.7h1.4v12.9h-1.1L675.3,551.2z M672.6,551.4c0.9,0,1.6-0.3,2-0.8
			s0.6-1.3,0.6-2.5v-0.3c0-1.3-0.2-2.2-0.6-2.8c-0.4-0.6-1.1-0.8-2.1-0.8c-0.8,0-1.4,0.3-1.9,0.9s-0.6,1.5-0.6,2.7s0.2,2,0.6,2.6
			C671.1,551.1,671.7,551.4,672.6,551.4z"/>
		<path class="st2" d="M683.4,552.5c-1.3,0-2.4-0.4-3.2-1.2s-1.2-2-1.2-3.4c0-1.5,0.4-2.6,1.1-3.5c0.7-0.9,1.7-1.3,2.9-1.3
			c1.1,0,2,0.4,2.7,1.1s1,1.7,1,3v0.9h-6.3c0,1.1,0.3,1.9,0.8,2.4c0.5,0.6,1.2,0.8,2.2,0.8s1.9-0.2,2.9-0.6v1.2
			c-0.5,0.2-0.9,0.4-1.4,0.5C684.5,552.5,684,552.5,683.4,552.5z M683,544.3c-0.7,0-1.3,0.2-1.7,0.7s-0.7,1.1-0.8,2h4.8
			c0-0.9-0.2-1.5-0.6-2C684.3,544.5,683.7,544.3,683,544.3z"/>
		<path class="st2" d="M691.3,547.7l-3.2-4.4h1.6l2.4,3.5l2.4-3.5h1.6l-3.2,4.4l3.3,4.7h-1.6l-2.5-3.7l-2.6,3.7H688L691.3,547.7z"/>
	</g>
	<g class="st6">
		<path class="st7" d="M722.9,1028c-1.2,0-2.1-0.4-2.7-1.1c-0.6-0.7-1-1.7-1-3s0.3-2.4,1-3.1c0.6-0.7,1.6-1.1,2.8-1.1
			c0.4,0,0.8,0,1.2,0.1s0.7,0.2,0.9,0.3l-0.4,1c-0.3-0.1-0.6-0.2-0.9-0.3c-0.3-0.1-0.6-0.1-0.8-0.1c-1.6,0-2.4,1-2.4,3.1
			c0,1,0.2,1.7,0.6,2.3c0.4,0.5,1,0.8,1.8,0.8c0.7,0,1.4-0.1,2.1-0.4v1.1C724.4,1027.9,723.7,1028,722.9,1028z"/>
		<path class="st7" d="M733.8,1023.9c0,1.3-0.3,2.3-1,3.1c-0.7,0.7-1.6,1.1-2.7,1.1c-0.7,0-1.4-0.2-1.9-0.5c-0.6-0.3-1-0.8-1.3-1.4
			s-0.5-1.4-0.5-2.2c0-1.3,0.3-2.3,1-3.1c0.7-0.7,1.6-1.1,2.7-1.1c1.1,0,2,0.4,2.7,1.1C733.4,1021.6,733.8,1022.6,733.8,1023.9z
			 M727.7,1023.9c0,1,0.2,1.8,0.6,2.3c0.4,0.5,1,0.8,1.8,0.8s1.4-0.3,1.8-0.8c0.4-0.5,0.6-1.3,0.6-2.3s-0.2-1.8-0.6-2.3
			c-0.4-0.5-1-0.8-1.8-0.8s-1.4,0.3-1.8,0.8S727.7,1022.8,727.7,1023.9z"/>
		<path class="st7" d="M746.1,1027.9v-5.2c0-0.6-0.1-1.1-0.4-1.4c-0.3-0.3-0.7-0.5-1.3-0.5c-0.8,0-1.3,0.2-1.7,0.7s-0.5,1.1-0.5,2
			v4.5H741v-5.2c0-0.6-0.1-1.1-0.4-1.4c-0.3-0.3-0.7-0.5-1.3-0.5c-0.8,0-1.3,0.2-1.7,0.7s-0.5,1.2-0.5,2.2v4.2h-1.2v-8h1l0.2,1.1
			h0.1c0.2-0.4,0.6-0.7,1-0.9c0.4-0.2,0.9-0.3,1.4-0.3c1.3,0,2.1,0.5,2.5,1.4h0.1c0.2-0.4,0.6-0.8,1-1s1-0.4,1.6-0.4
			c0.9,0,1.6,0.2,2,0.7c0.5,0.5,0.7,1.2,0.7,2.2v5.2L746.1,1027.9L746.1,1027.9z"/>
		<path class="st7" d="M753.2,1028c-1.2,0-2.1-0.4-2.8-1.1s-1-1.7-1-3s0.3-2.3,1-3.1c0.6-0.8,1.5-1.1,2.6-1.1c1,0,1.8,0.3,2.4,1
			c0.6,0.7,0.9,1.5,0.9,2.6v0.8h-5.6c0,0.9,0.3,1.7,0.7,2.1c0.5,0.5,1.1,0.7,1.9,0.7c0.9,0,1.7-0.2,2.6-0.5v1.1
			c-0.4,0.2-0.8,0.3-1.2,0.4S753.8,1028,753.2,1028z M752.9,1020.7c-0.6,0-1.2,0.2-1.5,0.6c-0.4,0.4-0.6,1-0.7,1.7h4.2
			c0-0.8-0.2-1.4-0.5-1.8C754,1020.9,753.6,1020.7,752.9,1020.7z"/>
		<path class="st7" d="M762.1,1017.7c0-0.3,0.1-0.5,0.2-0.6c0.1-0.1,0.3-0.2,0.5-0.2s0.4,0.1,0.5,0.2s0.2,0.3,0.2,0.6
			c0,0.3-0.1,0.5-0.2,0.6c-0.1,0.1-0.3,0.2-0.5,0.2s-0.4-0.1-0.5-0.2C762.1,1018.2,762.1,1018,762.1,1017.7z M763.4,1027.9h-1.2v-8
			h1.2V1027.9z"/>
		<path class="st7" d="M771.5,1027.9v-5.2c0-0.7-0.1-1.1-0.4-1.5s-0.8-0.5-1.4-0.5c-0.8,0-1.5,0.2-1.8,0.7s-0.6,1.2-0.6,2.2v4.2
			h-1.2v-8h1l0.2,1.1h0.1c0.2-0.4,0.6-0.7,1-0.9c0.4-0.2,1-0.3,1.5-0.3c1,0,1.7,0.2,2.2,0.7s0.7,1.2,0.7,2.2v5.2h-1.3V1027.9z"/>
		<path class="st7" d="M785.6,1027.9l-1.5-4.7c-0.1-0.3-0.3-0.9-0.5-2h-0.1c-0.2,0.9-0.4,1.5-0.5,2l-1.5,4.7h-1.4l-2.2-8h1.3
			c0.5,2,0.9,3.6,1.2,4.6c0.3,1.1,0.4,1.8,0.5,2.1h0.1c0.1-0.3,0.1-0.6,0.3-1.1c0.1-0.4,0.2-0.8,0.3-1.1l1.5-4.6h1.3l1.4,4.6
			c0.3,0.8,0.5,1.5,0.6,2.1h0.1c0-0.2,0.1-0.4,0.2-0.8c0.1-0.4,0.6-2.3,1.5-5.9h1.3l-2.2,8h-1.7L785.6,1027.9L785.6,1027.9z"/>
		<path class="st7" d="M790.6,1017.7c0-0.3,0.1-0.5,0.2-0.6c0.1-0.1,0.3-0.2,0.5-0.2s0.4,0.1,0.5,0.2s0.2,0.3,0.2,0.6
			c0,0.3-0.1,0.5-0.2,0.6c-0.1,0.1-0.3,0.2-0.5,0.2s-0.4-0.1-0.5-0.2C790.7,1018.2,790.6,1018,790.6,1017.7z M791.9,1027.9h-1.2v-8
			h1.2V1027.9z"/>
		<path class="st7" d="M797.1,1027c0.2,0,0.4,0,0.6,0c0.2,0,0.4-0.1,0.5-0.1v0.9c-0.1,0.1-0.3,0.1-0.6,0.2c-0.3,0-0.5,0.1-0.7,0.1
			c-1.6,0-2.3-0.8-2.3-2.5v-4.8h-1.2v-0.6l1.2-0.5l0.5-1.7h0.7v1.9h2.3v0.9h-2.3v4.7c0,0.5,0.1,0.9,0.3,1.1S796.7,1027,797.1,1027z"
			/>
		<path class="st7" d="M805.3,1027.9v-5.2c0-0.7-0.1-1.1-0.4-1.5s-0.8-0.5-1.4-0.5c-0.8,0-1.5,0.2-1.8,0.7c-0.4,0.5-0.6,1.2-0.6,2.3
			v4.2h-1.2v-11.4h1.2v3.4c0,0.4,0,0.8-0.1,1h0.1c0.2-0.4,0.6-0.7,1-0.9c0.4-0.2,0.9-0.3,1.5-0.3c1,0,1.7,0.2,2.2,0.7
			s0.7,1.2,0.7,2.2v5.2h-1.2V1027.9z"/>
		<path class="st7" d="M722.9,1046c-1.2,0-2.1-0.4-2.7-1.1c-0.6-0.7-1-1.7-1-3s0.3-2.4,1-3.1c0.6-0.7,1.6-1.1,2.8-1.1
			c0.4,0,0.8,0,1.2,0.1s0.7,0.2,0.9,0.3l-0.4,1c-0.3-0.1-0.6-0.2-0.9-0.3c-0.3-0.1-0.6-0.1-0.8-0.1c-1.6,0-2.4,1-2.4,3.1
			c0,1,0.2,1.7,0.6,2.3c0.4,0.5,1,0.8,1.8,0.8c0.7,0,1.4-0.1,2.1-0.4v1.1C724.4,1045.9,723.7,1046,722.9,1046z"/>
		<path class="st7" d="M730.5,1037.7c0.4,0,0.7,0,1,0.1l-0.2,1.1c-0.3-0.1-0.6-0.1-0.9-0.1c-0.6,0-1.2,0.3-1.7,0.8s-0.7,1.2-0.7,2
			v4.3h-1.2v-8h1l0.1,1.5h0.1c0.3-0.5,0.7-0.9,1.1-1.2S730,1037.7,730.5,1037.7z"/>
		<path class="st7" d="M731.7,1037.9h1.3l1.8,4.6c0.4,1,0.6,1.8,0.7,2.3h0.1c0.1-0.2,0.2-0.7,0.4-1.3c0.2-0.6,0.9-2.5,2-5.6h1.3
			l-3.4,9.1c-0.3,0.9-0.7,1.5-1.2,1.9s-1,0.6-1.7,0.6c-0.4,0-0.7,0-1.1-0.1v-1c0.3,0.1,0.6,0.1,0.9,0.1c0.8,0,1.4-0.5,1.8-1.4
			l0.4-1.1L731.7,1037.9z"/>
		<path class="st7" d="M744.3,1046c-0.5,0-1-0.1-1.4-0.3c-0.4-0.2-0.8-0.5-1.1-0.9h-0.1c0.1,0.5,0.1,0.9,0.1,1.3v3.3h-1.2v-11.6h1
			l0.2,1.1h0.1c0.3-0.4,0.7-0.8,1.1-1s0.9-0.3,1.4-0.3c1.1,0,1.9,0.4,2.5,1.1s0.9,1.7,0.9,3.1c0,1.3-0.3,2.3-0.9,3.1
			C746.1,1045.7,745.3,1046,744.3,1046z M744.1,1038.7c-0.8,0-1.4,0.2-1.8,0.7s-0.6,1.2-0.6,2.2v0.3c0,1.1,0.2,1.9,0.6,2.4
			c0.4,0.5,1,0.7,1.8,0.7c0.7,0,1.2-0.3,1.6-0.8c0.4-0.6,0.6-1.3,0.6-2.3s-0.2-1.8-0.6-2.3C745.3,1039,744.8,1038.7,744.1,1038.7z"
			/>
		<path class="st7" d="M752.3,1045c0.2,0,0.4,0,0.6,0c0.2,0,0.4-0.1,0.5-0.1v0.9c-0.1,0.1-0.3,0.1-0.6,0.2c-0.3,0-0.5,0.1-0.7,0.1
			c-1.6,0-2.3-0.8-2.3-2.5v-4.8h-1.1v-0.6l1.2-0.5l0.5-1.7h0.7v1.9h2.3v0.9h-2.3v4.7c0,0.5,0.1,0.9,0.3,1.1S751.9,1045,752.3,1045z"
			/>
		<path class="st7" d="M761.9,1041.9c0,1.3-0.3,2.3-1,3.1c-0.7,0.7-1.6,1.1-2.7,1.1c-0.7,0-1.4-0.2-1.9-0.5c-0.6-0.3-1-0.8-1.3-1.4
			s-0.5-1.4-0.5-2.2c0-1.3,0.3-2.3,1-3.1c0.7-0.7,1.6-1.1,2.7-1.1c1.1,0,2,0.4,2.7,1.1C761.6,1039.6,761.9,1040.6,761.9,1041.9z
			 M755.8,1041.9c0,1,0.2,1.8,0.6,2.3c0.4,0.5,1,0.8,1.8,0.8s1.4-0.3,1.8-0.8c0.4-0.5,0.6-1.3,0.6-2.3s-0.2-1.8-0.6-2.3
			c-0.4-0.5-1-0.8-1.8-0.8s-1.4,0.3-1.8,0.8S755.8,1040.8,755.8,1041.9z"/>
		<path class="st7" d="M772.9,1045.9l-0.2-1.1h-0.1c-0.4,0.5-0.8,0.8-1.2,1s-0.9,0.3-1.5,0.3c-0.8,0-1.4-0.2-1.9-0.6s-0.7-1-0.7-1.8
			c0-1.6,1.3-2.5,3.9-2.5h1.4v-0.5c0-0.6-0.1-1.1-0.4-1.4c-0.3-0.3-0.7-0.5-1.3-0.5c-0.7,0-1.4,0.2-2.3,0.6l-0.4-0.9
			c0.4-0.2,0.8-0.4,1.3-0.5s0.9-0.2,1.4-0.2c1,0,1.7,0.2,2.1,0.6c0.5,0.4,0.7,1.1,0.7,2v5.5H772.9z M770.2,1045
			c0.8,0,1.4-0.2,1.8-0.6c0.4-0.4,0.6-1,0.6-1.7v-0.7l-1.2,0.1c-1,0-1.7,0.2-2.1,0.5c-0.4,0.3-0.6,0.7-0.6,1.2c0,0.4,0.1,0.8,0.4,1
			C769.3,1044.9,769.7,1045,770.2,1045z"/>
		<path class="st7" d="M781.5,1043.7c0,0.7-0.3,1.3-0.8,1.7s-1.3,0.6-2.3,0.6c-1.1,0-1.9-0.2-2.5-0.5v-1.1c0.4,0.2,0.8,0.3,1.2,0.5
			c0.4,0.1,0.9,0.2,1.3,0.2c0.6,0,1.1-0.1,1.5-0.3c0.3-0.2,0.5-0.5,0.5-0.9c0-0.3-0.1-0.6-0.4-0.8c-0.3-0.2-0.8-0.5-1.6-0.8
			c-0.7-0.3-1.3-0.5-1.6-0.7s-0.5-0.4-0.7-0.7c-0.2-0.3-0.2-0.6-0.2-0.9c0-0.7,0.3-1.2,0.8-1.5c0.5-0.4,1.3-0.6,2.2-0.6
			s1.7,0.2,2.5,0.5l-0.4,1c-0.8-0.3-1.5-0.5-2.2-0.5c-0.6,0-1,0.1-1.3,0.3s-0.4,0.4-0.4,0.7c0,0.2,0.1,0.4,0.2,0.5
			c0.1,0.2,0.3,0.3,0.5,0.4s0.7,0.3,1.4,0.6c1,0.3,1.6,0.7,1.9,1C781.3,1042.7,781.5,1043.2,781.5,1043.7z"/>
		<path class="st7" d="M788.6,1043.7c0,0.7-0.3,1.3-0.8,1.7s-1.3,0.6-2.3,0.6c-1.1,0-1.9-0.2-2.5-0.5v-1.1c0.4,0.2,0.8,0.3,1.2,0.5
			c0.4,0.1,0.9,0.2,1.3,0.2c0.6,0,1.1-0.1,1.5-0.3c0.3-0.2,0.5-0.5,0.5-0.9c0-0.3-0.1-0.6-0.4-0.8c-0.3-0.2-0.8-0.5-1.6-0.8
			c-0.7-0.3-1.3-0.5-1.6-0.7s-0.5-0.4-0.7-0.7c-0.2-0.3-0.2-0.6-0.2-0.9c0-0.7,0.3-1.2,0.8-1.5c0.5-0.4,1.3-0.6,2.2-0.6
			s1.7,0.2,2.5,0.5l-0.4,1c-0.8-0.3-1.5-0.5-2.2-0.5c-0.6,0-1,0.1-1.3,0.3s-0.4,0.4-0.4,0.7c0,0.2,0.1,0.4,0.2,0.5
			c0.1,0.2,0.3,0.3,0.5,0.4s0.7,0.3,1.4,0.6c1,0.3,1.6,0.7,1.9,1C788.5,1042.7,788.6,1043.2,788.6,1043.7z"/>
		<path class="st7" d="M794,1046c-1.2,0-2.1-0.4-2.8-1.1s-1-1.7-1-3s0.3-2.3,1-3.1c0.6-0.8,1.5-1.1,2.6-1.1c1,0,1.8,0.3,2.4,1
			c0.6,0.7,0.9,1.5,0.9,2.6v0.8h-5.5c0,0.9,0.3,1.7,0.7,2.1c0.5,0.5,1.1,0.7,1.9,0.7c0.9,0,1.7-0.2,2.6-0.5v1.1
			c-0.4,0.2-0.8,0.3-1.2,0.4C795,1046,794.6,1046,794,1046z M793.7,1038.7c-0.6,0-1.2,0.2-1.5,0.6c-0.4,0.4-0.6,1-0.7,1.7h4.2
			c0-0.8-0.2-1.4-0.5-1.8C794.8,1038.9,794.3,1038.7,793.7,1038.7z"/>
		<path class="st7" d="M801.6,1045c0.2,0,0.4,0,0.6,0c0.2,0,0.4-0.1,0.5-0.1v0.9c-0.1,0.1-0.3,0.1-0.6,0.2c-0.3,0-0.5,0.1-0.7,0.1
			c-1.6,0-2.3-0.8-2.3-2.5v-4.8h-1.2v-0.6l1.2-0.5l0.5-1.7h0.7v1.9h2.3v0.9h-2.3v4.7c0,0.5,0.1,0.9,0.3,1.1S801.2,1045,801.6,1045z"
			/>
		<path class="st7" d="M809.5,1043.7c0,0.7-0.3,1.3-0.8,1.7s-1.3,0.6-2.3,0.6c-1.1,0-1.9-0.2-2.5-0.5v-1.1c0.4,0.2,0.8,0.3,1.2,0.5
			c0.4,0.1,0.9,0.2,1.3,0.2c0.6,0,1.1-0.1,1.5-0.3c0.3-0.2,0.5-0.5,0.5-0.9c0-0.3-0.1-0.6-0.4-0.8c-0.3-0.2-0.8-0.5-1.6-0.8
			c-0.7-0.3-1.3-0.5-1.6-0.7s-0.5-0.4-0.7-0.7c-0.2-0.3-0.2-0.6-0.2-0.9c0-0.7,0.3-1.2,0.8-1.5c0.5-0.4,1.3-0.6,2.2-0.6
			s1.7,0.2,2.5,0.5l-0.4,1c-0.8-0.3-1.5-0.5-2.2-0.5c-0.6,0-1,0.1-1.3,0.3s-0.4,0.4-0.4,0.7c0,0.2,0.1,0.4,0.2,0.5
			c0.1,0.2,0.3,0.3,0.5,0.4s0.7,0.3,1.4,0.6c1,0.3,1.6,0.7,1.9,1C809.3,1042.7,809.5,1043.2,809.5,1043.7z"/>
	</g>
	<g class="st6">
		<path class="st2" d="M727,991.9h1.5l-4.4,12.1h-1.4l-4.3-12.1h1.5l2.8,7.9c0.3,0.9,0.6,1.8,0.8,2.6c0.2-0.9,0.5-1.8,0.8-2.7
			L727,991.9z"/>
		<path class="st2" d="M733.8,1004.2c-1.3,0-2.4-0.4-3.2-1.2s-1.2-2-1.2-3.4c0-1.5,0.4-2.6,1.1-3.5c0.7-0.9,1.7-1.3,2.9-1.3
			c1.1,0,2,0.4,2.7,1.1s1,1.7,1,3v0.9h-6.3c0,1.1,0.3,1.9,0.8,2.4c0.5,0.6,1.2,0.8,2.2,0.8s1.9-0.2,2.9-0.6v1.2
			c-0.5,0.2-0.9,0.4-1.4,0.5C735,1004.2,734.5,1004.2,733.8,1004.2z M733.5,996c-0.7,0-1.3,0.2-1.7,0.7s-0.7,1.1-0.8,2h4.8
			c0-0.9-0.2-1.5-0.6-2C734.7,996.2,734.2,996,733.5,996z"/>
		<path class="st2" d="M745.8,1004.1v-5.9c0-0.7-0.2-1.3-0.5-1.7s-0.9-0.5-1.6-0.5c-1,0-1.6,0.3-2.1,0.8c-0.4,0.5-0.7,1.4-0.7,2.5
			v4.8h-1.4V995h1.1l0.2,1.2h0.1c0.3-0.4,0.7-0.8,1.2-1s1.1-0.4,1.7-0.4c1.1,0,1.9,0.3,2.5,0.8s0.8,1.4,0.8,2.5v5.9h-1.3V1004.1z"/>
		<path class="st2" d="M756.2,1002.9L756.2,1002.9c-0.7,0.9-1.7,1.4-2.9,1.4s-2.1-0.4-2.8-1.2s-1-2-1-3.5s0.3-2.7,1-3.5
			s1.6-1.2,2.8-1.2s2.2,0.4,2.8,1.3h0.1l-0.1-0.7v-0.6v-3.7h1.4v12.9h-1.1L756.2,1002.9z M753.4,1003.1c0.9,0,1.6-0.3,2-0.8
			s0.6-1.3,0.6-2.5v-0.3c0-1.3-0.2-2.2-0.6-2.8s-1.1-0.8-2.1-0.8c-0.8,0-1.4,0.3-1.9,0.9c-0.4,0.6-0.6,1.5-0.6,2.7s0.2,2,0.6,2.6
			C752,1002.8,752.6,1003.1,753.4,1003.1z"/>
		<path class="st2" d="M768.2,999.5c0,1.5-0.4,2.6-1.1,3.5s-1.8,1.2-3.1,1.2c-0.8,0-1.5-0.2-2.2-0.6c-0.6-0.4-1.1-0.9-1.5-1.6
			c-0.3-0.7-0.5-1.5-0.5-2.5c0-1.5,0.4-2.6,1.1-3.5c0.7-0.8,1.8-1.2,3.1-1.2s2.3,0.4,3,1.3C767.9,996.9,768.2,998.1,768.2,999.5z
			 M761.3,999.5c0,1.2,0.2,2,0.7,2.7c0.5,0.6,1.1,0.9,2.1,0.9c0.9,0,1.6-0.3,2.1-0.9c0.5-0.6,0.7-1.5,0.7-2.7s-0.2-2-0.7-2.6
			s-1.2-0.9-2.1-0.9c-0.9,0-1.6,0.3-2,0.9C761.5,997.5,761.3,998.3,761.3,999.5z"/>
		<path class="st2" d="M774.8,994.8c0.4,0,0.8,0,1.1,0.1l-0.2,1.3c-0.4-0.1-0.7-0.1-1-0.1c-0.7,0-1.4,0.3-1.9,0.9
			c-0.5,0.6-0.8,1.3-0.8,2.2v4.9h-1.4V995h1.1l0.2,1.7h0.1c0.3-0.6,0.7-1,1.2-1.4C773.7,995,774.2,994.8,774.8,994.8z"/>
		<path class="st2" d="M783.5,1001.6c0,0.8-0.3,1.5-0.9,2c-0.6,0.5-1.5,0.7-2.7,0.7s-2.1-0.2-2.8-0.6v-1.3c0.4,0.2,0.9,0.4,1.4,0.5
			s1,0.2,1.4,0.2c0.7,0,1.3-0.1,1.7-0.3s0.6-0.6,0.6-1s-0.2-0.7-0.5-0.9c-0.3-0.3-0.9-0.5-1.8-0.9c-0.8-0.3-1.4-0.6-1.8-0.8
			c-0.4-0.2-0.6-0.5-0.8-0.8s-0.3-0.7-0.3-1.1c0-0.7,0.3-1.3,0.9-1.8c0.6-0.4,1.4-0.6,2.5-0.6c1,0,1.9,0.2,2.9,0.6l-0.5,1.1
			c-0.9-0.4-1.7-0.6-2.5-0.6c-0.7,0-1.1,0.1-1.5,0.3s-0.5,0.5-0.5,0.8c0,0.2,0.1,0.5,0.2,0.6c0.1,0.2,0.3,0.3,0.6,0.5
			s0.8,0.4,1.6,0.7c1.1,0.4,1.8,0.8,2.2,1.2C783.3,1000.5,783.5,1001,783.5,1001.6z"/>
	</g>
	<g class="st6">
		<path class="st7" d="M905.4,740.8c-1.2,0-2.1-0.4-2.8-1.1c-0.7-0.7-1-1.7-1-3s0.3-2.3,1-3.1c0.6-0.8,1.5-1.1,2.6-1.1
			c1,0,1.8,0.3,2.4,1c0.6,0.7,0.9,1.5,0.9,2.6v0.8H903c0,0.9,0.3,1.7,0.7,2.1c0.5,0.5,1.1,0.7,1.9,0.7c0.9,0,1.7-0.2,2.6-0.5v1.1
			c-0.4,0.2-0.8,0.3-1.2,0.4C906.4,740.8,905.9,740.8,905.4,740.8z M905.1,733.5c-0.6,0-1.2,0.2-1.5,0.6c-0.4,0.4-0.6,1-0.7,1.7h4.2
			c0-0.8-0.2-1.4-0.5-1.8C906.2,733.7,905.7,733.5,905.1,733.5z"/>
		<path class="st7" d="M915.3,740.7l-0.2-1.1H915c-0.4,0.5-0.8,0.8-1.2,1s-0.9,0.3-1.5,0.3c-0.8,0-1.4-0.2-1.9-0.6
			c-0.5-0.4-0.7-1-0.7-1.8c0-1.6,1.3-2.5,3.9-2.5h1.4v-0.5c0-0.6-0.1-1.1-0.4-1.4c-0.3-0.3-0.7-0.5-1.3-0.5c-0.7,0-1.4,0.2-2.3,0.6
			l-0.4-0.9c0.4-0.2,0.8-0.4,1.3-0.5s0.9-0.2,1.4-0.2c1,0,1.7,0.2,2.1,0.6c0.5,0.4,0.7,1.1,0.7,2v5.5L915.3,740.7L915.3,740.7z
			 M912.6,739.8c0.8,0,1.4-0.2,1.8-0.6c0.4-0.4,0.6-1,0.6-1.7v-0.7l-1.2,0.1c-1,0-1.7,0.2-2.1,0.5c-0.4,0.3-0.6,0.7-0.6,1.2
			c0,0.4,0.1,0.8,0.4,1C911.7,739.7,912.1,739.8,912.6,739.8z"/>
		<path class="st7" d="M922.4,732.5c0.4,0,0.7,0,1,0.1l-0.2,1.1c-0.3-0.1-0.6-0.1-0.9-0.1c-0.6,0-1.2,0.3-1.7,0.8s-0.7,1.2-0.7,2
			v4.3h-1.2v-8h1l0.1,1.5h0.1c0.3-0.5,0.7-0.9,1.1-1.2S921.9,732.5,922.4,732.5z"/>
		<path class="st7" d="M930.4,740.7v-5.2c0-0.7-0.1-1.1-0.4-1.5s-0.8-0.5-1.4-0.5c-0.8,0-1.5,0.2-1.8,0.7s-0.6,1.2-0.6,2.2v4.2H925
			v-8h1l0.2,1.1h0.1c0.2-0.4,0.6-0.7,1-0.9s0.9-0.3,1.5-0.3c1,0,1.7,0.2,2.2,0.7s0.7,1.2,0.7,2.2v5.2L930.4,740.7L930.4,740.7z"/>
		<path class="st7" d="M908.9,754.7c0,1.3-0.3,2.3-1,3.1c-0.7,0.7-1.6,1.1-2.7,1.1c-0.7,0-1.4-0.2-1.9-0.5c-0.6-0.3-1-0.8-1.3-1.4
			c-0.3-0.6-0.5-1.4-0.5-2.2c0-1.3,0.3-2.3,1-3.1c0.7-0.7,1.6-1.1,2.7-1.1c1.1,0,2,0.4,2.7,1.1C908.6,752.4,908.9,753.4,908.9,754.7
			z M902.8,754.7c0,1,0.2,1.8,0.6,2.3c0.4,0.5,1,0.8,1.8,0.8s1.4-0.3,1.8-0.8c0.4-0.5,0.6-1.3,0.6-2.3s-0.2-1.8-0.6-2.3
			c-0.4-0.5-1-0.8-1.8-0.8s-1.4,0.3-1.8,0.8S902.8,753.6,902.8,754.7z"/>
		<path class="st7" d="M916.5,758.7v-5.2c0-0.7-0.1-1.1-0.4-1.5s-0.8-0.5-1.4-0.5c-0.8,0-1.5,0.2-1.8,0.7s-0.6,1.2-0.6,2.2v4.2h-1.2
			v-8h1l0.2,1.1h0.1c0.2-0.4,0.6-0.7,1-0.9s1-0.3,1.5-0.3c1,0,1.7,0.2,2.2,0.7s0.7,1.2,0.7,2.2v5.2L916.5,758.7L916.5,758.7z"/>
		<path class="st7" d="M927.5,758.8c-1.2,0-2.1-0.4-2.8-1.1c-0.7-0.7-1-1.7-1-3s0.3-2.3,1-3.1c0.6-0.8,1.5-1.1,2.6-1.1
			c1,0,1.8,0.3,2.4,1c0.6,0.7,0.9,1.5,0.9,2.6v0.8H925c0,0.9,0.3,1.7,0.7,2.1c0.5,0.5,1.1,0.7,1.9,0.7c0.9,0,1.7-0.2,2.6-0.5v1.1
			c-0.4,0.2-0.8,0.3-1.2,0.4C928.6,758.8,928.1,758.8,927.5,758.8z M927.2,751.5c-0.6,0-1.2,0.2-1.5,0.6c-0.4,0.4-0.6,1-0.7,1.7h4.2
			c0-0.8-0.2-1.4-0.5-1.8C928.3,751.7,927.9,751.5,927.2,751.5z"/>
		<path class="st7" d="M934.5,754.6l-2.8-3.9h1.4l2.1,3.1l2.1-3.1h1.4l-2.8,3.9l2.9,4.1h-1.4l-2.2-3.3l-2.3,3.3h-1.4L934.5,754.6z"
			/>
		<path class="st7" d="M944.2,758.8c-0.5,0-1-0.1-1.4-0.3s-0.8-0.5-1.1-0.9h-0.1c0.1,0.5,0.1,0.9,0.1,1.3v3.3h-1.2v-11.6h1l0.2,1.1
			h0.1c0.3-0.4,0.7-0.8,1.1-1s0.9-0.3,1.4-0.3c1.1,0,1.9,0.4,2.5,1.1c0.6,0.7,0.9,1.7,0.9,3.1c0,1.3-0.3,2.3-0.9,3.1
			C946,758.5,945.2,758.8,944.2,758.8z M944,751.6c-0.8,0-1.4,0.2-1.8,0.7s-0.6,1.2-0.6,2.2v0.3c0,1.1,0.2,1.9,0.6,2.4
			c0.4,0.5,1,0.7,1.8,0.7c0.7,0,1.2-0.3,1.6-0.8c0.4-0.6,0.6-1.3,0.6-2.3s-0.2-1.8-0.6-2.3C945.3,751.8,944.7,751.6,944,751.6z"/>
		<path class="st7" d="M953,758.8c-1.2,0-2.1-0.4-2.8-1.1c-0.7-0.7-1-1.7-1-3s0.3-2.3,1-3.1c0.6-0.8,1.5-1.1,2.6-1.1
			c1,0,1.8,0.3,2.4,1c0.6,0.7,0.9,1.5,0.9,2.6v0.8h-5.5c0,0.9,0.3,1.7,0.7,2.1c0.5,0.5,1.1,0.7,1.9,0.7c0.9,0,1.7-0.2,2.6-0.5v1.1
			c-0.4,0.2-0.8,0.3-1.2,0.4C954,758.8,953.6,758.8,953,758.8z M952.7,751.5c-0.6,0-1.2,0.2-1.5,0.6c-0.4,0.4-0.6,1-0.7,1.7h4.2
			c0-0.8-0.2-1.4-0.5-1.8C953.8,751.7,953.3,751.5,952.7,751.5z"/>
		<path class="st7" d="M961.7,750.5c0.4,0,0.7,0,1,0.1l-0.2,1.1c-0.3-0.1-0.6-0.1-0.9-0.1c-0.6,0-1.2,0.3-1.7,0.8s-0.7,1.2-0.7,2
			v4.3H958v-8h1l0.1,1.5h0.1c0.3-0.5,0.7-0.9,1.1-1.2S961.2,750.5,961.7,750.5z"/>
		<path class="st7" d="M966.8,757.8c0.2,0,0.4,0,0.6,0c0.2,0,0.4-0.1,0.5-0.1v0.9c-0.1,0.1-0.3,0.1-0.6,0.2c-0.3,0-0.5,0.1-0.7,0.1
			c-1.6,0-2.3-0.8-2.3-2.5v-4.8h-1.1V751l1.1-0.5l0.5-1.7h0.7v1.9h2.3v0.9h-2.3v4.7c0,0.5,0.1,0.9,0.3,1.1S966.4,757.8,966.8,757.8z
			"/>
		<path class="st7" d="M969.4,748.5c0-0.3,0.1-0.5,0.2-0.6c0.1-0.1,0.3-0.2,0.5-0.2s0.4,0.1,0.5,0.2s0.2,0.3,0.2,0.6
			s-0.1,0.5-0.2,0.6c-0.1,0.1-0.3,0.2-0.5,0.2s-0.4-0.1-0.5-0.2C969.4,749,969.4,748.8,969.4,748.5z M970.7,758.7h-1.2v-8h1.2V758.7
			z"/>
		<path class="st7" d="M978.4,756.5c0,0.7-0.3,1.3-0.8,1.7s-1.3,0.6-2.3,0.6c-1.1,0-1.9-0.2-2.5-0.5v-1.1c0.4,0.2,0.8,0.3,1.2,0.5
			c0.4,0.1,0.9,0.2,1.3,0.2c0.6,0,1.1-0.1,1.5-0.3c0.3-0.2,0.5-0.5,0.5-0.9c0-0.3-0.1-0.6-0.4-0.8c-0.3-0.2-0.8-0.5-1.6-0.8
			c-0.7-0.3-1.3-0.5-1.6-0.7s-0.5-0.4-0.7-0.7s-0.2-0.6-0.2-0.9c0-0.7,0.3-1.2,0.8-1.5c0.5-0.4,1.3-0.6,2.2-0.6s1.7,0.2,2.5,0.5
			l-0.4,1c-0.8-0.3-1.5-0.5-2.2-0.5c-0.6,0-1,0.1-1.3,0.3s-0.4,0.4-0.4,0.7c0,0.2,0.1,0.4,0.2,0.5c0.1,0.2,0.3,0.3,0.5,0.4
			s0.7,0.3,1.4,0.6c1,0.3,1.6,0.7,1.9,1C978.3,755.5,978.4,756,978.4,756.5z"/>
		<path class="st7" d="M983.8,758.8c-1.2,0-2.1-0.4-2.8-1.1c-0.7-0.7-1-1.7-1-3s0.3-2.3,1-3.1c0.6-0.8,1.5-1.1,2.6-1.1
			c1,0,1.8,0.3,2.4,1c0.6,0.7,0.9,1.5,0.9,2.6v0.8h-5.5c0,0.9,0.3,1.7,0.7,2.1c0.5,0.5,1.1,0.7,1.9,0.7c0.9,0,1.7-0.2,2.6-0.5v1.1
			c-0.4,0.2-0.8,0.3-1.2,0.4C984.8,758.8,984.3,758.8,983.8,758.8z M983.5,751.5c-0.6,0-1.2,0.2-1.5,0.6c-0.4,0.4-0.6,1-0.7,1.7h4.2
			c0-0.8-0.2-1.4-0.5-1.8C984.6,751.7,984.1,751.5,983.5,751.5z"/>
	</g>
	<g class="st6">
		<path class="st2" d="M906.1,716.9h-1.4V706h-3.8v-1.3h9.1v1.3h-3.8L906.1,716.9L906.1,716.9z"/>
		<path class="st2" d="M915.7,707.6c0.4,0,0.8,0,1.1,0.1l-0.2,1.3c-0.4-0.1-0.7-0.1-1-0.1c-0.7,0-1.4,0.3-1.9,0.9
			c-0.5,0.6-0.8,1.3-0.8,2.2v4.9h-1.4v-9.1h1.1l0.2,1.7h0.1c0.3-0.6,0.7-1,1.2-1.4C914.6,707.8,915.1,707.6,915.7,707.6z"/>
		<path class="st2" d="M924.1,716.9l-0.3-1.3h-0.1c-0.5,0.6-0.9,1-1.4,1.2s-1,0.3-1.7,0.3c-0.9,0-1.6-0.2-2.1-0.7s-0.8-1.1-0.8-2
			c0-1.8,1.5-2.8,4.4-2.9h1.5v-0.6c0-0.7-0.2-1.2-0.5-1.6c-0.3-0.3-0.8-0.5-1.5-0.5c-0.8,0-1.6,0.2-2.6,0.7l-0.4-1.1
			c0.4-0.2,0.9-0.4,1.5-0.6c0.5-0.1,1.1-0.2,1.6-0.2c1.1,0,1.9,0.2,2.4,0.7s0.8,1.3,0.8,2.3v6.2L924.1,716.9L924.1,716.9z
			 M921,715.9c0.9,0,1.5-0.2,2-0.7s0.7-1.1,0.7-2v-0.8l-1.4,0.1c-1.1,0-1.9,0.2-2.4,0.5s-0.7,0.8-0.7,1.4c0,0.5,0.2,0.9,0.5,1.1
			S920.4,715.9,921,715.9z"/>
		<path class="st2" d="M934.2,715.7L934.2,715.7c-0.7,0.9-1.7,1.4-2.9,1.4s-2.1-0.4-2.8-1.2s-1-2-1-3.5s0.3-2.7,1-3.5
			s1.6-1.2,2.8-1.2s2.2,0.4,2.8,1.3h0.1l-0.1-0.7v-0.6V704h1.4v12.9h-1.1L934.2,715.7z M931.4,715.9c0.9,0,1.6-0.3,2-0.8
			s0.6-1.3,0.6-2.5v-0.3c0-1.3-0.2-2.2-0.6-2.8c-0.4-0.6-1.1-0.8-2.1-0.8c-0.8,0-1.4,0.3-1.9,0.9c-0.4,0.6-0.6,1.5-0.6,2.7
			s0.2,2,0.6,2.6C930,715.6,930.6,715.9,931.4,715.9z"/>
		<path class="st2" d="M942.2,717.1c-1.3,0-2.4-0.4-3.2-1.2s-1.2-2-1.2-3.4c0-1.5,0.4-2.6,1.1-3.5c0.7-0.9,1.7-1.3,2.9-1.3
			c1.1,0,2,0.4,2.7,1.1s1,1.7,1,3v0.9h-6.3c0,1.1,0.3,1.9,0.8,2.4c0.5,0.6,1.2,0.8,2.2,0.8s1.9-0.2,2.9-0.6v1.2
			c-0.5,0.2-0.9,0.4-1.4,0.5C943.4,717,942.8,717.1,942.2,717.1z M941.9,708.8c-0.7,0-1.3,0.2-1.7,0.7s-0.7,1.1-0.8,2h4.8
			c0-0.9-0.2-1.5-0.6-2S942.6,708.8,941.9,708.8z"/>
		<path class="st2" d="M952.1,707.6c0.4,0,0.8,0,1.1,0.1L953,709c-0.4-0.1-0.7-0.1-1-0.1c-0.7,0-1.4,0.3-1.9,0.9s-0.8,1.3-0.8,2.2
			v4.9h-1.4v-9.1h1.1l0.2,1.7h0.1c0.3-0.6,0.7-1,1.2-1.4S951.5,707.6,952.1,707.6z"/>
		<path class="st2" d="M960.7,714.4c0,0.8-0.3,1.5-0.9,2c-0.6,0.5-1.5,0.7-2.7,0.7s-2.1-0.2-2.8-0.6v-1.3c0.4,0.2,0.9,0.4,1.4,0.5
			s1,0.2,1.4,0.2c0.7,0,1.3-0.1,1.7-0.3s0.6-0.6,0.6-1s-0.2-0.7-0.5-0.9c-0.3-0.3-0.9-0.5-1.8-0.9c-0.8-0.3-1.4-0.6-1.8-0.8
			s-0.6-0.5-0.8-0.8s-0.3-0.7-0.3-1.1c0-0.7,0.3-1.3,0.9-1.8s1.4-0.6,2.5-0.6c1,0,1.9,0.2,2.9,0.6l-0.5,1.1
			c-0.9-0.4-1.7-0.6-2.5-0.6c-0.7,0-1.1,0.1-1.5,0.3s-0.5,0.5-0.5,0.8c0,0.2,0.1,0.5,0.2,0.6c0.1,0.2,0.3,0.3,0.6,0.5
			s0.8,0.4,1.6,0.7c1.1,0.4,1.8,0.8,2.2,1.2C960.5,713.3,960.7,713.8,960.7,714.4z"/>
	</g>
</g>
</svg>
