<?xml version="1.0" encoding="utf-8"?>
<!-- Generator: Adobe Illustrator 22.0.0, SVG Export Plug-In . SVG Version: 6.00 Build 0)  -->
<svg version="1.1" id="Слой_1" xmlns="http://www.w3.org/2000/svg" xmlns:xlink="http://www.w3.org/1999/xlink" x="0px" y="0px"
	 viewBox="0 0 523.3 930.5" style="enable-background:new 0 0 523.3 930.5;" xml:space="preserve">
<style type="text/css">
	.st0{clip-path:url(#SVGID_2_);}
	.st1{opacity:0.5;}
	.st2{fill:none;stroke:#00FCC0;stroke-miterlimit:10;stroke-dasharray:11.9361,11.9361;}
	.st3{fill:none;stroke:#00FCC0;stroke-dasharray:11.9361,11.9361;}
	.st4{fill:none;stroke:#00FCC0;stroke-miterlimit:10;stroke-dasharray:12.0352,12.0352;}
	.st5{fill:none;stroke:#00FCC0;stroke-dasharray:12.0352,12.0352;}
	.st6{fill:none;stroke:#00FCC0;stroke-miterlimit:10;stroke-dasharray:12.0064,12.0064;}
	.st7{fill:none;stroke:#00FCC0;stroke-dasharray:12.0064,12.0064;}
	.st8{fill:url(#path-25-2_1_);}
	.st9{fill:url(#path-4-2_1_);}
	.st10{fill:url(#path-9-2_1_);}
	.st11{fill:#45029D;stroke:#4FFFD8;stroke-width:4;stroke-miterlimit:10;}
	.st12{fill:#FFFFFF;}
	.st13{font-family:'OpenSans-Regular';}
	.st14{font-size:15px;}
	.st15{font-family:'MyriadPro-Regular';}
	.st16{fill:#00FCC0;}
	.st17{font-size:17px;}
	.st18{fill:none;stroke:#4FFFD8;stroke-width:2;stroke-miterlimit:10;}
	.st19{fill:#4FFFD8;}
</style>
<title>Orb-mini</title>
<g>
	<g>
		<defs>
			<rect id="SVGID_1_" x="-3" y="14" width="530" height="918"/>
		</defs>
		<clipPath id="SVGID_2_">
			<use xlink:href="#SVGID_1_"  style="overflow:visible;"/>
		</clipPath>
		<g id="Слой_2_1_" class="st0">
			<g id="Слой_1-2">
				<g id="Oval-3" class="st1">
					<g id="path-31">
						<path class="st2" d="M258.7,436.8c165.8,0,300.1-134.4,300.1-300.1S424.4-163.5,258.7-163.5S-41.5-29.1-41.5,136.7
							S92.9,436.8,258.7,436.8z"/>
					</g>
					<g id="path-31-2">
						<path class="st3" d="M258.7,436.8c165.8,0,300.1-134.4,300.1-300.1S424.4-163.5,258.7-163.5S-41.5-29.1-41.5,136.7
							S92.9,436.8,258.7,436.8z"/>
					</g>
				</g>
				<g id="Oval-3-3" class="st1">
					<g id="path-31-5">
						<path class="st4" d="M261.7,778.8c359.6,0,651.2-291.5,651.2-651.2S621.3-523.5,261.7-523.5S-389.5-232-389.5,127.7
							S-98,778.8,261.7,778.8z"/>
					</g>
					<g id="path-31-6">
						<path class="st5" d="M261.7,778.8c359.6,0,651.2-291.5,651.2-651.2c0-55.4-6.9-109.2-20-160.6
							c-71.5-282-327.1-490.5-631.2-490.5c-301.4,0-555.1,204.8-629.2,482.9c-14.4,53.7-22,110.1-22,168.3
							C-389.5,487.4-98,778.8,261.7,778.8z"/>
					</g>
				</g>
				<g id="Oval-3-2" class="st1">
					<g id="path-31-3">
						<circle class="st6" cx="252.7" cy="127.7" r="485.3"/>
					</g>
					<g id="path-31-4">
						<circle class="st7" cx="252.7" cy="127.7" r="485.3"/>
					</g>
				</g>
				<g id="CINDEX-DT">
					<g id="How-it-works">
						<g id="Orbs">
							<g id="Cindex">
								<g id="Logo-Sign">
									<g id="Page-1">
										<g id="Combined-Shape">
											<path id="path-25" d="M289.7,225.4c0.3,0,0.5-0.1,0.7-0.3l45.8-43.5c0.3-0.3,0.8-0.4,1.2-0.1l15.8,9.8
												c0.5,0.3,0.6,0.9,0.3,1.4c0,0.1-0.1,0.1-0.1,0.2l-53.5,50.9c-1.3,1.3-3.1,2-5,2h-58.4c-1.8,0-3.6-0.7-4.9-2l-65.5-61.1
												c-1.6-1.5-2.4-3.5-2.4-5.7V96.7c0-2.1,0.9-4.2,2.4-5.6l65.5-61.4c1.3-1.3,3.1-2,4.9-2h58.4c1.9,0,3.7,0.7,5,2l53.4,50.9
												c0.4,0.4,0.4,1,0,1.4c-0.1,0.1-0.1,0.1-0.2,0.1l-15.8,9.8c-0.4,0.3-0.9,0.2-1.2-0.1l-45.7-43.5c-0.2-0.2-0.4-0.3-0.7-0.3
												h-48.1c-0.3,0-0.5,0.1-0.7,0.3L183.6,102c-0.2,0.2-0.3,0.4-0.3,0.7v68.2c0,0.3,0.1,0.5,0.3,0.7l57.3,53.5
												c0.2,0.2,0.4,0.3,0.7,0.3H289.7z M286.7,54.8c1.9,0,3.7,0.7,5,2L331,94.3c0.4,0.4,0.4,1,0,1.4c-0.1,0.1-0.1,0.1-0.2,0.1
												l-15.8,9.8c-0.4,0.2-0.9,0.2-1.2-0.1l-51.7-49c-0.4-0.4-0.4-1,0-1.4c0.2-0.2,0.4-0.3,0.7-0.3
												C262.8,54.8,286.7,54.8,286.7,54.8z M277.1,191.4l5.3,5.1c0.4,0.4,1,0.4,1.4,0l30.2-28.6c0.3-0.3,0.8-0.4,1.2-0.1
												l15.8,9.8c0.5,0.3,0.6,0.9,0.3,1.4c0,0.1-0.1,0.1-0.1,0.2l-39.4,37.5c-1.3,1.3-3.1,2-5,2h-9.9c-0.3,0-0.5-0.1-0.7-0.3
												l-2.2-2.1l-18.6-17.9l-40.3-38.8v-0.2c-0.6-0.9-0.9-1.9-0.9-3v-39.2c0-1.4,0.6-2.8,1.6-3.8l30.7-29.2
												c0.4-0.4,1-0.4,1.4,0l12.9,12.3c0.4,0.4,0.4,1,0,1.4l0,0L234,123.6c-0.2,0.2-0.3,0.4-0.3,0.7v24.8c0,0.3,0.1,0.5,0.3,0.7
												l2.7,2.5C247.3,162.6,264.2,179,277.1,191.4L277.1,191.4z M283.9,189.2c-0.4,0.4-1,0.4-1.4,0L269.6,177
												c-0.4-0.4-0.4-1,0-1.4l0,0l22.2-21.3c0.3-0.3,0.8-0.4,1.2-0.1l15.8,9.8c0.5,0.3,0.6,0.9,0.3,1.4c0,0.1-0.1,0.1-0.1,0.2
												L283.9,189.2z M253.3,55.6l20.5,19.5l34.8,33.2c0.4,0.4,0.4,1,0,1.4c-0.1,0.1-0.1,0.1-0.2,0.1l-15.3,9.5
												c-0.4,0.3-0.9,0.2-1.2-0.1L248,77.3c-0.4-0.4-1-0.4-1.4,0l-37.2,34.9c-0.6,0.5-0.9,1.3-0.9,2.1v46.1l-0.1,0.1l59.2,56.3
												c0.4,0.4,0.4,1,0,1.4c-0.2,0.2-0.4,0.3-0.7,0.3h-22.6c-1.8,0-3.6-0.7-4.9-2l-48.1-44.8c-1.6-1.5-2.4-3.5-2.4-5.7v-58.6
												c0-2.1,0.9-4.2,2.4-5.6l48.1-45.1c1.1-1.1,2.6-1.7,4.1-1.9c0.3,0,0.6-0.1,0.8,0h7C252.1,54.8,252.8,55.1,253.3,55.6z"/>
											
												<radialGradient id="path-25-2_1_" cx="-3081.0925" cy="189.7554" r="2.33" gradientTransform="matrix(133.93 134.77 -134.77 133.93 438477.9688 389931.375)" gradientUnits="userSpaceOnUse">
												<stop  offset="0" style="stop-color:#4FFFD8"/>
												<stop  offset="1" style="stop-color:#0087C1"/>
											</radialGradient>
											<path id="path-25-2" class="st8" d="M289.7,225.4c0.3,0,0.5-0.1,0.7-0.3l45.8-43.5c0.3-0.3,0.8-0.4,1.2-0.1l15.8,9.8
												c0.5,0.3,0.6,0.9,0.3,1.4c0,0.1-0.1,0.1-0.1,0.2l-53.5,50.9c-1.3,1.3-3.1,2-5,2h-58.4c-1.8,0-3.6-0.7-4.9-2l-65.5-61.1
												c-1.6-1.5-2.4-3.5-2.4-5.7V96.7c0-2.1,0.9-4.2,2.4-5.6l65.5-61.4c1.3-1.3,3.1-2,4.9-2h58.4c1.9,0,3.7,0.7,5,2l53.4,50.9
												c0.4,0.4,0.4,1,0,1.4c-0.1,0.1-0.1,0.1-0.2,0.1l-15.8,9.8c-0.4,0.3-0.9,0.2-1.2-0.1l-45.7-43.5c-0.2-0.2-0.4-0.3-0.7-0.3
												h-48.1c-0.3,0-0.5,0.1-0.7,0.3L183.6,102c-0.2,0.2-0.3,0.4-0.3,0.7v68.2c0,0.3,0.1,0.5,0.3,0.7l57.3,53.5
												c0.2,0.2,0.4,0.3,0.7,0.3H289.7z M286.7,54.8c1.9,0,3.7,0.7,5,2L331,94.3c0.4,0.4,0.4,1,0,1.4c-0.1,0.1-0.1,0.1-0.2,0.1
												l-15.8,9.8c-0.4,0.2-0.9,0.2-1.2-0.1l-51.7-49c-0.4-0.4-0.4-1,0-1.4c0.2-0.2,0.4-0.3,0.7-0.3
												C262.8,54.8,286.7,54.8,286.7,54.8z M277.1,191.4l5.3,5.1c0.4,0.4,1,0.4,1.4,0l30.2-28.6c0.3-0.3,0.8-0.4,1.2-0.1
												l15.8,9.8c0.5,0.3,0.6,0.9,0.3,1.4c0,0.1-0.1,0.1-0.1,0.2l-39.4,37.5c-1.3,1.3-3.1,2-5,2h-9.9c-0.3,0-0.5-0.1-0.7-0.3
												l-2.2-2.1l-18.6-17.9l-40.3-38.8v-0.2c-0.6-0.9-0.9-1.9-0.9-3v-39.2c0-1.4,0.6-2.8,1.6-3.8l30.7-29.2
												c0.4-0.4,1-0.4,1.4,0l12.9,12.3c0.4,0.4,0.4,1,0,1.4l0,0L234,123.6c-0.2,0.2-0.3,0.4-0.3,0.7v24.8c0,0.3,0.1,0.5,0.3,0.7
												l2.7,2.5C247.3,162.6,264.2,179,277.1,191.4L277.1,191.4z M283.9,189.2c-0.4,0.4-1,0.4-1.4,0L269.6,177
												c-0.4-0.4-0.4-1,0-1.4l0,0l22.2-21.3c0.3-0.3,0.8-0.4,1.2-0.1l15.8,9.8c0.5,0.3,0.6,0.9,0.3,1.4c0,0.1-0.1,0.1-0.1,0.2
												L283.9,189.2z M253.3,55.6l20.5,19.5l34.8,33.2c0.4,0.4,0.4,1,0,1.4c-0.1,0.1-0.1,0.1-0.2,0.1l-15.3,9.5
												c-0.4,0.3-0.9,0.2-1.2-0.1L248,77.3c-0.4-0.4-1-0.4-1.4,0l-37.2,34.9c-0.6,0.5-0.9,1.3-0.9,2.1v46.1l-0.1,0.1l59.2,56.3
												c0.4,0.4,0.4,1,0,1.4c-0.2,0.2-0.4,0.3-0.7,0.3h-22.6c-1.8,0-3.6-0.7-4.9-2l-48.1-44.8c-1.6-1.5-2.4-3.5-2.4-5.7v-58.6
												c0-2.1,0.9-4.2,2.4-5.6l48.1-45.1c1.1-1.1,2.6-1.7,4.1-1.9c0.3,0,0.6-0.1,0.8,0h7C252.1,54.8,252.8,55.1,253.3,55.6z"/>
										</g>
									</g>
								</g>
							</g>
						</g>
					</g>
				</g>
				<g id="Investors2">
					<g id="Inversot-Planet">
						<g id="Fill-21">
							<polygon id="path-4" points="262.8,420.4 263.2,431.7 272.7,437.9 262.1,441.7 259.2,452.7 252.2,443.8 240.9,444.4 
								247.3,435 243.1,424.4 254,427.6 							"/>
							
								<linearGradient id="path-4-2_1_" gradientUnits="userSpaceOnUse" x1="-3016.0032" y1="267.5995" x2="-3014.343" y2="269.7195" gradientTransform="matrix(31.85 0 0 32.31 96306.0781 -8220.833)">
								<stop  offset="0" style="stop-color:#4FFFD8"/>
								<stop  offset="1" style="stop-color:#0087C1"/>
							</linearGradient>
							<polygon id="path-4-2" class="st9" points="262.8,420.4 263.2,431.7 272.7,437.9 262.1,441.7 259.2,452.7 252.2,443.8 
								240.9,444.4 247.3,435 243.1,424.4 254,427.6 							"/>
						</g>
					</g>
				</g>
				<g id="Traders2">
					<g id="Trader-Planet">
						<g id="Fill-17">
							<path id="path-9" d="M272.9,608c0,7.9-6.4,14.3-14.3,14.3s-14.3-6.4-14.3-14.3s6.4-14.3,14.3-14.3S272.9,600.1,272.9,608
								L272.9,608"/>
							
								<radialGradient id="path-9-2_1_" cx="-3013.5425" cy="286.6604" r="2.19" gradientTransform="matrix(28.5 0 0 28.5 86144.7188 -7565.6914)" gradientUnits="userSpaceOnUse">
								<stop  offset="0" style="stop-color:#4FFFD8"/>
								<stop  offset="1" style="stop-color:#0087C1"/>
							</radialGradient>
							<path id="path-9-2" class="st10" d="M272.9,608c0,7.9-6.4,14.3-14.3,14.3s-14.3-6.4-14.3-14.3s6.4-14.3,14.3-14.3
								S272.9,600.1,272.9,608L272.9,608"/>
						</g>
					</g>
				</g>
				<g id="Traders2-2">
					<g id="Trader-Planet-2">
						<g id="Fill-17-2">
							<path id="path-9-3" d="M272.1,778.8c0,7.9-6.4,14.3-14.3,14.3s-14.3-6.4-14.3-14.3s6.4-14.3,14.3-14.3
								S272.1,770.9,272.1,778.8L272.1,778.8"/>
							<path id="path-9-4" class="st11" d="M272.1,778.8c0,7.9-6.4,14.3-14.3,14.3s-14.3-6.4-14.3-14.3s6.4-14.3,14.3-14.3
								S272.1,770.9,272.1,778.8L272.1,778.8"/>
						</g>
					</g>
				</g>
				<text transform="matrix(1 0 0 1 189.13 315.22)" class="st12 st13 st14">earnes commission</text>
				<text transform="matrix(1 0 0 1 324.96 315.22)" class="st12 st15 st14"> </text>
				<text transform="matrix(1 0 0 1 186.02 333.22)" class="st12 st13 st14">on successful trades</text>
				<text transform="matrix(1 0 0 1 328.06 333.22)" class="st12 st15 st14"> </text>
				<text transform="matrix(1 0 0 1 207.66 351.22)" class="st12 st13 st14">and sold Apps</text>
				<text transform="matrix(1 0 0 1 228.38 291.4099)" class="st16 st13 st17">Cindex</text>
				<text transform="matrix(1 0 0 1 132.38 515.89)" class="st12 st13 st14">come in with </text>
				<text transform="matrix(1 0 0 1 129.92 533.89)" class="st12 st13 st14">crypto assets</text>
				<text transform="matrix(1 0 0 1 296.71 517.89)" class="st12 st13 st14">go out with more </text>
				<text transform="matrix(1 0 0 1 296.71 535.89)" class="st12 st13 st14">money in assets</text>
				<text transform="matrix(1 0 0 1 162.24 686.5601)" class="st12 st13 st14">come in</text>
				<text transform="matrix(1 0 0 1 119.18 704.5601)" class="st12 st13 st14">with expertise</text>
				<text transform="matrix(1 0 0 1 293.38 688.5601)" class="st12 st13 st14">earn</text>
				<text transform="matrix(1 0 0 1 325.47 688.5601)" class="st12 st15 st14"> </text>
				<text transform="matrix(1 0 0 1 293.38 706.5601)" class="st12 st13 st14">on expertise</text>
				<text transform="matrix(1 0 0 1 85.56 853.89)" class="st12 st13 st14">come in  with Apps </text>
				<text transform="matrix(1 0 0 1 142.9 871.89)" class="st12 st13 st14">for traders</text>
				<text transform="matrix(1 0 0 1 293.38 855.89)" class="st12 st13 st14">come in with </text>
				<text transform="matrix(1 0 0 1 293.38 873.89)" class="st12 st13 st14">crypto assets</text>
				<text transform="matrix(1 0 0 1 221.21 481.4099)" class="st16 st13 st17">Investors</text>
				<text transform="matrix(1 0 0 1 225.14 655.4)" class="st16 st13 st17">Traders</text>
				<text transform="matrix(1 0 0 1 222.63 824.89)" class="st16 st13 st17">Vendors</text>
				<line class="st18" x1="239.7" y1="859.2" x2="263" y2="859.2"/>
				<polygon class="st19" points="261.1,850.8 274.7,859.5 261.1,868.1 				"/>
				<line class="st18" x1="239.7" y1="691.2" x2="263" y2="691.2"/>
				<polygon class="st19" points="261.1,682.8 274.7,691.5 261.1,700.1 				"/>
				<line class="st18" x1="239.7" y1="518.8" x2="263" y2="518.8"/>
				<polygon class="st19" points="261.1,510.5 274.7,519.2 261.1,527.8 				"/>
			</g>
		</g>
	</g>
</g>
</svg>
