<?xml version="1.0" encoding="UTF-8"?>
<svg width="21px" height="18px" viewBox="0 0 21 18" version="1.1" xmlns="http://www.w3.org/2000/svg" xmlns:xlink="http://www.w3.org/1999/xlink">
    <!-- Generator: Sketch 49.3 (51167) - http://www.bohemiancoding.com/sketch -->
    <title>icons / twitter</title>
    <desc>Created with Sketch.</desc>
    <defs></defs>
    <g id="Symbols" stroke="none" stroke-width="1" fill="none" fill-rule="evenodd">
        <g id="navig-/-Social-Block" transform="translate(-18.000000, -125.000000)" fill="#FF4B81">
            <g id="icons-/-twitter" transform="translate(13.000000, 119.000000)">
                <path d="M23.526149,8.84573162 C24.4160944,8.28412538 25.0989611,7.39361548 25.41944,6.3328037 C24.5861948,6.85410949 23.6654341,7.23111368 22.6830428,7.43521595 C21.899102,6.55120612 20.7786582,6 19.5386512,6 C17.1597112,6 15.231907,8.03452261 15.231907,10.5435505 C15.231907,10.8997544 15.2676528,11.2468583 15.3416094,11.578362 C11.762106,11.3885599 8.58813171,9.58153979 6.46187709,6.83070923 C6.09086107,7.50411671 5.87885191,8.28412538 5.87885191,9.11613462 C5.87885191,10.6917521 6.63937313,12.0827676 7.7955626,12.8991767 C7.08927628,12.8757764 6.42489875,12.6690741 5.84310618,12.3310703 L5.84310618,12.386971 C5.84310618,14.5891954 7.32717028,16.4261158 9.30058109,16.8421205 C8.93819334,16.9487217 8.55854904,17.0020222 8.1641134,17.0020222 C7.88677584,17.0020222 7.61560134,16.9747219 7.35428773,16.9214213 C7.90156718,18.7258414 9.49286846,20.041456 11.3787639,20.0765564 C9.90332805,21.29597 8.04578271,22.021378 6.02799789,22.021378 C5.68040148,22.021378 5.33650291,22.0018778 5,21.9589773 C6.9068498,23.2472916 9.17115689,24 11.6043317,24 C19.5300229,24 23.8614193,17.0761231 23.8614193,11.0713563 C23.8614193,10.8737542 23.858954,10.677452 23.8503258,10.4837498 C24.6921993,9.8428427 25.4243705,9.0420338 26,8.13072367 C25.2271527,8.49212769 24.3963726,8.73653041 23.526149,8.84573162 Z" id="Shape"></path>
            </g>
        </g>
    </g>
</svg>