<?xml version="1.0" encoding="utf-8"?>
<!-- Generator: Adobe Illustrator 22.0.0, SVG Export Plug-In . SVG Version: 6.00 Build 0)  -->
<svg version="1.1" id="Слой_1" xmlns="http://www.w3.org/2000/svg" xmlns:xlink="http://www.w3.org/1999/xlink" x="0px" y="0px"
	 viewBox="0 0 135 38" style="enable-background:new 0 0 135 38;" xml:space="preserve">
<style type="text/css">
	.st0{fill:#FFFFFF;}
</style>
<title>Logo</title>
<desc>Created with Sketch.</desc>
<g id="Templates">
	<g id="CINDEX-DT" transform="translate(-48.000000, -52.000000)">
		<g id="TopMenu" transform="translate(0.000000, -400.000000)">
			<g id="Logo" transform="translate(48.000000, 450.000000)">
				<g id="INDEX" transform="translate(42.000000, 11.000000)">
					<polygon id="Fill-12" class="st0" points="0,19 4,19 4,0 0,0 					"/>
					<polygon id="Fill-14" class="st0" points="24.6,19 16.8,7.3 16.8,19 13,19 13,0 16.4,0 24.2,11.6 24.2,0 28,0 28,19 					"/>
					<path id="Fill-15" class="st0" d="M45.4,4.5c-0.6-0.8-1.5-1.2-2.8-1.2h-2.8v12.4h2.8c1.3,0,2.2-0.4,2.8-1.2
						c0.7-0.9,0.8-2.2,0.8-5.1S46.1,5.3,45.4,4.5 M48,17.2C46.8,18.4,45,19,43,19h-7V0h7c2,0,3.8,0.6,5.1,1.8
						C50.2,3.9,50,6.6,50,9.4S50.2,15.1,48,17.2"/>
					<polygon id="Fill-17" class="st0" points="65.5,19 61.8,12.4 58.1,19 53.8,19 59.8,9.3 54.2,0 58.5,0 61.8,6.1 65.2,0 69.4,0 
						63.8,9.3 69.8,19 					"/>
				</g>
				<g id="C" transform="translate(0.000000, 2.000000)">
					<path id="Fill-1" class="st0" d="M13.5,34.5c0,0-0.1,0-0.1,0l-10-9.3c0,0-0.1-0.1-0.1-0.1V13.1c0,0,0-0.1,0.1-0.1l10-9.4
						c0,0,0.1,0,0.1,0h8.4c0,0,0.1,0,0.1,0l7.9,7.6c0.1,0.1,0.1,0.1,0.2,0l2.7-1.7c0.1-0.1,0.1-0.2,0-0.3l-9.3-8.9
						C23.4,0.1,23.1,0,22.8,0H12.6c-0.3,0-0.6,0.1-0.9,0.3L0.4,11C0.2,11.3,0,11.6,0,12v14c0,0.4,0.2,0.7,0.4,1l11.4,10.7
						c0.2,0.2,0.5,0.3,0.9,0.3h10.1c0.3,0,0.6-0.1,0.9-0.3l9.3-8.9c0.1-0.1,0.1-0.2,0-0.3l-2.7-1.7c-0.1,0-0.2,0-0.2,0L22,34.4
						c0,0-0.1,0-0.1,0H13.5z"/>
					<path id="Fill-4" class="st0" d="M21.3,5h-4.1c-0.2,0-0.2,0.2-0.1,0.3L26,14c0.1,0.1,0.1,0.1,0.2,0l2.7-1.7
						c0.1-0.1,0.1-0.2,0-0.3l-6.8-6.6C21.9,5.1,21.6,5,21.3,5"/>
					<path id="Fill-6" class="st0" d="M19.7,28.4c-2.2-2.1-5.1-4.9-6.9-6.7l-0.5-0.4c0,0-0.1-0.1-0.1-0.1v-4.2c0,0,0-0.1,0.1-0.1
						l4.6-4.4c0.1-0.1,0.1-0.2,0-0.2L14.7,10c-0.1-0.1-0.2-0.1-0.2,0l-5.2,5C9.1,15.2,9,15.4,9,15.7v6.7c0,0.2,0.1,0.4,0.2,0.5l0,0
						l6.9,6.6l3.2,3.1l0.4,0.4c0,0,0.1,0,0.1,0h1.7c0.3,0,0.6-0.1,0.8-0.3l6.7-6.4c0.1-0.1,0.1-0.2,0-0.3l-2.7-1.7
						c-0.1,0-0.2,0-0.2,0l-5.1,4.9c-0.1,0.1-0.2,0.1-0.2,0C20.4,29,20.1,28.7,19.7,28.4"/>
					<path id="Fill-8" class="st0" d="M20.6,27l4.4-4c0.1-0.1,0.1-0.2,0-0.3L22.2,21c-0.1,0-0.2,0-0.2,0l-3.9,3.6
						c-0.1,0.1-0.1,0.2,0,0.2l2.3,2.1C20.4,27,20.5,27,20.6,27"/>
					<path id="Fill-10" class="st0" d="M15.7,5.1C15.6,5,15.5,5,15.4,5h-1.2c0,0-0.1,0-0.1,0c-0.3,0-0.5,0.1-0.7,0.3l-8,7.7
						C5.1,13.3,5,13.6,5,14v10c0,0.4,0.1,0.7,0.4,1l8,7.7c0.2,0.2,0.5,0.3,0.8,0.3H18c0.2,0,0.2-0.2,0.1-0.3l-9.9-9.6l0,0v-7.9
						c0-0.1,0.1-0.3,0.2-0.4l6.2-6c0.1-0.1,0.2-0.1,0.2,0l7.3,7.1c0.1,0.1,0.1,0.1,0.2,0l2.6-1.6c0.1-0.1,0.1-0.2,0-0.3l-5.8-5.7
						L15.7,5.1z"/>
				</g>
			</g>
		</g>
	</g>
</g>
</svg>
